<svg width="18" height="19" viewBox="0 0 18 19" fill="none" xmlns="http://www.w3.org/2000/svg">
<path d="M9 2C4.875 2 1.5 5.375 1.5 9.5C1.5 13.625 4.875 17 9 17C13.125 17 16.5 13.625 16.5 9.5C16.5 5.375 13.125 2 9 2ZM12 11.45C12.3 11.75 12.3 12.2 12 12.5C11.85 12.65 11.7 12.725 11.475 12.725C11.25 12.725 11.1 12.65 10.95 12.5L9 10.55L7.05 12.5C6.9 12.65 6.675 12.725 6.525 12.725C6.3 12.725 6.15 12.65 6 12.5C5.7 12.2 5.7 11.75 6 11.45L7.95 9.5L6 7.55C5.7 7.25 5.7 6.8 6 6.5C6.3 6.2 6.75 6.2 7.05 6.5L9 8.45L10.95 6.5C11.25 6.2 11.7 6.2 12 6.5C12.3 6.8 12.3 7.25 12 7.55L10.05 9.5L12 11.45Z" fill="#302C3A"/>
</svg>
