<svg width="18" height="19" viewBox="0 0 18 19" fill="none" xmlns="http://www.w3.org/2000/svg">
<path d="M11.475 17H4.125C2.625 17 1.5 15.875 1.5 14.375V7.02502C1.5 5.60002 2.625 4.40002 4.125 4.40002H11.475C12.9 4.40002 14.1 5.52502 14.1 7.02502V14.375C14.025 15.875 12.9 17 11.475 17ZM4.125 5.97502C3.525 5.97502 3 6.42502 3 7.02502V14.375C3 14.975 3.525 15.5 4.125 15.5H11.475C12.075 15.5 12.6 14.975 12.6 14.375V7.02502C12.6 6.42502 12.075 5.90002 11.475 5.90002H4.125V5.97502Z" fill="#828CFC"/>
<path d="M15.7531 13.925C15.3031 13.925 15.0031 13.625 15.0031 13.175V5.225C15.0031 4.25 14.2531 3.5 13.2781 3.5H5.32812C4.87812 3.5 4.57812 3.2 4.57812 2.75C4.57812 2.3 4.87812 2 5.32812 2H13.2781C15.0781 2 16.5031 3.425 16.5031 5.225V13.175C16.5031 13.625 16.2031 13.925 15.7531 13.925Z" fill="#828CFC"/>
</svg>
