<svg width="18" height="19" viewBox="0 0 18 19" fill="none" xmlns="http://www.w3.org/2000/svg">
<path d="M16.5 3.94995H1.5C1.05 3.94995 0.75 4.24995 0.75 4.69995C0.75 5.14995 1.05 5.44995 1.5 5.44995H2.55V14.225C2.55 16.175 4.05 17.75 6 17.75H12C13.95 17.75 15.45 16.175 15.45 14.3V5.44995H16.5C16.95 5.44995 17.25 5.14995 17.25 4.69995C17.25 4.24995 16.95 3.94995 16.5 3.94995Z" fill="#302C3A"/>
<path d="M6.29688 2.75H11.7719C12.2219 2.75 12.5219 2.45 12.5219 2C12.5219 1.55 12.2219 1.25 11.7719 1.25H6.29688C5.84687 1.25 5.54688 1.55 5.54688 2C5.54688 2.45 5.84687 2.75 6.29688 2.75Z" fill="#302C3A"/>
<path d="M6.97656 14.375C6.52656 14.375 6.22656 14.075 6.22656 13.625V8.15002C6.22656 7.70002 6.52656 7.40002 6.97656 7.40002C7.42656 7.40002 7.72656 7.70002 7.72656 8.15002V13.625C7.72656 14 7.35156 14.375 6.97656 14.375Z" fill="white"/>
<path d="M11.0234 14.375C10.5734 14.375 10.2734 14.075 10.2734 13.625V8.15002C10.2734 7.70002 10.5734 7.40002 11.0234 7.40002C11.4734 7.40002 11.7734 7.70002 11.7734 8.15002V13.625C11.7734 14 11.4734 14.375 11.0234 14.375Z" fill="white"/>
</svg>
