<svg xmlns="http://www.w3.org/2000/svg" width="164" height="34" viewBox="0 0 164 34" fill="none">
  <g clip-path="url(#clip0_16_3919)">
    <path fill-rule="evenodd" clip-rule="evenodd" d="M15.3445 8.94439C13.8345 7.86 11.8162 7.3178 9.28955 7.3178H2.13577C1.97131 7.3178 1.82928 7.37721 1.70969 7.49605C1.59007 7.61489 1.53027 7.75601 1.53027 7.91942V22.3137C1.53027 22.4772 1.59007 22.6183 1.70969 22.737C1.82928 22.8559 1.97131 22.9153 2.13577 22.9153H9.28955C11.8461 22.9153 13.8718 22.3881 15.3669 21.3334C16.8769 20.2638 17.6318 18.5704 17.6318 16.253V13.9802C17.6318 13.7179 17.6217 13.4634 17.6014 13.2169H11.6619C11.68 13.3315 11.6891 13.4523 11.6891 13.5791V16.6541C11.6891 17.263 11.4798 17.7385 11.0612 18.0801C10.6575 18.4069 10.1043 18.5704 9.40167 18.5704H7.36094V13.2169H1.5609V11.587H17.2823C16.9192 10.4857 16.2732 9.60485 15.3445 8.94439ZM20.8972 13.2169V22.3137C20.8972 22.4772 20.957 22.6183 21.0767 22.737C21.1963 22.8559 21.3383 22.9153 21.5027 22.9153H35.6757C35.8403 22.9153 35.9823 22.8559 36.1019 22.737C36.2214 22.6183 36.2812 22.4772 36.2812 22.3137V19.1719C36.2812 19.0085 36.2214 18.8674 36.1019 18.7485C35.9823 18.6297 35.8403 18.5704 35.6757 18.5704H26.7279V17.1666H34.2181C34.3825 17.1666 34.5245 17.1071 34.6442 16.9883C34.7638 16.8694 34.8236 16.7283 34.8236 16.5649V13.6682C34.8236 13.5048 34.7638 13.3637 34.6442 13.2449C34.6344 13.2352 34.6245 13.2259 34.6144 13.2169H20.8972ZM35.7447 11.587H20.8972V7.91942C20.8972 7.75601 20.957 7.61489 21.0767 7.49605C21.1963 7.37721 21.3383 7.3178 21.5027 7.3178H35.4515C35.6159 7.3178 35.7581 7.37721 35.8776 7.49605C35.9972 7.61489 36.057 7.75601 36.057 7.91942V11.0612C36.057 11.2246 35.9972 11.3657 35.8776 11.4846C35.836 11.5259 35.7917 11.56 35.7447 11.587ZM38.8514 13.2169V22.3137C38.8514 22.4772 38.9112 22.6183 39.0308 22.737C39.1505 22.8559 39.2925 22.9153 39.4569 22.9153H43.516C43.6804 22.9153 43.8224 22.8559 43.9421 22.737C44.0617 22.6183 44.1215 22.4772 44.1215 22.3137V15.4063L45.7586 18.6149C45.8034 18.7188 45.9081 18.8377 46.0725 18.9713C46.237 19.1051 46.4463 19.1719 46.7004 19.1719H48.2254C48.4795 19.1719 48.6889 19.1051 48.8533 18.9713C49.0177 18.8377 49.1225 18.7188 49.1673 18.6149L50.8043 15.4063V22.3137C50.8043 22.4772 50.8642 22.6183 50.9838 22.737C51.1033 22.8559 51.2454 22.9153 51.4098 22.9153H55.4688C55.6334 22.9153 55.7754 22.8559 55.895 22.737C56.0145 22.6183 56.0743 22.4772 56.0743 22.3137V13.2169H47.4905L47.4629 13.2671L47.4353 13.2169H38.8514ZM46.5399 11.587H38.8514V7.91942C38.8514 7.75601 38.9112 7.61489 39.0308 7.49605C39.1505 7.37721 39.2925 7.3178 39.4569 7.3178H43.5608C43.9795 7.3178 44.301 7.51833 44.5252 7.91942L46.5399 11.587ZM48.3859 11.587H56.0743V7.91942C56.0743 7.75601 56.0145 7.61489 55.895 7.49605C55.7754 7.37721 55.6334 7.3178 55.4688 7.3178H51.3649C50.9464 7.3178 50.6249 7.51833 50.4007 7.91942L48.3859 11.587ZM58.4426 13.2169V22.3137C58.4426 22.492 58.5025 22.6406 58.6221 22.7594C58.7417 22.8634 58.8837 22.9153 59.0482 22.9153H63.6678C63.8324 22.9153 63.9744 22.8559 64.094 22.737C64.2135 22.6183 64.2733 22.4772 64.2733 22.3137V17.5677H68.7585V22.3137C68.7585 22.4772 68.8183 22.6183 68.938 22.737C69.0576 22.8559 69.1996 22.9153 69.364 22.9153H73.9837C74.1481 22.9153 74.2901 22.8559 74.4098 22.737C74.5294 22.6183 74.5892 22.4772 74.5892 22.3137V13.2169H58.4426ZM79.7369 13.2169L76.6212 22.2914L76.5987 22.4251C76.5987 22.5589 76.6436 22.6776 76.7333 22.7817C76.8379 22.8708 76.9575 22.9153 77.0921 22.9153H81.3306C81.809 22.9153 82.1453 22.6628 82.3396 22.1578L82.9004 20.5979H88.3722L88.9329 22.1578C89.1272 22.6628 89.4635 22.9153 89.9421 22.9153H94.1805C94.315 22.9153 94.4271 22.8708 94.5168 22.7817C94.6214 22.6776 94.6739 22.5589 94.6739 22.4251L94.6513 22.2914L91.5356 13.2169H86.1855L87.2285 16.253H84.044L85.087 13.2169H79.7369ZM90.976 11.587H80.2965L81.5099 8.05311C81.5697 7.86 81.6818 7.68916 81.8464 7.54062C82.0108 7.39207 82.235 7.3178 82.5191 7.3178H88.7534C89.0375 7.3178 89.2617 7.39207 89.4261 7.54062C89.5907 7.68916 89.7028 7.86 89.7626 8.05311L90.976 11.587ZM96.5233 13.2169C96.5104 13.4075 96.504 13.6025 96.504 13.8019V16.4313C96.504 17.9316 96.8703 19.1868 97.6028 20.1969C98.3354 21.1923 99.322 21.935 100.563 22.4251C101.819 22.9005 103.247 23.1381 104.846 23.1381C106.64 23.1381 108.158 22.8559 109.399 22.2914C110.654 21.7121 111.589 20.9917 112.202 20.1301C112.815 19.2537 113.121 18.3624 113.121 17.4563C113.121 17.3225 113.069 17.2111 112.964 17.1219C112.875 17.018 112.763 16.966 112.628 16.966H107.784C107.455 16.966 107.193 17.1591 106.999 17.5453C106.79 17.9613 106.536 18.2732 106.237 18.4812C105.938 18.6891 105.474 18.7932 104.846 18.7932C104.144 18.7932 103.583 18.6297 103.164 18.3029C102.761 17.9761 102.559 17.5082 102.559 16.8991V13.334C102.559 13.2944 102.56 13.2554 102.561 13.2169H96.5233ZM103.82 11.587H96.826C97.008 11.0244 97.2668 10.5149 97.6028 10.0585C98.3354 9.04838 99.322 8.30563 100.563 7.83028C101.819 7.34008 103.247 7.09497 104.846 7.09497C106.64 7.09497 108.158 7.38463 109.399 7.96397C110.654 8.52846 111.589 9.24891 112.202 10.1254C112.544 10.6056 112.79 11.0928 112.941 11.587H105.907C105.631 11.489 105.277 11.44 104.846 11.44C104.462 11.44 104.119 11.489 103.82 11.587ZM116.207 13.2169V22.3137C116.207 22.4772 116.267 22.6183 116.387 22.737C116.506 22.8559 116.648 22.9153 116.813 22.9153H121.433C121.597 22.9153 121.739 22.8559 121.859 22.737C121.978 22.6183 122.038 22.4772 122.038 22.3137V17.7682L125.94 22.5589C126.134 22.7965 126.403 22.9153 126.747 22.9153H132.533C132.668 22.9153 132.78 22.8708 132.87 22.7817C132.974 22.6776 133.027 22.5589 133.027 22.4251C133.027 22.3212 132.997 22.2246 132.937 22.1355L126.882 14.5595L127.99 13.2169H116.207ZM129.335 11.587L132.197 8.11995C132.272 8.03083 132.309 7.92684 132.309 7.808C132.309 7.67431 132.257 7.5629 132.152 7.47377C132.062 7.36978 131.95 7.3178 131.816 7.3178H126.411C126.082 7.3178 125.805 7.44405 125.581 7.69659L122.457 11.587H129.335ZM122.038 11.587H116.207V7.91942C116.207 7.75601 116.267 7.61489 116.387 7.49605C116.506 7.37721 116.648 7.3178 116.813 7.3178H121.433C121.597 7.3178 121.739 7.37721 121.859 7.49605C121.978 7.61489 122.038 7.75601 122.038 7.91942V11.587ZM74.5892 11.587H68.7585V7.91942C68.7585 7.75601 68.8183 7.61489 68.938 7.49605C69.0576 7.37721 69.1996 7.3178 69.364 7.3178H73.9837C74.1481 7.3178 74.2901 7.37721 74.4098 7.49605C74.5294 7.61489 74.5892 7.75601 74.5892 7.91942V11.587ZM64.2733 11.587H58.4426V7.91942C58.4426 7.75601 58.5025 7.61489 58.6221 7.49605C58.7417 7.37721 58.8837 7.3178 59.0482 7.3178H63.6678C63.8324 7.3178 63.9744 7.37721 64.094 7.49605C64.2135 7.61489 64.2733 7.75601 64.2733 7.91942V11.587Z" fill="#534963" fill-opacity="0.1"/>
    <path fill-rule="evenodd" clip-rule="evenodd" d="M1.53027 10.7513H16.4413C16.2385 10.136 15.9473 9.58943 15.5678 9.11171C16.3775 9.75111 16.9491 10.5762 17.2823 11.5869H1.5609V12.3813H1.53027V10.7513ZM1.53027 22.0798V22.3136C1.53027 22.4771 1.59007 22.6183 1.70967 22.7371C1.82928 22.8558 1.97131 22.9153 2.13577 22.9153H9.28955C11.8461 22.9153 13.8719 22.388 15.3669 21.3333C16.8769 20.2637 17.6319 18.5703 17.6319 16.2529V13.9802C17.6319 13.7178 17.6217 13.4634 17.6014 13.2169H16.791V15.4173C16.791 17.7347 16.036 19.4281 14.5261 20.4977C13.031 21.5524 11.0052 22.0798 8.44868 22.0798H1.53027ZM7.36094 17.7347V13.2169H6.52007V17.7347H7.36094ZM20.8973 22.0798V22.3136C20.8973 22.4771 20.9571 22.6183 21.0767 22.7371C21.1962 22.8558 21.3382 22.9153 21.5028 22.9153H35.6758C35.8402 22.9153 35.9822 22.8558 36.1019 22.7371C36.2215 22.6183 36.2813 22.4771 36.2813 22.3136V19.172C36.2813 19.0085 36.2215 18.8673 36.1019 18.7485C35.9822 18.6298 35.8402 18.5703 35.6758 18.5703H35.4404V21.4782C35.4404 21.6415 35.3806 21.7826 35.261 21.9015C35.1414 22.0204 34.9993 22.0798 34.8349 22.0798H20.8973ZM26.728 17.7347H25.8871V16.3309H33.3773C33.5417 16.3309 33.6837 16.2715 33.8034 16.1526C33.923 16.0339 33.9827 15.8926 33.9827 15.7293V13.2169H34.6145C34.6245 13.2258 34.6345 13.2351 34.6442 13.2448C34.7639 13.3637 34.8237 13.5048 34.8237 13.6682V16.5649C34.8237 16.7282 34.7639 16.8694 34.6442 16.9882C34.5246 17.1071 34.3826 17.1665 34.2182 17.1665H26.728V17.7347ZM20.8973 10.7513H34.9038C34.9508 10.7244 34.9952 10.6903 35.0368 10.6489C35.1564 10.5301 35.2162 10.389 35.2162 10.2256V7.31775H35.4516C35.616 7.31775 35.758 7.37717 35.8776 7.496C35.9973 7.61485 36.0571 7.75596 36.0571 7.91937V11.0612C36.0571 11.2246 35.9973 11.3657 35.8776 11.4845C35.836 11.5258 35.7917 11.56 35.7447 11.5869H20.8973V10.7513ZM38.8515 22.0798V22.3136C38.8515 22.4771 38.9113 22.6183 39.0309 22.7371C39.1504 22.8558 39.2926 22.9153 39.457 22.9153H43.5159C43.6805 22.9153 43.8225 22.8558 43.9422 22.7371C44.0616 22.6183 44.1214 22.4771 44.1214 22.3136V16.2187L43.2806 14.5706V21.4782C43.2806 21.6415 43.2208 21.7826 43.1011 21.9015C42.9817 22.0204 42.8396 22.0798 42.6751 22.0798H38.8515ZM45.6033 18.3105L45.7585 18.6148C45.8035 18.7188 45.9081 18.8376 46.0725 18.9714C46.237 19.1051 46.4462 19.172 46.7004 19.172H48.2253C48.4795 19.172 48.6888 19.1051 48.8532 18.9714C49.0178 18.8376 49.1224 18.7188 49.1672 18.6148L49.9634 17.0543V14.5706L48.3263 17.7792C48.2815 17.8833 48.1769 18.0021 48.0124 18.1358C47.848 18.2694 47.6386 18.3363 47.3845 18.3363H45.8595C45.7684 18.3363 45.6829 18.3278 45.6033 18.3105ZM50.8043 22.0798H54.628C54.7924 22.0798 54.9345 22.0204 55.0541 21.9015C55.1737 21.7826 55.2335 21.6415 55.2335 21.4782V13.2169H56.0744V22.3136C56.0744 22.4771 56.0146 22.6183 55.895 22.7371C55.7753 22.8558 55.6333 22.9153 55.4689 22.9153H51.4098C51.2454 22.9153 51.1033 22.8558 50.9837 22.7371C50.8641 22.6183 50.8043 22.4771 50.8043 22.3136V22.0798ZM38.8515 10.7513H45.699L43.8296 7.34845C44.1198 7.41859 44.3515 7.60889 44.5251 7.91937L46.5399 11.5869H38.8515V10.7513ZM48.8449 10.7513H55.2335V7.31775H55.4689C55.6333 7.31775 55.7753 7.37717 55.895 7.496C56.0146 7.61485 56.0744 7.75596 56.0744 7.91937V11.5869H48.3859L48.8449 10.7513ZM58.4427 22.0798V22.3136C58.4427 22.4919 58.5025 22.6405 58.6222 22.7594C58.7418 22.8633 58.8838 22.9153 59.0482 22.9153H63.6679C63.8323 22.9153 63.9744 22.8558 64.094 22.7371C64.2136 22.6183 64.2734 22.4771 64.2734 22.3136V17.5676H67.9176V16.732H63.4326V21.4782C63.4326 21.6415 63.3727 21.7826 63.2531 21.9015C63.1335 22.0204 62.9915 22.0798 62.827 22.0798H58.4427ZM68.7585 22.0798H73.1428C73.3073 22.0798 73.4494 22.0204 73.569 21.9015C73.6885 21.7826 73.7483 21.6415 73.7483 21.4782V13.2169H74.5891V22.3136C74.5891 22.4771 74.5293 22.6183 74.4098 22.7371C74.2902 22.8558 74.1482 22.9153 73.9836 22.9153H69.364C69.1995 22.9153 69.0575 22.8558 68.9379 22.7371C68.8183 22.6183 68.7585 22.4771 68.7585 22.3136V22.0798ZM76.6939 22.0798L76.6211 22.2914L76.5987 22.425C76.5987 22.5588 76.6435 22.6777 76.7332 22.7816C76.838 22.8708 76.9575 22.9153 77.0921 22.9153H81.3305C81.8089 22.9153 82.1454 22.6628 82.3397 22.1577L82.9003 20.598H87.8317L87.5314 19.7624H82.0594L81.4988 21.3221C81.3045 21.8271 80.968 22.0798 80.4897 22.0798H76.6939ZM88.8989 22.0632L88.9328 22.1577C89.1271 22.6628 89.4636 22.9153 89.942 22.9153H94.1804C94.3151 22.9153 94.4272 22.8708 94.5169 22.7816C94.6215 22.6777 94.6738 22.5588 94.6738 22.425L94.6514 22.2914L91.5357 13.2169H90.9816L93.8105 21.4558L93.8329 21.5896C93.8329 21.7232 93.7806 21.8421 93.676 21.946C93.5863 22.0351 93.4742 22.0798 93.3395 22.0798H89.1011C89.0306 22.0798 88.9633 22.0743 88.8989 22.0632ZM84.3311 15.4173H83.2031L83.9591 13.2169H85.0871L84.3311 15.4173ZM80.5834 10.7513H90.1351L88.9612 7.33257C89.1491 7.361 89.3042 7.43032 89.4262 7.54057C89.5906 7.68912 89.7027 7.85995 89.7626 8.05306L90.9759 11.5869H80.2966L80.5834 10.7513ZM97.8372 20.4963C98.5412 21.3424 99.4498 21.9854 100.563 22.425C101.819 22.9005 103.247 23.1381 104.846 23.1381C106.64 23.1381 108.158 22.8558 109.399 22.2914C110.655 21.712 111.589 20.9917 112.202 20.13C112.815 19.2536 113.121 18.3623 113.121 17.4562C113.121 17.3224 113.069 17.211 112.964 17.1219C112.875 17.0179 112.762 16.966 112.628 16.966H112.266C112.197 17.7535 111.896 18.5296 111.361 19.2944C110.748 20.156 109.814 20.8765 108.558 21.4558C107.317 22.0204 105.799 22.3026 104.005 22.3026C102.406 22.3026 100.978 22.0649 99.7222 21.5896C99.0101 21.3083 98.3818 20.9438 97.8372 20.4963ZM102.709 17.7035C102.569 17.6375 102.441 17.5589 102.324 17.4673C101.92 17.1405 101.718 16.6725 101.718 16.0636V13.2169H102.561C102.56 13.2553 102.559 13.2943 102.559 13.334V16.8991C102.559 17.2022 102.609 17.4703 102.709 17.7035ZM97.1729 10.7513H102.979C103.278 10.6534 103.621 10.6044 104.005 10.6044C104.436 10.6044 104.79 10.6534 105.066 10.7513H112.1C111.949 10.2572 111.703 9.77001 111.361 9.28972C111.297 9.19806 111.229 9.1081 111.158 9.01986C111.573 9.35566 111.921 9.72415 112.202 10.1253C112.544 10.6056 112.79 11.0928 112.941 11.5869H105.907C105.631 11.489 105.277 11.44 104.846 11.44C104.461 11.44 104.119 11.489 103.82 11.5869H96.8261C96.9208 11.294 97.0364 11.0155 97.1729 10.7513ZM116.207 22.0798V22.3136C116.207 22.4771 116.267 22.6183 116.387 22.7371C116.506 22.8558 116.648 22.9153 116.813 22.9153H121.432C121.597 22.9153 121.739 22.8558 121.859 22.7371C121.978 22.6183 122.038 22.4771 122.038 22.3136V17.9648L121.197 16.9325V21.4782C121.197 21.6415 121.137 21.7826 121.018 21.9015C120.898 22.0204 120.756 22.0798 120.592 22.0798H116.207ZM125.493 22.0094C125.616 22.0563 125.754 22.0798 125.907 22.0798H131.692C131.827 22.0798 131.939 22.0351 132.029 21.946C132.133 21.8421 132.186 21.7232 132.186 21.5896C132.186 21.4855 132.156 21.389 132.096 21.2999L126.041 13.7239L126.459 13.2169H127.99L126.882 14.5594L132.937 22.1355C132.997 22.2245 133.027 22.3211 133.027 22.425C133.027 22.5588 132.974 22.6777 132.87 22.7816C132.78 22.8708 132.668 22.9153 132.533 22.9153H126.747C126.404 22.9153 126.134 22.7964 125.94 22.5588L125.493 22.0094ZM131.328 7.31775L128.495 10.7513H123.128L122.457 11.5869H129.335L132.197 8.11991C132.272 8.03078 132.309 7.92679 132.309 7.80796C132.309 7.67427 132.257 7.56285 132.152 7.47372C132.062 7.36974 131.95 7.31775 131.816 7.31775H131.328ZM122.038 10.2258L121.616 10.7513H122.038V11.5869H116.207V10.7513H121.197V7.31775H121.432C121.597 7.31775 121.739 7.37717 121.859 7.496C121.978 7.61485 122.038 7.75596 122.038 7.91937V10.2258ZM68.7585 10.7513H73.7483V7.31775H73.9836C74.1482 7.31775 74.2902 7.37717 74.4098 7.496C74.5293 7.61485 74.5891 7.75596 74.5891 7.91937V11.5869H68.7585V10.7513ZM58.4427 10.7513H63.4326V7.31775H63.6679C63.8323 7.31775 63.9744 7.37717 64.094 7.496C64.2136 7.61485 64.2734 7.75596 64.2734 7.91937V11.5869H58.4427V10.7513Z" fill="#302C3A"/>
    <g filter="url(#filter0_d_16_3919)">
      <path fill-rule="evenodd" clip-rule="evenodd" d="M146.306 1.3116C143.997 1.66484 142.68 2.06243 140.819 2.96696C139.102 3.80088 138.75 4.29792 138.884 5.69044C138.999 6.87997 139.677 7.89256 140.637 8.30671C141.162 8.5336 141.325 8.511 141.825 8.13989C142.143 7.90354 142.708 7.19598 143.078 6.5672C143.921 5.14023 144.977 4.56742 147.848 3.98018C150.435 3.45086 151.466 3.45086 152.638 3.97976C153.49 4.364 153.558 4.45635 153.549 5.21277C153.544 5.66245 153.374 6.33105 153.17 6.69829C152.631 7.67019 149.618 10.2542 145.657 13.1402C143.751 14.528 141.782 16.0389 141.278 16.4977C140.774 16.9564 140.271 17.3318 140.158 17.3318C140.047 17.3318 139.435 17.7758 138.801 18.3187C138.166 18.8616 136.925 19.7022 136.043 20.1865C135.161 20.6707 134.041 21.4963 133.554 22.021C133.057 22.5553 132.096 23.2439 131.368 23.5861C130.654 23.9221 129.631 24.4333 129.095 24.7223C128.56 25.0112 127.634 25.4813 127.039 25.7672C126.443 26.0528 125.44 26.6142 124.809 27.0146C123.775 27.6702 123.473 27.7508 121.778 27.8253C119.429 27.9286 118.704 28.1787 118.704 28.8858C118.704 29.5874 119.688 30.7866 120.799 31.4386C121.971 32.1265 122.199 32.1108 123.655 31.2427C125.761 29.9869 126.714 29.8081 134.616 29.1842C144.739 28.3849 148.248 28.2489 155.452 28.3755C159.293 28.4431 162.434 28.4282 162.434 28.3428C162.434 28.1684 162.19 28.1374 159.728 27.9979C158.775 27.944 156.729 27.8029 155.182 27.6842C150.619 27.3345 137.839 27.1793 132.234 27.4056C129.377 27.5208 126.994 27.5732 126.938 27.5218C126.554 27.1648 128.137 26.0016 133.326 22.8273C137.354 20.3633 151.882 10.7166 153.63 9.34406C156.117 7.39229 156.79 5.35184 155.522 3.60951C153.754 1.18331 151.24 0.556681 146.306 1.3116Z" fill="#302C3A"/>
    </g>
  </g>
  <defs>
    <filter id="filter0_d_16_3919" x="107.704" y="-5.98975" width="65.7295" height="52.9166" filterUnits="userSpaceOnUse" color-interpolation-filters="sRGB">
      <feFlood flood-opacity="0" result="BackgroundImageFix"/>
      <feColorMatrix in="SourceAlpha" type="matrix" values="0 0 0 0 0 0 0 0 0 0 0 0 0 0 0 0 0 0 127 0" result="hardAlpha"/>
      <feOffset dy="4"/>
      <feGaussianBlur stdDeviation="5.5"/>
      <feColorMatrix type="matrix" values="0 0 0 0 0 0 0 0 0 0 0 0 0 0 0 0 0 0 0.1 0"/>
      <feBlend mode="normal" in2="BackgroundImageFix" result="effect1_dropShadow_16_3919"/>
      <feBlend mode="normal" in="SourceGraphic" in2="effect1_dropShadow_16_3919" result="shape"/>
    </filter>
    <clipPath id="clip0_16_3919">
      <rect width="164" height="34" fill="white"/>
    </clipPath>
  </defs>
</svg>
