<svg width="16" height="16" viewBox="0 0 16 16" fill="none" xmlns="http://www.w3.org/2000/svg">
<g opacity="0.5">
<path d="M2.8099 1.86194L1.86719 2.80465L3.38932 4.32678C1.47144 5.89209 0.671875 7.99996 0.671875 7.99996C0.671875 7.99996 2.67188 13.3333 8.00521 13.3333C9.38892 13.3333 10.5425 12.9698 11.5 12.4375L13.2005 14.138L14.1432 13.1953L2.8099 1.86194ZM8.00521 2.66663C7.19721 2.66663 6.47574 2.79977 5.81641 3.00777L7.52344 4.7148C7.68144 4.69147 7.84054 4.66663 8.00521 4.66663C9.84587 4.66663 11.3385 6.15929 11.3385 7.99996C11.3385 8.16463 11.3137 8.32373 11.2904 8.48173L13.5768 10.7682C14.8082 9.40152 15.3385 7.99996 15.3385 7.99996C15.3385 7.99996 13.3385 2.66663 8.00521 2.66663ZM5.22786 6.16532L6.20312 7.14058C6.07731 7.40051 6.00521 7.691 6.00521 7.99996C6.00521 9.10463 6.90054 9.99996 8.00521 9.99996C8.31416 9.99996 8.60466 9.92785 8.86458 9.80204L9.83984 10.7773C9.31323 11.1265 8.68472 11.3333 8.00521 11.3333C6.16454 11.3333 4.67188 9.84063 4.67188 7.99996C4.67188 7.32045 4.8787 6.69193 5.22786 6.16532Z" fill="#495963"/>
</g>
</svg>
