<svg width="17" height="16" viewBox="0 0 17 16" fill="none" xmlns="http://www.w3.org/2000/svg">
<path d="M12.1 5.66671H11.8333V4.73337C11.9 2.86671 10.3667 1.33337 8.5 1.33337C6.63333 1.33337 5.1 2.86671 5.1 4.73337V5.73337H4.9C3.56667 5.73337 2.5 6.80004 2.5 8.13337V12.3334C2.5 13.6667 3.56667 14.7334 4.9 14.7334H12.1667C13.5 14.7334 14.5667 13.6667 14.5667 12.3334V8.13337C14.5 6.73337 13.4333 5.66671 12.1 5.66671ZM6.43333 4.73337C6.43333 3.60004 7.36667 2.66671 8.5 2.66671C9.63333 2.66671 10.5667 3.60004 10.5667 4.73337V5.73337H6.43333V4.73337Z" fill="white"/>
<path d="M8.5026 12.4667C8.1026 12.4667 7.83594 12.2 7.83594 11.8V10.7333C7.83594 10.3333 8.1026 10.0667 8.5026 10.0667C8.9026 10.0667 9.16927 10.3333 9.16927 10.7333V11.8C9.16927 12.2 8.9026 12.4667 8.5026 12.4667Z" fill="#828CFC"/>
</svg>
