<svg width="17" height="16" viewBox="0 0 17 16" fill="none" xmlns="http://www.w3.org/2000/svg">
<path d="M12.1 5.66659H11.1667H6.43333V4.73325C6.43333 3.59992 7.36667 2.66659 8.5 2.66659C9.43333 2.66659 10.2333 3.26659 10.5 4.19992C10.5667 4.53325 10.9667 4.73325 11.3 4.66659C11.6333 4.59992 11.8333 4.19992 11.7667 3.86659C11.3667 2.33325 10.0333 1.33325 8.5 1.33325C6.63333 1.33325 5.1 2.86659 5.1 4.73325V5.73325H4.9C3.56667 5.73325 2.5 6.79992 2.5 8.13325V12.3333C2.5 13.6666 3.56667 14.7333 4.9 14.7333H12.1667C13.5 14.7333 14.5667 13.6666 14.5667 12.3333V8.13325C14.5 6.73325 13.4333 5.66659 12.1 5.66659Z" fill="#828CFC"/>
<path d="M8.5026 12.4667C8.1026 12.4667 7.83594 12.2 7.83594 11.8V10.7333C7.83594 10.3333 8.1026 10.0667 8.5026 10.0667C8.9026 10.0667 9.16927 10.3333 9.16927 10.7333V11.8C9.16927 12.2 8.9026 12.4667 8.5026 12.4667Z" fill="white"/>
</svg>
