<svg width="40" height="38" viewBox="0 0 40 38" fill="none" xmlns="http://www.w3.org/2000/svg">
<path d="M30.1224 14.5928C29.2141 20.4646 25.9339 26.8231 20.1468 26.8231C14.3596 26.8231 10.8163 20.3804 9.87912 14.5928C8.95456 8.88312 14.3596 5.86609 20.1468 5.86609C25.9339 5.86609 31.0182 8.80202 30.1224 14.5928Z" fill="#BEDCFC"/>
<path d="M29.9906 3.62772C30.5924 5.40864 29.1399 8.71538 28.3271 10.2194C28.2424 10.3761 28.1161 10.5012 27.9604 10.5878C24.0275 12.7742 16.6647 16.6659 16.9064 15.7121C17.2146 14.4955 29.1958 1.27573 29.9906 3.62772Z" fill="#BEDCFC"/>
<path d="M10.4254 3.62772C9.8236 5.40864 11.2762 8.71538 12.0889 10.2194C12.1736 10.3761 12.2999 10.5012 12.4556 10.5878C16.3885 12.7742 23.7513 16.6659 23.5096 15.7121C23.2015 14.4955 11.2202 1.27573 10.4254 3.62772Z" fill="#BEDCFC"/>
<path d="M16.432 12.2084C14.5018 11.2081 9.38253 9.58711 4.34766 11.1054" stroke="#4344C6" stroke-width="0.389294" stroke-linecap="round"/>
<path d="M15.5878 13.0195C14.009 12.495 10.3097 12.0008 8.14258 14.2198" stroke="#4344C6" stroke-width="0.389294" stroke-linecap="round"/>
<path d="M23.8434 12.2084C25.7736 11.2081 30.8929 9.58711 35.9277 11.1054" stroke="#4344C6" stroke-width="0.389294" stroke-linecap="round"/>
<path d="M24.6544 13.0195C26.2332 12.495 29.9325 12.0008 32.0996 14.2198" stroke="#4344C6" stroke-width="0.389294" stroke-linecap="round"/>
<path d="M15.9295 7.4558C16.1458 6.13112 15.79 2.9854 12.6367 1" stroke="#4344C6" stroke-width="0.389294" stroke-linecap="round"/>
<path d="M24.4807 7.4558C24.2644 6.13112 24.6202 2.9854 27.7734 1" stroke="#4344C6" stroke-width="0.389294" stroke-linecap="round"/>
<path d="M17.1133 7.3423C17.3836 6.49342 17.7621 4.42259 17.1133 2.9303" stroke="#4344C6" stroke-width="0.389294" stroke-linecap="round"/>
<path d="M23.1816 7.3423C22.9113 6.49342 22.5328 4.42259 23.1816 2.9303" stroke="#4344C6" stroke-width="0.389294" stroke-linecap="round"/>
<path d="M21.0762 11.1411C21.0762 11.5173 20.4035 12.1922 20.0284 12.1922C19.6533 12.1922 19 11.5173 19 11.1411C19 10.7648 19.6533 10.635 20.0284 10.635C20.4035 10.635 21.0762 10.7648 21.0762 11.1411Z" fill="#4748CE"/>
<path d="M18.333 9.22755C18.333 9.8401 17.1842 10.2893 16.5576 10.2544C15.9311 10.2544 14.6953 9.47952 14.6953 8.86697C14.6953 8.25442 15.8729 9.52392 16.4995 9.52393C17.3001 9.48911 18.333 8.615 18.333 9.22755Z" fill="#191D5D"/>
<path d="M21.9991 9.22755C21.9991 9.8401 23.1478 10.2893 23.7744 10.2544C24.401 10.2544 25.6367 9.47952 25.6367 8.86697C25.6367 8.25442 24.4591 9.52392 23.8325 9.52393C23.0319 9.48911 21.9991 8.615 21.9991 9.22755Z" fill="#191D5D"/>
<path d="M12.5931 8.82907L14.5634 7.3448C14.6739 7.26158 14.7 7.10649 14.6071 7.00399C13.9976 6.33117 12.532 5.46945 11.7963 5.19304C11.6683 5.14493 11.5334 5.22176 11.5144 5.35721C11.377 6.33688 11.9098 7.9504 12.2044 8.72108C12.2647 8.87884 12.4582 8.93069 12.5931 8.82907Z" fill="#D5FAFC"/>
<path d="M27.86 8.82907L25.8897 7.3448C25.7793 7.26158 25.7531 7.10649 25.846 7.00399C26.4556 6.33117 27.9212 5.46945 28.6568 5.19304C28.7848 5.14493 28.9197 5.22176 28.9387 5.35721C29.0761 6.33688 28.5433 7.9504 28.2488 8.72108C28.1885 8.87884 27.9949 8.93069 27.86 8.82907Z" fill="#D5FAFC"/>
<path d="M25.2563 17.8369C25.2563 20.5603 22.416 22.768 19.6926 22.768C16.9693 22.768 14.3398 20.5603 14.3398 17.8369C14.3398 15.1136 16.9693 12.9059 19.6926 12.9059C22.416 12.9059 25.2563 15.1136 25.2563 17.8369Z" fill="#191D5D"/>
<circle cx="10.3803" cy="22.5411" r="7.59124" fill="#191D5D"/>
<circle cx="5.59611" cy="28.5263" r="5.59611" fill="#191D5D"/>
<circle cx="12.9118" cy="29.5158" r="8.07786" fill="#191D5D"/>
<circle cx="26.2446" cy="28.4129" r="9.37551" fill="#191D5D"/>
<circle cx="7.59124" cy="7.59124" r="7.59124" transform="matrix(-1 0 0 1 36.7891 14.9498)" fill="#191D5D"/>
<circle cx="5.59611" cy="5.59611" r="5.59611" transform="matrix(-1 0 0 1 40 21.4703)" fill="#191D5D"/>
<ellipse cx="18.7507" cy="23.2709" rx="1.88159" ry="1.83293" fill="#191D5D"/>
<rect x="14.3398" y="23.8025" width="11.3544" height="8.41068" rx="1.62206" fill="#828CFC"/>
<path d="M15.8711 21.039C15.8711 19.6288 17.0142 18.4857 18.4243 18.4857H21.6384C23.0485 18.4857 24.1917 19.6288 24.1917 21.039V24.8238H15.8711V21.039Z" fill="#828CFC"/>
<path d="M17.4043 21.3694C17.4043 20.7058 17.9422 20.1678 18.6058 20.1678H21.4594C22.123 20.1678 22.661 20.7058 22.661 21.3694V23.6823H17.4043V21.3694Z" fill="#191D5D"/>
<path d="M19.0426 29.3519L19.578 27.7468C19.6337 27.5798 19.79 27.4672 19.9661 27.4672C20.1392 27.4672 20.2936 27.5762 20.3516 27.7393L20.9239 29.3498C20.9771 29.4998 20.9653 29.6651 20.8912 29.806C20.7927 29.9932 20.5985 30.1105 20.3869 30.1105H19.5893C19.3753 30.1105 19.1789 29.9919 19.0793 29.8025C19.0062 29.6636 18.9929 29.5008 19.0426 29.3519Z" fill="#191D5D"/>
<circle cx="19.9561" cy="26.8665" r="0.991259" fill="#191D5D"/>
</svg>
