<svg width="40" height="38" viewBox="0 0 40 38" fill="none" xmlns="http://www.w3.org/2000/svg">
<path d="M30.1214 14.5929C29.2131 20.4648 25.9329 26.8232 20.1458 26.8232C14.3587 26.8232 10.8153 20.3805 9.87815 14.5929C8.95358 8.88324 14.3587 5.86621 20.1458 5.86621C25.9329 5.86621 31.0173 8.80214 30.1214 14.5929Z" fill="#C3C7CD"/>
<path d="M29.9921 3.62784C30.5939 5.40877 29.1413 8.7155 28.3286 10.2196C28.2439 10.3763 28.1175 10.5013 27.9619 10.5879C24.029 12.7743 16.6662 16.666 16.9078 15.7122C17.216 14.4956 29.1972 1.27585 29.9921 3.62784Z" fill="#C3C7CD"/>
<path d="M10.4259 3.62784C9.82408 5.40877 11.2766 8.7155 12.0894 10.2196C12.1741 10.3763 12.3004 10.5013 12.4561 10.5879C16.389 12.7743 23.7518 16.666 23.5101 15.7122C23.2019 14.4956 11.2207 1.27585 10.4259 3.62784Z" fill="#C3C7CD"/>
<path d="M16.4315 12.2085C14.5013 11.2082 9.38204 9.58723 4.34717 11.1055" stroke="#8E949F" stroke-width="0.389294" stroke-linecap="round"/>
<path d="M15.5878 13.0197C14.009 12.4952 10.3097 12.001 8.14258 14.22" stroke="#8E949F" stroke-width="0.389294" stroke-linecap="round"/>
<path d="M23.8444 12.2085C25.7746 11.2082 30.8938 9.58723 35.9287 11.1055" stroke="#8E949F" stroke-width="0.389294" stroke-linecap="round"/>
<path d="M24.6553 13.0197C26.2341 12.4952 29.9335 12.001 32.1006 14.22" stroke="#8E949F" stroke-width="0.389294" stroke-linecap="round"/>
<path d="M15.9285 7.4558C16.1448 6.13112 15.789 2.9854 12.6357 1" stroke="#8E949F" stroke-width="0.389294" stroke-linecap="round"/>
<path d="M24.4792 7.4558C24.2629 6.13112 24.6187 2.9854 27.772 1" stroke="#8E949F" stroke-width="0.389294" stroke-linecap="round"/>
<path d="M17.1123 7.34218C17.3826 6.4933 17.7611 4.42247 17.1123 2.93018" stroke="#8E949F" stroke-width="0.389294" stroke-linecap="round"/>
<path d="M23.1802 7.34218C22.9098 6.4933 22.5314 4.42247 23.1802 2.93018" stroke="#8E949F" stroke-width="0.389294" stroke-linecap="round"/>
<path d="M21.0762 11.1408C21.0762 11.5171 20.4035 12.1919 20.0284 12.1919C19.6533 12.1919 19 11.5171 19 11.1408C19 10.7646 19.6533 10.6348 20.0284 10.6348C20.4035 10.6348 21.0762 10.7646 21.0762 11.1408Z" fill="#8E949F"/>
<path d="M18.3334 9.22731C18.3334 9.83986 17.1847 10.289 16.5581 10.2542C15.9316 10.2542 14.6958 9.47927 14.6958 8.86672C14.6958 8.25417 15.8734 9.52368 16.5 9.52368C17.3006 9.48887 18.3334 8.61476 18.3334 9.22731Z" fill="#8E949F"/>
<path d="M22 9.22731C22 9.83986 23.1488 10.289 23.7754 10.2542C24.4019 10.2542 25.6377 9.47927 25.6377 8.86672C25.6377 8.25417 24.4601 9.52368 23.8335 9.52368C23.0329 9.48887 22 8.61476 22 9.22731Z" fill="#8E949F"/>
<path d="M12.5931 8.82919L14.5634 7.34492C14.6739 7.2617 14.7 7.10661 14.6071 7.00412C13.9976 6.33129 12.532 5.46957 11.7963 5.19316C11.6683 5.14505 11.5334 5.22189 11.5144 5.35733C11.377 6.337 11.9098 7.95052 12.2044 8.7212C12.2647 8.87896 12.4582 8.93081 12.5931 8.82919Z" fill="#8E949F"/>
<path d="M27.861 8.82919L25.8907 7.34492C25.7803 7.2617 25.7541 7.10661 25.847 7.00412C26.4565 6.33129 27.9221 5.46957 28.6578 5.19316C28.7858 5.14505 28.9207 5.22189 28.9397 5.35733C29.0771 6.337 28.5443 7.95052 28.2497 8.7212C28.1894 8.87896 27.9959 8.93081 27.861 8.82919Z" fill="#8E949F"/>
<path d="M25.2558 17.8368C25.2558 20.5602 22.4155 22.7679 19.6922 22.7679C16.9688 22.7679 14.3394 20.5602 14.3394 17.8368C14.3394 15.1135 16.9688 12.9058 19.6922 12.9058C22.4155 12.9058 25.2558 15.1135 25.2558 17.8368Z" fill="#8E949F"/>
<circle cx="10.3813" cy="22.5409" r="7.59124" fill="#8E949F"/>
<circle cx="5.59611" cy="28.5263" r="5.59611" fill="#8E949F"/>
<circle cx="12.9118" cy="29.5158" r="8.07786" fill="#8E949F"/>
<circle cx="26.2446" cy="28.4126" r="9.37551" fill="#8E949F"/>
<circle cx="7.59124" cy="7.59124" r="7.59124" transform="matrix(-1 0 0 1 36.7881 14.9497)" fill="#8E949F"/>
<circle cx="5.59611" cy="5.59611" r="5.59611" transform="matrix(-1 0 0 1 40 21.4702)" fill="#8E949F"/>
<ellipse cx="18.7507" cy="23.2709" rx="1.88159" ry="1.83293" fill="#8E949F"/>
<rect x="14.3394" y="23.8027" width="11.3544" height="8.41068" rx="1.62206" fill="#C3C7CD"/>
<path d="M15.8711 21.0391C15.8711 19.629 17.0142 18.4858 18.4243 18.4858H21.6384C23.0485 18.4858 24.1917 19.629 24.1917 21.0391V24.8239H15.8711V21.0391Z" fill="#C3C7CD"/>
<path d="M17.4033 21.3695C17.4033 20.7059 17.9413 20.168 18.6048 20.168H21.4585C22.1221 20.168 22.66 20.7059 22.66 21.3695V23.6824H17.4033V21.3695Z" fill="#8E949F"/>
<path d="M19.0426 29.352L19.578 27.7469C19.6337 27.5799 19.79 27.4673 19.9661 27.4673C20.1392 27.4673 20.2936 27.5763 20.3516 27.7394L20.9239 29.3499C20.9771 29.4999 20.9653 29.6653 20.8912 29.8061C20.7927 29.9934 20.5985 30.1106 20.3869 30.1106H19.5893C19.3753 30.1106 19.1789 29.9921 19.0793 29.8027C19.0062 29.6637 18.9929 29.501 19.0426 29.352Z" fill="#8E949F"/>
<circle cx="19.9561" cy="26.8667" r="0.991259" fill="#8E949F"/>
</svg>
