<svg width="200" height="200" viewBox="0 0 200 200" fill="none" xmlns="http://www.w3.org/2000/svg">
<g clip-path="url(#clip0_171_6673)">
<rect width="200" height="200" rx="100" fill="#828CFC"/>
<path d="M150.607 92.964C146.065 122.323 129.665 154.116 100.729 154.116C71.7933 154.116 54.0767 121.902 49.3907 92.964C44.7679 64.4157 71.7933 49.3306 100.729 49.3306C129.665 49.3306 155.086 64.0102 150.607 92.964Z" fill="#BEDCFC"/>
<path d="M149.96 38.1387C152.969 47.0433 145.707 63.577 141.643 71.0973C141.219 71.8808 140.588 72.5062 139.809 72.939C120.145 83.871 83.331 103.33 84.5392 98.5604C86.0801 92.4777 145.986 26.3788 149.96 38.1387Z" fill="#BEDCFC"/>
<path d="M52.1296 38.1387C49.1204 47.0433 56.3832 63.577 60.447 71.0973C60.8704 71.8808 61.5022 72.5062 62.2806 72.939C81.9451 83.871 118.759 103.33 117.551 98.5604C116.01 92.4777 56.1036 26.3788 52.1296 38.1387Z" fill="#BEDCFC"/>
<path d="M82.1576 81.0419C72.5063 76.0406 46.9102 67.9357 21.7358 75.5269" stroke="#4344C6" stroke-width="1.94647" stroke-linecap="round"/>
<path d="M77.9392 85.0975C70.0451 82.4752 51.5483 80.0043 40.7129 91.0992" stroke="#4344C6" stroke-width="1.94647" stroke-linecap="round"/>
<path d="M119.222 81.0419C128.873 76.0406 154.469 67.9357 179.644 75.5269" stroke="#4344C6" stroke-width="1.94647" stroke-linecap="round"/>
<path d="M123.277 85.0975C131.171 82.4752 149.668 80.0043 160.503 91.0992" stroke="#4344C6" stroke-width="1.94647" stroke-linecap="round"/>
<path d="M79.6426 57.279C80.724 50.6556 78.9451 34.927 63.1787 25" stroke="#4344C6" stroke-width="1.94647" stroke-linecap="round"/>
<path d="M122.396 57.279C121.315 50.6556 123.093 34.927 138.86 25" stroke="#4344C6" stroke-width="1.94647" stroke-linecap="round"/>
<path d="M85.5615 56.7114C86.9132 52.467 88.8056 42.1128 85.5615 34.6514" stroke="#4344C6" stroke-width="1.94647" stroke-linecap="round"/>
<path d="M115.901 56.7114C114.549 52.467 112.657 42.1128 115.901 34.6514" stroke="#4344C6" stroke-width="1.94647" stroke-linecap="round"/>
<path d="M105.381 75.7052C105.381 77.5865 102.017 80.9607 100.142 80.9607C98.2667 80.9607 95 77.5865 95 75.7052C95 73.824 98.2667 73.1748 100.142 73.1748C102.017 73.1748 105.381 73.824 105.381 75.7052Z" fill="#4748CE"/>
<path d="M91.6672 66.1375C91.6672 69.2003 85.9236 71.4461 82.7907 71.272C79.6578 71.272 73.479 67.3973 73.479 64.3346C73.479 61.2718 79.3671 67.6194 82.5 67.6194C86.5032 67.4453 91.6672 63.0748 91.6672 66.1375Z" fill="#191D5D"/>
<path d="M110 66.1375C110 69.2003 115.744 71.4461 118.877 71.272C122.01 71.272 128.188 67.3973 128.188 64.3346C128.188 61.2718 122.3 67.6194 119.167 67.6194C115.164 67.4453 110 63.0748 110 66.1375Z" fill="#191D5D"/>
<path d="M62.9655 64.1455L72.8169 56.7241C73.3693 56.308 73.5 55.5326 73.0357 55.0201C69.9878 51.6559 62.6598 47.3474 58.9817 45.9653C58.3416 45.7248 57.667 46.1089 57.572 46.7862C56.8852 51.6845 59.5492 59.7521 61.0218 63.6055C61.3233 64.3943 62.291 64.6536 62.9655 64.1455Z" fill="#D5FAFC"/>
<path d="M139.305 64.1455L129.454 56.7241C128.901 56.308 128.771 55.5326 129.235 55.0201C132.283 51.6559 139.611 47.3474 143.289 45.9653C143.929 45.7248 144.604 46.1089 144.698 46.7862C145.385 51.6845 142.721 59.7521 141.249 63.6055C140.947 64.3943 139.98 64.6536 139.305 64.1455Z" fill="#D5FAFC"/>
<path d="M126.279 109.185C126.279 122.801 112.078 133.84 98.4608 133.84C84.844 133.84 71.6968 122.801 71.6968 109.185C71.6968 95.5679 84.844 84.5293 98.4608 84.5293C112.078 84.5293 126.279 95.5679 126.279 109.185Z" fill="#191D5D"/>
<circle cx="51.9064" cy="132.705" r="37.9562" fill="#191D5D"/>
<circle cx="27.9805" cy="162.631" r="27.9805" fill="#191D5D"/>
<circle cx="74.5592" cy="172.578" r="40.3893" fill="#191D5D"/>
<circle cx="121.223" cy="167.064" r="46.8775" fill="#191D5D"/>
<circle cx="37.9562" cy="37.9562" r="37.9562" transform="matrix(-1 0 0 1 183.94 94.749)" fill="#191D5D"/>
<circle cx="27.9805" cy="27.9805" r="27.9805" transform="matrix(-1 0 0 1 200 127.352)" fill="#191D5D"/>
<ellipse cx="93.7536" cy="136.355" rx="9.40795" ry="9.16464" fill="#191D5D"/>
<rect x="77.1655" y="140.503" width="45.8347" height="33.9516" rx="6.54781" fill="#828CFC"/>
<path d="M83.3486 129.347C83.3486 123.655 87.9631 119.041 93.6554 119.041H106.63C112.322 119.041 116.936 123.655 116.936 129.347V144.625H83.3486V129.347Z" fill="#828CFC"/>
<path d="M89.5337 130.681C89.5337 128.002 91.7052 125.831 94.3839 125.831H105.903C108.582 125.831 110.753 128.002 110.753 130.681V140.017H89.5337V130.681Z" fill="#191D5D"/>
<path d="M96.1508 162.904L98.3121 156.425C98.537 155.751 99.168 155.296 99.8787 155.296C100.578 155.296 101.201 155.736 101.435 156.394L103.745 162.896C103.96 163.501 103.912 164.168 103.613 164.737C103.215 165.493 102.431 165.966 101.577 165.966H98.3576C97.4937 165.966 96.701 165.488 96.2988 164.723C96.0037 164.162 95.9503 163.505 96.1508 162.904Z" fill="#191D5D"/>
<circle cx="99.8384" cy="152.871" r="4.00144" fill="#191D5D"/>
</g>
<defs>
<clipPath id="clip0_171_6673">
<rect width="200" height="200" rx="100" fill="white"/>
</clipPath>
</defs>
</svg>
