<svg xmlns="http://www.w3.org/2000/svg" width="102" height="34" viewBox="0 0 102 34" fill="none">
  <path d="M0 33.7717V13.7588L14.1211 0L20.5397 6.25402V0H21.0211H25.5142H25.9956V11.5699L28.2421 13.7588V33.7717H18.2412H16.3676V22.5007C17.5255 21.7784 18.2932 20.5141 18.2932 19.0748C18.2932 16.8296 16.4253 15.0097 14.1211 15.0097C11.8169 15.0097 9.94893 16.8296 9.94893 19.0748C9.94893 20.5141 10.7165 21.7784 11.8745 22.5007V33.7717H10.001H0Z" fill="#534963"/>
  <path d="M38.158 17.9697C38.0939 17.9697 38.0377 17.9462 37.9895 17.8996C37.9575 17.8527 37.9414 17.7902 37.9414 17.712V2.87861C37.9414 2.8005 37.9575 2.73802 37.9895 2.69114C38.0377 2.64427 38.0939 2.62085 38.158 2.62085H41.0679C42.5593 2.62085 43.6495 3.02702 44.3389 3.83938C45.0443 4.63611 45.397 5.87028 45.397 7.54189C45.397 9.13535 45.0363 10.3539 44.3148 11.1975C43.5934 12.0411 42.5513 12.4629 41.1883 12.4629H40.4428V17.712C40.4428 17.7902 40.4187 17.8527 40.3706 17.8996C40.3385 17.9462 40.2903 17.9697 40.2264 17.9697H38.158ZM41.0679 10.2133C41.6934 10.2133 42.1504 10.0024 42.439 9.5806C42.7435 9.1588 42.896 8.49484 42.896 7.58876C42.896 6.60454 42.7596 5.90152 42.4871 5.47972C42.2146 5.05792 41.7656 4.84703 41.1401 4.84703H40.4428V10.2133H41.0679Z" fill="#534963"/>
  <path d="M47.8979 17.9697C47.8338 17.9697 47.7776 17.9462 47.7298 17.8996C47.6977 17.8527 47.6816 17.7902 47.6816 17.712V2.87861C47.6816 2.8005 47.6977 2.73802 47.7298 2.69114C47.7776 2.64427 47.8338 2.62085 47.8979 2.62085H51.0967C52.6038 2.62085 53.702 2.98014 54.3917 3.69879C55.0971 4.40177 55.4498 5.50317 55.4498 7.00292C55.4498 9.20568 54.8327 10.6039 53.598 11.1975V11.2209L56.0272 17.6417C56.0429 17.6729 56.0509 17.7198 56.0509 17.7824C56.0509 17.9075 55.9871 17.9697 55.8587 17.9697H53.6221C53.4937 17.9697 53.4055 17.9075 53.3573 17.7824L51.217 11.6896H50.1827V17.712C50.1827 17.7902 50.1586 17.8527 50.1108 17.8996C50.0787 17.9462 50.0306 17.9697 49.9664 17.9697H47.8979ZM51.0967 9.5806C51.754 9.5806 52.227 9.38532 52.5155 8.99476C52.8044 8.6042 52.9485 7.99493 52.9485 7.16696C52.9485 6.33896 52.7964 5.75311 52.4915 5.40942C52.2029 5.05013 51.7379 4.87045 51.0967 4.87045H50.1827V9.5806H51.0967Z" fill="#534963"/>
  <path d="M58.3667 17.9697C58.3025 17.9697 58.2463 17.9462 58.1985 17.8996C58.1664 17.8527 58.1504 17.7902 58.1504 17.712V2.87861C58.1504 2.8005 58.1664 2.73802 58.1985 2.69114C58.2463 2.64427 58.3025 2.62085 58.3667 2.62085H60.4351C60.4993 2.62085 60.5474 2.64427 60.5792 2.69114C60.6274 2.73802 60.6514 2.8005 60.6514 2.87861V17.712C60.6514 17.7902 60.6274 17.8527 60.5792 17.8996C60.5474 17.9462 60.4993 17.9697 60.4351 17.9697H58.3667Z" fill="#534963"/>
  <path d="M65.8569 17.9697C65.7449 17.9697 65.6727 17.8996 65.6406 17.7589L62.6104 2.92548V2.83173C62.6104 2.69114 62.6662 2.62085 62.7785 2.62085H65.0392C65.1676 2.62085 65.2478 2.68333 65.2799 2.80831L66.8191 12.088C66.9953 13.0878 67.1477 14.2048 67.2761 15.439H67.3242C67.4362 14.4079 67.5967 13.2909 67.805 12.088L69.3204 2.83173C69.3525 2.69114 69.4324 2.62085 69.5608 2.62085H71.7974C71.9739 2.62085 72.0381 2.71457 71.9899 2.90203L68.9835 17.7589C68.9674 17.8996 68.8955 17.9697 68.7671 17.9697H65.8569Z" fill="#534963"/>
  <path d="M81.7522 17.7824C81.7522 17.9075 81.688 17.9697 81.5596 17.9697H79.2989C79.1706 17.9697 79.0907 17.9075 79.0586 17.7824L78.5293 14.6188H75.3787L74.8254 17.7589C74.8094 17.8996 74.7295 17.9697 74.5851 17.9697H72.3726C72.2281 17.9697 72.172 17.8762 72.2041 17.6886L75.3306 2.83173C75.3787 2.69114 75.475 2.62085 75.6191 2.62085H78.313C78.4732 2.62085 78.5614 2.69114 78.5775 2.83173L81.7281 17.6651L81.7522 17.7824ZM78.1686 12.5098L77.4712 8.40891C77.2626 7.23725 77.0945 6.15931 76.9661 5.17508H76.9179C76.7417 6.54987 76.5813 7.62782 76.4369 8.40891L75.7395 12.5098H78.1686Z" fill="#534963"/>
  <path d="M87.3974 18.1104C84.5116 18.1104 83.0684 16.4309 83.0684 13.0722V7.51843C83.0684 5.84686 83.4371 4.58927 84.1749 3.74563C84.9124 2.90203 85.9866 2.48022 87.3974 2.48022C88.7283 2.48022 89.7624 2.87079 90.5002 3.65192C91.2377 4.41741 91.6065 5.47193 91.6065 6.81545C91.6065 7.14351 91.5824 7.47159 91.5343 7.79965C91.5022 7.97151 91.43 8.0574 91.3179 8.0574H89.2495C89.073 8.0574 89.0008 7.96369 89.0329 7.77622C89.0489 7.62 89.057 7.39348 89.057 7.09663C89.057 5.51877 88.504 4.72986 87.3974 4.72986C86.7722 4.72986 86.3072 4.95638 86.0026 5.40942C85.7141 5.86246 85.5697 6.59672 85.5697 7.61218V12.955C85.5697 13.9861 85.7141 14.7282 86.0026 15.1812C86.3072 15.6343 86.7722 15.8608 87.3974 15.8608C88.52 15.8608 89.081 15.064 89.081 13.4706C89.081 13.1894 89.073 12.9707 89.057 12.8144C89.057 12.627 89.1292 12.5332 89.2736 12.5332H91.2939C91.454 12.5332 91.5423 12.627 91.5583 12.8144C91.5744 12.9707 91.5824 13.205 91.5824 13.5174C91.5824 14.9703 91.2217 16.1029 90.5002 16.9153C89.7945 17.712 88.7604 18.1104 87.3974 18.1104Z" fill="#534963"/>
  <path d="M96.4443 17.9697C96.3801 17.9697 96.3243 17.9462 96.2761 17.8996C96.244 17.8527 96.228 17.7902 96.228 17.712V12.6973L92.9811 2.9489C92.9651 2.91767 92.957 2.87079 92.957 2.80831C92.957 2.68333 93.0132 2.62085 93.1255 2.62085H95.4584C95.6025 2.62085 95.6827 2.68333 95.6988 2.80831L96.8291 7.33097C96.9254 7.70593 96.9896 7.98711 97.0217 8.17458C97.1019 8.50266 97.254 9.14317 97.4787 10.0961H97.5027C97.6147 9.54936 97.8394 8.61983 98.176 7.30755L99.3064 2.80831C99.3224 2.68333 99.3946 2.62085 99.5227 2.62085H101.808C101.888 2.62085 101.944 2.65209 101.976 2.71457C102.008 2.77707 102.008 2.85519 101.976 2.9489L98.729 12.6738V17.712C98.729 17.7902 98.7133 17.8527 98.6812 17.8996C98.6491 17.9462 98.601 17.9697 98.5368 17.9697H96.4443Z" fill="#534963"/>
  <path d="M42.4989 33.8074C42.4989 33.8809 42.4614 33.9174 42.386 33.9174H41.0586C40.9832 33.9174 40.9363 33.8809 40.9174 33.8074L40.6067 31.9499H38.7569L38.4321 33.7936C38.4228 33.8762 38.3756 33.9174 38.2909 33.9174H36.9917C36.907 33.9174 36.8739 33.8624 36.8929 33.7523L38.7286 25.0292C38.7569 24.9467 38.8133 24.9054 38.8981 24.9054H40.4796C40.5737 24.9054 40.6256 24.9467 40.635 25.0292L42.4848 33.7386L42.4989 33.8074ZM40.3949 30.7116L39.9854 28.3038C39.8631 27.6159 39.7643 26.983 39.6888 26.4051H39.6606C39.5569 27.2125 39.4629 27.8454 39.3782 28.3038L38.9687 30.7116H40.3949Z" fill="#534963"/>
  <path d="M45.8133 34C44.1187 34 43.2715 33.0141 43.2715 31.0419V27.781C43.2715 26.7998 43.4878 26.0612 43.9211 25.5659C44.354 25.0705 44.9846 24.8229 45.8133 24.8229C46.5944 24.8229 47.2016 25.0524 47.6349 25.5108C48.0678 25.9605 48.2845 26.5796 48.2845 27.3683C48.2845 27.5609 48.2703 27.7535 48.2421 27.9461C48.2232 28.0471 48.1808 28.0975 48.115 28.0975H46.9006C46.7969 28.0975 46.7546 28.0424 46.7735 27.9324C46.7828 27.8408 46.7876 27.7079 46.7876 27.5334C46.7876 26.6071 46.4628 26.1437 45.8133 26.1437C45.4461 26.1437 45.173 26.2769 44.9943 26.5427C44.8248 26.8088 44.7401 27.2401 44.7401 27.8361V30.9731C44.7401 31.5785 44.8248 32.0144 44.9943 32.2802C45.173 32.5463 45.4461 32.6792 45.8133 32.6792C46.4722 32.6792 46.8018 32.2114 46.8018 31.2758C46.8018 31.1107 46.7969 30.9825 46.7876 30.8905C46.7876 30.7805 46.83 30.7254 46.9147 30.7254H48.1009C48.1949 30.7254 48.2466 30.7805 48.2562 30.8905C48.2655 30.9825 48.2703 31.12 48.2703 31.3033C48.2703 32.1563 48.0585 32.8215 47.6349 33.2983C47.2206 33.7661 46.6134 34 45.8133 34Z" fill="#534963"/>
  <path d="M52.1394 34C50.4449 34 49.5977 33.0141 49.5977 31.0419V27.781C49.5977 26.7998 49.8143 26.0612 50.2472 25.5659C50.6805 25.0705 51.3111 24.8229 52.1394 24.8229C52.9209 24.8229 53.5281 25.0524 53.9611 25.5108C54.3943 25.9605 54.6106 26.5796 54.6106 27.3683C54.6106 27.5609 54.5965 27.7535 54.5683 27.9461C54.5497 28.0471 54.5073 28.0975 54.4412 28.0975H53.2268C53.1234 28.0975 53.0811 28.0424 53.0997 27.9324C53.1093 27.8408 53.1138 27.7079 53.1138 27.5334C53.1138 26.6071 52.789 26.1437 52.1394 26.1437C51.7723 26.1437 51.4995 26.2769 51.3204 26.5427C51.151 26.8088 51.0662 27.2401 51.0662 27.8361V30.9731C51.0662 31.5785 51.151 32.0144 51.3204 32.2802C51.4995 32.5463 51.7723 32.6792 52.1394 32.6792C52.7986 32.6792 53.1279 32.2114 53.1279 31.2758C53.1279 31.1107 53.1234 30.9825 53.1138 30.8905C53.1138 30.7805 53.1562 30.7254 53.2409 30.7254H54.4271C54.5214 30.7254 54.5731 30.7805 54.5824 30.8905C54.592 30.9825 54.5965 31.12 54.5965 31.3033C54.5965 32.1563 54.3847 32.8215 53.9611 33.2983C53.5471 33.7661 52.9399 34 52.1394 34Z" fill="#534963"/>
  <path d="M56.2467 33.9174C56.2088 33.9174 56.1761 33.9037 56.1478 33.8762C56.1196 33.8486 56.1055 33.8121 56.1055 33.7661V25.0567C56.1055 25.0111 56.1148 24.9742 56.1337 24.9467C56.162 24.9192 56.1947 24.9054 56.2326 24.9054H59.9323C60.017 24.9054 60.0594 24.9561 60.0594 25.0567V26.0611C60.0594 26.1712 60.017 26.2262 59.9323 26.2262H57.5741V28.7166H59.7205C59.8052 28.7166 59.8476 28.7673 59.8476 28.8679V29.8173C59.8476 29.9183 59.8052 29.9686 59.7205 29.9686H57.5741V32.5966H59.9323C60.017 32.5966 60.0594 32.6516 60.0594 32.7617V33.7661C60.0594 33.8671 60.017 33.9174 59.9323 33.9174H56.2467Z" fill="#534963"/>
  <path d="M61.7311 33.9174C61.6935 33.9174 61.6605 33.9037 61.6322 33.8762C61.604 33.8486 61.5898 33.8121 61.5898 33.7661V25.0567C61.5898 24.9561 61.637 24.9054 61.7311 24.9054H62.9172C62.9551 24.9054 62.9878 24.9192 63.0161 24.9467C63.0443 24.9742 63.0584 25.0111 63.0584 25.0567V32.5966H65.2613C65.3557 32.5966 65.4025 32.6516 65.4025 32.7617V33.7661C65.4025 33.8671 65.3557 33.9174 65.2613 33.9174H61.7311Z" fill="#534963"/>
  <path d="M66.7613 33.9174C66.7235 33.9174 66.6907 33.9037 66.6625 33.8762C66.6342 33.8486 66.6201 33.8121 66.6201 33.7661V25.0567C66.6201 25.0111 66.6294 24.9742 66.6484 24.9467C66.6766 24.9192 66.7093 24.9054 66.7472 24.9054H70.4469C70.5317 24.9054 70.574 24.9561 70.574 25.0567V26.0611C70.574 26.1712 70.5317 26.2262 70.4469 26.2262H68.0887V28.7166H70.2351C70.3198 28.7166 70.3622 28.7673 70.3622 28.8679V29.8173C70.3622 29.9183 70.3198 29.9686 70.2351 29.9686H68.0887V32.5966H70.4469C70.5317 32.5966 70.574 32.6516 70.574 32.7617V33.7661C70.574 33.8671 70.5317 33.9174 70.4469 33.9174H66.7613Z" fill="#534963"/>
  <path d="M72.2316 33.9174C72.194 33.9174 72.161 33.9037 72.1327 33.8762C72.1141 33.8486 72.1045 33.8121 72.1045 33.7661V25.0567C72.1045 25.0111 72.1141 24.9742 72.1327 24.9467C72.161 24.9192 72.194 24.9054 72.2316 24.9054H74.1097C74.9948 24.9054 75.6396 25.1165 76.0443 25.5383C76.4586 25.9511 76.6656 26.5977 76.6656 27.4783C76.6656 28.7716 76.3033 29.5928 75.5783 29.9411V29.9549L77.0045 33.7248C77.0141 33.7433 77.0186 33.7708 77.0186 33.8074C77.0186 33.8809 76.9811 33.9174 76.9057 33.9174H75.5924C75.5173 33.9174 75.4653 33.8809 75.4371 33.8074L74.1803 30.2301H73.5731V33.7661C73.5731 33.8121 73.559 33.8486 73.5307 33.8762C73.5121 33.9037 73.4839 33.9174 73.446 33.9174H72.2316ZM74.1097 28.9918C74.4958 28.9918 74.7734 28.8773 74.9428 28.6478C75.1123 28.4186 75.197 28.0609 75.197 27.5746C75.197 27.0887 75.1078 26.7447 74.9287 26.5427C74.7593 26.3319 74.4865 26.2262 74.1097 26.2262H73.5731V28.9918H74.1097Z" fill="#534963"/>
  <path d="M83.2498 33.8074C83.2498 33.8809 83.2122 33.9174 83.1368 33.9174H81.8094C81.7343 33.9174 81.6872 33.8809 81.6682 33.8074L81.3576 31.9499H79.5077L79.1829 33.7936C79.1736 33.8762 79.1264 33.9174 79.0417 33.9174H77.7426C77.6579 33.9174 77.6251 33.8624 77.6437 33.7523L79.4795 25.0292C79.5077 24.9467 79.5642 24.9054 79.6489 24.9054H81.2305C81.3248 24.9054 81.3765 24.9467 81.3858 25.0292L83.2357 33.7386L83.2498 33.8074ZM81.1458 30.7116L80.7362 28.3038C80.614 27.6159 80.5151 26.983 80.4397 26.4051H80.4115C80.3081 27.2125 80.2138 27.8454 80.129 28.3038L79.7195 30.7116H81.1458Z" fill="#534963"/>
  <path d="M85.007 33.9174C84.9223 33.9174 84.8799 33.8671 84.8799 33.7661V26.2262H83.4396C83.3549 26.2262 83.3125 26.1712 83.3125 26.0611V25.0567C83.3125 24.9561 83.3549 24.9054 83.4396 24.9054H87.7748C87.8688 24.9054 87.916 24.9561 87.916 25.0567V26.0611C87.916 26.1712 87.8688 26.2262 87.7748 26.2262H86.3485V33.7661C86.3485 33.8671 86.3062 33.9174 86.2214 33.9174H85.007Z" fill="#534963"/>
  <path d="M91.4012 34C90.5728 34 89.9419 33.7661 89.5089 33.2983C89.076 32.8215 88.8594 32.1198 88.8594 31.1932V27.6572C88.8594 26.7125 89.076 26.0061 89.5089 25.5383C89.9419 25.0615 90.5728 24.8229 91.4012 24.8229C92.2295 24.8229 92.8604 25.0615 93.2934 25.5383C93.7263 26.0061 93.943 26.7125 93.943 27.6572V31.1932C93.943 32.1198 93.7263 32.8215 93.2934 33.2983C92.8604 33.7661 92.2295 34 91.4012 34ZM91.4012 32.6792C91.7683 32.6792 92.0366 32.5553 92.2061 32.3077C92.3848 32.06 92.4744 31.6657 92.4744 31.1244V27.726C92.4744 27.1666 92.3848 26.7629 92.2061 26.5152C92.0366 26.2676 91.7683 26.1437 91.4012 26.1437C91.034 26.1437 90.7609 26.2676 90.5821 26.5152C90.4127 26.7629 90.328 27.1666 90.328 27.726V31.1244C90.328 31.6657 90.4127 32.06 90.5821 32.3077C90.7609 32.5553 91.034 32.6792 91.4012 32.6792Z" fill="#534963"/>
  <path d="M95.5763 33.9174C95.5388 33.9174 95.5057 33.9037 95.4775 33.8762C95.4589 33.8486 95.4492 33.8121 95.4492 33.7661V25.0567C95.4492 25.0111 95.4589 24.9742 95.4775 24.9467C95.5057 24.9192 95.5388 24.9054 95.5763 24.9054H97.4544C98.3395 24.9054 98.9843 25.1165 99.389 25.5383C99.8033 25.9511 100.01 26.5977 100.01 27.4783C100.01 28.7716 99.648 29.5928 98.923 29.9411V29.9549L100.349 33.7248C100.359 33.7433 100.363 33.7708 100.363 33.8074C100.363 33.8809 100.326 33.9174 100.25 33.9174H98.9371C98.862 33.9174 98.81 33.8809 98.7818 33.8074L97.525 30.2301H96.9178V33.7661C96.9178 33.8121 96.9037 33.8486 96.8754 33.8762C96.8568 33.9037 96.8286 33.9174 96.7907 33.9174H95.5763ZM97.4544 28.9918C97.8405 28.9918 98.1181 28.8773 98.2876 28.6478C98.457 28.4186 98.5417 28.0609 98.5417 27.5746C98.5417 27.0887 98.4525 26.7447 98.2734 26.5427C98.104 26.3319 97.8312 26.2262 97.4544 26.2262H96.9178V28.9918H97.4544Z" fill="#534963"/>
</svg>
