<svg width="16" height="16" viewBox="0 0 16 16" fill="none" xmlns="http://www.w3.org/2000/svg">
<g opacity="0.5">
<path d="M8.00033 2.66667C2.66699 2.66667 0.666992 8 0.666992 8C0.666992 8 2.66699 13.3333 8.00033 13.3333C13.3337 13.3333 15.3337 8 15.3337 8C15.3337 8 13.3337 2.66667 8.00033 2.66667ZM8.00033 4.66667C9.84099 4.66667 11.3337 6.15933 11.3337 8C11.3337 9.84067 9.84099 11.3333 8.00033 11.3333C6.15966 11.3333 4.66699 9.84067 4.66699 8C4.66699 6.15933 6.15966 4.66667 8.00033 4.66667ZM8.00033 6C7.46989 6 6.96118 6.21071 6.58611 6.58579C6.21104 6.96086 6.00033 7.46957 6.00033 8C6.00033 8.53043 6.21104 9.03914 6.58611 9.41422C6.96118 9.78929 7.46989 10 8.00033 10C8.53076 10 9.03947 9.78929 9.41454 9.41422C9.78961 9.03914 10.0003 8.53043 10.0003 8C10.0003 7.46957 9.78961 6.96086 9.41454 6.58579C9.03947 6.21071 8.53076 6 8.00033 6Z" fill="#495963"/>
</g>
</svg>
