<svg width="379" height="122" viewBox="0 0 379 122" fill="none" xmlns="http://www.w3.org/2000/svg">
<path fill-rule="evenodd" clip-rule="evenodd" d="M385 51.4608L358.917 63.854C332.833 76.2473 280.667 101.034 228.5 94.8371C176.333 88.6405 124.167 51.4608 72 29.7726C19.8333 8.08441 -32.3333 1.88779 -84.5 11.1827C-136.667 20.4777 -188.833 45.2641 -214.917 57.6574L-241 70.0506V163H-214.917C-188.833 163 -136.667 163 -84.5 163C-32.3333 163 19.8333 163 72 163C124.167 163 176.333 163 228.5 163C280.667 163 332.833 163 358.917 163H385V51.4608Z" fill="#828CFC"/>
<path d="M110.008 105.443C109.166 102.356 109.713 100.659 110.526 99.7894C111.109 99.1665 112.029 99.0947 112.882 99.0947H184.594C189.784 99.0947 193.094 107.12 195.04 114.623C196.263 119.334 192.499 123.693 187.632 123.693H120.719C115.562 123.693 113.578 119.725 113.181 118.535L110.008 105.443Z" fill="#191D5D" stroke="#191D5D" stroke-width="2.38043"/>
<path d="M126.203 110.284C139.898 110.284 153.593 110.284 167.287 110.284H126.203Z" fill="#BEDCFC"/>
<path d="M126.203 110.284C139.898 110.284 153.593 110.284 167.287 110.284" stroke="#828CFC" stroke-width="2.38043" stroke-miterlimit="10" stroke-linecap="round" stroke-linejoin="round"/>
<path d="M121.789 105.679C135.484 105.679 149.179 105.679 162.873 105.679H121.789Z" fill="#BEDCFC"/>
<path d="M121.789 105.679C135.484 105.679 149.179 105.679 162.873 105.679" stroke="#828CFC" stroke-width="2.38043" stroke-miterlimit="10" stroke-linecap="round" stroke-linejoin="round"/>
<path d="M164.067 119.505H139.295C138.134 119.505 137.191 118.565 137.191 117.408V116.287C137.191 115.13 138.134 114.189 139.295 114.189H164.067C165.228 114.189 166.17 115.13 166.17 116.287V117.408C166.17 118.565 165.228 119.505 164.067 119.505Z" fill="#BEDCFC" stroke="#828CFC" stroke-width="2.38043" stroke-miterlimit="10" stroke-linecap="round" stroke-linejoin="round"/>
<path d="M181.037 99.6343H115.429C111.379 99.6343 108.098 96.3616 108.098 92.3236V55.1315C108.098 51.0934 111.379 47.8208 115.429 47.8208H181.037C185.087 47.8208 188.368 51.0934 188.368 55.1315V92.3236C188.368 96.3616 185.087 99.6343 181.037 99.6343Z" fill="#191D5D" stroke="#191D5D" stroke-width="2.38043" stroke-miterlimit="10" stroke-linecap="round" stroke-linejoin="round"/>
<path d="M174.571 94.7884H121.834C117.652 94.7884 114.262 91.4074 114.262 87.2367V60.0312C114.262 55.8606 117.652 52.4795 121.834 52.4795H174.571C178.753 52.4795 182.143 55.8606 182.143 60.0312V87.2367C182.143 91.4074 178.753 94.7884 174.571 94.7884Z" fill="#D0D4FF" stroke="#4748CE" stroke-width="2.38043" stroke-miterlimit="10" stroke-linecap="round" stroke-linejoin="round"/>
<path d="M120.187 66.9771C120.187 66.7275 120.274 66.5048 120.45 66.3092C120.625 66.1135 120.834 66.0157 121.077 66.0157C121.239 66.0157 122.153 66.3429 123.82 66.9973C123.766 66.0595 123.739 65.4118 123.739 65.0543C123.739 64.7911 123.823 64.5752 123.992 64.4066C124.167 64.2379 124.383 64.1536 124.639 64.1536C124.903 64.1536 125.118 64.2379 125.287 64.4066C125.463 64.5752 125.55 64.7911 125.55 65.0543C125.55 65.4253 125.571 65.9954 125.611 66.7646C127.23 66.5217 128.222 66.4002 128.586 66.4002C128.836 66.4002 129.042 66.4913 129.204 66.6735C129.372 66.8489 129.457 67.0648 129.457 67.3212C129.457 67.7935 129.204 68.0836 128.698 68.1915C128.225 68.2927 127.392 68.4142 126.198 68.5559C126.589 68.9134 127.014 69.3722 127.473 69.9322C128.074 70.6743 128.374 71.1905 128.374 71.4806C128.374 71.7235 128.279 71.936 128.09 72.1182C127.902 72.2936 127.686 72.3813 127.443 72.3813C127.186 72.3813 126.954 72.2598 126.744 72.017C126.333 71.4637 125.662 70.671 124.731 69.6387C123.341 71.2107 122.4 71.9967 121.907 71.9967C121.664 71.9967 121.448 71.9023 121.259 71.7134C121.077 71.5244 120.986 71.3085 120.986 71.0657C120.986 70.8363 121.094 70.6136 121.31 70.3977C121.742 70.0334 122.369 69.4498 123.192 68.6469C122.639 68.4715 121.829 68.178 120.763 67.7665C120.379 67.5978 120.187 67.3347 120.187 66.9771ZM131.177 66.9771C131.177 66.7275 131.265 66.5048 131.44 66.3092C131.616 66.1135 131.825 66.0157 132.068 66.0157C132.23 66.0157 133.144 66.3429 134.81 66.9973C134.756 66.0595 134.729 65.4118 134.729 65.0543C134.729 64.7911 134.814 64.5752 134.982 64.4066C135.158 64.2379 135.374 64.1536 135.63 64.1536C135.893 64.1536 136.109 64.2379 136.278 64.4066C136.453 64.5752 136.541 64.7911 136.541 65.0543C136.541 65.4253 136.561 65.9954 136.602 66.7646C138.221 66.5217 139.213 66.4002 139.577 66.4002C139.827 66.4002 140.032 66.4913 140.194 66.6735C140.363 66.8489 140.447 67.0648 140.447 67.3212C140.447 67.7935 140.194 68.0836 139.688 68.1915C139.216 68.2927 138.383 68.4142 137.189 68.5559C137.58 68.9134 138.005 69.3722 138.464 69.9322C139.064 70.6743 139.364 71.1905 139.364 71.4806C139.364 71.7235 139.27 71.936 139.081 72.1182C138.892 72.2936 138.676 72.3813 138.433 72.3813C138.177 72.3813 137.944 72.2598 137.735 72.017C137.323 71.4637 136.652 70.671 135.721 69.6387C134.331 71.2107 133.39 71.9967 132.898 71.9967C132.655 71.9967 132.439 71.9023 132.25 71.7134C132.068 71.5244 131.977 71.3085 131.977 71.0657C131.977 70.8363 132.085 70.6136 132.3 70.3977C132.732 70.0334 133.36 69.4498 134.183 68.6469C133.63 68.4715 132.82 68.178 131.754 67.7665C131.369 67.5978 131.177 67.3347 131.177 66.9771ZM142.168 66.9771C142.168 66.7275 142.255 66.5048 142.431 66.3092C142.606 66.1135 142.815 66.0157 143.058 66.0157C143.22 66.0157 144.134 66.3429 145.801 66.9973C145.747 66.0595 145.72 65.4118 145.72 65.0543C145.72 64.7911 145.804 64.5752 145.973 64.4066C146.148 64.2379 146.364 64.1536 146.621 64.1536C146.884 64.1536 147.1 64.2379 147.268 64.4066C147.444 64.5752 147.531 64.7911 147.531 65.0543C147.531 65.4253 147.552 65.9954 147.592 66.7646C149.211 66.5217 150.203 66.4002 150.567 66.4002C150.817 66.4002 151.023 66.4913 151.185 66.6735C151.353 66.8489 151.438 67.0648 151.438 67.3212C151.438 67.7935 151.185 68.0836 150.679 68.1915C150.206 68.2927 149.373 68.4142 148.179 68.5559C148.57 68.9134 148.995 69.3722 149.454 69.9322C150.055 70.6743 150.355 71.1905 150.355 71.4806C150.355 71.7235 150.26 71.936 150.072 72.1182C149.883 72.2936 149.667 72.3813 149.424 72.3813C149.167 72.3813 148.935 72.2598 148.726 72.017C148.314 71.4637 147.643 70.671 146.712 69.6387C145.322 71.2107 144.381 71.9967 143.888 71.9967C143.645 71.9967 143.429 71.9023 143.24 71.7134C143.058 71.5244 142.967 71.3085 142.967 71.0657C142.967 70.8363 143.075 70.6136 143.291 70.3977C143.723 70.0334 144.35 69.4498 145.173 68.6469C144.62 68.4715 143.81 68.178 142.744 67.7665C142.36 67.5978 142.168 67.3347 142.168 66.9771ZM153.158 66.9771C153.158 66.7275 153.246 66.5048 153.421 66.3092C153.597 66.1135 153.806 66.0157 154.049 66.0157C154.211 66.0157 155.125 66.3429 156.791 66.9973C156.737 66.0595 156.71 65.4118 156.71 65.0543C156.71 64.7911 156.795 64.5752 156.963 64.4066C157.139 64.2379 157.355 64.1536 157.611 64.1536C157.874 64.1536 158.09 64.2379 158.259 64.4066C158.434 64.5752 158.522 64.7911 158.522 65.0543C158.522 65.4253 158.542 65.9954 158.583 66.7646C160.202 66.5217 161.194 66.4002 161.558 66.4002C161.808 66.4002 162.013 66.4913 162.175 66.6735C162.344 66.8489 162.428 67.0648 162.428 67.3212C162.428 67.7935 162.175 68.0836 161.669 68.1915C161.197 68.2927 160.364 68.4142 159.17 68.5559C159.561 68.9134 159.986 69.3722 160.445 69.9322C161.045 70.6743 161.345 71.1905 161.345 71.4806C161.345 71.7235 161.251 71.936 161.062 72.1182C160.873 72.2936 160.657 72.3813 160.414 72.3813C160.158 72.3813 159.925 72.2598 159.716 72.017C159.305 71.4637 158.633 70.671 157.702 69.6387C156.312 71.2107 155.371 71.9967 154.879 71.9967C154.636 71.9967 154.42 71.9023 154.231 71.7134C154.049 71.5244 153.958 71.3085 153.958 71.0657C153.958 70.8363 154.066 70.6136 154.282 70.3977C154.713 70.0334 155.341 69.4498 156.164 68.6469C155.611 68.4715 154.801 68.178 153.735 67.7665C153.35 67.5978 153.158 67.3347 153.158 66.9771ZM164.149 66.9771C164.149 66.7275 164.236 66.5048 164.412 66.3092C164.587 66.1135 164.796 66.0157 165.039 66.0157C165.201 66.0157 166.115 66.3429 167.782 66.9973C167.728 66.0595 167.701 65.4118 167.701 65.0543C167.701 64.7911 167.785 64.5752 167.954 64.4066C168.129 64.2379 168.345 64.1536 168.602 64.1536C168.865 64.1536 169.081 64.2379 169.249 64.4066C169.425 64.5752 169.512 64.7911 169.512 65.0543C169.512 65.4253 169.533 65.9954 169.573 66.7646C171.192 66.5217 172.184 66.4002 172.548 66.4002C172.798 66.4002 173.004 66.4913 173.166 66.6735C173.334 66.8489 173.419 67.0648 173.419 67.3212C173.419 67.7935 173.166 68.0836 172.66 68.1915C172.188 68.2927 171.354 68.4142 170.16 68.5559C170.551 68.9134 170.976 69.3722 171.435 69.9322C172.036 70.6743 172.336 71.1905 172.336 71.4806C172.336 71.7235 172.241 71.936 172.053 72.1182C171.864 72.2936 171.648 72.3813 171.405 72.3813C171.149 72.3813 170.916 72.2598 170.707 72.017C170.295 71.4637 169.624 70.671 168.693 69.6387C167.303 71.2107 166.362 71.9967 165.869 71.9967C165.626 71.9967 165.41 71.9023 165.221 71.7134C165.039 71.5244 164.948 71.3085 164.948 71.0657C164.948 70.8363 165.056 70.6136 165.272 70.3977C165.704 70.0334 166.331 69.4498 167.154 68.6469C166.601 68.4715 165.792 68.178 164.726 67.7665C164.341 67.5978 164.149 67.3347 164.149 66.9771Z" fill="#4748CE"/>
<path d="M122.243 78.7118C122.243 78.5246 122.309 78.3576 122.441 78.2109C122.572 78.0641 122.729 77.9908 122.911 77.9908C123.033 77.9908 123.718 78.2362 124.968 78.727C124.928 78.0236 124.908 77.5379 124.908 77.2697C124.908 77.0723 124.971 76.9104 125.097 76.7839C125.229 76.6574 125.391 76.5942 125.583 76.5942C125.78 76.5942 125.942 76.6574 126.069 76.7839C126.2 76.9104 126.266 77.0723 126.266 77.2697C126.266 77.548 126.281 77.9756 126.312 78.5524C127.526 78.3703 128.27 78.2792 128.543 78.2792C128.731 78.2792 128.885 78.3475 129.006 78.4841C129.133 78.6157 129.196 78.7776 129.196 78.9699C129.196 79.3241 129.006 79.5417 128.627 79.6226C128.273 79.6985 127.648 79.7896 126.752 79.8959C127.045 80.1641 127.364 80.5082 127.708 80.9281C128.159 81.4848 128.384 81.8719 128.384 82.0894C128.384 82.2716 128.313 82.431 128.171 82.5676C128.03 82.6992 127.868 82.765 127.686 82.765C127.493 82.765 127.319 82.6739 127.162 82.4917C126.853 82.0768 126.35 81.4822 125.651 80.708C124.609 81.887 123.903 82.4765 123.534 82.4765C123.352 82.4765 123.19 82.4057 123.048 82.264C122.911 82.1223 122.843 81.9604 122.843 81.7782C122.843 81.6062 122.924 81.4392 123.086 81.2773C123.41 81.004 123.88 80.5663 124.498 79.9642C124.083 79.8326 123.476 79.6125 122.676 79.3039C122.388 79.1773 122.243 78.98 122.243 78.7118ZM130.486 78.7118C130.486 78.5246 130.552 78.3576 130.684 78.2109C130.815 78.0641 130.972 77.9908 131.154 77.9908C131.276 77.9908 131.961 78.2362 133.211 78.727C133.171 78.0236 133.151 77.5379 133.151 77.2697C133.151 77.0723 133.214 76.9104 133.34 76.7839C133.472 76.6574 133.634 76.5942 133.826 76.5942C134.023 76.5942 134.185 76.6574 134.312 76.7839C134.443 76.9104 134.509 77.0723 134.509 77.2697C134.509 77.548 134.524 77.9756 134.555 78.5524C135.769 78.3703 136.513 78.2792 136.786 78.2792C136.973 78.2792 137.128 78.3475 137.249 78.4841C137.376 78.6157 137.439 78.7776 137.439 78.9699C137.439 79.3241 137.249 79.5417 136.87 79.6226C136.515 79.6985 135.891 79.7896 134.995 79.8959C135.288 80.1641 135.607 80.5082 135.951 80.9281C136.402 81.4848 136.627 81.8719 136.627 82.0894C136.627 82.2716 136.556 82.431 136.414 82.5676C136.273 82.6992 136.111 82.765 135.929 82.765C135.736 82.765 135.562 82.6739 135.405 82.4917C135.096 82.0768 134.593 81.4822 133.894 80.708C132.852 81.887 132.146 82.4765 131.777 82.4765C131.595 82.4765 131.433 82.4057 131.291 82.264C131.154 82.1223 131.086 81.9604 131.086 81.7782C131.086 81.6062 131.167 81.4392 131.329 81.2773C131.653 81.004 132.123 80.5663 132.741 79.9642C132.326 79.8326 131.718 79.6125 130.919 79.3039C130.631 79.1773 130.486 78.98 130.486 78.7118ZM138.729 78.7118C138.729 78.5246 138.795 78.3576 138.927 78.2109C139.058 78.0641 139.215 77.9908 139.397 77.9908C139.519 77.9908 140.204 78.2362 141.454 78.727C141.414 78.0236 141.393 77.5379 141.393 77.2697C141.393 77.0723 141.457 76.9104 141.583 76.7839C141.715 76.6574 141.877 76.5942 142.069 76.5942C142.266 76.5942 142.428 76.6574 142.555 76.7839C142.686 76.9104 142.752 77.0723 142.752 77.2697C142.752 77.548 142.767 77.9756 142.798 78.5524C144.012 78.3703 144.756 78.2792 145.029 78.2792C145.216 78.2792 145.371 78.3475 145.492 78.4841C145.619 78.6157 145.682 78.7776 145.682 78.9699C145.682 79.3241 145.492 79.5417 145.113 79.6226C144.758 79.6985 144.133 79.7896 143.238 79.8959C143.531 80.1641 143.85 80.5082 144.194 80.9281C144.645 81.4848 144.87 81.8719 144.87 82.0894C144.87 82.2716 144.799 82.431 144.657 82.5676C144.515 82.6992 144.354 82.765 144.171 82.765C143.979 82.765 143.805 82.6739 143.648 82.4917C143.339 82.0768 142.836 81.4822 142.137 80.708C141.095 81.887 140.389 82.4765 140.02 82.4765C139.837 82.4765 139.676 82.4057 139.534 82.264C139.397 82.1223 139.329 81.9604 139.329 81.7782C139.329 81.6062 139.41 81.4392 139.572 81.2773C139.896 81.004 140.366 80.5663 140.984 79.9642C140.569 79.8326 139.961 79.6125 139.162 79.3039C138.873 79.1773 138.729 78.98 138.729 78.7118ZM146.972 78.7118C146.972 78.5246 147.038 78.3576 147.17 78.2109C147.301 78.0641 147.458 77.9908 147.64 77.9908C147.762 77.9908 148.447 78.2362 149.697 78.727C149.657 78.0236 149.636 77.5379 149.636 77.2697C149.636 77.0723 149.7 76.9104 149.826 76.7839C149.958 76.6574 150.12 76.5942 150.312 76.5942C150.509 76.5942 150.671 76.6574 150.798 76.7839C150.929 76.9104 150.995 77.0723 150.995 77.2697C150.995 77.548 151.01 77.9756 151.04 78.5524C152.255 78.3703 152.999 78.2792 153.272 78.2792C153.459 78.2792 153.614 78.3475 153.735 78.4841C153.862 78.6157 153.925 78.7776 153.925 78.9699C153.925 79.3241 153.735 79.5417 153.355 79.6226C153.001 79.6985 152.376 79.7896 151.481 79.8959C151.774 80.1641 152.093 80.5082 152.437 80.9281C152.887 81.4848 153.113 81.8719 153.113 82.0894C153.113 82.2716 153.042 82.431 152.9 82.5676C152.758 82.6992 152.596 82.765 152.414 82.765C152.222 82.765 152.047 82.6739 151.891 82.4917C151.582 82.0768 151.078 81.4822 150.38 80.708C149.338 81.887 148.632 82.4765 148.262 82.4765C148.08 82.4765 147.918 82.4057 147.777 82.264C147.64 82.1223 147.572 81.9604 147.572 81.7782C147.572 81.6062 147.653 81.4392 147.815 81.2773C148.139 81.004 148.609 80.5663 149.226 79.9642C148.812 79.8326 148.204 79.6125 147.405 79.3039C147.116 79.1773 146.972 78.98 146.972 78.7118ZM155.215 78.7118C155.215 78.5246 155.281 78.3576 155.412 78.2109C155.544 78.0641 155.701 77.9908 155.883 77.9908C156.004 77.9908 156.69 78.2362 157.94 78.727C157.899 78.0236 157.879 77.5379 157.879 77.2697C157.879 77.0723 157.942 76.9104 158.069 76.7839C158.201 76.6574 158.362 76.5942 158.555 76.5942C158.752 76.5942 158.914 76.6574 159.041 76.7839C159.172 76.9104 159.238 77.0723 159.238 77.2697C159.238 77.548 159.253 77.9756 159.283 78.5524C160.498 78.3703 161.242 78.2792 161.515 78.2792C161.702 78.2792 161.856 78.3475 161.978 78.4841C162.104 78.6157 162.168 78.7776 162.168 78.9699C162.168 79.3241 161.978 79.5417 161.598 79.6226C161.244 79.6985 160.619 79.7896 159.724 79.8959C160.017 80.1641 160.336 80.5082 160.68 80.9281C161.13 81.4848 161.356 81.8719 161.356 82.0894C161.356 82.2716 161.285 82.431 161.143 82.5676C161.001 82.6992 160.839 82.765 160.657 82.765C160.465 82.765 160.29 82.6739 160.133 82.4917C159.825 82.0768 159.321 81.4822 158.623 80.708C157.581 81.887 156.875 82.4765 156.505 82.4765C156.323 82.4765 156.161 82.4057 156.02 82.264C155.883 82.1223 155.815 81.9604 155.815 81.7782C155.815 81.6062 155.896 81.4392 156.058 81.2773C156.381 81.004 156.852 80.5663 157.469 79.9642C157.054 79.8326 156.447 79.6125 155.648 79.3039C155.359 79.1773 155.215 78.98 155.215 78.7118Z" fill="#4748CE"/>
<path d="M172.125 121.449C170.068 121.449 167.584 120.484 166.988 118.359C166.866 117.928 166.823 117.485 166.86 117.042C165.429 116.55 164.382 115.536 164.011 114.201C163.822 113.527 163.822 112.823 164.011 112.131C163.682 111.615 163.487 111.068 163.439 110.498C163.274 108.537 164.729 106.789 165.18 106.297C165.685 105.751 166.695 104.828 167.779 104.828C167.907 104.828 168.022 104.84 168.138 104.864C169.075 105.052 170.256 105.144 171.657 105.144C174.822 105.144 178.286 104.658 179.68 104.397C182.93 103.796 185.596 102.649 190.351 98.3081C197.868 91.4484 199.664 88.4617 200.979 86.2824C201.582 85.2747 202.154 84.3277 203.109 83.2593C203.341 82.9983 203.67 82.8525 204.023 82.8525C204.035 82.8525 204.041 82.8525 204.053 82.8525C204.412 82.8586 204.747 83.0286 204.972 83.3078L214.548 95.1878C214.937 95.6735 214.901 96.3716 214.462 96.8087C212.8 98.4659 211.078 100.457 209.258 102.564C205.21 107.244 201.028 112.082 196.633 114.274C189.772 117.691 183.709 118.207 181.116 118.432L180.757 118.462C178.979 118.62 177.19 119.294 175.571 120.411C174.98 120.818 174.335 121.115 173.653 121.279C173.16 121.388 172.649 121.449 172.125 121.449Z" fill="#BEDCFC"/>
<path d="M204.013 84.0664L213.589 95.9464C208.22 101.301 202.175 110.139 196.075 113.181C189.069 116.677 182.842 117.048 180.632 117.248C178.544 117.436 176.584 118.219 174.861 119.409C174.441 119.7 173.936 119.949 173.346 120.095C172.956 120.192 172.542 120.235 172.122 120.235C170.375 120.235 168.555 119.433 168.159 118.031C167.983 117.394 168.062 116.738 168.33 116.125C166.789 115.973 165.529 115.141 165.176 113.879C164.994 113.229 165.079 112.555 165.371 111.924C165.049 111.566 164.702 111.044 164.647 110.4C164.489 108.5 166.692 106.048 167.776 106.048C167.818 106.048 167.861 106.054 167.897 106.06C169.005 106.278 170.308 106.363 171.653 106.363C175.032 106.363 178.635 105.829 179.902 105.599C183.609 104.913 186.482 103.486 191.169 99.2123C202.144 89.1899 201.116 87.3263 204.013 84.0664ZM204.013 81.6382C203.319 81.6382 202.656 81.9357 202.193 82.4577C201.164 83.6111 200.568 84.6067 199.929 85.6629C198.583 87.8969 196.909 90.6772 189.526 97.4155C184.984 101.556 182.483 102.648 179.457 103.207C178.1 103.456 174.727 103.929 171.653 103.929C170.338 103.929 169.237 103.844 168.378 103.674C168.184 103.638 167.983 103.613 167.782 103.613C166.309 103.613 165.073 104.621 164.288 105.471C163.752 106.054 162.017 108.142 162.224 110.595C162.273 111.183 162.443 111.766 162.723 112.319C162.601 113.059 162.638 113.8 162.839 114.522C163.247 115.985 164.263 117.151 165.657 117.849C165.688 118.128 165.736 118.407 165.816 118.681C166.473 121.024 169.066 122.663 172.122 122.663C172.743 122.663 173.352 122.59 173.924 122.45C174.752 122.25 175.531 121.898 176.243 121.4C177.686 120.398 179.281 119.797 180.845 119.658L181.204 119.628C183.864 119.403 190.092 118.869 197.159 115.348C201.773 113.047 206.034 108.118 210.161 103.346C211.969 101.258 213.674 99.2852 215.305 97.6583C216.182 96.7841 216.261 95.3879 215.482 94.4227L205.906 82.5427C205.456 81.9842 204.786 81.6564 204.068 81.6382C204.056 81.6382 204.032 81.6382 204.013 81.6382Z" fill="#4748CE"/>
<path d="M164.844 111.857C165.179 111.445 166.195 110.309 167.82 110.073C168.265 110.006 168.673 110.024 169.014 110.073" fill="#BEDCFC"/>
<path d="M164.844 111.857C165.179 111.445 166.195 110.309 167.82 110.073C168.265 110.006 168.673 110.024 169.014 110.073" stroke="#4748CE" stroke-width="2.4809" stroke-miterlimit="10" stroke-linecap="round" stroke-linejoin="round"/>
<path d="M167.84 116.27C168.126 115.918 168.99 114.947 170.378 114.747C170.762 114.692 171.103 114.704 171.395 114.747" fill="#BEDCFC"/>
<path d="M167.84 116.27C168.126 115.918 168.99 114.947 170.378 114.747C170.762 114.692 171.103 114.704 171.395 114.747" stroke="#4748CE" stroke-width="2.4809" stroke-miterlimit="10" stroke-linecap="round" stroke-linejoin="round"/>
<path d="M184.082 130.113C185.545 122.091 187.853 114.244 190.954 106.783C194.592 98.0134 204.262 74.7314 214.149 73.9961C214.312 73.984 214.475 73.978 214.638 73.978C224.64 73.978 237.386 96.8984 246.536 131.186L184.082 130.113Z" fill="#BEDCFC"/>
<path d="M214.641 75.1832C219.101 75.1832 224.583 80.6557 230.064 90.588C235.467 100.382 240.592 113.942 244.949 129.95L185.535 128.931C186.992 121.476 189.179 114.195 192.068 107.24C194.075 102.407 197.435 94.3127 201.563 87.4058C207.389 77.6603 211.674 75.3821 214.236 75.1953C214.375 75.1893 214.508 75.1832 214.641 75.1832ZM214.641 72.7725C214.448 72.7725 214.254 72.7785 214.061 72.7966C203.43 73.5921 193.912 96.5125 189.838 106.324C185.771 116.124 183.74 124.875 182.652 131.3C204.476 131.674 226.293 132.047 248.116 132.421C238.948 97.308 225.954 72.7725 214.641 72.7725Z" fill="#4748CE"/>
<path d="M218.303 71.7197C225.464 72.1165 237.278 83.6219 240.809 88.7858C240.899 88.9184 241.032 89.1112 241.201 89.3644C242.579 91.4135 251.022 104.016 247.003 117.052C246.375 119.089 245.607 121.59 243.625 123.899C237.696 130.824 224.896 126.424 213.202 123.868C212.367 124.182 211.473 124.363 210.53 124.363H209.866C205.72 124.363 202.359 121.012 202.359 116.877V113.321C202.359 109.187 205.72 105.836 209.866 105.836H210.53C211.6 105.836 212.609 106.059 213.528 106.457C213.872 101.804 215.111 98.3505 216.586 98.3505C218.327 98.3505 219.741 103.148 219.741 109.06C219.741 109.699 219.723 110.332 219.692 110.941C223.078 113.774 227.056 113.774 229.841 113.774C231.83 113.774 232.626 110.941 232.626 109.06C232.626 105.836 231.035 103.062 231.035 102.665" fill="#BEDCFC"/>
<path d="M218.303 71.7197C225.464 72.1165 237.278 83.6219 240.809 88.7858C240.899 88.9184 241.032 89.1112 241.201 89.3644C242.579 91.4135 251.022 104.016 247.003 117.052C246.375 119.089 245.607 121.59 243.625 123.899C237.696 130.824 224.896 126.424 213.202 123.868C212.367 124.182 211.473 124.363 210.53 124.363H209.866C205.72 124.363 202.359 121.012 202.359 116.877V113.321C202.359 109.187 205.72 105.836 209.866 105.836H210.53C211.6 105.836 212.609 106.059 213.528 106.457C213.872 101.804 215.111 98.3505 216.586 98.3505C218.327 98.3505 219.741 103.148 219.741 109.06C219.741 109.699 219.723 110.332 219.692 110.941C223.078 113.774 227.056 113.774 229.841 113.774C231.83 113.774 232.626 110.941 232.626 109.06C232.626 105.836 231.035 103.062 231.035 102.665" stroke="#4748CE" stroke-width="2.72478" stroke-miterlimit="10" stroke-linecap="round" stroke-linejoin="round"/>
<path d="M203.594 111.031C203.944 111.387 204.651 112.008 205.739 112.357C207.244 112.845 208.531 112.508 209.003 112.357" fill="#BEDCFC"/>
<path d="M203.594 111.031C203.944 111.387 204.651 112.008 205.739 112.357C207.244 112.845 208.531 112.508 209.003 112.357" stroke="#4748CE" stroke-width="2.38043" stroke-miterlimit="10" stroke-linecap="round" stroke-linejoin="round"/>
<path d="M203.102 116.118C203.452 116.474 204.159 117.094 205.247 117.444C206.752 117.932 208.039 117.595 208.517 117.444" fill="#BEDCFC"/>
<path d="M203.102 116.118C203.452 116.474 204.159 117.094 205.247 117.444C206.752 117.932 208.039 117.595 208.517 117.444" stroke="#4748CE" stroke-width="2.38043" stroke-miterlimit="10" stroke-linecap="round" stroke-linejoin="round"/>
<path fill-rule="evenodd" clip-rule="evenodd" d="M259.613 12.6129C261.836 20.2545 255.388 33.7767 251.491 40.4702C252.873 43.5139 253.632 46.7869 253.632 50.1955C253.632 66.4098 236.455 79.5541 216.735 79.5541C197.015 79.5541 179.839 66.4098 179.839 50.1955C179.839 47.0459 180.487 44.0122 181.676 41.1682C177.909 33.9807 173.454 23.1242 175.357 16.5802C176.496 12.6647 184.933 18.0418 195.115 26.5672C201.274 22.9659 208.799 20.8368 216.735 20.8368C223.867 20.8368 230.666 22.556 236.44 25.5178C248.093 15.3691 258.349 8.26688 259.613 12.6129Z" fill="#BEDCFC"/>
<path d="M251.491 40.4702L250.313 39.7848L249.959 40.3929L250.25 41.0336L251.491 40.4702ZM259.613 12.6129L260.921 12.2324V12.2324L259.613 12.6129ZM181.676 41.1682L182.933 41.6936L183.179 41.1029L182.882 40.5358L181.676 41.1682ZM175.357 16.5802L176.665 16.9607H176.665L175.357 16.5802ZM195.115 26.5672L194.241 27.6118L194.976 28.2272L195.803 27.7433L195.115 26.5672ZM236.44 25.5178L235.819 26.73L236.639 27.1511L237.335 26.5452L236.44 25.5178ZM252.668 41.1557C254.645 37.7598 257.274 32.6262 259.132 27.3496C260.961 22.1533 262.163 16.4995 260.921 12.2324L258.305 12.9933C259.287 16.3678 258.375 21.2959 256.562 26.4446C254.777 31.5128 252.233 36.4871 250.313 39.7848L252.668 41.1557ZM254.994 50.1955C254.994 46.5808 254.189 43.1165 252.731 39.9069L250.25 41.0336C251.557 43.9113 252.269 46.9929 252.269 50.1955H254.994ZM216.735 80.9165C226.888 80.9165 236.412 77.5353 243.42 72.0263C250.429 66.5174 254.994 58.812 254.994 50.1955H252.269C252.269 57.7933 248.246 64.7672 241.737 69.8841C235.227 75.0008 226.302 78.1917 216.735 78.1917V80.9165ZM178.476 50.1955C178.476 58.812 183.041 66.5174 190.05 72.0263C197.059 77.5353 206.582 80.9165 216.735 80.9165V78.1917C207.168 78.1917 198.243 75.0008 191.734 69.8841C185.224 64.7672 181.201 57.7933 181.201 50.1955H178.476ZM180.419 40.6427C179.164 43.6441 178.476 46.856 178.476 50.1955H181.201C181.201 47.2359 181.809 44.3803 182.933 41.6936L180.419 40.6427ZM174.049 16.1998C172.981 19.8712 173.724 24.5463 175.086 29.0291C176.467 33.5693 178.562 38.1627 180.469 41.8005L182.882 40.5358C181.022 36.9862 179.007 32.5576 177.693 28.2366C176.363 23.8583 175.83 19.8331 176.665 16.9607L174.049 16.1998ZM195.99 25.5227C190.886 21.2493 186.146 17.7005 182.497 15.712C180.7 14.7333 179.01 14.0418 177.599 13.9317C176.874 13.8751 176.104 13.9622 175.425 14.3605C174.716 14.7768 174.271 15.4359 174.049 16.1998L176.665 16.9607C176.727 16.7457 176.795 16.7163 176.805 16.7105C176.845 16.6867 177.001 16.6181 177.387 16.6482C178.196 16.7114 179.465 17.163 181.193 18.1047C184.593 19.9573 189.162 23.3597 194.241 27.6118L195.99 25.5227ZM216.735 19.4745C208.559 19.4745 200.797 21.6667 194.428 25.3912L195.803 27.7433C201.751 24.2651 209.038 22.1992 216.735 22.1992V19.4745ZM237.062 24.3056C231.095 21.2451 224.083 19.4745 216.735 19.4745V22.1992C223.651 22.1992 230.237 23.867 235.819 26.73L237.062 24.3056ZM260.921 12.2324C260.672 11.3751 260.146 10.6671 259.318 10.2732C258.548 9.90646 257.685 9.89383 256.881 10.0237C255.29 10.2804 253.339 11.1944 251.223 12.4608C246.936 15.0265 241.384 19.4054 235.546 24.4904L237.335 26.5452C243.149 21.4815 248.552 17.235 252.622 14.7988C254.685 13.5644 256.263 12.8834 257.315 12.7136C257.832 12.6302 258.069 12.6964 258.147 12.7335C258.168 12.7434 258.238 12.7642 258.305 12.9933L260.921 12.2324Z" fill="#4344C6"/>
<path d="M248.528 35.1708L241.633 28.275C241.234 27.8767 241.185 27.2475 241.558 26.8251C244.204 23.8253 250.245 19.2808 253.417 17.9827C253.972 17.7559 254.547 18.1147 254.595 18.7115C254.951 23.1657 251.894 31.183 250.323 34.844C250.013 35.5657 249.084 35.7261 248.528 35.1708Z" fill="#D5FAFC"/>
<path d="M184.928 36.3027L191.063 29.8611C191.445 29.4608 191.486 28.843 191.107 28.4401C188.753 25.9336 183.683 22.9151 180.86 21.9192C180.295 21.72 179.721 22.0812 179.675 22.6782C179.382 26.5242 181.752 32.813 183.113 35.9912C183.427 36.7238 184.379 36.8799 184.928 36.3027Z" fill="#D5FAFC"/>
<path d="M217.455 45.71H201.059V48.2533H217.455V45.71Z" fill="#191D5D" stroke="#4748CE" stroke-width="2.41077" stroke-miterlimit="10" stroke-linecap="round" stroke-linejoin="round"/>
<path d="M180.63 41.5278C178.835 41.5278 177.342 42.9623 177.336 44.7523C177.336 44.7643 177.336 44.7764 177.336 44.7884C177.336 52.1955 183.954 58.1983 192.125 58.1983C200.289 58.1983 206.913 52.1955 206.913 44.7884C206.913 44.7764 206.913 44.7643 206.913 44.7523C206.907 42.9623 205.414 41.5278 203.619 41.5278H180.63Z" fill="#191D5D" stroke="#4748CE" stroke-width="2.41077" stroke-miterlimit="10" stroke-linecap="round" stroke-linejoin="round"/>
<path d="M218.532 41.4673C216.737 41.4673 215.244 42.9017 215.238 44.6917C215.238 44.7037 215.238 44.7158 215.238 44.7278C215.238 52.1349 221.856 58.1377 230.027 58.1377C238.192 58.1377 244.816 52.1349 244.816 44.7278C244.816 44.7158 244.816 44.7037 244.816 44.6917C244.81 42.9017 243.317 41.4673 241.522 41.4673H218.532Z" fill="#191D5D" stroke="#4748CE" stroke-width="2.41077" stroke-miterlimit="10" stroke-linecap="round" stroke-linejoin="round"/>
<path d="M201.917 46.518C202.123 47.8801 199.385 49.875 196.702 49.869C194.037 49.863 191.293 47.8861 191.486 46.518C191.686 45.0776 194.206 45.2463 196.817 45.2463C197.977 45.2463 201.724 45.2403 201.917 46.518Z" fill="#CFE2E8"/>
<path d="M241.304 45.8789C241.51 47.2409 238.772 49.2359 236.089 49.2298C233.423 49.2238 230.68 47.247 230.873 45.8789C231.072 44.4384 233.593 44.6072 236.203 44.6072C237.364 44.6072 241.111 44.6012 241.304 45.8789Z" fill="#CFE2E8"/>
<path d="M215.145 56.0416C215.145 57.7123 212.158 60.7089 210.492 60.7089C208.827 60.7089 205.926 57.7123 205.926 56.0416C205.926 54.3709 208.827 53.7944 210.492 53.7944C212.158 53.7944 215.145 54.3709 215.145 56.0416Z" fill="#4748CE"/>
<path fill-rule="evenodd" clip-rule="evenodd" d="M210.216 63.2286C210.138 63.2167 210.066 63.2698 210.051 63.3471C209.604 65.7511 207.173 68.0966 204.205 68.6731C202.701 68.9651 201.068 68.8005 199.497 67.9597C197.951 67.133 196.45 65.6442 195.191 63.2606C195.155 63.1911 195.069 63.1633 194.999 63.1995L194.83 63.2867C194.761 63.3228 194.734 63.4091 194.77 63.4786C196.064 65.9299 197.627 67.4974 199.273 68.3779C200.948 69.2739 202.693 69.4499 204.295 69.1386C206.968 68.6194 209.264 66.7361 210.178 64.5569C210.23 64.4344 210.415 64.4308 210.472 64.5508C210.897 65.445 211.602 66.2834 212.472 66.9951C213.75 68.0392 215.408 68.8304 217.145 69.1393C218.883 69.4484 220.712 69.2763 222.315 68.3755C223.891 67.4892 225.225 65.9111 226.038 63.4508C226.063 63.3762 226.021 63.2957 225.946 63.2718L225.766 63.2143C225.691 63.1904 225.611 63.2323 225.586 63.3069C224.804 65.6709 223.539 67.1434 222.082 67.9621C220.595 68.7981 218.883 68.9666 217.228 68.6724C215.573 68.3781 213.989 67.6223 212.772 66.628C211.6 65.6695 210.79 64.5077 210.564 63.3471C210.549 63.27 210.477 63.2167 210.399 63.2286L210.329 63.2394C210.315 63.2416 210.3 63.2416 210.286 63.2394L210.216 63.2286Z" fill="#191D5D"/>
<path d="M204.205 68.6731L204.049 67.8707L204.205 68.6731ZM199.497 67.9597L199.111 68.6805L199.497 67.9597ZM199.273 68.3779L198.887 69.0986L199.273 68.3779ZM204.295 69.1386L204.139 68.3362V68.3362L204.295 69.1386ZM212.472 66.9951L211.955 67.6281V67.6281L212.472 66.9951ZM217.145 69.1393L217.002 69.9441L217.145 69.1393ZM222.315 68.3755L221.914 67.6629L222.315 68.3755ZM222.082 67.9621L221.682 67.2495L222.082 67.9621ZM217.228 68.6724L217.372 67.8676L217.228 68.6724ZM212.772 66.628L213.29 65.995V65.995L212.772 66.628ZM210.329 63.2394L210.205 62.4315L210.329 63.2394ZM210.286 63.2394L210.162 64.0473L210.286 63.2394ZM210.564 63.3471L209.762 63.5032L210.564 63.3471ZM210.399 63.2286L210.275 62.4207L210.399 63.2286ZM210.178 64.5569L210.932 64.873L210.178 64.5569ZM194.83 63.2867L194.455 62.5607L194.83 63.2867ZM194.77 63.4786L194.047 63.8602L194.77 63.4786ZM226.038 63.4508L225.262 63.1943L226.038 63.4508ZM225.946 63.2718L226.195 62.493L225.946 63.2718ZM225.766 63.2143L225.518 63.9931L225.766 63.2143ZM225.586 63.3069L224.81 63.0501L225.586 63.3069ZM210.051 63.3471L209.248 63.1974L210.051 63.3471ZM210.216 63.2286L210.34 62.4207L210.216 63.2286ZM204.361 69.4755C207.602 68.8458 210.336 66.2833 210.855 63.4967L209.248 63.1974C208.871 65.2189 206.743 67.3473 204.049 67.8707L204.361 69.4755ZM199.111 68.6805C200.861 69.6164 202.687 69.8007 204.361 69.4755L204.049 67.8707C202.716 68.1295 201.276 67.9846 199.882 67.2389L199.111 68.6805ZM194.469 63.6423C195.787 66.1393 197.394 67.7619 199.111 68.6805L199.882 67.2389C198.508 66.504 197.113 65.1491 195.914 62.8788L194.469 63.6423ZM195.206 64.0126L195.375 63.9254L194.623 62.4735L194.455 62.5607L195.206 64.0126ZM199.659 67.6571C198.184 66.8685 196.727 65.435 195.493 63.097L194.047 63.8602C195.401 66.4248 197.07 68.1263 198.887 69.0986L199.659 67.6571ZM204.139 68.3362C202.708 68.6143 201.156 68.4579 199.659 67.6571L198.887 69.0986C200.74 70.0898 202.678 70.2854 204.451 69.9411L204.139 68.3362ZM209.424 64.2409C208.623 66.1525 206.561 67.8657 204.139 68.3362L204.451 69.9411C207.375 69.3731 209.906 67.3198 210.932 64.873L209.424 64.2409ZM209.734 64.902C210.222 65.9285 211.013 66.858 211.955 67.6281L212.99 66.3622C212.19 65.7088 211.573 64.9616 211.21 64.1996L209.734 64.902ZM211.955 67.6281C213.337 68.7579 215.124 69.6101 217.002 69.9441L217.289 68.3345C215.693 68.0507 214.162 67.3205 212.99 66.3622L211.955 67.6281ZM217.002 69.9441C218.885 70.2789 220.914 70.1006 222.715 69.0881L221.914 67.6629C220.51 68.452 218.882 68.6179 217.289 68.3345L217.002 69.9441ZM222.715 69.0881C224.497 68.0864 225.948 66.3289 226.814 63.7074L225.262 63.1943C224.502 65.4932 223.286 66.8919 221.914 67.6629L222.715 69.0881ZM226.195 62.493L226.014 62.4354L225.518 63.9931L225.698 64.0507L226.195 62.493ZM224.81 63.0501C224.081 65.2526 222.933 66.546 221.682 67.2495L222.483 68.6747C224.144 67.7408 225.526 66.0891 226.362 63.5637L224.81 63.0501ZM221.682 67.2495C220.393 67.9739 218.881 68.1361 217.372 67.8676L217.085 69.4772C218.884 69.7971 220.797 69.6223 222.483 68.6747L221.682 67.2495ZM217.372 67.8676C215.858 67.5984 214.401 66.9036 213.29 65.995L212.255 67.2609C213.577 68.341 215.289 69.1578 217.085 69.4772L217.372 67.8676ZM213.29 65.995C212.209 65.1116 211.544 64.1037 211.367 63.191L209.762 63.5032C210.036 64.9116 210.991 66.2274 212.255 67.2609L213.29 65.995ZM210.275 62.4207L210.205 62.4315L210.453 64.0473L210.524 64.0366L210.275 62.4207ZM210.092 64.0366L210.162 64.0473L210.41 62.4315L210.34 62.4207L210.092 64.0366ZM210.205 62.4315C210.273 62.421 210.342 62.421 210.41 62.4315L210.162 64.0473C210.258 64.0622 210.357 64.0622 210.453 64.0473L210.205 62.4315ZM211.367 63.191C211.272 62.7029 210.806 62.339 210.275 62.4207L210.524 64.0366C210.148 64.0944 209.827 63.837 209.762 63.5032L211.367 63.191ZM210.932 64.873C210.811 65.1621 210.542 65.2761 210.339 65.2802C210.137 65.2843 209.867 65.1822 209.734 64.902L211.21 64.1996C211.02 63.7994 210.628 63.6391 210.306 63.6457C209.984 63.6522 209.597 63.8292 209.424 64.2409L210.932 64.873ZM194.455 62.5607C193.982 62.8053 193.798 63.3887 194.047 63.8602L195.493 63.097C195.669 63.4295 195.539 63.8403 195.206 64.0126L194.455 62.5607ZM195.914 62.8788C195.672 62.4197 195.099 62.2273 194.623 62.4735L195.375 63.9254C195.039 64.0993 194.638 63.9625 194.469 63.6423L195.914 62.8788ZM226.814 63.7074C226.982 63.1989 226.701 62.6543 226.195 62.493L225.698 64.0507C225.342 63.9371 225.143 63.5535 225.262 63.1943L226.814 63.7074ZM226.014 62.4354C225.503 62.2727 224.972 62.5595 224.81 63.0501L226.362 63.5637C226.249 63.9051 225.879 64.1082 225.518 63.9931L226.014 62.4354ZM210.855 63.4967C210.791 63.8387 210.465 64.094 210.092 64.0366L210.34 62.4207C209.811 62.3394 209.34 62.7009 209.248 63.1974L210.855 63.4967Z" fill="#191D5D"/>
<path d="M232.091 29.9318C231.122 23.9952 232.716 9.89762 246.848 1" stroke="#4344C6" stroke-width="1.74463" stroke-linecap="round"/>
<path d="M226.273 29.4234C225.062 25.6191 223.366 16.3386 226.273 9.65088" stroke="#4344C6" stroke-width="1.74463" stroke-linecap="round"/>
<path d="M196.697 31.152C197.569 25.9419 196.134 13.5695 183.414 5.76074" stroke="#4344C6" stroke-width="1.74463" stroke-linecap="round"/>
<path d="M202.457 31.1518C203.655 27.7931 205.331 19.5997 202.457 13.6953" stroke="#4344C6" stroke-width="1.74463" stroke-linecap="round"/>
<path d="M243.713 56.5431C251.304 52.1081 261.12 47.3308 277.832 55.1811" stroke="#4344C6" stroke-width="1.74463" stroke-linecap="round"/>
<path d="M246.097 59.6337C250.883 58.3623 259.363 58.3049 265.934 63.6842" stroke="#4344C6" stroke-width="1.74463" stroke-linecap="round"/>
<path d="M185.793 60.114C181.032 57.4348 171.907 58.5271 167.543 62.0977" stroke="#4344C6" stroke-width="1.74463" stroke-linecap="round"/>
<path d="M183.812 62.8911C181.515 61.6197 177.841 63.4629 174.688 68.8422" stroke="#4344C6" stroke-width="1.74463" stroke-linecap="round"/>
</svg>
