<svg width="345" height="121" viewBox="0 0 345 121" fill="none" xmlns="http://www.w3.org/2000/svg">
<path fill-rule="evenodd" clip-rule="evenodd" d="M371 58.4657L343.958 70.3029C316.917 82.14 262.833 105.814 208.75 99.8957C154.667 93.9772 100.583 58.4657 46.5 37.7507C-7.58331 17.0357 -61.6667 11.1172 -115.75 19.995C-169.833 28.8729 -223.917 52.5472 -250.958 64.3843L-278 76.2214V165H-250.958C-223.917 165 -169.833 165 -115.75 165C-61.6667 165 -7.58331 165 46.5 165C100.583 165 154.667 165 208.75 165C262.833 165 316.917 165 343.958 165H371V58.4657Z" fill="#828CFC"/>
<path d="M142.95 104.484C142.122 101.451 142.66 99.7827 143.46 98.9279C144.032 98.3157 144.937 98.2451 145.775 98.2451H216.26C221.361 98.2451 224.614 106.133 226.527 113.507C227.728 118.138 224.03 122.422 219.246 122.422H153.478C148.409 122.422 146.459 118.522 146.069 117.353L142.95 104.484Z" fill="#191D5D" stroke="#191D5D" stroke-width="2.33969"/>
<path d="M158.746 109.243C172.169 109.243 185.593 109.243 199.016 109.243H158.746Z" fill="#BEDCFC"/>
<path d="M158.746 109.243C172.169 109.243 185.593 109.243 199.016 109.243" stroke="#828CFC" stroke-width="2.33969" stroke-miterlimit="10" stroke-linecap="round" stroke-linejoin="round"/>
<path d="M154.422 104.717C167.845 104.717 181.268 104.717 194.692 104.717H154.422Z" fill="#BEDCFC"/>
<path d="M154.422 104.717C167.845 104.717 181.268 104.717 194.692 104.717" stroke="#828CFC" stroke-width="2.33969" stroke-miterlimit="10" stroke-linecap="round" stroke-linejoin="round"/>
<path d="M195.859 118.306H171.577C170.44 118.306 169.516 117.382 169.516 116.245V115.143C169.516 114.005 170.44 113.081 171.577 113.081H195.859C196.996 113.081 197.92 114.005 197.92 115.143V116.245C197.92 117.382 196.996 118.306 195.859 118.306Z" fill="#BEDCFC" stroke="#828CFC" stroke-width="2.33969" stroke-miterlimit="10" stroke-linecap="round" stroke-linejoin="round"/>
<path d="M212.494 98.7751H148.186C144.217 98.7751 141 95.5585 141 91.5896V55.0339C141 51.065 144.217 47.8484 148.186 47.8484H212.494C216.463 47.8484 219.68 51.065 219.68 55.0339V91.5896C219.68 95.5585 216.463 98.7751 212.494 98.7751Z" fill="#191D5D" stroke="#191D5D" stroke-width="2.33969" stroke-miterlimit="10" stroke-linecap="round" stroke-linejoin="round"/>
<path d="M206.152 94.0121H154.462C150.362 94.0121 147.039 90.6889 147.039 86.5897V59.8497C147.039 55.7505 150.362 52.4272 154.462 52.4272H206.152C210.252 52.4272 213.575 55.7505 213.575 59.8497V86.5897C213.575 90.6889 210.252 94.0121 206.152 94.0121Z" fill="#D0D4FF" stroke="#4748CE" stroke-width="2.33969" stroke-miterlimit="10" stroke-linecap="round" stroke-linejoin="round"/>
<path d="M152.846 66.0708C152.846 65.8255 152.933 65.6066 153.105 65.4143C153.277 65.222 153.483 65.1259 153.722 65.1259C153.881 65.1259 154.779 65.4475 156.417 66.0907C156.364 65.169 156.338 64.5323 156.338 64.1809C156.338 63.9223 156.421 63.7101 156.586 63.5443C156.759 63.3785 156.971 63.2956 157.223 63.2956C157.482 63.2956 157.694 63.3785 157.86 63.5443C158.032 63.7101 158.118 63.9223 158.118 64.1809C158.118 64.5456 158.138 65.106 158.178 65.8619C159.77 65.6232 160.744 65.5038 161.102 65.5038C161.348 65.5038 161.55 65.5934 161.709 65.7724C161.875 65.9448 161.958 66.157 161.958 66.409C161.958 66.8732 161.709 67.1584 161.212 67.2645C160.748 67.3639 159.929 67.4833 158.755 67.6226C159.14 67.974 159.557 68.4249 160.008 68.9753C160.598 69.7048 160.894 70.2121 160.894 70.4972C160.894 70.736 160.801 70.9448 160.615 71.1239C160.429 71.2963 160.217 71.3825 159.978 71.3825C159.726 71.3825 159.498 71.2632 159.292 71.0244C158.888 70.4807 158.228 69.7015 157.313 68.6869C155.947 70.232 155.021 71.0045 154.537 71.0045C154.299 71.0045 154.086 70.9117 153.901 70.726C153.722 70.5403 153.632 70.3281 153.632 70.0894C153.632 69.8639 153.738 69.6451 153.951 69.4329C154.375 69.0748 154.992 68.5012 155.801 67.7121C155.257 67.5397 154.461 67.2512 153.413 66.8467C153.035 66.6809 152.846 66.4223 152.846 66.0708ZM163.649 66.0708C163.649 65.8255 163.735 65.6066 163.907 65.4143C164.08 65.222 164.285 65.1259 164.524 65.1259C164.683 65.1259 165.582 65.4475 167.22 66.0907C167.167 65.169 167.14 64.5323 167.14 64.1809C167.14 63.9223 167.223 63.7101 167.389 63.5443C167.561 63.3785 167.774 63.2956 168.026 63.2956C168.284 63.2956 168.496 63.3785 168.662 63.5443C168.835 63.7101 168.921 63.9223 168.921 64.1809C168.921 64.5456 168.941 65.106 168.98 65.8619C170.572 65.6232 171.547 65.5038 171.905 65.5038C172.15 65.5038 172.352 65.5934 172.512 65.7724C172.677 65.9448 172.76 66.157 172.76 66.409C172.76 66.8732 172.512 67.1584 172.014 67.2645C171.55 67.3639 170.731 67.4833 169.557 67.6226C169.942 67.974 170.36 68.4249 170.811 68.9753C171.401 69.7048 171.696 70.2121 171.696 70.4972C171.696 70.736 171.603 70.9448 171.417 71.1239C171.232 71.2963 171.02 71.3825 170.781 71.3825C170.529 71.3825 170.3 71.2632 170.095 71.0244C169.69 70.4807 169.03 69.7015 168.115 68.6869C166.749 70.232 165.824 71.0045 165.34 71.0045C165.101 71.0045 164.889 70.9117 164.703 70.726C164.524 70.5403 164.435 70.3281 164.435 70.0894C164.435 69.8639 164.541 69.6451 164.753 69.4329C165.177 69.0748 165.794 68.5012 166.603 67.7121C166.059 67.5397 165.264 67.2512 164.216 66.8467C163.838 66.6809 163.649 66.4223 163.649 66.0708ZM174.451 66.0708C174.451 65.8255 174.538 65.6066 174.71 65.4143C174.882 65.222 175.088 65.1259 175.327 65.1259C175.486 65.1259 176.384 65.4475 178.022 66.0907C177.969 65.169 177.943 64.5323 177.943 64.1809C177.943 63.9223 178.026 63.7101 178.191 63.5443C178.364 63.3785 178.576 63.2956 178.828 63.2956C179.087 63.2956 179.299 63.3785 179.465 63.5443C179.637 63.7101 179.723 63.9223 179.723 64.1809C179.723 64.5456 179.743 65.106 179.783 65.8619C181.374 65.6232 182.349 65.5038 182.707 65.5038C182.953 65.5038 183.155 65.5934 183.314 65.7724C183.48 65.9448 183.563 66.157 183.563 66.409C183.563 66.8732 183.314 67.1584 182.817 67.2645C182.353 67.3639 181.534 67.4833 180.36 67.6226C180.744 67.974 181.162 68.4249 181.613 68.9753C182.203 69.7048 182.498 70.2121 182.498 70.4972C182.498 70.736 182.406 70.9448 182.22 71.1239C182.034 71.2963 181.822 71.3825 181.583 71.3825C181.331 71.3825 181.103 71.2632 180.897 71.0244C180.492 70.4807 179.833 69.7015 178.917 68.6869C177.551 70.232 176.626 71.0045 176.142 71.0045C175.904 71.0045 175.691 70.9117 175.506 70.726C175.327 70.5403 175.237 70.3281 175.237 70.0894C175.237 69.8639 175.343 69.6451 175.555 69.4329C175.98 69.0748 176.597 68.5012 177.406 67.7121C176.862 67.5397 176.066 67.2512 175.018 66.8467C174.64 66.6809 174.451 66.4223 174.451 66.0708ZM185.254 66.0708C185.254 65.8255 185.34 65.6066 185.512 65.4143C185.685 65.222 185.89 65.1259 186.129 65.1259C186.288 65.1259 187.187 65.4475 188.825 66.0907C188.772 65.169 188.745 64.5323 188.745 64.1809C188.745 63.9223 188.828 63.7101 188.994 63.5443C189.166 63.3785 189.378 63.2956 189.63 63.2956C189.889 63.2956 190.101 63.3785 190.267 63.5443C190.439 63.7101 190.526 63.9223 190.526 64.1809C190.526 64.5456 190.546 65.106 190.585 65.8619C192.177 65.6232 193.152 65.5038 193.51 65.5038C193.755 65.5038 193.957 65.5934 194.117 65.7724C194.282 65.9448 194.365 66.157 194.365 66.409C194.365 66.8732 194.117 67.1584 193.619 67.2645C193.155 67.3639 192.336 67.4833 191.162 67.6226C191.547 67.974 191.965 68.4249 192.416 68.9753C193.006 69.7048 193.301 70.2121 193.301 70.4972C193.301 70.736 193.208 70.9448 193.022 71.1239C192.837 71.2963 192.624 71.3825 192.386 71.3825C192.134 71.3825 191.905 71.2632 191.699 71.0244C191.295 70.4807 190.635 69.7015 189.72 68.6869C188.354 70.232 187.429 71.0045 186.945 71.0045C186.706 71.0045 186.494 70.9117 186.308 70.726C186.129 70.5403 186.04 70.3281 186.04 70.0894C186.04 69.8639 186.146 69.6451 186.358 69.4329C186.782 69.0748 187.399 68.5012 188.208 67.7121C187.664 67.5397 186.868 67.2512 185.821 66.8467C185.443 66.6809 185.254 66.4223 185.254 66.0708ZM196.056 66.0708C196.056 65.8255 196.142 65.6066 196.315 65.4143C196.487 65.222 196.693 65.1259 196.932 65.1259C197.091 65.1259 197.989 65.4475 199.627 66.0907C199.574 65.169 199.548 64.5323 199.548 64.1809C199.548 63.9223 199.63 63.7101 199.796 63.5443C199.969 63.3785 200.181 63.2956 200.433 63.2956C200.691 63.2956 200.904 63.3785 201.069 63.5443C201.242 63.7101 201.328 63.9223 201.328 64.1809C201.328 64.5456 201.348 65.106 201.388 65.8619C202.979 65.6232 203.954 65.5038 204.312 65.5038C204.558 65.5038 204.76 65.5934 204.919 65.7724C205.085 65.9448 205.168 66.157 205.168 66.409C205.168 66.8732 204.919 67.1584 204.422 67.2645C203.957 67.3639 203.138 67.4833 201.965 67.6226C202.349 67.974 202.767 68.4249 203.218 68.9753C203.808 69.7048 204.103 70.2121 204.103 70.4972C204.103 70.736 204.01 70.9448 203.825 71.1239C203.639 71.2963 203.427 71.3825 203.188 71.3825C202.936 71.3825 202.707 71.2632 202.502 71.0244C202.097 70.4807 201.438 69.7015 200.522 68.6869C199.156 70.232 198.231 71.0045 197.747 71.0045C197.508 71.0045 197.296 70.9117 197.111 70.726C196.932 70.5403 196.842 70.3281 196.842 70.0894C196.842 69.8639 196.948 69.6451 197.16 69.4329C197.585 69.0748 198.201 68.5012 199.01 67.7121C198.467 67.5397 197.671 67.2512 196.623 66.8467C196.245 66.6809 196.056 66.4223 196.056 66.0708Z" fill="#4748CE"/>
<path d="M154.87 78.5013C154.87 78.3173 154.935 78.1531 155.064 78.0089C155.193 77.8647 155.348 77.7926 155.527 77.7926C155.646 77.7926 156.32 78.0338 157.548 78.5162C157.509 77.8249 157.489 77.3474 157.489 77.0838C157.489 76.8899 157.551 76.7307 157.675 76.6064C157.805 76.482 157.964 76.4199 158.153 76.4199C158.347 76.4199 158.506 76.482 158.63 76.6064C158.759 76.7307 158.824 76.8899 158.824 77.0838C158.824 77.3574 158.839 77.7776 158.869 78.3446C160.063 78.1656 160.794 78.0761 161.062 78.0761C161.246 78.0761 161.398 78.1432 161.517 78.2775C161.642 78.4068 161.704 78.5659 161.704 78.7549C161.704 79.1031 161.517 79.3169 161.144 79.3965C160.796 79.4711 160.182 79.5606 159.302 79.6651C159.59 79.9287 159.903 80.2669 160.242 80.6797C160.684 81.2268 160.906 81.6072 160.906 81.8211C160.906 82.0001 160.836 82.1568 160.697 82.2911C160.557 82.4204 160.398 82.4851 160.219 82.4851C160.03 82.4851 159.859 82.3955 159.704 82.2165C159.401 81.8087 158.906 81.2243 158.22 80.4633C157.195 81.6222 156.501 82.2016 156.138 82.2016C155.959 82.2016 155.8 82.1319 155.661 81.9927C155.527 81.8534 155.46 81.6943 155.46 81.5152C155.46 81.3461 155.539 81.182 155.698 81.0229C156.017 80.7543 156.479 80.3241 157.086 79.7322C156.678 79.6029 156.081 79.3866 155.295 79.0832C155.012 78.9588 154.87 78.7649 154.87 78.5013ZM162.972 78.5013C162.972 78.3173 163.037 78.1531 163.166 78.0089C163.295 77.8647 163.449 77.7926 163.629 77.7926C163.748 77.7926 164.422 78.0338 165.65 78.5162C165.61 77.8249 165.591 77.3474 165.591 77.0838C165.591 76.8899 165.653 76.7307 165.777 76.6064C165.906 76.482 166.066 76.4199 166.255 76.4199C166.448 76.4199 166.608 76.482 166.732 76.6064C166.861 76.7307 166.926 76.8899 166.926 77.0838C166.926 77.3574 166.941 77.7776 166.971 78.3446C168.164 78.1656 168.895 78.0761 169.164 78.0761C169.348 78.0761 169.5 78.1432 169.619 78.2775C169.743 78.4068 169.806 78.5659 169.806 78.7549C169.806 79.1031 169.619 79.3169 169.246 79.3965C168.898 79.4711 168.284 79.5606 167.403 79.6651C167.692 79.9287 168.005 80.2669 168.343 80.6797C168.786 81.2268 169.007 81.6072 169.007 81.8211C169.007 82.0001 168.938 82.1568 168.798 82.2911C168.659 82.4204 168.5 82.4851 168.321 82.4851C168.132 82.4851 167.96 82.3955 167.806 82.2165C167.503 81.8087 167.008 81.2243 166.322 80.4633C165.297 81.6222 164.603 82.2016 164.24 82.2016C164.061 82.2016 163.902 82.1319 163.763 81.9927C163.629 81.8534 163.561 81.6943 163.561 81.5152C163.561 81.3461 163.641 81.182 163.8 81.0229C164.118 80.7543 164.581 80.3241 165.188 79.7322C164.78 79.6029 164.183 79.3866 163.397 79.0832C163.114 78.9588 162.972 78.7649 162.972 78.5013ZM171.074 78.5013C171.074 78.3173 171.138 78.1531 171.268 78.0089C171.397 77.8647 171.551 77.7926 171.73 77.7926C171.85 77.7926 172.524 78.0338 173.752 78.5162C173.712 77.8249 173.692 77.3474 173.692 77.0838C173.692 76.8899 173.755 76.7307 173.879 76.6064C174.008 76.482 174.167 76.4199 174.356 76.4199C174.55 76.4199 174.709 76.482 174.834 76.6064C174.963 76.7307 175.028 76.8899 175.028 77.0838C175.028 77.3574 175.043 77.7776 175.073 78.3446C176.266 78.1656 176.997 78.0761 177.266 78.0761C177.45 78.0761 177.602 78.1432 177.721 78.2775C177.845 78.4068 177.907 78.5659 177.907 78.7549C177.907 79.1031 177.721 79.3169 177.348 79.3965C177 79.4711 176.386 79.5606 175.505 79.6651C175.794 79.9287 176.107 80.2669 176.445 80.6797C176.888 81.2268 177.109 81.6072 177.109 81.8211C177.109 82.0001 177.04 82.1568 176.9 82.2911C176.761 82.4204 176.602 82.4851 176.423 82.4851C176.234 82.4851 176.062 82.3955 175.908 82.2165C175.605 81.8087 175.11 81.2243 174.423 80.4633C173.399 81.6222 172.705 82.2016 172.342 82.2016C172.163 82.2016 172.004 82.1319 171.865 81.9927C171.73 81.8534 171.663 81.6943 171.663 81.5152C171.663 81.3461 171.743 81.182 171.902 81.0229C172.22 80.7543 172.683 80.3241 173.29 79.7322C172.882 79.6029 172.285 79.3866 171.499 79.0832C171.216 78.9588 171.074 78.7649 171.074 78.5013ZM179.176 78.5013C179.176 78.3173 179.24 78.1531 179.37 78.0089C179.499 77.8647 179.653 77.7926 179.832 77.7926C179.952 77.7926 180.625 78.0338 181.854 78.5162C181.814 77.8249 181.794 77.3474 181.794 77.0838C181.794 76.8899 181.856 76.7307 181.981 76.6064C182.11 76.482 182.269 76.4199 182.458 76.4199C182.652 76.4199 182.811 76.482 182.936 76.6064C183.065 76.7307 183.13 76.8899 183.13 77.0838C183.13 77.3574 183.145 77.7776 183.174 78.3446C184.368 78.1656 185.099 78.0761 185.368 78.0761C185.552 78.0761 185.703 78.1432 185.823 78.2775C185.947 78.4068 186.009 78.5659 186.009 78.7549C186.009 79.1031 185.823 79.3169 185.45 79.3965C185.102 79.4711 184.487 79.5606 183.607 79.6651C183.896 79.9287 184.209 80.2669 184.547 80.6797C184.99 81.2268 185.211 81.6072 185.211 81.8211C185.211 82.0001 185.141 82.1568 185.002 82.2911C184.863 82.4204 184.704 82.4851 184.525 82.4851C184.336 82.4851 184.164 82.3955 184.01 82.2165C183.707 81.8087 183.212 81.2243 182.525 80.4633C181.501 81.6222 180.807 82.2016 180.444 82.2016C180.265 82.2016 180.106 82.1319 179.966 81.9927C179.832 81.8534 179.765 81.6943 179.765 81.5152C179.765 81.3461 179.845 81.182 180.004 81.0229C180.322 80.7543 180.785 80.3241 181.391 79.7322C180.984 79.6029 180.387 79.3866 179.601 79.0832C179.317 78.9588 179.176 78.7649 179.176 78.5013ZM187.278 78.5013C187.278 78.3173 187.342 78.1531 187.471 78.0089C187.601 77.8647 187.755 77.7926 187.934 77.7926C188.053 77.7926 188.727 78.0338 189.956 78.5162C189.916 77.8249 189.896 77.3474 189.896 77.0838C189.896 76.8899 189.958 76.7307 190.083 76.6064C190.212 76.482 190.371 76.4199 190.56 76.4199C190.754 76.4199 190.913 76.482 191.037 76.6064C191.167 76.7307 191.231 76.8899 191.231 77.0838C191.231 77.3574 191.246 77.7776 191.276 78.3446C192.47 78.1656 193.201 78.0761 193.47 78.0761C193.654 78.0761 193.805 78.1432 193.925 78.2775C194.049 78.4068 194.111 78.5659 194.111 78.7549C194.111 79.1031 193.925 79.3169 193.552 79.3965C193.203 79.4711 192.589 79.5606 191.709 79.6651C191.997 79.9287 192.311 80.2669 192.649 80.6797C193.092 81.2268 193.313 81.6072 193.313 81.8211C193.313 82.0001 193.243 82.1568 193.104 82.2911C192.965 82.4204 192.806 82.4851 192.627 82.4851C192.438 82.4851 192.266 82.3955 192.112 82.2165C191.808 81.8087 191.314 81.2243 190.627 80.4633C189.603 81.6222 188.909 82.2016 188.546 82.2016C188.367 82.2016 188.208 82.1319 188.068 81.9927C187.934 81.8534 187.867 81.6943 187.867 81.5152C187.867 81.3461 187.946 81.182 188.106 81.0229C188.424 80.7543 188.886 80.3241 189.493 79.7322C189.085 79.6029 188.489 79.3866 187.703 79.0832C187.419 78.9588 187.278 78.7649 187.278 78.5013Z" fill="#4748CE"/>
<path d="M203.757 120.216C201.741 120.216 199.306 119.268 198.722 117.179C198.602 116.756 198.561 116.32 198.596 115.885C197.194 115.401 196.168 114.405 195.804 113.092C195.619 112.43 195.619 111.738 195.804 111.058C195.482 110.55 195.291 110.013 195.243 109.453C195.082 107.525 196.508 105.807 196.95 105.324C197.445 104.787 198.435 103.88 199.497 103.88C199.623 103.88 199.736 103.892 199.849 103.916C200.768 104.1 201.926 104.19 203.298 104.19C206.401 104.19 209.796 103.713 211.162 103.456C214.348 102.865 216.962 101.738 221.622 97.4716C228.99 90.7293 230.75 87.7937 232.039 85.6517C232.63 84.6612 233.191 83.7304 234.128 82.6803C234.354 82.4237 234.677 82.2805 235.023 82.2805C235.035 82.2805 235.04 82.2805 235.052 82.2805C235.404 82.2865 235.733 82.4535 235.953 82.728L245.339 94.4047C245.721 94.882 245.685 95.5682 245.255 95.9978C243.626 97.6267 241.938 99.5838 240.154 101.654C236.186 106.254 232.087 111.01 227.779 113.164C221.055 116.523 215.112 117.03 212.57 117.251L212.218 117.281C210.476 117.436 208.722 118.098 207.135 119.196C206.556 119.596 205.923 119.888 205.255 120.049C204.772 120.157 204.271 120.216 203.757 120.216Z" fill="#BEDCFC"/>
<path d="M235.013 83.4738L244.398 95.1505C239.136 100.413 233.211 109.101 227.232 112.09C220.365 115.527 214.261 115.891 212.095 116.087C210.048 116.272 208.127 117.042 206.439 118.212C206.027 118.498 205.532 118.743 204.953 118.886C204.571 118.981 204.165 119.023 203.754 119.023C202.041 119.023 200.257 118.235 199.869 116.857C199.696 116.231 199.774 115.586 200.036 114.984C198.527 114.834 197.292 114.017 196.946 112.776C196.767 112.138 196.85 111.475 197.137 110.855C196.82 110.503 196.48 109.99 196.427 109.357C196.271 107.49 198.431 105.079 199.493 105.079C199.535 105.079 199.577 105.085 199.613 105.091C200.699 105.306 201.976 105.389 203.294 105.389C206.606 105.389 210.138 104.864 211.379 104.637C215.013 103.963 217.829 102.561 222.423 98.3606C233.181 88.5097 232.173 86.6779 235.013 83.4738ZM235.013 81.0872C234.333 81.0872 233.682 81.3795 233.229 81.8927C232.22 83.0263 231.636 84.0048 231.009 85.043C229.691 87.2388 228.05 89.9715 220.812 96.5944C216.361 100.664 213.909 101.738 210.943 102.287C209.613 102.531 206.307 102.997 203.294 102.997C202.005 102.997 200.925 102.913 200.084 102.746C199.893 102.71 199.696 102.686 199.499 102.686C198.055 102.686 196.844 103.677 196.075 104.512C195.55 105.085 193.849 107.137 194.052 109.548C194.1 110.127 194.267 110.7 194.541 111.243C194.422 111.97 194.458 112.698 194.655 113.408C195.054 114.846 196.051 115.992 197.417 116.678C197.447 116.953 197.495 117.227 197.572 117.496C198.217 119.799 200.758 121.41 203.754 121.41C204.362 121.41 204.959 121.338 205.52 121.201C206.331 121.004 207.095 120.658 207.793 120.169C209.207 119.184 210.77 118.593 212.304 118.456L212.656 118.426C215.263 118.206 221.367 117.681 228.294 114.22C232.817 111.959 236.994 107.114 241.039 102.424C242.811 100.371 244.482 98.4322 246.081 96.8331C246.94 95.9739 247.018 94.6016 246.254 93.6529L236.868 81.9762C236.427 81.4273 235.771 81.1051 235.066 81.0872C235.055 81.0872 235.031 81.0872 235.013 81.0872Z" fill="#4748CE"/>
<path d="M196.613 110.789C196.941 110.384 197.938 109.268 199.531 109.035C199.967 108.97 200.366 108.987 200.7 109.035" fill="#BEDCFC"/>
<path d="M196.613 110.789C196.941 110.384 197.938 109.268 199.531 109.035C199.967 108.97 200.366 108.987 200.7 109.035" stroke="#4748CE" stroke-width="2.43844" stroke-miterlimit="10" stroke-linecap="round" stroke-linejoin="round"/>
<path d="M199.559 115.127C199.839 114.781 200.686 113.826 202.047 113.629C202.423 113.575 202.757 113.587 203.043 113.629" fill="#BEDCFC"/>
<path d="M199.559 115.127C199.839 114.781 200.686 113.826 202.047 113.629C202.423 113.575 202.757 113.587 203.043 113.629" stroke="#4748CE" stroke-width="2.43844" stroke-miterlimit="10" stroke-linecap="round" stroke-linejoin="round"/>
<path d="M215.465 128.732C216.898 120.847 219.161 113.135 222.2 105.801C225.766 97.1819 235.244 74.2983 244.936 73.5756C245.096 73.5638 245.255 73.5579 245.415 73.5579C255.219 73.5579 267.713 96.086 276.681 129.786L215.465 128.732Z" fill="#BEDCFC"/>
<path d="M245.421 74.7426C249.793 74.7426 255.166 80.1213 260.538 89.8837C265.834 99.5099 270.858 112.838 275.129 128.572L216.892 127.571C218.32 120.243 220.464 113.087 223.296 106.251C225.262 101.5 228.556 93.5446 232.602 86.756C238.312 77.1772 242.512 74.9381 245.024 74.7544C245.16 74.7485 245.291 74.7426 245.421 74.7426ZM245.421 72.373C245.231 72.373 245.042 72.379 244.852 72.3967C234.432 73.1787 225.102 95.7068 221.11 105.351C217.123 114.983 215.133 123.584 214.066 129.899C235.457 130.266 256.842 130.633 278.233 131.001C269.246 96.4887 256.51 72.373 245.421 72.373Z" fill="#4748CE"/>
<path d="M249.015 71.3384C256.034 71.7283 267.613 83.0368 271.074 88.1124C271.163 88.2427 271.293 88.4323 271.459 88.681C272.809 90.6951 281.085 103.082 277.146 115.895C276.53 117.897 275.777 120.356 273.834 122.624C268.023 129.431 255.476 125.106 244.014 122.595C243.196 122.903 242.32 123.08 241.396 123.08H240.744C236.68 123.08 233.387 119.787 233.387 115.723V112.228C233.387 108.164 236.68 104.871 240.744 104.871H241.396C242.444 104.871 243.433 105.09 244.334 105.481C244.672 100.908 245.886 97.5134 247.331 97.5134C249.037 97.5134 250.424 102.229 250.424 108.04C250.424 108.668 250.406 109.29 250.376 109.888C253.695 112.673 257.594 112.673 260.324 112.673C262.273 112.673 263.053 109.888 263.053 108.04C263.053 104.871 261.493 102.144 261.493 101.754" fill="#BEDCFC"/>
<path d="M249.015 71.3384C256.034 71.7283 267.613 83.0368 271.074 88.1124C271.163 88.2427 271.293 88.4323 271.459 88.681C272.809 90.6951 281.085 103.082 277.146 115.895C276.53 117.897 275.777 120.356 273.834 122.624C268.023 129.431 255.476 125.106 244.014 122.595C243.196 122.903 242.32 123.08 241.396 123.08H240.744C236.68 123.08 233.387 119.787 233.387 115.723V112.228C233.387 108.164 236.68 104.871 240.744 104.871H241.396C242.444 104.871 243.433 105.09 244.334 105.481C244.672 100.908 245.886 97.5134 247.331 97.5134C249.037 97.5134 250.424 102.229 250.424 108.04C250.424 108.668 250.406 109.29 250.376 109.888C253.695 112.673 257.594 112.673 260.324 112.673C262.273 112.673 263.053 109.888 263.053 108.04C263.053 104.871 261.493 102.144 261.493 101.754" stroke="#4748CE" stroke-width="2.67814" stroke-miterlimit="10" stroke-linecap="round" stroke-linejoin="round"/>
<path d="M234.602 109.977C234.945 110.327 235.638 110.937 236.704 111.281C238.179 111.76 239.441 111.429 239.903 111.281" fill="#BEDCFC"/>
<path d="M234.602 109.977C234.945 110.327 235.638 110.937 236.704 111.281C238.179 111.76 239.441 111.429 239.903 111.281" stroke="#4748CE" stroke-width="2.33969" stroke-miterlimit="10" stroke-linecap="round" stroke-linejoin="round"/>
<path d="M234.117 114.977C234.461 115.326 235.154 115.936 236.22 116.28C237.695 116.76 238.957 116.428 239.425 116.28" fill="#BEDCFC"/>
<path d="M234.117 114.977C234.461 115.326 235.154 115.936 236.22 116.28C237.695 116.76 238.957 116.428 239.425 116.28" stroke="#4748CE" stroke-width="2.33969" stroke-miterlimit="10" stroke-linecap="round" stroke-linejoin="round"/>
<path fill-rule="evenodd" clip-rule="evenodd" d="M289.992 13.2429C292.176 20.753 285.84 34.0418 282.009 40.6215C283.368 43.6137 284.115 46.8313 284.115 50.1823C284.115 66.1192 267.232 79.0385 247.85 79.0385C228.467 79.0385 211.584 66.1192 211.584 50.1823C211.584 47.0876 212.221 44.1067 213.389 41.3121C209.687 34.2476 205.306 23.5753 207.177 17.1426C208.296 13.294 216.59 18.5794 226.598 26.9594C232.652 23.4191 240.048 21.3261 247.85 21.3261C254.859 21.3261 261.541 23.0156 267.216 25.9263C278.67 15.9517 288.75 8.97142 289.992 13.2429Z" fill="#BEDCFC"/>
<path d="M282.009 40.6215L280.852 39.9478L280.504 40.5456L280.79 41.1753L282.009 40.6215ZM289.992 13.2429L291.278 12.869V12.869L289.992 13.2429ZM213.389 41.3121L214.625 41.8284L214.867 41.2478L214.575 40.6905L213.389 41.3121ZM207.177 17.1426L208.463 17.5166L207.177 17.1426ZM226.598 26.9594L225.739 27.9861L226.461 28.5909L227.274 28.1153L226.598 26.9594ZM267.216 25.9263L266.605 27.1178L267.412 27.5316L268.096 26.9361L267.216 25.9263ZM283.167 41.2952C285.11 37.9571 287.693 32.9116 289.519 27.7258C291.317 22.619 292.497 17.0627 291.278 12.869L288.706 13.6169C289.671 16.9332 288.775 21.7764 286.993 26.8364C285.239 31.8174 282.739 36.7062 280.852 39.9478L283.167 41.2952ZM285.454 50.1823C285.454 46.6287 284.662 43.223 283.228 40.0677L280.79 41.1753C282.075 44.0043 282.776 47.0339 282.776 50.1823H285.454ZM247.85 80.3776C257.829 80.3776 267.19 77.0542 274.078 71.6395C280.967 66.2249 285.454 58.6514 285.454 50.1823H282.776C282.776 57.6501 278.822 64.5047 272.423 69.534C266.025 74.5631 257.253 77.6995 247.85 77.6995V80.3776ZM210.245 50.1823C210.245 58.6514 214.733 66.2249 221.621 71.6395C228.51 77.0542 237.87 80.3776 247.85 80.3776V77.6995C238.446 77.6995 229.674 74.5631 223.276 69.534C216.878 64.5047 212.924 57.6501 212.924 50.1823H210.245ZM212.153 40.7957C210.921 43.7451 210.245 46.901 210.245 50.1823H212.924C212.924 47.2743 213.521 44.4684 214.625 41.8284L212.153 40.7957ZM205.891 16.7686C204.842 20.3777 205.572 24.9733 206.912 29.3799C208.269 33.8429 210.329 38.3581 212.203 41.9337L214.575 40.6905C212.747 37.2016 210.766 32.8484 209.474 28.6009C208.166 24.297 207.642 20.3402 208.463 17.5166L205.891 16.7686ZM227.458 25.9327C222.441 21.7323 217.782 18.244 214.195 16.2894C212.429 15.3273 210.767 14.6477 209.381 14.5394C208.668 14.4837 207.912 14.5693 207.245 14.9609C206.548 15.37 206.11 16.0178 205.891 16.7686L208.463 17.5166C208.524 17.3052 208.591 17.2763 208.6 17.2706C208.64 17.2473 208.794 17.1798 209.172 17.2094C209.968 17.2716 211.215 17.7154 212.914 18.6411C216.256 20.4621 220.747 23.8065 225.739 27.9861L227.458 25.9327ZM247.85 19.9871C239.813 19.9871 232.183 22.1421 225.922 25.8034L227.274 28.1153C233.121 24.696 240.284 22.6652 247.85 22.6652V19.9871ZM267.827 24.7348C261.963 21.7271 255.071 19.9871 247.85 19.9871V22.6652C254.646 22.6652 261.119 24.3041 266.605 27.1178L267.827 24.7348ZM291.278 12.869C291.033 12.0264 290.515 11.3305 289.702 10.9433C288.945 10.5829 288.097 10.5704 287.306 10.698C285.743 10.9504 283.825 11.8486 281.746 13.0933C277.532 15.6149 272.076 19.9187 266.337 24.9165L268.096 26.9361C273.81 21.9593 279.12 17.7856 283.121 15.3913C285.148 14.1781 286.699 13.5088 287.733 13.342C288.241 13.26 288.474 13.3251 288.551 13.3615C288.571 13.3713 288.641 13.3916 288.706 13.6169L291.278 12.869Z" fill="#4344C6"/>
<path d="M279.095 35.4148L272.317 28.637C271.926 28.2455 271.877 27.6272 272.244 27.212C274.845 24.2635 280.782 19.7968 283.901 18.5209C284.445 18.298 285.011 18.6506 285.058 19.2372C285.408 23.6152 282.403 31.4953 280.859 35.0936C280.555 35.8029 279.641 35.9606 279.095 35.4148Z" fill="#D5FAFC"/>
<path d="M216.583 36.5274L222.613 30.196C222.987 29.8026 223.028 29.1953 222.656 28.7993C220.342 26.3357 215.359 23.3689 212.584 22.39C212.029 22.1942 211.464 22.5492 211.419 23.136C211.131 26.9162 213.461 33.0974 214.798 36.2212C215.107 36.9413 216.043 37.0947 216.583 36.5274Z" fill="#D5FAFC"/>
<path d="M248.177 45.7739H232.105V48.2738H248.177V45.7739Z" fill="#191D5D" stroke="#4748CE" stroke-width="2.36951" stroke-miterlimit="10" stroke-linecap="round" stroke-linejoin="round"/>
<path d="M212.084 41.6631C210.325 41.6631 208.861 43.073 208.855 44.8323C208.855 44.8442 208.855 44.856 208.855 44.8679C208.855 52.1482 215.342 58.0483 223.351 58.0483C231.354 58.0483 237.846 52.1482 237.846 44.8679C237.846 44.856 237.846 44.8442 237.846 44.8323C237.84 43.073 236.377 41.6631 234.618 41.6631H212.084Z" fill="#191D5D" stroke="#4748CE" stroke-width="2.36951" stroke-miterlimit="10" stroke-linecap="round" stroke-linejoin="round"/>
<path d="M249.236 41.6038C247.477 41.6038 246.014 43.0136 246.008 44.773C246.008 44.7848 246.008 44.7967 246.008 44.8085C246.008 52.0888 252.494 57.9889 260.503 57.9889C268.506 57.9889 274.999 52.0888 274.999 44.8085C274.999 44.7967 274.999 44.7848 274.999 44.773C274.993 43.0136 273.53 41.6038 271.77 41.6038H249.236Z" fill="#191D5D" stroke="#4748CE" stroke-width="2.36951" stroke-miterlimit="10" stroke-linecap="round" stroke-linejoin="round"/>
<path d="M232.949 46.5679C233.15 47.9067 230.467 49.8675 227.836 49.8615C225.224 49.8556 222.535 47.9126 222.724 46.5679C222.92 45.1521 225.39 45.318 227.949 45.318C229.086 45.318 232.759 45.3121 232.949 46.5679Z" fill="#CFE2E8"/>
<path d="M271.558 45.9398C271.76 47.2785 269.076 49.2393 266.446 49.2334C263.834 49.2275 261.144 47.2845 261.334 45.9398C261.529 44.524 263.999 44.6898 266.558 44.6898C267.696 44.6898 271.369 44.6839 271.558 45.9398Z" fill="#CFE2E8"/>
<path d="M246.284 55.929C246.284 57.5711 243.348 60.5163 241.711 60.5163C240.074 60.5163 237.223 57.5711 237.223 55.929C237.223 54.2868 240.074 53.7202 241.711 53.7202C243.348 53.7202 246.284 54.2868 246.284 55.929Z" fill="#4748CE"/>
<path fill-rule="evenodd" clip-rule="evenodd" d="M241.443 62.9928C241.367 62.981 241.296 63.0332 241.282 63.1091C240.842 65.4721 238.452 67.7774 235.535 68.3441C234.058 68.6311 232.453 68.4693 230.908 67.6429C229.389 66.8303 227.913 65.367 226.676 63.0242C226.64 62.9559 226.556 62.9286 226.487 62.9641L226.321 63.0498C226.253 63.0853 226.226 63.1701 226.262 63.2384C227.534 65.6478 229.07 67.1885 230.688 68.0539C232.334 68.9345 234.049 69.1075 235.624 68.8016C238.252 68.2911 240.51 66.4389 241.407 64.2961C241.458 64.1756 241.64 64.172 241.696 64.29C242.114 65.1698 242.807 65.9947 243.663 66.6948C244.919 67.721 246.549 68.4987 248.257 68.8023C249.965 69.1061 251.762 68.9369 253.337 68.0515C254.887 67.1804 256.198 65.6293 256.997 63.2111C257.021 63.1378 256.981 63.0587 256.907 63.0352L256.729 62.9786C256.656 62.9552 256.577 62.9963 256.553 63.0697C255.784 65.3932 254.541 66.8405 253.109 67.6452C251.647 68.4669 249.964 68.6325 248.338 68.3434C246.711 68.0541 245.154 67.3112 243.958 66.3339C242.806 65.3919 242.01 64.2499 241.788 63.1092C241.773 63.0334 241.702 62.981 241.626 62.9928L241.556 63.0035C241.542 63.0057 241.527 63.0057 241.513 63.0035L241.443 62.9928Z" fill="#191D5D"/>
<path d="M235.535 68.3441L235.382 67.5554L235.535 68.3441ZM230.908 67.6429L230.529 68.3513L230.908 67.6429ZM230.688 68.0539L231.067 67.3454L230.688 68.0539ZM235.624 68.8016L235.471 68.0129L235.624 68.8016ZM243.663 66.6948L244.172 66.0727L244.172 66.0727L243.663 66.6948ZM248.257 68.8023L248.397 68.0113H248.397L248.257 68.8023ZM253.337 68.0515L252.944 67.3512L253.337 68.0515ZM253.109 67.6452L252.715 66.9448V66.9448L253.109 67.6452ZM248.338 68.3434L248.479 67.5524H248.479L248.338 68.3434ZM243.958 66.3339L243.45 66.956L243.45 66.956L243.958 66.3339ZM241.556 63.0035L241.434 62.2094L241.556 63.0035ZM241.513 63.0035L241.391 63.7976L241.513 63.0035ZM241.788 63.1092L242.577 62.9557L241.788 63.1092ZM241.626 62.9928L241.504 62.1987L241.626 62.9928ZM241.407 64.2961L240.666 63.9857L241.407 64.2961ZM241.696 64.29L240.971 64.6349L241.696 64.29ZM256.997 63.2111L256.234 62.959L256.997 63.2111ZM256.907 63.0352L257.151 62.2697L256.907 63.0352ZM256.729 62.9786L256.973 62.2131L256.729 62.9786ZM256.553 63.0697L257.316 63.3221L256.553 63.0697ZM241.282 63.1091L240.492 62.9621L241.282 63.1091ZM241.443 62.9928L241.321 63.7869L241.443 62.9928ZM235.688 69.1328C238.874 68.5138 241.562 65.9951 242.072 63.2562L240.492 62.9621C240.122 64.949 238.03 67.0409 235.382 67.5554L235.688 69.1328ZM230.529 68.3513C232.248 69.2712 234.043 69.4523 235.688 69.1328L235.382 67.5554C234.072 67.8098 232.657 67.6673 231.287 66.9344L230.529 68.3513ZM225.966 63.3993C227.262 65.8536 228.841 67.4485 230.529 68.3513L231.287 66.9344C229.936 66.212 228.565 64.8804 227.387 62.649L225.966 63.3993ZM226.691 63.7633L226.856 63.6776L226.118 62.2506L225.952 62.3363L226.691 63.7633ZM231.067 67.3454C229.618 66.5703 228.186 65.1614 226.973 62.8634L225.552 63.6135C226.882 66.1343 228.522 67.8066 230.309 68.7623L231.067 67.3454ZM235.471 68.0129C234.064 68.2863 232.538 68.1326 231.067 67.3454L230.309 68.7623C232.13 69.7365 234.035 69.9288 235.777 69.5903L235.471 68.0129ZM240.666 63.9857C239.879 65.8654 237.852 67.5503 235.471 68.0129L235.777 69.5903C238.652 69.0319 241.141 67.0125 242.148 64.6064L240.666 63.9857ZM240.971 64.6349C241.45 65.6449 242.228 66.5594 243.155 67.3169L244.172 66.0727C243.386 65.43 242.778 64.6948 242.422 63.9452L240.971 64.6349ZM243.155 67.3169C244.514 68.4274 246.27 69.265 248.116 69.5933L248.397 68.0113C246.829 67.7323 245.324 67.0146 244.172 66.0727L243.155 67.3169ZM248.116 69.5933C249.966 69.9224 251.961 69.7471 253.731 68.7519L252.944 67.3512C251.564 68.1267 249.964 68.2898 248.397 68.0113L248.116 69.5933ZM253.731 68.7519C255.483 67.7674 256.908 66.04 257.76 63.4633L256.234 62.959C255.487 65.2186 254.292 66.5934 252.944 67.3512L253.731 68.7519ZM257.151 62.2697L256.973 62.2131L256.486 63.7442L256.663 63.8008L257.151 62.2697ZM255.79 62.8172C255.074 64.9821 253.945 66.2534 252.715 66.9448L253.503 68.3456C255.136 67.4277 256.494 65.8043 257.316 63.3221L255.79 62.8172ZM252.715 66.9448C251.449 67.6568 249.963 67.8162 248.479 67.5524L248.198 69.1344C249.966 69.4488 251.846 69.277 253.503 68.3456L252.715 66.9448ZM248.479 67.5524C246.991 67.2877 245.559 66.6048 244.467 65.7118L243.45 66.956C244.749 68.0176 246.432 68.8204 248.198 69.1344L248.479 67.5524ZM244.467 65.7118C243.405 64.8435 242.751 63.8529 242.577 62.9557L240.999 63.2626C241.269 64.6469 242.207 65.9402 243.45 66.956L244.467 65.7118ZM241.504 62.1987L241.434 62.2094L241.678 63.7976L241.748 63.7869L241.504 62.1987ZM241.321 63.7869L241.391 63.7976L241.636 62.2094L241.566 62.1987L241.321 63.7869ZM241.434 62.2094C241.501 62.1991 241.569 62.1991 241.636 62.2094L241.391 63.7976C241.486 63.8122 241.583 63.8122 241.678 63.7976L241.434 62.2094ZM242.577 62.9557C242.483 62.476 242.026 62.1183 241.504 62.1987L241.748 63.7869C241.379 63.8437 241.063 63.5907 240.999 63.2626L242.577 62.9557ZM242.148 64.6064C242.029 64.8909 241.765 65.0028 241.566 65.0069C241.367 65.0109 241.102 64.9106 240.971 64.6349L242.422 63.9452C242.235 63.5515 241.85 63.3939 241.533 63.4003C241.216 63.4068 240.836 63.5807 240.666 63.9857L242.148 64.6064ZM225.952 62.3363C225.488 62.5767 225.307 63.1501 225.552 63.6135L226.973 62.8634C227.145 63.1902 227.018 63.5939 226.691 63.7633L225.952 62.3363ZM227.387 62.649C227.148 62.1977 226.585 62.0086 226.118 62.2506L226.856 63.6776C226.526 63.8486 226.132 63.7141 225.966 63.3993L227.387 62.649ZM257.76 63.4633C257.925 62.9635 257.649 62.4282 257.151 62.2697L256.663 63.8008C256.313 63.6891 256.117 63.3121 256.234 62.959L257.76 63.4633ZM256.973 62.2131C256.471 62.0531 255.95 62.3351 255.79 62.8172L257.316 63.3221C257.205 63.6576 256.84 63.8572 256.486 63.7442L256.973 62.2131ZM242.072 63.2562C242.009 63.5924 241.688 63.8433 241.321 63.7869L241.566 62.1987C241.046 62.1187 240.583 62.4741 240.492 62.9621L242.072 63.2562Z" fill="#191D5D"/>
<path d="M262.933 30.2658C261.981 24.4308 263.548 10.5744 277.438 1.8291" stroke="#4344C6" stroke-width="1.71477" stroke-linecap="round"/>
<path d="M257.215 29.7661C256.024 26.027 254.357 16.9053 257.215 10.332" stroke="#4344C6" stroke-width="1.71477" stroke-linecap="round"/>
<path d="M228.145 31.4655C229.002 26.3446 227.592 14.1839 215.09 6.50879" stroke="#4344C6" stroke-width="1.71477" stroke-linecap="round"/>
<path d="M233.809 31.4654C234.986 28.1642 236.634 20.111 233.809 14.3076" stroke="#4344C6" stroke-width="1.71477" stroke-linecap="round"/>
<path d="M274.363 56.4219C281.824 52.0628 291.473 47.3672 307.898 55.0832" stroke="#4344C6" stroke-width="1.71477" stroke-linecap="round"/>
<path d="M276.702 59.4597C281.407 58.21 289.741 58.1536 296.199 63.4409" stroke="#4344C6" stroke-width="1.71477" stroke-linecap="round"/>
<path d="M217.43 59.9315C212.75 57.2981 203.782 58.3717 199.492 61.8813" stroke="#4344C6" stroke-width="1.71477" stroke-linecap="round"/>
<path d="M215.481 62.6611C213.222 61.4115 209.611 63.2231 206.512 68.5104" stroke="#4344C6" stroke-width="1.71477" stroke-linecap="round"/>
</svg>
