<svg width="188" height="102" viewBox="0 0 188 102" fill="none" xmlns="http://www.w3.org/2000/svg">
<path fill-rule="evenodd" clip-rule="evenodd" d="M365 57.4608L339.875 69.854C314.75 82.2473 264.5 107.034 214.25 100.837C164 94.6405 113.75 57.4608 63.5 35.7726C13.25 14.0844 -37 7.88779 -87.25 17.1827C-137.5 26.4777 -187.75 51.2641 -212.875 63.6574L-238 76.0506V169H-212.875C-187.75 169 -137.5 169 -87.25 169C-37 169 13.25 169 63.5 169C113.75 169 164 169 214.25 169C264.5 169 314.75 169 339.875 169H365V57.4608Z" fill="#828CFC"/>
<path d="M34.6509 88.4585C33.9518 85.8952 34.4063 84.4853 35.082 83.7629C35.5658 83.2456 36.3302 83.186 37.0386 83.186H96.6025C100.913 83.186 103.662 89.8517 105.279 96.0835C106.294 99.9967 103.168 103.617 99.1258 103.617H43.5481C39.2642 103.617 37.6166 100.322 37.2871 99.333L34.6509 88.4585Z" fill="#191D5D" stroke="#191D5D" stroke-width="1.97718"/>
<path d="M47.9961 92.4797C59.3396 92.4797 70.6831 92.4797 82.0265 92.4797H47.9961Z" fill="#BEDCFC"/>
<path d="M47.9961 92.4797C59.3396 92.4797 70.6831 92.4797 82.0265 92.4797" stroke="#828CFC" stroke-width="1.97718" stroke-miterlimit="10" stroke-linecap="round" stroke-linejoin="round"/>
<path d="M44.3438 88.6552C55.6872 88.6552 67.0307 88.6552 78.3742 88.6552H44.3438Z" fill="#BEDCFC"/>
<path d="M44.3438 88.6552C55.6872 88.6552 67.0307 88.6552 78.3742 88.6552" stroke="#828CFC" stroke-width="1.97718" stroke-miterlimit="10" stroke-linecap="round" stroke-linejoin="round"/>
<path d="M79.3631 100.139H58.8437C57.8825 100.139 57.1016 99.3579 57.1016 98.3968V97.4657C57.1016 96.5045 57.8825 95.7236 58.8437 95.7236H79.3631C80.3242 95.7236 81.1051 96.5045 81.1051 97.4657V98.3968C81.1051 99.3579 80.3242 100.139 79.3631 100.139Z" fill="#BEDCFC" stroke="#828CFC" stroke-width="1.97718" stroke-miterlimit="10" stroke-linecap="round" stroke-linejoin="round"/>
<path d="M93.4168 83.6343H39.0722C35.7182 83.6343 33 80.916 33 77.562V46.6703C33 43.3163 35.7182 40.5981 39.0722 40.5981H93.4168C96.7708 40.5981 99.489 43.3163 99.489 46.6703V77.562C99.489 80.916 96.7708 83.6343 93.4168 83.6343Z" fill="#191D5D" stroke="#191D5D" stroke-width="1.97718" stroke-miterlimit="10" stroke-linecap="round" stroke-linejoin="round"/>
<path d="M88.056 79.6092H44.374C40.9099 79.6092 38.1016 76.8009 38.1016 73.3368V50.7399C38.1016 47.2758 40.9099 44.4675 44.374 44.4675H88.056C91.5201 44.4675 94.3284 47.2758 94.3284 50.7399V73.3368C94.3284 76.8009 91.5201 79.6092 88.056 79.6092Z" fill="#D0D4FF" stroke="#4748CE" stroke-width="1.97718" stroke-miterlimit="10" stroke-linecap="round" stroke-linejoin="round"/>
<path d="M43.0123 56.4055C43.0123 56.1982 43.0851 56.0132 43.2308 55.8507C43.3765 55.6882 43.5502 55.607 43.752 55.607C43.8865 55.607 44.6458 55.8788 46.0299 56.4223C45.9851 55.6434 45.9627 55.1054 45.9627 54.8084C45.9627 54.5899 46.0328 54.4105 46.1728 54.2704C46.3185 54.1303 46.4979 54.0603 46.7108 54.0603C46.9294 54.0603 47.1087 54.1303 47.2488 54.2704C47.3945 54.4105 47.4673 54.5899 47.4673 54.8084C47.4673 55.1166 47.4842 55.5902 47.5178 56.229C48.8627 56.0273 49.6865 55.9264 49.9891 55.9264C50.1964 55.9264 50.3673 56.002 50.5018 56.1533C50.6419 56.299 50.712 56.4784 50.712 56.6913C50.712 57.0836 50.5018 57.3246 50.0816 57.4142C49.6893 57.4983 48.9972 57.5991 48.0053 57.7168C48.3303 58.0138 48.6834 58.3949 49.0644 58.86C49.5632 59.4764 49.8126 59.9051 49.8126 60.1461C49.8126 60.3478 49.7341 60.5244 49.5772 60.6757C49.4203 60.8214 49.241 60.8942 49.0392 60.8942C48.8263 60.8942 48.6329 60.7934 48.4592 60.5916C48.1174 60.1321 47.5598 59.4736 46.7865 58.6162C45.6321 59.922 44.8503 60.5748 44.4412 60.5748C44.2395 60.5748 44.0602 60.4964 43.9033 60.3394C43.752 60.1825 43.6763 60.0032 43.6763 59.8015C43.6763 59.6109 43.766 59.426 43.9453 59.2467C44.304 58.9441 44.8251 58.4593 45.5088 57.7925C45.0493 57.6468 44.3768 57.403 43.4914 57.0612C43.172 56.9211 43.0123 56.7025 43.0123 56.4055ZM52.141 56.4055C52.141 56.1982 52.2138 56.0132 52.3595 55.8507C52.5052 55.6882 52.6789 55.607 52.8807 55.607C53.0152 55.607 53.7745 55.8788 55.1587 56.4223C55.1138 55.6434 55.0914 55.1054 55.0914 54.8084C55.0914 54.5899 55.1615 54.4105 55.3016 54.2704C55.4473 54.1303 55.6266 54.0603 55.8395 54.0603C56.0581 54.0603 56.2374 54.1303 56.3775 54.2704C56.5232 54.4105 56.5961 54.5899 56.5961 54.8084C56.5961 55.1166 56.6129 55.5902 56.6465 56.229C57.9914 56.0273 58.8152 55.9264 59.1178 55.9264C59.3251 55.9264 59.4961 56.002 59.6306 56.1533C59.7707 56.299 59.8407 56.4784 59.8407 56.6913C59.8407 57.0836 59.6306 57.3246 59.2103 57.4142C58.818 57.4983 58.1259 57.5991 57.134 57.7168C57.4591 58.0138 57.8121 58.3949 58.1932 58.86C58.6919 59.4764 58.9413 59.9051 58.9413 60.1461C58.9413 60.3478 58.8628 60.5244 58.7059 60.6757C58.549 60.8214 58.3697 60.8942 58.1679 60.8942C57.955 60.8942 57.7617 60.7934 57.5879 60.5916C57.2461 60.1321 56.6885 59.4736 55.9152 58.6162C54.7608 59.922 53.979 60.5748 53.57 60.5748C53.3682 60.5748 53.1889 60.4964 53.032 60.3394C52.8807 60.1825 52.805 60.0032 52.805 59.8015C52.805 59.6109 52.8947 59.426 53.074 59.2467C53.4327 58.9441 53.9538 58.4593 54.6375 57.7925C54.178 57.6468 53.5055 57.403 52.6201 57.0612C52.3007 56.9211 52.141 56.7025 52.141 56.4055ZM61.2697 56.4055C61.2697 56.1982 61.3425 56.0132 61.4882 55.8507C61.6339 55.6882 61.8077 55.607 62.0094 55.607C62.1439 55.607 62.9032 55.8788 64.2874 56.4223C64.2425 55.6434 64.2201 55.1054 64.2201 54.8084C64.2201 54.5899 64.2902 54.4105 64.4303 54.2704C64.576 54.1303 64.7553 54.0603 64.9683 54.0603C65.1868 54.0603 65.3661 54.1303 65.5062 54.2704C65.6519 54.4105 65.7248 54.5899 65.7248 54.8084C65.7248 55.1166 65.7416 55.5902 65.7752 56.229C67.1201 56.0273 67.9439 55.9264 68.2465 55.9264C68.4539 55.9264 68.6248 56.002 68.7593 56.1533C68.8994 56.299 68.9694 56.4784 68.9694 56.6913C68.9694 57.0836 68.7593 57.3246 68.339 57.4142C67.9467 57.4983 67.2546 57.5991 66.2627 57.7168C66.5878 58.0138 66.9408 58.3949 67.3219 58.86C67.8206 59.4764 68.07 59.9051 68.07 60.1461C68.07 60.3478 67.9915 60.5244 67.8346 60.6757C67.6777 60.8214 67.4984 60.8942 67.2967 60.8942C67.0837 60.8942 66.8904 60.7934 66.7167 60.5916C66.3748 60.1321 65.8172 59.4736 65.0439 58.6162C63.8895 59.922 63.1078 60.5748 62.6987 60.5748C62.4969 60.5748 62.3176 60.4964 62.1607 60.3394C62.0094 60.1825 61.9338 60.0032 61.9338 59.8015C61.9338 59.6109 62.0234 59.426 62.2027 59.2467C62.5614 58.9441 63.0825 58.4593 63.7662 57.7925C63.3067 57.6468 62.6342 57.403 61.7488 57.0612C61.4294 56.9211 61.2697 56.7025 61.2697 56.4055ZM70.3984 56.4055C70.3984 56.1982 70.4713 56.0132 70.617 55.8507C70.7627 55.6882 70.9364 55.607 71.1381 55.607C71.2726 55.607 72.0319 55.8788 73.4161 56.4223C73.3713 55.6434 73.3488 55.1054 73.3488 54.8084C73.3488 54.5899 73.4189 54.4105 73.559 54.2704C73.7047 54.1303 73.884 54.0603 74.097 54.0603C74.3155 54.0603 74.4948 54.1303 74.6349 54.2704C74.7806 54.4105 74.8535 54.5899 74.8535 54.8084C74.8535 55.1166 74.8703 55.5902 74.9039 56.229C76.2489 56.0273 77.0726 55.9264 77.3752 55.9264C77.5826 55.9264 77.7535 56.002 77.888 56.1533C78.0281 56.299 78.0981 56.4784 78.0981 56.6913C78.0981 57.0836 77.888 57.3246 77.4677 57.4142C77.0754 57.4983 76.3833 57.5991 75.3915 57.7168C75.7165 58.0138 76.0695 58.3949 76.4506 58.86C76.9493 59.4764 77.1987 59.9051 77.1987 60.1461C77.1987 60.3478 77.1203 60.5244 76.9633 60.6757C76.8064 60.8214 76.6271 60.8942 76.4254 60.8942C76.2124 60.8942 76.0191 60.7934 75.8454 60.5916C75.5035 60.1321 74.946 59.4736 74.1726 58.6162C73.0182 59.922 72.2365 60.5748 71.8274 60.5748C71.6257 60.5748 71.4463 60.4964 71.2894 60.3394C71.1381 60.1825 71.0625 60.0032 71.0625 59.8015C71.0625 59.6109 71.1521 59.426 71.3315 59.2467C71.6901 58.9441 72.2113 58.4593 72.8949 57.7925C72.4354 57.6468 71.763 57.403 70.8775 57.0612C70.5581 56.9211 70.3984 56.7025 70.3984 56.4055ZM79.5271 56.4055C79.5271 56.1982 79.6 56.0132 79.7457 55.8507C79.8914 55.6882 80.0651 55.607 80.2668 55.607C80.4013 55.607 81.1607 55.8788 82.5448 56.4223C82.5 55.6434 82.4776 55.1054 82.4776 54.8084C82.4776 54.5899 82.5476 54.4105 82.6877 54.2704C82.8334 54.1303 83.0127 54.0603 83.2257 54.0603C83.4442 54.0603 83.6236 54.1303 83.7637 54.2704C83.9094 54.4105 83.9822 54.5899 83.9822 54.8084C83.9822 55.1166 83.999 55.5902 84.0326 56.229C85.3776 56.0273 86.2013 55.9264 86.504 55.9264C86.7113 55.9264 86.8822 56.002 87.0167 56.1533C87.1568 56.299 87.2269 56.4784 87.2269 56.6913C87.2269 57.0836 87.0167 57.3246 86.5964 57.4142C86.2041 57.4983 85.5121 57.5991 84.5202 57.7168C84.8452 58.0138 85.1982 58.3949 85.5793 58.86C86.0781 59.4764 86.3274 59.9051 86.3274 60.1461C86.3274 60.3478 86.249 60.5244 86.0921 60.6757C85.9352 60.8214 85.7558 60.8942 85.5541 60.8942C85.3411 60.8942 85.1478 60.7934 84.9741 60.5916C84.6323 60.1321 84.0747 59.4736 83.3013 58.6162C82.1469 59.922 81.3652 60.5748 80.9561 60.5748C80.7544 60.5748 80.575 60.4964 80.4181 60.3394C80.2668 60.1825 80.1912 60.0032 80.1912 59.8015C80.1912 59.6109 80.2808 59.426 80.4602 59.2467C80.8188 58.9441 81.34 58.4593 82.0237 57.7925C81.5641 57.6468 80.8917 57.403 80.0063 57.0612C79.6868 56.9211 79.5271 56.7025 79.5271 56.4055Z" fill="#4748CE"/>
<path d="M44.7221 66.1358C44.7221 65.9803 44.7767 65.8416 44.886 65.7197C44.9953 65.5978 45.1256 65.5369 45.2769 65.5369C45.3777 65.5369 45.9472 65.7407 46.9854 66.1484C46.9517 65.5642 46.9349 65.1607 46.9349 64.938C46.9349 64.774 46.9875 64.6395 47.0925 64.5345C47.2018 64.4294 47.3363 64.3769 47.496 64.3769C47.6599 64.3769 47.7944 64.4294 47.8995 64.5345C48.0088 64.6395 48.0634 64.774 48.0634 64.938C48.0634 65.1691 48.076 65.5243 48.1012 66.0034C49.1099 65.8521 49.7278 65.7764 49.9547 65.7764C50.1102 65.7764 50.2384 65.8332 50.3393 65.9466C50.4444 66.0559 50.4969 66.1904 50.4969 66.3501C50.4969 66.6443 50.3393 66.8251 50.0241 66.8923C49.7299 66.9553 49.2108 67.031 48.4669 67.1193C48.7107 67.342 48.9754 67.6278 49.2612 67.9767C49.6353 68.439 49.8223 68.7605 49.8223 68.9412C49.8223 69.0925 49.7635 69.2249 49.6458 69.3384C49.5281 69.4477 49.3936 69.5023 49.2423 69.5023C49.0826 69.5023 48.9376 69.4267 48.8073 69.2754C48.5509 68.9307 48.1327 68.4369 47.5527 67.7938C46.6869 68.7731 46.1006 69.2627 45.7938 69.2627C45.6425 69.2627 45.508 69.2039 45.3903 69.0862C45.2769 68.9685 45.2201 68.8341 45.2201 68.6827C45.2201 68.5398 45.2874 68.4012 45.4219 68.2667C45.6909 68.0397 46.0817 67.6761 46.5945 67.176C46.2498 67.0667 45.7455 66.8839 45.0814 66.6275C44.8419 66.5224 44.7221 66.3585 44.7221 66.1358ZM51.5686 66.1358C51.5686 65.9803 51.6233 65.8416 51.7325 65.7197C51.8418 65.5978 51.9721 65.5369 52.1234 65.5369C52.2243 65.5369 52.7938 65.7407 53.8319 66.1484C53.7983 65.5642 53.7815 65.1607 53.7815 64.938C53.7815 64.774 53.834 64.6395 53.9391 64.5345C54.0483 64.4294 54.1828 64.3769 54.3426 64.3769C54.5065 64.3769 54.641 64.4294 54.746 64.5345C54.8553 64.6395 54.9099 64.774 54.9099 64.938C54.9099 65.1691 54.9226 65.5243 54.9478 66.0034C55.9565 65.8521 56.5743 65.7764 56.8013 65.7764C56.9568 65.7764 57.085 65.8332 57.1858 65.9466C57.2909 66.0559 57.3434 66.1904 57.3434 66.3501C57.3434 66.6443 57.1858 66.8251 56.8706 66.8923C56.5764 66.9553 56.0573 67.031 55.3134 67.1193C55.5572 67.342 55.822 67.6278 56.1078 67.9767C56.4818 68.439 56.6689 68.7605 56.6689 68.9412C56.6689 69.0925 56.61 69.2249 56.4923 69.3384C56.3747 69.4477 56.2402 69.5023 56.0889 69.5023C55.9292 69.5023 55.7842 69.4267 55.6539 69.2754C55.3975 68.9307 54.9793 68.4369 54.3993 67.7938C53.5335 68.7731 52.9472 69.2627 52.6404 69.2627C52.4891 69.2627 52.3546 69.2039 52.2369 69.0862C52.1234 68.9685 52.0667 68.8341 52.0667 68.6827C52.0667 68.5398 52.1339 68.4012 52.2684 68.2667C52.5374 68.0397 52.9283 67.6761 53.441 67.176C53.0964 67.0667 52.592 66.8839 51.928 66.6275C51.6884 66.5224 51.5686 66.3585 51.5686 66.1358ZM58.4152 66.1358C58.4152 65.9803 58.4698 65.8416 58.5791 65.7197C58.6884 65.5978 58.8187 65.5369 58.97 65.5369C59.0708 65.5369 59.6403 65.7407 60.6784 66.1484C60.6448 65.5642 60.628 65.1607 60.628 64.938C60.628 64.774 60.6805 64.6395 60.7856 64.5345C60.8949 64.4294 61.0294 64.3769 61.1891 64.3769C61.353 64.3769 61.4875 64.4294 61.5926 64.5345C61.7019 64.6395 61.7565 64.774 61.7565 64.938C61.7565 65.1691 61.7691 65.5243 61.7943 66.0034C62.803 65.8521 63.4208 65.7764 63.6478 65.7764C63.8033 65.7764 63.9315 65.8332 64.0324 65.9466C64.1374 66.0559 64.19 66.1904 64.19 66.3501C64.19 66.6443 64.0324 66.8251 63.7171 66.8923C63.4229 66.9553 62.9039 67.031 62.16 67.1193C62.4037 67.342 62.6685 67.6278 62.9543 67.9767C63.3284 68.439 63.5154 68.7605 63.5154 68.9412C63.5154 69.0925 63.4566 69.2249 63.3389 69.3384C63.2212 69.4477 63.0867 69.5023 62.9354 69.5023C62.7757 69.5023 62.6307 69.4267 62.5004 69.2754C62.244 68.9307 61.8258 68.4369 61.2458 67.7938C60.38 68.7731 59.7937 69.2627 59.4869 69.2627C59.3356 69.2627 59.2011 69.2039 59.0834 69.0862C58.97 68.9685 58.9132 68.8341 58.9132 68.6827C58.9132 68.5398 58.9805 68.4012 59.115 68.2667C59.3839 68.0397 59.7748 67.6761 60.2876 67.176C59.9429 67.0667 59.4386 66.8839 58.7745 66.6275C58.535 66.5224 58.4152 66.3585 58.4152 66.1358ZM65.2617 66.1358C65.2617 65.9803 65.3164 65.8416 65.4256 65.7197C65.5349 65.5978 65.6652 65.5369 65.8165 65.5369C65.9174 65.5369 66.4869 65.7407 67.525 66.1484C67.4914 65.5642 67.4746 65.1607 67.4746 64.938C67.4746 64.774 67.5271 64.6395 67.6322 64.5345C67.7414 64.4294 67.8759 64.3769 68.0356 64.3769C68.1996 64.3769 68.334 64.4294 68.4391 64.5345C68.5484 64.6395 68.603 64.774 68.603 64.938C68.603 65.1691 68.6156 65.5243 68.6409 66.0034C69.6496 65.8521 70.2674 65.7764 70.4943 65.7764C70.6499 65.7764 70.778 65.8332 70.8789 65.9466C70.984 66.0559 71.0365 66.1904 71.0365 66.3501C71.0365 66.6443 70.8789 66.8251 70.5637 66.8923C70.2695 66.9553 69.7504 67.031 69.0065 67.1193C69.2503 67.342 69.5151 67.6278 69.8009 67.9767C70.1749 68.439 70.362 68.7605 70.362 68.9412C70.362 69.0925 70.3031 69.2249 70.1854 69.3384C70.0677 69.4477 69.9333 69.5023 69.782 69.5023C69.6222 69.5023 69.4772 69.4267 69.347 69.2754C69.0906 68.9307 68.6724 68.4369 68.0924 67.7938C67.2266 68.7731 66.6403 69.2627 66.3335 69.2627C66.1822 69.2627 66.0477 69.2039 65.93 69.0862C65.8165 68.9685 65.7598 68.8341 65.7598 68.6827C65.7598 68.5398 65.827 68.4012 65.9615 68.2667C66.2305 68.0397 66.6214 67.6761 67.1341 67.176C66.7895 67.0667 66.2851 66.8839 65.6211 66.6275C65.3815 66.5224 65.2617 66.3585 65.2617 66.1358ZM72.1083 66.1358C72.1083 65.9803 72.1629 65.8416 72.2722 65.7197C72.3815 65.5978 72.5117 65.5369 72.663 65.5369C72.7639 65.5369 73.3334 65.7407 74.3715 66.1484C74.3379 65.5642 74.3211 65.1607 74.3211 64.938C74.3211 64.774 74.3736 64.6395 74.4787 64.5345C74.588 64.4294 74.7225 64.3769 74.8822 64.3769C75.0461 64.3769 75.1806 64.4294 75.2857 64.5345C75.3949 64.6395 75.4496 64.774 75.4496 64.938C75.4496 65.1691 75.4622 65.5243 75.4874 66.0034C76.4961 65.8521 77.1139 65.7764 77.3409 65.7764C77.4964 65.7764 77.6246 65.8332 77.7255 65.9466C77.8305 66.0559 77.8831 66.1904 77.8831 66.3501C77.8831 66.6443 77.7255 66.8251 77.4102 66.8923C77.116 66.9553 76.597 67.031 75.8531 67.1193C76.0968 67.342 76.3616 67.6278 76.6474 67.9767C77.0215 68.439 77.2085 68.7605 77.2085 68.9412C77.2085 69.0925 77.1497 69.2249 77.032 69.3384C76.9143 69.4477 76.7798 69.5023 76.6285 69.5023C76.4688 69.5023 76.3238 69.4267 76.1935 69.2754C75.9371 68.9307 75.5189 68.4369 74.9389 67.7938C74.0731 68.7731 73.4868 69.2627 73.18 69.2627C73.0287 69.2627 72.8942 69.2039 72.7765 69.0862C72.663 68.9685 72.6063 68.8341 72.6063 68.6827C72.6063 68.5398 72.6736 68.4012 72.808 68.2667C73.077 68.0397 73.4679 67.6761 73.9807 67.176C73.636 67.0667 73.1317 66.8839 72.4676 66.6275C72.228 66.5224 72.1083 66.3585 72.1083 66.1358Z" fill="#4748CE"/>
<path d="M86.0262 101.754C84.3219 101.754 82.2647 100.952 81.7705 99.1871C81.6697 98.8291 81.6344 98.461 81.6647 98.093C80.4798 97.6845 79.6125 96.8425 79.3049 95.7332C79.1486 95.1736 79.1486 94.5887 79.3049 94.0139C79.0326 93.5853 78.8713 93.1315 78.831 92.6575C78.6948 91.0289 79.8999 89.5767 80.273 89.1683C80.6915 88.7145 81.5285 87.9481 82.426 87.9481C82.5319 87.9481 82.6277 87.9582 82.7235 87.9784C83.5 88.1347 84.4782 88.2103 85.6379 88.2103C88.2598 88.2103 91.1288 87.8069 92.2834 87.5901C94.976 87.091 97.1844 86.138 101.122 82.5329C107.349 76.8352 108.837 74.3545 109.926 72.5443C110.425 71.7073 110.899 70.9208 111.691 70.0333C111.882 69.8165 112.155 69.6955 112.447 69.6955C112.457 69.6955 112.462 69.6955 112.472 69.6955C112.77 69.7005 113.047 69.8417 113.234 70.0737L121.165 79.9412C121.488 80.3445 121.457 80.9244 121.094 81.2874C119.718 82.6639 118.291 84.3178 116.783 86.0674C113.43 89.9549 109.966 93.9735 106.326 95.7937C100.643 98.6325 95.6213 99.0611 93.4734 99.2476L93.1759 99.2728C91.7036 99.4039 90.2212 99.9636 88.88 100.891C88.3909 101.229 87.8565 101.476 87.2917 101.612C86.8833 101.703 86.4598 101.754 86.0262 101.754Z" fill="#BEDCFC"/>
<path d="M112.441 70.7039L120.372 80.5715C115.925 85.0186 110.918 92.36 105.866 94.8862C100.063 97.7905 94.9044 98.098 93.0741 98.2644C91.3447 98.4207 89.7211 99.0712 88.2942 100.059C87.9463 100.301 87.5278 100.508 87.0387 100.629C86.716 100.71 86.3731 100.745 86.0252 100.745C84.5781 100.745 83.0705 100.08 82.7427 98.9149C82.5965 98.3854 82.662 97.8409 82.8839 97.3316C81.6082 97.2055 80.5645 96.5148 80.2721 95.466C80.1208 94.9265 80.1914 94.3668 80.4334 93.8424C80.1661 93.5449 79.8788 93.1113 79.8334 92.5768C79.7023 90.9986 81.5276 88.9616 82.4251 88.9616C82.4604 88.9616 82.4956 88.9667 82.5259 88.9717C83.4436 89.1532 84.5226 89.2238 85.6369 89.2238C88.4353 89.2238 91.4203 88.7801 92.469 88.5885C95.5397 88.0187 97.9196 86.8338 101.802 83.2841C110.893 74.9595 110.041 73.4116 112.441 70.7039ZM112.441 68.6871C111.866 68.6871 111.317 68.9342 110.933 69.3678C110.081 70.3258 109.587 71.1527 109.058 72.03C107.943 73.8855 106.557 76.1948 100.441 81.7917C96.6793 85.2304 94.6069 86.138 92.101 86.6019C90.9766 86.8086 88.1832 87.2019 85.6369 87.2019C84.5478 87.2019 83.6352 87.1313 82.9242 86.9902C82.7629 86.9599 82.5965 86.9397 82.4301 86.9397C81.2099 86.9397 80.1864 87.7767 79.5359 88.4826C79.0922 88.9667 77.6552 90.7012 77.8266 92.7382C77.867 93.2273 78.0081 93.7114 78.2401 94.1702C78.1392 94.7853 78.1695 95.4005 78.3359 96.0005C78.6737 97.2157 79.5158 98.1837 80.6704 98.7636C80.6956 98.9955 80.736 99.2275 80.8015 99.4544C81.3461 101.401 83.494 102.762 86.0252 102.762C86.5395 102.762 87.0437 102.702 87.5176 102.586C88.2034 102.419 88.8487 102.127 89.4387 101.713C90.6337 100.881 91.9547 100.382 93.2506 100.266L93.5481 100.241C95.7515 100.054 100.91 99.6107 106.764 96.6862C110.586 94.7752 114.115 90.681 117.534 86.7179C119.031 84.9834 120.443 83.3447 121.794 81.9934C122.52 81.2673 122.586 80.1076 121.941 79.3059L114.009 69.4384C113.636 68.9745 113.081 68.7022 112.486 68.6871C112.476 68.6871 112.456 68.6871 112.441 68.6871Z" fill="#4748CE"/>
<path d="M79.9922 93.7869C80.2695 93.444 81.1116 92.5012 82.4578 92.3045C82.8259 92.2491 83.1638 92.2642 83.4461 92.3045" fill="#BEDCFC"/>
<path d="M79.9922 93.7869C80.2695 93.444 81.1116 92.5012 82.4578 92.3045C82.8259 92.2491 83.1638 92.2642 83.4461 92.3045" stroke="#4748CE" stroke-width="2.06063" stroke-miterlimit="10" stroke-linecap="round" stroke-linejoin="round"/>
<path d="M82.4805 97.4525C82.7175 97.1601 83.4335 96.3533 84.5831 96.1869C84.9007 96.1415 85.1831 96.1516 85.4251 96.1869" fill="#BEDCFC"/>
<path d="M82.4805 97.4525C82.7175 97.1601 83.4335 96.3533 84.5831 96.1869C84.9007 96.1415 85.1831 96.1516 85.4251 96.1869" stroke="#4748CE" stroke-width="2.06063" stroke-miterlimit="10" stroke-linecap="round" stroke-linejoin="round"/>
<path d="M95.9297 108.95C97.1411 102.287 99.0534 95.7688 101.621 89.5715C104.635 82.2878 112.645 62.9498 120.834 62.3391C120.969 62.3291 121.105 62.3241 121.24 62.3241C129.525 62.3241 140.082 81.3617 147.661 109.841L95.9297 108.95Z" fill="#BEDCFC"/>
<path d="M121.239 63.3253C124.933 63.3253 129.473 67.8707 134.014 76.1205C138.489 84.2551 142.734 95.5185 146.344 108.814L97.13 107.968C98.3365 101.776 100.149 95.7288 102.541 89.9519C104.203 85.9371 106.987 79.2141 110.406 73.4773C115.232 65.3827 118.781 63.4905 120.903 63.3353C121.018 63.3303 121.129 63.3253 121.239 63.3253ZM121.239 61.3229C121.078 61.3229 120.918 61.3279 120.758 61.3429C111.953 62.0037 104.068 81.0413 100.694 89.191C97.3253 97.3307 95.6433 104.599 94.7422 109.936C112.819 110.246 130.89 110.556 148.967 110.867C141.373 81.7021 130.61 61.3229 121.239 61.3229Z" fill="#4748CE"/>
<path d="M124.273 60.4487C130.205 60.7782 139.99 70.3346 142.914 74.6237C142.989 74.7339 143.099 74.894 143.24 75.1043C144.381 76.8063 151.374 87.2737 148.045 98.1016C147.525 99.7936 146.889 101.871 145.247 103.788C140.336 109.54 129.734 105.886 120.047 103.763C119.356 104.024 118.615 104.174 117.834 104.174H117.284C113.85 104.174 111.066 101.391 111.066 97.9565V95.0029C111.066 91.5688 113.85 88.7855 117.284 88.7855H117.834C118.721 88.7855 119.556 88.9708 120.317 89.3012C120.603 85.4366 121.629 82.5682 122.85 82.5682C124.292 82.5682 125.464 86.5529 125.464 91.4637C125.464 91.9944 125.448 92.52 125.423 93.0256C128.228 95.3789 131.523 95.3789 133.83 95.3789C135.477 95.3789 136.136 93.0256 136.136 91.4637C136.136 88.7855 134.818 86.4816 134.818 86.152" fill="#BEDCFC"/>
<path d="M124.273 60.4487C130.205 60.7782 139.99 70.3346 142.914 74.6237C142.989 74.7339 143.099 74.894 143.24 75.1043C144.381 76.8063 151.374 87.2737 148.045 98.1016C147.525 99.7936 146.889 101.871 145.247 103.788C140.336 109.54 129.734 105.886 120.047 103.763C119.356 104.024 118.615 104.174 117.834 104.174H117.284C113.85 104.174 111.066 101.391 111.066 97.9564V95.0029C111.066 91.5688 113.85 88.7855 117.284 88.7855H117.834C118.721 88.7855 119.556 88.9708 120.317 89.3012C120.603 85.4366 121.629 82.5682 122.85 82.5682C124.292 82.5682 125.464 86.5529 125.464 91.4637C125.464 91.9944 125.448 92.52 125.423 93.0256C128.228 95.3789 131.523 95.3789 133.83 95.3789C135.477 95.3789 136.136 93.0256 136.136 91.4637C136.136 88.7855 134.818 86.4816 134.818 86.152" stroke="#4748CE" stroke-width="2.26319" stroke-miterlimit="10" stroke-linecap="round" stroke-linejoin="round"/>
<path d="M112.094 93.101C112.384 93.3964 112.97 93.912 113.871 94.2023C115.117 94.6078 116.184 94.3275 116.574 94.2023" fill="#BEDCFC"/>
<path d="M112.094 93.101C112.384 93.3964 112.97 93.912 113.871 94.2023C115.117 94.6078 116.184 94.3275 116.574 94.2023" stroke="#4748CE" stroke-width="1.97718" stroke-miterlimit="10" stroke-linecap="round" stroke-linejoin="round"/>
<path d="M111.684 97.3258C111.974 97.6212 112.56 98.1368 113.461 98.4271C114.707 98.8326 115.773 98.5523 116.169 98.4271" fill="#BEDCFC"/>
<path d="M111.684 97.3258C111.974 97.6212 112.56 98.1368 113.461 98.4271C114.707 98.8326 115.773 98.5523 116.169 98.4271" stroke="#4748CE" stroke-width="1.97718" stroke-miterlimit="10" stroke-linecap="round" stroke-linejoin="round"/>
<path fill-rule="evenodd" clip-rule="evenodd" d="M158.902 11.3549C160.747 17.7017 155.392 28.9326 152.155 34.4925C153.303 37.0207 153.934 39.7394 153.934 42.5708C153.934 56.0384 139.667 66.956 123.288 66.956C106.908 66.956 92.6414 56.0384 92.6414 42.5708C92.6414 39.9572 93.1787 37.4397 94.1645 35.0794C91.0352 29.1096 87.3312 20.0875 88.9126 14.6501C89.8585 11.3975 96.8682 15.8649 105.327 22.9474C110.443 19.9548 116.694 18.1855 123.288 18.1855C129.211 18.1855 134.859 19.6134 139.655 22.0734C149.333 13.6441 157.852 7.7452 158.902 11.3549Z" fill="#BEDCFC"/>
<path d="M152.155 34.4925L151.177 33.9231L150.883 34.4282L151.125 34.9604L152.155 34.4925ZM158.902 11.3549L159.988 11.0389L159.988 11.0389L158.902 11.3549ZM94.1645 35.0794L95.2087 35.5155L95.4135 35.0249L95.1667 34.5541L94.1645 35.0794ZM88.9126 14.6501L89.9992 14.9661L88.9126 14.6501ZM105.327 22.9474L104.6 23.815L105.211 24.3262L105.898 23.9242L105.327 22.9474ZM139.655 22.0734L139.138 23.0803L139.82 23.43L140.398 22.9267L139.655 22.0734ZM153.133 35.0618C154.775 32.241 156.959 27.9772 158.502 23.5946C160.021 19.2788 161.019 14.583 159.988 11.0389L157.815 11.6709C158.63 14.4736 157.873 18.5667 156.367 22.8429C154.885 27.0525 152.772 31.184 151.177 33.9231L153.133 35.0618ZM155.066 42.5708C155.066 39.5682 154.396 36.6906 153.186 34.0245L151.125 34.9604C152.211 37.3508 152.802 39.9105 152.802 42.5708H155.066ZM123.288 68.0876C131.721 68.0876 139.631 65.2792 145.453 60.7034C151.274 56.1277 155.066 49.7276 155.066 42.5708H152.802C152.802 48.8815 149.461 54.674 144.054 58.9241C138.647 63.174 131.234 65.8244 123.288 65.8244V68.0876ZM91.5098 42.5708C91.5098 49.7276 95.3017 56.1277 101.123 60.7034C106.944 65.2792 114.855 68.0876 123.288 68.0876V65.8244C115.341 65.8244 107.928 63.174 102.522 58.9241C97.1146 54.674 93.773 48.8815 93.773 42.5708H91.5098ZM93.1203 34.6433C92.08 37.1343 91.5098 39.7996 91.5098 42.5708H93.773C93.773 40.1149 94.2775 37.7452 95.2087 35.5155L93.1203 34.6433ZM87.826 14.3341C86.9388 17.3847 87.5567 21.2695 88.6894 24.9943C89.8366 28.7668 91.5784 32.5832 93.1622 35.6048L95.1667 34.5541C93.6213 31.6058 91.9465 27.9262 90.8547 24.3359C89.7484 20.6978 89.305 17.3529 89.9992 14.9661L87.826 14.3341ZM106.053 22.0798C101.813 18.5298 97.8753 15.5815 94.8439 13.9295C93.3517 13.1163 91.947 12.5419 90.7751 12.4503C90.1728 12.4032 89.5337 12.4755 88.9698 12.8063C88.3806 13.1521 88.0106 13.6995 87.826 14.3341L89.9992 14.9661C90.0511 14.7875 90.107 14.7631 90.1152 14.7583C90.1489 14.7385 90.2786 14.6815 90.5987 14.7066C91.2714 14.7591 92.3252 15.1344 93.7609 15.9168C96.5854 17.4559 100.381 20.2826 104.6 23.815L106.053 22.0798ZM123.288 17.0539C116.495 17.0539 110.046 18.8757 104.755 21.9706L105.898 23.9242C110.839 21.0339 116.893 19.3171 123.288 19.3171V17.0539ZM140.171 21.0665C135.215 18.5245 129.391 17.0539 123.288 17.0539V19.3171C129.032 19.3171 134.502 20.7023 139.138 23.0803L140.171 21.0665ZM159.988 11.0389C159.781 10.3268 159.344 9.73876 158.656 9.41162C158.016 9.10699 157.3 9.09649 156.632 9.20432C155.311 9.41757 153.69 10.1767 151.933 11.2285C148.372 13.3595 143.761 16.9965 138.911 21.2201L140.398 22.9267C145.227 18.721 149.714 15.1939 153.095 13.1705C154.808 12.1452 156.119 11.5796 156.993 11.4386C157.422 11.3693 157.619 11.4243 157.684 11.4551C157.701 11.4634 157.76 11.4806 157.815 11.6709L159.988 11.0389Z" fill="#4344C6"/>
<path d="M149.685 30.0913L143.958 24.3636C143.627 24.0328 143.586 23.5103 143.895 23.1594C146.093 20.6677 151.111 16.8931 153.746 15.8149C154.206 15.6266 154.684 15.9245 154.724 16.4202C155.02 20.1199 152.48 26.779 151.176 29.8199C150.918 30.4193 150.146 30.5525 149.685 30.0913Z" fill="#D5FAFC"/>
<path d="M96.86 31.0316L101.956 25.6812C102.272 25.3487 102.306 24.8356 101.992 24.5009C100.036 22.419 95.8256 19.9119 93.4805 19.0846C93.0116 18.9192 92.5342 19.2192 92.4964 19.7151C92.2527 22.9096 94.2215 28.133 95.3519 30.7728C95.6125 31.3814 96.4034 31.511 96.86 31.0316Z" fill="#D5FAFC"/>
<path d="M123.558 38.8452H109.977V40.9577H123.558V38.8452Z" fill="#191D5D" stroke="#4748CE" stroke-width="2.00238" stroke-miterlimit="10" stroke-linecap="round" stroke-linejoin="round"/>
<path d="M93.0563 35.3712C91.5696 35.3712 90.3331 36.5627 90.3281 38.0494C90.3281 38.0594 90.3281 38.0694 90.3281 38.0795C90.3281 44.2318 95.8096 49.2177 102.578 49.2177C109.341 49.2177 114.827 44.2318 114.827 38.0795C114.827 38.0694 114.827 38.0594 114.827 38.0494C114.822 36.5627 113.586 35.3712 112.099 35.3712H93.0563Z" fill="#191D5D" stroke="#4748CE" stroke-width="2.00238" stroke-miterlimit="10" stroke-linecap="round" stroke-linejoin="round"/>
<path d="M124.451 35.321C122.964 35.321 121.728 36.5124 121.723 37.9992C121.723 38.0092 121.723 38.0192 121.723 38.0293C121.723 44.1816 127.204 49.1675 133.972 49.1675C140.735 49.1675 146.222 44.1816 146.222 38.0293C146.222 38.0192 146.222 38.0092 146.222 37.9992C146.217 36.5124 144.98 35.321 143.494 35.321H124.451Z" fill="#191D5D" stroke="#4748CE" stroke-width="2.00238" stroke-miterlimit="10" stroke-linecap="round" stroke-linejoin="round"/>
<path d="M110.687 39.516C110.857 40.6474 108.59 42.3044 106.367 42.2993C104.16 42.2943 101.887 40.6524 102.047 39.516C102.212 38.3196 104.3 38.4598 106.462 38.4598C107.423 38.4598 110.527 38.4548 110.687 39.516Z" fill="#CFE2E8"/>
<path d="M143.316 38.9855C143.486 40.1169 141.219 41.7738 138.996 41.7688C136.788 41.7638 134.516 40.1219 134.676 38.9855C134.841 37.7891 136.929 37.9292 139.091 37.9292C140.052 37.9292 143.156 37.9243 143.316 38.9855Z" fill="#CFE2E8"/>
<path d="M121.958 47.4271C121.958 48.8147 119.477 51.3037 118.094 51.3037C116.71 51.3037 114.301 48.8147 114.301 47.4271C114.301 46.0394 116.71 45.5605 118.094 45.5605C119.477 45.5605 121.958 46.0394 121.958 47.4271Z" fill="#4748CE"/>
<path fill-rule="evenodd" clip-rule="evenodd" d="M117.866 53.3962C117.802 53.3863 117.741 53.4304 117.73 53.4946C117.358 55.4914 115.338 57.4395 112.873 57.9184C111.625 58.1609 110.268 58.0242 108.963 57.3259C107.679 56.6392 106.432 55.4026 105.387 53.4228C105.356 53.3651 105.285 53.342 105.227 53.372L105.087 53.4444C105.029 53.4744 105.007 53.5461 105.037 53.6038C106.112 55.6399 107.41 56.9419 108.777 57.6732C110.168 58.4174 111.618 58.5636 112.948 58.3051C115.17 57.8736 117.078 56.3076 117.836 54.4962C117.879 54.3943 118.033 54.3913 118.08 54.4911C118.434 55.2351 119.019 55.9327 119.744 56.5247C120.805 57.3919 122.182 58.0491 123.625 58.3057C125.069 58.5624 126.588 58.4194 127.919 57.6712C129.228 56.935 130.336 55.6242 131.011 53.5808C131.032 53.5188 130.997 53.4519 130.935 53.4321L130.785 53.3843C130.723 53.3645 130.656 53.3993 130.636 53.4612C129.986 55.4248 128.935 56.6478 127.726 57.3278C126.49 58.0222 125.068 58.1622 123.694 57.9178C122.319 57.6734 121.003 57.0456 119.993 56.2197C119.019 55.4236 118.346 54.4586 118.159 53.4946C118.146 53.4306 118.086 53.3863 118.022 53.3962L117.962 53.4054C117.95 53.4073 117.938 53.4073 117.926 53.4054L117.866 53.3962Z" fill="#191D5D"/>
<path d="M112.873 57.9184L113.003 58.5849H113.003L112.873 57.9184ZM108.963 57.3259L109.283 56.7272L108.963 57.3259ZM108.777 57.6732L109.097 57.0745L108.777 57.6732ZM112.948 58.3051L112.819 57.6386L112.948 58.3051ZM119.744 56.5247L119.314 57.0504L119.744 56.5247ZM123.625 58.3057L123.506 58.9741L123.625 58.3057ZM127.919 57.6712L128.251 58.2631L127.919 57.6712ZM127.726 57.3278L127.393 56.736L127.726 57.3278ZM123.694 57.9178L123.575 58.5863L123.694 57.9178ZM119.993 56.2197L119.563 56.7454L119.993 56.2197ZM117.962 53.4054L117.859 52.7344L117.962 53.4054ZM117.926 53.4054L118.029 52.7344L117.926 53.4054ZM118.159 53.4946L118.825 53.3649L118.159 53.4946ZM118.022 53.3962L117.918 52.7252L118.022 53.3962ZM117.836 54.4962L117.21 54.2341L117.836 54.4962ZM118.08 54.4911L117.467 54.7823L118.08 54.4911ZM105.227 53.372L104.915 52.769L105.227 53.372ZM131.011 53.5808L130.367 53.3677L131.011 53.5808ZM130.935 53.4321L130.729 54.0791L130.935 53.4321ZM130.785 53.3843L130.991 52.7374L130.785 53.3843ZM130.636 53.4612L131.28 53.6745L130.636 53.4612ZM117.73 53.4946L117.062 53.3703L117.73 53.4946ZM117.866 53.3962L117.763 54.0673L117.866 53.3962ZM113.003 58.5849C115.695 58.0619 117.966 55.9334 118.397 53.6189L117.062 53.3703C116.749 55.0494 114.982 56.8172 112.744 57.2519L113.003 58.5849ZM108.643 57.9245C110.096 58.7019 111.613 58.855 113.003 58.5849L112.744 57.2519C111.637 57.4669 110.441 57.3465 109.283 56.7272L108.643 57.9245ZM104.786 53.7398C105.882 55.8138 107.216 57.1616 108.643 57.9245L109.283 56.7272C108.142 56.1167 106.983 54.9914 105.987 53.1057L104.786 53.7398ZM105.399 54.0474L105.539 53.975L104.915 52.769L104.775 52.8415L105.399 54.0474ZM109.097 57.0745C107.873 56.4195 106.662 55.2288 105.637 53.2869L104.437 53.9208C105.561 56.051 106.947 57.4643 108.457 58.2719L109.097 57.0745ZM112.819 57.6386C111.63 57.8696 110.341 57.7397 109.097 57.0745L108.457 58.2719C109.996 59.0951 111.605 59.2576 113.078 58.9716L112.819 57.6386ZM117.21 54.2341C116.545 55.823 114.832 57.2476 112.819 57.6386L113.078 58.9716C115.508 58.4996 117.611 56.7922 118.463 54.7582L117.21 54.2341ZM117.467 54.7823C117.873 55.6364 118.53 56.4099 119.314 57.0504L120.173 55.999C119.508 55.4555 118.995 54.8338 118.694 54.1999L117.467 54.7823ZM119.314 57.0504C120.462 57.9889 121.946 58.6967 123.506 58.9741L123.744 57.6372C122.418 57.4015 121.147 56.795 120.173 55.999L119.314 57.0504ZM123.506 58.9741C125.07 59.2522 126.755 59.1041 128.251 58.2631L127.586 57.0794C126.42 57.7348 125.068 57.8726 123.744 57.6372L123.506 58.9741ZM128.251 58.2631C129.731 57.4311 130.936 55.9713 131.656 53.7939L130.367 53.3677C129.735 55.2772 128.725 56.439 127.586 57.0794L128.251 58.2631ZM131.141 52.7852L130.991 52.7374L130.579 54.0312L130.729 54.0791L131.141 52.7852ZM129.991 53.2479C129.386 55.0774 128.432 56.1516 127.393 56.736L128.058 57.9197C129.438 57.144 130.586 55.7721 131.28 53.6745L129.991 53.2479ZM127.393 56.736C126.323 57.3376 125.067 57.4723 123.813 57.2494L123.575 58.5863C125.069 58.852 126.658 58.7068 128.058 57.9197L127.393 56.736ZM123.813 57.2494C122.555 57.0258 121.346 56.4486 120.423 55.694L119.563 56.7454C120.661 57.6425 122.083 58.321 123.575 58.5863L123.813 57.2494ZM120.423 55.694C119.525 54.9602 118.973 54.1231 118.825 53.3649L117.492 53.6243C117.72 54.7941 118.513 55.887 119.563 56.7454L120.423 55.694ZM117.918 52.7252L117.859 52.7344L118.065 54.0765L118.125 54.0673L117.918 52.7252ZM117.763 54.0673L117.823 54.0765L118.029 52.7344L117.969 52.7252L117.763 54.0673ZM117.859 52.7344C117.915 52.7257 117.973 52.7257 118.029 52.7344L117.823 54.0765C117.903 54.0889 117.985 54.0889 118.065 54.0765L117.859 52.7344ZM118.825 53.3649C118.746 52.9596 118.36 52.6573 117.918 52.7252L118.125 54.0673C117.813 54.1153 117.546 53.9016 117.492 53.6243L118.825 53.3649ZM118.463 54.7582C118.362 54.9988 118.138 55.0934 117.97 55.0968C117.803 55.1002 117.578 55.0155 117.467 54.7823L118.694 54.1999C118.536 53.8669 118.21 53.7338 117.943 53.7392C117.675 53.7446 117.353 53.8916 117.21 54.2341L118.463 54.7582ZM104.775 52.8415C104.382 53.0446 104.23 53.5292 104.437 53.9208L105.637 53.2869C105.783 53.5631 105.676 53.9042 105.399 54.0474L104.775 52.8415ZM105.987 53.1057C105.786 52.7243 105.31 52.5646 104.915 52.769L105.539 53.975C105.26 54.1194 104.927 54.0058 104.786 53.7398L105.987 53.1057ZM131.656 53.7939C131.795 53.3715 131.562 52.9192 131.141 52.7852L130.729 54.0791C130.433 53.9847 130.268 53.6661 130.367 53.3677L131.656 53.7939ZM130.991 52.7374C130.567 52.6022 130.126 52.8405 129.991 53.2479L131.28 53.6745C131.187 53.9581 130.879 54.1268 130.579 54.0312L130.991 52.7374ZM118.397 53.6189C118.344 53.9029 118.073 54.115 117.763 54.0673L117.969 52.7252C117.53 52.6576 117.139 52.9579 117.062 53.3703L118.397 53.6189Z" fill="#191D5D"/>
<path d="M136.036 25.7399C135.231 20.809 136.555 9.09957 148.293 1.70923" stroke="#4344C6" stroke-width="1.44909" stroke-linecap="round"/>
<path d="M131.199 25.3175C130.193 22.1577 128.784 14.4494 131.199 8.89453" stroke="#4344C6" stroke-width="1.44909" stroke-linecap="round"/>
<path d="M106.634 26.7537C107.359 22.4262 106.167 12.1498 95.6016 5.66382" stroke="#4344C6" stroke-width="1.44909" stroke-linecap="round"/>
<path d="M111.418 26.754C112.413 23.9643 113.805 17.1588 111.418 12.2546" stroke="#4344C6" stroke-width="1.44909" stroke-linecap="round"/>
<path d="M145.649 47.8436C151.954 44.1599 160.108 40.1919 173.988 46.7124" stroke="#4344C6" stroke-width="1.44909" stroke-linecap="round"/>
<path d="M147.633 50.4108C151.609 49.3548 158.652 49.3071 164.109 53.7752" stroke="#4344C6" stroke-width="1.44909" stroke-linecap="round"/>
<path d="M97.5764 50.8091C93.622 48.5838 86.0428 49.491 82.418 52.4568" stroke="#4344C6" stroke-width="1.44909" stroke-linecap="round"/>
<path d="M95.9308 53.1156C94.0223 52.0595 90.971 53.5905 88.3516 58.0586" stroke="#4344C6" stroke-width="1.44909" stroke-linecap="round"/>
</svg>
