<svg width="204" height="113" viewBox="0 0 204 113" fill="none" xmlns="http://www.w3.org/2000/svg">
<path fill-rule="evenodd" clip-rule="evenodd" d="M337 49.4608L311.875 61.854C286.75 74.2473 236.5 99.0338 186.25 92.8371C136 86.6405 85.75 49.4608 35.5 27.7726C-14.75 6.08441 -65 -0.112215 -115.25 9.18272C-165.5 18.4777 -215.75 43.2641 -240.875 55.6574L-266 68.0506V161H-240.875C-215.75 161 -165.5 161 -115.25 161C-65 161 -14.75 161 35.5 161C85.75 161 136 161 186.25 161C236.5 161 286.75 161 311.875 161H337V49.4608Z" fill="#828CFC"/>
<path d="M32.922 97.2475C32.1497 94.416 32.6517 92.8587 33.3981 92.0607C33.9326 91.4892 34.7769 91.4233 35.5594 91.4233H101.356C106.118 91.4233 109.154 98.7865 110.94 105.67C112.062 109.993 108.609 113.992 104.143 113.992H42.7501C38.018 113.992 36.1979 110.352 35.8339 109.26L32.922 97.2475Z" fill="#191D5D" stroke="#191D5D" stroke-width="2.18406"/>
<path d="M47.668 101.689C60.1984 101.689 72.7287 101.689 85.2591 101.689H47.668Z" fill="#BEDCFC"/>
<path d="M47.668 101.689C60.1984 101.689 72.7287 101.689 85.2591 101.689" stroke="#828CFC" stroke-width="2.18406" stroke-miterlimit="10" stroke-linecap="round" stroke-linejoin="round"/>
<path d="M43.6289 97.4648C56.1593 97.4648 68.6897 97.4648 81.2201 97.4648H43.6289Z" fill="#BEDCFC"/>
<path d="M43.6289 97.4648C56.1593 97.4648 68.6897 97.4648 81.2201 97.4648" stroke="#828CFC" stroke-width="2.18406" stroke-miterlimit="10" stroke-linecap="round" stroke-linejoin="round"/>
<path d="M82.3135 110.15H59.6471C58.5854 110.15 57.7227 109.287 57.7227 108.226V107.197C57.7227 106.135 58.5854 105.273 59.6471 105.273H82.3135C83.3752 105.273 84.2378 106.135 84.2378 107.197V108.226C84.2378 109.287 83.3752 110.15 82.3135 110.15Z" fill="#BEDCFC" stroke="#828CFC" stroke-width="2.18406" stroke-miterlimit="10" stroke-linecap="round" stroke-linejoin="round"/>
<path d="M97.84 91.9184H37.8091C34.1042 91.9184 31.1016 88.9157 31.1016 85.2108V51.0867C31.1016 47.3818 34.1042 44.3792 37.8091 44.3792H97.84C101.545 44.3792 104.548 47.3818 104.548 51.0867V85.2108C104.548 88.9157 101.545 91.9184 97.84 91.9184Z" fill="#191D5D" stroke="#191D5D" stroke-width="2.18406" stroke-miterlimit="10" stroke-linecap="round" stroke-linejoin="round"/>
<path d="M91.9196 87.4723H43.6671C39.8405 87.4723 36.7383 84.3701 36.7383 80.5436V55.5823C36.7383 51.7557 39.8405 48.6536 43.6671 48.6536H91.9196C95.7462 48.6536 98.8484 51.7557 98.8484 55.5823V80.5436C98.8484 84.3701 95.7462 87.4723 91.9196 87.4723Z" fill="#D0D4FF" stroke="#4748CE" stroke-width="2.18406" stroke-miterlimit="10" stroke-linecap="round" stroke-linejoin="round"/>
<path d="M42.163 61.8528C42.163 61.6237 42.2434 61.4194 42.4044 61.2399C42.5653 61.0604 42.7572 60.9706 42.9801 60.9706C43.1286 60.9706 43.9674 61.2709 45.4964 61.8713C45.4469 61.0109 45.4221 60.4166 45.4221 60.0885C45.4221 59.8471 45.4995 59.649 45.6543 59.4943C45.8152 59.3395 46.0133 59.2621 46.2485 59.2621C46.4899 59.2621 46.688 59.3395 46.8428 59.4943C47.0037 59.649 47.0842 59.8471 47.0842 60.0885C47.0842 60.429 47.1028 60.9521 47.1399 61.6578C48.6256 61.4349 49.5355 61.3235 49.8698 61.3235C50.0989 61.3235 50.2877 61.4071 50.4362 61.5742C50.591 61.7351 50.6684 61.9332 50.6684 62.1685C50.6684 62.6018 50.4362 62.868 49.972 62.967C49.5386 63.0599 48.7741 63.1713 47.6785 63.3013C48.0375 63.6294 48.4275 64.0503 48.8484 64.5641C49.3994 65.245 49.6748 65.7186 49.6748 65.9847C49.6748 66.2076 49.5882 66.4026 49.4148 66.5697C49.2415 66.7307 49.0434 66.8111 48.8206 66.8111C48.5853 66.8111 48.3718 66.6997 48.1799 66.4769C47.8023 65.9693 47.1863 65.2419 46.3321 64.2948C45.0569 65.7371 44.1934 66.4583 43.7415 66.4583C43.5186 66.4583 43.3205 66.3716 43.1472 66.1983C42.9801 66.025 42.8965 65.8269 42.8965 65.604C42.8965 65.3936 42.9956 65.1893 43.1936 64.9912C43.5898 64.6569 44.1655 64.1215 44.9207 63.3848C44.4131 63.2239 43.6703 62.9546 42.6922 62.577C42.3394 62.4223 42.163 62.1808 42.163 61.8528ZM52.2469 61.8528C52.2469 61.6237 52.3273 61.4194 52.4883 61.2399C52.6492 61.0604 52.8411 60.9706 53.064 60.9706C53.2125 60.9706 54.0513 61.2709 55.5803 61.8713C55.5308 61.0109 55.506 60.4166 55.506 60.0885C55.506 59.8471 55.5834 59.649 55.7382 59.4943C55.8991 59.3395 56.0972 59.2621 56.3324 59.2621C56.5738 59.2621 56.7719 59.3395 56.9267 59.4943C57.0876 59.649 57.1681 59.8471 57.1681 60.0885C57.1681 60.429 57.1867 60.9521 57.2238 61.6578C58.7095 61.4349 59.6194 61.3235 59.9537 61.3235C60.1827 61.3235 60.3715 61.4071 60.5201 61.5742C60.6749 61.7351 60.7522 61.9332 60.7522 62.1685C60.7522 62.6018 60.5201 62.868 60.0558 62.967C59.6225 63.0599 58.858 63.1713 57.7624 63.3013C58.1214 63.6294 58.5114 64.0503 58.9323 64.5641C59.4832 65.245 59.7587 65.7186 59.7587 65.9847C59.7587 66.2076 59.672 66.4026 59.4987 66.5697C59.3254 66.7307 59.1273 66.8111 58.9045 66.8111C58.6692 66.8111 58.4557 66.6997 58.2638 66.4769C57.8862 65.9693 57.2702 65.2419 56.416 64.2948C55.1408 65.7371 54.2773 66.4583 53.8254 66.4583C53.6025 66.4583 53.4044 66.3716 53.2311 66.1983C53.064 66.025 52.9804 65.8269 52.9804 65.604C52.9804 65.3936 53.0794 65.1893 53.2775 64.9912C53.6737 64.6569 54.2494 64.1215 55.0046 63.3848C54.497 63.2239 53.7542 62.9546 52.7761 62.577C52.4233 62.4223 52.2469 62.1808 52.2469 61.8528ZM62.3307 61.8528C62.3307 61.6237 62.4112 61.4194 62.5722 61.2399C62.7331 61.0604 62.925 60.9706 63.1479 60.9706C63.2964 60.9706 64.1352 61.2709 65.6642 61.8713C65.6147 61.0109 65.5899 60.4166 65.5899 60.0885C65.5899 59.8471 65.6673 59.649 65.822 59.4943C65.983 59.3395 66.1811 59.2621 66.4163 59.2621C66.6577 59.2621 66.8558 59.3395 67.0106 59.4943C67.1715 59.649 67.252 59.8471 67.252 60.0885C67.252 60.429 67.2706 60.9521 67.3077 61.6578C68.7933 61.4349 69.7033 61.3235 70.0376 61.3235C70.2666 61.3235 70.4554 61.4071 70.604 61.5742C70.7587 61.7351 70.8361 61.9332 70.8361 62.1685C70.8361 62.6018 70.604 62.868 70.1397 62.967C69.7064 63.0599 68.9419 63.1713 67.8462 63.3013C68.2053 63.6294 68.5953 64.0503 69.0162 64.5641C69.5671 65.245 69.8426 65.7186 69.8426 65.9847C69.8426 66.2076 69.7559 66.4026 69.5826 66.5697C69.4093 66.7307 69.2112 66.8111 68.9883 66.8111C68.7531 66.8111 68.5395 66.6997 68.3477 66.4769C67.97 65.9693 67.3541 65.2419 66.4999 64.2948C65.2247 65.7371 64.3611 66.4583 63.9093 66.4583C63.6864 66.4583 63.4883 66.3716 63.315 66.1983C63.1479 66.025 63.0643 65.8269 63.0643 65.604C63.0643 65.3936 63.1633 65.1893 63.3614 64.9912C63.7576 64.6569 64.3333 64.1215 65.0885 63.3848C64.5809 63.2239 63.8381 62.9546 62.86 62.577C62.5072 62.4223 62.3307 62.1808 62.3307 61.8528ZM72.4146 61.8528C72.4146 61.6237 72.4951 61.4194 72.6561 61.2399C72.817 61.0604 73.0089 60.9706 73.2317 60.9706C73.3803 60.9706 74.2191 61.2709 75.7481 61.8713C75.6986 61.0109 75.6738 60.4166 75.6738 60.0885C75.6738 59.8471 75.7512 59.649 75.9059 59.4943C76.0669 59.3395 76.265 59.2621 76.5002 59.2621C76.7416 59.2621 76.9397 59.3395 77.0944 59.4943C77.2554 59.649 77.3359 59.8471 77.3359 60.0885C77.3359 60.429 77.3544 60.9521 77.3916 61.6578C78.8772 61.4349 79.7872 61.3235 80.1215 61.3235C80.3505 61.3235 80.5393 61.4071 80.6879 61.5742C80.8426 61.7351 80.92 61.9332 80.92 62.1685C80.92 62.6018 80.6879 62.868 80.2236 62.967C79.7903 63.0599 79.0258 63.1713 77.9301 63.3013C78.2892 63.6294 78.6791 64.0503 79.1001 64.5641C79.651 65.245 79.9265 65.7186 79.9265 65.9847C79.9265 66.2076 79.8398 66.4026 79.6665 66.5697C79.4932 66.7307 79.2951 66.8111 79.0722 66.8111C78.837 66.8111 78.6234 66.6997 78.4315 66.4769C78.0539 65.9693 77.438 65.2419 76.5838 64.2948C75.3086 65.7371 74.445 66.4583 73.9931 66.4583C73.7703 66.4583 73.5722 66.3716 73.3989 66.1983C73.2317 66.025 73.1482 65.8269 73.1482 65.604C73.1482 65.3936 73.2472 65.1893 73.4453 64.9912C73.8415 64.6569 74.4172 64.1215 75.1724 63.3848C74.6648 63.2239 73.922 62.9546 72.9439 62.577C72.5911 62.4223 72.4146 62.1808 72.4146 61.8528ZM82.4985 61.8528C82.4985 61.6237 82.579 61.4194 82.7399 61.2399C82.9009 61.0604 83.0928 60.9706 83.3156 60.9706C83.4642 60.9706 84.303 61.2709 85.832 61.8713C85.7824 61.0109 85.7577 60.4166 85.7577 60.0885C85.7577 59.8471 85.8351 59.649 85.9898 59.4943C86.1508 59.3395 86.3488 59.2621 86.5841 59.2621C86.8255 59.2621 87.0236 59.3395 87.1783 59.4943C87.3393 59.649 87.4198 59.8471 87.4198 60.0885C87.4198 60.429 87.4383 60.9521 87.4755 61.6578C88.9611 61.4349 89.8711 61.3235 90.2054 61.3235C90.4344 61.3235 90.6232 61.4071 90.7718 61.5742C90.9265 61.7351 91.0039 61.9332 91.0039 62.1685C91.0039 62.6018 90.7718 62.868 90.3075 62.967C89.8742 63.0599 89.1097 63.1713 88.014 63.3013C88.373 63.6294 88.763 64.0503 89.184 64.5641C89.7349 65.245 90.0104 65.7186 90.0104 65.9847C90.0104 66.2076 89.9237 66.4026 89.7504 66.5697C89.577 66.7307 89.379 66.8111 89.1561 66.8111C88.9209 66.8111 88.7073 66.6997 88.5154 66.4769C88.1378 65.9693 87.5219 65.2419 86.6676 64.2948C85.3925 65.7371 84.5289 66.4583 84.077 66.4583C83.8542 66.4583 83.6561 66.3716 83.4828 66.1983C83.3156 66.025 83.2321 65.8269 83.2321 65.604C83.2321 65.3936 83.3311 65.1893 83.5292 64.9912C83.9254 64.6569 84.5011 64.1215 85.2563 63.3848C84.7487 63.2239 84.0058 62.9546 83.0278 62.577C82.6749 62.4223 82.4985 62.1808 82.4985 61.8528Z" fill="#4748CE"/>
<path d="M44.05 73.1241C44.05 72.9523 44.1103 72.7991 44.231 72.6644C44.3517 72.5298 44.4957 72.4625 44.6628 72.4625C44.7742 72.4625 45.4033 72.6876 46.55 73.138C46.5129 72.4927 46.4943 72.047 46.4943 71.8009C46.4943 71.6198 46.5524 71.4713 46.6684 71.3552C46.7891 71.2391 46.9377 71.1811 47.1141 71.1811C47.2952 71.1811 47.4438 71.2391 47.5598 71.3552C47.6805 71.4713 47.7409 71.6198 47.7409 71.8009C47.7409 72.0562 47.7548 72.4485 47.7827 72.9778C48.8969 72.8107 49.5794 72.7271 49.8301 72.7271C50.0019 72.7271 50.1435 72.7898 50.2549 72.9151C50.371 73.0358 50.429 73.1844 50.429 73.3608C50.429 73.6858 50.2549 73.8855 49.9067 73.9597C49.5817 74.0294 49.0083 74.1129 48.1866 74.2104C48.4559 74.4565 48.7484 74.7722 49.0641 75.1575C49.4773 75.6682 49.6839 76.0234 49.6839 76.223C49.6839 76.3902 49.6189 76.5364 49.4889 76.6618C49.3589 76.7825 49.2103 76.8428 49.0432 76.8428C48.8667 76.8428 48.7066 76.7593 48.5626 76.5921C48.2794 76.2114 47.8175 75.6659 47.1768 74.9556C46.2204 76.0373 45.5728 76.5782 45.2338 76.5782C45.0667 76.5782 44.9181 76.5132 44.7882 76.3832C44.6628 76.2532 44.6001 76.1047 44.6001 75.9375C44.6001 75.7797 44.6744 75.6265 44.823 75.4779C45.1201 75.2272 45.5519 74.8256 46.1183 74.2731C45.7376 74.1524 45.1805 73.9505 44.4469 73.6673C44.1823 73.5512 44.05 73.3701 44.05 73.1241ZM51.6129 73.1241C51.6129 72.9523 51.6732 72.7991 51.794 72.6644C51.9147 72.5298 52.0586 72.4625 52.2257 72.4625C52.3371 72.4625 52.9662 72.6876 54.113 73.138C54.0758 72.4927 54.0573 72.047 54.0573 71.8009C54.0573 71.6198 54.1153 71.4713 54.2314 71.3552C54.3521 71.2391 54.5006 71.1811 54.6771 71.1811C54.8581 71.1811 55.0067 71.2391 55.1228 71.3552C55.2435 71.4713 55.3038 71.6198 55.3038 71.8009C55.3038 72.0562 55.3177 72.4485 55.3456 72.9778C56.4598 72.8107 57.1423 72.7271 57.393 72.7271C57.5648 72.7271 57.7064 72.7898 57.8178 72.9151C57.9339 73.0358 57.9919 73.1844 57.9919 73.3608C57.9919 73.6858 57.8178 73.8855 57.4696 73.9597C57.1446 74.0294 56.5713 74.1129 55.7495 74.2104C56.0188 74.4565 56.3113 74.7722 56.627 75.1575C57.0402 75.6682 57.2468 76.0234 57.2468 76.223C57.2468 76.3902 57.1818 76.5364 57.0518 76.6618C56.9218 76.7825 56.7732 76.8428 56.6061 76.8428C56.4297 76.8428 56.2695 76.7593 56.1256 76.5921C55.8424 76.2114 55.3804 75.6659 54.7397 74.9556C53.7833 76.0373 53.1357 76.5782 52.7968 76.5782C52.6296 76.5782 52.4811 76.5132 52.3511 76.3832C52.2257 76.2532 52.163 76.1047 52.163 75.9375C52.163 75.7797 52.2373 75.6265 52.3859 75.4779C52.683 75.2272 53.1148 74.8256 53.6812 74.2731C53.3005 74.1524 52.7434 73.9505 52.0098 73.6673C51.7452 73.5512 51.6129 73.3701 51.6129 73.1241ZM59.1758 73.1241C59.1758 72.9523 59.2362 72.7991 59.3569 72.6644C59.4776 72.5298 59.6215 72.4625 59.7886 72.4625C59.9001 72.4625 60.5291 72.6876 61.6759 73.138C61.6387 72.4927 61.6202 72.047 61.6202 71.8009C61.6202 71.6198 61.6782 71.4713 61.7943 71.3552C61.915 71.2391 62.0636 71.1811 62.24 71.1811C62.421 71.1811 62.5696 71.2391 62.6857 71.3552C62.8064 71.4713 62.8667 71.6198 62.8667 71.8009C62.8667 72.0562 62.8807 72.4485 62.9085 72.9778C64.0228 72.8107 64.7052 72.7271 64.9559 72.7271C65.1277 72.7271 65.2693 72.7898 65.3807 72.9151C65.4968 73.0358 65.5548 73.1844 65.5548 73.3608C65.5548 73.6858 65.3807 73.8855 65.0325 73.9597C64.7076 74.0294 64.1342 74.1129 63.3124 74.2104C63.5817 74.4565 63.8742 74.7722 64.1899 75.1575C64.6031 75.6682 64.8097 76.0234 64.8097 76.223C64.8097 76.3902 64.7447 76.5364 64.6147 76.6618C64.4847 76.7825 64.3361 76.8428 64.169 76.8428C63.9926 76.8428 63.8324 76.7593 63.6885 76.5921C63.4053 76.2114 62.9433 75.6659 62.3027 74.9556C61.3463 76.0373 60.6986 76.5782 60.3597 76.5782C60.1926 76.5782 60.044 76.5132 59.914 76.3832C59.7886 76.2532 59.726 76.1047 59.726 75.9375C59.726 75.7797 59.8002 75.6265 59.9488 75.4779C60.2459 75.2272 60.6777 74.8256 61.2441 74.2731C60.8634 74.1524 60.3063 73.9505 59.5728 73.6673C59.3081 73.5512 59.1758 73.3701 59.1758 73.1241ZM66.7387 73.1241C66.7387 72.9523 66.7991 72.7991 66.9198 72.6644C67.0405 72.5298 67.1844 72.4625 67.3516 72.4625C67.463 72.4625 68.0921 72.6876 69.2388 73.138C69.2017 72.4927 69.1831 72.047 69.1831 71.8009C69.1831 71.6198 69.2411 71.4713 69.3572 71.3552C69.4779 71.2391 69.6265 71.1811 69.8029 71.1811C69.984 71.1811 70.1325 71.2391 70.2486 71.3552C70.3693 71.4713 70.4297 71.6198 70.4297 71.8009C70.4297 72.0562 70.4436 72.4485 70.4714 72.9778C71.5857 72.8107 72.2682 72.7271 72.5189 72.7271C72.6906 72.7271 72.8322 72.7898 72.9437 72.9151C73.0597 73.0358 73.1178 73.1844 73.1178 73.3608C73.1178 73.6858 72.9437 73.8855 72.5955 73.9597C72.2705 74.0294 71.6971 74.1129 70.8754 74.2104C71.1446 74.4565 71.4371 74.7722 71.7528 75.1575C72.166 75.6682 72.3726 76.0234 72.3726 76.223C72.3726 76.3902 72.3076 76.5364 72.1776 76.6618C72.0476 76.7825 71.8991 76.8428 71.7319 76.8428C71.5555 76.8428 71.3953 76.7593 71.2514 76.5921C70.9682 76.2114 70.5063 75.6659 69.8656 74.9556C68.9092 76.0373 68.2615 76.5782 67.9226 76.5782C67.7555 76.5782 67.6069 76.5132 67.4769 76.3832C67.3516 76.2532 67.2889 76.1047 67.2889 75.9375C67.2889 75.7797 67.3632 75.6265 67.5117 75.4779C67.8089 75.2272 68.2406 74.8256 68.807 74.2731C68.4263 74.1524 67.8692 73.9505 67.1357 73.6673C66.871 73.5512 66.7387 73.3701 66.7387 73.1241ZM74.3017 73.1241C74.3017 72.9523 74.362 72.7991 74.4827 72.6644C74.6034 72.5298 74.7473 72.4625 74.9145 72.4625C75.0259 72.4625 75.655 72.6876 76.8017 73.138C76.7646 72.4927 76.746 72.047 76.746 71.8009C76.746 71.6198 76.8041 71.4713 76.9201 71.3552C77.0408 71.2391 77.1894 71.1811 77.3658 71.1811C77.5469 71.1811 77.6954 71.2391 77.8115 71.3552C77.9322 71.4713 77.9926 71.6198 77.9926 71.8009C77.9926 72.0562 78.0065 72.4485 78.0344 72.9778C79.1486 72.8107 79.8311 72.7271 80.0818 72.7271C80.2536 72.7271 80.3952 72.7898 80.5066 72.9151C80.6227 73.0358 80.6807 73.1844 80.6807 73.3608C80.6807 73.6858 80.5066 73.8855 80.1584 73.9597C79.8334 74.0294 79.26 74.1129 78.4383 74.2104C78.7076 74.4565 79 74.7722 79.3157 75.1575C79.7289 75.6682 79.9355 76.0234 79.9355 76.223C79.9355 76.3902 79.8705 76.5364 79.7405 76.6618C79.6106 76.7825 79.462 76.8428 79.2949 76.8428C79.1184 76.8428 78.9583 76.7593 78.8143 76.5921C78.5311 76.2114 78.0692 75.6659 77.4285 74.9556C76.4721 76.0373 75.8244 76.5782 75.4855 76.5782C75.3184 76.5782 75.1698 76.5132 75.0398 76.3832C74.9145 76.2532 74.8518 76.1047 74.8518 75.9375C74.8518 75.7797 74.9261 75.6265 75.0747 75.4779C75.3718 75.2272 75.8036 74.8256 76.37 74.2731C75.9893 74.1524 75.4321 73.9505 74.6986 73.6673C74.434 73.5512 74.3017 73.3701 74.3017 73.1241Z" fill="#4748CE"/>
<path d="M89.6825 111.933C87.7999 111.933 85.5274 111.048 84.9816 109.098C84.8702 108.703 84.8312 108.296 84.8646 107.89C83.5557 107.439 82.5977 106.509 82.258 105.283C82.0853 104.665 82.0853 104.019 82.258 103.384C81.9572 102.91 81.779 102.409 81.7344 101.886C81.5841 100.087 82.9152 98.4825 83.3274 98.0313C83.7897 97.5301 84.7143 96.6835 85.7057 96.6835C85.8226 96.6835 85.9284 96.6946 86.0343 96.7169C86.892 96.8896 87.9726 96.9731 89.2536 96.9731C92.1499 96.9731 95.319 96.5275 96.5945 96.288C99.5687 95.7366 102.008 94.6839 106.358 90.7016C113.237 84.4078 114.88 81.6675 116.083 79.6679C116.634 78.7433 117.158 77.8745 118.032 76.8942C118.244 76.6547 118.545 76.521 118.868 76.521C118.879 76.521 118.885 76.521 118.896 76.521C119.224 76.5266 119.531 76.6825 119.737 76.9387L128.498 87.8387C128.854 88.2843 128.821 88.9248 128.42 89.3258C126.899 90.8464 125.323 92.6733 123.658 94.606C119.954 98.9002 116.128 103.339 112.106 105.35C105.829 108.486 100.282 108.959 97.9089 109.165L97.5803 109.193C95.954 109.338 94.3165 109.956 92.8349 110.981C92.2946 111.354 91.7043 111.627 91.0805 111.777C90.6293 111.878 90.1615 111.933 89.6825 111.933Z" fill="#BEDCFC"/>
<path d="M118.861 77.6349L127.622 88.5349C122.71 93.4474 117.179 101.557 111.598 104.347C105.188 107.556 99.4897 107.895 97.4679 108.079C95.5575 108.252 93.764 108.97 92.1878 110.062C91.8035 110.329 91.3412 110.558 90.8009 110.691C90.4444 110.78 90.0657 110.819 89.6814 110.819C88.0829 110.819 86.4175 110.084 86.0555 108.798C85.894 108.213 85.9663 107.611 86.2114 107.049C84.8022 106.909 83.6493 106.146 83.3263 104.988C83.1592 104.392 83.2371 103.774 83.5045 103.194C83.2093 102.866 82.8919 102.387 82.8417 101.796C82.6969 100.053 84.7132 97.8029 85.7046 97.8029C85.7436 97.8029 85.7825 97.8085 85.8159 97.8141C86.8296 98.0146 88.0216 98.0926 89.2525 98.0926C92.3437 98.0926 95.641 97.6024 96.7995 97.3908C100.191 96.7614 102.82 95.4525 107.109 91.5314C117.151 82.3358 116.21 80.6258 118.861 77.6349ZM118.861 75.407C118.226 75.407 117.619 75.6799 117.196 76.1589C116.255 77.2172 115.709 78.1306 115.124 79.0997C113.893 81.1494 112.361 83.7003 105.605 89.8827C101.45 93.6813 99.161 94.6839 96.3929 95.1963C95.1508 95.4247 92.0652 95.8591 89.2525 95.8591C88.0494 95.8591 87.0413 95.7811 86.256 95.6252C86.0777 95.5918 85.894 95.5695 85.7102 95.5695C84.3623 95.5695 83.2316 96.494 82.5131 97.2738C82.023 97.8085 80.4356 99.7245 80.625 101.975C80.6695 102.515 80.8255 103.05 81.0817 103.556C80.9703 104.236 81.0037 104.916 81.1875 105.578C81.5607 106.921 82.4909 107.99 83.7663 108.631C83.7942 108.887 83.8387 109.143 83.9111 109.394C84.5127 111.543 86.8854 113.047 89.6814 113.047C90.2495 113.047 90.8065 112.98 91.33 112.852C92.0875 112.669 92.8004 112.346 93.452 111.889C94.7721 110.97 96.2314 110.418 97.6628 110.29L97.9914 110.262C100.425 110.056 106.123 109.566 112.59 106.336C116.812 104.225 120.71 99.7022 124.487 95.3244C126.141 93.4084 127.7 91.5982 129.193 90.1055C129.995 89.3035 130.068 88.0225 129.355 87.1369L120.593 76.2369C120.181 75.7245 119.569 75.4237 118.911 75.407C118.9 75.407 118.878 75.407 118.861 75.407Z" fill="#4748CE"/>
<path d="M83.0156 103.133C83.322 102.755 84.2521 101.713 85.7392 101.496C86.1458 101.434 86.519 101.451 86.831 101.496" fill="#BEDCFC"/>
<path d="M83.0156 103.133C83.322 102.755 84.2521 101.713 85.7392 101.496C86.1458 101.434 86.519 101.451 86.831 101.496" stroke="#4748CE" stroke-width="2.27624" stroke-miterlimit="10" stroke-linecap="round" stroke-linejoin="round"/>
<path d="M85.7656 107.182C86.0274 106.859 86.8183 105.968 88.0882 105.784C88.4391 105.734 88.751 105.745 89.0183 105.784" fill="#BEDCFC"/>
<path d="M85.7656 107.182C86.0274 106.859 86.8183 105.968 88.0882 105.784C88.4391 105.734 88.751 105.745 89.0183 105.784" stroke="#4748CE" stroke-width="2.27624" stroke-miterlimit="10" stroke-linecap="round" stroke-linejoin="round"/>
<path d="M100.617 119.882C101.955 112.522 104.068 105.322 106.904 98.4765C110.233 90.4308 119.081 69.0694 128.128 68.3947C128.277 68.3837 128.426 68.3782 128.576 68.3782C137.727 68.3782 149.389 89.4078 157.762 120.866L100.617 119.882Z" fill="#BEDCFC"/>
<path d="M128.577 69.4841C132.658 69.4841 137.674 74.5051 142.689 83.6181C147.633 92.604 152.322 105.046 156.309 119.733L101.946 118.798C103.279 111.958 105.281 105.278 107.924 98.8968C109.76 94.462 112.834 87.0355 116.611 80.6984C121.942 71.7568 125.862 69.6666 128.207 69.4952C128.334 69.4897 128.456 69.4841 128.577 69.4841ZM128.577 67.2722C128.401 67.2722 128.224 67.2777 128.047 67.2943C118.32 68.0242 109.611 89.0539 105.883 98.0563C102.162 107.048 100.304 115.077 99.3086 120.972C119.276 121.314 139.239 121.657 159.207 122C150.818 89.7838 138.929 67.2722 128.577 67.2722Z" fill="#4748CE"/>
<path d="M131.932 66.3066C138.484 66.6707 149.294 77.2269 152.524 81.9649C152.607 82.0865 152.729 82.2635 152.883 82.4957C154.144 84.3758 161.869 95.9385 158.192 107.899C157.617 109.768 156.915 112.063 155.101 114.181C149.676 120.535 137.964 116.498 127.264 114.153C126.501 114.441 125.683 114.607 124.82 114.607H124.212C120.418 114.607 117.344 111.532 117.344 107.739V104.476C117.344 100.683 120.418 97.6085 124.212 97.6085H124.82C125.799 97.6085 126.722 97.8131 127.563 98.1781C127.878 93.9091 129.012 90.7406 130.361 90.7406C131.953 90.7406 133.247 95.1423 133.247 100.567C133.247 101.153 133.231 101.734 133.203 102.292C136.301 104.892 139.941 104.892 142.489 104.892C144.309 104.892 145.037 102.292 145.037 100.567C145.037 97.6085 143.581 95.0634 143.581 94.6994" fill="#BEDCFC"/>
<path d="M131.932 66.3066C138.484 66.6707 149.294 77.2269 152.524 81.9649C152.607 82.0865 152.729 82.2635 152.883 82.4957C154.144 84.3758 161.869 95.9385 158.192 107.899C157.617 109.768 156.915 112.063 155.101 114.181C149.676 120.535 137.964 116.498 127.264 114.153C126.501 114.441 125.683 114.607 124.82 114.607H124.212C120.418 114.607 117.344 111.532 117.344 107.739V104.476C117.344 100.683 120.418 97.6085 124.212 97.6085H124.82C125.799 97.6085 126.722 97.8131 127.563 98.1781C127.878 93.9091 129.012 90.7406 130.361 90.7406C131.953 90.7406 133.247 95.1423 133.247 100.567C133.247 101.153 133.231 101.734 133.203 102.292C136.301 104.892 139.941 104.892 142.489 104.892C144.309 104.892 145.037 102.292 145.037 100.567C145.037 97.6085 143.581 95.0634 143.581 94.6994" stroke="#4748CE" stroke-width="2.5" stroke-miterlimit="10" stroke-linecap="round" stroke-linejoin="round"/>
<path d="M118.477 102.375C118.797 102.701 119.444 103.271 120.44 103.592C121.816 104.04 122.994 103.73 123.426 103.592" fill="#BEDCFC"/>
<path d="M118.477 102.375C118.797 102.701 119.444 103.271 120.44 103.592C121.816 104.04 122.994 103.73 123.426 103.592" stroke="#4748CE" stroke-width="2.18406" stroke-miterlimit="10" stroke-linecap="round" stroke-linejoin="round"/>
<path d="M118.023 107.042C118.344 107.368 118.991 107.938 119.987 108.259C121.363 108.707 122.541 108.397 122.978 108.259" fill="#BEDCFC"/>
<path d="M118.023 107.042C118.344 107.368 118.991 107.938 119.987 108.259C121.363 108.707 122.541 108.397 122.978 108.259" stroke="#4748CE" stroke-width="2.18406" stroke-miterlimit="10" stroke-linecap="round" stroke-linejoin="round"/>
<path fill-rule="evenodd" clip-rule="evenodd" d="M170.183 12.0756C172.222 19.0874 166.305 31.4957 162.73 37.6365C163.997 40.4286 164.693 43.431 164.693 46.5578C164.693 61.4345 148.934 73.4945 130.84 73.4945C112.747 73.4945 96.9875 61.4345 96.9875 46.5578C96.9875 43.6686 97.5819 40.8858 98.6723 38.2768C95.2163 31.6823 91.1276 21.7203 92.874 15.7157C93.9188 12.1231 101.661 17.0569 111.003 24.8793C116.654 21.5747 123.558 19.621 130.84 19.621C137.384 19.621 143.623 21.1986 148.921 23.9164C159.613 14.6046 169.023 8.08799 170.183 12.0756Z" fill="#BEDCFC"/>
<path d="M162.73 37.6365L161.649 37.0076L161.324 37.5655L161.591 38.1533L162.73 37.6365ZM170.183 12.0756L171.383 11.7265V11.7265L170.183 12.0756ZM98.6723 38.2768L99.8256 38.7589L100.052 38.2169L99.7795 37.6966L98.6723 38.2768ZM92.874 15.7157L94.0742 16.0648L92.874 15.7157ZM111.003 24.8793L110.201 25.8377L110.875 26.4023L111.634 25.9583L111.003 24.8793ZM148.921 23.9164L148.351 25.0286L149.104 25.415L149.742 24.8591L148.921 23.9164ZM163.81 38.2655C165.624 35.15 168.036 30.4396 169.741 25.5979C171.42 20.8299 172.522 15.6419 171.383 11.7265L168.983 12.4246C169.883 15.521 169.047 20.0431 167.383 24.7675C165.745 29.418 163.411 33.9823 161.649 37.0076L163.81 38.2655ZM165.943 46.5578C165.943 43.242 165.205 40.0641 163.868 37.1197L161.591 38.1533C162.79 40.7932 163.443 43.62 163.443 46.5578H165.943ZM130.84 74.7445C140.156 74.7445 148.894 71.6422 155.324 66.5877C161.755 61.5332 165.943 54.4635 165.943 46.5578H163.443C163.443 53.5288 159.752 59.9274 153.779 64.6222C147.807 69.3168 139.618 72.2445 130.84 72.2445V74.7445ZM95.7375 46.5578C95.7375 54.4635 99.9262 61.5332 106.357 66.5877C112.787 71.6422 121.525 74.7445 130.84 74.7445V72.2445C122.063 72.2445 113.874 69.3168 107.901 64.6222C101.929 59.9274 98.2375 53.5288 98.2375 46.5578H95.7375ZM97.519 37.7948C96.3682 40.5482 95.7375 43.4944 95.7375 46.5578H98.2375C98.2375 43.8429 98.7956 41.2234 99.8256 38.7589L97.519 37.7948ZM91.6737 15.3666C90.6939 18.7355 91.3758 23.0253 92.6263 27.1386C93.8927 31.3046 95.8159 35.5193 97.5652 38.8571L99.7795 37.6966C98.0727 34.4398 96.2235 30.3763 95.0182 26.4114C93.7969 22.394 93.3077 18.7005 94.0742 16.0648L91.6737 15.3666ZM111.806 23.9209C107.123 19.9999 102.773 16.7437 99.425 14.9192C97.7769 14.0211 96.2255 13.3867 94.931 13.2856C94.2657 13.2337 93.5598 13.3136 92.937 13.6791C92.2863 14.061 91.8775 14.6657 91.6737 15.3666L94.0742 16.0648C94.1316 15.8675 94.1934 15.8405 94.2024 15.8352C94.2396 15.8134 94.3828 15.7505 94.7363 15.7781C95.4792 15.8361 96.6431 16.2504 98.2288 17.1145C101.348 18.8143 105.541 21.9362 110.201 25.8377L111.806 23.9209ZM130.84 18.371C123.338 18.371 116.216 20.3826 110.372 23.8002L111.634 25.9583C117.092 22.7667 123.778 20.871 130.84 20.871V18.371ZM149.492 22.8042C144.017 19.9958 137.583 18.371 130.84 18.371V20.871C137.186 20.871 143.229 22.4014 148.351 25.0286L149.492 22.8042ZM171.383 11.7265C171.155 10.9399 170.672 10.2902 169.912 9.92888C169.205 9.59238 168.414 9.58081 167.676 9.69994C166.216 9.93555 164.426 10.7741 162.485 11.9362C158.552 14.2903 153.458 18.3081 148.1 22.9738L149.742 24.8591C155.077 20.213 160.034 16.3166 163.769 14.0813C165.661 12.9486 167.11 12.3237 168.074 12.168C168.549 12.0914 168.767 12.1522 168.838 12.1862C168.857 12.1953 168.922 12.2143 168.983 12.4246L171.383 11.7265Z" fill="#4344C6"/>
<path d="M160.007 32.7725L153.68 26.4455C153.315 26.08 153.27 25.5028 153.611 25.1152C156.039 22.3629 161.582 18.1933 164.493 17.0022C165.001 16.7942 165.529 17.1234 165.573 17.6709C165.9 21.7577 163.095 29.1136 161.654 32.4726C161.369 33.1347 160.517 33.2819 160.007 32.7725Z" fill="#D5FAFC"/>
<path d="M101.654 33.8111L107.283 27.9009C107.633 27.5336 107.67 26.9667 107.323 26.5971C105.163 24.2973 100.511 21.5279 97.9211 20.6141C97.403 20.4313 96.8758 20.7627 96.834 21.3105C96.5648 24.8392 98.7395 30.6092 99.9883 33.5252C100.276 34.1975 101.15 34.3406 101.654 33.8111Z" fill="#D5FAFC"/>
<path d="M131.143 42.4424H116.141V44.776H131.143V42.4424Z" fill="#191D5D" stroke="#4748CE" stroke-width="2.2119" stroke-miterlimit="10" stroke-linecap="round" stroke-linejoin="round"/>
<path d="M97.4512 38.605C95.8088 38.605 94.443 39.9211 94.4375 41.5634C94.4375 41.5745 94.4375 41.5855 94.4375 41.5966C94.4375 48.3926 100.493 53.9003 107.969 53.9003C115.439 53.9003 121.5 48.3926 121.5 41.5966C121.5 41.5855 121.5 41.5745 121.5 41.5634C121.494 39.9211 120.129 38.605 118.486 38.605H97.4512Z" fill="#191D5D" stroke="#4748CE" stroke-width="2.2119" stroke-miterlimit="10" stroke-linecap="round" stroke-linejoin="round"/>
<path d="M132.131 38.5496C130.489 38.5496 129.123 39.8656 129.117 41.508C129.117 41.519 129.117 41.5301 129.117 41.5411C129.117 48.3372 135.172 53.8448 142.648 53.8448C150.119 53.8448 156.18 48.3372 156.18 41.5411C156.18 41.5301 156.18 41.519 156.18 41.508C156.174 39.8656 154.808 38.5496 153.166 38.5496H132.131Z" fill="#191D5D" stroke="#4748CE" stroke-width="2.2119" stroke-miterlimit="10" stroke-linecap="round" stroke-linejoin="round"/>
<path d="M116.928 43.1836C117.116 44.4333 114.611 46.2637 112.156 46.2581C109.717 46.2526 107.207 44.4389 107.384 43.1836C107.566 41.862 109.872 42.0168 112.261 42.0168C113.323 42.0168 116.751 42.0113 116.928 43.1836Z" fill="#CFE2E8"/>
<path d="M152.971 42.5972C153.159 43.8469 150.654 45.6772 148.199 45.6717C145.76 45.6662 143.25 43.8524 143.427 42.5972C143.609 41.2756 145.915 41.4304 148.304 41.4304C149.366 41.4304 152.794 41.4249 152.971 42.5972Z" fill="#CFE2E8"/>
<path d="M129.381 51.9219C129.381 53.4548 126.64 56.2042 125.112 56.2042C123.584 56.2042 120.922 53.4548 120.922 51.9219C120.922 50.389 123.584 49.8601 125.112 49.8601C126.64 49.8601 129.381 50.389 129.381 51.9219Z" fill="#4748CE"/>
<path fill-rule="evenodd" clip-rule="evenodd" d="M124.858 58.5159C124.787 58.505 124.721 58.5537 124.707 58.6246C124.297 60.8303 122.066 62.9823 119.343 63.5113C117.964 63.7792 116.465 63.6282 115.023 62.8567C113.605 62.0982 112.228 60.7322 111.073 58.5452C111.04 58.4815 110.961 58.456 110.897 58.4892L110.742 58.5692C110.678 58.6023 110.653 58.6815 110.687 58.7453C111.874 60.9944 113.308 62.4326 114.818 63.2404C116.355 64.0625 117.956 64.224 119.426 63.9384C121.88 63.4617 123.988 61.7319 124.825 59.7309C124.872 59.6183 125.043 59.6151 125.095 59.7253C125.485 60.5472 126.132 61.3178 126.932 61.9717C128.104 62.9297 129.626 63.6556 131.22 63.939C132.815 64.2226 134.492 64.0647 135.963 63.2382C137.409 62.425 138.633 60.9771 139.379 58.7198C139.401 58.6514 139.364 58.5775 139.295 58.5556L139.129 58.5028C139.06 58.4809 138.987 58.5193 138.964 58.5877C138.246 60.7567 137.086 62.1078 135.749 62.8589C134.385 63.626 132.814 63.7805 131.296 63.5107C129.778 63.2406 128.324 62.5471 127.208 61.6348C126.132 60.7555 125.389 59.6894 125.182 58.6246C125.168 58.5539 125.101 58.505 125.03 58.5159L124.964 58.5261C124.951 58.5281 124.938 58.5281 124.924 58.5261L124.858 58.5159Z" fill="#191D5D"/>
<path d="M119.343 63.5113L119.486 64.2475H119.486L119.343 63.5113ZM115.023 62.8567L115.377 62.1954V62.1954L115.023 62.8567ZM114.818 63.2404L115.172 62.5791L114.818 63.2404ZM119.426 63.9384L119.283 63.2022L119.426 63.9384ZM126.932 61.9717L126.458 62.5524V62.5524L126.932 61.9717ZM131.22 63.939L131.351 63.2006L131.22 63.939ZM135.963 63.2382L135.595 62.5844L135.963 63.2382ZM135.749 62.8589L136.117 63.5127L135.749 62.8589ZM131.296 63.5107L131.427 62.7722L131.296 63.5107ZM127.208 61.6348L126.733 62.2155V62.2155L127.208 61.6348ZM124.964 58.5261L124.85 57.7848L124.964 58.5261ZM124.924 58.5261L125.038 57.7848L124.924 58.5261ZM125.182 58.6246L124.445 58.7679L125.182 58.6246ZM124.825 59.7309L125.517 60.0204L124.825 59.7309ZM125.095 59.7253L125.773 59.4036L125.095 59.7253ZM110.742 58.5692L110.397 57.9031L110.742 58.5692ZM110.687 58.7453L111.35 58.3952L110.687 58.7453ZM110.897 58.4892L110.552 57.8231L110.897 58.4892ZM139.379 58.7198L138.667 58.4844L139.379 58.7198ZM139.295 58.5556L139.067 59.2702L139.295 58.5556ZM138.964 58.5877L139.676 58.8234L138.964 58.5877ZM124.707 58.6246L123.97 58.4873L124.707 58.6246ZM124.858 58.5159L124.972 57.7747L124.858 58.5159ZM119.486 64.2475C122.46 63.6698 124.969 61.3186 125.445 58.7619L123.97 58.4873C123.625 60.342 121.672 62.2948 119.2 62.775L119.486 64.2475ZM114.67 63.518C116.275 64.3768 117.95 64.5458 119.486 64.2475L119.2 62.775C117.977 63.0126 116.656 62.8796 115.377 62.1954L114.67 63.518ZM110.41 58.8955C111.62 61.1865 113.094 62.6753 114.67 63.518L115.377 62.1954C114.117 61.5211 112.837 60.278 111.737 58.195L110.41 58.8955ZM111.087 59.2352L111.241 59.1552L110.552 57.8231L110.397 57.9031L111.087 59.2352ZM115.172 62.5791C113.819 61.8555 112.482 60.5403 111.35 58.3952L110.024 59.0954C111.266 61.4485 112.797 63.0096 114.464 63.9017L115.172 62.5791ZM119.283 63.2022C117.969 63.4573 116.545 63.3139 115.172 62.5791L114.464 63.9017C116.164 64.8111 117.943 64.9906 119.569 64.6746L119.283 63.2022ZM124.133 59.4414C123.399 61.1966 121.506 62.7702 119.283 63.2022L119.569 64.6746C122.253 64.1532 124.577 62.2672 125.517 60.0204L124.133 59.4414ZM124.418 60.047C124.866 60.9905 125.592 61.8449 126.458 62.5524L127.407 61.391C126.672 60.7906 126.105 60.1038 125.773 59.4036L124.418 60.047ZM126.458 62.5524C127.726 63.5891 129.365 64.371 131.089 64.6775L131.351 63.2006C129.887 62.9403 128.483 62.2703 127.407 61.391L126.458 62.5524ZM131.089 64.6775C132.816 64.9846 134.677 64.821 136.33 63.892L135.595 62.5844C134.307 63.3084 132.813 63.4606 131.351 63.2006L131.089 64.6775ZM136.33 63.892C137.965 62.973 139.296 61.3604 140.091 58.9552L138.667 58.4844C137.97 60.5937 136.854 61.877 135.595 62.5844L136.33 63.892ZM139.523 57.841L139.357 57.7881L138.901 59.2174L139.067 59.2702L139.523 57.841ZM138.252 58.3521C137.583 60.373 136.53 61.5596 135.382 62.2051L136.117 63.5127C137.641 62.6559 138.909 61.1404 139.676 58.8234L138.252 58.3521ZM135.382 62.2051C134.2 62.8697 132.812 63.0185 131.427 62.7722L131.165 64.2491C132.815 64.5425 134.57 64.3822 136.117 63.5127L135.382 62.2051ZM131.427 62.7722C130.038 62.5252 128.702 61.8877 127.682 61.0541L126.733 62.2155C127.945 63.2066 129.517 63.956 131.165 64.2491L131.427 62.7722ZM127.682 61.0541C126.691 60.2436 126.081 59.3188 125.918 58.4814L124.445 58.7679C124.697 60.0601 125.573 61.2673 126.733 62.2155L127.682 61.0541ZM124.916 57.7747L124.85 57.7848L125.078 59.2674L125.144 59.2572L124.916 57.7747ZM124.744 59.2572L124.81 59.2674L125.038 57.7848L124.972 57.7747L124.744 59.2572ZM124.85 57.7848C124.912 57.7752 124.976 57.7752 125.038 57.7848L124.81 59.2674C124.899 59.281 124.989 59.281 125.078 59.2674L124.85 57.7848ZM125.918 58.4814C125.831 58.0336 125.403 57.6997 124.916 57.7747L125.144 59.2572C124.799 59.3103 124.505 59.0741 124.445 58.7679L125.918 58.4814ZM125.517 60.0204C125.406 60.2862 125.159 60.3906 124.973 60.3944C124.788 60.3982 124.54 60.3046 124.418 60.047L125.773 59.4036C125.598 59.0358 125.238 58.8887 124.943 58.8947C124.647 58.9007 124.292 59.0631 124.133 59.4414L125.517 60.0204ZM110.397 57.9031C109.964 58.1275 109.795 58.6628 110.024 59.0954L111.35 58.3952C111.511 58.7002 111.392 59.0771 111.087 59.2352L110.397 57.9031ZM111.737 58.195C111.514 57.7737 110.988 57.5972 110.552 57.8231L111.241 59.1552C110.933 59.3148 110.565 59.1893 110.41 58.8955L111.737 58.195ZM140.091 58.9552C140.245 58.4887 139.987 57.989 139.523 57.841L139.067 59.2702C138.74 59.1659 138.558 58.814 138.667 58.4844L140.091 58.9552ZM139.357 57.7881C138.888 57.6388 138.401 57.902 138.252 58.3521L139.676 58.8234C139.573 59.1366 139.233 59.3229 138.901 59.2174L139.357 57.7881ZM125.445 58.7619C125.386 59.0756 125.087 59.3099 124.744 59.2572L124.972 57.7747C124.487 57.7 124.055 58.0318 123.97 58.4873L125.445 58.7619Z" fill="#191D5D"/>
<path d="M144.929 27.9658C144.04 22.5189 145.503 9.58428 158.469 1.42065" stroke="#4344C6" stroke-width="1.60071" stroke-linecap="round"/>
<path d="M139.59 27.499C138.478 24.0086 136.922 15.4937 139.59 9.35767" stroke="#4344C6" stroke-width="1.60071" stroke-linecap="round"/>
<path d="M112.448 29.0855C113.249 24.3052 111.932 12.9534 100.262 5.78882" stroke="#4344C6" stroke-width="1.60071" stroke-linecap="round"/>
<path d="M117.734 29.0855C118.833 26.0039 120.371 18.4864 117.734 13.0691" stroke="#4344C6" stroke-width="1.60071" stroke-linecap="round"/>
<path d="M155.59 52.382C162.555 48.3128 171.562 43.9296 186.895 51.1324" stroke="#4344C6" stroke-width="1.60071" stroke-linecap="round"/>
<path d="M157.774 55.2177C162.166 54.0511 169.946 53.9985 175.975 58.934" stroke="#4344C6" stroke-width="1.60071" stroke-linecap="round"/>
<path d="M102.448 55.6582C98.0795 53.2 89.7072 54.2022 85.7031 57.4783" stroke="#4344C6" stroke-width="1.60071" stroke-linecap="round"/>
<path d="M100.63 58.2062C98.522 57.0397 95.1514 58.7308 92.2578 63.6664" stroke="#4344C6" stroke-width="1.60071" stroke-linecap="round"/>
</svg>
