<svg width="332" height="143" viewBox="0 0 332 143" fill="none" xmlns="http://www.w3.org/2000/svg">
<path fill-rule="evenodd" clip-rule="evenodd" d="M390 75.4608L364.875 87.854C339.75 100.247 289.5 125.034 239.25 118.837C189 112.641 138.75 75.4608 88.5 53.7726C38.25 32.0844 -12 25.8878 -62.25 35.1827C-112.5 44.4777 -162.75 69.2641 -187.875 81.6574L-213 94.0506V187H-187.875C-162.75 187 -112.5 187 -62.25 187C-12 187 38.25 187 88.5 187C138.75 187 189 187 239.25 187C289.5 187 339.75 187 364.875 187H390V75.4608Z" fill="#828CFC"/>
<path d="M143.322 123.702C142.336 120.088 142.977 118.101 143.929 117.083C144.611 116.354 145.689 116.27 146.687 116.27H230.648C236.724 116.27 240.599 125.665 242.878 134.45C244.309 139.966 239.903 145.069 234.204 145.069H155.863C149.825 145.069 147.502 140.424 147.038 139.03L143.322 123.702Z" fill="#191D5D" stroke="#191D5D" stroke-width="2.787"/>
<path d="M162.141 129.37C178.13 129.37 194.12 129.37 210.109 129.37H162.141Z" fill="#BEDCFC"/>
<path d="M162.141 129.37C178.13 129.37 194.12 129.37 210.109 129.37" stroke="#828CFC" stroke-width="2.787" stroke-miterlimit="10" stroke-linecap="round" stroke-linejoin="round"/>
<path d="M156.984 123.979C172.974 123.979 188.964 123.979 204.953 123.979H156.984Z" fill="#BEDCFC"/>
<path d="M156.984 123.979C172.974 123.979 188.964 123.979 204.953 123.979" stroke="#828CFC" stroke-width="2.787" stroke-miterlimit="10" stroke-linecap="round" stroke-linejoin="round"/>
<path d="M206.348 140.166H177.424C176.07 140.166 174.969 139.065 174.969 137.71V136.398C174.969 135.043 176.07 133.942 177.424 133.942H206.348C207.703 133.942 208.804 135.043 208.804 136.398V137.71C208.804 139.065 207.703 140.166 206.348 140.166Z" fill="#BEDCFC" stroke="#828CFC" stroke-width="2.787" stroke-miterlimit="10" stroke-linecap="round" stroke-linejoin="round"/>
<path d="M226.163 116.901H149.559C144.832 116.901 141 113.07 141 108.342V64.7977C141 60.0699 144.832 56.2383 149.559 56.2383H226.163C230.89 56.2383 234.722 60.0699 234.722 64.7977V108.342C234.722 113.07 230.89 116.901 226.163 116.901Z" fill="#191D5D" stroke="#191D5D" stroke-width="2.787" stroke-miterlimit="10" stroke-linecap="round" stroke-linejoin="round"/>
<path d="M218.602 111.228H157.029C152.146 111.228 148.188 107.269 148.188 102.386V70.5343C148.188 65.6513 152.146 61.6927 157.029 61.6927H218.602C223.485 61.6927 227.444 65.6513 227.444 70.5343V102.386C227.444 107.269 223.485 111.228 218.602 111.228Z" fill="#D0D4FF" stroke="#4748CE" stroke-width="2.787" stroke-miterlimit="10" stroke-linecap="round" stroke-linejoin="round"/>
<path d="M155.112 78.7384C155.112 78.4461 155.214 78.1855 155.42 77.9564C155.625 77.7273 155.87 77.6128 156.154 77.6128C156.344 77.6128 157.414 77.9959 159.365 78.7621C159.302 77.6641 159.27 76.9058 159.27 76.4872C159.27 76.1791 159.369 75.9263 159.567 75.7288C159.772 75.5314 160.025 75.4326 160.325 75.4326C160.633 75.4326 160.886 75.5314 161.083 75.7288C161.289 75.9263 161.391 76.1791 161.391 76.4872C161.391 76.9216 161.415 77.5891 161.462 78.4896C163.358 78.2052 164.519 78.063 164.946 78.063C165.238 78.063 165.479 78.1697 165.669 78.3829C165.866 78.5883 165.965 78.8411 165.965 79.1413C165.965 79.6942 165.669 80.0339 165.076 80.1603C164.523 80.2787 163.548 80.4209 162.15 80.5868C162.608 81.0055 163.106 81.5426 163.643 82.1982C164.346 83.0671 164.697 83.6714 164.697 84.0111C164.697 84.2955 164.587 84.5443 164.365 84.7576C164.144 84.9629 163.891 85.0656 163.607 85.0656C163.307 85.0656 163.034 84.9234 162.79 84.6391C162.308 83.9913 161.522 83.0632 160.432 81.8546C158.804 83.6951 157.702 84.6154 157.126 84.6154C156.841 84.6154 156.589 84.5048 156.368 84.2836C156.154 84.0624 156.048 83.8097 156.048 83.5253C156.048 83.2567 156.174 82.996 156.427 82.7433C156.932 82.3167 157.667 81.6334 158.631 80.6934C157.983 80.4881 157.035 80.1445 155.787 79.6626C155.337 79.4651 155.112 79.1571 155.112 78.7384ZM167.979 78.7384C167.979 78.4461 168.082 78.1855 168.287 77.9564C168.493 77.7273 168.738 77.6128 169.022 77.6128C169.212 77.6128 170.282 77.9959 172.233 78.7621C172.17 77.6641 172.138 76.9058 172.138 76.4872C172.138 76.1791 172.237 75.9263 172.434 75.7288C172.64 75.5314 172.893 75.4326 173.193 75.4326C173.501 75.4326 173.754 75.5314 173.951 75.7288C174.156 75.9263 174.259 76.1791 174.259 76.4872C174.259 76.9216 174.283 77.5891 174.33 78.4896C176.226 78.2052 177.387 78.063 177.814 78.063C178.106 78.063 178.347 78.1697 178.536 78.3829C178.734 78.5883 178.833 78.8411 178.833 79.1413C178.833 79.6942 178.536 80.0339 177.944 80.1603C177.391 80.2787 176.416 80.4209 175.017 80.5868C175.476 81.0055 175.973 81.5426 176.51 82.1982C177.213 83.0671 177.565 83.6714 177.565 84.0111C177.565 84.2955 177.454 84.5443 177.233 84.7576C177.012 84.9629 176.759 85.0656 176.475 85.0656C176.175 85.0656 175.902 84.9234 175.657 84.6391C175.175 83.9913 174.389 83.0632 173.299 81.8546C171.672 83.6951 170.57 84.6154 169.994 84.6154C169.709 84.6154 169.456 84.5048 169.235 84.2836C169.022 84.0624 168.915 83.8097 168.915 83.5253C168.915 83.2567 169.042 82.996 169.294 82.7433C169.8 82.3167 170.535 81.6334 171.498 80.6934C170.851 80.4881 169.903 80.1445 168.655 79.6626C168.204 79.4651 167.979 79.1571 167.979 78.7384ZM180.847 78.7384C180.847 78.4461 180.95 78.1855 181.155 77.9564C181.36 77.7273 181.605 77.6128 181.89 77.6128C182.079 77.6128 183.15 77.9959 185.101 78.7621C185.037 77.6641 185.006 76.9058 185.006 76.4872C185.006 76.1791 185.105 75.9263 185.302 75.7288C185.507 75.5314 185.76 75.4326 186.06 75.4326C186.368 75.4326 186.621 75.5314 186.819 75.7288C187.024 75.9263 187.127 76.1791 187.127 76.4872C187.127 76.9216 187.15 77.5891 187.198 78.4896C189.094 78.2052 190.255 78.063 190.681 78.063C190.974 78.063 191.215 78.1697 191.404 78.3829C191.602 78.5883 191.7 78.8411 191.7 79.1413C191.7 79.6942 191.404 80.0339 190.812 80.1603C190.259 80.2787 189.283 80.4209 187.885 80.5868C188.343 81.0055 188.841 81.5426 189.378 82.1982C190.081 83.0671 190.433 83.6714 190.433 84.0111C190.433 84.2955 190.322 84.5443 190.101 84.7576C189.88 84.9629 189.627 85.0656 189.342 85.0656C189.042 85.0656 188.77 84.9234 188.525 84.6391C188.043 83.9913 187.257 83.0632 186.167 81.8546C184.54 83.6951 183.438 84.6154 182.861 84.6154C182.577 84.6154 182.324 84.5048 182.103 84.2836C181.89 84.0624 181.783 83.8097 181.783 83.5253C181.783 83.2567 181.909 82.996 182.162 82.7433C182.668 82.3167 183.402 81.6334 184.366 80.6934C183.718 80.4881 182.77 80.1445 181.522 79.6626C181.072 79.4651 180.847 79.1571 180.847 78.7384ZM193.715 78.7384C193.715 78.4461 193.817 78.1855 194.023 77.9564C194.228 77.7273 194.473 77.6128 194.757 77.6128C194.947 77.6128 196.017 77.9959 197.968 78.7621C197.905 77.6641 197.874 76.9058 197.874 76.4872C197.874 76.1791 197.972 75.9263 198.17 75.7288C198.375 75.5314 198.628 75.4326 198.928 75.4326C199.236 75.4326 199.489 75.5314 199.686 75.7288C199.892 75.9263 199.994 76.1791 199.994 76.4872C199.994 76.9216 200.018 77.5891 200.066 78.4896C201.961 78.2052 203.123 78.063 203.549 78.063C203.841 78.063 204.082 78.1697 204.272 78.3829C204.469 78.5883 204.568 78.8411 204.568 79.1413C204.568 79.6942 204.272 80.0339 203.679 80.1603C203.126 80.2787 202.151 80.4209 200.753 80.5868C201.211 81.0055 201.709 81.5426 202.246 82.1982C202.949 83.0671 203.3 83.6714 203.3 84.0111C203.3 84.2955 203.19 84.5443 202.969 84.7576C202.747 84.9629 202.495 85.0656 202.21 85.0656C201.91 85.0656 201.638 84.9234 201.393 84.6391C200.911 83.9913 200.125 83.0632 199.035 81.8546C197.408 83.6951 196.306 84.6154 195.729 84.6154C195.445 84.6154 195.192 84.5048 194.971 84.2836C194.757 84.0624 194.651 83.8097 194.651 83.5253C194.651 83.2567 194.777 82.996 195.03 82.7433C195.535 82.3167 196.27 81.6334 197.234 80.6934C196.586 80.4881 195.638 80.1445 194.39 79.6626C193.94 79.4651 193.715 79.1571 193.715 78.7384ZM206.582 78.7384C206.582 78.4461 206.685 78.1855 206.89 77.9564C207.096 77.7273 207.341 77.6128 207.625 77.6128C207.815 77.6128 208.885 77.9959 210.836 78.7621C210.773 77.6641 210.741 76.9058 210.741 76.4872C210.741 76.1791 210.84 75.9263 211.037 75.7288C211.243 75.5314 211.496 75.4326 211.796 75.4326C212.104 75.4326 212.357 75.5314 212.554 75.7288C212.759 75.9263 212.862 76.1791 212.862 76.4872C212.862 76.9216 212.886 77.5891 212.933 78.4896C214.829 78.2052 215.99 78.063 216.417 78.063C216.709 78.063 216.95 78.1697 217.14 78.3829C217.337 78.5883 217.436 78.8411 217.436 79.1413C217.436 79.6942 217.14 80.0339 216.547 80.1603C215.994 80.2787 215.019 80.4209 213.62 80.5868C214.079 81.0055 214.576 81.5426 215.113 82.1982C215.816 83.0671 216.168 83.6714 216.168 84.0111C216.168 84.2955 216.057 84.5443 215.836 84.7576C215.615 84.9629 215.362 85.0656 215.078 85.0656C214.778 85.0656 214.505 84.9234 214.26 84.6391C213.778 83.9913 212.993 83.0632 211.902 81.8546C210.275 83.6951 209.173 84.6154 208.597 84.6154C208.312 84.6154 208.059 84.5048 207.838 84.2836C207.625 84.0624 207.518 83.8097 207.518 83.5253C207.518 83.2567 207.645 82.996 207.898 82.7433C208.403 82.3167 209.138 81.6334 210.101 80.6934C209.454 80.4881 208.506 80.1445 207.258 79.6626C206.807 79.4651 206.582 79.1571 206.582 78.7384Z" fill="#4748CE"/>
<path d="M157.527 92.5018C157.527 92.2826 157.604 92.0871 157.758 91.9153C157.912 91.7435 158.096 91.6576 158.309 91.6576C158.451 91.6576 159.254 91.9449 160.717 92.5196C160.67 91.6961 160.646 91.1274 160.646 90.8134C160.646 90.5823 160.72 90.3928 160.868 90.2446C161.022 90.0965 161.212 90.0225 161.437 90.0225C161.668 90.0225 161.858 90.0965 162.006 90.2446C162.16 90.3928 162.237 90.5823 162.237 90.8134C162.237 91.1392 162.255 91.6398 162.29 92.3152C163.712 92.1019 164.583 91.9953 164.903 91.9953C165.122 91.9953 165.303 92.0753 165.445 92.2352C165.593 92.3893 165.667 92.5788 165.667 92.804C165.667 93.2187 165.445 93.4734 165.001 93.5682C164.586 93.6571 163.854 93.7637 162.806 93.8881C163.149 94.2021 163.522 94.605 163.925 95.0967C164.453 95.7484 164.716 96.2016 164.716 96.4563C164.716 96.6696 164.633 96.8562 164.467 97.0162C164.302 97.1702 164.112 97.2472 163.899 97.2472C163.674 97.2472 163.469 97.1406 163.286 96.9273C162.924 96.4415 162.335 95.7454 161.517 94.839C160.297 96.2194 159.47 96.9095 159.038 96.9095C158.824 96.9095 158.635 96.8266 158.469 96.6607C158.309 96.4948 158.229 96.3053 158.229 96.092C158.229 95.8906 158.324 95.6951 158.513 95.5055C158.893 95.1856 159.444 94.6731 160.166 93.9681C159.681 93.8141 158.97 93.5564 158.034 93.195C157.696 93.0469 157.527 92.8158 157.527 92.5018ZM167.178 92.5018C167.178 92.2826 167.255 92.0871 167.409 91.9153C167.563 91.7435 167.747 91.6576 167.96 91.6576C168.102 91.6576 168.905 91.9449 170.368 92.5196C170.321 91.6961 170.297 91.1274 170.297 90.8134C170.297 90.5823 170.371 90.3928 170.519 90.2446C170.673 90.0965 170.863 90.0225 171.088 90.0225C171.319 90.0225 171.509 90.0965 171.657 90.2446C171.811 90.3928 171.888 90.5823 171.888 90.8134C171.888 91.1392 171.905 91.6398 171.941 92.3152C173.363 92.1019 174.234 91.9953 174.554 91.9953C174.773 91.9953 174.954 92.0753 175.096 92.2352C175.244 92.3893 175.318 92.5788 175.318 92.804C175.318 93.2187 175.096 93.4734 174.651 93.5682C174.237 93.6571 173.505 93.7637 172.456 93.8881C172.8 94.2021 173.173 94.605 173.576 95.0967C174.103 95.7484 174.367 96.2016 174.367 96.4563C174.367 96.6696 174.284 96.8562 174.118 97.0162C173.952 97.1702 173.763 97.2472 173.549 97.2472C173.324 97.2472 173.12 97.1406 172.936 96.9273C172.575 96.4415 171.985 95.7454 171.168 94.839C169.947 96.2194 169.121 96.9095 168.689 96.9095C168.475 96.9095 168.286 96.8266 168.12 96.6607C167.96 96.4948 167.88 96.3053 167.88 96.092C167.88 95.8906 167.975 95.6951 168.164 95.5055C168.543 95.1856 169.094 94.6731 169.817 93.9681C169.331 93.8141 168.62 93.5564 167.684 93.195C167.347 93.0469 167.178 92.8158 167.178 92.5018ZM176.829 92.5018C176.829 92.2826 176.906 92.0871 177.06 91.9153C177.214 91.7435 177.397 91.6576 177.611 91.6576C177.753 91.6576 178.556 91.9449 180.019 92.5196C179.971 91.6961 179.948 91.1274 179.948 90.8134C179.948 90.5823 180.022 90.3928 180.17 90.2446C180.324 90.0965 180.514 90.0225 180.739 90.0225C180.97 90.0225 181.159 90.0965 181.307 90.2446C181.461 90.3928 181.538 90.5823 181.538 90.8134C181.538 91.1392 181.556 91.6398 181.592 92.3152C183.014 92.1019 183.885 91.9953 184.204 91.9953C184.424 91.9953 184.604 92.0753 184.747 92.2352C184.895 92.3893 184.969 92.5788 184.969 92.804C184.969 93.2187 184.747 93.4734 184.302 93.5682C183.887 93.6571 183.156 93.7637 182.107 93.8881C182.451 94.2021 182.824 94.605 183.227 95.0967C183.754 95.7484 184.018 96.2016 184.018 96.4563C184.018 96.6696 183.935 96.8562 183.769 97.0162C183.603 97.1702 183.414 97.2472 183.2 97.2472C182.975 97.2472 182.771 97.1406 182.587 96.9273C182.226 96.4415 181.636 95.7454 180.819 94.839C179.598 96.2194 178.772 96.9095 178.339 96.9095C178.126 96.9095 177.936 96.8266 177.771 96.6607C177.611 96.4948 177.531 96.3053 177.531 96.092C177.531 95.8906 177.625 95.6951 177.815 95.5055C178.194 95.1856 178.745 94.6731 179.468 93.9681C178.982 93.8141 178.271 93.5564 177.335 93.195C176.997 93.0469 176.829 92.8158 176.829 92.5018ZM186.479 92.5018C186.479 92.2826 186.556 92.0871 186.71 91.9153C186.864 91.7435 187.048 91.6576 187.261 91.6576C187.404 91.6576 188.206 91.9449 189.67 92.5196C189.622 91.6961 189.599 91.1274 189.599 90.8134C189.599 90.5823 189.673 90.3928 189.821 90.2446C189.975 90.0965 190.164 90.0225 190.389 90.0225C190.621 90.0225 190.81 90.0965 190.958 90.2446C191.112 90.3928 191.189 90.5823 191.189 90.8134C191.189 91.1392 191.207 91.6398 191.243 92.3152C192.664 92.1019 193.535 91.9953 193.855 91.9953C194.074 91.9953 194.255 92.0753 194.397 92.2352C194.545 92.3893 194.619 92.5788 194.619 92.804C194.619 93.2187 194.397 93.4734 193.953 93.5682C193.538 93.6571 192.807 93.7637 191.758 93.8881C192.102 94.2021 192.475 94.605 192.878 95.0967C193.405 95.7484 193.669 96.2016 193.669 96.4563C193.669 96.6696 193.586 96.8562 193.42 97.0162C193.254 97.1702 193.064 97.2472 192.851 97.2472C192.626 97.2472 192.422 97.1406 192.238 96.9273C191.876 96.4415 191.287 95.7454 190.469 94.839C189.249 96.2194 188.423 96.9095 187.99 96.9095C187.777 96.9095 187.587 96.8266 187.421 96.6607C187.261 96.4948 187.181 96.3053 187.181 96.092C187.181 95.8906 187.276 95.6951 187.466 95.5055C187.845 95.1856 188.396 94.6731 189.119 93.9681C188.633 93.8141 187.922 93.5564 186.986 93.195C186.648 93.0469 186.479 92.8158 186.479 92.5018ZM196.13 92.5018C196.13 92.2826 196.207 92.0871 196.361 91.9153C196.515 91.7435 196.699 91.6576 196.912 91.6576C197.054 91.6576 197.857 91.9449 199.32 92.5196C199.273 91.6961 199.249 91.1274 199.249 90.8134C199.249 90.5823 199.323 90.3928 199.472 90.2446C199.626 90.0965 199.815 90.0225 200.04 90.0225C200.271 90.0225 200.461 90.0965 200.609 90.2446C200.763 90.3928 200.84 90.5823 200.84 90.8134C200.84 91.1392 200.858 91.6398 200.893 92.3152C202.315 92.1019 203.186 91.9953 203.506 91.9953C203.725 91.9953 203.906 92.0753 204.048 92.2352C204.196 92.3893 204.27 92.5788 204.27 92.804C204.27 93.2187 204.048 93.4734 203.604 93.5682C203.189 93.6571 202.457 93.7637 201.409 93.8881C201.752 94.2021 202.126 94.605 202.528 95.0967C203.056 95.7484 203.319 96.2016 203.319 96.4563C203.319 96.6696 203.236 96.8562 203.071 97.0162C202.905 97.1702 202.715 97.2472 202.502 97.2472C202.277 97.2472 202.072 97.1406 201.889 96.9273C201.527 96.4415 200.938 95.7454 200.12 94.839C198.9 96.2194 198.073 96.9095 197.641 96.9095C197.428 96.9095 197.238 96.8266 197.072 96.6607C196.912 96.4948 196.832 96.3053 196.832 96.092C196.832 95.8906 196.927 95.6951 197.117 95.5055C197.496 95.1856 198.047 94.6731 198.769 93.9681C198.284 93.8141 197.573 93.5564 196.637 93.195C196.299 93.0469 196.13 92.8158 196.13 92.5018Z" fill="#4748CE"/>
<path d="M215.767 142.442C213.364 142.442 210.464 141.312 209.768 138.824C209.626 138.319 209.576 137.801 209.619 137.282C207.949 136.706 206.726 135.519 206.292 133.956C206.072 133.167 206.072 132.342 206.292 131.532C205.909 130.928 205.681 130.288 205.624 129.62C205.433 127.324 207.131 125.277 207.657 124.702C208.247 124.062 209.427 122.982 210.692 122.982C210.841 122.982 210.976 122.996 211.111 123.024C212.206 123.245 213.585 123.351 215.219 123.351C218.915 123.351 222.959 122.783 224.587 122.477C228.382 121.774 231.495 120.43 237.046 115.349C245.824 107.317 247.92 103.82 249.455 101.269C250.159 100.089 250.827 98.9803 251.943 97.7294C252.213 97.4238 252.597 97.2532 253.009 97.2532C253.023 97.2532 253.03 97.2532 253.045 97.2532C253.464 97.2603 253.855 97.4593 254.118 97.7862L265.298 111.695C265.753 112.264 265.71 113.081 265.198 113.593C263.258 115.533 261.247 117.865 259.121 120.331C254.395 125.811 249.512 131.475 244.381 134.041C236.371 138.042 229.292 138.646 226.264 138.909L225.845 138.945C223.769 139.13 221.68 139.919 219.789 141.226C219.1 141.703 218.347 142.051 217.551 142.243C216.975 142.371 216.378 142.442 215.767 142.442Z" fill="#BEDCFC"/>
<path d="M252.999 98.6746L264.179 112.584C257.911 118.852 250.853 129.201 243.731 132.761C235.551 136.855 228.28 137.289 225.7 137.523C223.262 137.744 220.974 138.661 218.962 140.054C218.472 140.395 217.882 140.686 217.193 140.857C216.738 140.971 216.254 141.02 215.764 141.02C213.724 141.02 211.599 140.082 211.137 138.44C210.931 137.694 211.023 136.926 211.336 136.209C209.538 136.031 208.067 135.057 207.654 133.579C207.441 132.818 207.541 132.029 207.882 131.29C207.505 130.871 207.1 130.26 207.036 129.506C206.851 127.282 209.424 124.41 210.689 124.41C210.739 124.41 210.789 124.417 210.831 124.425C212.125 124.68 213.646 124.78 215.217 124.78C219.161 124.78 223.369 124.154 224.847 123.884C229.175 123.081 232.53 121.411 238.003 116.407C250.817 104.673 249.616 102.491 252.999 98.6746ZM252.999 95.8317C252.189 95.8317 251.414 96.18 250.874 96.7912C249.673 98.1416 248.977 99.3072 248.23 100.544C246.66 103.159 244.705 106.415 236.084 114.304C230.782 119.151 227.861 120.43 224.328 121.084C222.743 121.376 218.806 121.93 215.217 121.93C213.682 121.93 212.395 121.83 211.393 121.631C211.165 121.589 210.931 121.56 210.696 121.56C208.976 121.56 207.534 122.74 206.617 123.735C205.991 124.417 203.966 126.862 204.207 129.734C204.264 130.423 204.463 131.105 204.79 131.752C204.648 132.619 204.691 133.486 204.925 134.332C205.401 136.045 206.588 137.41 208.216 138.227C208.252 138.554 208.308 138.881 208.401 139.201C209.168 141.944 212.196 143.863 215.764 143.863C216.489 143.863 217.2 143.778 217.868 143.614C218.834 143.38 219.744 142.968 220.576 142.385C222.26 141.212 224.122 140.509 225.949 140.345L226.368 140.31C229.474 140.047 236.745 139.421 244.997 135.299C250.384 132.605 255.359 126.834 260.178 121.248C262.289 118.803 264.279 116.493 266.183 114.588C267.207 113.565 267.299 111.93 266.39 110.8L255.21 96.8907C254.684 96.2368 253.902 95.853 253.063 95.8317C253.049 95.8317 253.021 95.8317 252.999 95.8317Z" fill="#4748CE"/>
<path d="M207.25 131.212C207.641 130.729 208.828 129.4 210.726 129.123C211.244 129.044 211.721 129.066 212.119 129.123" fill="#BEDCFC"/>
<path d="M207.25 131.212C207.641 130.729 208.828 129.4 210.726 129.123C211.244 129.044 211.721 129.066 212.119 129.123" stroke="#4748CE" stroke-width="2.90463" stroke-miterlimit="10" stroke-linecap="round" stroke-linejoin="round"/>
<path d="M210.766 136.379C211.1 135.967 212.109 134.83 213.729 134.595C214.177 134.531 214.575 134.545 214.916 134.595" fill="#BEDCFC"/>
<path d="M210.766 136.379C211.1 135.967 212.109 134.83 213.729 134.595C214.177 134.531 214.575 134.545 214.916 134.595" stroke="#4748CE" stroke-width="2.90463" stroke-miterlimit="10" stroke-linecap="round" stroke-linejoin="round"/>
<path d="M229.719 152.585C231.426 143.193 234.122 134.006 237.742 125.27C241.99 115.003 253.28 87.7446 264.824 86.8838C265.014 86.8696 265.205 86.8626 265.395 86.8626C277.074 86.8626 291.955 113.698 302.639 153.841L229.719 152.585Z" fill="#BEDCFC"/>
<path d="M265.396 88.2738C270.603 88.2738 277.004 94.6809 283.404 106.31C289.712 117.776 295.696 133.653 300.783 152.395L231.413 151.202C233.113 142.473 235.668 133.949 239.041 125.806C241.383 120.147 245.307 110.671 250.126 102.584C256.928 91.1739 261.931 88.5067 264.923 88.2879C265.085 88.2809 265.241 88.2738 265.396 88.2738ZM265.396 85.4513C265.17 85.4513 264.944 85.4583 264.718 85.4795C252.306 86.4109 241.193 113.246 236.437 124.734C231.688 136.207 229.317 146.453 228.047 153.975C253.527 154.413 279 154.85 304.481 155.288C293.776 114.178 278.605 85.4513 265.396 85.4513Z" fill="#4748CE"/>
<path d="M269.678 84.2191C278.039 84.6836 291.833 98.1541 295.955 104.2C296.061 104.355 296.216 104.581 296.413 104.877C298.022 107.277 307.88 122.031 303.187 137.294C302.454 139.679 301.557 142.608 299.243 145.31C292.321 153.418 277.375 148.267 263.721 145.275C262.748 145.642 261.703 145.853 260.603 145.853H259.826C254.986 145.853 251.062 141.93 251.062 137.089V132.926C251.062 128.086 254.986 124.162 259.826 124.162H260.603C261.852 124.162 263.03 124.423 264.103 124.889C264.505 119.442 265.951 115.398 267.673 115.398C269.705 115.398 271.356 121.015 271.356 127.937C271.356 128.685 271.335 129.426 271.3 130.139C275.253 133.456 279.898 133.456 283.149 133.456C285.472 133.456 286.401 130.139 286.401 127.937C286.401 124.162 284.543 120.915 284.543 120.45" fill="#BEDCFC"/>
<path d="M269.678 84.2191C278.039 84.6836 291.833 98.1541 295.955 104.2C296.061 104.355 296.216 104.581 296.413 104.877C298.022 107.277 307.88 122.031 303.187 137.294C302.454 139.679 301.557 142.608 299.243 145.31C292.321 153.418 277.375 148.267 263.721 145.275C262.748 145.642 261.703 145.853 260.603 145.853H259.826C254.986 145.853 251.062 141.93 251.062 137.089V132.926C251.062 128.086 254.986 124.162 259.826 124.162H260.603C261.852 124.162 263.03 124.423 264.103 124.889C264.505 119.442 265.951 115.398 267.673 115.398C269.705 115.398 271.356 121.015 271.356 127.937C271.356 128.685 271.335 129.426 271.3 130.139C275.253 133.456 279.898 133.456 283.149 133.456C285.472 133.456 286.401 130.139 286.401 127.937C286.401 124.162 284.543 120.915 284.543 120.45" stroke="#4748CE" stroke-width="3.19016" stroke-miterlimit="10" stroke-linecap="round" stroke-linejoin="round"/>
<path d="M252.5 130.245C252.909 130.661 253.735 131.388 255.005 131.797C256.762 132.369 258.265 131.974 258.815 131.797" fill="#BEDCFC"/>
<path d="M252.5 130.245C252.909 130.661 253.735 131.388 255.005 131.797C256.762 132.369 258.265 131.974 258.815 131.797" stroke="#4748CE" stroke-width="2.787" stroke-miterlimit="10" stroke-linecap="round" stroke-linejoin="round"/>
<path d="M251.922 136.2C252.331 136.617 253.157 137.343 254.427 137.753C256.184 138.324 257.687 137.929 258.244 137.753" fill="#BEDCFC"/>
<path d="M251.922 136.2C252.331 136.617 253.157 137.343 254.427 137.753C256.184 138.324 257.687 137.929 258.244 137.753" stroke="#4748CE" stroke-width="2.787" stroke-miterlimit="10" stroke-linecap="round" stroke-linejoin="round"/>
<path fill-rule="evenodd" clip-rule="evenodd" d="M318.48 15.0169C321.082 23.9642 313.531 39.7975 308.969 47.6338C310.587 51.1968 311.475 55.0282 311.475 59.0185C311.475 78.0022 291.365 93.3915 268.277 93.3915C245.188 93.3915 225.078 78.0022 225.078 59.0185C225.078 55.3317 225.837 51.7806 227.228 48.4514C222.818 40.0363 217.6 27.3241 219.829 19.6618C221.162 15.0775 231.041 21.3733 242.963 31.3553C250.174 27.1384 258.984 24.6454 268.277 24.6454C276.627 24.6454 284.588 26.6584 291.349 30.1265C304.992 18.2441 317 9.92858 318.48 15.0169Z" fill="#BEDCFC"/>
<path d="M308.969 47.6338L307.59 46.8312L307.176 47.5431L307.517 48.2932L308.969 47.6338ZM318.48 15.0169L320.011 14.5715V14.5715L318.48 15.0169ZM227.228 48.4514L228.7 49.0665L228.989 48.3749L228.641 47.711L227.228 48.4514ZM219.829 19.6618L218.297 19.2164L219.829 19.6618ZM242.963 31.3553L241.939 32.5782L242.799 33.2987L243.768 32.7322L242.963 31.3553ZM291.349 30.1265L290.621 31.5457L291.582 32.0387L292.396 31.3293L291.349 30.1265ZM310.347 48.4363C312.662 44.4607 315.74 38.45 317.916 32.2718C320.058 26.1877 321.465 19.5677 320.011 14.5715L316.948 15.4624C318.097 19.4134 317.03 25.1838 314.907 31.2122C312.817 37.1465 309.838 42.9706 307.59 46.8312L310.347 48.4363ZM313.07 59.0185C313.07 54.787 312.127 50.7316 310.421 46.9743L307.517 48.2932C309.046 51.662 309.88 55.2694 309.88 59.0185H313.07ZM268.277 94.9866C280.164 94.9866 291.314 91.0279 299.52 84.5779C307.725 78.1281 313.07 69.1067 313.07 59.0185H309.88C309.88 67.914 305.17 76.079 297.548 82.0698C289.927 88.0605 279.478 91.7964 268.277 91.7964V94.9866ZM223.483 59.0185C223.483 69.1067 228.828 78.1281 237.034 84.5779C245.239 91.0279 256.389 94.9866 268.277 94.9866V91.7964C257.076 91.7964 246.626 88.0605 239.005 82.0698C231.383 76.079 226.673 67.914 226.673 59.0185H223.483ZM225.756 47.8363C224.288 51.3498 223.483 55.1094 223.483 59.0185H226.673C226.673 55.5541 227.385 52.2114 228.7 49.0665L225.756 47.8363ZM218.297 19.2164C217.047 23.5153 217.917 28.9893 219.513 34.2383C221.129 39.5543 223.583 44.9326 225.815 49.1918L228.641 47.711C226.463 43.5551 224.103 38.3697 222.565 33.3104C221.007 28.1838 220.382 23.4706 221.361 20.1073L218.297 19.2164ZM243.987 30.1323C238.011 25.1289 232.461 20.9737 228.189 18.6455C226.085 17.4995 224.106 16.69 222.454 16.5609C221.605 16.4946 220.704 16.5966 219.909 17.063C219.079 17.5504 218.557 18.322 218.297 19.2164L221.361 20.1073C221.434 19.8556 221.513 19.8211 221.524 19.8143C221.571 19.7865 221.754 19.7062 222.205 19.7414C223.153 19.8155 224.639 20.3442 226.662 21.4468C230.643 23.616 235.993 27.5997 241.939 32.5782L243.987 30.1323ZM268.277 23.0503C258.704 23.0503 249.615 25.6173 242.158 29.9783L243.768 32.7322C250.733 28.6594 259.264 26.2405 268.277 26.2405V23.0503ZM292.077 28.7072C285.091 25.1236 276.88 23.0503 268.277 23.0503V26.2405C276.374 26.2405 284.085 28.1933 290.621 31.5457L292.077 28.7072ZM320.011 14.5715C319.72 13.5677 319.103 12.7388 318.134 12.2776C317.232 11.8482 316.223 11.8335 315.281 11.9855C313.418 12.2861 311.134 13.3562 308.656 14.839C303.637 17.843 297.137 22.9699 290.301 28.9236L292.396 31.3293C299.204 25.4007 305.529 20.4286 310.295 17.5764C312.71 16.131 314.558 15.3336 315.789 15.1349C316.394 15.0372 316.672 15.1148 316.763 15.1581C316.788 15.1698 316.87 15.194 316.948 15.4624L320.011 14.5715Z" fill="#4344C6"/>
<path d="M305.496 41.4276L297.422 33.354C296.956 32.8877 296.898 32.1511 297.334 31.6565C300.433 28.1443 307.506 22.8237 311.22 21.3038C311.869 21.0383 312.543 21.4583 312.598 22.1571C313.015 27.372 309.436 36.7587 307.597 41.045C307.234 41.8899 306.146 42.0777 305.496 41.4276Z" fill="#D5FAFC"/>
<path d="M231.036 42.7529L238.218 35.2111C238.665 34.7425 238.713 34.0191 238.27 33.5474C235.513 30.6128 229.578 27.0788 226.272 25.9127C225.611 25.6795 224.938 26.1024 224.885 26.8014C224.541 31.3043 227.317 38.6672 228.91 42.3882C229.277 43.246 230.392 43.4287 231.036 42.7529Z" fill="#D5FAFC"/>
<path d="M268.659 53.7672H249.516V56.745H268.659V53.7672Z" fill="#191D5D" stroke="#4748CE" stroke-width="2.82252" stroke-miterlimit="10" stroke-linecap="round" stroke-linejoin="round"/>
<path d="M225.666 48.8704C223.57 48.8704 221.827 50.5498 221.82 52.6456C221.82 52.6597 221.82 52.6738 221.82 52.6879C221.82 61.3601 229.547 68.3882 239.087 68.3882C248.62 68.3882 256.354 61.3601 256.354 52.6879C256.354 52.6738 256.354 52.6597 256.354 52.6456C256.347 50.5498 254.604 48.8704 252.508 48.8704H225.666Z" fill="#191D5D" stroke="#4748CE" stroke-width="2.82252" stroke-miterlimit="10" stroke-linecap="round" stroke-linejoin="round"/>
<path d="M269.924 48.7997C267.828 48.7997 266.085 50.4791 266.078 52.5748C266.078 52.5889 266.078 52.603 266.078 52.6171C266.078 61.2893 273.805 68.3174 283.345 68.3174C292.878 68.3174 300.612 61.2893 300.612 52.6171C300.612 52.603 300.612 52.5889 300.612 52.5748C300.605 50.4791 298.862 48.7997 296.766 48.7997H269.924Z" fill="#191D5D" stroke="#4748CE" stroke-width="2.82252" stroke-miterlimit="10" stroke-linecap="round" stroke-linejoin="round"/>
<path d="M250.519 54.7129C250.758 56.3076 247.562 58.6433 244.429 58.6362C241.317 58.6291 238.114 56.3147 238.339 54.7129C238.572 53.0264 241.515 53.224 244.563 53.224C245.918 53.224 250.293 53.217 250.519 54.7129Z" fill="#CFE2E8"/>
<path d="M296.519 53.9648C296.759 55.5596 293.562 57.8952 290.429 57.8881C287.317 57.8811 284.114 55.5666 284.339 53.9648C284.572 52.2784 287.515 52.4759 290.563 52.4759C291.918 52.4759 296.293 52.4689 296.519 53.9648Z" fill="#CFE2E8"/>
<path d="M266.411 65.8636C266.411 67.8196 262.914 71.328 260.964 71.328C259.014 71.328 255.617 67.8196 255.617 65.8636C255.617 63.9075 259.014 63.2325 260.964 63.2325C262.914 63.2325 266.411 63.9075 266.411 65.8636Z" fill="#4748CE"/>
<path fill-rule="evenodd" clip-rule="evenodd" d="M260.642 74.2778C260.551 74.2638 260.466 74.326 260.449 74.4164C259.925 77.2311 257.079 79.9771 253.604 80.6522C251.844 80.994 249.932 80.8013 248.092 79.8169C246.283 78.8489 244.525 77.1059 243.051 74.3152C243.008 74.2338 242.908 74.2013 242.826 74.2436L242.629 74.3457C242.547 74.388 242.515 74.4891 242.558 74.5704C244.073 77.4404 245.903 79.2756 247.83 80.3065C249.791 81.3555 251.834 81.5616 253.71 81.1972C256.841 80.589 259.531 78.3818 260.6 75.8285C260.66 75.6849 260.877 75.6807 260.944 75.8213C261.442 76.87 262.267 77.8532 263.288 78.6876C264.784 79.91 266.726 80.8364 268.759 81.198C270.794 81.5599 272.935 81.3584 274.811 80.3037C276.658 79.266 278.219 77.4183 279.171 74.5379C279.2 74.4506 279.151 74.3563 279.064 74.3284L278.852 74.2609C278.764 74.233 278.671 74.282 278.642 74.3694C277.726 77.1371 276.245 78.8612 274.539 79.8197C272.798 80.7985 270.793 80.9958 268.857 80.6514C266.919 80.3068 265.064 79.4218 263.639 78.2577C262.267 77.1355 261.319 75.7752 261.054 74.4165C261.037 74.3262 260.952 74.2638 260.861 74.2778L260.777 74.2907C260.76 74.2933 260.743 74.2933 260.726 74.2907L260.642 74.2778Z" fill="#191D5D"/>
<path d="M253.604 80.6522L253.786 81.5916V81.5916L253.604 80.6522ZM248.092 79.8169L248.543 78.973L248.092 79.8169ZM247.83 80.3065L247.379 81.1504L247.83 80.3065ZM253.71 81.1972L253.892 82.1367V82.1367L253.71 81.1972ZM263.288 78.6876L263.894 77.9466L263.894 77.9466L263.288 78.6876ZM268.759 81.198L268.927 80.2557L268.759 81.198ZM274.811 80.3037L274.343 79.4694V79.4694L274.811 80.3037ZM274.539 79.8197L274.07 78.9854L274.539 79.8197ZM268.857 80.6514L269.024 79.7091L268.857 80.6514ZM263.639 78.2577L263.034 78.9987V78.9987L263.639 78.2577ZM260.726 74.2907L260.581 75.2366L260.726 74.2907ZM261.054 74.4165L261.994 74.2337L261.054 74.4165ZM260.861 74.2778L261.006 75.2237L260.861 74.2778ZM260.6 75.8285L259.717 75.459L260.6 75.8285ZM260.944 75.8213L261.808 75.4108L260.944 75.8213ZM243.051 74.3152L242.205 74.7621L243.051 74.3152ZM242.826 74.2436L242.386 73.3937L242.826 74.2436ZM279.171 74.5379L278.262 74.2376L279.171 74.5379ZM279.064 74.3284L278.773 75.2403L279.064 74.3284ZM278.852 74.2609L278.561 75.1728L278.852 74.2609ZM278.642 74.3694L277.733 74.0687L278.642 74.3694ZM260.449 74.4164L261.39 74.5916L260.449 74.4164ZM260.642 74.2778L260.496 75.2237L260.642 74.2778ZM253.786 81.5916C257.582 80.8544 260.783 77.8541 261.39 74.5916L259.508 74.2412C259.068 76.608 256.576 79.0999 253.421 79.7127L253.786 81.5916ZM247.64 80.6608C249.689 81.7566 251.827 81.9723 253.786 81.5916L253.421 79.7127C251.861 80.0157 250.175 79.846 248.543 78.973L247.64 80.6608ZM242.205 74.7621C243.749 77.6855 245.63 79.5854 247.64 80.6608L248.543 78.973C246.935 78.1125 245.301 76.5263 243.898 73.8682L242.205 74.7621ZM243.069 75.1956L243.266 75.0935L242.386 73.3937L242.189 73.4958L243.069 75.1956ZM248.281 79.4626C246.556 78.5393 244.849 76.861 243.405 74.1237L241.712 75.0172C243.297 78.0199 245.251 80.012 247.379 81.1504L248.281 79.4626ZM253.527 80.2577C251.851 80.5833 250.034 80.4002 248.281 79.4626L247.379 81.1504C249.548 82.3108 251.817 82.5398 253.892 82.1367L253.527 80.2577ZM259.717 75.459C258.78 77.6987 256.365 79.7065 253.527 80.2577L253.892 82.1367C257.317 81.4714 260.283 79.0649 261.482 76.1979L259.717 75.459ZM260.079 76.2318C260.651 77.4357 261.578 78.5258 262.682 79.4286L263.894 77.9466C262.956 77.1805 262.233 76.3042 261.808 75.4108L260.079 76.2318ZM262.682 79.4286C264.301 80.7515 266.393 81.7492 268.592 82.1403L268.927 80.2557C267.059 79.9235 265.266 79.0686 263.894 77.9466L262.682 79.4286ZM268.592 82.1403C270.796 82.5322 273.171 82.3234 275.28 81.138L274.343 79.4694C272.699 80.3933 270.793 80.5875 268.927 80.2557L268.592 82.1403ZM275.28 81.138C277.367 79.9652 279.065 77.9075 280.079 74.8383L278.262 74.2376C277.372 76.9291 275.948 78.5668 274.343 79.4694L275.28 81.138ZM279.354 73.4165L279.142 73.3491L278.561 75.1728L278.773 75.2403L279.354 73.4165ZM277.733 74.0687C276.88 76.6475 275.536 78.1617 274.07 78.9854L275.008 80.654C276.954 79.5606 278.572 77.6268 279.55 74.6701L277.733 74.0687ZM274.07 78.9854C272.562 79.8335 270.792 80.0234 269.024 79.7091L268.689 81.5936C270.795 81.9681 273.034 81.7635 275.008 80.654L274.07 78.9854ZM269.024 79.7091C267.252 79.3939 265.547 78.5804 264.245 77.5167L263.034 78.9987C264.581 80.2633 266.586 81.2196 268.689 81.5936L269.024 79.7091ZM264.245 77.5167C262.98 76.4823 262.201 75.3023 261.994 74.2337L260.115 74.5993C260.436 76.2482 261.553 77.7887 263.034 78.9987L264.245 77.5167ZM260.715 73.3318L260.631 73.3448L260.922 75.2366L261.006 75.2237L260.715 73.3318ZM260.496 75.2237L260.581 75.2366L260.872 73.3448L260.787 73.3318L260.496 75.2237ZM260.631 73.3448C260.711 73.3325 260.792 73.3325 260.872 73.3448L260.581 75.2366C260.694 75.2541 260.809 75.2541 260.922 75.2366L260.631 73.3448ZM261.994 74.2337C261.882 73.6622 261.337 73.2362 260.715 73.3318L261.006 75.2237C260.566 75.2914 260.191 74.9901 260.115 74.5993L261.994 74.2337ZM261.482 76.1979C261.341 76.537 261.026 76.6703 260.789 76.6751C260.552 76.6799 260.235 76.5605 260.079 76.2318L261.808 75.4108C261.586 74.9415 261.127 74.7538 260.75 74.7614C260.372 74.7691 259.919 74.9763 259.717 75.459L261.482 76.1979ZM242.189 73.4958C241.636 73.7821 241.42 74.4651 241.712 75.0172L243.405 74.1237C243.61 74.513 243.458 74.9939 243.069 75.1956L242.189 73.4958ZM243.898 73.8682C243.614 73.3307 242.943 73.1054 242.386 73.3937L243.266 75.0935C242.872 75.2972 242.403 75.137 242.205 74.7621L243.898 73.8682ZM280.079 74.8383C280.276 74.243 279.947 73.6053 279.354 73.4165L278.773 75.2403C278.356 75.1072 278.123 74.6582 278.262 74.2376L280.079 74.8383ZM279.142 73.3491C278.544 73.1585 277.923 73.4944 277.733 74.0687L279.55 74.6701C279.418 75.0697 278.984 75.3075 278.561 75.1728L279.142 73.3491ZM261.39 74.5916C261.316 74.992 260.933 75.2909 260.496 75.2237L260.787 73.3318C260.168 73.2366 259.617 73.6599 259.508 74.2412L261.39 74.5916Z" fill="#191D5D"/>
<path d="M286.254 35.2939C285.119 28.3434 286.986 11.838 303.531 1.42065" stroke="#4344C6" stroke-width="2.04261" stroke-linecap="round"/>
<path d="M279.445 34.6985C278.027 30.2445 276.041 19.379 279.445 11.549" stroke="#4344C6" stroke-width="2.04261" stroke-linecap="round"/>
<path d="M244.809 36.7228C245.83 30.6228 244.15 16.1372 229.258 6.99475" stroke="#4344C6" stroke-width="2.04261" stroke-linecap="round"/>
<path d="M251.547 36.7229C252.949 32.7906 254.912 23.1978 251.547 16.2849" stroke="#4344C6" stroke-width="2.04261" stroke-linecap="round"/>
<path d="M299.803 66.4507C308.691 61.2582 320.184 55.6649 339.75 64.8561" stroke="#4344C6" stroke-width="2.04261" stroke-linecap="round"/>
<path d="M302.595 70.0693C308.2 68.5807 318.128 68.5135 325.82 74.8116" stroke="#4344C6" stroke-width="2.04261" stroke-linecap="round"/>
<path d="M232.047 70.6313C226.473 67.4944 215.789 68.7733 210.68 72.9538" stroke="#4344C6" stroke-width="2.04261" stroke-linecap="round"/>
<path d="M229.73 73.8827C227.04 72.3941 222.739 74.5522 219.047 80.8503" stroke="#4344C6" stroke-width="2.04261" stroke-linecap="round"/>
</svg>
