<svg xmlns="http://www.w3.org/2000/svg" width="256" height="256"><path fill="#1976D2" fill-opacity=".016" fill-rule="evenodd" d="M0 128.004v128.004l128.25-.254 128.25-.254.254-127.75L257.008 0H0zm.485.496c0 70.4.119 99.053.265 63.672s.146-92.98 0-128S.485 58.1.485 128.5"/><path fill="#1976D2" fill-opacity=".139" fill-rule="evenodd" d="M44.254 1.494C22.384 5.459 5.406 22.547 1.489 44.536.346 50.951.07 67.282.07 128.5c0 91.9-.08 91.149 11.199 106 8.103 10.668 19.601 17.751 32.575 20.065 11.151 1.989 157.161 1.989 168.312 0 13.204-2.355 24.507-9.413 32.936-20.565 5.572-7.373 8.6-14.527 9.543-22.549.356-3.029 1.034-5.746 1.506-6.038s.859-35.454.859-78.139-.323-77.285-.717-76.891c-.394.395-1.264-2.534-1.934-6.507-1.857-11.02-6.91-20.276-15.487-28.367-8.456-7.977-16.502-12.077-27.575-14.051-11.003-1.961-156.189-1.93-167.033.036M.476 128.5c0 42.9.123 60.304.274 38.676.15-21.629.15-56.729 0-78C.599 67.904.476 85.6.476 128.5m73.521-65.25C73.993 68.575 77.896 82 79.448 82c.636 0 4.193-2.331 7.904-5.181l6.747-5.181-2.799-2.765C88.071 65.684 77.245 59 75.309 59q-1.31 0-1.312 4.25m102.444-.696c-3.267 1.955-7.229 4.826-8.803 6.381l-2.863 2.828 6.762 5.118c3.719 2.816 7.287 5.119 7.93 5.119 1.563 0 4.63-9.98 5.284-17.195.642-7.076.032-7.241-8.31-2.251"/><path fill="#1976D2" fill-opacity=".324" fill-rule="evenodd" d="M51.395 1.025c-4.457.451-10.082 1.346-12.5 1.989C26.182 6.396 12.927 17.425 6.759 29.755.54 42.186.496 42.905.539 131c.038 77.459.092 79.672 2.106 86.213 2.82 9.162 7.702 16.91 14.895 23.638 7.118 6.657 13.765 10.452 22.565 12.883 5.871 1.621 13.068 1.766 87.895 1.766 89.76 0 87.477.144 99.355-6.266 6.906-3.728 16.435-12.853 20.54-19.67 3.743-6.218 7.105-16.974 7.105-22.733 0-2.042.422-3.974.938-4.293.568-.351.974-28.771 1.029-72.136.062-48.819-.236-71.354-.938-70.92-.66.408-1.035-1.449-1.046-5.173-.075-24.992-16.754-46.303-40.713-52.021C208.405.889 197.612.642 133.5.439 92.8.31 55.853.574 51.395 1.025m15.509 48.154c-1.898 3.547-.449 15.286 3.09 25.027l3.163 8.705-3.05 4.433-3.049 4.433 5.47.683c13.392 1.673 35.941 9.471 33.743 11.669-.778.778-2.962.332-7.74-1.58-8.239-3.296-20.221-6.422-27.63-7.208l-5.6-.594-1.15 4.569c-.633 2.513-1.151 5.451-1.151 6.529 0 1.866.222 1.893 4.659.557 5.604-1.687 21.998-1.728 28.267-.072 5.441 1.438 7.17 4.311 1.951 3.243-7.325-1.499-25.315-1.704-29.877-.34l-4.5 1.346-.302 5.21-.303 5.211h4.843c6.268 0 15.585 2.451 21.158 5.565 2.424 1.355 4.487 2.345 4.582 2.2.096-.146 1.163-1.909 2.37-3.918 5.334-8.876 16.744-15.724 27.66-16.6 11.845-.951 25.536 5.309 32.432 14.829 1.615 2.229 3.083 4.492 3.261 5.028.179.535 3.019-.351 6.312-1.97 6.919-3.401 14.326-5.134 21.94-5.134h5.354l.346-5.099c.291-4.269.022-5.282-1.653-6.225-2.405-1.354-23.887-1.558-30.878-.293-7.016 1.269-5.759-1.447 1.46-3.153 5.682-1.344 25.971-1.195 29.168.213 2.148.946 2.343-1.73.561-7.681l-1.19-3.969-5.06.659c-7.369.959-19.14 4.098-26.291 7.011-6.797 2.768-8.27 3.045-8.27 1.557 0-2.466 17.886-8.858 30.791-11.003l7.292-1.212-2.05-3.473-2.049-3.474 3.506-10.26c5.366-15.706 5.705-27.615.785-27.589-2.97.016-11.347 5.407-19.634 12.636-4.323 3.77-8.71 7.299-9.75 7.842-1.281.669-1.891 2.066-1.891 4.333 0 4.846-2.426 3.518-2.802-1.533-.271-3.649-.615-4.12-3.41-4.679-1.709-.342-3.253-.476-3.431-.299-.177.178.115 1.851.65 3.717.652 2.273.633 3.734-.058 4.425-1.359 1.359-2.558-.602-3.333-5.448-.582-3.643-.706-3.735-5.855-4.354-6.679-.802-14.814-.806-21.443-.009l-5.181.622-1.168 4.869c-.708 2.951-1.72 4.869-2.569 4.869-1.626 0-1.646-.233-.46-5.345.844-3.637.775-3.813-1.274-3.263-1.191.319-2.504.587-2.916.594s-.757 1.477-.765 3.264c-.017 3.636-1.468 6.601-2.651 5.417-.426-.426-.637-2.376-.468-4.333.205-2.381-.055-3.335-.786-2.883-.602.371-4.564-2.352-8.807-6.052C82.39 53.652 72.507 47 69.88 47c-.995 0-2.334.98-2.976 2.179M.473 128c0 37.675.124 53.087.277 34.25.152-18.838.152-49.663 0-68.5C.597 74.912.473 90.325.473 128M94 82.826c0 2.384 3.575 5.681 8.3 7.655 4.685 1.958 10.185.76 13.702-2.983 3.485-3.71 1.472-5.305-3.957-3.133-5.479 2.192-7.807 2.027-12.545-.891-4.791-2.951-5.5-3.034-5.5-.648m64.5.7c-4.723 2.909-6.485 3.027-12.263.82-5.435-2.075-7.198-.837-4.212 2.959 3.007 3.822 8.869 5.184 13.675 3.176 4.725-1.974 8.3-5.271 8.3-7.655 0-2.36-.67-2.275-5.5.7m-33.177 10.17c-1.198.233-2.714 1.07-3.369 1.859-1.518 1.829 1.005 6.014 4.618 7.66 2.152.98 2.845.76 5.447-1.733 3.869-3.707 3.817-5.995-.168-7.384-1.732-.604-3.42-1.037-3.75-.962s-1.581.327-2.778.56M.079 201.583c.048 1.165.285 1.402.604.605.289-.722.253-1.585-.079-1.917s-.568.258-.525 1.312"/><path fill="#1976D2" fill-opacity=".781" fill-rule="evenodd" d="M80 31.83c0 .457 1.989 2.259 4.419 4.005 10.179 7.309 16.681 20.02 16.796 32.832.027 2.933.503 5.333 1.059 5.333.644 0 .812-2.912.464-7.999-.849-12.376-6.833-23.529-16.932-31.558C81.445 30.975 80 30.325 80 31.83m92.014 3.253c-6.002 4.745-12.402 14.116-14.528 21.274-.817 2.753-1.429 7.962-1.36 11.575l.127 6.568.881-7c1.116-8.859 3.019-14.505 6.96-20.647C167.149 42.092 176.347 33 178.108 33c.491 0 .892-.45.892-1 0-1.823-1.765-1.044-6.986 3.083M109.622 46.5c1.076 4.982 1.131 16.587.104 22.324-.47 2.629-.407 4.097.161 3.746.513-.317 1.478-3.803 2.143-7.745 1.3-7.711.171-19.092-2.106-21.23-.885-.83-.958-.129-.302 2.905m37.446-1.178c-1.929 5.073-2.333 12.781-1.061 20.22.702 4.102 1.715 7.458 2.251 7.458.538 0 .683-1.009.323-2.25-1.482-5.111-1.803-16.657-.602-21.663 1.334-5.558.726-8.07-.911-3.765M94 82.896c0 1.486 6.859 7.031 9.525 7.7C108.647 91.881 117 88.687 117 85.443c0-1.851-1.54-1.819-7.323.151-4.597 1.567-4.757 1.549-9.106-1C95.949 81.886 94 81.382 94 82.896m63.306 1.712-4.195 2.529-5.543-1.747c-3.049-.961-5.785-1.507-6.079-1.212-2.117 2.116 4.902 6.825 10.162 6.818 4.328-.005 12.349-5.323 12.349-8.187 0-1.436-2.401-.791-6.694 1.799M39 93.065c-7.037 1.239-12 2.861-12 3.922 0 .458 2.362.152 5.25-.679 3.178-.914 11.366-1.704 20.75-2.001 17.716-.561 29.938 1.33 44.24 6.846 4.343 1.675 8.101 2.839 8.353 2.587.923-.923-12.336-5.953-22.073-8.373-11.322-2.814-34.739-4.025-44.52-2.302m143.5.557c-13.427 2.422-30.5 8.132-30.5 10.201 0 .491 3.713-.591 8.25-2.406 14.205-5.682 26.715-7.677 44.75-7.136 9.976.299 17.193 1.01 20.251 1.994 2.613.842 4.989 1.145 5.28.674.595-.962-5.007-2.64-13.411-4.017-8.106-1.328-25.336-.984-34.62.69m-59.059 1.8c-1.915 1.403-1.913 1.46.159 4.25 1.156 1.555 2.964 2.958 4.02 3.117 2.377.359 6.38-3.224 6.38-5.711 0-3.048-7.132-4.167-10.559-1.656m-53.216 11.1c-7.329 1.591-14.29 4.854-17.385 8.148-1.792 1.908-1.896 2.33-.573 2.33.888 0 1.904-.468 2.258-1.041 1.34-2.168 8.694-6.041 14.186-7.472 7.079-1.844 17.954-1.888 25.539-.103 3.162.745 5.75.993 5.75.552 0-1.038-2.048-1.63-10-2.891-8.25-1.307-11.973-1.218-19.775.477M170 105.58c-8.387 1.417-13 2.694-13 3.599 0 .578.773.735 1.75.355 4.497-1.747 13.517-2.713 21.296-2.282 9.439.523 15.921 2.812 22.204 7.841 2.569 2.056 3.75 2.544 3.75 1.548 0-2.01-8.401-7.386-14.264-9.127-5.161-1.532-17.574-2.637-21.736-1.934m-51 3.81c-9.969 2.217-17.35 7.362-22.729 15.844l-2.794 4.406-2.989-1.835c-8.439-5.182-26.466-7.572-36.463-4.833-12.183 3.338-24.467 12.941-30.242 23.643-3.633 6.731-5.78 15.382-5.796 23.345l-.012 6.54-5.404 4.739C6.287 186.749 1 196.269 1 202.072c0 7.162 2.912 18.983 6.193 25.138 4.636 8.699 14.157 17.875 23.059 22.223 12.18 5.949 14.076 6.067 97.748 6.067 56.202 0 77.417-.323 83-1.263 10.663-1.797 20.57-6.918 28.263-14.611 10.992-10.992 15.63-23.324 15.833-42.098.133-12.223-3.809-19.742-14.711-28.064-4.358-3.326-4.984-4.309-6.038-9.476-3.337-16.358-15.827-30.476-31.834-35.984-11.634-4.002-30.016-2.131-40.14 4.086l-3.126 1.92-1.18-2.848c-1.731-4.179-9.794-11.647-15.816-14.65-4.2-2.093-14.785-4.807-17.251-4.422-.275.043-2.975.628-6 1.3m-4.684 44.499c-5.904 2.757-7.316 6.05-7.316 17.061 0 7.496-.265 9.05-1.545 9.05-.85 0-2.65 1.105-4 2.455C99.046 184.863 99 185.218 99 201.5s.046 16.637 2.455 19.045l2.454 2.455h24.371c31.376 0 28.873 1.939 28.494-22.071l-.274-17.39-3.211-2.02c-3.173-1.995-3.212-2.116-3.252-10.019-.045-9.006-1.75-13.547-6.354-16.924-2.378-1.744-4.557-2.111-14-2.354-9.402-.241-11.849.024-15.367 1.667m2.907 8.668c-1.959 1.371-2.223 2.442-2.223 9V179h27v-6.826c0-5.842-.334-7.139-2.314-9-2.021-1.898-3.452-2.174-11.278-2.174-6.494 0-9.575.429-11.185 1.557m7.022 29.598c-1.648 1.648-1.586 5.448.115 7.037 1.147 1.071 1.131 1.945-.1 5.557-1.979 5.81-1.236 7.251 3.74 7.251 4.942 0 5.547-1.197 3.517-6.953-1.415-4.009-1.402-4.516.154-6.236 2.58-2.851.747-7.217-3.194-7.606-1.643-.162-3.547.265-4.232.95"/></svg>