<svg width="379" height="117" viewBox="0 0 379 117" fill="none" xmlns="http://www.w3.org/2000/svg">
<path fill-rule="evenodd" clip-rule="evenodd" d="M-532 94L-493.208 98C-454.417 110.393 -376.833 111.034 -299.25 104.837C-221.667 98.6405 -144.083 61.4608 -66.5 39.7726C11.0833 18.0844 88.6667 11.8878 166.25 21.1827C243.833 30.4777 321.417 55.2642 360.208 67.6574L399 80.0506V173H360.208C321.417 173 243.833 173 166.25 173C88.6667 173 11.0833 173 -66.5 173C-144.083 173 -221.667 173 -299.25 173C-376.833 173 -454.417 173 -493.208 173H-532V94Z" fill="#828CFC"/>
<path d="M241.198 55.9856C201.638 57.2201 201.456 51.439 161.896 52.6713C159.816 52.7358 155.278 54.0838 155.214 52.004C154.687 35.1011 160.468 34.9209 159.94 18.0181C159.876 15.9383 158.528 11.4006 160.608 11.3361C200.168 10.1016 200.348 15.8827 239.91 14.6504C241.99 14.5859 246.528 13.2379 246.592 15.3177C247.12 32.2206 241.339 32.4007 241.866 49.3036C241.932 51.3812 243.278 55.9211 241.198 55.9856Z" fill="#191D5D"/>
<path d="M241.198 55.9856C201.638 57.2201 201.456 51.439 161.896 52.6713C159.816 52.7358 155.278 54.0838 155.214 52.004C154.687 35.1011 160.468 34.9209 159.94 18.0181C159.876 15.9383 158.528 11.4006 160.608 11.3361C200.168 10.1016 200.348 15.8827 239.91 14.6504C241.99 14.5859 246.528 13.2379 246.592 15.3177C247.12 32.2206 241.339 32.4007 241.866 49.3036C241.932 51.3812 243.278 55.9211 241.198 55.9856Z" stroke="#191D5D" stroke-width="1.77948" stroke-miterlimit="10" stroke-linecap="round" stroke-linejoin="round"/>
<path d="M190.735 28.13C193.896 22.6759 198.771 18.0203 196.309 27.6673C197.879 25.4919 203.867 27.2714 204.134 29.4824C204.363 12.1391 212.987 36.6804 206.961 40.9156C198.082 48.058 182.743 39.0049 190.735 28.13Z" fill="#191D5D" stroke="#191D5D" stroke-width="1.55705" stroke-miterlimit="10" stroke-linecap="round" stroke-linejoin="round"/>
<path d="M196.315 34.1447C196.148 35.3814 194.213 35.0923 194.413 33.86C194.58 32.6255 196.517 32.9146 196.315 34.1447Z" fill="#191D5D" stroke="#191D5D" stroke-width="1.55705" stroke-miterlimit="10" stroke-linecap="round" stroke-linejoin="round"/>
<path d="M202.6 35.4081C202.433 36.6448 200.498 36.3557 200.698 35.1234C200.865 33.8889 202.802 34.178 202.6 35.4081Z" fill="#191D5D" stroke="#191D5D" stroke-width="1.55705" stroke-miterlimit="10" stroke-linecap="round" stroke-linejoin="round"/>
<path d="M230.898 26.6886C222.877 26.4105 225.568 25.0915 230.224 21.4791C232.375 19.4972 228.858 16.7146 227.666 19.4372C227.577 19.713 227.288 19.8465 227.014 19.7886C225.757 14.5325 238.3 18.7276 228.03 24.4309C226.536 26.2482 233.618 24.8735 230.898 26.6886Z" fill="#191D5D"/>
<path d="M236.383 18.1092C240.325 17.9357 239.348 28.2144 235.494 27.2891C231.539 27.4559 232.555 17.1816 236.383 18.1092ZM235.58 26.3927C238.045 26.5195 238.73 19.3593 236.297 19.0056C233.848 18.8899 233.145 26.0368 235.58 26.3927Z" fill="#191D5D"/>
<path d="M218.618 27.6161C217.717 21.9996 212.31 18.1448 206.288 18.6275C203.744 16.0228 199.847 14.6548 195.77 15.311C190.771 16.114 186.979 19.7152 185.998 24.0705C181.858 26.088 179.405 31.4265 180.326 37.1742C181.411 43.9362 186.759 48.703 192.271 47.8177C192.778 47.7354 193.269 47.6086 193.741 47.4418C195.663 50.7361 199.773 52.6624 204.131 51.9617C209.643 51.0764 213.464 46.3319 212.666 41.3649C212.543 40.6064 212.321 39.8879 212.012 39.2162C216.574 37.1164 219.394 32.463 218.618 27.6161Z" stroke="#191D5D" stroke-width="1.55705" stroke-miterlimit="10" stroke-linecap="round" stroke-linejoin="round"/>
<path d="M162.816 39.3475C162.298 40.6888 161.777 42.3303 161.41 44.2388C160.988 46.4298 160.879 48.3828 160.896 49.9688" stroke="#191D5D" stroke-width="1.55705" stroke-miterlimit="10" stroke-linecap="round" stroke-linejoin="round"/>
<path d="M167.359 40.4195C167.306 40.7421 167.077 41.8943 166.045 42.7106C164.41 44.0074 162.339 43.2111 162.25 43.1755" stroke="#191D5D" stroke-width="1.55705" stroke-miterlimit="10" stroke-linecap="round" stroke-linejoin="round"/>
<path d="M161.559 43.369C161.85 43.4135 164.646 43.8939 165.807 46.3519C166.337 47.4752 166.303 48.5406 166.239 49.1078" stroke="#191D5D" stroke-width="1.55705" stroke-miterlimit="10" stroke-linecap="round" stroke-linejoin="round"/>
<path d="M245.728 42.5859C207.349 52.2641 205.934 46.6565 167.555 56.3347C165.537 56.8441 161.393 59.1307 160.884 57.1132C156.749 40.7153 162.357 39.3006 158.221 22.9026C157.712 20.8851 155.425 16.7412 157.443 16.2318C195.822 6.55361 197.237 12.1612 235.616 2.48304C237.633 1.97366 241.777 -0.312975 242.286 1.70451C246.422 18.1025 240.814 19.5171 244.949 35.9151C245.458 37.9326 247.745 42.0788 245.728 42.5859Z" fill="#191D5D"/>
<path d="M245.728 42.5859C207.349 52.2641 205.934 46.6565 167.555 56.3347C165.537 56.8441 161.393 59.1307 160.884 57.1132C156.749 40.7153 162.357 39.3006 158.221 22.9026C157.712 20.8851 155.425 16.7412 157.443 16.2318C195.822 6.55361 197.237 12.1612 235.616 2.48304C237.633 1.97366 241.777 -0.312975 242.286 1.70451C246.422 18.1025 240.814 19.5171 244.949 35.9151C245.458 37.9326 247.745 42.0788 245.728 42.5859Z" stroke="#191D5D" stroke-width="1.77948" stroke-miterlimit="10" stroke-linecap="round" stroke-linejoin="round"/>
<path d="M190.472 26.188C192.391 20.1823 196.155 14.5903 195.817 24.542C196.885 22.0819 203.115 22.5357 203.849 24.6399C200.359 7.65027 214.039 29.7737 209.058 35.2011C201.914 44.0808 184.993 38.5221 190.472 26.188Z" fill="#191D5D" stroke="#BEDCFC" stroke-width="1.55705" stroke-miterlimit="10" stroke-linecap="round" stroke-linejoin="round"/>
<path d="M197.206 30.8681C197.309 32.1115 195.356 32.2427 195.289 30.9971C195.187 29.7559 197.14 29.6224 197.206 30.8681Z" fill="#191D5D" stroke="#BEDCFC" stroke-width="1.55705" stroke-miterlimit="10" stroke-linecap="round" stroke-linejoin="round"/>
<path d="M203.621 30.7547C203.723 31.9981 201.77 32.1293 201.703 30.8837C201.601 29.6425 203.554 29.509 203.621 30.7547Z" fill="#191D5D" stroke="#BEDCFC" stroke-width="1.55705" stroke-miterlimit="10" stroke-linecap="round" stroke-linejoin="round"/>
<path d="M229.389 16.1784C221.495 17.6242 223.842 15.7602 227.614 11.2359C229.291 8.84025 225.259 6.87392 224.678 9.79005C224.649 10.0792 224.398 10.2705 224.115 10.2727C221.762 5.40808 234.912 6.81832 226.104 14.5902C225.032 16.6833 231.656 13.8206 229.389 16.1784Z" fill="#BEDCFC"/>
<path d="M232.911 6.62257C236.726 5.61049 237.972 15.8581 234.008 15.7802C230.182 16.7901 228.972 6.53582 232.911 6.62257ZM233.899 14.8838C236.335 14.4812 235.469 7.33882 233.018 7.51454C230.6 7.92827 231.445 15.0596 233.899 14.8838Z" fill="#BEDCFC"/>
<path d="M217.593 19.713C215.508 14.4212 209.402 11.812 203.624 13.5737C200.581 11.574 196.481 11.0736 192.64 12.5861C187.929 14.4412 184.997 18.772 184.97 23.2363C181.358 26.0946 180.105 31.8335 182.236 37.2498C184.745 43.6225 190.989 47.1326 196.183 45.0884C196.661 44.8993 197.113 44.6702 197.538 44.4055C200.12 47.2104 204.547 48.2114 208.655 46.5943C213.849 44.5501 216.565 39.096 214.723 34.4159C214.443 33.7019 214.069 33.048 213.624 32.4563C217.633 29.4312 219.392 24.2818 217.593 19.713Z" stroke="#BEDCFC" stroke-width="1.55705" stroke-miterlimit="10" stroke-linecap="round" stroke-linejoin="round"/>
<path d="M165.611 43.1242C165.391 44.5455 165.238 46.2605 165.286 48.2024C165.342 50.4334 165.653 52.3641 166.012 53.9078" stroke="#BEDCFC" stroke-width="1.55705" stroke-miterlimit="10" stroke-linecap="round" stroke-linejoin="round"/>
<path d="M170.261 43.1999C170.279 43.5268 170.301 44.7013 169.469 45.7201C168.15 47.3372 165.954 47.0013 165.863 46.9857" stroke="#BEDCFC" stroke-width="1.55705" stroke-miterlimit="10" stroke-linecap="round" stroke-linejoin="round"/>
<path d="M165.238 47.3216C165.532 47.3038 168.366 47.1726 170.027 49.3258C170.786 50.3089 170.982 51.3566 171.039 51.926" stroke="#BEDCFC" stroke-width="1.55705" stroke-miterlimit="10" stroke-linecap="round" stroke-linejoin="round"/>
<path d="M253.562 96.4065C252.957 96.4065 252.345 96.342 251.749 96.2152L197.399 84.7086C192.702 83.7143 189.688 79.081 190.682 74.3831L195.951 49.4904C196.799 45.4866 200.378 42.5815 204.464 42.5815C205.069 42.5815 205.681 42.646 206.277 42.7728L260.627 54.2794C262.902 54.7621 264.855 56.1012 266.123 58.0519C267.391 60.0027 267.825 62.3294 267.344 64.6071L262.075 89.4999C261.225 93.5015 257.646 96.4065 253.562 96.4065Z" fill="#D0D4FF"/>
<path d="M242.056 87.6714C245.736 87.6714 248.718 84.6887 248.718 81.0095C248.718 77.3302 245.736 74.3475 242.056 74.3475C238.377 74.3475 235.395 77.3302 235.395 81.0095C235.395 84.6887 238.377 87.6714 242.056 87.6714Z" fill="#D5FAFC"/>
<path d="M250.861 89.5354C254.54 89.5354 257.523 86.5528 257.523 82.8735C257.523 79.1942 254.54 76.2115 250.861 76.2115C247.182 76.2115 244.199 79.1942 244.199 82.8735C244.199 86.5528 247.182 89.5354 250.861 89.5354Z" fill="#4748CE"/>
<path d="M231.942 56.2013C234.527 58.6369 234.818 62.9589 232.471 65.657C231.693 66.5534 230.67 67.2296 229.551 67.6211" stroke="white" stroke-width="1.81046" stroke-miterlimit="10" stroke-linecap="round"/>
<path d="M229.238 57.656C231.578 59.9671 230.726 64.0688 227.625 65.1966" stroke="white" stroke-width="1.81046" stroke-miterlimit="10" stroke-linecap="round"/>
<path d="M226.781 58.3611C227.857 60.0116 227.364 62.4028 225.695 63.4638" stroke="white" stroke-width="1.81046" stroke-miterlimit="10" stroke-linecap="round"/>
<path d="M224.155 59.0596C224.736 59.9471 224.469 61.235 223.57 61.8067" stroke="white" stroke-width="1.81046" stroke-miterlimit="10" stroke-linecap="round"/>
<rect x="198.378" y="41.6703" width="71.5276" height="41.5881" rx="3.62093" transform="rotate(12.1915 198.378 41.6703)" stroke="#191D5D" stroke-width="2.41395"/>
<path d="M275.762 44.8876C285.283 44.8876 293.001 37.1696 293.001 27.6489C293.001 18.1282 285.283 10.4101 275.762 10.4101C266.241 10.4101 258.523 18.1282 258.523 27.6489C258.523 37.1696 266.241 44.8876 275.762 44.8876Z" fill="#D0D4FF" stroke="#4344C6" stroke-width="2.41395" stroke-miterlimit="10" stroke-linecap="round" stroke-linejoin="round"/>
<path d="M269.391 20.0994C281.322 17.9285 286.723 27.8802 272.809 26.9326" stroke="#4344C6" stroke-width="2.41395" stroke-miterlimit="10" stroke-linecap="round" stroke-linejoin="round"/>
<path d="M272.617 35.0916C272.617 30.2625 272.617 25.4646 272.617 20.6244" stroke="#4344C6" stroke-width="2.41395" stroke-miterlimit="10" stroke-linecap="round" stroke-linejoin="round"/>
<path d="M274.277 16.6518V19.2965" stroke="#4344C6" stroke-width="2.41395" stroke-miterlimit="10" stroke-linecap="round" stroke-linejoin="round"/>
<path d="M276.992 16.7497V19.8193" stroke="#4344C6" stroke-width="2.41395" stroke-miterlimit="10" stroke-linecap="round" stroke-linejoin="round"/>
<path d="M272.615 27.3242C276.759 26.8949 285.336 27.1329 282.309 33.4924C279.235 37.0714 273.467 34.9938 269.348 35.4454" stroke="#4344C6" stroke-width="2.41395" stroke-miterlimit="10" stroke-linecap="round" stroke-linejoin="round"/>
<path d="M274.277 36.0392V38.6817" stroke="#4344C6" stroke-width="2.41395" stroke-miterlimit="10" stroke-linecap="round" stroke-linejoin="round"/>
<path d="M277.195 35.8434V38.7529" stroke="#4344C6" stroke-width="2.41395" stroke-miterlimit="10" stroke-linecap="round" stroke-linejoin="round"/>
<path d="M217.776 110.827C224.225 110.827 229.453 105.599 229.453 99.1491C229.453 92.6996 224.225 87.4712 217.776 87.4712C211.326 87.4712 206.098 92.6996 206.098 99.1491C206.098 105.599 211.326 110.827 217.776 110.827Z" fill="#D0D4FF" stroke="#191D5D" stroke-width="1.81046" stroke-miterlimit="10"/>
<path d="M215.519 103.696C214.71 103.667 213.322 103.76 212.552 103.636C211.724 103.126 212.639 102.388 213.475 102.581C213.944 101.489 213.602 97.8924 213.882 96.2641C213.052 96.947 212.487 97.205 212.263 96.2931C216.416 91.1036 214.816 98.2149 214.785 100.895C214.776 101.316 214.885 102.143 214.888 102.555C215.817 102.19 216.738 103.447 215.519 103.696Z" fill="#191D5D"/>
<path d="M220.489 103.923C215.898 103.894 216.062 94.3802 220.673 94.3691C225.295 94.4514 224.92 104.103 220.489 103.923ZM220.667 95.5257C217.532 95.6592 217.501 102.661 220.486 102.773C223.327 102.713 223.718 95.5836 220.667 95.5257Z" fill="#191D5D"/>
<path d="M200.909 47.9474C200.731 47.9474 200.556 47.8932 200.406 47.7869L197.9 46.0055C197.696 45.8602 197.564 45.6345 197.54 45.385C197.514 45.1355 197.598 44.8882 197.77 44.7059L203.06 39.0668C203.229 38.8868 203.459 38.7935 203.693 38.7935C203.851 38.7935 204.01 38.8369 204.151 38.9236C204.502 39.1428 204.65 39.5789 204.505 39.9651L201.721 47.3855C201.625 47.6372 201.419 47.8324 201.163 47.9106C201.079 47.9344 200.994 47.9474 200.909 47.9474Z" fill="#191D5D"/>
<path d="M203.692 39.6614L200.908 47.0818L198.402 45.3004L203.692 39.6614ZM203.692 37.9256C203.225 37.9256 202.763 38.1144 202.425 38.4746L197.135 44.1136C196.792 44.4781 196.623 44.975 196.673 45.474C196.723 45.9731 196.985 46.4265 197.395 46.7151L199.901 48.4964C200.198 48.7069 200.55 48.8175 200.908 48.8175C201.077 48.8175 201.249 48.7915 201.416 48.7416C201.93 48.5832 202.344 48.197 202.533 47.6915L205.317 40.2711C205.607 39.4965 205.31 38.6243 204.607 38.1882C204.325 38.0103 204.006 37.9256 203.692 37.9256Z" fill="#191D5D"/>
<path d="M218.369 60.2844C218.124 60.2844 217.887 60.1803 217.723 59.9959L215.674 57.7047C215.507 57.5181 215.429 57.2686 215.46 57.019C215.49 56.7695 215.627 56.5482 215.835 56.4072L222.242 52.0808C222.39 51.981 222.559 51.9311 222.728 51.9311C222.949 51.9311 223.171 52.0157 223.338 52.1806C223.633 52.4714 223.681 52.9292 223.453 53.2741L219.096 59.8939C218.948 60.1196 218.703 60.2627 218.434 60.2823C218.41 60.2823 218.389 60.2844 218.369 60.2844Z" fill="#191D5D"/>
<path d="M222.725 52.7968L218.368 59.4165L216.318 57.1253L222.725 52.7968ZM222.725 51.061C222.388 51.061 222.05 51.1587 221.753 51.3583L215.346 55.6847C214.931 55.9646 214.656 56.4115 214.595 56.9084C214.534 57.4052 214.69 57.9064 215.024 58.2796L217.075 60.5708C217.405 60.9397 217.878 61.1501 218.368 61.1501C218.411 61.1501 218.453 61.148 218.496 61.1458C219.034 61.1068 219.522 60.8182 219.817 60.3691L224.174 53.7493C224.63 53.0572 224.532 52.1415 223.944 51.5601C223.61 51.2303 223.167 51.061 222.725 51.061Z" fill="#191D5D"/>
<path d="M218.462 83.791C218.364 83.791 218.267 83.7737 218.171 83.7411C217.917 83.65 217.72 83.4482 217.638 83.1922L216.687 80.2674C216.609 80.0288 216.639 79.7684 216.768 79.5536C216.896 79.3388 217.112 79.1891 217.358 79.1457L224.965 77.7723C225.017 77.7636 225.069 77.7593 225.119 77.7593C225.47 77.7593 225.793 77.9719 225.926 78.3082C226.078 78.6922 225.937 79.1305 225.59 79.3562L218.931 83.6543C218.79 83.7433 218.627 83.791 218.462 83.791Z" fill="#191D5D"/>
<path d="M225.119 78.6249L218.46 82.9231L217.51 79.9983L225.119 78.6249ZM225.121 76.8892C225.019 76.8892 224.915 76.8978 224.811 76.9174L217.204 78.2908C216.711 78.3797 216.279 78.677 216.023 79.1088C215.767 79.5405 215.707 80.0591 215.863 80.5364L216.813 83.4612C216.98 83.9732 217.375 84.379 217.883 84.5612C218.072 84.6285 218.269 84.661 218.464 84.661C218.794 84.661 219.122 84.5677 219.406 84.3833L226.065 80.0851C226.759 79.636 227.041 78.7594 226.737 77.9892C226.468 77.3166 225.822 76.8892 225.121 76.8892Z" fill="#191D5D"/>
<path d="M177.57 58.1538C177.32 58.1473 177.084 58.0345 176.923 57.8414C176.763 57.6483 176.693 57.3966 176.734 57.1492L177.962 49.5162C178.027 49.1083 178.372 48.8024 178.787 48.7872C178.798 48.7872 178.809 48.7872 178.819 48.7872C179.219 48.7872 179.57 49.0606 179.663 49.4533L181.508 57.1601C181.571 57.4226 181.508 57.6982 181.338 57.9086C181.174 58.1126 180.926 58.2319 180.664 58.2319C180.657 58.2276 177.57 58.1538 177.57 58.1538Z" fill="#191D5D"/>
<path d="M178.816 49.6529L180.66 57.3597L177.586 57.2859L178.816 49.6529ZM178.816 47.9171C178.794 47.9171 178.773 47.9171 178.751 47.9193C177.924 47.9497 177.234 48.5615 177.102 49.3773L175.874 57.0103C175.794 57.505 175.932 58.0106 176.254 58.3968C176.575 58.783 177.045 59.0108 177.547 59.0217L180.621 59.0954C180.634 59.0954 180.649 59.0954 180.662 59.0954C181.185 59.0954 181.682 58.8589 182.012 58.451C182.35 58.0323 182.476 57.479 182.35 56.9561L180.506 49.2493C180.315 48.4661 179.617 47.9171 178.816 47.9171Z" fill="#191D5D"/>
<path d="M153.786 148.787C153.54 148.787 153.304 148.682 153.139 148.498L126.091 118.244C125.907 118.038 125.833 117.755 125.89 117.486C125.946 117.215 126.128 116.99 126.38 116.875C145.894 108.018 162.798 87.0672 171.137 75.3682C172.415 73.5738 173.749 71.8858 175.105 70.3475C173.992 65.0881 174.767 59.0368 176.995 55.804C177.934 54.4414 179.108 53.6299 180.388 53.4585C180.564 53.4346 180.746 53.4238 180.929 53.4238C183.558 53.4238 186.194 55.8105 187.438 58.1668C187.813 58.8806 188.104 59.6595 188.301 60.497C188.963 60.2475 189.625 60.0349 190.282 59.8591C190.384 54.4436 192.437 48.5788 195.285 45.6975C196.513 44.4542 197.863 43.7968 199.187 43.7968H199.278C202.209 43.8641 204.682 46.9494 205.522 49.8199C206.522 53.2437 205.583 57.5484 202.944 61.7381C203.472 62.133 203.982 62.5778 204.468 63.0681C207.635 58.1407 212.465 54.5412 216.047 54.5412C216.915 54.5412 217.696 54.7473 218.369 55.153C220.808 56.6306 221.526 60.4753 220.962 63.3437C219.942 68.5336 214.522 72.4543 209.649 74.0729C209.736 74.7303 209.788 75.3855 209.805 76.0299C211.287 75.5656 212.736 75.3248 214.049 75.3248C216.073 75.3248 217.746 75.9019 218.883 76.9954C221.161 79.1868 221.187 83.0619 220.055 85.5962C217.946 90.3174 211.443 91.9924 206.516 91.9924C205.097 91.9924 203.73 91.8579 202.53 91.5997C199.08 95.1428 194.099 99.4215 187.292 105.269C185.99 106.386 184.619 107.564 183.174 108.81C180.369 111.227 175.988 116.727 170.275 124.243C164.452 131.902 159.158 140.01 154.543 148.34C154.406 148.585 154.159 148.75 153.881 148.782C153.851 148.784 153.818 148.787 153.786 148.787Z" fill="#BEDCFC"/>
<path d="M199.189 44.6604C199.212 44.6604 199.236 44.6604 199.26 44.6604C201.588 44.7124 203.884 47.3009 204.691 50.0607C205.806 53.8773 204.181 58.3989 201.76 61.9659C202.801 62.6363 203.758 63.4955 204.613 64.5023C207.535 59.4274 212.537 55.4069 216.052 55.4069C216.741 55.4069 217.375 55.5609 217.924 55.8951C219.866 57.0711 220.658 60.4124 220.115 63.1744C219.109 68.2906 213.398 72.1049 208.683 73.4653C208.9 74.7303 208.989 76.0082 208.933 77.258C210.699 76.5724 212.472 76.1926 214.053 76.1926C215.769 76.1926 217.262 76.6374 218.286 77.6225C220.128 79.393 220.352 82.8168 219.267 85.2447C217.416 89.3866 211.534 91.1267 206.518 91.1267C204.964 91.1267 203.493 90.9596 202.25 90.645C198.191 94.8846 191.946 100.111 182.61 108.155C179.653 110.702 174.977 116.629 169.585 123.72C162.184 133.453 157.025 142.071 153.785 147.921L126.736 117.664C147.417 108.28 165.113 85.3119 171.842 75.8715C173.243 73.9036 174.649 72.1527 176.047 70.5905C174.367 63.4174 176.454 54.8601 180.503 54.3177C180.644 54.2982 180.785 54.2895 180.928 54.2895C183.035 54.2895 185.452 56.2618 186.672 58.5682C187.184 59.538 187.494 60.5947 187.646 61.6947C188.841 61.1783 190.011 60.7964 191.15 60.5361C191.057 52.9508 194.971 44.6604 199.189 44.6604ZM199.189 42.9246C197.629 42.9246 196.064 43.671 194.669 45.0834C191.744 48.0451 189.677 53.6972 189.436 59.1952C189.254 59.2494 189.071 59.308 188.887 59.3688C188.702 58.8047 188.475 58.2666 188.206 57.7589C186.882 55.2529 184.04 52.5537 180.928 52.5537C180.707 52.5537 180.486 52.5689 180.273 52.5971C178.743 52.8033 177.364 53.7406 176.279 55.3114C175.092 57.0298 174.25 59.551 173.905 62.4085C173.601 64.9319 173.695 67.6267 174.168 70.098C172.89 71.5712 171.633 73.1703 170.427 74.8648C162.139 86.4944 145.347 107.313 126.018 116.085C125.514 116.313 125.15 116.766 125.037 117.309C124.924 117.851 125.074 118.411 125.44 118.823L152.488 149.077C152.82 149.448 153.291 149.657 153.781 149.657C153.846 149.657 153.909 149.652 153.974 149.646C154.532 149.583 155.026 149.253 155.3 148.763C159.895 140.47 165.165 132.397 170.965 124.77C175.882 118.304 180.831 111.975 183.74 109.469C185.185 108.224 186.554 107.048 187.854 105.933C194.467 100.252 199.36 96.0498 202.821 92.5435C203.96 92.7518 205.218 92.8625 206.514 92.8625C211.701 92.8625 218.568 91.053 220.847 85.952C222.098 83.1466 222.046 78.8354 219.484 76.3706C218.182 75.1187 216.303 74.4569 214.049 74.4569C212.968 74.4569 211.808 74.6088 210.612 74.9038C210.606 74.8236 210.597 74.7411 210.59 74.6608C215.52 72.8318 220.775 68.8005 221.814 63.5107C222.435 60.3538 221.597 56.0925 218.82 54.411C218.011 53.9206 217.08 53.6733 216.049 53.6733C213.376 53.6733 210.753 55.3179 209.026 56.6957C207.295 58.0778 205.67 59.8222 204.322 61.7359C204.244 61.6665 204.166 61.5992 204.086 61.5341C206.544 57.3423 207.373 53.0549 206.355 49.5769C205.429 46.4113 202.641 43.0049 199.297 42.9289C199.262 42.9246 199.225 42.9246 199.189 42.9246Z" fill="#4344C6" stroke="#4344C6" stroke-width="1.32282"/>
</svg>
