<svg width="345" height="112" viewBox="0 0 345 112" fill="none" xmlns="http://www.w3.org/2000/svg">
<path fill-rule="evenodd" clip-rule="evenodd" d="M-511 89L-472.208 93C-433.417 105.393 -355.833 106.034 -278.25 99.8371C-200.667 93.6405 -123.083 56.4608 -45.5 34.7726C32.0833 13.0844 109.667 6.88778 187.25 16.1827C264.833 25.4777 342.417 50.2642 381.208 62.6574L420 75.0506V168H381.208C342.417 168 264.833 168 187.25 168C109.667 168 32.0833 168 -45.5 168C-123.083 168 -200.667 168 -278.25 168C-355.833 168 -433.417 168 -472.208 168H-511V89Z" fill="#828CFC"/>
<path d="M247.418 53.8348C209.483 55.0186 209.308 49.475 171.374 50.6567C169.379 50.7185 165.028 52.0111 164.966 50.0168C164.461 33.8085 170.004 33.6357 169.499 17.4275C169.437 15.4332 168.144 11.0819 170.139 11.0201C208.073 9.8363 208.246 15.3798 246.183 14.1982C248.177 14.1363 252.528 12.8438 252.59 14.8381C253.095 31.0463 247.552 31.2191 248.057 47.4274C248.121 49.4196 249.412 53.7729 247.418 53.8348Z" fill="#191D5D"/>
<path d="M247.418 53.8348C209.483 55.0186 209.308 49.475 171.374 50.6567C169.379 50.7185 165.028 52.0111 164.966 50.0168C164.461 33.8085 170.004 33.6357 169.499 17.4275C169.437 15.4332 168.144 11.0819 170.139 11.0201C208.073 9.83629 208.246 15.3798 246.183 14.1982C248.177 14.1363 252.528 12.8438 252.59 14.8381C253.095 31.0463 247.552 31.2191 248.057 47.4274C248.121 49.4196 249.412 53.7729 247.418 53.8348Z" stroke="#191D5D" stroke-width="1.70636" stroke-miterlimit="10" stroke-linecap="round" stroke-linejoin="round"/>
<path d="M199.03 27.1238C202.061 21.8938 206.736 17.4296 204.375 26.6802C205.881 24.5942 211.623 26.3005 211.879 28.4207C212.098 11.7901 220.368 35.3229 214.59 39.384C206.075 46.2329 191.366 37.5518 199.03 27.1238Z" fill="#191D5D" stroke="#191D5D" stroke-width="1.49306" stroke-miterlimit="10" stroke-linecap="round" stroke-linejoin="round"/>
<path d="M204.381 32.8913C204.221 34.0772 202.365 33.7999 202.557 32.6183C202.717 31.4345 204.575 31.7118 204.381 32.8913Z" fill="#191D5D" stroke="#191D5D" stroke-width="1.49306" stroke-miterlimit="10" stroke-linecap="round" stroke-linejoin="round"/>
<path d="M210.412 34.1028C210.252 35.2887 208.396 35.0114 208.588 33.8297C208.748 32.646 210.606 32.9233 210.412 34.1028Z" fill="#191D5D" stroke="#191D5D" stroke-width="1.49306" stroke-miterlimit="10" stroke-linecap="round" stroke-linejoin="round"/>
<path d="M237.543 25.7415C229.851 25.4748 232.432 24.21 236.896 20.7461C238.959 18.8456 235.587 16.1773 234.444 18.788C234.358 19.0525 234.081 19.1805 233.819 19.125C232.613 14.0849 244.641 18.1076 234.793 23.5765C233.36 25.3191 240.151 24.001 237.543 25.7415Z" fill="#191D5D"/>
<path d="M242.802 17.5147C246.582 17.3483 245.645 27.2047 241.949 26.3174C238.156 26.4773 239.131 16.6253 242.802 17.5147ZM242.032 25.4578C244.395 25.5794 245.052 18.7134 242.719 18.3743C240.37 18.2634 239.696 25.1165 242.032 25.4578Z" fill="#191D5D"/>
<path d="M225.767 26.631C224.903 21.2453 219.718 17.5489 213.944 18.0118C211.504 15.5141 207.767 14.2023 203.857 14.8315C199.065 15.6015 195.428 19.0548 194.487 23.2311C190.518 25.1657 188.165 30.2848 189.048 35.7963C190.089 42.2805 195.217 46.8514 200.502 46.0025C200.989 45.9235 201.46 45.802 201.912 45.642C203.755 48.8009 207.697 50.648 211.875 49.9762C217.161 49.1272 220.825 44.5777 220.059 39.8148C219.942 39.0874 219.729 38.3985 219.432 37.7544C223.807 35.7408 226.511 31.2787 225.767 26.631Z" stroke="#191D5D" stroke-width="1.49306" stroke-miterlimit="10" stroke-linecap="round" stroke-linejoin="round"/>
<path d="M172.26 37.8803C171.763 39.1665 171.264 40.7406 170.912 42.5707C170.507 44.6716 170.403 46.5443 170.42 48.0651" stroke="#191D5D" stroke-width="1.49306" stroke-miterlimit="10" stroke-linecap="round" stroke-linejoin="round"/>
<path d="M176.614 38.9084C176.563 39.2177 176.343 40.3225 175.354 41.1053C173.786 42.3488 171.8 41.5852 171.715 41.5511" stroke="#191D5D" stroke-width="1.49306" stroke-miterlimit="10" stroke-linecap="round" stroke-linejoin="round"/>
<path d="M171.055 41.7365C171.334 41.7792 174.015 42.2399 175.129 44.5968C175.636 45.6739 175.604 46.6956 175.542 47.2395" stroke="#191D5D" stroke-width="1.49306" stroke-miterlimit="10" stroke-linecap="round" stroke-linejoin="round"/>
<path d="M251.777 40.9858C214.975 50.2662 213.619 44.8891 176.817 54.1695C174.882 54.658 170.908 56.8507 170.42 54.9161C166.455 39.192 171.832 37.8354 167.867 22.1113C167.378 20.1767 165.186 16.203 167.12 15.7146C203.922 6.43414 205.279 11.8113 242.081 2.53084C244.015 2.04239 247.989 -0.150277 248.477 1.78431C252.442 17.5084 247.065 18.865 251.03 34.5891C251.519 36.5236 253.712 40.4995 251.777 40.9858Z" fill="#191D5D"/>
<path d="M251.777 40.9858C214.975 50.2662 213.619 44.8891 176.817 54.1695C174.882 54.658 170.908 56.8507 170.42 54.9161C166.455 39.192 171.832 37.8354 167.867 22.1113C167.378 20.1767 165.186 16.203 167.12 15.7146C203.922 6.43414 205.279 11.8113 242.081 2.53084C244.015 2.04239 247.989 -0.150278 248.477 1.78431C252.442 17.5084 247.065 18.865 251.03 34.5891C251.519 36.5236 253.712 40.4995 251.777 40.9858Z" stroke="#191D5D" stroke-width="1.70636" stroke-miterlimit="10" stroke-linecap="round" stroke-linejoin="round"/>
<path d="M198.783 25.2616C200.624 19.5026 204.233 14.1404 203.909 23.6832C204.932 21.3241 210.907 21.7593 211.611 23.777C208.264 7.48555 221.382 28.6999 216.606 33.9043C209.755 42.419 193.53 37.0888 198.783 25.2616Z" fill="#191D5D" stroke="#BEDCFC" stroke-width="1.49306" stroke-miterlimit="10" stroke-linecap="round" stroke-linejoin="round"/>
<path d="M205.241 29.7494C205.339 30.9417 203.466 31.0676 203.402 29.8731C203.304 28.6829 205.177 28.555 205.241 29.7494Z" fill="#191D5D" stroke="#BEDCFC" stroke-width="1.49306" stroke-miterlimit="10" stroke-linecap="round" stroke-linejoin="round"/>
<path d="M211.389 29.6405C211.487 30.8329 209.615 30.9587 209.551 29.7642C209.452 28.5741 211.325 28.4461 211.389 29.6405Z" fill="#191D5D" stroke="#BEDCFC" stroke-width="1.49306" stroke-miterlimit="10" stroke-linecap="round" stroke-linejoin="round"/>
<path d="M236.106 15.6634C228.536 17.0498 230.786 15.2624 234.404 10.924C236.012 8.62681 232.145 6.74128 231.588 9.53758C231.561 9.81486 231.32 9.9983 231.049 10.0004C228.792 5.33567 241.402 6.68796 232.956 14.1405C231.927 16.1476 238.279 13.4025 236.106 15.6634Z" fill="#BEDCFC"/>
<path d="M239.483 6.5003C243.141 5.52981 244.336 15.3563 240.535 15.2817C236.866 16.25 235.706 6.41711 239.483 6.5003ZM240.43 14.4221C242.766 14.036 241.936 7.18711 239.586 7.35561C237.267 7.75234 238.078 14.5906 240.43 14.4221Z" fill="#BEDCFC"/>
<path d="M224.796 19.0526C222.798 13.9783 216.943 11.4763 211.401 13.1656C208.483 11.2481 204.552 10.7682 200.869 12.2186C196.351 13.9975 193.54 18.1503 193.514 22.4312C190.05 25.172 188.849 30.675 190.893 35.8687C193.299 41.9796 199.286 45.3455 204.266 43.3853C204.725 43.204 205.158 42.9843 205.565 42.7305C208.042 45.4201 212.286 46.3799 216.226 44.8293C221.206 42.8691 223.811 37.6391 222.045 33.1514C221.776 32.4667 221.417 31.8396 220.991 31.2722C224.834 28.3714 226.522 23.4337 224.796 19.0526Z" stroke="#BEDCFC" stroke-width="1.49306" stroke-miterlimit="10" stroke-linecap="round" stroke-linejoin="round"/>
<path d="M174.945 41.5017C174.734 42.8647 174.587 44.5092 174.634 46.3712C174.687 48.5106 174.986 50.362 175.329 51.8422" stroke="#BEDCFC" stroke-width="1.49306" stroke-miterlimit="10" stroke-linecap="round" stroke-linejoin="round"/>
<path d="M179.408 41.5745C179.425 41.888 179.447 43.0142 178.649 43.9911C177.384 45.5418 175.279 45.2197 175.191 45.2047" stroke="#BEDCFC" stroke-width="1.49306" stroke-miterlimit="10" stroke-linecap="round" stroke-linejoin="round"/>
<path d="M174.59 45.5268C174.871 45.5097 177.589 45.3839 179.182 47.4486C179.909 48.3914 180.097 49.396 180.153 49.942" stroke="#BEDCFC" stroke-width="1.49306" stroke-miterlimit="10" stroke-linecap="round" stroke-linejoin="round"/>
<path d="M259.287 92.5948C258.707 92.5948 258.12 92.5329 257.548 92.4114L205.432 81.3776C200.927 80.4242 198.037 75.9813 198.99 71.4765L204.043 47.6066C204.856 43.7673 208.288 40.9817 212.206 40.9817C212.786 40.9817 213.373 41.0435 213.945 41.1651L266.061 52.1989C268.243 52.6617 270.116 53.9458 271.332 55.8163C272.547 57.6869 272.963 59.918 272.503 62.1022L267.45 85.972C266.635 89.8092 263.203 92.5948 259.287 92.5948Z" fill="#D0D4FF"/>
<path d="M248.248 84.2188C251.776 84.2188 254.636 81.3587 254.636 77.8306C254.636 74.3025 251.776 71.4424 248.248 71.4424C244.719 71.4424 241.859 74.3025 241.859 77.8306C241.859 81.3587 244.719 84.2188 248.248 84.2188Z" fill="#D5FAFC"/>
<path d="M256.685 86.0059C260.213 86.0059 263.073 83.1458 263.073 79.6177C263.073 76.0896 260.213 73.2295 256.685 73.2295C253.157 73.2295 250.297 76.0896 250.297 79.6177C250.297 83.1458 253.157 86.0059 256.685 86.0059Z" fill="#4748CE"/>
<path d="M238.547 54.0417C241.025 56.3773 241.305 60.5216 239.054 63.1089C238.308 63.9685 237.327 64.6169 236.254 64.9923" stroke="white" stroke-width="1.73607" stroke-miterlimit="10" stroke-linecap="round"/>
<path d="M235.953 55.4368C238.197 57.6529 237.38 61.5861 234.406 62.6675" stroke="white" stroke-width="1.73607" stroke-miterlimit="10" stroke-linecap="round"/>
<path d="M233.599 56.1125C234.632 57.6952 234.158 59.9881 232.559 61.0055" stroke="white" stroke-width="1.73607" stroke-miterlimit="10" stroke-linecap="round"/>
<path d="M231.08 56.7826C231.637 57.6337 231.381 58.8687 230.52 59.4168" stroke="white" stroke-width="1.73607" stroke-miterlimit="10" stroke-linecap="round"/>
<rect x="206.363" y="40.1079" width="68.5883" height="39.8791" rx="3.47213" transform="rotate(12.1915 206.363 40.1079)" stroke="#191D5D" stroke-width="2.31476"/>
<path d="M280.569 43.1928C289.699 43.1928 297.1 35.7919 297.1 26.6624C297.1 17.533 289.699 10.1321 280.569 10.1321C271.44 10.1321 264.039 17.533 264.039 26.6624C264.039 35.7919 271.44 43.1928 280.569 43.1928Z" fill="#D0D4FF" stroke="#4344C6" stroke-width="2.31476" stroke-miterlimit="10" stroke-linecap="round" stroke-linejoin="round"/>
<path d="M274.461 19.4231C285.902 17.3414 291.081 26.8842 277.739 25.9755" stroke="#4344C6" stroke-width="2.31476" stroke-miterlimit="10" stroke-linecap="round" stroke-linejoin="round"/>
<path d="M277.559 33.7992C277.559 29.1685 277.559 24.5678 277.559 19.9265" stroke="#4344C6" stroke-width="2.31476" stroke-miterlimit="10" stroke-linecap="round" stroke-linejoin="round"/>
<path d="M279.148 16.1172V18.6532" stroke="#4344C6" stroke-width="2.31476" stroke-miterlimit="10" stroke-linecap="round" stroke-linejoin="round"/>
<path d="M281.75 16.2112V19.1546" stroke="#4344C6" stroke-width="2.31476" stroke-miterlimit="10" stroke-linecap="round" stroke-linejoin="round"/>
<path d="M277.555 26.3511C281.529 25.9394 289.754 26.1677 286.851 32.2658C283.903 35.6977 278.372 33.7055 274.422 34.1385" stroke="#4344C6" stroke-width="2.31476" stroke-miterlimit="10" stroke-linecap="round" stroke-linejoin="round"/>
<path d="M279.148 34.7081V37.242" stroke="#4344C6" stroke-width="2.31476" stroke-miterlimit="10" stroke-linecap="round" stroke-linejoin="round"/>
<path d="M281.945 34.5205V37.3104" stroke="#4344C6" stroke-width="2.31476" stroke-miterlimit="10" stroke-linecap="round" stroke-linejoin="round"/>
<path d="M224.956 106.423C231.14 106.423 236.154 101.409 236.154 95.2246C236.154 89.0401 231.14 84.0266 224.956 84.0266C218.771 84.0266 213.758 89.0401 213.758 95.2246C213.758 101.409 218.771 106.423 224.956 106.423Z" fill="#D0D4FF" stroke="#191D5D" stroke-width="1.73607" stroke-miterlimit="10"/>
<path d="M222.794 99.5847C222.018 99.557 220.687 99.6465 219.949 99.5271C219.155 99.0387 220.032 98.3305 220.834 98.5161C221.284 97.4688 220.955 94.0198 221.224 92.4585C220.429 93.1133 219.887 93.3607 219.671 92.4862C223.654 87.5101 222.12 94.3291 222.09 96.8993C222.082 97.3024 222.186 98.0959 222.188 98.4905C223.08 98.1407 223.963 99.3458 222.794 99.5847Z" fill="#191D5D"/>
<path d="M227.558 99.8021C223.155 99.7744 223.313 90.6518 227.735 90.6411C232.167 90.72 231.806 99.9749 227.558 99.8021ZM227.728 91.7502C224.723 91.8782 224.693 98.5927 227.555 98.6994C230.279 98.6418 230.655 91.8057 227.728 91.7502Z" fill="#191D5D"/>
<path d="M208.79 46.1269C208.62 46.1269 208.451 46.0749 208.308 45.9729L205.905 44.2648C205.709 44.1254 205.582 43.909 205.559 43.6698C205.534 43.4305 205.615 43.1933 205.78 43.0185L210.852 37.6112C211.014 37.4385 211.235 37.3491 211.46 37.3491C211.611 37.3491 211.763 37.3907 211.899 37.4739C212.236 37.684 212.377 38.1022 212.238 38.4726L209.568 45.588C209.477 45.8294 209.279 46.0166 209.034 46.0915C208.952 46.1144 208.871 46.1269 208.79 46.1269Z" fill="#191D5D"/>
<path d="M211.461 38.1815L208.792 45.2969L206.389 43.5888L211.461 38.1815ZM211.461 36.517C211.014 36.517 210.571 36.698 210.246 37.0434L205.174 42.4507C204.845 42.8003 204.683 43.2767 204.731 43.7552C204.779 44.2338 205.03 44.6686 205.424 44.9453L207.827 46.6534C208.112 46.8553 208.449 46.9614 208.792 46.9614C208.954 46.9614 209.119 46.9364 209.279 46.8885C209.772 46.7367 210.169 46.3663 210.35 45.8816L213.02 38.7661C213.299 38.0233 213.014 37.187 212.339 36.7688C212.069 36.5982 211.763 36.517 211.461 36.517Z" fill="#191D5D"/>
<path d="M225.531 57.9574C225.295 57.9574 225.069 57.8575 224.911 57.6807L222.947 55.4836C222.786 55.3047 222.711 55.0654 222.741 54.8262C222.77 54.5869 222.901 54.3747 223.1 54.2395L229.244 50.0909C229.386 49.9952 229.548 49.9473 229.71 49.9473C229.923 49.9473 230.135 50.0285 230.295 50.1866C230.578 50.4654 230.624 50.9044 230.405 51.2352L226.228 57.5829C226.086 57.7993 225.851 57.9366 225.593 57.9553C225.57 57.9553 225.549 57.9574 225.531 57.9574Z" fill="#191D5D"/>
<path d="M229.71 50.7775L225.533 57.1253L223.567 54.9282L229.71 50.7775ZM229.71 49.1131C229.388 49.1131 229.063 49.2067 228.778 49.3981L222.635 53.5467C222.237 53.8151 221.973 54.2437 221.915 54.7201C221.856 55.1966 222.006 55.6772 222.327 56.0351L224.293 58.2321C224.609 58.5858 225.063 58.7876 225.533 58.7876C225.574 58.7876 225.614 58.7855 225.655 58.7835C226.171 58.746 226.64 58.4693 226.923 58.0386L231.1 51.6909C231.537 51.0272 231.444 50.1492 230.88 49.5916C230.559 49.2754 230.135 49.1131 229.71 49.1131Z" fill="#191D5D"/>
<path d="M225.614 80.4976C225.52 80.4976 225.427 80.4809 225.335 80.4497C225.092 80.3623 224.902 80.1688 224.823 79.9233L223.912 77.1188C223.837 76.8899 223.866 76.6402 223.989 76.4343C224.112 76.2283 224.32 76.0847 224.555 76.0431L231.849 74.7262C231.899 74.7178 231.949 74.7137 231.997 74.7137C232.334 74.7137 232.644 74.9176 232.771 75.24C232.917 75.6083 232.781 76.0286 232.449 76.2449L226.063 80.3665C225.928 80.4518 225.772 80.4976 225.614 80.4976Z" fill="#191D5D"/>
<path d="M232 75.5439L225.615 79.6654L224.704 76.8609L232 75.5439ZM232.003 73.8794C231.905 73.8794 231.805 73.8878 231.705 73.9065L224.411 75.2235C223.938 75.3088 223.524 75.5938 223.279 76.0078C223.033 76.4219 222.975 76.9191 223.125 77.3768L224.036 80.1814C224.196 80.6724 224.575 81.0615 225.062 81.2362C225.243 81.3007 225.432 81.3319 225.619 81.3319C225.936 81.3319 226.25 81.2425 226.522 81.0656L232.908 76.9441C233.573 76.5134 233.844 75.6729 233.553 74.9343C233.295 74.2893 232.675 73.8794 232.003 73.8794Z" fill="#191D5D"/>
<path d="M186.406 55.9141C186.167 55.9078 185.94 55.7996 185.786 55.6145C185.632 55.4293 185.565 55.188 185.605 54.9508L186.783 47.6314C186.845 47.2403 187.176 46.9469 187.573 46.9324C187.584 46.9324 187.594 46.9324 187.604 46.9324C187.987 46.9324 188.324 47.1945 188.414 47.5711L190.182 54.9612C190.242 55.2129 190.182 55.4772 190.02 55.679C189.862 55.8745 189.625 55.989 189.373 55.989C189.367 55.9848 186.406 55.9141 186.406 55.9141Z" fill="#191D5D"/>
<path d="M187.604 47.7626L189.373 55.1527L186.425 55.0819L187.604 47.7626ZM187.604 46.0981C187.584 46.0981 187.563 46.0981 187.542 46.1002C186.749 46.1293 186.088 46.7161 185.961 47.4983L184.783 54.8177C184.706 55.2921 184.839 55.7768 185.147 56.1472C185.455 56.5175 185.907 56.7359 186.387 56.7463L189.335 56.8171C189.348 56.8171 189.362 56.8171 189.375 56.8171C189.876 56.8171 190.353 56.5903 190.669 56.1992C190.994 55.7976 191.114 55.2671 190.994 54.7657L189.225 47.3756C189.042 46.6245 188.372 46.0981 187.604 46.0981Z" fill="#191D5D"/>
<path d="M163.599 142.822C163.364 142.822 163.137 142.723 162.979 142.546L137.043 113.535C136.866 113.337 136.796 113.066 136.85 112.809C136.904 112.548 137.079 112.332 137.32 112.222C156.032 103.729 172.242 83.6393 180.237 72.421C181.463 70.7004 182.742 69.0817 184.043 67.6066C182.975 62.5634 183.718 56.7608 185.855 53.6608C186.756 52.3542 187.881 51.576 189.109 51.4117C189.277 51.3888 189.452 51.3784 189.627 51.3784C192.149 51.3784 194.676 53.667 195.869 55.9265C196.229 56.611 196.507 57.3579 196.697 58.161C197.331 57.9217 197.966 57.7178 198.596 57.5493C198.694 52.3562 200.662 46.7325 203.394 43.9696C204.571 42.7774 205.866 42.147 207.135 42.147H207.222C210.033 42.2115 212.405 45.17 213.21 47.9226C214.169 51.2057 213.268 55.3335 210.738 59.351C211.244 59.7297 211.733 60.1562 212.199 60.6264C215.236 55.9015 219.868 52.4499 223.303 52.4499C224.135 52.4499 224.884 52.6475 225.529 53.0366C227.867 54.4534 228.556 58.1402 228.015 60.8906C227.037 65.8673 221.84 69.6268 217.167 71.1789C217.25 71.8093 217.3 72.4376 217.317 73.0556C218.738 72.6103 220.128 72.3794 221.386 72.3794C223.328 72.3794 224.932 72.9328 226.022 73.9814C228.206 76.0828 228.231 79.7986 227.145 82.2287C225.123 86.756 218.888 88.3621 214.163 88.3621C212.802 88.3621 211.491 88.2331 210.341 87.9855C207.033 91.3831 202.256 95.4859 195.729 101.093C194.481 102.164 193.166 103.294 191.78 104.488C189.09 106.806 184.89 112.08 179.411 119.287C173.827 126.632 168.751 134.407 164.325 142.394C164.194 142.629 163.957 142.787 163.691 142.818C163.662 142.82 163.631 142.822 163.599 142.822Z" fill="#BEDCFC"/>
<path d="M207.14 42.975C207.163 42.975 207.186 42.975 207.209 42.975C209.441 43.025 211.642 45.5071 212.416 48.1535C213.486 51.8132 211.927 56.149 209.605 59.5694C210.604 60.2123 211.522 61.0362 212.341 62.0016C215.144 57.1352 219.939 53.28 223.31 53.28C223.972 53.28 224.579 53.4277 225.105 53.7481C226.968 54.8757 227.727 58.0798 227.207 60.7283C226.241 65.6342 220.765 69.2918 216.244 70.5963C216.452 71.8093 216.538 73.0347 216.484 74.2331C218.177 73.5757 219.877 73.2116 221.394 73.2116C223.039 73.2116 224.471 73.6381 225.453 74.5826C227.219 76.2804 227.434 79.5635 226.393 81.8916C224.619 85.8634 218.978 87.5319 214.168 87.5319C212.678 87.5319 211.268 87.3717 210.076 87.0701C206.183 91.1354 200.195 96.1475 191.243 103.86C188.407 106.303 183.923 111.987 178.753 118.786C171.656 128.119 166.709 136.383 163.603 141.992L137.664 112.979C157.496 103.981 174.465 81.9561 180.917 72.9037C182.261 71.0166 183.609 69.3376 184.949 67.8396C183.339 60.9613 185.34 52.7557 189.222 52.2355C189.358 52.2168 189.493 52.2085 189.63 52.2085C191.65 52.2085 193.968 54.0997 195.137 56.3113C195.628 57.2413 195.926 58.2545 196.071 59.3094C197.218 58.8142 198.339 58.448 199.432 58.1984C199.342 50.9248 203.095 42.975 207.14 42.975ZM207.14 41.3106C205.644 41.3106 204.144 42.0263 202.806 43.3807C200.002 46.2207 198.019 51.6405 197.788 56.9126C197.613 56.9646 197.438 57.0208 197.262 57.079C197.085 56.5381 196.866 56.0221 196.608 55.5353C195.339 53.1323 192.614 50.544 189.63 50.544C189.418 50.544 189.206 50.5586 189.002 50.5857C187.535 50.7833 186.212 51.6821 185.171 53.1884C184.033 54.8362 183.226 57.2538 182.895 59.9939C182.604 62.4136 182.694 64.9976 183.147 67.3673C181.922 68.78 180.717 70.3134 179.56 71.9383C171.613 83.09 155.511 103.053 136.976 111.464C136.493 111.683 136.144 112.118 136.035 112.638C135.927 113.158 136.071 113.695 136.422 114.09L162.358 143.101C162.677 143.457 163.128 143.657 163.598 143.657C163.661 143.657 163.721 143.653 163.784 143.646C164.318 143.586 164.793 143.27 165.055 142.799C169.461 134.848 174.515 127.106 180.076 119.793C184.791 113.593 189.536 107.524 192.326 105.121C193.712 103.927 195.025 102.799 196.271 101.73C202.613 96.2827 207.304 92.2527 210.623 88.8905C211.715 89.0903 212.922 89.1964 214.164 89.1964C219.138 89.1964 225.723 87.4612 227.908 82.5699C229.108 79.8797 229.058 75.7457 226.601 73.3822C225.353 72.1817 223.551 71.5471 221.39 71.5471C220.353 71.5471 219.24 71.6928 218.094 71.9757C218.088 71.8987 218.079 71.8197 218.073 71.7427C222.8 69.9888 227.839 66.1232 228.836 61.0508C229.431 58.0236 228.628 53.9374 225.965 52.325C225.189 51.8548 224.296 51.6176 223.308 51.6176C220.745 51.6176 218.229 53.1947 216.573 54.5158C214.913 55.8411 213.355 57.5139 212.063 59.3489C211.988 59.2823 211.913 59.2178 211.836 59.1554C214.193 55.1358 214.988 51.0247 214.012 47.6895C213.124 44.654 210.45 41.3876 207.244 41.3148C207.211 41.3106 207.175 41.3106 207.14 41.3106Z" fill="#4344C6" stroke="#4344C6" stroke-width="1.26846"/>
</svg>
