<svg width="188" height="75" viewBox="0 0 188 75" fill="none" xmlns="http://www.w3.org/2000/svg">
<path fill-rule="evenodd" clip-rule="evenodd" d="M-511 80L-472.208 84C-433.417 96.3932 -355.833 97.0338 -278.25 90.8371C-200.667 84.6405 -123.083 47.4608 -45.5 25.7726C32.0833 4.08441 109.667 -2.11222 187.25 7.18272C264.833 16.4777 342.417 41.2642 381.208 53.6574L420 66.0506V159H381.208C342.417 159 264.833 159 187.25 159C109.667 159 32.0833 159 -45.5 159C-123.083 159 -200.667 159 -278.25 159C-355.833 159 -433.417 159 -472.208 159H-511V80Z" fill="#828CFC"/>
<path d="M129.582 36.5553C104.054 37.3519 103.936 33.6214 78.408 34.4166C77.0659 34.4582 74.1378 35.328 74.0962 33.986C73.756 23.0786 77.4865 22.9624 77.1463 12.0551C77.1047 10.713 76.2349 7.78484 77.5769 7.74322C103.105 6.94659 103.221 10.6771 128.751 9.88191C130.093 9.84028 133.021 8.97045 133.062 10.3125C133.403 21.2198 129.672 21.3361 130.012 32.2434C130.055 33.5841 130.924 36.5137 129.582 36.5553Z" fill="#191D5D"/>
<path d="M129.582 36.5553C104.054 37.3519 103.936 33.6214 78.408 34.4166C77.0659 34.4582 74.1378 35.328 74.0962 33.986C73.756 23.0786 77.4865 22.9624 77.1463 12.0551C77.1047 10.713 76.2349 7.78484 77.5769 7.74322C103.105 6.94659 103.221 10.6771 128.751 9.88191C130.093 9.84028 133.021 8.97045 133.062 10.3125C133.403 21.2198 129.672 21.3361 130.012 32.2434C130.055 33.5841 130.924 36.5137 129.582 36.5553Z" stroke="#191D5D" stroke-width="1.14829" stroke-miterlimit="10" stroke-linecap="round" stroke-linejoin="round"/>
<path d="M97.0124 18.5803C99.0521 15.0608 102.198 12.0566 100.609 18.2817C101.623 16.8779 105.487 18.0262 105.659 19.453C105.807 8.26144 111.372 24.0978 107.483 26.8307C101.753 31.4397 91.8551 25.5978 97.0124 18.5803Z" fill="#191D5D" stroke="#191D5D" stroke-width="1.00475" stroke-miterlimit="10" stroke-linecap="round" stroke-linejoin="round"/>
<path d="M100.616 22.462C100.508 23.26 99.2591 23.0734 99.3883 22.2782C99.4959 21.4816 100.746 21.6682 100.616 22.462Z" fill="#191D5D" stroke="#191D5D" stroke-width="1.00475" stroke-miterlimit="10" stroke-linecap="round" stroke-linejoin="round"/>
<path d="M104.67 23.2769C104.563 24.075 103.314 23.8884 103.443 23.0932C103.551 22.2965 104.801 22.4831 104.67 23.2769Z" fill="#191D5D" stroke="#191D5D" stroke-width="1.00475" stroke-miterlimit="10" stroke-linecap="round" stroke-linejoin="round"/>
<path d="M122.925 17.6499C117.749 17.4705 119.486 16.6193 122.49 14.2883C123.878 13.0094 121.609 11.2138 120.84 12.9706C120.782 13.1486 120.596 13.2347 120.419 13.1974C119.608 9.80566 127.702 12.5128 121.075 16.193C120.11 17.3657 124.681 16.4787 122.925 17.6499Z" fill="#191D5D"/>
<path d="M126.464 12.1135C129.007 12.0015 128.377 18.6343 125.89 18.0372C123.338 18.1449 123.994 11.5149 126.464 12.1135ZM125.946 17.4588C127.536 17.5406 127.978 12.9202 126.408 12.6919C124.828 12.6173 124.374 17.2291 125.946 17.4588Z" fill="#191D5D"/>
<path d="M115.006 18.2484C114.425 14.6241 110.936 12.1366 107.05 12.448C105.408 10.7672 102.893 9.88449 100.262 10.3079C97.0369 10.8261 94.5896 13.1499 93.9566 15.9604C91.2854 17.2623 89.7022 20.7071 90.2964 24.4161C90.9969 28.7796 94.4475 31.8556 98.0043 31.2843C98.3316 31.2312 98.6488 31.1494 98.9531 31.0417C100.193 33.1675 102.846 34.4105 105.658 33.9584C109.215 33.3871 111.68 30.3255 111.165 27.1203C111.086 26.6309 110.943 26.1673 110.743 25.7338C113.687 24.3788 115.507 21.376 115.006 18.2484Z" stroke="#191D5D" stroke-width="1.00475" stroke-miterlimit="10" stroke-linecap="round" stroke-linejoin="round"/>
<path d="M78.9938 25.8184C78.6594 26.6839 78.3235 27.7432 78.0866 28.9748C77.8139 30.3886 77.7436 31.6489 77.7551 32.6723" stroke="#191D5D" stroke-width="1.00475" stroke-miterlimit="10" stroke-linecap="round" stroke-linejoin="round"/>
<path d="M81.9298 26.5101C81.8954 26.7182 81.7476 27.4617 81.0815 27.9885C80.0266 28.8253 78.6902 28.3115 78.6328 28.2885" stroke="#191D5D" stroke-width="1.00475" stroke-miterlimit="10" stroke-linecap="round" stroke-linejoin="round"/>
<path d="M78.1836 28.4136C78.3716 28.4423 80.1759 28.7524 80.9251 30.3385C81.2668 31.0633 81.2452 31.7509 81.2036 32.1169" stroke="#191D5D" stroke-width="1.00475" stroke-miterlimit="10" stroke-linecap="round" stroke-linejoin="round"/>
<path d="M132.497 27.9083C107.732 34.1536 106.819 30.5351 82.053 36.7803C80.7511 37.109 78.077 38.5846 77.7483 37.2827C75.08 26.7012 78.6985 25.7883 76.0302 15.2068C75.7015 13.9049 74.2259 11.2309 75.5278 10.9022C100.294 4.65689 101.206 8.27544 125.972 2.03018C127.274 1.70148 129.948 0.225923 130.277 1.5278C132.945 12.1093 129.327 13.0222 131.995 23.6037C132.324 24.9056 133.799 27.5811 132.497 27.9083Z" fill="#191D5D"/>
<path d="M132.497 27.9084C107.732 34.1536 106.819 30.5351 82.053 36.7803C80.7511 37.109 78.077 38.5846 77.7483 37.2827C75.08 26.7012 78.6985 25.7883 76.0302 15.2068C75.7015 13.9049 74.2259 11.2309 75.5278 10.9022C100.294 4.65689 101.206 8.27544 125.972 2.03018C127.274 1.70148 129.948 0.225923 130.277 1.5278C132.945 12.1093 129.327 13.0222 131.995 23.6037C132.324 24.9056 133.799 27.5811 132.497 27.9084Z" stroke="#191D5D" stroke-width="1.14829" stroke-miterlimit="10" stroke-linecap="round" stroke-linejoin="round"/>
<path d="M96.845 17.3264C98.0837 13.4509 100.512 9.84243 100.294 16.2642C100.983 14.6767 105.004 14.9695 105.477 16.3274C103.225 5.36409 112.053 19.6402 108.839 23.1425C104.228 28.8725 93.3097 25.2855 96.845 17.3264Z" fill="#191D5D" stroke="#BEDCFC" stroke-width="1.00475" stroke-miterlimit="10" stroke-linecap="round" stroke-linejoin="round"/>
<path d="M101.193 20.3465C101.259 21.1489 99.9987 21.2335 99.9556 20.4297C99.8896 19.6288 101.15 19.5427 101.193 20.3465Z" fill="#191D5D" stroke="#BEDCFC" stroke-width="1.00475" stroke-miterlimit="10" stroke-linecap="round" stroke-linejoin="round"/>
<path d="M105.33 20.2733C105.396 21.0756 104.135 21.1603 104.092 20.3565C104.026 19.5556 105.287 19.4694 105.33 20.2733Z" fill="#191D5D" stroke="#BEDCFC" stroke-width="1.00475" stroke-miterlimit="10" stroke-linecap="round" stroke-linejoin="round"/>
<path d="M121.956 10.8675C116.862 11.8005 118.376 10.5976 120.81 7.67811C121.893 6.13223 119.29 4.86336 118.916 6.74513C118.897 6.93172 118.735 7.05517 118.552 7.0566C117.034 3.91746 125.52 4.82748 119.836 9.84264C119.144 11.1933 123.418 9.34601 121.956 10.8675Z" fill="#BEDCFC"/>
<path d="M124.218 4.70114C126.68 4.04805 127.484 10.6608 124.926 10.6105C122.457 11.2622 121.676 4.64516 124.218 4.70114ZM124.856 10.0321C126.427 9.77229 125.869 5.16333 124.287 5.27673C122.727 5.5437 123.272 10.1455 124.856 10.0321Z" fill="#BEDCFC"/>
<path d="M114.338 13.1486C112.994 9.73391 109.053 8.05023 105.324 9.18704C103.361 7.89664 100.715 7.57369 98.2366 8.54973C95.1965 9.74683 93.3047 12.5415 93.2874 15.4223C90.9564 17.2667 90.1483 20.9699 91.5234 24.465C93.1425 28.5774 97.1715 30.8424 100.523 29.5233C100.832 29.4013 101.123 29.2534 101.397 29.0826C103.064 30.8926 105.92 31.5385 108.571 30.495C111.923 29.1759 113.675 25.6564 112.487 22.6364C112.306 22.1756 112.065 21.7536 111.778 21.3718C114.364 19.4197 115.5 16.0969 114.338 13.1486Z" stroke="#BEDCFC" stroke-width="1.00475" stroke-miterlimit="10" stroke-linecap="round" stroke-linejoin="round"/>
<path d="M80.7936 28.2556C80.6515 29.1728 80.5524 30.2795 80.584 31.5326C80.6199 32.9722 80.8209 34.2181 81.0519 35.2143" stroke="#BEDCFC" stroke-width="1.00475" stroke-miterlimit="10" stroke-linecap="round" stroke-linejoin="round"/>
<path d="M83.7947 28.3044C83.8062 28.5154 83.8206 29.2733 83.2838 29.9307C82.4326 30.9742 81.0159 30.7575 80.957 30.7474" stroke="#BEDCFC" stroke-width="1.00475" stroke-miterlimit="10" stroke-linecap="round" stroke-linejoin="round"/>
<path d="M80.5586 30.9646C80.7481 30.9531 82.5767 30.8684 83.6489 32.2579C84.1384 32.8923 84.2647 33.5684 84.302 33.9358" stroke="#BEDCFC" stroke-width="1.00475" stroke-miterlimit="10" stroke-linecap="round" stroke-linejoin="round"/>
<path d="M137.558 62.6376C137.168 62.6376 136.773 62.596 136.388 62.5142L101.317 55.089C98.2851 54.4474 96.3402 51.4575 96.9818 48.4261L100.382 32.3629C100.929 29.7792 103.239 27.9047 105.875 27.9047C106.266 27.9047 106.66 27.9463 107.045 28.0281L142.117 35.4532C143.585 35.7647 144.845 36.6288 145.664 37.8876C146.482 39.1464 146.762 40.6478 146.452 42.1176L143.051 58.1808C142.503 60.763 140.193 62.6376 137.558 62.6376Z" fill="#D0D4FF"/>
<path d="M130.143 57.0012C132.517 57.0012 134.442 55.0765 134.442 52.7022C134.442 50.328 132.517 48.4033 130.143 48.4033C127.768 48.4033 125.844 50.328 125.844 52.7022C125.844 55.0765 127.768 57.0012 130.143 57.0012Z" fill="#D5FAFC"/>
<path d="M135.811 58.2038C138.185 58.2038 140.11 56.2791 140.11 53.9049C140.11 51.5306 138.185 49.606 135.811 49.606C133.436 49.606 131.512 51.5306 131.512 53.9049C131.512 56.2791 133.436 58.2038 135.811 58.2038Z" fill="#4748CE"/>
<path d="M123.609 36.6936C125.277 38.2653 125.465 41.0542 123.951 42.7953C123.449 43.3738 122.788 43.8101 122.066 44.0628" stroke="white" stroke-width="1.16828" stroke-miterlimit="10" stroke-linecap="round"/>
<path d="M121.861 37.6323C123.371 39.1237 122.821 41.7705 120.82 42.4982" stroke="white" stroke-width="1.16828" stroke-miterlimit="10" stroke-linecap="round"/>
<path d="M120.275 38.0874C120.969 39.1524 120.651 40.6955 119.574 41.3801" stroke="white" stroke-width="1.16828" stroke-miterlimit="10" stroke-linecap="round"/>
<path d="M118.585 38.5377C118.959 39.1104 118.787 39.9415 118.207 40.3104" stroke="white" stroke-width="1.16828" stroke-miterlimit="10" stroke-linecap="round"/>
<rect x="101.948" y="27.3169" width="46.1564" height="26.8366" rx="2.33657" transform="rotate(12.1915 101.948 27.3169)" stroke="#191D5D" stroke-width="1.55771"/>
<path d="M151.866 29.3934C158.01 29.3934 162.99 24.413 162.99 18.2693C162.99 12.1257 158.01 7.14526 151.866 7.14526C145.723 7.14526 140.742 12.1257 140.742 18.2693C140.742 24.413 145.723 29.3934 151.866 29.3934Z" fill="#D0D4FF" stroke="#4344C6" stroke-width="1.55771" stroke-miterlimit="10" stroke-linecap="round" stroke-linejoin="round"/>
<path d="M147.758 13.3975C155.457 11.9966 158.942 18.4184 149.964 17.8069" stroke="#4344C6" stroke-width="1.55771" stroke-miterlimit="10" stroke-linecap="round" stroke-linejoin="round"/>
<path d="M149.828 23.0719C149.828 19.9558 149.828 16.8597 149.828 13.7363" stroke="#4344C6" stroke-width="1.55771" stroke-miterlimit="10" stroke-linecap="round" stroke-linejoin="round"/>
<path d="M150.91 11.1725V12.8792" stroke="#4344C6" stroke-width="1.55771" stroke-miterlimit="10" stroke-linecap="round" stroke-linejoin="round"/>
<path d="M152.664 11.2358V13.2166" stroke="#4344C6" stroke-width="1.55771" stroke-miterlimit="10" stroke-linecap="round" stroke-linejoin="round"/>
<path d="M149.835 18.0596C152.509 17.7826 158.044 17.9362 156.09 22.0399C154.107 24.3494 150.385 23.0087 147.727 23.3001" stroke="#4344C6" stroke-width="1.55771" stroke-miterlimit="10" stroke-linecap="round" stroke-linejoin="round"/>
<path d="M150.91 23.683V25.3883" stroke="#4344C6" stroke-width="1.55771" stroke-miterlimit="10" stroke-linecap="round" stroke-linejoin="round"/>
<path d="M152.797 23.5565V25.434" stroke="#4344C6" stroke-width="1.55771" stroke-miterlimit="10" stroke-linecap="round" stroke-linejoin="round"/>
<path d="M114.442 71.9439C118.604 71.9439 121.978 68.57 121.978 64.4082C121.978 60.2464 118.604 56.8726 114.442 56.8726C110.28 56.8726 106.906 60.2464 106.906 64.4082C106.906 68.57 110.28 71.9439 114.442 71.9439Z" fill="#D0D4FF" stroke="#191D5D" stroke-width="1.16828" stroke-miterlimit="10"/>
<path d="M112.98 67.3418C112.458 67.3231 111.562 67.3834 111.065 67.303C110.531 66.9743 111.121 66.4978 111.661 66.6226C111.964 65.9179 111.743 63.5969 111.924 62.5462C111.388 62.9869 111.024 63.1534 110.879 62.5649C113.559 59.2162 112.527 63.805 112.507 65.5346C112.501 65.8059 112.571 66.3399 112.573 66.6054C113.173 66.37 113.767 67.181 112.98 67.3418Z" fill="#191D5D"/>
<path d="M116.188 67.4881C113.225 67.4695 113.331 61.3304 116.307 61.3232C119.289 61.3764 119.047 67.6044 116.188 67.4881ZM116.302 62.0696C114.28 62.1558 114.26 66.6743 116.186 66.746C118.019 66.7073 118.272 62.107 116.302 62.0696Z" fill="#191D5D"/>
<path d="M103.564 31.3683C103.449 31.3683 103.336 31.3333 103.239 31.2646L101.622 30.1152C101.491 30.0214 101.405 29.8757 101.39 29.7147C101.373 29.5537 101.428 29.3941 101.538 29.2765L104.952 25.6377C105.061 25.5214 105.209 25.4612 105.36 25.4612C105.463 25.4612 105.565 25.4892 105.656 25.5452C105.883 25.6867 105.978 25.9681 105.884 26.2173L104.088 31.0056C104.026 31.168 103.893 31.2941 103.728 31.3445C103.673 31.3599 103.619 31.3683 103.564 31.3683Z" fill="#191D5D"/>
<path d="M105.359 26.0213L103.563 30.8096L101.946 29.6601L105.359 26.0213ZM105.359 24.9012C105.058 24.9012 104.76 25.023 104.541 25.2554L101.128 28.8943C100.907 29.1295 100.798 29.4501 100.83 29.7721C100.862 30.0941 101.031 30.3868 101.296 30.573L102.913 31.7225C103.105 31.8583 103.332 31.9297 103.563 31.9297C103.672 31.9297 103.783 31.9129 103.89 31.8807C104.222 31.7785 104.49 31.5292 104.611 31.203L106.408 26.4147C106.595 25.9149 106.404 25.352 105.95 25.0706C105.768 24.9558 105.562 24.9012 105.359 24.9012Z" fill="#191D5D"/>
<path d="M114.839 39.3287C114.681 39.3287 114.528 39.2615 114.421 39.1425L113.1 37.664C112.992 37.5436 112.942 37.3826 112.961 37.2216C112.981 37.0606 113.069 36.9178 113.203 36.8268L117.338 34.035C117.433 33.9706 117.542 33.9384 117.652 33.9384C117.794 33.9384 117.937 33.993 118.045 34.0994C118.235 34.287 118.266 34.5824 118.119 34.805L115.308 39.0767C115.213 39.2223 115.054 39.3147 114.881 39.3273C114.865 39.3273 114.851 39.3287 114.839 39.3287Z" fill="#191D5D"/>
<path d="M117.649 34.497L114.838 38.7687L113.515 37.2902L117.649 34.497ZM117.649 33.3769C117.432 33.3769 117.214 33.4399 117.022 33.5687L112.887 36.3605C112.62 36.5411 112.442 36.8295 112.403 37.1502C112.364 37.4708 112.464 37.7942 112.68 38.035L114.003 39.5135C114.216 39.7515 114.521 39.8873 114.838 39.8873C114.866 39.8873 114.892 39.8859 114.92 39.8845C115.267 39.8593 115.582 39.6731 115.773 39.3833L118.584 35.1116C118.878 34.665 118.815 34.0741 118.436 33.6989C118.22 33.4861 117.935 33.3769 117.649 33.3769Z" fill="#191D5D"/>
<path d="M114.895 54.4982C114.832 54.4982 114.769 54.487 114.708 54.466C114.544 54.4072 114.417 54.2769 114.363 54.1117L113.75 52.2244C113.7 52.0704 113.719 51.9024 113.802 51.7638C113.885 51.6252 114.025 51.5286 114.183 51.5006L119.092 50.6143C119.125 50.6087 119.159 50.6059 119.191 50.6059C119.418 50.6059 119.626 50.7431 119.712 50.9601C119.81 51.2079 119.719 51.4908 119.495 51.6364L115.198 54.41C115.107 54.4674 115.002 54.4982 114.895 54.4982Z" fill="#191D5D"/>
<path d="M119.188 51.1645L114.891 53.938L114.278 52.0507L119.188 51.1645ZM119.189 50.0444C119.124 50.0444 119.056 50.05 118.989 50.0626L114.081 50.9488C113.763 51.0062 113.484 51.198 113.319 51.4767C113.154 51.7553 113.114 52.0899 113.215 52.3979L113.829 54.2853C113.936 54.6157 114.191 54.8775 114.519 54.9951C114.641 55.0385 114.768 55.0595 114.894 55.0595C115.107 55.0595 115.318 54.9993 115.502 54.8803L119.799 52.1067C120.247 51.8169 120.429 51.2513 120.233 50.7542C120.059 50.3202 119.642 50.0444 119.189 50.0444Z" fill="#191D5D"/>
<path d="M88.5075 37.954C88.3465 37.9498 88.1939 37.877 88.0903 37.7524C87.9867 37.6278 87.9419 37.4654 87.9685 37.3058L88.7609 32.3802C88.8029 32.117 89.0255 31.9196 89.2929 31.9098C89.2999 31.9098 89.3069 31.9098 89.3139 31.9098C89.5716 31.9098 89.7984 32.0862 89.8586 32.3396L91.0487 37.3128C91.0893 37.4822 91.0487 37.66 90.9395 37.7958C90.8331 37.9274 90.6734 38.0044 90.504 38.0044C90.4998 38.0016 88.5075 37.954 88.5075 37.954Z" fill="#191D5D"/>
<path d="M89.3114 32.4684L90.5014 37.4416L88.5175 37.3939L89.3114 32.4684ZM89.3114 31.3483C89.2974 31.3483 89.2833 31.3483 89.2693 31.3497C88.7359 31.3693 88.2907 31.7642 88.2053 32.2906L87.4128 37.2161C87.361 37.5354 87.4506 37.8616 87.6578 38.1108C87.8651 38.36 88.1689 38.507 88.4923 38.514L90.4762 38.5616C90.4846 38.5616 90.4944 38.5616 90.5028 38.5616C90.8403 38.5616 91.1609 38.409 91.3737 38.1458C91.5921 37.8756 91.6733 37.5186 91.5921 37.1811L90.402 32.208C90.2788 31.7026 89.828 31.3483 89.3114 31.3483Z" fill="#191D5D"/>
<path d="M73.1615 96.4387C73.0032 96.4387 72.8506 96.3715 72.7442 96.2525L55.2906 76.7295C55.1716 76.5965 55.124 76.4145 55.1604 76.2409C55.1968 76.0659 55.3144 75.9203 55.4768 75.8461C68.0693 70.1309 78.9775 56.6115 84.358 49.0622C85.1827 47.9043 86.0437 46.8151 86.9188 45.8224C86.2006 42.4285 86.7004 38.5237 88.1383 36.4375C88.7445 35.5583 89.502 35.0346 90.328 34.924C90.4415 34.9086 90.5591 34.9016 90.6767 34.9016C92.3736 34.9016 94.0747 36.4417 94.877 37.9622C95.1192 38.4229 95.3068 38.9255 95.4342 39.4659C95.8612 39.3049 96.2883 39.1677 96.7125 39.0543C96.7783 35.5597 98.1028 31.7752 99.9411 29.9159C100.734 29.1136 101.604 28.6894 102.458 28.6894H102.517C104.409 28.7328 106.005 30.7237 106.547 32.5761C107.192 34.7854 106.586 37.5632 104.883 40.2668C105.224 40.5216 105.553 40.8086 105.866 41.1251C107.91 37.9454 111.027 35.6227 113.339 35.6227C113.899 35.6227 114.403 35.7557 114.837 36.0175C116.41 36.971 116.874 39.4519 116.51 41.3029C115.852 44.6519 112.354 47.1819 109.21 48.2264C109.266 48.6506 109.299 49.0734 109.311 49.4892C110.267 49.1896 111.202 49.0342 112.049 49.0342C113.355 49.0342 114.435 49.4066 115.169 50.1123C116.639 51.5264 116.655 54.027 115.925 55.6623C114.564 58.7089 110.368 59.7898 107.188 59.7898C106.272 59.7898 105.39 59.7029 104.616 59.5363C102.39 61.8227 99.1753 64.5837 94.7832 68.3569C93.9431 69.078 93.0582 69.8383 92.1258 70.6419C90.3154 72.2016 87.4886 75.7509 83.8022 80.6008C80.0443 85.5431 76.6281 90.7753 73.6501 96.1503C73.5619 96.3085 73.4023 96.4149 73.2231 96.4359C73.2035 96.4373 73.1825 96.4387 73.1615 96.4387Z" fill="#BEDCFC"/>
<path d="M102.459 29.2465C102.475 29.2465 102.49 29.2465 102.506 29.2465C104.008 29.2801 105.489 30.9504 106.01 32.7313C106.73 35.1941 105.681 38.1119 104.119 40.4137C104.791 40.8463 105.408 41.4007 105.96 42.0504C107.846 38.7755 111.073 36.1812 113.341 36.1812C113.786 36.1812 114.195 36.2806 114.549 36.4962C115.802 37.255 116.313 39.4112 115.963 41.1935C115.314 44.4949 111.629 46.9563 108.586 47.8342C108.726 48.6504 108.784 49.4751 108.747 50.2815C109.887 49.8391 111.031 49.5941 112.051 49.5941C113.159 49.5941 114.122 49.8811 114.783 50.5168C115.972 51.6592 116.116 53.8686 115.416 55.4353C114.222 58.1081 110.426 59.231 107.189 59.231C106.186 59.231 105.237 59.1232 104.435 58.9201C101.815 61.6559 97.7859 65.0288 91.7613 70.2189C89.8529 71.8626 86.8357 75.6877 83.3565 80.2632C78.5808 86.5441 75.2513 92.1053 73.161 95.8799L55.706 76.3556C69.0517 70.3001 80.4709 55.4787 84.8126 49.3869C85.7171 48.117 86.6243 46.9871 87.526 45.979C86.4423 41.3503 87.7892 35.8283 90.4018 35.4783C90.4928 35.4657 90.5838 35.4601 90.6762 35.4601C92.0357 35.4601 93.5954 36.7328 94.3823 38.2211C94.7127 38.847 94.9129 39.5288 95.0109 40.2386C95.7824 39.9054 96.537 39.659 97.2721 39.491C97.2119 34.5963 99.7376 29.2465 102.459 29.2465ZM102.459 28.1264C101.453 28.1264 100.443 28.608 99.543 29.5195C97.6557 31.4306 96.3214 35.0779 96.166 38.6257C96.0484 38.6607 95.9308 38.6985 95.8118 38.7377C95.6927 38.3737 95.5457 38.0265 95.3721 37.6989C94.5181 36.0818 92.6839 34.34 90.6762 34.34C90.5334 34.34 90.3906 34.3498 90.2534 34.368C89.2663 34.501 88.3758 35.1059 87.6758 36.1196C86.9099 37.2284 86.3667 38.8554 86.1441 40.6993C85.9481 42.3276 86.0083 44.0665 86.3135 45.6612C85.4888 46.6119 84.6782 47.6438 83.8997 48.7372C78.5514 56.2418 67.716 69.6757 55.2425 75.3363C54.9177 75.4833 54.6825 75.7759 54.6097 76.1259C54.5369 76.476 54.6335 76.8372 54.8701 77.1032L72.3237 96.6262C72.5379 96.8656 72.8418 97 73.1582 97C73.2002 97 73.2408 96.9972 73.2828 96.993C73.6426 96.9524 73.9618 96.7396 74.1383 96.4231C77.1037 91.072 80.5045 85.8622 84.247 80.9409C87.4196 76.7686 90.6132 72.6845 92.4907 71.0674C93.4232 70.2637 94.3067 69.5049 95.1453 68.7852C99.4128 65.1198 102.57 62.4078 104.803 60.1452C105.538 60.2796 106.35 60.351 107.186 60.351C110.534 60.351 114.965 59.1834 116.435 55.8917C117.243 54.0814 117.209 51.2994 115.556 49.7089C114.716 48.9011 113.503 48.474 112.049 48.474C111.351 48.474 110.602 48.572 109.831 48.7624C109.827 48.7106 109.821 48.6574 109.817 48.6056C112.998 47.4253 116.389 44.824 117.06 41.4105C117.46 39.3734 116.92 36.6236 115.127 35.5385C114.605 35.2221 114.005 35.0625 113.34 35.0625C111.615 35.0625 109.922 36.1238 108.807 37.0128C107.69 37.9047 106.642 39.0304 105.772 40.2652C105.722 40.2204 105.671 40.177 105.619 40.135C107.206 37.4301 107.741 34.6635 107.084 32.4191C106.486 30.3764 104.687 28.1782 102.529 28.1292C102.507 28.1264 102.483 28.1264 102.459 28.1264Z" fill="#4344C6" stroke="#4344C6" stroke-width="0.853608"/>
</svg>
