<svg width="204" height="105" viewBox="0 0 204 105" fill="none" xmlns="http://www.w3.org/2000/svg">
<path fill-rule="evenodd" clip-rule="evenodd" d="M-355 65.1538L-316.208 68.5385C-277.417 79.0251 -199.833 79.567 -122.25 74.3237C-44.6667 69.0804 32.9167 37.6207 110.5 19.2691C188.083 0.917577 265.667 -4.32572 343.25 3.53923C420.833 11.4042 498.417 32.3774 537.208 42.864L576 53.3505V132H537.208C498.417 132 420.833 132 343.25 132C265.667 132 188.083 132 110.5 132C32.9167 132 -44.6667 132 -122.25 132C-199.833 132 -277.417 132 -316.208 132H-355V65.1538Z" fill="#828CFC"/>
<path d="M128.534 57.6435C96.009 58.6585 95.8591 53.9055 63.3341 54.9186C61.6242 54.9717 57.8935 56.0799 57.8405 54.37C57.4071 40.4731 62.1601 40.3249 61.7266 26.428C61.6736 24.7181 60.5654 20.9874 62.2753 20.9343C94.8002 19.9194 94.9483 24.6724 127.475 23.6592C129.185 23.6062 132.916 22.4979 132.969 24.2079C133.402 38.1048 128.649 38.2529 129.083 52.1498C129.137 53.8579 130.244 57.5905 128.534 57.6435Z" fill="#191D5D"/>
<path d="M128.534 57.6435C96.009 58.6585 95.8591 53.9055 63.3341 54.9186C61.6242 54.9717 57.8935 56.0799 57.8405 54.37C57.4071 40.4731 62.1601 40.3249 61.7266 26.428C61.6736 24.7181 60.5654 20.9874 62.2753 20.9343C94.8002 19.9194 94.9483 24.6724 127.475 23.6592C129.185 23.6062 132.916 22.4979 132.969 24.2079C133.402 38.1048 128.649 38.2529 129.083 52.1498C129.137 53.8579 130.244 57.5905 128.534 57.6435Z" stroke="#191D5D" stroke-width="1.46303" stroke-miterlimit="10" stroke-linecap="round" stroke-linejoin="round"/>
<path d="M87.0424 34.7417C89.6411 30.2576 93.6498 26.4299 91.6254 34.3614C92.9165 32.5728 97.8396 34.0358 98.059 35.8536C98.2474 21.5946 105.338 41.7716 100.383 45.2536C93.0829 51.1258 80.4716 43.6827 87.0424 34.7417Z" fill="#191D5D" stroke="#191D5D" stroke-width="1.28015" stroke-miterlimit="10" stroke-linecap="round" stroke-linejoin="round"/>
<path d="M91.6322 39.6869C91.495 40.7037 89.904 40.466 90.0686 39.4528C90.2057 38.4379 91.7986 38.6756 91.6322 39.6869Z" fill="#191D5D" stroke="#191D5D" stroke-width="1.28015" stroke-miterlimit="10" stroke-linecap="round" stroke-linejoin="round"/>
<path d="M96.8021 40.7255C96.6649 41.7423 95.0739 41.5045 95.2385 40.4914C95.3756 39.4764 96.9685 39.7142 96.8021 40.7255Z" fill="#191D5D" stroke="#191D5D" stroke-width="1.28015" stroke-miterlimit="10" stroke-linecap="round" stroke-linejoin="round"/>
<path d="M120.065 33.5566C113.471 33.328 115.683 32.2435 119.511 29.2736C121.279 27.6441 118.388 25.3563 117.408 27.5948C117.335 27.8215 117.097 27.9312 116.872 27.8837C115.839 23.5623 126.151 27.0114 117.708 31.7004C116.479 33.1945 122.302 32.0643 120.065 33.5566Z" fill="#191D5D"/>
<path d="M124.574 26.5028C127.815 26.3602 127.012 34.811 123.843 34.0502C120.591 34.1874 121.427 25.7402 124.574 26.5028ZM123.914 33.3132C125.94 33.4174 126.504 27.5306 124.503 27.2398C122.49 27.1447 121.912 33.0206 123.914 33.3132Z" fill="#191D5D"/>
<path d="M109.969 34.3193C109.229 29.7016 104.783 26.5323 99.8324 26.9291C97.7403 24.7876 94.5362 23.6629 91.1841 24.2024C87.0748 24.8626 83.9567 27.8234 83.1502 31.4042C79.7468 33.0629 77.7297 37.452 78.4868 42.1775C79.3793 47.737 83.7757 51.6561 88.3074 50.9283C88.7243 50.8606 89.1285 50.7564 89.5162 50.6192C91.0963 53.3276 94.4759 54.9114 98.0585 54.3353C102.59 53.6074 105.732 49.7066 105.076 45.623C104.975 44.9994 104.792 44.4087 104.538 43.8564C108.289 42.13 110.608 38.3042 109.969 34.3193Z" stroke="#191D5D" stroke-width="1.28015" stroke-miterlimit="10" stroke-linecap="round" stroke-linejoin="round"/>
<path d="M64.0934 43.9644C63.6673 45.0671 63.2394 46.4168 62.9376 47.9858C62.5901 49.7872 62.5005 51.3929 62.5152 52.6968" stroke="#191D5D" stroke-width="1.28015" stroke-miterlimit="10" stroke-linecap="round" stroke-linejoin="round"/>
<path d="M67.8238 44.8457C67.7799 45.1109 67.5915 46.0582 66.743 46.7294C65.3988 47.7955 63.6962 47.1408 63.623 47.1116" stroke="#191D5D" stroke-width="1.28015" stroke-miterlimit="10" stroke-linecap="round" stroke-linejoin="round"/>
<path d="M63.0586 47.2705C63.2982 47.3071 65.5969 47.7021 66.5516 49.7229C66.9868 50.6464 66.9594 51.5224 66.9064 51.9888" stroke="#191D5D" stroke-width="1.28015" stroke-miterlimit="10" stroke-linecap="round" stroke-linejoin="round"/>
<path d="M132.265 46.6269C100.711 54.584 99.5478 49.9736 67.9939 57.9307C66.3352 58.3494 62.9282 60.2294 62.5094 58.5707C59.1097 45.0889 63.7201 43.9258 60.3203 30.444C59.9016 28.7853 58.0216 25.3783 59.6803 24.9595C91.2341 17.0025 92.3972 21.6128 123.951 13.6558C125.61 13.237 129.017 11.357 129.436 13.0157C132.835 26.4975 128.225 27.6606 131.625 41.1424C132.043 42.8011 133.923 46.21 132.265 46.6269Z" fill="#191D5D"/>
<path d="M132.265 46.6269C100.711 54.584 99.5478 49.9736 67.9939 57.9307C66.3352 58.3495 62.9282 60.2294 62.5094 58.5707C59.1097 45.0889 63.7201 43.9258 60.3203 30.444C59.9016 28.7853 58.0216 25.3783 59.6803 24.9595C91.2341 17.0025 92.3972 21.6128 123.951 13.6558C125.61 13.237 129.017 11.357 129.436 13.0157C132.835 26.4975 128.225 27.6606 131.625 41.1424C132.043 42.8011 133.923 46.21 132.265 46.6269Z" stroke="#191D5D" stroke-width="1.46303" stroke-miterlimit="10" stroke-linecap="round" stroke-linejoin="round"/>
<path d="M86.8317 33.145C88.4099 28.2073 91.5042 23.6098 91.2262 31.7917C92.1041 29.7691 97.2265 30.1422 97.83 31.8722C94.9606 17.904 106.208 36.0931 102.113 40.5553C96.2389 47.8558 82.3274 43.2857 86.8317 33.145Z" fill="#191D5D" stroke="#BEDCFC" stroke-width="1.28015" stroke-miterlimit="10" stroke-linecap="round" stroke-linejoin="round"/>
<path d="M92.3706 36.9929C92.4547 38.0152 90.8491 38.1231 90.7942 37.099C90.7101 36.0785 92.3158 35.9688 92.3706 36.9929Z" fill="#191D5D" stroke="#BEDCFC" stroke-width="1.28015" stroke-miterlimit="10" stroke-linecap="round" stroke-linejoin="round"/>
<path d="M97.6441 36.8997C97.7282 37.9219 96.1225 38.0298 96.0676 37.0057C95.9835 35.9853 97.5892 35.8755 97.6441 36.8997Z" fill="#191D5D" stroke="#BEDCFC" stroke-width="1.28015" stroke-miterlimit="10" stroke-linecap="round" stroke-linejoin="round"/>
<path d="M118.832 24.9156C112.341 26.1043 114.271 24.5717 117.372 20.852C118.751 18.8824 115.436 17.2658 114.958 19.6633C114.935 19.901 114.728 20.0583 114.496 20.0601C112.561 16.0606 123.373 17.22 116.131 23.6098C115.249 25.3307 120.695 22.9771 118.832 24.9156Z" fill="#BEDCFC"/>
<path d="M121.726 17.0593C124.862 16.2272 125.886 24.6524 122.627 24.5884C119.482 25.4187 118.487 16.988 121.726 17.0593ZM122.538 23.8514C124.54 23.5204 123.829 17.6482 121.814 17.7926C119.826 18.1328 120.521 23.9959 122.538 23.8514Z" fill="#BEDCFC"/>
<path d="M109.132 27.8215C107.418 23.4708 102.398 21.3256 97.6468 22.774C95.145 21.1299 91.7745 20.7185 88.6162 21.962C84.7429 23.4873 82.3325 27.0479 82.3106 30.7183C79.3406 33.0683 78.311 37.7865 80.063 42.2396C82.1259 47.4791 87.2593 50.3649 91.5295 48.6842C91.9227 48.5288 92.2939 48.3404 92.6432 48.1228C94.7664 50.4289 98.4057 51.2518 101.783 49.9223C106.054 48.2417 108.287 43.7575 106.772 39.9097C106.542 39.3227 106.235 38.785 105.869 38.2986C109.164 35.8114 110.611 31.5778 109.132 27.8215Z" stroke="#BEDCFC" stroke-width="1.28015" stroke-miterlimit="10" stroke-linecap="round" stroke-linejoin="round"/>
<path d="M66.3897 47.0693C66.2087 48.2379 66.0825 49.6479 66.1227 51.2445C66.1685 53.0787 66.4245 54.6661 66.7189 55.9353" stroke="#BEDCFC" stroke-width="1.28015" stroke-miterlimit="10" stroke-linecap="round" stroke-linejoin="round"/>
<path d="M70.219 47.1316C70.2337 47.4004 70.2519 48.366 69.568 49.2036C68.4835 50.5331 66.6785 50.257 66.6035 50.2442" stroke="#BEDCFC" stroke-width="1.28015" stroke-miterlimit="10" stroke-linecap="round" stroke-linejoin="round"/>
<path d="M66.0859 50.5204C66.3273 50.5058 68.6572 50.3979 70.0233 52.1681C70.6469 52.9765 70.8079 53.8378 70.8554 54.306" stroke="#BEDCFC" stroke-width="1.28015" stroke-miterlimit="10" stroke-linecap="round" stroke-linejoin="round"/>
<path d="M138.703 90.8762C138.206 90.8762 137.703 90.8232 137.213 90.7189L92.5285 81.2586C88.6661 80.4412 86.1881 76.6318 87.0056 72.7694L91.3379 52.3035C92.0347 49.0117 94.9772 46.6233 98.3367 46.6233C98.8341 46.6233 99.337 46.6763 99.8272 46.7806L144.512 56.2409C146.383 56.6377 147.988 57.7386 149.031 59.3425C150.073 60.9463 150.43 62.8592 150.035 64.7319L145.702 85.1978C145.004 88.4878 142.061 90.8762 138.703 90.8762Z" fill="#D0D4FF"/>
<path d="M129.241 83.6947C132.266 83.6947 134.718 81.2424 134.718 78.2174C134.718 75.1925 132.266 72.7402 129.241 72.7402C126.216 72.7402 123.764 75.1925 123.764 78.2174C123.764 81.2424 126.216 83.6947 129.241 83.6947Z" fill="#D5FAFC"/>
<path d="M136.477 85.2271C139.502 85.2271 141.954 82.7749 141.954 79.7499C141.954 76.7249 139.502 74.2727 136.477 74.2727C133.452 74.2727 131 76.7249 131 79.7499C131 82.7749 133.452 85.2271 136.477 85.2271Z" fill="#4748CE"/>
<path d="M120.925 57.821C123.05 59.8236 123.29 63.3769 121.36 65.5952C120.72 66.3322 119.879 66.8882 118.959 67.21" stroke="white" stroke-width="1.4885" stroke-miterlimit="10" stroke-linecap="round"/>
<path d="M118.701 59.0171C120.625 60.9172 119.924 64.2895 117.375 65.2167" stroke="white" stroke-width="1.4885" stroke-miterlimit="10" stroke-linecap="round"/>
<path d="M116.682 59.5967C117.567 60.9536 117.161 62.9196 115.789 63.7919" stroke="white" stroke-width="1.4885" stroke-miterlimit="10" stroke-linecap="round"/>
<path d="M114.522 60.1711C114.999 60.9008 114.78 61.9597 114.041 62.4297" stroke="white" stroke-width="1.4885" stroke-miterlimit="10" stroke-linecap="round"/>
<rect x="93.3288" y="45.8741" width="58.8074" height="34.1922" rx="2.977" transform="rotate(12.1915 93.3288 45.8741)" stroke="#191D5D" stroke-width="1.98466"/>
<path d="M156.95 48.5193C164.778 48.5193 171.124 42.1737 171.124 34.3462C171.124 26.5186 164.778 20.1731 156.95 20.1731C149.123 20.1731 142.777 26.5186 142.777 34.3462C142.777 42.1737 149.123 48.5193 156.95 48.5193Z" fill="#D0D4FF" stroke="#4344C6" stroke-width="1.98466" stroke-miterlimit="10" stroke-linecap="round" stroke-linejoin="round"/>
<path d="M151.719 28.1392C161.528 26.3543 165.969 34.5363 154.53 33.7572" stroke="#4344C6" stroke-width="1.98466" stroke-miterlimit="10" stroke-linecap="round" stroke-linejoin="round"/>
<path d="M154.369 40.4652C154.369 36.4949 154.369 32.5502 154.369 28.5708" stroke="#4344C6" stroke-width="1.98466" stroke-miterlimit="10" stroke-linecap="round" stroke-linejoin="round"/>
<path d="M155.736 25.3047V27.4791" stroke="#4344C6" stroke-width="1.98466" stroke-miterlimit="10" stroke-linecap="round" stroke-linejoin="round"/>
<path d="M157.967 25.3853V27.909" stroke="#4344C6" stroke-width="1.98466" stroke-miterlimit="10" stroke-linecap="round" stroke-linejoin="round"/>
<path d="M154.368 34.0792C157.775 33.7262 164.827 33.9219 162.338 39.1504C159.811 42.0929 155.069 40.3848 151.682 40.7561" stroke="#4344C6" stroke-width="1.98466" stroke-miterlimit="10" stroke-linecap="round" stroke-linejoin="round"/>
<path d="M155.736 41.2444V43.417" stroke="#4344C6" stroke-width="1.98466" stroke-miterlimit="10" stroke-linecap="round" stroke-linejoin="round"/>
<path d="M158.137 41.0835V43.4755" stroke="#4344C6" stroke-width="1.98466" stroke-miterlimit="10" stroke-linecap="round" stroke-linejoin="round"/>
<path d="M109.273 102.732C114.576 102.732 118.874 98.4337 118.874 93.1311C118.874 87.8286 114.576 83.53 109.273 83.53C103.97 83.53 99.6719 87.8286 99.6719 93.1311C99.6719 98.4337 103.97 102.732 109.273 102.732Z" fill="#D0D4FF" stroke="#191D5D" stroke-width="1.4885" stroke-miterlimit="10"/>
<path d="M107.42 96.8693C106.754 96.8455 105.613 96.9223 104.98 96.8199C104.3 96.4011 105.052 95.794 105.739 95.9531C106.125 95.0551 105.844 92.098 106.074 90.7593C105.392 91.3208 104.927 91.5329 104.743 90.7831C108.157 86.5165 106.842 92.3632 106.817 94.5669C106.809 94.9125 106.899 95.5928 106.901 95.9311C107.665 95.6312 108.422 96.6645 107.42 96.8693Z" fill="#191D5D"/>
<path d="M111.506 97.0558C107.732 97.032 107.867 89.2103 111.658 89.2012C115.458 89.2688 115.149 97.2039 111.506 97.0558ZM111.653 90.1521C109.076 90.2619 109.05 96.0189 111.505 96.1103C113.84 96.0609 114.162 90.1997 111.653 90.1521Z" fill="#191D5D"/>
<path d="M95.4069 51.0349C95.2607 51.0349 95.1162 50.9903 94.9931 50.9029L92.9327 49.4383C92.7651 49.3188 92.6562 49.1333 92.6366 48.9281C92.6152 48.723 92.6848 48.5196 92.8257 48.3698L97.1747 43.7336C97.3139 43.5855 97.503 43.5088 97.6956 43.5088C97.8258 43.5088 97.9561 43.5445 98.072 43.6158C98.361 43.796 98.4823 44.1545 98.3628 44.4721L96.0741 50.5728C95.9956 50.7798 95.8261 50.9403 95.6157 51.0045C95.5461 51.0242 95.4765 51.0349 95.4069 51.0349Z" fill="#191D5D"/>
<path d="M97.6958 44.2225L95.4071 50.3233L93.3468 48.8587L97.6958 44.2225ZM97.6958 42.7954C97.3123 42.7954 96.9323 42.9506 96.654 43.2467L92.305 47.883C92.0231 48.1826 91.884 48.5911 91.925 49.0014C91.9661 49.4117 92.1819 49.7845 92.5191 50.0218L94.5794 51.4863C94.8238 51.6594 95.1128 51.7503 95.4071 51.7503C95.5463 51.7503 95.6872 51.7289 95.8245 51.6879C96.2473 51.5577 96.588 51.2402 96.7432 50.8245L99.0319 44.7238C99.2709 44.0869 99.0265 43.3698 98.4486 43.0113C98.2167 42.865 97.9545 42.7954 97.6958 42.7954Z" fill="#191D5D"/>
<path d="M109.765 61.1781C109.563 61.1781 109.369 61.0925 109.233 60.9409L107.549 59.0571C107.412 58.9037 107.348 58.6986 107.372 58.4934C107.397 58.2883 107.51 58.1063 107.681 57.9904L112.949 54.4334C113.07 54.3513 113.209 54.3103 113.348 54.3103C113.53 54.3103 113.712 54.3799 113.85 54.5154C114.092 54.7545 114.131 55.1309 113.944 55.4145L110.362 60.857C110.241 61.0426 110.039 61.1603 109.818 61.1763C109.799 61.1763 109.781 61.1781 109.765 61.1781Z" fill="#191D5D"/>
<path d="M113.347 55.0221L109.765 60.4646L108.079 58.5808L113.347 55.0221ZM113.347 53.595C113.071 53.595 112.792 53.6753 112.548 53.8394L107.28 57.3964C106.939 57.6265 106.713 57.9939 106.663 58.4025C106.613 58.811 106.741 59.223 107.016 59.5298L108.702 61.4136C108.973 61.7168 109.362 61.8899 109.765 61.8899C109.801 61.8899 109.835 61.8881 109.87 61.8863C110.313 61.8542 110.714 61.617 110.957 61.2477L114.539 55.8052C114.913 55.2361 114.833 54.4833 114.35 54.0053C114.075 53.7341 113.711 53.595 113.347 53.595Z" fill="#191D5D"/>
<path d="M109.84 80.5045C109.76 80.5045 109.679 80.4902 109.601 80.4635C109.392 80.3886 109.23 80.2227 109.162 80.0122L108.381 77.6075C108.317 77.4113 108.342 77.1972 108.447 77.0206C108.552 76.844 108.73 76.721 108.932 76.6853L115.186 75.5561C115.229 75.549 115.272 75.5454 115.313 75.5454C115.602 75.5454 115.868 75.7202 115.976 75.9967C116.101 76.3125 115.985 76.6728 115.7 76.8583L110.225 80.3921C110.109 80.4653 109.976 80.5045 109.84 80.5045Z" fill="#191D5D"/>
<path d="M115.313 76.2572L109.838 79.791L109.057 77.3863L115.313 76.2572ZM115.315 74.8301C115.231 74.8301 115.145 74.8372 115.06 74.8533L108.805 75.9824C108.401 76.0556 108.046 76.3 107.835 76.655C107.625 77.0099 107.575 77.4363 107.703 77.8287L108.484 80.2334C108.622 80.6543 108.946 80.9879 109.364 81.1378C109.519 81.1931 109.681 81.2198 109.842 81.2198C110.113 81.2198 110.382 81.1431 110.616 80.9915L116.091 77.4577C116.662 77.0884 116.893 76.3678 116.644 75.7345C116.422 75.1815 115.891 74.8301 115.315 74.8301Z" fill="#191D5D"/>
<path d="M76.2159 59.4265C76.0107 59.4211 75.8163 59.3284 75.6843 59.1696C75.5523 59.0108 75.4952 58.8039 75.5291 58.6006L76.5388 52.325C76.5923 51.9896 76.8759 51.7381 77.2166 51.7256C77.2255 51.7256 77.2345 51.7256 77.2434 51.7256C77.5716 51.7256 77.8606 51.9504 77.9373 52.2732L79.4536 58.6095C79.5053 58.8253 79.4536 59.0519 79.3144 59.2249C79.1789 59.3926 78.9755 59.4907 78.7597 59.4907C78.7543 59.4871 76.2159 59.4265 76.2159 59.4265Z" fill="#191D5D"/>
<path d="M77.2419 52.4373L78.7582 58.7736L76.2305 58.7129L77.2419 52.4373ZM77.2419 51.0103C77.2241 51.0103 77.2062 51.0103 77.1884 51.012C76.5087 51.037 75.9415 51.5401 75.8327 52.2108L74.823 58.4864C74.757 58.8931 74.8712 59.3087 75.1352 59.6263C75.3992 59.9438 75.7863 60.1311 76.1984 60.14L78.7261 60.2007C78.7368 60.2007 78.7493 60.2007 78.76 60.2007C79.1899 60.2007 79.5984 60.0062 79.8695 59.6709C80.1478 59.3266 80.2513 58.8717 80.1478 58.4418L78.6315 52.1055C78.4746 51.4616 77.9002 51.0103 77.2419 51.0103Z" fill="#191D5D"/>
<path d="M56.6651 133.941C56.4635 133.941 56.269 133.856 56.1335 133.704L33.896 108.83C33.7444 108.661 33.6837 108.429 33.7301 108.208C33.7765 107.985 33.9263 107.799 34.1332 107.704C50.1772 100.423 64.0752 83.1979 70.9305 73.5794C71.9812 72.1041 73.0783 70.7163 74.1932 69.4515C73.2781 65.1275 73.9149 60.1523 75.7469 57.4944C76.5193 56.3741 77.4844 55.707 78.5369 55.5661C78.6814 55.5464 78.8312 55.5375 78.981 55.5375C81.1431 55.5375 83.3105 57.4997 84.3326 59.437C84.6412 60.0239 84.8802 60.6643 85.0426 61.3529C85.5866 61.1477 86.1307 60.9729 86.6712 60.8284C86.7551 56.3759 88.4426 51.5542 90.7848 49.1852C91.7944 48.1631 92.904 47.6226 93.9922 47.6226H94.0671C96.4771 47.6779 98.5107 50.2145 99.201 52.5745C100.023 55.3894 99.251 58.9286 97.0818 62.3732C97.5153 62.6979 97.9345 63.0636 98.334 63.4667C100.938 59.4156 104.909 56.4562 107.854 56.4562C108.568 56.4562 109.21 56.6257 109.763 56.9592C111.768 58.174 112.359 61.335 111.895 63.6933C111.056 67.9603 106.6 71.1837 102.594 72.5144C102.665 73.0549 102.708 73.5937 102.722 74.1235C103.941 73.7417 105.132 73.5437 106.212 73.5437C107.876 73.5437 109.251 74.0182 110.186 74.9173C112.059 76.719 112.08 79.9049 111.149 81.9885C109.415 85.8701 104.069 87.2472 100.018 87.2472C98.8514 87.2472 97.7275 87.1367 96.7411 86.9244C93.9047 89.8374 89.809 93.3552 84.2131 98.1626C83.1428 99.0813 82.0154 100.05 80.8273 101.074C78.5208 103.061 74.9192 107.583 70.2223 113.762C65.4345 120.059 61.0819 126.726 57.2876 133.574C57.1752 133.775 56.9719 133.911 56.7436 133.938C56.7186 133.94 56.6918 133.941 56.6651 133.941Z" fill="#BEDCFC"/>
<path d="M93.9952 48.3326C94.0148 48.3326 94.0344 48.3326 94.054 48.3326C95.9681 48.3754 97.8554 50.5035 98.519 52.7726C99.4359 55.9104 98.0998 59.6279 96.109 62.5606C96.9653 63.1118 97.752 63.8182 98.4548 64.6459C100.858 60.4735 104.969 57.168 107.859 57.168C108.427 57.168 108.947 57.2947 109.399 57.5694C110.995 58.5362 111.646 61.2834 111.2 63.5542C110.373 67.7605 105.678 70.8965 101.801 72.015C101.98 73.055 102.053 74.1057 102.006 75.1332C103.459 74.5695 104.916 74.2573 106.216 74.2573C107.627 74.2573 108.855 74.623 109.697 75.4329C111.211 76.8885 111.395 79.7034 110.503 81.6995C108.981 85.1049 104.145 86.5356 100.021 86.5356C98.7438 86.5356 97.5343 86.3982 96.5122 86.1395C93.1746 89.6252 88.0407 93.9225 80.3648 100.535C77.9334 102.629 74.0892 107.503 69.6563 113.333C63.5716 121.335 59.3296 128.42 56.6663 133.23L34.427 108.354C51.4307 100.639 65.9798 81.7548 71.5115 73.9933C72.6639 72.3754 73.8198 70.9358 74.9686 69.6514C73.5879 63.754 75.304 56.7185 78.6326 56.2725C78.7486 56.2565 78.8645 56.2493 78.9823 56.2493C80.7144 56.2493 82.7016 57.8709 83.7041 59.7671C84.1251 60.5645 84.3802 61.4332 84.5051 62.3376C85.488 61.9131 86.4495 61.5991 87.386 61.385C87.3093 55.1487 90.5274 48.3326 93.9952 48.3326ZM93.9952 46.9055C92.7126 46.9055 91.4264 47.5192 90.2794 48.6805C87.8748 51.1154 86.1748 55.7623 85.9768 60.2826C85.8269 60.3272 85.6771 60.3754 85.5255 60.4253C85.3738 59.9615 85.1865 59.5191 84.9653 59.1017C83.8772 57.0414 81.5403 54.8223 78.9823 54.8223C78.8003 54.8223 78.6184 54.8347 78.4436 54.8579C77.1859 55.0274 76.0514 55.798 75.1595 57.0895C74.1837 58.5023 73.4916 60.5752 73.208 62.9245C72.9582 64.9991 73.0349 67.2147 73.4238 69.2465C72.3731 70.4577 71.3403 71.7724 70.3484 73.1656C63.5341 82.727 49.7289 99.8431 33.8366 107.055C33.4227 107.243 33.123 107.615 33.0303 108.061C32.9375 108.507 33.0606 108.967 33.3621 109.306L55.5996 134.18C55.8725 134.485 56.2596 134.657 56.6627 134.657C56.7163 134.657 56.768 134.653 56.8215 134.648C57.28 134.596 57.6867 134.325 57.9114 133.922C61.6896 127.104 66.0226 120.466 70.7908 114.196C74.833 108.88 78.902 103.677 81.2942 101.616C82.4822 100.592 83.6078 99.6255 84.6763 98.7086C90.1135 94.0384 94.1361 90.5831 96.9813 87.7004C97.9179 87.8717 98.9525 87.9626 100.017 87.9626C104.283 87.9626 109.929 86.4749 111.802 82.2811C112.831 79.9746 112.788 76.43 110.681 74.4036C109.611 73.3743 108.066 72.8302 106.213 72.8302C105.324 72.8302 104.37 72.9551 103.387 73.1977C103.382 73.1317 103.375 73.0639 103.369 72.9979C107.422 71.4941 111.743 68.1797 112.597 63.8307C113.107 61.2352 112.419 57.7317 110.135 56.3492C109.47 55.9461 108.705 55.7427 107.857 55.7427C105.66 55.7427 103.503 57.0949 102.083 58.2276C100.66 59.3639 99.3235 60.7982 98.2158 62.3715C98.1516 62.3144 98.0873 62.2591 98.0213 62.2056C100.042 58.7592 100.724 55.2343 99.8872 52.3748C99.1255 49.7722 96.8333 46.9715 94.0844 46.9091C94.0558 46.9055 94.0255 46.9055 93.9952 46.9055Z" fill="#4344C6" stroke="#4344C6" stroke-width="1.08757"/>
</svg>
