<svg width="332" height="128" viewBox="0 0 332 128" fill="none" xmlns="http://www.w3.org/2000/svg">
<path fill-rule="evenodd" clip-rule="evenodd" d="M-260 65.1538L-221.208 68.5385C-182.417 79.0251 -104.833 79.567 -27.25 74.3237C50.3333 69.0804 127.917 37.6207 205.5 19.2691C283.083 0.917577 360.667 -4.32572 438.25 3.53923C515.833 11.4042 593.417 32.3774 632.208 42.864L671 53.3505V132H632.208C593.417 132 515.833 132 438.25 132C360.667 132 283.083 132 205.5 132C127.917 132 50.3333 132 -27.25 132C-104.833 132 -182.417 132 -221.208 132H-260V65.1538Z" fill="#828CFC"/>
<path d="M251.684 66.9989C208.606 68.3432 208.407 62.048 165.329 63.3898C163.064 63.4601 158.123 64.9279 158.053 62.6632C157.479 44.2571 163.774 44.061 163.2 25.6549C163.13 23.3902 161.662 18.449 163.926 18.3787C207.005 17.0344 207.201 23.3296 250.281 21.9878C252.546 21.9175 257.487 20.4497 257.558 22.7144C258.132 41.1204 251.836 41.3166 252.411 59.7227C252.483 61.985 253.949 66.9286 251.684 66.9989Z" fill="#191D5D"/>
<path d="M251.684 66.9989C208.606 68.3432 208.407 62.0479 165.329 63.3898C163.064 63.4601 158.123 64.9279 158.053 62.6632C157.479 44.2571 163.774 44.061 163.2 25.6549C163.13 23.3902 161.662 18.449 163.926 18.3787C207.005 17.0344 207.201 23.3296 250.281 21.9878C252.546 21.9175 257.487 20.4497 257.558 22.7144C258.132 41.1204 251.836 41.3166 252.411 59.7227C252.483 61.985 253.949 66.9286 251.684 66.9989Z" stroke="#191D5D" stroke-width="1.93773" stroke-miterlimit="10" stroke-linecap="round" stroke-linejoin="round"/>
<path d="M196.738 36.666C200.18 30.7269 205.49 25.6573 202.808 36.1622C204.518 33.7934 211.039 35.7311 211.329 38.1387C211.579 19.2531 220.97 45.9768 214.408 50.5886C204.739 58.3662 188.035 48.508 196.738 36.666Z" fill="#191D5D" stroke="#191D5D" stroke-width="1.69552" stroke-miterlimit="10" stroke-linecap="round" stroke-linejoin="round"/>
<path d="M202.821 43.2156C202.639 44.5623 200.532 44.2475 200.75 42.9056C200.932 41.5613 203.042 41.8762 202.821 43.2156Z" fill="#191D5D" stroke="#191D5D" stroke-width="1.69552" stroke-miterlimit="10" stroke-linecap="round" stroke-linejoin="round"/>
<path d="M209.665 44.5914C209.483 45.9381 207.376 45.6232 207.594 44.2813C207.776 42.937 209.885 43.2519 209.665 44.5914Z" fill="#191D5D" stroke="#191D5D" stroke-width="1.69552" stroke-miterlimit="10" stroke-linecap="round" stroke-linejoin="round"/>
<path d="M240.466 35.0965C231.732 34.7937 234.663 33.3574 239.732 29.4238C242.075 27.2656 238.245 24.2355 236.947 27.2002C236.85 27.5006 236.535 27.6459 236.237 27.5829C234.869 21.8594 248.527 26.4276 237.344 32.638C235.716 34.6169 243.429 33.12 240.466 35.0965Z" fill="#191D5D"/>
<path d="M246.436 25.7542C250.728 25.5652 249.665 36.758 245.467 35.7504C241.161 35.9321 242.268 24.7441 246.436 25.7542ZM245.562 34.7743C248.246 34.9124 248.992 27.1154 246.342 26.7303C243.675 26.6043 242.91 34.3867 245.562 34.7743Z" fill="#191D5D"/>
<path d="M227.095 36.1065C226.114 29.9906 220.226 25.7929 213.669 26.3186C210.898 23.4822 206.655 21.9926 202.215 22.7071C196.772 23.5815 192.642 27.503 191.574 32.2456C187.067 34.4425 184.395 40.2557 185.398 46.5146C186.58 53.8779 192.403 59.0686 198.405 58.1046C198.957 58.015 199.492 57.8769 200.006 57.6953C202.099 61.2825 206.575 63.3801 211.32 62.6171C217.322 61.6531 221.483 56.4866 220.614 51.0779C220.48 50.252 220.238 49.4696 219.901 48.7381C224.869 46.4516 227.941 41.3844 227.095 36.1065Z" stroke="#191D5D" stroke-width="1.69552" stroke-miterlimit="10" stroke-linecap="round" stroke-linejoin="round"/>
<path d="M166.327 48.8811C165.762 50.3416 165.196 52.1292 164.796 54.2074C164.336 56.5933 164.217 58.7199 164.236 60.4469" stroke="#191D5D" stroke-width="1.69552" stroke-miterlimit="10" stroke-linecap="round" stroke-linejoin="round"/>
<path d="M171.282 50.0485C171.224 50.3997 170.975 51.6544 169.851 52.5433C168.071 53.9554 165.816 53.0883 165.719 53.0495" stroke="#191D5D" stroke-width="1.69552" stroke-miterlimit="10" stroke-linecap="round" stroke-linejoin="round"/>
<path d="M164.961 53.2602C165.278 53.3087 168.323 53.8319 169.587 56.5084C170.164 57.7316 170.127 58.8918 170.057 59.5094" stroke="#191D5D" stroke-width="1.69552" stroke-miterlimit="10" stroke-linecap="round" stroke-linejoin="round"/>
<path d="M256.62 52.4076C214.828 62.9465 213.288 56.8402 171.496 67.379C169.299 67.9337 164.786 70.4237 164.231 68.2268C159.729 50.3706 165.835 48.8301 161.332 30.9739C160.777 28.777 158.288 24.2645 160.484 23.7098C202.276 13.171 203.817 19.2772 245.609 8.73841C247.806 8.18374 252.318 5.69375 252.873 7.89065C257.376 25.7469 251.27 27.2873 255.772 45.1435C256.327 47.3404 258.817 51.8554 256.62 52.4076Z" fill="#191D5D"/>
<path d="M256.62 52.4076C214.828 62.9465 213.288 56.8402 171.496 67.379C169.299 67.9337 164.786 70.4237 164.231 68.2268C159.729 50.3706 165.835 48.8301 161.332 30.9739C160.777 28.777 158.288 24.2645 160.484 23.7098C202.276 13.171 203.817 19.2772 245.609 8.73841C247.806 8.18374 252.318 5.69375 252.873 7.89065C257.376 25.7469 251.27 27.2873 255.772 45.1435C256.327 47.3404 258.817 51.8554 256.62 52.4076Z" stroke="#191D5D" stroke-width="1.93773" stroke-miterlimit="10" stroke-linecap="round" stroke-linejoin="round"/>
<path d="M196.45 34.5514C198.54 28.0116 202.639 21.9223 202.27 32.759C203.433 30.0801 210.218 30.5743 211.017 32.8656C207.217 14.3651 222.113 38.456 216.69 44.3661C208.91 54.0353 190.484 47.9824 196.45 34.5514Z" fill="#191D5D" stroke="#BEDCFC" stroke-width="1.69552" stroke-miterlimit="10" stroke-linecap="round" stroke-linejoin="round"/>
<path d="M203.78 39.6477C203.891 41.0017 201.764 41.1446 201.692 39.7882C201.58 38.4366 203.707 38.2913 203.78 39.6477Z" fill="#191D5D" stroke="#BEDCFC" stroke-width="1.69552" stroke-miterlimit="10" stroke-linecap="round" stroke-linejoin="round"/>
<path d="M210.764 39.5242C210.875 40.8782 208.749 41.0211 208.676 39.6647C208.565 38.3131 210.691 38.1678 210.764 39.5242Z" fill="#191D5D" stroke="#BEDCFC" stroke-width="1.69552" stroke-miterlimit="10" stroke-linecap="round" stroke-linejoin="round"/>
<path d="M238.821 23.6517C230.225 25.2261 232.78 23.1963 236.888 18.2696C238.715 15.661 234.323 13.5198 233.691 16.6952C233.66 17.0101 233.386 17.2184 233.078 17.2208C230.516 11.9236 244.835 13.4592 235.244 21.9223C234.076 24.2015 241.289 21.0842 238.821 23.6517Z" fill="#BEDCFC"/>
<path d="M242.658 13.2461C246.812 12.144 248.169 23.3029 243.852 23.2181C239.686 24.3178 238.369 13.1516 242.658 13.2461ZM243.734 22.242C246.386 21.8036 245.444 14.026 242.775 14.2174C240.142 14.6679 241.062 22.4333 243.734 22.242Z" fill="#BEDCFC"/>
<path d="M225.978 27.5005C223.708 21.7382 217.059 18.897 210.767 20.8153C207.453 18.6378 202.989 18.0928 198.806 19.7399C193.676 21.76 190.483 26.4759 190.454 31.3372C186.521 34.4497 185.157 40.6989 187.477 46.5969C190.21 53.5364 197.009 57.3586 202.664 55.1326C203.185 54.9267 203.677 54.6772 204.14 54.389C206.952 57.4433 211.772 58.5333 216.245 56.7724C221.901 54.5464 224.859 48.6073 222.853 43.511C222.548 42.7335 222.141 42.0214 221.657 41.3771C226.021 38.083 227.937 32.4757 225.978 27.5005Z" stroke="#BEDCFC" stroke-width="1.69552" stroke-miterlimit="10" stroke-linecap="round" stroke-linejoin="round"/>
<path d="M169.371 52.9937C169.132 54.5415 168.964 56.409 169.018 58.5235C169.078 60.9529 169.417 63.0554 169.807 64.7364" stroke="#BEDCFC" stroke-width="1.69552" stroke-miterlimit="10" stroke-linecap="round" stroke-linejoin="round"/>
<path d="M174.445 53.0761C174.464 53.4322 174.488 54.7111 173.583 55.8204C172.146 57.5813 169.756 57.2156 169.656 57.1986" stroke="#BEDCFC" stroke-width="1.69552" stroke-miterlimit="10" stroke-linecap="round" stroke-linejoin="round"/>
<path d="M168.969 57.5644C169.288 57.545 172.374 57.4021 174.184 59.7468C175.01 60.8174 175.223 61.9582 175.286 62.5783" stroke="#BEDCFC" stroke-width="1.69552" stroke-miterlimit="10" stroke-linecap="round" stroke-linejoin="round"/>
<path d="M265.163 111.014C264.504 111.014 263.838 110.944 263.189 110.806L204.006 98.2762C198.89 97.1935 195.608 92.1481 196.691 87.0325L202.429 59.926C203.352 55.5661 207.249 52.4028 211.699 52.4028C212.357 52.4028 213.024 52.473 213.673 52.6111L272.856 65.141C275.334 65.6666 277.46 67.1247 278.841 69.2489C280.222 71.3732 280.694 73.9068 280.171 76.3871L274.433 103.494C273.507 107.851 269.61 111.014 265.163 111.014Z" fill="#D0D4FF"/>
<path d="M252.637 101.502C256.644 101.502 259.892 98.2546 259.892 94.2481C259.892 90.2416 256.644 86.9937 252.637 86.9937C248.631 86.9937 245.383 90.2416 245.383 94.2481C245.383 98.2546 248.631 101.502 252.637 101.502Z" fill="#D5FAFC"/>
<path d="M262.215 103.532C266.222 103.532 269.47 100.284 269.47 96.2778C269.47 92.2714 266.222 89.0235 262.215 89.0235C258.209 89.0235 254.961 92.2714 254.961 96.2778C254.961 100.284 258.209 103.532 262.215 103.532Z" fill="#4748CE"/>
<path d="M241.619 67.2337C244.434 69.886 244.751 74.5922 242.196 77.5303C241.348 78.5064 240.234 79.2428 239.016 79.6691" stroke="white" stroke-width="1.97147" stroke-miterlimit="10" stroke-linecap="round"/>
<path d="M238.67 68.8178C241.218 71.3345 240.291 75.8009 236.914 77.029" stroke="white" stroke-width="1.97147" stroke-miterlimit="10" stroke-linecap="round"/>
<path d="M235.995 69.5856C237.167 71.3829 236.629 73.9867 234.812 75.1421" stroke="white" stroke-width="1.97147" stroke-miterlimit="10" stroke-linecap="round"/>
<path d="M233.137 70.3462C233.769 71.3126 233.479 72.7151 232.5 73.3376" stroke="white" stroke-width="1.97147" stroke-miterlimit="10" stroke-linecap="round"/>
<rect x="205.062" y="51.4105" width="77.8885" height="45.2865" rx="3.94293" transform="rotate(12.1915 205.062 51.4105)" stroke="#191D5D" stroke-width="2.62862"/>
<path d="M289.319 54.9139C299.686 54.9139 308.09 46.5095 308.09 36.1422C308.09 25.7748 299.686 17.3704 289.319 17.3704C278.951 17.3704 270.547 25.7748 270.547 36.1422C270.547 46.5095 278.951 54.9139 289.319 54.9139Z" fill="#D0D4FF" stroke="#4344C6" stroke-width="2.62862" stroke-miterlimit="10" stroke-linecap="round" stroke-linejoin="round"/>
<path d="M282.391 27.9214C295.383 25.5574 301.264 36.3941 286.113 35.3623" stroke="#4344C6" stroke-width="2.62862" stroke-miterlimit="10" stroke-linecap="round" stroke-linejoin="round"/>
<path d="M285.906 44.2468C285.906 38.9883 285.906 33.7636 285.906 28.493" stroke="#4344C6" stroke-width="2.62862" stroke-miterlimit="10" stroke-linecap="round" stroke-linejoin="round"/>
<path d="M287.711 24.1671V27.0471" stroke="#4344C6" stroke-width="2.62862" stroke-miterlimit="10" stroke-linecap="round" stroke-linejoin="round"/>
<path d="M290.672 24.2738V27.6163" stroke="#4344C6" stroke-width="2.62862" stroke-miterlimit="10" stroke-linecap="round" stroke-linejoin="round"/>
<path d="M285.902 35.7887C290.414 35.3212 299.754 35.5804 296.458 42.5053C293.11 46.4026 286.83 44.1403 282.344 44.632" stroke="#4344C6" stroke-width="2.62862" stroke-miterlimit="10" stroke-linecap="round" stroke-linejoin="round"/>
<path d="M287.711 45.2786V48.1561" stroke="#4344C6" stroke-width="2.62862" stroke-miterlimit="10" stroke-linecap="round" stroke-linejoin="round"/>
<path d="M290.891 45.0655V48.2336" stroke="#4344C6" stroke-width="2.62862" stroke-miterlimit="10" stroke-linecap="round" stroke-linejoin="round"/>
<path d="M226.169 126.717C233.193 126.717 238.886 121.024 238.886 114.001C238.886 106.978 233.193 101.284 226.169 101.284C219.146 101.284 213.453 106.978 213.453 114.001C213.453 121.024 219.146 126.717 226.169 126.717Z" fill="#D0D4FF" stroke="#191D5D" stroke-width="1.97147" stroke-miterlimit="10"/>
<path d="M223.71 118.952C222.829 118.92 221.317 119.022 220.479 118.886C219.578 118.332 220.574 117.528 221.485 117.738C221.996 116.549 221.623 112.632 221.928 110.859C221.024 111.603 220.409 111.884 220.164 110.891C224.687 105.24 222.945 112.984 222.911 115.902C222.901 116.36 223.02 117.261 223.023 117.709C224.035 117.312 225.038 118.68 223.71 118.952Z" fill="#191D5D"/>
<path d="M229.119 119.199C224.12 119.167 224.299 108.808 229.32 108.796C234.354 108.885 233.944 119.395 229.119 119.199ZM229.313 110.055C225.9 110.201 225.866 117.826 229.117 117.947C232.21 117.881 232.636 110.118 229.313 110.055Z" fill="#191D5D"/>
<path d="M207.807 58.2459C207.613 58.2459 207.422 58.1868 207.259 58.0711L204.53 56.1313C204.308 55.973 204.164 55.7273 204.138 55.4556C204.11 55.1839 204.202 54.9146 204.388 54.7161L210.148 48.5756C210.333 48.3795 210.583 48.2779 210.838 48.2779C211.011 48.2779 211.183 48.3251 211.337 48.4196C211.72 48.6583 211.88 49.1332 211.722 49.5537L208.691 57.634C208.587 57.908 208.362 58.1207 208.083 58.2057C207.991 58.2317 207.899 58.2459 207.807 58.2459Z" fill="#191D5D"/>
<path d="M210.84 49.223L207.809 57.3033L205.08 55.3635L210.84 49.223ZM210.84 47.3329C210.332 47.3329 209.829 47.5384 209.46 47.9306L203.7 54.0711C203.327 54.4681 203.143 55.0091 203.197 55.5525C203.251 56.0959 203.537 56.5897 203.984 56.904L206.712 58.8437C207.036 59.0729 207.419 59.1934 207.809 59.1934C207.993 59.1934 208.18 59.165 208.362 59.1107C208.922 58.9382 209.373 58.5177 209.578 57.9672L212.61 49.8869C212.926 49.0434 212.603 48.0936 211.837 47.6187C211.53 47.425 211.183 47.3329 210.84 47.3329Z" fill="#191D5D"/>
<path d="M226.824 71.68C226.557 71.68 226.299 71.5666 226.12 71.3658L223.889 68.8708C223.707 68.6676 223.622 68.3959 223.655 68.1242C223.689 67.8525 223.837 67.6115 224.064 67.4579L231.041 62.7468C231.202 62.6381 231.386 62.5838 231.57 62.5838C231.811 62.5838 232.052 62.6759 232.234 62.8555C232.556 63.1721 232.608 63.6706 232.359 64.0463L227.615 71.2547C227.455 71.5004 227.188 71.6564 226.895 71.6776C226.869 71.6776 226.845 71.68 226.824 71.68Z" fill="#191D5D"/>
<path d="M231.57 63.5265L226.826 70.7349L224.593 68.24L231.57 63.5265ZM231.57 61.6363C231.204 61.6363 230.835 61.7427 230.512 61.96L223.535 66.6712C223.083 66.976 222.783 67.4627 222.717 68.0037C222.651 68.5447 222.821 69.0905 223.185 69.4969L225.418 71.9919C225.777 72.3935 226.292 72.6227 226.826 72.6227C226.873 72.6227 226.918 72.6203 226.965 72.618C227.551 72.5754 228.083 72.2612 228.404 71.7721L233.148 64.5637C233.644 63.81 233.538 62.813 232.898 62.1798C232.534 61.8206 232.052 61.6363 231.57 61.6363Z" fill="#191D5D"/>
<path d="M226.917 97.277C226.81 97.277 226.704 97.2581 226.6 97.2227C226.324 97.1235 226.109 96.9037 226.019 96.6249L224.984 93.4401C224.899 93.1802 224.932 92.8967 225.071 92.6628C225.211 92.4289 225.447 92.2658 225.714 92.2186L233.998 90.723C234.054 90.7136 234.111 90.7089 234.165 90.7089C234.548 90.7089 234.9 90.9404 235.044 91.3066C235.21 91.7248 235.056 92.202 234.678 92.4478L227.427 97.1282C227.273 97.225 227.096 97.277 226.917 97.277Z" fill="#191D5D"/>
<path d="M234.172 91.6515L226.921 96.3319L225.886 93.1471L234.172 91.6515ZM234.174 89.7614C234.063 89.7614 233.95 89.7708 233.837 89.7921L225.553 91.2876C225.017 91.3845 224.547 91.7082 224.268 92.1784C223.989 92.6485 223.923 93.2132 224.093 93.733L225.128 96.9179C225.31 97.4754 225.74 97.9173 226.293 98.1157C226.498 98.189 226.713 98.2244 226.926 98.2244C227.285 98.2244 227.642 98.1228 227.951 97.922L235.202 93.2416C235.958 92.7525 236.265 91.798 235.935 90.9592C235.642 90.2268 234.938 89.7614 234.174 89.7614Z" fill="#191D5D"/>
<path d="M182.391 69.3599C182.119 69.3528 181.862 69.23 181.687 69.0197C181.512 68.8094 181.437 68.5354 181.481 68.266L182.819 59.9542C182.89 59.51 183.265 59.1769 183.717 59.1604C183.728 59.1604 183.74 59.1604 183.752 59.1604C184.187 59.1604 184.569 59.4581 184.671 59.8857L186.679 68.2778C186.748 68.5637 186.679 68.8638 186.495 69.093C186.315 69.3151 186.046 69.445 185.76 69.445C185.753 69.4403 182.391 69.3599 182.391 69.3599Z" fill="#191D5D"/>
<path d="M183.751 60.103L185.76 68.4952L182.412 68.4148L183.751 60.103ZM183.751 58.2129C183.728 58.2129 183.704 58.2129 183.681 58.2152C182.78 58.2483 182.029 58.9146 181.885 59.803L180.548 68.1148C180.46 68.6535 180.612 69.204 180.961 69.6245C181.311 70.0451 181.824 70.2931 182.369 70.3049L185.717 70.3853C185.731 70.3853 185.748 70.3853 185.762 70.3853C186.331 70.3853 186.873 70.1278 187.232 69.6836C187.6 69.2276 187.737 68.6251 187.6 68.0557L185.592 59.6636C185.384 58.8106 184.623 58.2129 183.751 58.2129Z" fill="#191D5D"/>
<path d="M156.498 168.053C156.231 168.053 155.974 167.939 155.794 167.738L126.341 134.793C126.141 134.569 126.06 134.262 126.122 133.969C126.183 133.674 126.382 133.428 126.656 133.303C147.905 123.658 166.313 100.845 175.393 88.1051C176.784 86.1512 178.237 84.3131 179.714 82.6379C178.502 76.9109 179.345 70.3214 181.772 66.8011C182.795 65.3173 184.073 64.4337 185.467 64.2471C185.658 64.2211 185.857 64.2092 186.055 64.2092C188.919 64.2092 191.789 66.8082 193.143 69.374C193.552 70.1513 193.868 70.9995 194.083 71.9115C194.804 71.6398 195.525 71.4083 196.241 71.2169C196.352 65.3197 198.587 58.9334 201.689 55.7958C203.026 54.442 204.496 53.7262 205.937 53.7262H206.036C209.228 53.7994 211.921 57.1591 212.836 60.2849C213.925 64.0131 212.902 68.7007 210.029 73.2629C210.603 73.6929 211.158 74.1773 211.688 74.7112C215.137 69.3457 220.396 65.426 224.297 65.426C225.242 65.426 226.093 65.6505 226.825 66.0923C229.481 67.7013 230.263 71.8879 229.648 75.0113C228.538 80.6628 222.636 84.9321 217.33 86.6946C217.424 87.4105 217.481 88.124 217.5 88.8257C219.113 88.3201 220.692 88.0579 222.121 88.0579C224.325 88.0579 226.147 88.6863 227.385 89.8771C229.866 92.2634 229.894 96.4831 228.661 99.2427C226.364 104.384 219.284 106.208 213.918 106.208C212.373 106.208 210.884 106.061 209.578 105.78C205.821 109.638 200.396 114.297 192.985 120.665C191.567 121.882 190.074 123.165 188.501 124.521C185.446 127.153 180.675 133.142 174.455 141.326C168.113 149.666 162.348 158.496 157.323 167.566C157.174 167.833 156.905 168.012 156.602 168.048C156.569 168.05 156.534 168.053 156.498 168.053Z" fill="#BEDCFC"/>
<path d="M205.942 54.6665C205.968 54.6665 205.994 54.6665 206.02 54.6665C208.555 54.7232 211.055 57.5418 211.934 60.5471C213.148 64.703 211.379 69.6268 208.742 73.511C209.876 74.2411 210.918 75.1767 211.849 76.273C215.031 70.7467 220.477 66.3687 224.305 66.3687C225.056 66.3687 225.746 66.5365 226.344 66.9003C228.458 68.1809 229.321 71.8194 228.73 74.827C227.634 80.3982 221.415 84.5517 216.281 86.0331C216.518 87.4105 216.614 88.8021 216.553 90.163C218.476 89.4164 220.407 89.0029 222.129 89.0029C223.998 89.0029 225.623 89.4873 226.738 90.5599C228.744 92.4879 228.988 96.2161 227.806 98.8599C225.791 103.37 219.386 105.265 213.923 105.265C212.232 105.265 210.63 105.083 209.276 104.741C204.856 109.357 198.056 115.049 187.889 123.807C184.669 126.581 179.578 133.036 173.706 140.757C165.647 151.356 160.029 160.74 156.501 167.11L127.046 134.163C149.567 123.944 168.837 98.9332 176.163 88.6533C177.69 86.5103 179.221 84.6037 180.742 82.9026C178.914 75.0916 181.186 65.7733 185.595 65.1827C185.749 65.1614 185.902 65.152 186.058 65.152C188.352 65.152 190.984 67.2996 192.312 69.8111C192.87 70.8672 193.208 72.0178 193.373 73.2157C194.675 72.6534 195.948 72.2376 197.189 71.954C197.087 63.6942 201.349 54.6665 205.942 54.6665ZM205.942 52.7764C204.244 52.7764 202.54 53.5891 201.021 55.1272C197.836 58.3522 195.584 64.507 195.322 70.4939C195.124 70.553 194.925 70.6168 194.724 70.6829C194.524 70.0686 194.276 69.4827 193.983 68.9298C192.541 66.201 189.446 63.2618 186.058 63.2618C185.817 63.2618 185.576 63.2784 185.345 63.3091C183.679 63.5335 182.176 64.5542 180.995 66.2648C179.703 68.136 178.786 70.8814 178.41 73.993C178.08 76.7408 178.181 79.6752 178.696 82.3662C177.305 83.9705 175.937 85.7118 174.623 87.557C165.598 100.221 147.313 122.89 126.264 132.443C125.716 132.691 125.319 133.185 125.196 133.775C125.073 134.366 125.237 134.975 125.636 135.424L155.089 168.369C155.45 168.773 155.963 169 156.497 169C156.568 169 156.636 168.995 156.707 168.988C157.314 168.92 157.853 168.561 158.151 168.027C163.155 158.997 168.894 150.205 175.209 141.9C180.563 134.86 185.952 127.968 189.12 125.239C190.694 123.883 192.185 122.602 193.6 121.388C200.801 115.202 206.129 110.626 209.897 106.808C211.138 107.035 212.508 107.155 213.919 107.155C219.568 107.155 227.046 105.185 229.526 99.6302C230.89 96.5752 230.833 91.8806 228.043 89.1967C226.625 87.8334 224.579 87.1128 222.124 87.1128C220.948 87.1128 219.684 87.2782 218.382 87.5995C218.375 87.5121 218.365 87.4223 218.358 87.3349C223.726 85.3432 229.448 80.9534 230.58 75.1932C231.256 71.7556 230.344 67.1153 227.32 65.2843C226.438 64.7503 225.425 64.481 224.303 64.481C221.392 64.481 218.535 66.2719 216.655 67.7721C214.769 69.2771 213 71.1767 211.532 73.2606C211.447 73.185 211.362 73.1117 211.275 73.0409C213.952 68.4762 214.854 63.8076 213.746 60.0203C212.737 56.5732 209.701 52.8638 206.06 52.7811C206.023 52.7764 205.983 52.7764 205.942 52.7764Z" fill="#4344C6" stroke="#4344C6" stroke-width="1.44046"/>
</svg>
