<svg width="379" height="122" viewBox="0 0 379 122" fill="none" xmlns="http://www.w3.org/2000/svg">
<path fill-rule="evenodd" clip-rule="evenodd" d="M-16 49.4657L7.16667 61.3029C30.3333 73.14 76.6667 96.8143 123 90.8957C169.333 84.9772 215.667 49.4657 262 28.7507C308.333 8.03575 354.667 2.11718 401 10.995C447.333 19.8729 493.667 43.5472 516.833 55.3843L540 67.2214V156H516.833C493.667 156 447.333 156 401 156C354.667 156 308.333 156 262 156C215.667 156 169.333 156 123 156C76.6667 156 30.3333 156 7.16667 156H-16V49.4657Z" fill="#828CFC"/>
<path fill-rule="evenodd" clip-rule="evenodd" d="M134.013 60.4197C134.467 59.5969 134.514 58.6079 134.105 57.7617C128.865 46.9281 122.347 29.6473 125.707 19.7036C127.769 13.6015 141.446 23.6666 157.238 38.442C158.038 39.1899 159.203 39.3944 160.219 38.9883C169.754 35.1794 180.109 33.4291 189.155 33.4291C197.821 33.4291 207.609 35.8187 216.699 40.0554C217.745 40.5433 218.989 40.3575 219.829 39.5647C236.122 24.1827 250.441 13.4482 252.554 19.7036C256.12 30.2546 248.563 49.0662 243.213 59.6713C242.765 60.56 242.826 61.6121 243.341 62.4641C246.588 67.8406 248.498 73.7698 248.498 80.0808C248.498 111.389 214.162 121.587 189.155 121.587C164.148 121.587 129.125 111.296 129.125 80.0808C129.125 72.5272 130.93 65.9989 134.013 60.4197Z" fill="#BEDCFC"/>
<path d="M125.707 19.7036L124.082 19.1545L125.707 19.7036ZM252.554 19.7036L250.93 20.2527V20.2527L252.554 19.7036ZM216.699 40.0554L217.423 38.5008L216.699 40.0554ZM219.829 39.5647L218.652 38.3175L219.829 39.5647ZM157.238 38.442L158.41 37.1896L157.238 38.442ZM243.213 59.6713L241.682 58.8988L243.213 59.6713ZM243.341 62.4641L244.809 61.5773L243.341 62.4641ZM134.105 57.7617L135.649 57.0149L134.105 57.7617ZM134.013 60.4197L132.512 59.5902L134.013 60.4197ZM124.082 19.1545C122.23 24.6371 123.145 31.8697 125.025 38.8453C126.927 45.9009 129.913 53.0343 132.561 58.5085L135.649 57.0149C133.057 51.6554 130.164 44.7317 128.337 37.9526C126.488 31.0934 125.824 24.7139 127.332 20.2527L124.082 19.1545ZM158.41 37.1896C150.499 29.7878 143.036 23.4869 137.245 19.7973C134.384 17.9742 131.748 16.6672 129.577 16.2896C128.475 16.0979 127.319 16.1141 126.283 16.5954C125.189 17.1041 124.465 18.0216 124.082 19.1545L127.332 20.2527C127.465 19.86 127.619 19.7572 127.729 19.7061C127.898 19.6275 128.272 19.5444 128.989 19.6691C130.456 19.9242 132.612 20.9128 135.402 22.6902C140.913 26.2014 148.185 32.3208 156.066 39.6945L158.41 37.1896ZM189.155 31.714C179.906 31.714 169.333 33.5006 159.583 37.3955L160.856 40.581C170.175 36.8581 180.313 35.1442 189.155 35.1442V31.714ZM217.423 38.5008C208.148 34.1779 198.114 31.714 189.155 31.714V35.1442C197.529 35.1442 207.069 37.4596 215.974 41.61L217.423 38.5008ZM254.179 19.1545C253.786 17.9902 253.034 17.0585 251.9 16.56C250.834 16.0913 249.646 16.1017 248.514 16.321C246.277 16.7544 243.548 18.148 240.574 20.0823C234.558 23.9948 226.813 30.6125 218.652 38.3175L221.006 40.8118C229.138 33.1349 236.699 26.6943 242.444 22.9579C245.35 21.0677 247.615 19.9892 249.167 19.6886C249.929 19.5408 250.334 19.6187 250.519 19.7002C250.637 19.7519 250.795 19.8531 250.93 20.2527L254.179 19.1545ZM244.745 60.4438C247.45 55.0818 250.724 47.6242 252.876 40.141C255.001 32.7491 256.142 24.9629 254.179 19.1545L250.93 20.2527C252.532 24.9953 251.678 31.8904 249.579 39.1933C247.506 46.4049 244.327 53.6556 241.682 58.8988L244.745 60.4438ZM250.214 80.0808C250.214 73.4116 248.192 67.1794 244.809 61.5773L241.872 63.3509C244.984 68.5018 246.783 74.1281 246.783 80.0808H250.214ZM189.155 123.302C201.844 123.302 216.992 120.722 229.033 114.076C241.145 107.391 250.214 96.5094 250.214 80.0808H246.783C246.783 94.9601 238.684 104.831 227.375 111.073C215.997 117.353 201.472 119.872 189.155 119.872V123.302ZM127.41 80.0808C127.41 96.4808 136.67 107.359 148.941 114.046C161.149 120.698 176.464 123.302 189.155 123.302V119.872C176.839 119.872 162.138 117.33 150.583 111.034C139.091 104.772 130.84 94.8962 130.84 80.0808H127.41ZM132.512 59.5902C129.286 65.4279 127.41 72.2423 127.41 80.0808H130.84C130.84 72.8121 132.574 66.5699 135.514 61.2492L132.512 59.5902ZM215.974 41.61C217.641 42.3868 219.642 42.1001 221.006 40.8118L218.652 38.3175C218.337 38.615 217.85 38.6998 217.423 38.5008L215.974 41.61ZM156.066 39.6945C157.365 40.9095 159.239 41.2269 160.856 40.581L159.583 37.3955C159.167 37.5619 158.71 37.4703 158.41 37.1896L156.066 39.6945ZM241.682 58.8988C240.955 60.3395 241.067 62.0178 241.872 63.3509L244.809 61.5773C244.585 61.2063 244.575 60.7805 244.745 60.4438L241.682 58.8988ZM132.561 58.5085C132.716 58.8282 132.711 59.2297 132.512 59.5902L135.514 61.2492C136.224 59.9642 136.313 58.3876 135.649 57.0149L132.561 58.5085Z" fill="#4344C6"/>
<path d="M164.65 82.1938C152.136 75.7088 118.947 65.1996 86.3047 75.0428" stroke="#4344C6" stroke-width="2.52388" stroke-linecap="round"/>
<path d="M159.179 87.4521C148.944 84.0519 124.96 80.848 110.91 95.2341" stroke="#4344C6" stroke-width="2.52388" stroke-linecap="round"/>
<path d="M212.717 82.1936C225.231 75.7087 258.42 65.1995 291.062 75.0426" stroke="#4344C6" stroke-width="2.52388" stroke-linecap="round"/>
<path d="M217.973 87.4521C228.209 84.0519 252.193 80.848 266.242 95.2341" stroke="#4344C6" stroke-width="2.52388" stroke-linecap="round"/>
<path d="M161.395 44.5215C162.797 35.9333 160.49 15.539 140.047 2.66718" stroke="#4344C6" stroke-width="2.52388" stroke-linecap="round"/>
<path d="M216.828 44.5215C215.426 35.9333 217.732 15.539 238.176 2.66724" stroke="#4344C6" stroke-width="2.52388" stroke-linecap="round"/>
<path d="M169.066 43.7858C170.819 38.2823 173.273 24.8567 169.066 15.1818" stroke="#4344C6" stroke-width="2.52388" stroke-linecap="round"/>
<path d="M208.41 43.7858C206.657 38.2823 204.204 24.8567 208.41 15.1818" stroke="#4344C6" stroke-width="2.52388" stroke-linecap="round"/>
<path d="M194.765 75.2745C194.765 77.7138 190.404 82.0889 187.972 82.0889C185.54 82.0889 181.305 77.7138 181.305 75.2745C181.305 72.8352 185.54 71.9934 187.972 71.9934C190.404 71.9934 194.765 72.8352 194.765 75.2745Z" fill="#191D5D"/>
<path d="M139.766 53.4247L152.54 43.8019C153.256 43.2623 153.426 42.2569 152.824 41.5924C148.872 37.2303 139.37 31.6436 134.601 29.8516C133.771 29.5397 132.896 30.0378 132.773 30.9159C131.882 37.2673 135.337 47.7281 137.246 52.7246C137.637 53.7474 138.892 54.0835 139.766 53.4247Z" fill="#D5FAFC"/>
<path d="M238.745 53.4247L225.972 43.8019C225.255 43.2623 225.086 42.2569 225.688 41.5924C229.64 37.2303 239.142 31.6436 243.911 29.8516C244.741 29.5397 245.616 30.0378 245.739 30.9159C246.629 37.2673 243.175 47.7281 241.266 52.7246C240.875 53.7474 239.62 54.0835 238.745 53.4247Z" fill="#D5FAFC"/>
<path fill-rule="evenodd" clip-rule="evenodd" d="M187.849 88.0524C187.737 88.0352 187.632 88.1121 187.612 88.224C187.299 89.9689 186.365 91.9939 184.918 93.7279C183.417 95.5273 181.383 96.9908 178.951 97.5142C174.15 98.548 167.566 95.9421 160.259 84.2958C160.198 84.1995 160.07 84.1673 159.973 84.2274L159.74 84.3726C159.644 84.4327 159.616 84.5622 159.676 84.6585C167.032 96.3827 173.857 99.3128 179.096 98.1849C181.71 97.6221 183.87 96.0555 185.445 94.1674C186.48 92.9272 187.271 91.5385 187.775 90.1849C187.846 89.9954 188.134 89.9954 188.204 90.1849C188.709 91.5385 189.499 92.9272 190.534 94.1674C192.109 96.0555 194.27 97.6221 196.884 98.1849C202.122 99.3128 208.947 96.3827 216.303 84.6585C216.363 84.5622 216.335 84.4327 216.239 84.3726L216.006 84.2274C215.909 84.1673 215.781 84.1995 215.72 84.2958C208.413 95.9421 201.83 98.548 197.028 97.5142C194.597 96.9908 192.562 95.5273 191.061 93.7279C189.614 91.9939 188.681 89.9689 188.367 88.224C188.347 88.1121 188.242 88.0352 188.13 88.0524L188.021 88.0692C188 88.0724 187.979 88.0724 187.958 88.0692L187.849 88.0524Z" fill="#191D5D"/>
<path d="M184.918 93.7279L185.8 94.4633L184.918 93.7279ZM178.951 97.5142L178.71 96.3921L178.951 97.5142ZM179.096 98.1849L179.337 99.3071L179.096 98.1849ZM185.445 94.1674L184.564 93.432L184.564 93.432L185.445 94.1674ZM190.534 94.1674L191.415 93.432V93.432L190.534 94.1674ZM196.884 98.1849L196.642 99.3071L196.884 98.1849ZM197.028 97.5142L197.27 96.3921L197.028 97.5142ZM191.061 93.7279L191.942 92.9925L191.061 93.7279ZM216.006 84.2274L216.613 83.2532L216.006 84.2274ZM215.72 84.2958L214.748 83.6857L215.72 84.2958ZM216.303 84.6585L217.275 85.2686L216.303 84.6585ZM216.239 84.3726L215.632 85.3468L216.239 84.3726ZM187.775 90.1849L186.699 89.7841L187.775 90.1849ZM188.204 90.1849L189.28 89.7841L188.204 90.1849ZM188.021 88.0692L188.195 89.2037L188.021 88.0692ZM187.958 88.0692L187.784 89.2037L187.958 88.0692ZM188.367 88.224L189.497 88.021L188.367 88.224ZM160.259 84.2958L161.231 83.6857L160.259 84.2958ZM187.612 88.224L186.482 88.021L187.612 88.224ZM185.8 94.4633C187.361 92.5918 188.39 90.3867 188.742 88.4269L186.482 88.021C186.207 89.551 185.369 91.396 184.037 92.9925L185.8 94.4633ZM179.193 98.6364C181.93 98.0471 184.175 96.4111 185.8 94.4633L184.037 92.9925C182.66 94.6435 180.835 95.9344 178.71 96.3921L179.193 98.6364ZM159.286 84.9059C166.674 96.6798 173.661 99.8274 179.193 98.6364L178.71 96.3921C174.638 97.2686 168.459 95.2044 161.231 83.6857L159.286 84.9059ZM160.347 85.3468L160.58 85.2016L159.366 83.2532L159.133 83.3984L160.347 85.3468ZM178.854 97.0627C174.346 98.0332 167.926 95.6463 160.649 84.0485L158.704 85.2686C166.139 97.119 173.368 100.592 179.337 99.3071L178.854 97.0627ZM184.564 93.432C183.112 95.1718 181.162 96.5658 178.854 97.0627L179.337 99.3071C182.257 98.6785 184.628 96.9392 186.327 94.9028L184.564 93.432ZM186.699 89.7841C186.24 91.0155 185.516 92.2912 184.564 93.432L186.327 94.9028C187.444 93.5631 188.301 92.0614 188.851 90.5858L186.699 89.7841ZM187.129 90.5858C187.678 92.0614 188.535 93.5631 189.653 94.9028L191.415 93.432C190.464 92.2912 189.739 91.0155 189.28 89.7841L187.129 90.5858ZM189.653 94.9028C191.352 96.9392 193.722 98.6785 196.642 99.3071L197.125 97.0627C194.817 96.5658 192.867 95.1718 191.415 93.432L189.653 94.9028ZM196.642 99.3071C202.612 100.592 209.84 97.119 217.275 85.2686L215.33 84.0485C208.054 95.6463 201.633 98.0332 197.125 97.0627L196.642 99.3071ZM216.846 83.3984L216.613 83.2532L215.399 85.2016L215.632 85.3468L216.846 83.3984ZM214.748 83.6857C207.521 95.2044 201.341 97.2686 197.27 96.3921L196.786 98.6364C202.318 99.8274 209.305 96.6798 216.693 84.9059L214.748 83.6857ZM197.27 96.3921C195.144 95.9344 193.32 94.6435 191.942 92.9925L190.179 94.4633C191.804 96.4111 194.049 98.0471 196.786 98.6364L197.27 96.3921ZM191.942 92.9925C190.61 91.396 189.772 89.551 189.497 88.021L187.237 88.4269C187.589 90.3867 188.618 92.5918 190.179 94.4633L191.942 92.9925ZM187.955 86.9179L187.846 86.9347L188.195 89.2037L188.304 89.187L187.955 86.9179ZM187.675 89.187L187.784 89.2037L188.133 86.9347L188.024 86.9179L187.675 89.187ZM216.613 83.2532C215.958 82.8453 215.131 83.0751 214.748 83.6857L216.693 84.9059C216.43 85.324 215.86 85.4893 215.399 85.2016L216.613 83.2532ZM217.275 85.2686C217.663 84.651 217.498 83.8049 216.846 83.3984L215.632 85.3468C215.172 85.0605 215.064 84.4735 215.33 84.0485L217.275 85.2686ZM188.851 90.5858C188.687 91.0241 188.283 91.1906 187.99 91.1906C187.696 91.1906 187.292 91.0241 187.129 90.5858L189.28 89.7841C189.046 89.1562 188.462 88.8949 187.99 88.8949C187.517 88.8949 186.933 89.1562 186.699 89.7841L188.851 90.5858ZM187.846 86.9347C187.941 86.9201 188.038 86.9201 188.133 86.9347L187.784 89.2037C187.92 89.2247 188.059 89.2247 188.195 89.2037L187.846 86.9347ZM159.133 83.3984C158.481 83.8049 158.316 84.651 158.704 85.2686L160.649 84.0485C160.915 84.4735 160.807 85.0605 160.347 85.3468L159.133 83.3984ZM189.497 88.021C189.37 87.313 188.7 86.8034 187.955 86.9179L188.304 89.187C187.784 89.267 187.324 88.9112 187.237 88.4269L189.497 88.021ZM161.231 83.6857C160.848 83.0751 160.021 82.8453 159.366 83.2532L160.58 85.2016C160.119 85.4893 159.549 85.324 159.286 84.9059L161.231 83.6857ZM188.742 88.4269C188.655 88.9112 188.195 89.267 187.675 89.187L188.024 86.9179C187.279 86.8034 186.609 87.313 186.482 88.021L188.742 88.4269Z" fill="#191D5D"/>
<path d="M220.828 58.2307L218.647 53.1656L218.716 58.8183L220.828 58.2307Z" fill="#4344C6" stroke="#191D5D" stroke-width="1.37211" stroke-miterlimit="10" stroke-linecap="round" stroke-linejoin="round"/>
<path d="M205.941 61.8168L202.693 57.3585L204.014 62.8575L205.941 61.8168Z" fill="#4344C6" stroke="#191D5D" stroke-width="1.37211" stroke-miterlimit="10" stroke-linecap="round" stroke-linejoin="round"/>
<path d="M199.594 76.8684L194.824 74.1035L198.25 78.6002L199.594 76.8684Z" fill="#4344C6" stroke="#191D5D" stroke-width="1.37211" stroke-miterlimit="10" stroke-linecap="round" stroke-linejoin="round"/>
<path d="M231.881 71.3164L232.91 65.9019L229.803 70.6214L231.881 71.3164Z" fill="#4344C6" stroke="#191D5D" stroke-width="1.37211" stroke-miterlimit="10" stroke-linecap="round" stroke-linejoin="round"/>
<path d="M225.868 139.409C226.118 139.409 226.371 139.348 226.598 139.225L252.074 125.49C252.504 125.26 252.8 124.834 252.865 124.35C252.93 123.866 252.765 123.378 252.416 123.037C241.626 112.516 235.437 94.5384 232.703 84.7587C232.315 83.3726 231.877 82.0325 231.393 80.7616C233.401 77.3251 234.273 73.0976 233.521 70.2293C233.056 68.4631 232.084 67.6337 231.351 67.2536C230.767 66.9502 230.092 66.7928 229.351 66.7928C227.707 66.7928 225.826 67.5761 224.44 68.8355C224.244 69.016 224.052 69.208 223.871 69.4115C224.954 65.6524 224.877 61.4479 223.614 58.787C222.973 57.4355 222.032 56.5216 220.892 56.1376C220.481 55.9994 220.039 55.9303 219.582 55.9303C217.709 55.9303 215.551 57.159 214.211 58.9905C212.928 60.7453 212.356 63.1643 212.54 65.8866C211.093 62.1736 208.493 59.0174 205.614 59.0174C205.36 59.0174 205.107 59.0405 204.865 59.0904C202.438 59.578 200.787 62.2888 200.415 64.7155C199.9 68.0561 201.72 71.5156 204.082 73.996C203.037 73.5161 202.004 73.2665 201.041 73.2665C200.323 73.2665 199.647 73.4047 199.036 73.6773C196.594 74.764 195.454 77.782 195.623 80.0666C195.98 84.9315 201.812 88.322 206.209 89.1053C207.687 92.2845 209.929 96.2548 212.947 101.596C213.546 102.659 214.18 103.777 214.848 104.963C216.177 107.325 217.958 112.754 219.682 118.264C221.717 124.772 223.292 131.449 224.363 138.111C224.443 138.603 224.755 139.025 225.2 139.244C225.4 139.355 225.634 139.409 225.868 139.409Z" fill="#BEDCFC"/>
<path d="M219.586 57.466C218.142 57.466 216.464 58.5142 215.454 59.9003C213.78 62.1888 213.776 65.6176 214.533 68.5972C213.673 68.7931 212.82 69.1386 212.006 69.6071C211.181 64.9534 208.243 60.5608 205.617 60.5608C205.467 60.5608 205.318 60.5761 205.168 60.603C203.578 60.9217 202.238 62.9683 201.935 64.9534C201.37 68.628 204.277 72.5713 207.107 74.6256C206.654 75.4204 206.285 76.2574 206.02 77.1098C204.408 75.7007 202.595 74.806 201.04 74.806C200.549 74.806 200.084 74.8944 199.658 75.0863C197.995 75.8274 197.012 78.0698 197.151 79.9589C197.462 84.1826 203.409 87.3234 207.253 87.7074C208.946 91.5356 211.868 96.5541 216.18 104.214C217.547 106.641 219.244 111.748 221.141 117.811C223.744 126.131 225.115 133.162 225.871 137.873L251.348 124.138C239.752 112.831 233.455 93.1367 231.228 85.1732C230.763 83.5145 230.249 81.9978 229.688 80.6117C232.552 76.2075 233.228 69.9642 230.644 68.6165C230.268 68.4206 229.826 68.3323 229.354 68.3323C228.068 68.3323 226.551 68.9966 225.476 69.9757C224.896 70.5017 224.432 71.1353 224.063 71.838C223.387 71.2006 222.692 70.663 221.993 70.2099C223.905 65.1147 223.272 58.5603 220.404 57.5965C220.143 57.5082 219.87 57.466 219.586 57.466ZM219.586 54.3942C220.212 54.3942 220.815 54.4902 221.383 54.6822C222.458 55.0431 223.959 55.9339 225.004 58.1303C225.983 60.1922 226.336 63.0527 226.067 65.9824C227.142 65.514 228.275 65.2606 229.354 65.2606C230.345 65.2606 231.255 65.4717 232.065 65.8941C233.075 66.4202 234.403 67.5298 235.014 69.8413C235.816 72.89 235.025 77.2442 233.086 80.892C233.489 82.0016 233.858 83.1574 234.188 84.3477C236.354 92.1 242.57 111.287 253.494 121.938C254.193 122.622 254.527 123.597 254.393 124.565C254.258 125.532 253.667 126.377 252.807 126.842L227.33 140.576C226.877 140.822 226.374 140.945 225.871 140.945C225.407 140.945 224.942 140.841 224.512 140.626C223.621 140.185 222.995 139.34 222.838 138.357C221.782 131.768 220.223 125.164 218.211 118.724C216.51 113.291 214.767 107.954 213.504 105.716C212.836 104.533 212.206 103.412 211.603 102.348C208.785 97.3604 206.638 93.5591 205.141 90.4528C203.098 89.9728 200.956 89.0398 199.151 87.8111C196.095 85.7377 194.294 83.0268 194.086 80.1778C193.875 77.298 195.292 73.6618 198.406 72.2718C199.051 71.9839 199.746 71.8111 200.476 71.7496C199.205 69.5226 198.506 66.9999 198.898 64.4773C199.351 61.5245 201.443 58.207 204.565 57.5812C204.911 57.5121 205.264 57.4775 205.617 57.4775C207.863 57.4775 209.914 58.8751 211.546 60.9678C211.88 59.9003 212.356 58.9251 212.974 58.0803C214.613 55.8418 217.205 54.3942 219.586 54.3942Z" fill="#4344C6"/>
<path d="M155.242 58.2308L157.423 53.1656L157.354 58.8183L155.242 58.2308Z" fill="#4344C6" stroke="#191D5D" stroke-width="1.37211" stroke-miterlimit="10" stroke-linecap="round" stroke-linejoin="round"/>
<path d="M170.133 61.8169L173.382 57.3585L172.061 62.8575L170.133 61.8169Z" fill="#4344C6" stroke="#191D5D" stroke-width="1.37211" stroke-miterlimit="10" stroke-linecap="round" stroke-linejoin="round"/>
<path d="M176.469 76.8684L181.238 74.1035L177.813 78.6003L176.469 76.8684Z" fill="#4344C6" stroke="#191D5D" stroke-width="1.37211" stroke-miterlimit="10" stroke-linecap="round" stroke-linejoin="round"/>
<path d="M144.189 71.3165L143.16 65.9019L146.267 70.6214L144.189 71.3165Z" fill="#4344C6" stroke="#191D5D" stroke-width="1.37211" stroke-miterlimit="10" stroke-linecap="round" stroke-linejoin="round"/>
<path d="M150.198 139.409C149.949 139.409 149.695 139.348 149.469 139.225L123.992 125.49C123.562 125.26 123.267 124.834 123.202 124.35C123.136 123.866 123.301 123.378 123.651 123.037C134.44 112.516 140.63 94.5384 143.364 84.7588C143.752 83.3726 144.189 82.0326 144.673 80.7616C142.665 77.3251 141.793 73.0976 142.546 70.2293C143.01 68.4631 143.982 67.6337 144.715 67.2536C145.299 66.9502 145.975 66.7928 146.716 66.7928C148.359 66.7928 150.241 67.5761 151.627 68.8355C151.823 69.016 152.015 69.208 152.195 69.4115C151.112 65.6524 151.189 61.448 152.452 58.7871C153.094 57.4355 154.034 56.5216 155.175 56.1377C155.585 55.9994 156.027 55.9303 156.484 55.9303C158.358 55.9303 160.516 57.159 161.856 58.9906C163.138 60.7453 163.71 63.1643 163.526 65.8867C164.974 62.1737 167.573 59.0174 170.453 59.0174C170.706 59.0174 170.96 59.0405 171.202 59.0904C173.628 59.578 175.279 62.2889 175.652 64.7155C176.166 68.0561 174.346 71.5156 171.985 73.9961C173.029 73.5161 174.062 73.2666 175.026 73.2666C175.744 73.2666 176.42 73.4048 177.03 73.6774C179.472 74.764 180.613 77.782 180.444 80.0666C180.087 84.9315 174.254 88.322 169.858 89.1053C168.379 92.2846 166.137 96.2548 163.119 101.596C162.52 102.659 161.886 103.777 161.218 104.963C159.89 107.325 158.108 112.754 156.384 118.264C154.349 124.772 152.775 131.449 151.704 138.111C151.623 138.603 151.312 139.025 150.866 139.244C150.667 139.355 150.433 139.409 150.198 139.409Z" fill="#BEDCFC"/>
<path d="M156.488 57.466C157.932 57.466 159.61 58.5142 160.62 59.9003C162.294 62.1888 162.298 65.6176 161.541 68.5972C162.402 68.7931 163.254 69.1386 164.068 69.6071C164.893 64.9534 167.831 60.5608 170.457 60.5608C170.607 60.5608 170.757 60.5761 170.906 60.603C172.496 60.9217 173.836 62.9683 174.139 64.9534C174.704 68.628 171.797 72.5713 168.967 74.6256C169.42 75.4204 169.789 76.2574 170.054 77.1098C171.667 75.7007 173.479 74.806 175.034 74.806C175.526 74.806 175.99 74.8944 176.416 75.0863C178.079 75.8274 179.062 78.0698 178.924 79.9589C178.613 84.1826 172.665 87.3234 168.821 87.7074C167.128 91.5356 164.206 96.5541 159.894 104.214C158.527 106.641 156.83 111.748 154.933 117.811C152.33 126.131 150.959 133.162 150.203 137.873L124.726 124.138C136.322 112.831 142.619 93.1367 144.846 85.1732C145.311 83.5145 145.826 81.9978 146.386 80.6117C143.522 76.2075 142.846 69.9642 145.43 68.6165C145.806 68.4206 146.248 68.3323 146.72 68.3323C148.006 68.3323 149.523 68.9966 150.598 69.9757C151.178 70.5017 151.643 71.1353 152.011 71.838C152.687 71.2006 153.382 70.663 154.081 70.2099C152.169 65.1147 152.802 58.5603 155.671 57.5965C155.932 57.5082 156.204 57.466 156.488 57.466ZM156.488 54.3942C155.863 54.3942 155.26 54.4902 154.691 54.6822C153.616 55.0431 152.115 55.9339 151.071 58.1303C150.091 60.1922 149.738 63.0527 150.007 65.9824C148.932 65.514 147.799 65.2606 146.72 65.2606C145.73 65.2606 144.82 65.4717 144.009 65.8941C143 66.4202 141.671 67.5298 141.06 69.8413C140.258 72.89 141.049 77.2442 142.988 80.892C142.585 82.0016 142.216 83.1574 141.886 84.3477C139.72 92.1 133.504 111.287 122.58 121.938C121.881 122.622 121.547 123.597 121.682 124.565C121.816 125.532 122.407 126.377 123.267 126.842L148.744 140.576C149.197 140.822 149.7 140.945 150.203 140.945C150.667 140.945 151.132 140.841 151.562 140.626C152.453 140.185 153.079 139.34 153.236 138.357C154.292 131.768 155.851 125.164 157.863 118.724C159.564 113.291 161.307 107.954 162.57 105.716C163.239 104.533 163.868 103.412 164.471 102.348C167.289 97.3604 169.436 93.5591 170.933 90.4528C172.976 89.9728 175.119 89.0398 176.923 87.8111C179.98 85.7377 181.78 83.0268 181.988 80.1778C182.199 77.298 180.782 73.6618 177.668 72.2718C177.023 71.9839 176.328 71.8111 175.599 71.7496C176.869 69.5226 177.568 66.9999 177.177 64.4773C176.724 61.5245 174.631 58.207 171.509 57.5812C171.164 57.5121 170.81 57.4775 170.457 57.4775C168.211 57.4775 166.161 58.8751 164.529 60.9678C164.195 59.9003 163.719 58.9251 163.1 58.0803C161.461 55.8418 158.869 54.3942 156.488 54.3942Z" fill="#4344C6"/>
<path d="M184.701 120.902C184.944 121.352 185.07 121.854 185.07 122.365L185.07 123.078C185.07 124.314 184.333 125.43 183.197 125.916L167.387 132.676C165.35 133.547 163.086 132.052 163.086 129.837L163.086 113.513C163.086 111.253 165.435 109.759 167.482 110.717L182.245 117.626C182.846 117.907 183.34 118.374 183.655 118.958L184.701 120.902Z" fill="#191D5D"/>
<path d="M190.865 120.902C190.623 121.352 190.496 121.854 190.496 122.365L190.496 123.078C190.496 124.314 191.233 125.43 192.37 125.916L208.179 132.676C210.216 133.547 212.48 132.052 212.48 129.837L212.48 113.513C212.48 111.253 210.131 109.759 208.084 110.717L193.321 117.626C192.72 117.907 192.226 118.374 191.912 118.958L190.865 120.902Z" fill="#191D5D"/>
<path d="M192.126 121.858C192.126 124.656 190.087 126.744 187.784 126.744C185.48 126.744 183.441 124.656 183.441 121.858C183.441 119.06 185.48 116.973 187.784 116.973C190.087 116.973 192.126 119.06 192.126 121.858Z" fill="#828CFC" stroke="#191D5D" stroke-width="2.17126"/>
</svg>
