<svg width="345" height="105" viewBox="0 0 345 105" fill="none" xmlns="http://www.w3.org/2000/svg">
<path fill-rule="evenodd" clip-rule="evenodd" d="M-65.7656 41.3637L-43.2803 52.8527C-20.795 64.3417 24.1756 87.3197 69.1461 81.5752C114.117 75.8307 159.087 41.3637 204.058 21.258C249.028 1.15226 293.999 -4.59224 338.97 4.02451C383.94 12.6412 428.911 35.6192 451.396 47.1082L473.881 58.5972V144.765H451.396C428.911 144.765 383.94 144.765 338.97 144.765C293.999 144.765 249.028 144.765 204.058 144.765C159.087 144.765 114.117 144.765 69.1461 144.765C24.1756 144.765 -20.795 144.765 -43.2803 144.765H-65.7656V41.3637Z" fill="#828CFC"/>
<path fill-rule="evenodd" clip-rule="evenodd" d="M125.602 52.7528C125.987 52.0571 126.027 51.2208 125.68 50.5052C121.25 41.3448 115.739 26.7344 118.58 18.3269C120.324 13.1674 131.888 21.6776 145.241 34.1706C145.917 34.803 146.902 34.9759 147.761 34.6325C155.823 31.4122 164.579 29.9324 172.227 29.9324C179.556 29.9324 187.834 31.9538 195.521 35.5375C196.406 35.9502 197.458 35.7931 198.168 35.1227C211.945 22.1153 224.054 13.0374 225.841 18.3269C228.857 27.2505 222.464 43.1622 217.94 52.128C217.561 52.8793 217.612 53.7688 218.047 54.4892C220.791 59.0336 222.404 64.0448 222.404 69.3784C222.404 95.8506 193.371 104.474 172.227 104.474C151.082 104.474 121.469 95.7724 121.469 69.3784C121.469 62.9909 122.995 57.4705 125.602 52.7528Z" fill="#BEDCFC"/>
<path d="M118.58 18.3269L119.954 18.7912L118.58 18.3269ZM225.841 18.3269L224.468 18.7912V18.7912L225.841 18.3269ZM198.168 35.1227L197.173 34.0682L198.168 35.1227ZM145.241 34.1706L146.232 33.1116L145.241 34.1706ZM147.761 34.6325L147.223 33.2858L147.761 34.6325ZM217.94 52.128L219.235 52.7813L217.94 52.128ZM218.047 54.4892L219.288 53.7397L218.047 54.4892ZM125.68 50.5052L126.986 49.8738L125.68 50.5052ZM117.207 17.8627C115.64 22.4982 116.414 28.6133 118.003 34.5111C119.611 40.4766 122.136 46.5079 124.375 51.1366L126.986 49.8738C124.794 45.3421 122.349 39.488 120.804 33.7563C119.241 27.9569 118.68 22.5631 119.954 18.7912L117.207 17.8627ZM146.232 33.1116C139.542 26.8533 133.233 21.5257 128.336 18.406C125.917 16.8646 123.688 15.7595 121.852 15.4402C120.92 15.2782 119.943 15.2919 119.068 15.6989C118.142 16.129 117.53 16.9048 117.207 17.8627L119.954 18.7912C120.066 18.4592 120.197 18.3723 120.29 18.329C120.433 18.2626 120.749 18.1924 121.355 18.2978C122.595 18.5135 124.419 19.3493 126.778 20.8522C131.437 23.8209 137.586 28.995 144.25 35.2296L146.232 33.1116ZM172.227 28.4822C164.407 28.4822 155.467 29.9927 147.223 33.2858L148.299 35.9793C156.179 32.8317 164.751 31.3826 172.227 31.3826V28.4822ZM196.134 34.2231C188.29 30.5664 179.804 28.4822 172.227 28.4822V31.3826C179.309 31.3826 187.377 33.3412 194.908 36.8519L196.134 34.2231ZM227.215 17.8627C226.883 16.8781 226.246 16.0903 225.288 15.6689C224.386 15.2725 223.382 15.2814 222.425 15.4669C220.533 15.8334 218.225 17.012 215.71 18.6477C210.623 21.9564 204.074 27.5526 197.173 34.0682L199.164 36.1772C206.04 29.6854 212.433 24.2389 217.292 21.0792C219.749 19.4807 221.665 18.5686 222.977 18.3143C223.622 18.1893 223.964 18.2552 224.121 18.324C224.22 18.3678 224.353 18.4534 224.468 18.7912L227.215 17.8627ZM219.235 52.7813C221.522 48.2481 224.292 41.9413 226.112 35.6124C227.909 29.3607 228.875 22.7751 227.215 17.8627L224.468 18.7912C225.823 22.8023 225.1 28.6344 223.324 34.8109C221.57 40.9102 218.882 47.0421 216.645 51.4748L219.235 52.7813ZM223.854 69.3784C223.854 63.7421 222.147 58.4748 219.288 53.7397L216.805 55.2388C219.434 59.5924 220.954 64.3475 220.954 69.3784H223.854ZM172.227 105.924C182.956 105.924 195.764 103.742 205.945 98.1229C216.186 92.4707 223.854 83.2696 223.854 69.3784H220.954C220.954 81.9595 214.106 90.306 204.544 95.5835C194.923 100.894 182.642 103.024 172.227 103.024V105.924ZM120.019 69.3784C120.019 83.2453 127.848 92.4429 138.224 98.0973C148.547 103.722 161.496 105.924 172.227 105.924V103.024C161.813 103.024 149.383 100.875 139.612 95.5504C129.896 90.2556 122.919 81.9055 122.919 69.3784H120.019ZM124.333 52.0513C121.605 56.9876 120.019 62.75 120.019 69.3784H122.919C122.919 63.2318 124.385 57.9534 126.872 53.4542L124.333 52.0513ZM194.908 36.8519C196.318 37.5089 198.01 37.2666 199.164 36.1772L197.173 34.0682C196.906 34.3197 196.495 34.3914 196.134 34.2231L194.908 36.8519ZM144.25 35.2296C145.348 36.257 146.932 36.5253 148.299 35.9793L147.223 33.2858C146.871 33.4264 146.485 33.349 146.232 33.1116L144.25 35.2296ZM216.645 51.4748C216.031 52.6927 216.125 54.1116 216.805 55.2388L219.288 53.7397C219.099 53.426 219.091 53.066 219.235 52.7813L216.645 51.4748ZM124.375 51.1366C124.506 51.407 124.502 51.7465 124.333 52.0513L126.872 53.4542C127.472 52.3676 127.547 51.0345 126.986 49.8738L124.375 51.1366Z" fill="#4344C6"/>
<path d="M151.498 71.1654C140.917 65.6821 112.854 56.7961 85.2539 65.1189" stroke="#4344C6" stroke-width="2.13405" stroke-linecap="round"/>
<path d="M146.876 75.6115C138.221 72.7365 117.942 70.0274 106.062 82.1915" stroke="#4344C6" stroke-width="2.13405" stroke-linecap="round"/>
<path d="M192.142 71.1652C202.724 65.6818 230.786 56.7959 258.387 65.1187" stroke="#4344C6" stroke-width="2.13405" stroke-linecap="round"/>
<path d="M196.585 75.6115C205.239 72.7365 225.519 70.0274 237.398 82.1915" stroke="#4344C6" stroke-width="2.13405" stroke-linecap="round"/>
<path d="M148.746 39.3118C149.931 32.0501 147.981 14.8058 130.695 3.92212" stroke="#4344C6" stroke-width="2.13405" stroke-linecap="round"/>
<path d="M195.617 39.3118C194.432 32.0501 196.382 14.8058 213.668 3.92212" stroke="#4344C6" stroke-width="2.13405" stroke-linecap="round"/>
<path d="M155.234 38.6898C156.716 34.0364 158.791 22.6844 155.234 14.5039" stroke="#4344C6" stroke-width="2.13405" stroke-linecap="round"/>
<path d="M188.5 38.6898C187.018 34.0364 184.943 22.6844 188.5 14.5039" stroke="#4344C6" stroke-width="2.13405" stroke-linecap="round"/>
<path d="M176.968 65.3145C176.968 67.3771 173.28 71.0765 171.224 71.0765C169.167 71.0765 165.586 67.3771 165.586 65.3145C165.586 63.252 169.167 62.5403 171.224 62.5403C173.28 62.5403 176.968 63.252 176.968 65.3145Z" fill="#191D5D"/>
<path d="M130.461 46.8399L141.262 38.7033C141.867 38.2471 142.01 37.397 141.501 36.8351C138.16 33.1468 130.126 28.423 126.093 26.9077C125.391 26.644 124.652 27.0652 124.548 27.8077C123.795 33.1781 126.715 42.0231 128.33 46.2479C128.66 47.1127 129.721 47.3969 130.461 46.8399Z" fill="#D5FAFC"/>
<path d="M214.156 46.8399L203.356 38.7033C202.75 38.2471 202.607 37.397 203.116 36.8351C206.457 33.1468 214.492 28.423 218.524 26.9077C219.226 26.644 219.966 27.0652 220.07 27.8077C220.823 33.1781 217.902 42.0231 216.287 46.2479C215.957 47.1127 214.896 47.3969 214.156 46.8399Z" fill="#D5FAFC"/>
<path fill-rule="evenodd" clip-rule="evenodd" d="M171.126 76.1188C171.031 76.1042 170.942 76.1692 170.925 76.2638C170.66 77.7392 169.871 79.4515 168.648 80.9177C167.378 82.4391 165.658 83.6766 163.602 84.1192C159.542 84.9933 153.976 82.7899 147.797 72.9424C147.746 72.861 147.637 72.8338 147.555 72.8846L147.358 73.0073C147.277 73.0582 147.253 73.1677 147.304 73.2491C153.524 83.1624 159.295 85.6399 163.724 84.6863C165.934 84.2104 167.761 82.8858 169.093 81.2893C169.966 80.2423 170.634 79.0703 171.061 77.9276C171.12 77.7675 171.364 77.7675 171.423 77.9276C171.85 79.0703 172.518 80.2424 173.391 81.2894C174.723 82.8858 176.55 84.2105 178.76 84.6863C183.19 85.64 188.96 83.1625 195.18 73.2492C195.231 73.1678 195.207 73.0582 195.126 73.0074L194.929 72.8847C194.847 72.8339 194.739 72.8611 194.687 72.9425C188.509 82.79 182.942 84.9933 178.882 84.1193C176.826 83.6766 175.106 82.4392 173.837 80.9177C172.613 79.4516 171.824 77.7393 171.559 76.2639C171.542 76.1693 171.453 76.1043 171.358 76.1189L171.269 76.1327C171.251 76.1354 171.233 76.1354 171.216 76.1327L171.126 76.1188Z" fill="#191D5D"/>
<path d="M168.648 80.9177L169.393 81.5394L168.648 80.9177ZM163.602 84.1192L163.806 85.068L163.602 84.1192ZM163.724 84.6863L163.52 83.7374L163.724 84.6863ZM169.093 81.2893L169.838 81.9111L169.093 81.2893ZM173.391 81.2894L172.646 81.9111L173.391 81.2894ZM178.76 84.6863L178.964 83.7375L178.76 84.6863ZM178.882 84.1193L179.086 83.1704L178.882 84.1193ZM173.837 80.9177L173.091 81.5395L173.837 80.9177ZM194.929 72.8847L195.442 72.061L194.929 72.8847ZM194.687 72.9425L193.865 72.4266L194.687 72.9425ZM195.18 73.2492L196.002 73.765L195.18 73.2492ZM195.126 73.0074L195.639 72.1837L195.126 73.0074ZM171.061 77.9276L171.97 78.2671L171.061 77.9276ZM171.423 77.9276L172.333 77.5882L171.423 77.9276ZM171.269 76.1327L171.416 77.092L171.269 76.1327ZM171.216 76.1327L171.068 77.092L171.216 76.1327ZM147.358 73.0073L146.845 72.1836L147.358 73.0073ZM171.559 76.2639L172.514 76.0923L171.559 76.2639ZM171.358 76.1189L171.211 75.1596L171.358 76.1189ZM147.555 72.8846L147.042 72.0609L147.555 72.8846ZM170.925 76.2638L171.88 76.4355L170.925 76.2638ZM171.126 76.1188L170.978 77.0781L171.126 76.1188ZM169.393 81.5394C170.713 79.9571 171.583 78.0926 171.88 76.4355L169.97 76.0922C169.737 77.3859 169.028 78.9459 167.902 80.2959L169.393 81.5394ZM163.806 85.068C166.12 84.5698 168.019 83.1865 169.393 81.5394L167.902 80.2959C166.738 81.6918 165.195 82.7834 163.398 83.1703L163.806 85.068ZM146.974 73.4583C153.221 83.4137 159.129 86.075 163.806 85.068L163.398 83.1703C159.955 83.9115 154.73 82.1661 148.619 72.4265L146.974 73.4583ZM147.872 73.8311L148.069 73.7083L147.042 72.0609L146.845 72.1836L147.872 73.8311ZM163.52 83.7374C159.709 84.558 154.279 82.5398 148.126 72.7333L146.482 73.765C152.769 83.785 158.881 86.7219 163.928 85.6351L163.52 83.7374ZM168.348 80.6675C167.12 82.1385 165.472 83.3172 163.52 83.7374L163.928 85.6351C166.397 85.1036 168.402 83.633 169.838 81.9111L168.348 80.6675ZM170.151 77.5882C169.763 78.6278 169.151 79.7045 168.348 80.6675L169.838 81.9111C170.782 80.7802 171.505 79.5128 171.97 78.2671L170.151 77.5882ZM170.514 78.2671C170.979 79.5128 171.702 80.7803 172.646 81.9111L174.136 80.6676C173.333 79.7045 172.721 78.6278 172.333 77.5882L170.514 78.2671ZM172.646 81.9111C174.083 83.6331 176.087 85.1037 178.556 85.6352L178.964 83.7375C177.013 83.3173 175.364 82.1386 174.136 80.6676L172.646 81.9111ZM178.556 85.6352C183.603 86.7219 189.715 83.7851 196.002 73.765L194.358 72.7333C188.205 82.5399 182.776 84.5581 178.964 83.7375L178.556 85.6352ZM195.639 72.1837L195.442 72.061L194.416 73.7084L194.612 73.8311L195.639 72.1837ZM193.865 72.4266C187.754 82.1662 182.529 83.9116 179.086 83.1704L178.678 85.0681C183.355 86.0751 189.263 83.4137 195.51 73.4584L193.865 72.4266ZM179.086 83.1704C177.289 82.7834 175.747 81.6919 174.582 80.296L173.091 81.5395C174.465 83.1865 176.364 84.5698 178.678 85.0681L179.086 83.1704ZM174.582 80.296C173.456 78.946 172.747 77.386 172.514 76.0923L170.604 76.4355C170.901 78.0926 171.771 79.9571 173.091 81.5395L174.582 80.296ZM171.211 75.1596L171.121 75.1734L171.416 77.092L171.506 77.0782L171.211 75.1596ZM170.978 77.0781L171.068 77.092L171.363 75.1734L171.273 75.1595L170.978 77.0781ZM195.442 72.061C194.889 71.716 194.189 71.9103 193.865 72.4266L195.51 73.4584C195.288 73.8119 194.806 73.9517 194.416 73.7084L195.442 72.061ZM196.002 73.765C196.33 73.2428 196.191 72.5274 195.639 72.1837L194.612 73.8311C194.224 73.5891 194.132 73.0928 194.358 72.7333L196.002 73.765ZM171.97 78.2671C171.832 78.6372 171.49 78.7781 171.242 78.7781C170.994 78.7781 170.652 78.6372 170.514 78.2671L172.333 77.5882C172.135 77.0579 171.642 76.8369 171.242 76.8369C170.842 76.8369 170.349 77.0579 170.151 77.5882L171.97 78.2671ZM171.121 75.1734C171.201 75.161 171.283 75.161 171.363 75.1734L171.068 77.092C171.184 77.1097 171.301 77.1097 171.416 77.092L171.121 75.1734ZM146.845 72.1836C146.293 72.5273 146.154 73.2427 146.482 73.765L148.126 72.7333C148.352 73.0927 148.26 73.589 147.872 73.8311L146.845 72.1836ZM172.514 76.0923C172.407 75.4937 171.84 75.0627 171.211 75.1596L171.506 77.0782C171.066 77.1458 170.677 76.845 170.604 76.4355L172.514 76.0923ZM148.619 72.4265C148.295 71.9102 147.595 71.7159 147.042 72.0609L148.069 73.7083C147.678 73.9516 147.196 73.8118 146.974 73.4583L148.619 72.4265ZM171.88 76.4355C171.807 76.8449 171.418 77.1457 170.978 77.0781L171.273 75.1595C170.644 75.0627 170.077 75.4936 169.97 76.0922L171.88 76.4355Z" fill="#191D5D"/>
<path d="M199.016 50.9029L197.172 46.6206L197.23 51.3996L199.016 50.9029Z" fill="#4344C6" stroke="#191D5D" stroke-width="1.16018" stroke-miterlimit="10" stroke-linecap="round" stroke-linejoin="round"/>
<path d="M186.422 53.9354L183.675 50.166L184.792 54.8152L186.422 53.9354Z" fill="#4344C6" stroke="#191D5D" stroke-width="1.16018" stroke-miterlimit="10" stroke-linecap="round" stroke-linejoin="round"/>
<path d="M181.059 66.6621L177.026 64.3245L179.922 68.1263L181.059 66.6621Z" fill="#4344C6" stroke="#191D5D" stroke-width="1.16018" stroke-miterlimit="10" stroke-linecap="round" stroke-linejoin="round"/>
<path d="M208.356 61.9674L209.227 57.3897L206.6 61.3798L208.356 61.9674Z" fill="#4344C6" stroke="#191D5D" stroke-width="1.16018" stroke-miterlimit="10" stroke-linecap="round" stroke-linejoin="round"/>
<path d="M203.274 119.543C203.485 119.543 203.7 119.491 203.891 119.387L225.433 107.774C225.796 107.579 226.046 107.219 226.101 106.81C226.157 106.401 226.017 105.989 225.722 105.7C216.599 96.8039 211.365 81.6031 209.053 73.334C208.725 72.1619 208.355 71.0289 207.946 69.9542C209.644 67.0485 210.381 63.474 209.745 61.0487C209.352 59.5553 208.531 58.854 207.911 58.5326C207.417 58.2761 206.846 58.143 206.219 58.143C204.83 58.143 203.239 58.8053 202.067 59.8702C201.901 60.0228 201.739 60.1851 201.586 60.3572C202.502 57.1787 202.437 53.6237 201.369 51.3738C200.826 50.231 200.031 49.4583 199.067 49.1336C198.719 49.0167 198.346 48.9583 197.96 48.9583C196.375 48.9583 194.551 49.9972 193.418 51.5458C192.333 53.0296 191.849 55.0749 192.005 57.3768C190.781 54.2373 188.583 51.5686 186.148 51.5686C185.934 51.5686 185.72 51.5881 185.515 51.6303C183.463 52.0426 182.067 54.3347 181.752 56.3866C181.317 59.2111 182.856 62.1363 184.853 64.2337C183.97 63.8278 183.097 63.6168 182.282 63.6168C181.675 63.6168 181.103 63.7337 180.587 63.9642C178.522 64.883 177.558 67.4348 177.701 69.3666C178.003 73.4801 182.934 76.3469 186.652 77.0092C187.902 79.6974 189.798 83.0544 192.349 87.5704C192.856 88.4698 193.392 89.4145 193.957 90.4177C195.08 92.4144 196.586 97.0052 198.044 101.664C199.765 107.167 201.096 112.813 202.002 118.446C202.07 118.861 202.333 119.219 202.709 119.404C202.878 119.498 203.076 119.543 203.274 119.543Z" fill="#BEDCFC"/>
<path d="M197.963 50.2568C196.742 50.2568 195.323 51.1431 194.469 52.3151C193.054 54.2501 193.05 57.1494 193.69 59.6687C192.963 59.8343 192.242 60.1265 191.554 60.5226C190.856 56.5877 188.372 52.8735 186.151 52.8735C186.025 52.8735 185.898 52.8865 185.771 52.9093C184.427 53.1787 183.294 54.9092 183.038 56.5877C182.561 59.6947 185.018 63.029 187.411 64.7659C187.028 65.438 186.716 66.1458 186.492 66.8665C185.129 65.675 183.596 64.9185 182.281 64.9185C181.866 64.9185 181.473 64.9932 181.113 65.1555C179.707 65.7821 178.876 67.6782 178.993 69.2755C179.255 72.8468 184.285 75.5026 187.534 75.8272C188.966 79.0641 191.437 83.3074 195.083 89.7845C196.239 91.8363 197.674 96.1544 199.277 101.281C201.479 108.316 202.638 114.261 203.277 118.244L224.819 106.631C215.014 97.0699 209.689 80.4179 207.806 73.6844C207.414 72.2819 206.978 70.9995 206.504 69.8275C208.926 66.1036 209.498 60.8245 207.313 59.685C206.995 59.5194 206.621 59.4447 206.222 59.4447C205.134 59.4447 203.852 60.0064 202.943 60.8343C202.453 61.2791 202.06 61.8148 201.748 62.4089C201.177 61.87 200.589 61.4154 199.998 61.0323C201.615 56.724 201.079 51.182 198.654 50.3671C198.433 50.2925 198.203 50.2568 197.963 50.2568ZM197.963 47.6595C198.492 47.6595 199.001 47.7406 199.482 47.903C200.391 48.2081 201.66 48.9614 202.544 50.8184C203.371 52.5619 203.67 54.9806 203.443 57.4578C204.352 57.0617 205.31 56.8474 206.222 56.8474C207.06 56.8474 207.829 57.026 208.514 57.3831C209.368 57.8279 210.491 58.7662 211.008 60.7206C211.686 63.2985 211.017 66.9802 209.378 70.0644C209.719 71.0027 210.03 71.98 210.309 72.9864C212.141 79.5414 217.397 95.7648 226.634 104.771C227.224 105.349 227.507 106.173 227.393 106.992C227.28 107.81 226.78 108.524 226.052 108.917L204.511 120.53C204.128 120.738 203.703 120.842 203.277 120.842C202.884 120.842 202.492 120.754 202.128 120.572C201.375 120.199 200.846 119.485 200.712 118.654C199.82 113.082 198.502 107.498 196.8 102.053C195.362 97.4595 193.888 92.9467 192.82 91.0539C192.255 90.0539 191.723 89.1059 191.213 88.2066C188.83 83.9892 187.015 80.7751 185.749 78.1485C184.022 77.7427 182.21 76.9538 180.684 75.9149C178.1 74.1617 176.577 71.8696 176.402 69.4606C176.223 67.0256 177.421 63.951 180.054 62.7758C180.6 62.5323 181.187 62.3862 181.804 62.3342C180.729 60.4512 180.139 58.3181 180.47 56.1851C180.853 53.6884 182.622 50.8834 185.262 50.3542C185.554 50.2957 185.853 50.2665 186.151 50.2665C188.051 50.2665 189.784 51.4483 191.164 53.2177C191.447 52.3151 191.849 51.4905 192.372 50.7762C193.758 48.8834 195.95 47.6595 197.963 47.6595Z" fill="#4344C6"/>
<path d="M143.535 50.9029L145.379 46.6206L145.321 51.3996L143.535 50.9029Z" fill="#4344C6" stroke="#191D5D" stroke-width="1.16018" stroke-miterlimit="10" stroke-linecap="round" stroke-linejoin="round"/>
<path d="M156.121 53.9353L158.868 50.166L157.751 54.8152L156.121 53.9353Z" fill="#4344C6" stroke="#191D5D" stroke-width="1.16018" stroke-miterlimit="10" stroke-linecap="round" stroke-linejoin="round"/>
<path d="M161.48 66.6623L165.513 64.3247L162.617 68.1265L161.48 66.6623Z" fill="#4344C6" stroke="#191D5D" stroke-width="1.16018" stroke-miterlimit="10" stroke-linecap="round" stroke-linejoin="round"/>
<path d="M134.187 61.9674L133.316 57.3896L135.943 61.3798L134.187 61.9674Z" fill="#4344C6" stroke="#191D5D" stroke-width="1.16018" stroke-miterlimit="10" stroke-linecap="round" stroke-linejoin="round"/>
<path d="M139.265 119.543C139.054 119.543 138.839 119.491 138.648 119.387L117.106 107.774C116.743 107.579 116.493 107.219 116.438 106.81C116.382 106.401 116.522 105.989 116.817 105.7C125.941 96.8038 131.174 81.6031 133.486 73.3339C133.814 72.1619 134.184 71.0288 134.593 69.9542C132.895 67.0485 132.158 63.4739 132.794 61.0487C133.187 59.5552 134.008 58.854 134.628 58.5326C135.122 58.2761 135.693 58.143 136.32 58.143C137.71 58.143 139.3 58.8053 140.472 59.8702C140.638 60.0228 140.8 60.1851 140.953 60.3572C140.037 57.1787 140.102 53.6237 141.17 51.3737C141.713 50.2309 142.508 49.4582 143.472 49.1336C143.82 49.0167 144.193 48.9583 144.579 48.9583C146.164 48.9583 147.988 49.9972 149.121 51.5458C150.206 53.0295 150.69 55.0749 150.534 57.3768C151.758 54.2373 153.956 51.5685 156.391 51.5685C156.605 51.5685 156.819 51.588 157.024 51.6302C159.076 52.0426 160.472 54.3347 160.787 56.3865C161.222 59.2111 159.683 62.1363 157.686 64.2336C158.569 63.8278 159.442 63.6168 160.257 63.6168C160.865 63.6168 161.436 63.7337 161.952 63.9642C164.017 64.883 164.981 67.4348 164.838 69.3666C164.536 73.48 159.605 76.3468 155.887 77.0091C154.637 79.6973 152.741 83.0543 150.19 87.5704C149.683 88.4697 149.147 89.4145 148.583 90.4177C147.459 92.4144 145.953 97.0051 144.495 101.664C142.774 107.167 141.443 112.813 140.537 118.446C140.469 118.861 140.206 119.219 139.83 119.404C139.661 119.498 139.463 119.543 139.265 119.543Z" fill="#BEDCFC"/>
<path d="M144.58 50.2567C145.801 50.2567 147.22 51.1431 148.074 52.3151C149.489 54.2501 149.493 57.1493 148.853 59.6687C149.58 59.8343 150.301 60.1265 150.989 60.5226C151.687 56.5877 154.171 52.8735 156.392 52.8735C156.518 52.8735 156.645 52.8865 156.771 52.9092C158.116 53.1787 159.249 54.9091 159.505 56.5877C159.982 59.6947 157.525 63.029 155.132 64.7659C155.515 65.438 155.827 66.1457 156.051 66.8665C157.414 65.675 158.947 64.9185 160.262 64.9185C160.677 64.9185 161.07 64.9932 161.43 65.1555C162.836 65.7821 163.667 67.6781 163.55 69.2755C163.287 72.8468 158.258 75.5025 155.009 75.8272C153.577 79.0641 151.106 83.3074 147.46 89.7844C146.304 91.8363 144.869 96.1543 143.266 101.281C141.064 108.316 139.905 114.261 139.266 118.244L117.724 106.631C127.529 97.0699 132.854 80.4179 134.737 73.6844C135.129 72.2819 135.565 70.9995 136.039 69.8274C133.617 66.1035 133.045 60.8245 135.23 59.6849C135.548 59.5194 135.922 59.4447 136.321 59.4447C137.409 59.4447 138.691 60.0064 139.6 60.8342C140.09 61.279 140.483 61.8147 140.795 62.4089C141.366 61.8699 141.954 61.4154 142.545 61.0323C140.928 56.724 141.464 51.182 143.889 50.3671C144.11 50.2924 144.34 50.2567 144.58 50.2567ZM144.58 47.6594C144.051 47.6594 143.541 47.7406 143.061 47.9029C142.152 48.2081 140.882 48.9613 139.999 50.8184C139.172 52.5618 138.873 54.9806 139.1 57.4578C138.191 57.0617 137.233 56.8474 136.321 56.8474C135.483 56.8474 134.714 57.026 134.029 57.3831C133.175 57.8279 132.052 58.7661 131.535 60.7206C130.857 63.2984 131.526 66.9801 133.165 70.0644C132.824 71.0027 132.513 71.9799 132.233 72.9864C130.402 79.5413 125.146 95.7647 115.909 104.771C115.319 105.349 115.036 106.173 115.15 106.992C115.263 107.81 115.763 108.524 116.491 108.917L138.032 120.53C138.415 120.738 138.84 120.842 139.266 120.842C139.659 120.842 140.051 120.754 140.415 120.572C141.168 120.199 141.697 119.485 141.831 118.653C142.723 113.082 144.041 107.498 145.743 102.053C147.181 97.4595 148.655 92.9467 149.723 91.0539C150.288 90.0539 150.82 89.1059 151.33 88.2066C153.713 83.9892 155.528 80.775 156.794 78.1485C158.521 77.7427 160.333 76.9538 161.859 75.9149C164.443 74.1617 165.966 71.8696 166.141 69.4606C166.32 67.0256 165.122 63.951 162.489 62.7757C161.943 62.5322 161.356 62.3861 160.739 62.3342C161.814 60.4511 162.404 58.3181 162.073 56.1851C161.69 53.6884 159.921 50.8833 157.281 50.3541C156.989 50.2957 156.69 50.2665 156.392 50.2665C154.492 50.2665 152.759 51.4482 151.379 53.2177C151.096 52.3151 150.694 51.4904 150.171 50.7762C148.785 48.8834 146.593 47.6594 144.58 47.6594Z" fill="#4344C6"/>
<path d="M168.458 103.895C168.662 104.275 168.77 104.7 168.77 105.132L168.77 105.734C168.77 106.779 168.146 107.724 167.185 108.135L153.818 113.85C152.095 114.586 150.181 113.323 150.181 111.45L150.181 97.647C150.181 95.7359 152.167 94.4726 153.898 95.2827L166.381 101.125C166.889 101.362 167.307 101.757 167.573 102.251L168.458 103.895Z" fill="#191D5D"/>
<path d="M173.667 103.895C173.463 104.275 173.355 104.7 173.355 105.132L173.355 105.734C173.355 106.779 173.979 107.724 174.94 108.135L188.307 113.85C190.03 114.586 191.944 113.323 191.944 111.45L191.944 97.647C191.944 95.7359 189.958 94.4726 188.227 95.2827L175.744 101.125C175.236 101.362 174.818 101.757 174.552 102.251L173.667 103.895Z" fill="#191D5D"/>
<path d="M174.73 104.703C174.73 107.069 173.006 108.834 171.058 108.834C169.111 108.834 167.387 107.069 167.387 104.703C167.387 102.338 169.111 100.572 171.058 100.572C173.006 100.572 174.73 102.338 174.73 104.703Z" fill="#828CFC" stroke="#191D5D" stroke-width="1.8359"/>
</svg>
