<svg width="188" height="93" viewBox="0 0 188 93" fill="none" xmlns="http://www.w3.org/2000/svg">
<path fill-rule="evenodd" clip-rule="evenodd" d="M-234 42.4657L-210.833 54.3029C-187.667 66.14 -141.333 89.8143 -95 83.8957C-48.6667 77.9772 -2.33333 42.4657 44 21.7507C90.3333 1.03575 136.667 -4.88282 183 3.99503C229.333 12.8729 275.667 36.5472 298.833 48.3843L322 60.2214V149H298.833C275.667 149 229.333 149 183 149C136.667 149 90.3333 149 44 149C-2.33333 149 -48.6667 149 -95 149C-141.333 149 -187.667 149 -210.833 149H-234V42.4657Z" fill="#828CFC"/>
<path fill-rule="evenodd" clip-rule="evenodd" d="M51.7614 48.0568C52.0883 47.4655 52.1221 46.7546 51.828 46.1464C48.0629 38.3606 43.3811 25.946 45.7954 18.8016C47.2772 14.4167 57.1046 21.6489 68.4531 32.2662C69.0275 32.8037 69.8648 32.9506 70.5953 32.6588C77.4462 29.9226 84.8866 28.6653 91.3856 28.6653C97.6154 28.6653 104.651 30.3834 111.185 33.4295C111.937 33.7802 112.831 33.6467 113.434 33.0769C125.144 22.0216 135.435 14.306 136.955 18.8017C139.518 26.3862 134.083 39.9105 130.238 47.5305C129.916 48.169 129.96 48.925 130.329 49.5373C132.661 53.3993 134.032 57.6581 134.032 62.1909C134.032 84.6899 109.357 92.0188 91.3856 92.0188C73.4145 92.0188 48.2461 84.6234 48.2461 62.1909C48.2461 56.7603 49.5442 52.0673 51.7614 48.0568Z" fill="#BEDCFC"/>
<path d="M45.7954 18.8016L44.6277 18.4071L45.7954 18.8016ZM136.955 18.8017L138.122 18.4071V18.4071L136.955 18.8017ZM111.185 33.4295L110.664 34.5466L111.185 33.4295ZM113.434 33.0769L112.588 32.1807L113.434 33.0769ZM70.5953 32.6588L70.1382 31.5142L70.5953 32.6588ZM130.238 47.5305L131.339 48.0858L130.238 47.5305ZM130.329 49.5373L131.385 48.9003L130.329 49.5373ZM51.828 46.1464L50.7183 46.683L51.828 46.1464ZM51.7614 48.0568L50.6827 47.4604L51.7614 48.0568ZM44.6277 18.4071C43.2966 22.3462 43.9538 27.5424 45.3043 32.5542C46.6704 37.6235 48.8159 42.7489 50.7183 46.683L52.9376 45.6098C51.075 41.7581 48.9971 36.7834 47.6845 31.9128C46.3565 26.9847 45.88 22.4015 46.9631 19.1962L44.6277 18.4071ZM69.2952 31.3662C63.6101 26.0474 58.2478 21.5198 54.0865 18.8686C52.0305 17.5586 50.1363 16.6195 48.5761 16.3482C47.7841 16.2105 46.9534 16.2222 46.2094 16.5681C45.423 16.9337 44.9028 17.593 44.6277 18.4071L46.9631 19.1962C47.0585 18.9141 47.1695 18.8402 47.2486 18.8034C47.37 18.747 47.6387 18.6873 48.1538 18.7769C49.2077 18.9601 50.7574 19.6704 52.762 20.9476C56.7219 23.4706 61.9476 27.8677 67.6111 33.1663L69.2952 31.3662ZM91.3856 27.4327C84.7403 27.4327 77.1438 28.7162 70.1382 31.5142L71.0525 33.8035C77.7486 31.1291 85.0328 29.8978 91.3856 29.8978V27.4327ZM111.705 32.3123C105.039 29.2043 97.8258 27.4327 91.3856 27.4327V29.8978C97.4049 29.8978 104.263 31.5626 110.664 34.5466L111.705 32.3123ZM138.122 18.4071C137.839 17.5703 137.299 16.9007 136.484 16.5425C135.718 16.2057 134.864 16.2132 134.051 16.3708C132.443 16.6824 130.481 17.6841 128.344 19.0744C124.02 21.8865 118.454 26.6429 112.588 32.1807L114.281 33.9731C120.125 28.4556 125.559 23.8265 129.688 21.1409C131.777 19.7823 133.405 19.0071 134.52 18.7909C135.068 18.6847 135.359 18.7407 135.492 18.7992C135.577 18.8364 135.69 18.9091 135.787 19.1962L138.122 18.4071ZM131.339 48.0858C133.283 44.233 135.637 38.8726 137.184 33.4934C138.712 28.1798 139.533 22.5824 138.122 18.4071L135.787 19.1962C136.939 22.6055 136.325 27.5625 134.815 32.8122C133.324 37.9962 131.039 43.208 129.138 46.9753L131.339 48.0858ZM135.265 62.1909C135.265 57.4008 133.814 52.9244 131.385 48.9003L129.274 50.1743C131.508 53.8742 132.8 57.9154 132.8 62.1909H135.265ZM91.3856 93.2513C100.505 93.2513 111.39 91.3971 120.044 86.621C128.747 81.8172 135.265 73.9971 135.265 62.1909H132.8C132.8 72.8836 126.979 79.9775 118.852 84.4628C110.675 88.976 100.238 90.7862 91.3856 90.7862V93.2513ZM47.0135 62.1909C47.0135 73.9765 53.6681 81.7936 62.4869 86.5993C71.26 91.3801 82.2653 93.2513 91.3856 93.2513V90.7862C82.5349 90.7862 71.9704 88.9598 63.6665 84.4347C55.4083 79.9346 49.4787 72.8378 49.4787 62.1909H47.0135ZM50.6827 47.4604C48.3628 51.6568 47.0135 56.5555 47.0135 62.1909H49.4787C49.4787 56.9652 50.7257 52.4778 52.8401 48.6531L50.6827 47.4604ZM110.664 34.5466C111.862 35.105 113.3 34.899 114.281 33.9731L112.588 32.1807C112.362 32.3944 112.012 32.4554 111.705 32.3123L110.664 34.5466ZM67.6111 33.1663C68.5443 34.0394 69.8907 34.2675 71.0525 33.8035L70.1382 31.5142C69.8389 31.6337 69.5108 31.5679 69.2952 31.3662L67.6111 33.1663ZM129.138 46.9753C128.616 48.0104 128.696 49.2163 129.274 50.1743L131.385 48.9003C131.224 48.6337 131.217 48.3277 131.339 48.0858L129.138 46.9753ZM50.7183 46.683C50.8295 46.9128 50.8259 47.2014 50.6827 47.4604L52.8401 48.6531C53.3506 47.7296 53.4147 46.5964 52.9376 45.6098L50.7183 46.683Z" fill="#4344C6"/>
<path d="M73.7589 63.7092C64.7657 59.0488 40.9149 51.4966 17.457 58.5702" stroke="#4344C6" stroke-width="1.81375" stroke-linecap="round"/>
<path d="M69.8286 67.4883C62.4728 65.0448 45.2372 62.7423 35.1406 73.0807" stroke="#4344C6" stroke-width="1.81375" stroke-linecap="round"/>
<path d="M108.308 63.7092C117.301 59.0488 141.152 51.4966 164.609 58.5702" stroke="#4344C6" stroke-width="1.81375" stroke-linecap="round"/>
<path d="M112.089 67.4881C119.445 65.0445 136.681 62.7421 146.777 73.0804" stroke="#4344C6" stroke-width="1.81375" stroke-linecap="round"/>
<path d="M71.4194 36.6366C72.4271 30.4648 70.7695 15.8087 56.0781 6.55859" stroke="#4344C6" stroke-width="1.81375" stroke-linecap="round"/>
<path d="M111.256 36.6366C110.249 30.4648 111.906 15.8087 126.598 6.55859" stroke="#4344C6" stroke-width="1.81375" stroke-linecap="round"/>
<path d="M76.9297 36.1078C78.1892 32.1529 79.9526 22.5047 76.9297 15.552" stroke="#4344C6" stroke-width="1.81375" stroke-linecap="round"/>
<path d="M105.207 36.1078C103.947 32.1529 102.184 22.5047 105.207 15.552" stroke="#4344C6" stroke-width="1.81375" stroke-linecap="round"/>
<path d="M95.4077 58.7365C95.4077 60.4895 92.2734 63.6337 90.5258 63.6337C88.7783 63.6337 85.7344 60.4895 85.7344 58.7365C85.7344 56.9836 88.7783 56.3787 90.5258 56.3787C92.2734 56.3787 95.4077 56.9836 95.4077 58.7365Z" fill="#191D5D"/>
<path d="M55.8831 43.0347L65.0628 36.1194C65.5775 35.7317 65.6993 35.0091 65.2666 34.5316C62.4266 31.3968 55.5983 27.382 52.171 26.0942C51.5745 25.8701 50.9459 26.228 50.8574 26.8591C50.2174 31.4235 52.6998 38.9409 54.072 42.5316C54.3529 43.2666 55.2546 43.5082 55.8831 43.0347Z" fill="#D5FAFC"/>
<path d="M127.011 43.0347L117.832 36.1194C117.317 35.7317 117.195 35.0091 117.628 34.5316C120.468 31.3968 127.296 27.382 130.724 26.0942C131.32 25.8701 131.949 26.228 132.037 26.8591C132.677 31.4235 130.195 38.9409 128.823 42.5316C128.542 43.2666 127.64 43.5082 127.011 43.0347Z" fill="#D5FAFC"/>
<path fill-rule="evenodd" clip-rule="evenodd" d="M90.6374 67.9196C90.7181 67.9072 90.7935 67.9624 90.8079 68.0428C91.0332 69.2968 91.7041 70.7521 92.7437 71.9982C93.8226 73.2913 95.2847 74.343 97.032 74.7192C100.483 75.4621 105.214 73.5894 110.465 65.2199C110.508 65.1507 110.601 65.1276 110.67 65.1708L110.838 65.2751C110.907 65.3183 110.927 65.4114 110.884 65.4806C105.597 73.906 100.693 76.0117 96.9282 75.2011C95.0496 74.7967 93.4972 73.6709 92.3651 72.314C91.6244 71.4261 91.0577 70.4324 90.6951 69.4632C90.6442 69.3273 90.438 69.3273 90.3871 69.4632C90.0245 70.4324 89.4578 71.4261 88.7171 72.314C87.585 73.6709 86.0326 74.7967 84.154 75.2012C80.3894 76.0117 75.485 73.906 70.1987 65.4806C70.1552 65.4114 70.1753 65.3183 70.2446 65.2751L70.412 65.1708C70.4813 65.1276 70.5737 65.1508 70.6171 65.22C75.8686 73.5894 80.5996 75.4621 84.0502 74.7192C85.7975 74.343 87.2596 73.2913 88.3385 71.9982C89.3781 70.7521 90.049 69.2968 90.2743 68.0429C90.2887 67.9625 90.364 67.9072 90.4448 67.9196L90.5185 67.9309C90.5334 67.9332 90.5486 67.9332 90.5635 67.9309L90.6374 67.9196Z" fill="#191D5D"/>
<path d="M92.7437 71.9982L92.1103 72.5266V72.5266L92.7437 71.9982ZM97.032 74.7192L97.2056 73.9127L97.032 74.7192ZM96.9282 75.2011L97.1018 74.3947H97.1018L96.9282 75.2011ZM92.3651 72.314L91.7317 72.8425V72.8425L92.3651 72.314ZM88.7171 72.314L89.3505 72.8425V72.8425L88.7171 72.314ZM84.154 75.2012L83.9804 74.3947L84.154 75.2012ZM84.0502 74.7192L83.8766 73.9128L84.0502 74.7192ZM88.3385 71.9982L88.9719 72.5267V72.5267L88.3385 71.9982ZM90.6951 69.4632L89.9225 69.7523L90.6951 69.4632ZM90.3871 69.4632L91.1597 69.7523L90.3871 69.4632ZM90.5185 67.9309L90.6439 67.1156L90.5185 67.9309ZM90.5635 67.9309L90.438 67.1156L90.5635 67.9309ZM110.838 65.2751L110.401 65.9752L110.838 65.2751ZM110.884 65.4806L110.185 65.0422V65.0422L110.884 65.4806ZM90.2743 68.0429L89.4624 67.897L90.2743 68.0429ZM110.465 65.2199L109.766 64.7815L110.465 65.2199ZM110.67 65.1708L110.234 65.8709L110.67 65.1708ZM90.8079 68.0428L91.6198 67.897L90.8079 68.0428ZM90.6374 67.9196L90.512 67.1043L90.6374 67.9196ZM93.3771 71.4697C92.4199 70.3224 91.8174 68.9965 91.6198 67.897L89.996 68.1887C90.249 69.5971 90.9883 71.1817 92.1103 72.5266L93.3771 71.4697ZM97.2056 73.9127C95.678 73.5838 94.367 72.6561 93.3771 71.4697L92.1103 72.5266C93.2782 73.9264 94.8914 75.1021 96.8583 75.5256L97.2056 73.9127ZM109.766 64.7815C104.572 73.0592 100.132 74.5427 97.2056 73.9127L96.8583 75.5256C100.834 76.3815 105.855 74.1195 111.164 65.6584L109.766 64.7815ZM111.274 64.575L111.107 64.4707L110.234 65.8709L110.401 65.9752L111.274 64.575ZM96.7546 76.0076C101.045 76.9312 106.239 74.4352 111.582 65.919L110.185 65.0422C104.955 73.3768 100.341 75.0921 97.1018 74.3947L96.7546 76.0076ZM91.7317 72.8425C92.9527 74.3059 94.6563 75.5558 96.7546 76.0076L97.1018 74.3947C95.443 74.0376 94.0416 73.0358 92.9985 71.7855L91.7317 72.8425ZM89.9225 69.7523C90.3178 70.8088 90.9316 71.8834 91.7317 72.8425L92.9985 71.7855C92.3172 70.9688 91.7976 70.056 91.4677 69.1741L89.9225 69.7523ZM89.6145 69.1741C89.2846 70.056 88.765 70.9689 88.0837 71.7856L89.3505 72.8425C90.1506 71.8834 90.7644 70.8088 91.1597 69.7523L89.6145 69.1741ZM88.0837 71.7856C87.0406 73.0358 85.6392 74.0376 83.9804 74.3947L84.3276 76.0076C86.4259 75.5559 88.1295 74.306 89.3505 72.8425L88.0837 71.7856ZM83.9804 74.3947C80.7411 75.0921 76.1269 73.3769 70.8974 65.0422L69.4999 65.919C74.8432 74.4352 80.0376 76.9312 84.3276 76.0076L83.9804 74.3947ZM70.6809 65.9752L70.8483 65.8709L69.9757 64.4707L69.8083 64.575L70.6809 65.9752ZM69.9184 65.6584C75.2274 74.1196 80.2486 76.3815 84.2239 75.5256L83.8766 73.9128C80.9507 74.5427 76.5098 73.0593 71.3159 64.7815L69.9184 65.6584ZM84.2239 75.5256C86.1908 75.1022 87.804 73.9265 88.9719 72.5267L87.7051 71.4697C86.7152 72.6562 85.4042 73.5839 83.8766 73.9128L84.2239 75.5256ZM88.9719 72.5267C90.0939 71.1818 90.8332 69.5971 91.0862 68.1887L89.4624 67.897C89.2648 68.9965 88.6623 70.3224 87.7051 71.4697L88.9719 72.5267ZM90.3194 68.7349L90.3931 68.7463L90.6439 67.1156L90.5702 67.1043L90.3194 68.7349ZM90.512 67.1043L90.438 67.1156L90.6889 68.7463L90.7628 68.7349L90.512 67.1043ZM70.8483 65.8709C70.5165 66.0777 70.1069 65.9588 69.9184 65.6584L71.3159 64.7815C71.0405 64.3427 70.4461 64.1776 69.9757 64.4707L70.8483 65.8709ZM70.8974 65.0422C71.0891 65.3477 71.011 65.7695 70.6809 65.9752L69.8083 64.575C69.3395 64.8672 69.2214 65.4752 69.4999 65.919L70.8974 65.0422ZM91.4677 69.1741C91.2993 68.7242 90.881 68.5364 90.5411 68.5364C90.2012 68.5364 89.7829 68.7242 89.6145 69.1741L91.1597 69.7523C91.0422 70.0663 90.7525 70.1862 90.5411 70.1862C90.3297 70.1862 90.04 70.0663 89.9225 69.7523L91.4677 69.1741ZM90.3931 68.7463C90.4911 68.7614 90.5909 68.7614 90.6889 68.7463L90.438 67.1156C90.5063 67.1051 90.5757 67.1051 90.6439 67.1156L90.3931 68.7463ZM110.401 65.9752C110.071 65.7694 109.993 65.3476 110.185 65.0422L111.582 65.919C111.861 65.4751 111.743 64.8671 111.274 64.575L110.401 65.9752ZM91.0862 68.1887C91.0237 68.5367 90.693 68.7924 90.3194 68.7349L90.5702 67.1043C90.0351 67.022 89.5538 67.3882 89.4624 67.897L91.0862 68.1887ZM111.164 65.6584C110.975 65.9588 110.566 66.0776 110.234 65.8709L111.107 64.4707C110.636 64.1775 110.042 64.3426 109.766 64.7815L111.164 65.6584ZM91.6198 67.897C91.5284 67.3882 91.0471 67.0219 90.512 67.1043L90.7628 68.7349C90.3892 68.7924 90.0585 68.5367 89.996 68.1887L91.6198 67.897Z" fill="#191D5D"/>
<path d="M114.148 46.488L112.581 42.8484L112.631 46.9101L114.148 46.488Z" fill="#4344C6" stroke="#191D5D" stroke-width="0.986046" stroke-miterlimit="10" stroke-linecap="round" stroke-linejoin="round"/>
<path d="M103.453 49.065L101.119 45.8615L102.068 49.8128L103.453 49.065Z" fill="#4344C6" stroke="#191D5D" stroke-width="0.986046" stroke-miterlimit="10" stroke-linecap="round" stroke-linejoin="round"/>
<path d="M98.8906 59.8816L95.4635 57.8949L97.9249 61.1261L98.8906 59.8816Z" fill="#4344C6" stroke="#191D5D" stroke-width="0.986046" stroke-miterlimit="10" stroke-linecap="round" stroke-linejoin="round"/>
<path d="M122.096 55.8918L122.836 52.0011L120.604 55.3923L122.096 55.8918Z" fill="#4344C6" stroke="#191D5D" stroke-width="0.986046" stroke-miterlimit="10" stroke-linecap="round" stroke-linejoin="round"/>
<path d="M117.773 104.826C117.952 104.826 118.134 104.782 118.297 104.693L136.605 94.8231C136.914 94.6575 137.127 94.3512 137.174 94.0036C137.22 93.6559 137.102 93.3055 136.851 93.0599C129.097 85.4993 124.649 72.58 122.684 65.552C122.406 64.5559 122.091 63.5928 121.743 62.6795C123.186 60.2099 123.813 57.1719 123.272 55.1106C122.938 53.8413 122.24 53.2453 121.713 52.9721C121.294 52.7541 120.808 52.641 120.275 52.641C119.094 52.641 117.742 53.2039 116.746 54.109C116.605 54.2387 116.467 54.3766 116.338 54.5229C117.116 51.8215 117.061 48.8 116.153 46.8878C115.692 45.9165 115.016 45.2598 114.196 44.9838C113.901 44.8845 113.584 44.8348 113.256 44.8348C111.909 44.8348 110.358 45.7178 109.395 47.034C108.474 48.2951 108.062 50.0334 108.195 51.9898C107.155 49.3215 105.287 47.0534 103.217 47.0534C103.035 47.0534 102.853 47.0699 102.679 47.1058C100.935 47.4562 99.7486 49.4043 99.4809 51.1482C99.1112 53.5488 100.419 56.035 102.116 57.8175C101.366 57.4726 100.623 57.2933 99.9307 57.2933C99.4147 57.2933 98.929 57.3926 98.4903 57.5885C96.7354 58.3694 95.9158 60.5383 96.0372 62.1801C96.2939 65.6761 100.485 68.1127 103.645 68.6756C104.707 70.9603 106.319 73.8135 108.487 77.6517C108.918 78.416 109.373 79.219 109.853 80.0716C110.808 81.7686 112.088 85.6704 113.327 89.63C114.79 94.3071 115.921 99.1056 116.691 103.893C116.749 104.246 116.972 104.55 117.292 104.707C117.436 104.787 117.604 104.826 117.773 104.826Z" fill="#BEDCFC"/>
<path d="M113.259 45.9383C112.221 45.9383 111.015 46.6916 110.289 47.6877C109.086 49.3323 109.084 51.7964 109.627 53.9376C109.009 54.0784 108.397 54.3267 107.812 54.6634C107.218 51.319 105.107 48.1623 103.22 48.1623C103.112 48.1623 103.005 48.1734 102.897 48.1927C101.755 48.4217 100.792 49.8924 100.574 51.319C100.168 53.9597 102.257 56.7936 104.291 58.2698C103.965 58.841 103.7 59.4425 103.51 60.0551C102.351 59.0424 101.048 58.3995 99.9309 58.3995C99.5777 58.3995 99.2438 58.463 98.9375 58.6009C97.7427 59.1335 97.0364 60.7449 97.1357 62.1025C97.3592 65.1378 101.633 67.395 104.396 67.6709C105.612 70.422 107.712 74.0284 110.811 79.5333C111.793 81.2772 113.013 84.9471 114.376 89.3041C116.247 95.2836 117.232 100.336 117.776 103.722L136.084 93.8515C127.751 85.7253 123.225 71.5726 121.625 65.8497C121.291 64.6577 120.921 63.5678 120.518 62.5716C122.577 59.4067 123.062 54.92 121.205 53.9514C120.935 53.8107 120.618 53.7472 120.278 53.7472C119.354 53.7472 118.264 54.2246 117.491 54.9282C117.075 55.3063 116.741 55.7616 116.476 56.2665C115.99 55.8085 115.491 55.4222 114.989 55.0966C116.363 51.4349 115.908 46.7247 113.846 46.0321C113.659 45.9687 113.463 45.9383 113.259 45.9383ZM113.259 43.7308C113.708 43.7308 114.142 43.7998 114.55 43.9378C115.323 44.1972 116.401 44.8373 117.152 46.4157C117.856 47.8974 118.109 49.9532 117.916 52.0585C118.689 51.7219 119.503 51.5398 120.278 51.5398C120.99 51.5398 121.644 51.6915 122.226 51.9951C122.952 52.3731 123.907 53.1705 124.346 54.8317C124.922 57.0226 124.354 60.1517 122.96 62.7731C123.25 63.5705 123.515 64.4011 123.752 65.2565C125.309 70.8276 129.776 84.616 137.626 92.2704C138.128 92.7616 138.369 93.4625 138.272 94.1578C138.175 94.8532 137.75 95.4602 137.132 95.7941L118.824 105.664C118.499 105.841 118.137 105.929 117.776 105.929C117.442 105.929 117.108 105.855 116.799 105.7C116.159 105.383 115.709 104.776 115.596 104.069C114.837 99.3343 113.717 94.5883 112.271 89.9609C111.048 86.0564 109.796 82.2209 108.888 80.6122C108.408 79.7623 107.955 78.9566 107.522 78.1923C105.496 74.6079 103.954 71.8761 102.878 69.6438C101.41 69.2989 99.8702 68.6284 98.5733 67.7454C96.3769 66.2554 95.0827 64.3073 94.9337 62.2598C94.782 60.1903 95.8002 57.5772 98.038 56.5783C98.5016 56.3714 99.001 56.2472 99.5253 56.2031C98.6119 54.6026 98.1097 52.7898 98.3912 50.9769C98.7168 48.8549 100.221 46.4709 102.464 46.0211C102.712 45.9714 102.966 45.9466 103.22 45.9466C104.834 45.9466 106.308 46.951 107.48 48.4548C107.721 47.6877 108.063 46.9869 108.507 46.3798C109.685 44.7711 111.548 43.7308 113.259 43.7308Z" fill="#4344C6"/>
<path d="M66.9961 46.488L68.5634 42.8484L68.5137 46.9101L66.9961 46.488Z" fill="#4344C6" stroke="#191D5D" stroke-width="0.986046" stroke-miterlimit="10" stroke-linecap="round" stroke-linejoin="round"/>
<path d="M77.6992 49.065L80.0336 45.8615L79.0844 49.8128L77.6992 49.065Z" fill="#4344C6" stroke="#191D5D" stroke-width="0.986046" stroke-miterlimit="10" stroke-linecap="round" stroke-linejoin="round"/>
<path d="M82.2539 59.8816L85.681 57.8949L83.2197 61.1261L82.2539 59.8816Z" fill="#4344C6" stroke="#191D5D" stroke-width="0.986046" stroke-miterlimit="10" stroke-linecap="round" stroke-linejoin="round"/>
<path d="M59.052 55.8918L58.3125 52.0011L60.5448 55.3923L59.052 55.8918Z" fill="#4344C6" stroke="#191D5D" stroke-width="0.986046" stroke-miterlimit="10" stroke-linecap="round" stroke-linejoin="round"/>
<path d="M63.368 104.826C63.1887 104.826 63.0066 104.782 62.8438 104.693L44.5355 94.8231C44.2265 94.6575 44.014 94.3512 43.9671 94.0036C43.9202 93.6559 44.0388 93.3055 44.2899 93.0599C52.0437 85.4993 56.4918 72.58 58.4564 65.552C58.7351 64.5559 59.0497 63.5928 59.3973 62.6795C57.9542 60.2099 57.3278 57.1719 57.8687 55.1106C58.2025 53.8413 58.9007 53.2453 59.4277 52.9721C59.8471 52.7541 60.3328 52.641 60.8653 52.641C62.0463 52.641 63.3984 53.2039 64.3945 54.109C64.5352 54.2387 64.6732 54.3766 64.8029 54.5229C64.0248 51.8215 64.0799 48.8 64.9878 46.8878C65.4486 45.9165 66.1246 45.2598 66.9441 44.9838C67.2394 44.8845 67.5567 44.8348 67.8851 44.8348C69.2316 44.8348 70.7824 45.7178 71.7454 47.034C72.667 48.2951 73.0782 50.0334 72.9457 51.9898C73.986 49.3215 75.8541 47.0534 77.9236 47.0534C78.1057 47.0534 78.2878 47.0699 78.4616 47.1058C80.2055 47.4562 81.3921 49.4043 81.6597 51.1482C82.0295 53.5488 80.7215 56.035 79.0245 57.8175C79.7751 57.4726 80.5174 57.2933 81.21 57.2933C81.7259 57.2933 82.2116 57.3926 82.6503 57.5885C84.4053 58.3694 85.2248 60.5383 85.1034 62.1801C84.8468 65.6761 80.6553 68.1127 77.4959 68.6756C76.4335 70.9603 74.8221 73.8135 72.6532 77.6517C72.2228 78.416 71.7675 79.219 71.2874 80.0716C70.3326 81.7686 69.0523 85.6704 67.8133 89.63C66.3509 94.3071 65.2195 99.1056 64.4497 103.893C64.3917 104.246 64.1682 104.55 63.8482 104.707C63.7047 104.787 63.5364 104.826 63.368 104.826Z" fill="#BEDCFC"/>
<path d="M67.886 45.9383C68.9235 45.9383 70.1293 46.6916 70.8551 47.6877C72.0581 49.3323 72.0609 51.7964 71.5173 53.9376C72.1354 54.0784 72.748 54.3267 73.3329 54.6634C73.9262 51.319 76.0371 48.1623 77.9245 48.1623C78.0321 48.1623 78.1397 48.1734 78.2473 48.1927C79.3897 48.4217 80.3527 49.8924 80.5707 51.319C80.9763 53.9597 78.8875 56.7936 76.8539 58.2698C77.1795 58.841 77.4444 59.4425 77.6348 60.0551C78.7937 59.0424 80.0961 58.3995 81.2136 58.3995C81.5668 58.3995 81.9007 58.463 82.207 58.6009C83.4018 59.1335 84.1082 60.7449 84.0088 62.1025C83.7853 65.1378 79.5111 67.395 76.749 67.6709C75.5321 70.422 73.4323 74.0284 70.3335 79.5333C69.3512 81.2772 68.1316 84.9471 66.7685 89.3041C64.8976 95.2836 63.9125 100.336 63.369 103.722L45.0607 93.8515C53.3939 85.7253 57.9193 71.5726 59.5197 65.8497C59.8535 64.6577 60.2233 63.5678 60.6262 62.5716C58.5677 59.4067 58.0821 54.92 59.9391 53.9514C60.2095 53.8107 60.5268 53.7472 60.8662 53.7472C61.7906 53.7472 62.8806 54.2246 63.6532 54.9282C64.0698 55.3063 64.4037 55.7616 64.6686 56.2665C65.1543 55.8085 65.6537 55.4222 66.1559 55.0966C64.7817 51.4349 65.237 46.7247 67.2983 46.0321C67.4859 45.9687 67.6818 45.9383 67.886 45.9383ZM67.886 43.7308C67.4362 43.7308 67.003 43.7998 66.5946 43.9378C65.822 44.1972 64.7431 44.8373 63.9926 46.4157C63.2889 47.8974 63.0351 49.9532 63.2282 52.0585C62.4556 51.7219 61.6416 51.5398 60.8662 51.5398C60.1543 51.5398 59.5004 51.6915 58.9181 51.9951C58.1924 52.3731 57.2377 53.1705 56.799 54.8317C56.2223 57.0226 56.7907 60.1517 58.1842 62.7731C57.8944 63.5705 57.6295 64.4011 57.3922 65.2565C55.836 70.8276 51.3686 84.616 43.5182 92.2704C43.016 92.7616 42.776 93.4625 42.8726 94.1578C42.9691 94.8532 43.3941 95.4602 44.0122 95.7941L62.3204 105.664C62.646 105.841 63.0075 105.929 63.369 105.929C63.7028 105.929 64.0367 105.855 64.3458 105.7C64.9859 105.383 65.4357 104.776 65.5488 104.069C66.3077 99.3343 67.428 94.5883 68.8738 89.9609C70.0962 86.0564 71.349 82.2209 72.2568 80.6122C72.7369 79.7623 73.1895 78.9566 73.6227 78.1923C75.648 74.6079 77.1905 71.8761 78.2666 69.6438C79.7346 69.2989 81.2743 68.6284 82.5712 67.7454C84.7677 66.2554 86.0618 64.3073 86.2108 62.2598C86.3626 60.1903 85.3444 57.5772 83.1065 56.5783C82.643 56.3714 82.1435 56.2472 81.6193 56.2031C82.5326 54.6026 83.0348 52.7898 82.7533 50.9769C82.4277 48.8549 80.9239 46.4709 78.6805 46.0211C78.4322 45.9714 78.1783 45.9466 77.9245 45.9466C76.3103 45.9466 74.8368 46.951 73.6641 48.4548C73.424 47.6877 73.0818 46.9869 72.6376 46.3798C71.4594 44.7711 69.5968 43.7308 67.886 43.7308Z" fill="#4344C6"/>
<path d="M88.1684 91.5257C88.3425 91.849 88.4336 92.2104 88.4336 92.5776L88.4336 93.0895C88.4336 93.9777 87.9039 94.7803 87.0872 95.1294L75.7259 99.9869C74.2621 100.613 72.6351 99.5389 72.6351 97.947L72.6351 86.2159C72.6351 84.5916 74.323 83.518 75.7941 84.2064L86.4033 89.1715C86.8351 89.3735 87.1903 89.7093 87.4164 90.1291L88.1684 91.5257Z" fill="#191D5D"/>
<path d="M92.5972 91.5257C92.4232 91.849 92.332 92.2104 92.332 92.5776L92.332 93.0895C92.332 93.9777 92.8618 94.7803 93.6785 95.1294L105.04 99.9869C106.504 100.613 108.131 99.5389 108.131 97.947L108.131 86.2159C108.131 84.5916 106.443 83.518 104.972 84.2064L94.3623 89.1715C93.9305 89.3735 93.5753 89.7093 93.3493 90.1291L92.5972 91.5257Z" fill="#191D5D"/>
<path d="M93.5099 92.2131C93.5099 94.2237 92.0444 95.7239 90.3892 95.7239C88.7339 95.7239 87.2685 94.2237 87.2685 92.2131C87.2685 90.2025 88.7339 88.7023 90.3892 88.7023C92.0444 88.7023 93.5099 90.2025 93.5099 92.2131Z" fill="#828CFC" stroke="#191D5D" stroke-width="1.56035"/>
</svg>
