<svg width="204" height="111" viewBox="0 0 204 111" fill="none" xmlns="http://www.w3.org/2000/svg">
<path fill-rule="evenodd" clip-rule="evenodd" d="M-216 42.4657L-192.833 54.3029C-169.667 66.14 -123.333 89.8143 -77 83.8957C-30.6667 77.9772 15.6667 42.4657 62 21.7507C108.333 1.03575 154.667 -4.88282 201 3.99503C247.333 12.8729 293.667 36.5472 316.833 48.3843L340 60.2214V149H316.833C293.667 149 247.333 149 201 149C154.667 149 108.333 149 62 149C15.6667 149 -30.6667 149 -77 149C-123.333 149 -169.667 149 -192.833 149H-216V42.4657Z" fill="#828CFC"/>
<path fill-rule="evenodd" clip-rule="evenodd" d="M53.1665 56.2008C53.5626 55.4841 53.6035 54.6224 53.2469 53.8852C48.6822 44.4473 43.0039 29.3933 45.9312 20.7308C47.7276 15.4149 59.6418 24.1832 73.3998 37.055C74.0962 37.7065 75.1113 37.8846 75.9969 37.5309C84.3029 34.2128 93.3242 32.688 101.204 32.688C108.755 32.688 117.283 34.7704 125.203 38.4622C126.115 38.8873 127.198 38.7255 127.93 38.0347C142.124 24.6336 154.599 15.2811 156.441 20.7308C159.548 29.924 152.962 46.3159 148.301 55.5539C147.91 56.328 147.963 57.2445 148.411 57.9867C151.239 62.6694 152.902 67.8332 152.902 73.3294C152.902 100.604 122.989 109.488 101.204 109.488C79.4185 109.488 48.9081 100.523 48.9081 73.3294C48.9081 66.7487 50.4806 61.0614 53.1665 56.2008Z" fill="#BEDCFC"/>
<path d="M45.9312 20.7308L47.3467 21.2092V21.2092L45.9312 20.7308ZM156.441 20.7308L155.025 21.2092L156.441 20.7308ZM125.203 38.4622L124.571 39.8165L125.203 38.4622ZM127.93 38.0347L126.904 36.9483L127.93 38.0347ZM73.3998 37.055L72.379 38.1461L73.3998 37.055ZM148.301 55.5539L149.635 56.2269L148.301 55.5539ZM148.411 57.9867L147.132 58.759L148.411 57.9867ZM53.2469 53.8852L54.592 53.2347L53.2469 53.8852ZM53.1665 56.2008L51.8587 55.4782L53.1665 56.2008ZM44.5157 20.2525C42.9016 25.0286 43.6989 31.3293 45.3369 37.4061C46.9936 43.5526 49.5953 49.7669 51.9018 54.5358L54.592 53.2347C52.3338 48.5657 49.814 42.534 48.2222 36.6284C46.6116 30.6531 46.0334 25.0955 47.3467 21.2092L44.5157 20.2525ZM74.4206 35.9639C67.5285 29.5158 61.0276 24.0267 55.9828 20.8124C53.4901 19.2242 51.1937 18.0856 49.3023 17.7567C48.3422 17.5897 47.3351 17.6038 46.4331 18.0231C45.4798 18.4663 44.8492 19.2656 44.5157 20.2525L47.3467 21.2092C47.4623 20.8671 47.5969 20.7775 47.6928 20.733C47.84 20.6646 48.1658 20.5922 48.7903 20.7008C50.0679 20.923 51.9468 21.7843 54.377 23.3326C59.1778 26.3915 65.513 31.7224 72.379 38.1461L74.4206 35.9639ZM101.204 31.1939C93.1469 31.1939 83.9363 32.7503 75.4426 36.1433L76.5512 38.9184C84.6696 35.6753 93.5015 34.1822 101.204 34.1822V31.1939ZM125.834 37.1079C117.753 33.341 109.01 31.1939 101.204 31.1939V34.1822C108.5 34.1822 116.813 36.1998 124.571 39.8165L125.834 37.1079ZM157.856 20.2525C157.514 19.2381 156.858 18.4264 155.871 17.9922C154.942 17.5839 153.907 17.593 152.921 17.784C150.972 18.1617 148.594 19.3759 146.003 21.0611C140.762 24.4699 134.014 30.2354 126.904 36.9483L128.956 39.1212C136.04 32.4329 142.627 26.8216 147.632 23.5663C150.164 21.9194 152.138 20.9798 153.489 20.7178C154.154 20.589 154.506 20.6569 154.668 20.7278C154.77 20.7729 154.908 20.8611 155.025 21.2092L157.856 20.2525ZM149.635 56.2269C151.991 51.5561 154.845 45.0586 156.72 38.5384C158.572 32.0978 159.567 25.3134 157.856 20.2525L155.025 21.2092C156.422 25.3415 155.677 31.3496 153.848 37.7127C152.041 43.9963 149.271 50.3136 146.967 54.8808L149.635 56.2269ZM154.396 73.3294C154.396 67.5213 152.637 62.0936 149.691 57.2144L147.132 58.759C149.841 63.2452 151.408 68.1452 151.408 73.3294H154.396ZM101.204 110.982C112.259 110.982 125.455 108.735 135.945 102.945C146.496 97.1215 154.396 87.6415 154.396 73.3294H151.408C151.408 86.2917 144.352 94.8912 134.501 100.329C124.588 105.8 111.935 107.994 101.204 107.994V110.982ZM47.4139 73.3294C47.4139 87.6166 55.4809 97.0929 66.1715 102.919C76.8067 108.714 90.1478 110.982 101.204 110.982V107.994C90.4747 107.994 77.6678 105.78 67.6014 100.295C57.5905 94.8393 50.4023 86.2361 50.4023 73.3294H47.4139ZM51.8587 55.4782C49.0483 60.5639 47.4139 66.5005 47.4139 73.3294H50.4023C50.4023 66.9969 51.9128 61.5588 54.4743 56.9235L51.8587 55.4782ZM124.571 39.8165C126.023 40.4933 127.767 40.2436 128.956 39.1212L126.904 36.9483C126.63 37.2074 126.206 37.2813 125.834 37.1079L124.571 39.8165ZM72.379 38.1461C73.5104 39.2046 75.1427 39.4811 76.5512 38.9184L75.4426 36.1433C75.0798 36.2882 74.682 36.2085 74.4206 35.9639L72.379 38.1461ZM146.967 54.8808C146.334 56.1358 146.431 57.5978 147.132 58.759L149.691 57.2144C149.495 56.8912 149.487 56.5202 149.635 56.2269L146.967 54.8808ZM51.9018 54.5358C52.0365 54.8144 52.0322 55.1641 51.8587 55.4782L54.4743 56.9235C55.0929 55.804 55.1704 54.4305 54.592 53.2347L51.9018 54.5358Z" fill="#4344C6"/>
<path d="M79.8505 75.1702C68.9485 69.5207 40.0354 60.3655 11.5986 68.9405" stroke="#4344C6" stroke-width="2.19872" stroke-linecap="round"/>
<path d="M75.0856 79.7511C66.1686 76.7889 45.2747 73.9978 33.0352 86.5305" stroke="#4344C6" stroke-width="2.19872" stroke-linecap="round"/>
<path d="M121.719 75.1702C132.621 69.5207 161.534 60.3655 189.971 68.9405" stroke="#4344C6" stroke-width="2.19872" stroke-linecap="round"/>
<path d="M126.3 79.7513C135.217 76.7892 156.111 73.998 168.35 86.5307" stroke="#4344C6" stroke-width="2.19872" stroke-linecap="round"/>
<path d="M77.0096 42.3515C78.2311 34.8697 76.2217 17.1029 58.4121 5.8894" stroke="#4344C6" stroke-width="2.19872" stroke-linecap="round"/>
<path d="M125.303 42.3515C124.081 34.8697 126.091 17.1029 143.9 5.8894" stroke="#4344C6" stroke-width="2.19872" stroke-linecap="round"/>
<path d="M83.6953 41.7105C85.2222 36.9161 87.3598 25.2202 83.6953 16.7917" stroke="#4344C6" stroke-width="2.19872" stroke-linecap="round"/>
<path d="M117.967 41.7105C116.44 36.9161 114.302 25.2202 117.967 16.7917" stroke="#4344C6" stroke-width="2.19872" stroke-linecap="round"/>
<path d="M106.084 69.1423C106.084 71.2673 102.284 75.0788 100.166 75.0788C98.0474 75.0788 94.3574 71.2673 94.3574 69.1423C94.3574 67.0172 98.0474 66.2839 100.166 66.2839C102.284 66.2839 106.084 67.0172 106.084 69.1423Z" fill="#191D5D"/>
<path d="M58.172 50.1076L69.3001 41.7245C69.924 41.2545 70.0716 40.3786 69.5472 39.7997C66.1044 35.9996 57.8267 31.1326 53.672 29.5715C52.9489 29.2997 52.1868 29.7337 52.0796 30.4987C51.3037 36.0319 54.313 45.1449 55.9765 49.4977C56.317 50.3887 57.4101 50.6816 58.172 50.1076Z" fill="#D5FAFC"/>
<path d="M144.404 50.1076L133.276 41.7245C132.652 41.2545 132.505 40.3786 133.029 39.7997C136.472 35.9996 144.749 31.1326 148.904 29.5715C149.627 29.2997 150.389 29.7337 150.497 30.4987C151.272 36.0319 148.263 45.1449 146.6 49.4977C146.259 50.3887 145.166 50.6816 144.404 50.1076Z" fill="#D5FAFC"/>
<path fill-rule="evenodd" clip-rule="evenodd" d="M100.072 80.274C99.974 80.2589 99.8826 80.326 99.8651 80.4234C99.592 81.9435 98.7788 83.7077 97.5185 85.2183C96.2106 86.7859 94.4381 88.0608 92.32 88.5168C88.1371 89.4174 82.4019 87.1472 76.0358 77.0013C75.9831 76.9175 75.8711 76.8894 75.7871 76.9418L75.5842 77.0682C75.5001 77.1206 75.4758 77.2335 75.5285 77.3173C81.9369 87.531 87.8822 90.0836 92.4458 89.1011C94.7231 88.6108 96.6051 87.246 97.9774 85.6011C98.8766 84.5233 99.5642 83.3169 100.004 82.1405C100.065 81.9756 100.316 81.9756 100.377 82.1405C100.817 83.3169 101.504 84.5233 102.404 85.6011C103.776 87.246 105.658 88.6108 107.935 89.1011C112.499 90.0836 118.444 87.531 124.853 77.3173C124.905 77.2335 124.881 77.1206 124.797 77.0682L124.594 76.9418C124.51 76.8894 124.398 76.9175 124.345 77.0013C117.979 87.1472 112.244 89.4174 108.061 88.5168C105.943 88.0608 104.17 86.7859 102.863 85.2183C101.602 83.7077 100.789 81.9435 100.516 80.4234C100.498 80.326 100.407 80.2589 100.309 80.274L100.218 80.2881C100.2 80.2908 100.181 80.2908 100.163 80.2881L100.072 80.274Z" fill="#191D5D"/>
<path d="M97.5185 85.2183L96.7506 84.5776L97.5185 85.2183ZM92.32 88.5168L92.1096 87.5392L92.32 88.5168ZM92.4458 89.1011L92.2354 88.1235L92.4458 89.1011ZM97.9774 85.6011L97.2095 84.9605L97.9774 85.6011ZM102.404 85.6011L103.171 84.9605L102.404 85.6011ZM107.935 89.1011L108.146 88.1235L107.935 89.1011ZM108.061 88.5168L108.271 87.5392L108.061 88.5168ZM102.863 85.2183L103.63 84.5776L102.863 85.2183ZM124.594 76.9418L124.065 77.7905L124.594 76.9418ZM124.345 77.0013L125.192 77.5328L124.345 77.0013ZM124.853 77.3173L124.005 76.7859L124.853 77.3173ZM124.797 77.0682L124.268 77.9169L124.797 77.0682ZM100.004 82.1405L100.94 82.4905L100.004 82.1405ZM100.377 82.1405L99.4405 82.4905L100.377 82.1405ZM100.218 80.2881L100.37 81.2764L100.218 80.2881ZM100.163 80.2881L100.011 81.2764L100.163 80.2881ZM100.516 80.4234L99.5316 80.6002L100.516 80.4234ZM100.309 80.274L100.461 81.2624L100.309 80.274ZM99.8651 80.4234L100.849 80.6002L99.8651 80.4234ZM100.072 80.274L99.9198 81.2624L100.072 80.274ZM98.2863 85.8589C99.6465 84.2285 100.543 82.3076 100.849 80.6002L98.8809 80.2466C98.6414 81.5795 97.911 83.1868 96.7506 84.5776L98.2863 85.8589ZM92.5305 89.4944C94.9149 88.981 96.8706 87.5558 98.2863 85.8589L96.7506 84.5776C95.5507 86.0159 93.9614 87.1405 92.1096 87.5392L92.5305 89.4944ZM75.1887 77.5328C81.6246 87.7899 87.7115 90.5319 92.5305 89.4944L92.1096 87.5392C88.5626 88.3028 83.1792 86.5045 76.8828 76.4698L75.1887 77.5328ZM76.1131 77.9169L76.316 77.7905L75.2582 76.0931L75.0553 76.2195L76.1131 77.9169ZM92.2354 88.1235C88.3086 88.9689 82.7149 86.8895 76.3755 76.7859L74.6814 77.8488C81.1588 88.1725 87.4557 91.1983 92.6563 90.0787L92.2354 88.1235ZM97.2095 84.9605C95.9451 86.4761 94.2462 87.6905 92.2354 88.1235L92.6563 90.0787C95.2 89.531 97.2651 88.0159 98.7453 86.2418L97.2095 84.9605ZM99.067 81.7905C98.6671 82.8608 98.0367 83.9691 97.2095 84.9605L98.7453 86.2418C99.7165 85.0776 100.461 83.7729 100.94 82.4905L99.067 81.7905ZM99.4405 82.4905C99.9197 83.7729 100.664 85.0776 101.636 86.2418L103.171 84.9605C102.344 83.9691 101.714 82.8608 101.314 81.7905L99.4405 82.4905ZM101.636 86.2418C103.116 88.0159 105.181 89.531 107.725 90.0787L108.146 88.1235C106.135 87.6905 104.436 86.4761 103.171 84.9605L101.636 86.2418ZM107.725 90.0787C112.925 91.1983 119.222 88.1725 125.7 77.8488L124.005 76.7859C117.666 86.8895 112.072 88.9689 108.146 88.1235L107.725 90.0787ZM125.326 76.2195L125.123 76.0931L124.065 77.7905L124.268 77.9169L125.326 76.2195ZM123.498 76.4698C117.202 86.5045 111.818 88.3028 108.271 87.5392L107.85 89.4944C112.67 90.5319 118.756 87.7899 125.192 77.5328L123.498 76.4698ZM108.271 87.5392C106.42 87.1405 104.83 86.0159 103.63 84.5776L102.095 85.8589C103.51 87.5558 105.466 88.981 107.85 89.4944L108.271 87.5392ZM103.63 84.5776C102.47 83.1868 101.74 81.5795 101.5 80.2466L99.5316 80.6002C99.8383 82.3076 100.734 84.2285 102.095 85.8589L103.63 84.5776ZM100.157 79.2856L100.066 79.2997L100.37 81.2764L100.461 81.2624L100.157 79.2856ZM99.9198 81.2624L100.011 81.2764L100.315 79.2997L100.224 79.2856L99.9198 81.2624ZM125.123 76.0931C124.553 75.7377 123.832 75.9379 123.498 76.4698L125.192 77.5328C124.964 77.8971 124.467 78.0411 124.065 77.7905L125.123 76.0931ZM125.7 77.8488C126.037 77.3107 125.894 76.5737 125.326 76.2195L124.268 77.9169C123.868 77.6675 123.773 77.1562 124.005 76.7859L125.7 77.8488ZM100.94 82.4905C100.798 82.8716 100.447 83.0168 100.19 83.0168C99.9345 83.0168 99.5829 82.8716 99.4405 82.4905L101.314 81.7905C101.11 81.2445 100.602 81.0168 100.19 81.0168C99.7785 81.0168 99.271 81.2445 99.067 81.7905L100.94 82.4905ZM100.066 79.2997C100.148 79.287 100.233 79.287 100.315 79.2997L100.011 81.2764C100.13 81.2947 100.251 81.2947 100.37 81.2764L100.066 79.2997ZM75.0553 76.2195C74.487 76.5737 74.3438 77.3107 74.6814 77.8488L76.3755 76.7859C76.6079 77.1562 76.5133 77.6675 76.1131 77.9169L75.0553 76.2195ZM101.5 80.2466C101.389 79.6298 100.806 79.1858 100.157 79.2856L100.461 81.2624C100.008 81.332 99.6074 81.0221 99.5316 80.6002L101.5 80.2466ZM76.8828 76.4698C76.549 75.9379 75.8284 75.7377 75.2582 76.0931L76.316 77.7905C75.9138 78.0411 75.4172 77.8971 75.1887 77.5328L76.8828 76.4698ZM100.849 80.6002C100.774 81.0221 100.373 81.332 99.9198 81.2624L100.224 79.2856C99.5752 79.1858 98.9917 79.6298 98.8809 80.2466L100.849 80.6002Z" fill="#191D5D"/>
<path d="M128.801 54.2939L126.901 49.8818L126.961 54.8057L128.801 54.2939Z" fill="#4344C6" stroke="#191D5D" stroke-width="1.19533" stroke-miterlimit="10" stroke-linecap="round" stroke-linejoin="round"/>
<path d="M115.831 57.4182L113.001 53.5347L114.152 58.3247L115.831 57.4182Z" fill="#4344C6" stroke="#191D5D" stroke-width="1.19533" stroke-miterlimit="10" stroke-linecap="round" stroke-linejoin="round"/>
<path d="M110.306 70.5307L106.152 68.1223L109.135 72.0393L110.306 70.5307Z" fill="#4344C6" stroke="#191D5D" stroke-width="1.19533" stroke-miterlimit="10" stroke-linecap="round" stroke-linejoin="round"/>
<path d="M138.43 65.6938L139.327 60.9773L136.621 65.0883L138.43 65.6938Z" fill="#4344C6" stroke="#191D5D" stroke-width="1.19533" stroke-miterlimit="10" stroke-linecap="round" stroke-linejoin="round"/>
<path d="M133.195 125.014C133.413 125.014 133.633 124.961 133.831 124.854L156.025 112.889C156.399 112.688 156.657 112.317 156.714 111.895C156.771 111.474 156.627 111.049 156.323 110.751C146.923 101.586 141.531 85.9244 139.149 77.4046C138.811 76.1971 138.43 75.0297 138.009 73.9225C139.758 70.9287 140.517 67.2458 139.862 64.7471C139.457 63.2084 138.611 62.4859 137.972 62.1547C137.463 61.8905 136.875 61.7533 136.229 61.7533C134.797 61.7533 133.158 62.4357 131.951 63.5329C131.78 63.6901 131.613 63.8573 131.456 64.0346C132.399 60.7598 132.332 57.0971 131.232 54.779C130.673 53.6015 129.853 52.8054 128.86 52.4709C128.502 52.3505 128.117 52.2903 127.719 52.2903C126.087 52.2903 124.207 53.3607 123.04 54.9563C121.922 56.4849 121.424 58.5923 121.585 60.9639C120.323 57.7293 118.059 54.9797 115.55 54.9797C115.329 54.9797 115.109 54.9997 114.898 55.0432C112.784 55.468 111.345 57.8296 111.021 59.9437C110.573 62.8538 112.158 65.8677 114.215 68.0286C113.306 67.6104 112.406 67.393 111.566 67.393C110.941 67.393 110.352 67.5134 109.82 67.7509C107.693 68.6976 106.699 71.3267 106.846 73.317C107.158 77.5552 112.239 80.5088 116.069 81.1912C117.356 83.9609 119.31 87.4196 121.939 92.0725C122.461 92.9991 123.013 93.9725 123.595 95.0061C124.752 97.0633 126.304 101.793 127.806 106.593C129.579 112.263 130.951 118.08 131.884 123.884C131.954 124.312 132.225 124.68 132.613 124.87C132.787 124.967 132.991 125.014 133.195 125.014Z" fill="#BEDCFC"/>
<path d="M127.721 53.6282C126.463 53.6282 125.001 54.5413 124.122 55.7489C122.663 57.7425 122.66 60.7296 123.319 63.3253C122.57 63.4959 121.827 63.797 121.118 64.2051C120.399 60.1509 117.84 56.3242 115.552 56.3242C115.421 56.3242 115.291 56.3376 115.16 56.361C113.776 56.6387 112.608 58.4216 112.344 60.1509C111.852 63.3521 114.384 66.7874 116.85 68.577C116.455 69.2694 116.134 69.9986 115.903 70.7412C114.498 69.5136 112.919 68.7342 111.564 68.7342C111.136 68.7342 110.732 68.8112 110.36 68.9784C108.912 69.624 108.056 71.5775 108.176 73.2232C108.447 76.9028 113.628 79.639 116.977 79.9735C118.452 83.3085 120.997 87.6804 124.754 94.3537C125.945 96.4677 127.423 100.917 129.076 106.198C131.344 113.447 132.538 119.572 133.197 123.676L155.391 111.711C145.289 101.86 139.803 84.7033 137.863 77.7658C137.458 76.3207 137.01 74.9995 136.522 73.7919C139.017 69.9552 139.606 64.5162 137.354 63.3421C137.027 63.1715 136.642 63.0945 136.231 63.0945C135.11 63.0945 133.789 63.6732 132.852 64.5262C132.347 64.9845 131.942 65.5364 131.621 66.1485C131.032 65.5933 130.427 65.125 129.818 64.7303C131.484 60.2914 130.932 54.5815 128.433 53.7419C128.206 53.665 127.968 53.6282 127.721 53.6282ZM127.721 50.9521C128.266 50.9521 128.791 51.0358 129.286 51.203C130.223 51.5175 131.531 52.2935 132.441 54.2068C133.294 56.0031 133.601 58.4951 133.367 61.0474C134.304 60.6393 135.291 60.4185 136.231 60.4185C137.094 60.4185 137.886 60.6025 138.592 60.9705C139.472 61.4287 140.629 62.3954 141.161 64.4091C141.86 67.0651 141.171 70.8583 139.482 74.0361C139.833 75.0028 140.154 76.0096 140.442 77.0466C142.329 83.8002 147.744 100.515 157.261 109.794C157.869 110.39 158.16 111.239 158.043 112.082C157.926 112.925 157.411 113.661 156.662 114.066L134.468 126.031C134.073 126.245 133.635 126.352 133.197 126.352C132.792 126.352 132.387 126.262 132.013 126.074C131.236 125.69 130.691 124.954 130.554 124.098C129.634 118.357 128.276 112.604 126.523 106.994C125.042 102.261 123.523 97.6117 122.422 95.6616C121.84 94.6313 121.292 93.6546 120.767 92.728C118.311 88.3828 116.441 85.0713 115.137 82.3652C113.357 81.947 111.491 81.1342 109.919 80.0638C107.256 78.2575 105.687 75.8959 105.507 73.4139C105.323 70.9052 106.557 67.7374 109.27 66.5265C109.832 66.2756 110.437 66.1251 111.073 66.0716C109.966 64.1315 109.357 61.9338 109.698 59.7362C110.093 57.1638 111.916 54.2737 114.635 53.7285C114.936 53.6683 115.244 53.6382 115.552 53.6382C117.509 53.6382 119.295 54.8558 120.716 56.6788C121.007 55.7489 121.422 54.8993 121.961 54.1634C123.389 52.2132 125.647 50.9521 127.721 50.9521Z" fill="#4344C6"/>
<path d="M71.6387 54.2939L73.5386 49.8818L73.4784 54.8057L71.6387 54.2939Z" fill="#4344C6" stroke="#191D5D" stroke-width="1.19533" stroke-miterlimit="10" stroke-linecap="round" stroke-linejoin="round"/>
<path d="M84.6072 57.4182L87.437 53.5347L86.2864 58.3247L84.6072 57.4182Z" fill="#4344C6" stroke="#191D5D" stroke-width="1.19533" stroke-miterlimit="10" stroke-linecap="round" stroke-linejoin="round"/>
<path d="M90.1335 70.5307L94.2881 68.1223L91.3043 72.0393L90.1335 70.5307Z" fill="#4344C6" stroke="#191D5D" stroke-width="1.19533" stroke-miterlimit="10" stroke-linecap="round" stroke-linejoin="round"/>
<path d="M62.0085 65.6938L61.1121 60.9773L63.8182 65.0883L62.0085 65.6938Z" fill="#4344C6" stroke="#191D5D" stroke-width="1.19533" stroke-miterlimit="10" stroke-linecap="round" stroke-linejoin="round"/>
<path d="M67.2427 125.014C67.0252 125.014 66.8045 124.961 66.6071 124.854L44.4129 112.889C44.0383 112.688 43.7807 112.317 43.7239 111.895C43.667 111.474 43.8108 111.049 44.1152 110.751C53.5147 101.586 58.9069 85.9244 61.2885 77.4046C61.6264 76.1971 62.0077 75.0297 62.4292 73.9225C60.6797 70.9287 59.9204 67.2458 60.576 64.7471C60.9808 63.2084 61.8271 62.4859 62.466 62.1547C62.9744 61.8905 63.5631 61.7533 64.2087 61.7533C65.6404 61.7533 67.2795 62.4357 68.487 63.5329C68.6576 63.6901 68.8249 63.8573 68.9821 64.0346C68.0388 60.7598 68.1057 57.0971 69.2062 54.779C69.7648 53.6015 70.5843 52.8054 71.5778 52.4709C71.9357 52.3505 72.3204 52.2903 72.7184 52.2903C74.3508 52.2903 76.2307 53.3607 77.3981 54.9563C78.5153 56.4849 79.0138 58.5923 78.8532 60.9639C80.1143 57.7293 82.3788 54.9797 84.8876 54.9797C85.1084 54.9797 85.3291 54.9997 85.5399 55.0432C87.6539 55.468 89.0923 57.8296 89.4167 59.9437C89.865 62.8538 88.2794 65.8677 86.2223 68.0286C87.1321 67.6104 88.0319 67.393 88.8715 67.393C89.497 67.393 90.0857 67.5134 90.6176 67.7509C92.745 68.6976 93.7385 71.3267 93.5913 73.317C93.2802 77.5552 88.1992 80.5088 84.3691 81.1912C83.0813 83.9609 81.1278 87.4196 78.4986 92.0725C77.9768 92.9991 77.4249 93.9725 76.8428 95.0061C75.6855 97.0633 74.1334 101.793 72.6315 106.593C70.8586 112.263 69.4872 118.08 68.5539 123.884C68.4836 124.312 68.2127 124.68 67.8247 124.87C67.6507 124.967 67.4467 125.014 67.2427 125.014Z" fill="#BEDCFC"/>
<path d="M72.7188 53.6282C73.9766 53.6282 75.4383 54.5413 76.3181 55.7489C77.7765 57.7425 77.7799 60.7296 77.1209 63.3253C77.8702 63.4959 78.6127 63.797 79.3219 64.2051C80.0411 60.1509 82.6 56.3242 84.888 56.3242C85.0184 56.3242 85.1489 56.3376 85.2794 56.361C86.6642 56.6387 87.8316 58.4216 88.0959 60.1509C88.5876 63.3521 86.0554 66.7874 83.5901 68.577C83.9848 69.2694 84.306 69.9986 84.5368 70.7412C85.9417 69.5136 87.5205 68.7342 88.8752 68.7342C89.3034 68.7342 89.7082 68.8112 90.0795 68.9784C91.5278 69.624 92.3842 71.5775 92.2637 73.2232C91.9928 76.9028 86.8114 79.639 83.463 79.9735C81.9879 83.3085 79.4423 87.6804 75.6859 94.3537C74.495 96.4677 73.0165 100.917 71.3641 106.198C69.0962 113.447 67.902 119.572 67.2431 123.676L45.0489 111.711C55.1508 101.86 60.6367 84.7033 62.5768 77.7658C62.9815 76.3207 63.4297 74.9995 63.9181 73.7919C61.4227 69.9552 60.834 64.5162 63.0852 63.3421C63.413 63.1715 63.7977 63.0945 64.2091 63.0945C65.3297 63.0945 66.651 63.6732 67.5876 64.5262C68.0927 64.9845 68.4974 65.5364 68.8186 66.1485C69.4073 65.5933 70.0127 65.125 70.6215 64.7303C68.9557 60.2914 69.5076 54.5815 72.0063 53.7419C72.2338 53.665 72.4713 53.6282 72.7188 53.6282ZM72.7188 50.9521C72.1736 50.9521 71.6484 51.0358 71.1534 51.203C70.2168 51.5175 68.9089 52.2935 67.999 54.2068C67.1461 56.0031 66.8383 58.4951 67.0725 61.0474C66.1359 60.6393 65.1491 60.4185 64.2091 60.4185C63.3461 60.4185 62.5533 60.6025 61.8475 60.9705C60.9678 61.4287 59.8104 62.3954 59.2786 64.4091C58.5795 67.0651 59.2686 70.8583 60.9578 74.0361C60.6066 75.0028 60.2854 76.0096 59.9978 77.0466C58.1112 83.8002 52.6956 100.515 43.179 109.794C42.5702 110.39 42.2792 111.239 42.3963 112.082C42.5134 112.925 43.0285 113.661 43.7778 114.066L65.972 126.031C66.3667 126.245 66.8049 126.352 67.2431 126.352C67.6478 126.352 68.0525 126.262 68.4272 126.074C69.2032 125.69 69.7485 124.954 69.8856 124.098C70.8055 118.357 72.1636 112.604 73.9164 106.994C75.3982 102.261 76.9168 97.6117 78.0173 95.6616C78.5994 94.6313 79.148 93.6546 79.6731 92.728C82.1284 88.3828 83.9982 85.0713 85.3028 82.3652C87.0823 81.947 88.9488 81.1342 90.521 80.0638C93.1836 78.2575 94.7524 75.8959 94.9331 73.4139C95.1171 70.9052 93.8827 67.7374 91.1699 66.5265C90.608 66.2756 90.0025 66.1251 89.367 66.0716C90.4742 64.1315 91.083 61.9338 90.7418 59.7362C90.347 57.1638 88.524 54.2737 85.8045 53.7285C85.5035 53.6683 85.1957 53.6382 84.888 53.6382C82.9312 53.6382 81.1449 54.8558 79.7233 56.6788C79.4323 55.7489 79.0175 54.8993 78.479 54.1634C77.0506 52.2132 74.7927 50.9521 72.7188 50.9521Z" fill="#4344C6"/>
<path d="M97.3191 108.891C97.5302 109.283 97.6406 109.721 97.6406 110.166L97.6406 110.787C97.6406 111.864 96.9985 112.837 96.0084 113.26L82.2357 119.148C80.4612 119.907 78.4889 118.605 78.4889 116.675L78.4889 102.454C78.4889 100.485 80.535 99.1839 82.3184 100.019L95.1794 106.037C95.7029 106.282 96.1335 106.689 96.4075 107.198L97.3191 108.891Z" fill="#191D5D"/>
<path d="M102.692 108.891C102.481 109.283 102.37 109.721 102.37 110.166L102.37 110.787C102.37 111.864 103.012 112.837 104.002 113.26L117.775 119.148C119.55 119.907 121.522 118.605 121.522 116.675L121.522 102.454C121.522 100.485 119.476 99.1839 117.692 100.019L104.831 106.037C104.308 106.282 103.877 106.689 103.603 107.198L102.692 108.891Z" fill="#191D5D"/>
<path d="M103.788 109.725C103.788 112.162 102.012 113.981 100.005 113.981C97.9987 113.981 96.2221 112.162 96.2221 109.725C96.2221 107.287 97.9987 105.469 100.005 105.469C102.012 105.469 103.788 107.287 103.788 109.725Z" fill="#828CFC" stroke="#191D5D" stroke-width="1.89153"/>
</svg>
