<svg width="332" height="128" viewBox="0 0 332 128" fill="none" xmlns="http://www.w3.org/2000/svg">
<path fill-rule="evenodd" clip-rule="evenodd" d="M-152 42.4657L-128.833 54.3029C-105.667 66.14 -59.3333 89.8143 -13 83.8957C33.3333 77.9772 79.6667 42.4657 126 21.7507C172.333 1.03575 218.667 -4.88282 265 3.99503C311.333 12.8729 357.667 36.5472 380.833 48.3843L404 60.2214V149H380.833C357.667 149 311.333 149 265 149C218.667 149 172.333 149 126 149C79.6667 149 33.3333 149 -13 149C-59.3333 149 -105.667 149 -128.833 149H-152V42.4657Z" fill="#828CFC"/>
<path fill-rule="evenodd" clip-rule="evenodd" d="M109.172 66.2033C109.634 65.3679 109.682 64.3636 109.266 63.5042C103.946 52.5038 97.3293 34.9604 100.741 24.865C102.835 18.6693 116.72 28.8884 132.755 43.8904C133.567 44.6498 134.75 44.8574 135.782 44.4451C145.463 40.5784 155.976 38.8016 165.16 38.8016C173.962 38.8016 183.902 41.2291 193.134 45.5327C194.197 46.0283 195.46 45.8397 196.312 45.0346C212.857 29.4144 227.398 18.513 229.544 24.865C233.166 35.5812 225.488 54.6895 220.055 65.456C219.6 66.3582 219.661 67.4263 220.184 68.2914C223.478 73.7483 225.416 79.7658 225.416 86.1705C225.416 117.96 190.551 128.315 165.16 128.315C139.768 128.315 104.207 117.866 104.207 86.1705C104.207 78.499 106.041 71.8691 109.172 66.2033Z" fill="#BEDCFC"/>
<path d="M100.741 24.865L99.0911 24.3075L100.741 24.865ZM229.544 24.865L231.194 24.3075L229.544 24.865ZM193.134 45.5327L193.869 43.9543L193.134 45.5327ZM132.755 43.8904L133.945 42.6187L132.755 43.8904ZM135.782 44.4451L135.136 42.8278L135.782 44.4451ZM220.055 65.456L221.61 66.2405L220.055 65.456ZM109.266 63.5042L107.698 64.2625L109.266 63.5042ZM99.0911 24.3075C97.2101 29.8737 98.139 37.2165 100.048 44.2984C101.978 51.4616 105.01 58.704 107.698 64.2625L110.834 62.746C108.202 57.3041 105.266 50.2745 103.411 43.3921C101.534 36.4284 100.86 29.9517 102.391 25.4225L99.0911 24.3075ZM133.945 42.6187C125.913 35.1034 118.336 28.706 112.456 24.9598C109.551 23.1089 106.874 21.7819 104.67 21.3985C103.551 21.2039 102.377 21.2204 101.326 21.7091C100.215 22.2256 99.4798 23.1572 99.0911 24.3075L102.391 25.4225C102.525 25.0238 102.682 24.9195 102.794 24.8675C102.966 24.7878 103.345 24.7034 104.073 24.83C105.562 25.089 107.752 26.0927 110.584 27.8973C116.18 31.4622 123.563 37.6754 131.566 45.1621L133.945 42.6187ZM165.16 37.0601C155.77 37.0601 145.035 38.8738 135.136 42.8278L136.428 46.0623C145.89 42.283 156.183 40.5431 165.16 40.5431V37.0601ZM193.869 43.9543C184.45 39.563 174.259 37.0601 165.16 37.0601V40.5431C173.664 40.5431 183.354 42.8951 192.398 47.1112L193.869 43.9543ZM231.194 24.3075C230.795 23.1252 230.031 22.1791 228.879 21.673C227.797 21.1971 226.59 21.2077 225.441 21.4305C223.17 21.8707 220.398 23.286 217.378 25.2503C211.269 29.2236 203.404 35.9439 195.117 43.7683L197.508 46.3009C205.765 38.5051 213.443 31.9646 219.277 28.1701C222.228 26.2505 224.528 25.1552 226.104 24.8498C226.879 24.6997 227.29 24.7788 227.478 24.8615C227.597 24.9141 227.757 25.0168 227.894 25.4225L231.194 24.3075ZM221.61 66.2405C224.357 60.7969 227.683 53.2232 229.868 45.6229C232.027 38.1153 233.188 30.2067 231.194 24.3075L227.894 25.4225C229.522 30.2394 228.654 37.2431 226.521 44.6603C224.415 51.9849 221.186 59.3486 218.5 64.6715L221.61 66.2405ZM227.157 86.1705C227.157 79.4023 225.107 73.0773 221.675 67.3914L218.693 69.1915C221.849 74.4194 223.674 80.1294 223.674 86.1705H227.157ZM165.16 130.056C178.044 130.056 193.425 127.437 205.651 120.688C217.949 113.901 227.157 102.852 227.157 86.1705H223.674C223.674 101.279 215.451 111.302 203.968 117.639C192.415 124.016 177.667 126.573 165.16 126.573V130.056ZM102.466 86.1705C102.466 102.823 111.868 113.868 124.328 120.658C136.724 127.412 152.273 130.056 165.16 130.056V126.573C152.654 126.573 137.728 123.993 125.995 117.599C114.327 111.241 105.949 101.214 105.949 86.1705H102.466ZM107.648 65.3609C104.371 71.2892 102.466 78.2097 102.466 86.1705H105.949C105.949 78.7884 107.71 72.4491 110.696 67.0458L107.648 65.3609ZM192.398 47.1112C194.09 47.9001 196.122 47.6091 197.508 46.3009L195.117 43.7683C194.797 44.0703 194.303 44.1564 193.869 43.9543L192.398 47.1112ZM131.566 45.1621C132.884 46.3958 134.787 46.7181 136.428 46.0623L135.136 42.8278C134.714 42.9967 134.25 42.9037 133.945 42.6187L131.566 45.1621ZM218.5 64.6715C217.762 66.1341 217.876 67.838 218.693 69.1915L221.675 67.3914C221.447 67.0147 221.437 66.5823 221.61 66.2405L218.5 64.6715ZM107.698 64.2625C107.855 64.5872 107.85 64.9949 107.648 65.3609L110.696 67.0458C111.417 65.741 111.508 64.14 110.834 62.746L107.698 64.2625Z" fill="#4344C6"/>
<path d="M140.269 88.3159C127.562 81.7312 93.8628 71.0605 60.7188 81.0549" stroke="#4344C6" stroke-width="2.56268" stroke-linecap="round"/>
<path d="M134.714 93.6551C124.321 90.2026 99.9687 86.9494 85.7031 101.557" stroke="#4344C6" stroke-width="2.56268" stroke-linecap="round"/>
<path d="M189.075 88.3159C201.782 81.7312 235.481 71.0605 268.625 81.0549" stroke="#4344C6" stroke-width="2.56268" stroke-linecap="round"/>
<path d="M194.418 93.6551C204.812 90.2026 229.164 86.9494 243.43 101.557" stroke="#4344C6" stroke-width="2.56268" stroke-linecap="round"/>
<path d="M136.957 50.0642C138.381 41.344 136.039 20.6361 115.281 7.56641" stroke="#4344C6" stroke-width="2.56268" stroke-linecap="round"/>
<path d="M193.246 50.0642C191.822 41.344 194.164 20.6361 214.922 7.56641" stroke="#4344C6" stroke-width="2.56268" stroke-linecap="round"/>
<path d="M144.75 49.3172C146.53 43.7291 149.021 30.097 144.75 20.2734" stroke="#4344C6" stroke-width="2.56268" stroke-linecap="round"/>
<path d="M184.695 49.3172C182.916 43.7291 180.424 30.097 184.695 20.2734" stroke="#4344C6" stroke-width="2.56268" stroke-linecap="round"/>
<path d="M170.847 81.2903C170.847 83.7671 166.419 88.2095 163.95 88.2095C161.481 88.2095 157.18 83.7671 157.18 81.2903C157.18 78.8135 161.481 77.9588 163.95 77.9588C166.419 77.9588 170.847 78.8135 170.847 81.2903Z" fill="#191D5D"/>
<path d="M115.005 59.1045L127.975 49.3337C128.702 48.7859 128.874 47.765 128.263 47.0903C124.25 42.6611 114.603 36.9885 109.76 35.1689C108.917 34.8522 108.029 35.358 107.904 36.2497C107 42.6987 110.507 53.3203 112.446 58.3936C112.843 59.4321 114.117 59.7735 115.005 59.1045Z" fill="#D5FAFC"/>
<path d="M215.503 59.1045L202.533 49.3337C201.805 48.7859 201.633 47.765 202.245 47.0903C206.257 42.6611 215.905 36.9885 220.748 35.1689C221.591 34.8522 222.479 35.358 222.604 36.2497C223.508 42.6987 220.001 53.3203 218.062 58.3936C217.665 59.4321 216.391 59.7735 215.503 59.1045Z" fill="#D5FAFC"/>
<path fill-rule="evenodd" clip-rule="evenodd" d="M163.834 94.2646C163.72 94.2471 163.613 94.3252 163.593 94.4388C163.275 96.2105 162.327 98.2667 160.858 100.027C159.333 101.854 157.268 103.34 154.799 103.872C149.923 104.922 143.239 102.276 135.819 90.4502C135.758 90.3525 135.627 90.3198 135.529 90.3808L135.293 90.5282C135.195 90.5892 135.166 90.7208 135.228 90.8185C142.697 102.723 149.626 105.698 154.945 104.553C157.6 103.981 159.793 102.391 161.393 100.474C162.44 99.2179 163.241 97.8124 163.754 96.4419C163.826 96.2498 164.117 96.2498 164.189 96.4419C164.701 97.8124 165.502 99.2179 166.55 100.474C168.15 102.391 170.343 103.981 172.997 104.553C178.316 105.698 185.246 102.723 192.715 90.8185C192.776 90.7208 192.748 90.5892 192.65 90.5282L192.414 90.3808C192.316 90.3198 192.185 90.3525 192.124 90.4502C184.704 102.276 178.019 104.922 173.144 103.872C170.675 103.34 168.609 101.854 167.085 100.027C165.616 98.2667 164.668 96.2105 164.35 94.4388C164.329 94.3252 164.223 94.2471 164.109 94.2646L164.003 94.2809C163.982 94.2841 163.961 94.2841 163.94 94.2809L163.834 94.2646Z" fill="#191D5D"/>
<path d="M160.858 100.027L161.753 100.774V100.774L160.858 100.027ZM154.799 103.872L154.553 102.732L154.799 103.872ZM154.945 104.553L155.191 105.692L154.945 104.553ZM161.393 100.474L162.288 101.22V101.22L161.393 100.474ZM166.55 100.474L165.655 101.22L165.655 101.22L166.55 100.474ZM172.997 104.553L172.752 105.692H172.752L172.997 104.553ZM173.144 103.872L173.389 102.732L173.144 103.872ZM167.085 100.027L167.98 99.2807L167.085 100.027ZM192.414 90.3808L191.797 91.37L192.414 90.3808ZM192.124 90.4502L191.136 89.8307L192.124 90.4502ZM192.715 90.8185L193.702 91.438L192.715 90.8185ZM192.65 90.5282L193.267 89.539L192.65 90.5282ZM163.754 96.4419L162.662 96.0338L163.754 96.4419ZM164.003 94.2809L164.18 95.4329L164.003 94.2809ZM163.94 94.2809L163.762 95.4329L163.94 94.2809ZM164.35 94.4388L165.497 94.2327L164.35 94.4388ZM164.109 94.2646L164.286 95.4166L164.109 94.2646ZM163.593 94.4388L162.446 94.2327L163.593 94.4388ZM163.834 94.2646L163.657 95.4166L163.834 94.2646ZM161.753 100.774C163.338 98.8738 164.383 96.6348 164.74 94.6449L162.446 94.2327C162.167 95.7862 161.315 97.6596 159.963 99.2807L161.753 100.774ZM155.044 105.011C157.823 104.413 160.103 102.752 161.753 100.774L159.963 99.2807C158.564 100.957 156.712 102.268 154.553 102.732L155.044 105.011ZM134.832 91.0697C142.333 103.025 149.427 106.221 155.044 105.011L154.553 102.732C150.419 103.623 144.145 101.527 136.806 89.8307L134.832 91.0697ZM135.909 91.5173L136.145 91.37L134.913 89.3916L134.676 89.539L135.909 91.5173ZM154.7 103.413C150.123 104.399 143.604 101.975 136.215 90.1991L134.24 91.438C141.79 103.471 149.129 106.997 155.191 105.692L154.7 103.413ZM160.498 99.7269C159.024 101.493 157.044 102.909 154.7 103.413L155.191 105.692C158.155 105.054 160.562 103.288 162.288 101.22L160.498 99.7269ZM162.662 96.0338C162.196 97.2808 161.461 98.5719 160.498 99.7269L162.288 101.22C163.419 99.864 164.287 98.3441 164.845 96.85L162.662 96.0338ZM163.097 96.85C163.656 98.3441 164.524 99.864 165.655 101.22L167.445 99.7269C166.481 98.5719 165.747 97.2808 165.281 96.0338L163.097 96.85ZM165.655 101.22C167.38 103.288 169.787 105.054 172.752 105.692L173.243 103.413C170.899 102.909 168.919 101.493 167.445 99.7269L165.655 101.22ZM172.752 105.692C178.813 106.997 186.153 103.471 193.702 91.438L191.728 90.1991C184.339 101.975 177.819 104.399 173.243 103.413L172.752 105.692ZM193.267 89.539L193.03 89.3916L191.797 91.37L192.034 91.5173L193.267 89.539ZM191.136 89.8307C183.798 101.527 177.523 103.623 173.389 102.732L172.899 105.011C178.515 106.221 185.61 103.025 193.111 91.0697L191.136 89.8307ZM173.389 102.732C171.231 102.268 169.378 100.957 167.98 99.2807L166.19 100.774C167.84 102.752 170.12 104.413 172.899 105.011L173.389 102.732ZM167.98 99.2807C166.627 97.6596 165.776 95.7862 165.497 94.2327L163.203 94.6449C163.56 96.6348 164.605 98.8738 166.19 100.774L167.98 99.2807ZM163.932 93.1126L163.826 93.1289L164.18 95.4329L164.286 95.4166L163.932 93.1126ZM163.657 95.4166L163.762 95.4329L164.117 93.1289L164.011 93.1126L163.657 95.4166ZM193.03 89.3916C192.365 88.9774 191.526 89.2107 191.136 89.8307L193.111 91.0697C192.845 91.4942 192.266 91.6621 191.797 91.37L193.03 89.3916ZM193.702 91.438C194.096 90.8108 193.929 89.9518 193.267 89.539L192.034 91.5173C191.567 91.2266 191.457 90.6307 191.728 90.1991L193.702 91.438ZM164.845 96.85C164.679 97.294 164.27 97.4633 163.971 97.4633C163.673 97.4633 163.263 97.294 163.097 96.85L165.281 96.0338C165.043 95.3977 164.452 95.1323 163.971 95.1323C163.491 95.1323 162.9 95.3977 162.662 96.0338L164.845 96.85ZM163.826 93.1289C163.922 93.1141 164.02 93.1141 164.117 93.1289L163.762 95.4329C163.901 95.4542 164.042 95.4542 164.18 95.4329L163.826 93.1289ZM134.676 89.539C134.014 89.9518 133.847 90.8108 134.24 91.438L136.215 90.1991C136.486 90.6307 136.375 91.2266 135.909 91.5173L134.676 89.539ZM165.497 94.2327C165.368 93.5138 164.688 92.9963 163.932 93.1126L164.286 95.4166C163.758 95.4978 163.291 95.1365 163.203 94.6449L165.497 94.2327ZM136.806 89.8307C136.417 89.2107 135.577 88.9774 134.913 89.3916L136.145 91.37C135.677 91.6621 135.098 91.4942 134.832 91.0697L136.806 89.8307ZM164.74 94.6449C164.652 95.1365 164.184 95.4978 163.657 95.4166L164.011 93.1126C163.255 92.9963 162.575 93.5138 162.446 94.2327L164.74 94.6449Z" fill="#191D5D"/>
<path d="M197.328 63.9839L195.114 58.8414L195.184 64.5804L197.328 63.9839Z" fill="#4344C6" stroke="#191D5D" stroke-width="1.3932" stroke-miterlimit="10" stroke-linecap="round" stroke-linejoin="round"/>
<path d="M182.203 67.6252L178.905 63.0988L180.246 68.6818L182.203 67.6252Z" fill="#4344C6" stroke="#191D5D" stroke-width="1.3932" stroke-miterlimit="10" stroke-linecap="round" stroke-linejoin="round"/>
<path d="M175.766 82.9083L170.923 80.1013L174.401 84.6667L175.766 82.9083Z" fill="#4344C6" stroke="#191D5D" stroke-width="1.3932" stroke-miterlimit="10" stroke-linecap="round" stroke-linejoin="round"/>
<path d="M208.549 77.2707L209.594 71.7735L206.44 76.565L208.549 77.2707Z" fill="#4344C6" stroke="#191D5D" stroke-width="1.3932" stroke-miterlimit="10" stroke-linecap="round" stroke-linejoin="round"/>
<path d="M202.449 146.411C202.702 146.411 202.96 146.348 203.19 146.224L229.058 132.278C229.494 132.044 229.795 131.611 229.861 131.12C229.927 130.629 229.759 130.134 229.405 129.787C218.449 119.104 212.164 100.85 209.389 90.9202C208.995 89.5128 208.55 88.1521 208.059 86.8616C210.098 83.3723 210.983 79.0798 210.219 76.1674C209.747 74.374 208.761 73.5319 208.016 73.1459C207.424 72.8379 206.737 72.6781 205.985 72.6781C204.316 72.6781 202.406 73.4734 200.998 74.7522C200.8 74.9354 200.605 75.1304 200.421 75.337C201.521 71.5201 201.443 67.251 200.16 64.5492C199.509 63.1769 198.554 62.249 197.396 61.8591C196.979 61.7187 196.531 61.6486 196.067 61.6486C194.164 61.6486 191.973 62.8962 190.612 64.7558C189.31 66.5376 188.729 68.9938 188.916 71.758C187.447 67.9879 184.807 64.7831 181.883 64.7831C181.626 64.7831 181.368 64.8065 181.123 64.8572C178.659 65.3524 176.982 68.1049 176.604 70.5688C176.082 73.9607 177.93 77.4735 180.327 79.9921C179.267 79.5047 178.218 79.2513 177.24 79.2513C176.511 79.2513 175.824 79.3917 175.205 79.6685C172.725 80.7718 171.567 83.8362 171.739 86.156C172.101 91.0956 178.023 94.5382 182.487 95.3336C183.988 98.5617 186.265 102.593 189.33 108.016C189.938 109.096 190.581 110.231 191.259 111.435C192.608 113.833 194.417 119.346 196.168 124.941C198.234 131.549 199.833 138.329 200.921 145.093C201.002 145.592 201.318 146.021 201.77 146.243C201.973 146.356 202.211 146.411 202.449 146.411Z" fill="#BEDCFC"/>
<path d="M196.066 63.2078C194.6 63.2078 192.896 64.2722 191.871 65.6796C190.171 68.0033 190.167 71.4848 190.935 74.5103C190.062 74.7091 189.196 75.06 188.37 75.5356C187.532 70.8104 184.549 66.3502 181.882 66.3502C181.73 66.3502 181.578 66.3658 181.426 66.3931C179.812 66.7167 178.451 68.7947 178.143 70.8104C177.57 74.5414 180.522 78.5454 183.395 80.6313C182.935 81.4383 182.561 82.2882 182.292 83.1537C180.654 81.7229 178.814 80.8145 177.235 80.8145C176.736 80.8145 176.264 80.9042 175.831 81.0991C174.143 81.8516 173.145 84.1284 173.286 86.0466C173.601 90.3352 179.641 93.5244 183.543 93.9142C185.263 97.8013 188.229 102.897 192.608 110.675C193.996 113.139 195.719 118.324 197.645 124.48C200.288 132.929 201.68 140.067 202.448 144.851L228.316 130.905C216.542 119.424 210.148 99.427 207.887 91.3411C207.415 89.6568 206.893 88.1168 206.323 86.7094C209.232 82.2375 209.918 75.8982 207.294 74.5298C206.912 74.3309 206.464 74.2412 205.984 74.2412C204.678 74.2412 203.138 74.9157 202.047 75.9099C201.458 76.444 200.986 77.0873 200.612 77.8008C199.926 77.1536 199.22 76.6078 198.51 76.1477C200.452 70.9741 199.809 64.319 196.896 63.3404C196.631 63.2507 196.354 63.2078 196.066 63.2078ZM196.066 60.0889C196.701 60.0889 197.313 60.1863 197.89 60.3813C198.982 60.7478 200.507 61.6523 201.567 63.8823C202.561 65.9759 202.92 68.8805 202.647 71.8552C203.739 71.3796 204.889 71.1223 205.984 71.1223C206.99 71.1223 207.914 71.3367 208.737 71.7656C209.762 72.2997 211.111 73.4264 211.731 75.7735C212.546 78.869 211.743 83.2902 209.774 86.994C210.183 88.1207 210.557 89.2942 210.893 90.5028C213.092 98.3744 219.404 117.856 230.496 128.671C231.205 129.365 231.544 130.356 231.408 131.338C231.271 132.321 230.671 133.178 229.798 133.65L203.93 147.596C203.47 147.845 202.959 147.97 202.448 147.97C201.976 147.97 201.505 147.865 201.068 147.646C200.163 147.198 199.528 146.34 199.368 145.342C198.296 138.652 196.713 131.946 194.67 125.408C192.943 119.891 191.173 114.472 189.89 112.199C189.212 110.998 188.573 109.86 187.96 108.78C185.099 103.716 182.919 99.8559 181.399 96.7018C179.325 96.2145 177.149 95.2671 175.317 94.0195C172.213 91.9142 170.385 89.1617 170.174 86.2688C169.96 83.3448 171.399 79.6527 174.56 78.2413C175.215 77.9489 175.921 77.7735 176.662 77.7111C175.371 75.4499 174.662 72.8884 175.06 70.3269C175.52 67.3288 177.644 63.9603 180.814 63.3248C181.165 63.2546 181.524 63.2195 181.882 63.2195C184.163 63.2195 186.245 64.6387 187.902 66.7635C188.241 65.6796 188.725 64.6894 189.352 63.8316C191.017 61.5587 193.649 60.0889 196.066 60.0889Z" fill="#4344C6"/>
<path d="M130.711 63.9839L132.925 58.8414L132.855 64.5804L130.711 63.9839Z" fill="#4344C6" stroke="#191D5D" stroke-width="1.3932" stroke-miterlimit="10" stroke-linecap="round" stroke-linejoin="round"/>
<path d="M145.828 67.6252L149.126 63.0988L147.785 68.6818L145.828 67.6252Z" fill="#4344C6" stroke="#191D5D" stroke-width="1.3932" stroke-miterlimit="10" stroke-linecap="round" stroke-linejoin="round"/>
<path d="M152.266 82.9083L157.108 80.1013L153.63 84.6667L152.266 82.9083Z" fill="#4344C6" stroke="#191D5D" stroke-width="1.3932" stroke-miterlimit="10" stroke-linecap="round" stroke-linejoin="round"/>
<path d="M119.482 77.2707L118.438 71.7735L121.592 76.565L119.482 77.2707Z" fill="#4344C6" stroke="#191D5D" stroke-width="1.3932" stroke-miterlimit="10" stroke-linecap="round" stroke-linejoin="round"/>
<path d="M125.582 146.411C125.329 146.411 125.072 146.348 124.842 146.224L98.9736 132.278C98.5369 132.044 98.2367 131.611 98.1705 131.12C98.1042 130.629 98.2718 130.134 98.6266 129.787C109.582 119.104 115.867 100.85 118.643 90.9202C119.036 89.5128 119.481 88.1521 119.972 86.8616C117.933 83.3723 117.048 79.0798 117.812 76.1674C118.284 74.374 119.27 73.5319 120.015 73.1459C120.608 72.8379 121.294 72.6781 122.046 72.6781C123.715 72.6781 125.625 73.4734 127.033 74.7522C127.232 74.9354 127.427 75.1304 127.61 75.337C126.51 71.5201 126.588 67.251 127.871 64.5492C128.522 63.1769 129.477 62.249 130.635 61.8591C131.052 61.7187 131.501 61.6486 131.965 61.6486C133.867 61.6486 136.058 62.8962 137.419 64.7558C138.721 66.5376 139.302 68.9938 139.115 71.758C140.585 67.9879 143.224 64.7831 146.148 64.7831C146.406 64.7831 146.663 64.8065 146.908 64.8572C149.372 65.3524 151.049 68.1049 151.427 70.5688C151.95 73.9607 150.102 77.4735 147.704 79.9921C148.764 79.5047 149.813 79.2513 150.792 79.2513C151.521 79.2513 152.207 79.3917 152.827 79.6685C155.306 80.7718 156.464 83.8362 156.293 86.156C155.93 91.0956 150.008 94.5382 145.544 95.3336C144.043 98.5617 141.766 102.593 138.702 108.016C138.093 109.096 137.45 110.231 136.772 111.435C135.423 113.833 133.614 119.346 131.863 124.941C129.797 131.549 128.198 138.329 127.111 145.093C127.029 145.592 126.713 146.021 126.261 146.243C126.058 146.356 125.82 146.411 125.582 146.411Z" fill="#BEDCFC"/>
<path d="M131.965 63.2078C133.431 63.2078 135.135 64.2722 136.16 65.6796C137.86 68.0033 137.864 71.4848 137.096 74.5103C137.969 74.7091 138.835 75.06 139.661 75.5356C140.5 70.8104 143.482 66.3502 146.149 66.3502C146.301 66.3502 146.453 66.3658 146.605 66.3931C148.219 66.7167 149.58 68.7947 149.888 70.8104C150.461 74.5414 147.51 78.5454 144.636 80.6313C145.096 81.4383 145.471 82.2882 145.74 83.1537C147.377 81.7229 149.217 80.8145 150.796 80.8145C151.295 80.8145 151.767 80.9042 152.2 81.0991C153.888 81.8516 154.886 84.1284 154.746 86.0466C154.43 90.3352 148.391 93.5244 144.488 93.9142C142.769 97.8013 139.802 102.897 135.424 110.675C134.036 113.139 132.312 118.324 130.386 124.48C127.743 132.929 126.351 140.067 125.583 144.851L99.7151 130.905C111.489 119.424 117.883 99.427 120.144 91.3411C120.616 89.6568 121.139 88.1168 121.708 86.7094C118.799 82.2375 118.113 75.8982 120.737 74.5298C121.119 74.3309 121.567 74.2412 122.047 74.2412C123.353 74.2412 124.893 74.9157 125.985 75.9099C126.573 76.444 127.045 77.0873 127.419 77.8008C128.106 77.1536 128.811 76.6078 129.521 76.1477C127.579 70.9741 128.223 64.319 131.135 63.3404C131.4 63.2507 131.677 63.2078 131.965 63.2078ZM131.965 60.0889C131.33 60.0889 130.718 60.1863 130.141 60.3813C129.049 60.7478 127.525 61.6523 126.464 63.8823C125.47 65.9759 125.111 68.8805 125.384 71.8552C124.293 71.3796 123.143 71.1223 122.047 71.1223C121.041 71.1223 120.117 71.3367 119.295 71.7656C118.269 72.2997 116.92 73.4264 116.3 75.7735C115.485 78.869 116.289 83.2902 118.257 86.994C117.848 88.1207 117.474 89.2942 117.139 90.5028C114.94 98.3744 108.628 117.856 97.5357 128.671C96.8261 129.365 96.487 130.356 96.6234 131.338C96.7599 132.321 97.3603 133.178 98.2336 133.65L124.102 147.596C124.562 147.845 125.072 147.97 125.583 147.97C126.055 147.97 126.527 147.865 126.963 147.646C127.868 147.198 128.503 146.34 128.663 145.342C129.735 138.652 131.318 131.946 133.361 125.408C135.088 119.891 136.858 114.472 138.141 112.199C138.819 110.998 139.459 109.86 140.071 108.78C142.933 103.716 145.112 99.8559 146.632 96.7018C148.707 96.2145 150.882 95.2671 152.714 94.0195C155.818 91.9142 157.646 89.1617 157.857 86.2688C158.071 83.3448 156.633 79.6527 153.471 78.2413C152.816 77.9489 152.11 77.7735 151.369 77.7111C152.66 75.4499 153.369 72.8884 152.972 70.3269C152.512 67.3288 150.387 63.9603 147.217 63.3248C146.866 63.2546 146.508 63.2195 146.149 63.2195C143.868 63.2195 141.786 64.6387 140.129 66.7635C139.79 65.6796 139.307 64.6894 138.679 63.8316C137.014 61.5587 134.383 60.0889 131.965 60.0889Z" fill="#4344C6"/>
<path d="M160.625 127.619C160.871 128.076 161 128.586 161 129.105L161 129.828C161 131.083 160.252 132.217 159.098 132.711L143.045 139.574C140.977 140.458 138.678 138.941 138.678 136.692L138.678 120.116C138.678 117.822 141.063 116.305 143.141 117.277L158.131 124.292C158.741 124.578 159.243 125.052 159.563 125.645L160.625 127.619Z" fill="#191D5D"/>
<path d="M166.89 127.619C166.644 128.076 166.516 128.586 166.516 129.105L166.516 129.828C166.516 131.083 167.264 132.217 168.418 132.711L184.471 139.574C186.539 140.458 188.838 138.941 188.838 136.692L188.838 120.116C188.838 117.822 186.453 116.305 184.374 117.277L169.384 124.292C168.774 124.578 168.272 125.052 167.953 125.645L166.89 127.619Z" fill="#191D5D"/>
<path d="M168.171 128.59C168.171 131.431 166.1 133.551 163.762 133.551C161.423 133.551 159.352 131.431 159.352 128.59C159.352 125.749 161.423 123.63 163.762 123.63C166.1 123.63 168.171 125.749 168.171 128.59Z" fill="#828CFC" stroke="#191D5D" stroke-width="2.20465"/>
</svg>
