<?xml version="1.0" standalone="no"?>
<!DOCTYPE svg PUBLIC "-//W3C//DTD SVG 20010904//EN"
 "http://www.w3.org/TR/2001/REC-SVG-20010904/DTD/svg10.dtd">
<svg version="1.0" xmlns="http://www.w3.org/2000/svg"
 width="2714.000000pt" height="2714.000000pt" viewBox="0 0 2714.000000 2714.000000"
 preserveAspectRatio="xMidYMid meet">
<metadata>
Created by potrace 1.14, written by Peter Selinger 2001-2017
</metadata>
<g transform="translate(0.000000,2714.000000) scale(0.100000,-0.100000)"
fill="#000000" stroke="none">
<path d="M18860 27133 c-180 -29 -330 -83 -450 -161 -77 -50 -98 -69 -334
-296 -115 -110 -229 -219 -252 -241 -546 -521 -1046 -1025 -1289 -1301 -5 -6
-37 -42 -71 -80 -33 -38 -89 -103 -123 -144 -34 -41 -70 -84 -79 -95 -10 -11
-40 -49 -67 -85 -28 -36 -53 -67 -56 -70 -3 -3 -36 -45 -73 -95 -37 -49 -73
-97 -80 -106 -7 -9 -56 -76 -108 -150 -274 -386 -590 -900 -847 -1379 -57
-105 -303 -601 -346 -695 -15 -33 -63 -139 -107 -235 -44 -96 -81 -179 -82
-185 -1 -5 -4 -15 -8 -20 -25 -41 -313 -757 -417 -1040 -47 -126 -65 -175 -91
-240 -22 -54 -44 -120 -41 -120 3 0 -1 -10 -8 -23 -7 -13 -64 -168 -126 -345
-63 -177 -126 -351 -140 -385 -29 -69 -41 -195 -25 -251 6 -22 5 -33 -6 -42
-11 -9 -15 -8 -18 2 -2 8 -13 43 -25 79 -11 36 -41 150 -66 253 -50 208 -120
462 -168 607 -17 52 -32 97 -32 100 -1 3 -4 12 -7 20 -3 8 -23 65 -44 125 -49
145 -176 463 -259 650 -129 291 -382 787 -526 1033 -27 46 -49 85 -49 87 0 2
-52 92 -117 202 -64 109 -122 209 -130 223 -7 14 -106 178 -218 364 -113 187
-205 341 -205 342 0 1 -23 40 -51 86 -28 46 -65 107 -81 137 -17 30 -35 59
-40 65 -4 6 -38 61 -74 121 -36 61 -80 133 -98 160 -18 28 -46 71 -62 97 -65
105 -382 582 -407 613 -5 6 -39 53 -75 105 -104 146 -377 516 -429 580 -7 8
-35 44 -63 80 -28 36 -60 76 -71 90 -11 14 -48 60 -82 104 -60 75 -465 566
-477 576 -3 3 -30 34 -60 70 -30 36 -61 72 -70 81 -8 9 -40 45 -70 80 -142
164 -181 208 -341 389 -119 134 -156 167 -224 200 -158 77 -400 52 -639 -67
-148 -73 -271 -178 -392 -334 -71 -92 -65 -84 -301 -384 -103 -132 -200 -256
-215 -275 -16 -19 -66 -84 -113 -145 -47 -60 -91 -117 -98 -125 -7 -8 -46 -60
-87 -115 -41 -55 -77 -102 -80 -105 -3 -3 -23 -30 -45 -60 -22 -30 -42 -57
-45 -60 -15 -13 -259 -353 -362 -505 -189 -278 -363 -559 -483 -781 -21 -38
-51 -93 -68 -123 -48 -88 -230 -456 -286 -579 -308 -675 -555 -1349 -765
-2092 -46 -165 -139 -514 -151 -568 -2 -10 -22 -91 -45 -182 -22 -91 -48 -194
-56 -230 -8 -36 -21 -92 -29 -125 -8 -33 -17 -71 -19 -85 -3 -14 -7 -34 -10
-45 -16 -68 -86 -385 -90 -410 -14 -73 -17 -89 -21 -95 -2 -4 -7 -22 -10 -41
-14 -81 -95 -472 -109 -526 -22 -82 -24 -101 -25 -160 -1 -32 -5 -53 -12 -53
-17 0 -272 -127 -369 -183 -430 -251 -822 -593 -1095 -957 -27 -36 -52 -67
-55 -70 -13 -11 -179 -269 -222 -345 -70 -123 -152 -290 -196 -395 -46 -112
-66 -163 -68 -170 0 -3 -4 -12 -7 -20 -46 -109 -134 -446 -162 -620 -3 -19 -8
-42 -10 -50 -2 -8 -7 -42 -10 -75 -3 -33 -7 -70 -10 -83 -17 -91 -20 -798 -20
-5387 0 -4464 3 -5255 20 -5344 1 -9 6 -38 9 -66 8 -59 24 -160 31 -195 3 -14
8 -41 11 -60 3 -19 22 -96 41 -170 113 -442 296 -838 557 -1210 203 -288 522
-622 760 -795 23 -16 43 -32 46 -35 9 -11 223 -156 290 -197 326 -198 719
-359 1066 -438 94 -21 269 -55 309 -60 28 -3 61 -7 75 -10 164 -26 277 -28
1521 -29 l1226 -1 139 -111 c508 -403 1053 -728 1669 -996 50 -21 99 -43 110
-48 203 -93 746 -278 1055 -359 63 -17 142 -37 175 -46 71 -19 358 -82 449
-99 11 -2 48 -9 81 -15 33 -6 70 -13 81 -15 25 -5 79 -14 132 -21 20 -4 78
-12 127 -20 105 -16 151 -23 220 -30 28 -4 66 -8 85 -10 19 -2 67 -7 105 -10
39 -4 81 -8 95 -10 26 -4 165 -15 260 -20 382 -22 854 -22 1195 0 121 8 231
16 265 20 19 2 64 7 100 10 57 5 142 15 260 30 19 3 55 7 80 10 25 3 52 7 60
10 8 2 35 6 60 9 51 7 372 62 410 71 14 3 45 10 70 15 25 5 88 18 140 30 52
12 102 23 110 25 8 2 44 11 80 20 36 9 76 19 89 21 13 3 63 16 110 30 47 15
95 28 106 31 96 24 368 112 550 178 72 26 144 51 160 57 17 6 34 15 40 19 5 5
15 9 21 9 13 0 305 123 439 185 344 159 712 365 1015 568 90 60 253 174 285
199 6 5 66 52 135 105 69 53 142 110 162 127 l37 31 1238 1 c1133 2 1337 4
1442 18 20 3 60 8 90 11 30 4 63 9 75 11 12 2 37 7 56 10 72 11 87 13 160 29
516 109 1004 330 1437 651 157 117 246 195 408 358 190 191 313 339 453 548
62 91 212 342 212 354 0 2 24 52 53 111 118 240 228 566 283 838 16 80 24 125
29 160 3 23 7 50 9 62 3 12 8 53 11 90 4 37 9 77 11 88 14 75 17 851 17 5300
0 4422 -3 5202 -18 5297 -2 12 -7 50 -10 83 -4 33 -8 69 -10 80 -1 11 -6 43
-10 70 -6 41 -43 221 -61 298 -2 9 -6 26 -8 37 -3 11 -17 60 -31 108 -130 434
-326 825 -589 1175 -54 73 -101 134 -105 137 -3 3 -33 37 -65 75 -89 105 -308
319 -427 416 -191 157 -406 303 -594 403 -49 27 -94 52 -100 57 -5 5 -10 26
-11 47 -1 41 -13 132 -19 142 -2 3 -6 31 -9 63 -9 91 -16 158 -21 212 -9 92
-26 229 -40 315 -8 47 -16 103 -20 125 -36 255 -131 672 -230 1015 -51 176
-163 525 -185 575 -4 11 -25 67 -45 125 -81 230 -387 976 -536 1308 -32 72
-55 124 -89 202 -18 41 -40 93 -50 115 -10 22 -60 139 -113 260 -52 121 -107
246 -121 277 -14 31 -26 59 -26 61 0 3 -23 54 -51 113 -28 60 -74 159 -102
219 -55 117 -312 630 -367 730 -130 239 -214 391 -220 400 -4 6 -20 33 -35 60
-199 361 -726 1190 -1165 1830 -118 172 -217 225 -430 230 -69 1 -136 1 -150
-2z m-5060 -13548 c14 -3 41 -7 60 -10 139 -19 327 -79 485 -155 364 -175 663
-480 837 -855 42 -91 93 -230 102 -280 2 -11 9 -38 15 -60 6 -22 13 -57 17
-79 3 -21 7 -47 9 -57 18 -94 23 -300 11 -433 -7 -75 -9 -88 -21 -146 -2 -14
-7 -36 -9 -50 -10 -59 -50 -192 -83 -275 -146 -372 -410 -681 -760 -890 -78
-46 -99 -63 -92 -75 4 -8 19 -51 32 -95 14 -44 37 -118 52 -165 15 -47 35
-112 45 -145 10 -33 70 -226 134 -430 219 -693 284 -901 432 -1375 109 -348
195 -620 245 -775 66 -205 75 -357 33 -524 -85 -337 -380 -594 -719 -626 -103
-10 -2031 -10 -2109 -1 -141 18 -242 55 -365 132 -50 33 -172 147 -211 199
-50 68 -122 210 -134 267 -3 13 -10 43 -16 68 -26 106 -16 283 23 415 16 53
95 308 130 415 11 36 21 67 22 70 0 3 13 43 28 90 101 319 190 602 203 645 17
59 19 65 27 85 3 8 10 31 16 50 13 48 120 389 131 420 5 14 30 93 55 175 103
333 147 472 161 511 8 23 16 50 19 60 2 11 22 78 45 149 23 72 61 192 84 267
l43 138 -34 20 c-19 11 -36 20 -39 20 -3 0 -17 8 -32 18 -15 10 -56 38 -92 62
-317 211 -576 554 -692 915 -59 185 -79 308 -83 510 -4 196 6 298 45 455 65
264 176 489 345 700 288 359 751 612 1185 647 36 3 67 7 69 9 6 5 322 -4 351
-11z"/>
</g>
</svg>
