<svg width="379" height="104" viewBox="0 0 379 104" fill="none" xmlns="http://www.w3.org/2000/svg">
<path fill-rule="evenodd" clip-rule="evenodd" d="M-136 81L-97.2083 85C-58.4167 97.3932 19.1667 98.0338 96.75 91.8371C174.333 85.6405 251.917 48.4608 329.5 26.7726C407.083 5.08441 484.667 -1.11222 562.25 8.18272C639.833 17.4777 717.417 42.2642 756.208 54.6574L795 67.0506V160H756.208C717.417 160 639.833 160 562.25 160C484.667 160 407.083 160 329.5 160C251.917 160 174.333 160 96.75 160C19.1667 160 -58.4167 160 -97.2083 160H-136V81Z" fill="#828CFC"/>
<path d="M246.183 54.356C245.708 53.4006 244.938 52.1156 243.715 50.8306C242.71 49.7765 241.702 49.0397 240.895 48.539" stroke="#191D5D" stroke-width="1.443" stroke-miterlimit="10" stroke-linecap="round" stroke-linejoin="round"/>
<path d="M210.657 123.983C210.343 123.978 210.07 123.766 209.987 123.463C209.95 123.329 209.119 120.146 211.383 117.688C212.536 116.437 214.18 115.719 215.897 115.719C216.153 115.719 216.408 115.735 216.664 115.767C216.976 114.441 217.214 113.089 217.372 111.737C218.129 105.302 216.939 100.089 216.151 96.6416C216.117 96.4935 216.087 96.3701 216.077 96.3261C216.077 96.3261 216.073 96.3084 216.072 96.3067C215.685 94.694 215.225 93.1465 214.694 91.678C213.987 89.7193 212.48 87.9109 210.397 87.9109C209.837 87.9109 209.29 87.9955 208.772 88.1647C207.728 88.5047 207.15 89.5471 206.95 90.6268C206.091 95.2653 205.204 99.8245 204.309 104.205C203.886 106.277 203.741 106.999 203.479 108.304C202.523 113.068 201.859 117.946 201.501 122.8C201.475 123.165 201.173 123.449 200.808 123.454C200.808 123.454 188.462 123.63 188.459 123.63C188.189 123.63 187.942 123.475 187.824 123.232C187.685 122.941 186.5 120.325 188.032 117.801C189.04 116.139 190.916 115.106 192.929 115.106C192.941 115.106 192.954 115.106 192.966 115.106C192.511 110.491 191.808 106.188 190.874 102.307C190.477 100.662 189.948 98.6282 189.028 96.0141C188.968 95.8431 188.205 93.8794 187.105 91.2971C186.051 88.8222 183.363 87.5162 180.718 88.0008C178.808 88.3505 176.89 88.6511 174.978 88.8998C174.163 89.0059 173.343 89.1037 172.522 89.1926C169.973 89.4683 167.822 91.2764 167.282 93.7826C167.166 94.32 167.052 94.858 166.94 95.3954C166.224 98.8256 165.849 100.995 165.547 102.741C165.14 105.087 164.872 106.638 164.109 109.367C163.73 110.724 163.028 112.929 161.634 117.322C161.11 118.97 160.576 120.632 160.046 122.263C159.951 122.553 159.681 122.749 159.376 122.749H147.742C147.419 122.749 147.137 122.53 147.058 122.217C147.023 122.074 146.201 118.69 148.637 116.097C150.312 114.314 152.445 114.048 153.568 114.048C153.619 114.048 153.67 114.048 153.719 114.05C153.631 110.63 153.344 107.191 152.861 103.812C152.546 101.612 152.146 99.4072 151.664 97.2259C151.248 95.3401 150.311 93.6067 148.954 92.2323C146.729 89.9782 144.842 88.371 143.325 87.4385C142.614 87.0013 140.746 85.7639 138.765 83.7192C138.453 83.3966 138.158 83.0529 137.839 82.6334C136.653 81.0734 135.667 79.0427 134.906 76.5996C133.469 71.9796 133.104 66.836 133.822 61.3169C133.832 61.2306 133.861 61.1459 133.903 61.0701C140.504 48.9991 143.106 47.4497 144.633 47.4497C144.839 47.4497 145.04 47.4832 145.228 47.5484C145.47 47.633 145.623 47.7458 145.688 47.7934C147.811 49.3499 156.397 52.8912 164.567 53.8325C166.384 54.0422 168.519 54.2643 170.842 54.2643C174.681 54.2643 178.17 53.6509 181.505 52.3888C184.413 51.2889 186.409 49.9721 188.337 48.6977C190.965 46.9632 193.683 45.1705 198.603 43.9754C200.912 43.4149 203.054 43.1417 205.148 43.1417C205.917 43.1417 206.699 43.1787 207.473 43.2527C210.103 43.5048 212.262 44.3748 215.136 45.2287L215.63 45.3537C217.666 45.8688 219.778 46.3458 221.829 45.8904C227.433 44.6463 231.768 39.1929 233.452 33.8786C235.116 28.6257 234.799 19.7206 228.879 16.3749C227.476 15.5817 225.853 15.1798 224.055 15.1798C220.138 15.1798 216.202 17.0448 213.824 18.7916C211.633 20.3992 210.405 22.1936 209.59 23.3817C208.927 24.3494 208.527 24.9329 207.871 24.9329C207.745 24.9329 207.619 24.9082 207.501 24.8571C207.015 24.6508 206.722 24.1009 206.585 23.1226C206.165 20.1595 207.279 12.0246 213.311 7.14539C216.19 4.81862 219.724 3.6376 223.815 3.6376C229.073 3.6376 233.572 5.6136 234.42 6.01021C239.976 8.60492 244.081 13.3061 246.619 19.9814C249.452 27.4306 248.061 33.9051 247.538 36.3429C245.491 45.8721 238.248 53.3301 237.429 54.1498C237.355 54.2238 237.268 54.3119 237.171 54.4106C236.221 55.3854 234.083 57.58 230.706 59.1012C230.891 59.4414 231.058 59.7728 231.213 60.1042C231.278 60.2329 231.973 61.6342 232.491 63.3123C232.886 64.5903 233.688 70.7509 233.757 79.2031C233.757 79.2296 233.755 79.256 233.753 79.2842C233.35 83.0617 232.814 86.8727 232.16 90.6131C231.351 95.2332 230.339 99.8779 229.151 104.419C229.147 104.435 229.142 104.45 229.137 104.466L222.615 123.68C222.518 123.965 222.248 124.157 221.947 124.157C221.945 124.159 210.657 123.983 210.657 123.983Z" fill="#BEDCFC"/>
<path d="M229.794 92.286C227.519 91.2424 225.034 90.6678 222.431 90.6678C220.351 90.6678 218.347 91.0362 216.464 91.7148C216.846 92.9875 217.228 94.4594 217.571 96.1445C217.574 96.1604 217.604 96.3049 217.639 96.4847C218.365 100.227 219.328 105.393 218.687 111.82C218.485 113.846 218.173 115.492 217.938 116.58C216.301 116.114 214.576 116.721 213.445 118.166C211.76 120.32 212.356 123.102 212.397 123.278C215.591 123.336 218.787 123.396 221.982 123.454C223.829 117.05 225.677 110.645 227.523 104.241C228.349 100.53 229.121 96.5394 229.794 92.286Z" fill="#D5FAFC"/>
<path d="M207.78 24.2085C208.522 24.5205 209.518 21.0832 213.412 18.2241C215.067 17.0078 217.469 15.7334 220.103 15.0283C218.881 11.8378 216.174 9.38059 212.825 8.51334C206.766 14.2827 206.616 23.7167 207.78 24.2085Z" fill="#D5FAFC"/>
<mask id="path-6-outside-1_531_2471" maskUnits="userSpaceOnUse" x="131.754" y="1.93262" width="118" height="124" fill="black">
<rect fill="white" x="131.754" y="1.93262" width="118" height="124"/>
<path d="M223.818 4.34278C229.026 4.34278 233.468 6.34346 234.122 6.64841C242.238 10.4382 245.15 18.099 245.961 20.2318C248.665 27.3408 247.417 33.5473 246.849 36.1949C244.863 45.4456 237.768 52.8155 236.93 53.651C236.107 54.4741 234.024 56.8206 230.478 58.4323C230.075 58.6155 229.908 59.1065 230.118 59.496C230.292 59.8188 230.443 60.1193 230.577 60.4049C230.58 60.4113 230.582 60.4167 230.585 60.4231C230.645 60.5429 231.32 61.9095 231.819 63.5204C232.176 64.6785 232.984 70.781 233.052 79.2085C232.672 82.7762 232.155 86.5467 231.466 90.4898C230.604 95.4184 229.576 100.01 228.469 104.239C226.352 110.477 224.234 116.717 222.116 122.955C222.016 123.251 221.735 123.449 221.422 123.444C218.018 123.392 214.613 123.337 211.21 123.285C210.888 123.28 210.608 123.062 210.565 122.743C210.436 121.8 210.393 119.801 211.9 118.164C212.935 117.041 214.392 116.423 215.894 116.423C216.091 116.423 216.289 116.433 216.486 116.455C216.879 116.498 217.267 116.27 217.357 115.886C217.602 114.839 217.877 113.452 218.069 111.819C218.824 105.392 217.69 100.225 216.836 96.483C216.795 96.3032 216.76 96.1587 216.756 96.1428C216.027 93.1019 215.151 90.748 214.395 89.031C214.155 88.4857 213.743 88.0264 213.194 87.7955C212.519 87.5118 211.53 87.2041 210.395 87.2041C209.811 87.2041 209.189 87.2852 208.551 87.4932C208.159 87.62 207.809 87.7792 207.5 87.9508C206.895 88.2873 206.543 88.9264 206.418 89.6073C205.294 95.7137 204.321 100.611 203.615 104.063C203.192 106.136 203.046 106.858 202.785 108.164C201.752 113.318 201.169 118.008 200.845 122.089C200.816 122.462 200.508 122.751 200.134 122.757C196.395 122.81 192.654 122.864 188.915 122.917C188.635 122.921 188.377 122.763 188.285 122.499C188.005 121.691 187.587 119.886 188.632 118.164C189.526 116.692 191.167 115.809 192.926 115.809C193.343 115.809 193.708 115.472 193.667 115.057C193.352 111.856 192.746 107.078 191.555 102.14C191.163 100.516 190.628 98.4467 189.69 95.778C189.625 95.5911 188.86 93.6239 187.751 91.0186C187.345 90.0641 186.96 89.1844 186.606 88.3912C186.049 87.1447 184.684 86.4833 183.348 86.7628C180.705 87.3157 177.879 87.8075 174.883 88.1983C173.131 88.4263 171.431 88.6058 169.785 88.7443C168.521 88.8507 167.455 89.7462 167.175 90.9835C166.903 92.1811 166.585 93.6234 166.246 95.2491C164.571 103.28 164.746 104.458 163.425 109.175C163.048 110.519 162.352 112.716 160.958 117.107C160.391 118.889 159.902 120.406 159.533 121.544C159.437 121.841 159.16 122.042 158.847 122.042C155.331 122.042 151.814 122.042 148.297 122.042C147.968 122.042 147.681 121.82 147.641 121.493C147.517 120.492 147.496 118.337 149.148 116.578C150.618 115.013 152.483 114.752 153.563 114.752C154.017 114.752 154.429 114.393 154.417 113.94C154.335 110.846 154.082 107.412 153.554 103.71C153.097 100.504 152.497 97.5532 151.836 94.8881C151.694 94.3142 151.406 93.7855 151.003 93.3522C147.403 89.4759 145.177 87.5168 143.729 86.6266C143.209 86.3076 141.284 85.311 139.264 83.2275C138.977 82.9313 138.7 82.607 138.395 82.2051C137.799 81.4225 136.602 79.695 135.575 76.3882C133.809 70.7079 134.039 65.179 134.5 61.5383C134.511 61.4494 134.539 61.3649 134.582 61.2864C138.187 54.7053 142.312 48.1514 144.628 48.1514C144.755 48.1514 144.877 48.1708 144.991 48.2113C145.136 48.2607 145.222 48.3276 145.268 48.3611C147.478 49.9828 156.188 53.5752 164.481 54.5306C166.341 54.7439 168.481 54.9678 170.838 54.9678C174.116 54.9678 177.814 54.5359 181.751 53.0464C188.717 50.4094 190.374 46.6971 198.766 44.6594C201.013 44.113 203.093 43.8468 205.145 43.8468C205.9 43.8468 206.651 43.8838 207.403 43.9544C210.641 44.2628 213.213 45.1636 214.895 45.8933C215.869 46.1735 216.842 46.4537 217.815 46.7348C218.311 46.8783 218.834 46.9186 219.342 46.8232C226.399 45.4985 232.102 40.4673 234.122 34.092C236.024 28.0865 235.168 19.1213 229.226 15.7616C227.606 14.845 225.834 14.4748 224.054 14.4748C219.985 14.4748 215.87 16.4138 213.405 18.2223C209.677 20.9598 208.605 24.2261 207.87 24.2261C207.837 24.2261 207.805 24.2191 207.773 24.2067C206.554 23.692 206.778 13.3344 213.753 7.69193C216.906 5.14482 220.516 4.34278 223.818 4.34278ZM223.818 2.93262C219.561 2.93262 215.877 4.16475 212.869 6.59729C209.462 9.3524 207.736 12.9765 206.887 15.5307C205.808 18.7811 205.662 21.6349 205.887 23.2214C205.951 23.6744 206.146 25.0511 207.227 25.5076C207.433 25.594 207.65 25.6381 207.872 25.6381C208.9 25.6381 209.46 24.8184 210.172 23.7802C210.959 22.6326 212.149 20.8981 214.243 19.3611C216.425 17.7588 220.306 15.8868 224.056 15.8868C225.73 15.8868 227.237 16.2587 228.533 16.992C231.515 18.6789 232.739 21.8588 233.238 24.2279C233.872 27.2333 233.701 30.764 232.779 33.6689C230.966 39.3938 225.932 43.7757 219.491 45.3207C218.933 45.4547 218.349 45.4243 217.797 45.2652L215.372 44.566C212.862 43.4872 210.227 42.8104 207.539 42.553C206.742 42.4772 205.938 42.4384 205.145 42.4384C202.995 42.4384 200.798 42.7169 198.435 43.2916C193.397 44.5149 190.626 46.3428 187.948 48.1108C185.963 49.4205 184.09 50.6579 181.254 51.7297C178 52.9618 174.592 53.5593 170.839 53.5593C168.551 53.5593 166.441 53.339 164.644 53.131C160.115 52.6092 155.844 51.3401 153.059 50.3653C149.528 49.1314 147.02 47.8975 146.102 47.2242C146.017 47.1607 145.795 46.9985 145.455 46.8804C145.192 46.7888 144.914 46.7412 144.628 46.7412C143.022 46.7412 141.259 48.2007 138.91 51.4723C137.322 53.6863 135.427 56.7992 133.278 60.7265C133.193 60.8799 133.139 61.0473 133.117 61.2218C132.386 66.8431 132.76 72.0872 134.226 76.8059C135.021 79.3636 136.017 81.4084 137.27 83.0583C137.607 83.5007 137.919 83.8673 138.25 84.2093C140.288 86.3122 142.215 87.5867 142.948 88.0379C144.695 89.1104 146.967 91.1273 149.711 94.0402C150.123 94.4773 150.415 95.0142 150.556 95.5976C151.222 98.3371 151.759 101.128 152.156 103.909C152.57 106.801 152.839 109.739 152.961 112.669C152.977 113.056 152.68 113.381 152.297 113.442C151.048 113.639 149.455 114.19 148.118 115.612C145.467 118.434 146.269 121.991 146.368 122.388C146.526 123.014 147.089 123.452 147.736 123.452H159.369C159.979 123.452 160.522 123.059 160.711 122.479C161.242 120.847 161.777 119.183 162.301 117.535C163.699 113.134 164.4 110.925 164.783 109.555C165.557 106.791 165.826 105.228 166.237 102.859C166.538 101.121 166.912 98.9561 167.626 95.5382C167.96 93.9412 168.309 92.3384 168.672 90.757C168.742 90.4491 169.006 90.2239 169.321 90.1991C171.24 90.0478 173.165 89.8465 175.065 89.5979C177.558 89.2732 180.062 88.861 182.543 88.3676C183.879 88.1017 185.236 88.774 185.782 90.022C186.009 90.5385 186.232 91.0558 186.452 91.5721C187.516 94.0734 188.283 96.0388 188.359 96.2486C189.267 98.831 189.79 100.844 190.183 102.471C191.013 105.913 191.659 109.692 192.109 113.73C192.153 114.123 191.867 114.473 191.48 114.56C189.796 114.939 188.314 115.97 187.425 117.435C185.699 120.278 187.026 123.213 187.183 123.539C187.419 124.027 187.913 124.336 188.452 124.336C188.459 124.336 188.467 124.336 188.472 124.336L200.811 124.159C201.542 124.149 202.143 123.581 202.196 122.853C202.552 118.027 203.213 113.179 204.163 108.443C204.421 107.162 204.564 106.451 204.992 104.346C205.901 99.8966 206.801 95.2637 207.673 90.5503C207.814 89.7893 208.246 89.0732 208.983 88.8346C209.43 88.6883 209.905 88.6161 210.391 88.6161C210.96 88.6161 211.493 88.7166 211.952 88.8514C212.605 89.0432 213.093 89.5657 213.355 90.1935C214.166 92.1318 214.846 94.2369 215.381 96.4725L215.383 96.483C215.39 96.5148 215.422 96.6417 215.457 96.7986C216.233 100.199 217.407 105.339 216.665 111.656C216.541 112.712 216.367 113.768 216.148 114.811C216.123 114.932 216.014 115.016 215.891 115.016C213.978 115.016 212.143 115.816 210.858 117.212C208.378 119.906 209.199 123.273 209.3 123.648C209.464 124.254 210.01 124.679 210.64 124.69L214.399 124.748L221.921 124.866C221.928 124.866 221.935 124.866 221.944 124.866C222.547 124.866 223.084 124.482 223.278 123.909L225.452 117.505L229.8 104.695C229.811 104.664 229.821 104.632 229.828 104.599C231.022 100.04 232.039 95.3761 232.85 90.7349C233.507 86.9785 234.045 83.1517 234.449 79.3601C234.454 79.3072 234.457 79.2526 234.456 79.1997C234.387 70.6752 233.564 64.4176 233.158 63.1062C232.636 61.4157 231.938 59.9932 231.843 59.8011C231.747 59.5934 231.829 59.3444 232.032 59.2379C234.929 57.7157 236.791 55.8043 237.669 54.9043C237.762 54.8073 237.847 54.7227 237.919 54.6487C238.753 53.8149 246.13 46.2177 248.219 36.491C248.755 33.9986 250.177 27.3761 247.27 19.7312C246.853 18.6313 245.873 16.0542 243.93 13.2568C241.489 9.74019 238.386 7.08732 234.711 5.37044C233.847 4.96326 229.226 2.93262 223.818 2.93262Z"/>
</mask>
<path d="M223.818 4.34278C229.026 4.34278 233.468 6.34346 234.122 6.64841C242.238 10.4382 245.15 18.099 245.961 20.2318C248.665 27.3408 247.417 33.5473 246.849 36.1949C244.863 45.4456 237.768 52.8155 236.93 53.651C236.107 54.4741 234.024 56.8206 230.478 58.4323C230.075 58.6155 229.908 59.1065 230.118 59.496C230.292 59.8188 230.443 60.1193 230.577 60.4049C230.58 60.4113 230.582 60.4167 230.585 60.4231C230.645 60.5429 231.32 61.9095 231.819 63.5204C232.176 64.6785 232.984 70.781 233.052 79.2085C232.672 82.7762 232.155 86.5467 231.466 90.4898C230.604 95.4184 229.576 100.01 228.469 104.239C226.352 110.477 224.234 116.717 222.116 122.955C222.016 123.251 221.735 123.449 221.422 123.444C218.018 123.392 214.613 123.337 211.21 123.285C210.888 123.28 210.608 123.062 210.565 122.743C210.436 121.8 210.393 119.801 211.9 118.164C212.935 117.041 214.392 116.423 215.894 116.423C216.091 116.423 216.289 116.433 216.486 116.455C216.879 116.498 217.267 116.27 217.357 115.886C217.602 114.839 217.877 113.452 218.069 111.819C218.824 105.392 217.69 100.225 216.836 96.483C216.795 96.3032 216.76 96.1587 216.756 96.1428C216.027 93.1019 215.151 90.748 214.395 89.031C214.155 88.4857 213.743 88.0264 213.194 87.7955C212.519 87.5118 211.53 87.2041 210.395 87.2041C209.811 87.2041 209.189 87.2852 208.551 87.4932C208.159 87.62 207.809 87.7792 207.5 87.9508C206.895 88.2873 206.543 88.9264 206.418 89.6073C205.294 95.7137 204.321 100.611 203.615 104.063C203.192 106.136 203.046 106.858 202.785 108.164C201.752 113.318 201.169 118.008 200.845 122.089C200.816 122.462 200.508 122.751 200.134 122.757C196.395 122.81 192.654 122.864 188.915 122.917C188.635 122.921 188.377 122.763 188.285 122.499C188.005 121.691 187.587 119.886 188.632 118.164C189.526 116.692 191.167 115.809 192.926 115.809C193.343 115.809 193.708 115.472 193.667 115.057C193.352 111.856 192.746 107.078 191.555 102.14C191.163 100.516 190.628 98.4467 189.69 95.778C189.625 95.5911 188.86 93.6239 187.751 91.0186C187.345 90.0641 186.96 89.1844 186.606 88.3912C186.049 87.1447 184.684 86.4833 183.348 86.7628C180.705 87.3157 177.879 87.8075 174.883 88.1983C173.131 88.4263 171.431 88.6058 169.785 88.7443C168.521 88.8507 167.455 89.7462 167.175 90.9835C166.903 92.1811 166.585 93.6234 166.246 95.2491C164.571 103.28 164.746 104.458 163.425 109.175C163.048 110.519 162.352 112.716 160.958 117.107C160.391 118.889 159.902 120.406 159.533 121.544C159.437 121.841 159.16 122.042 158.847 122.042C155.331 122.042 151.814 122.042 148.297 122.042C147.968 122.042 147.681 121.82 147.641 121.493C147.517 120.492 147.496 118.337 149.148 116.578C150.618 115.013 152.483 114.752 153.563 114.752C154.017 114.752 154.429 114.393 154.417 113.94C154.335 110.846 154.082 107.412 153.554 103.71C153.097 100.504 152.497 97.5532 151.836 94.8881C151.694 94.3142 151.406 93.7855 151.003 93.3522C147.403 89.4759 145.177 87.5168 143.729 86.6266C143.209 86.3076 141.284 85.311 139.264 83.2275C138.977 82.9313 138.7 82.607 138.395 82.2051C137.799 81.4225 136.602 79.695 135.575 76.3882C133.809 70.7079 134.039 65.179 134.5 61.5383C134.511 61.4494 134.539 61.3649 134.582 61.2864C138.187 54.7053 142.312 48.1514 144.628 48.1514C144.755 48.1514 144.877 48.1708 144.991 48.2113C145.136 48.2607 145.222 48.3276 145.268 48.3611C147.478 49.9828 156.188 53.5752 164.481 54.5306C166.341 54.7439 168.481 54.9678 170.838 54.9678C174.116 54.9678 177.814 54.5359 181.751 53.0464C188.717 50.4094 190.374 46.6971 198.766 44.6594C201.013 44.113 203.093 43.8468 205.145 43.8468C205.9 43.8468 206.651 43.8838 207.403 43.9544C210.641 44.2628 213.213 45.1636 214.895 45.8933C215.869 46.1735 216.842 46.4537 217.815 46.7348C218.311 46.8783 218.834 46.9186 219.342 46.8232C226.399 45.4985 232.102 40.4673 234.122 34.092C236.024 28.0865 235.168 19.1213 229.226 15.7616C227.606 14.845 225.834 14.4748 224.054 14.4748C219.985 14.4748 215.87 16.4138 213.405 18.2223C209.677 20.9598 208.605 24.2261 207.87 24.2261C207.837 24.2261 207.805 24.2191 207.773 24.2067C206.554 23.692 206.778 13.3344 213.753 7.69193C216.906 5.14482 220.516 4.34278 223.818 4.34278ZM223.818 2.93262C219.561 2.93262 215.877 4.16475 212.869 6.59729C209.462 9.3524 207.736 12.9765 206.887 15.5307C205.808 18.7811 205.662 21.6349 205.887 23.2214C205.951 23.6744 206.146 25.0511 207.227 25.5076C207.433 25.594 207.65 25.6381 207.872 25.6381C208.9 25.6381 209.46 24.8184 210.172 23.7802C210.959 22.6326 212.149 20.8981 214.243 19.3611C216.425 17.7588 220.306 15.8868 224.056 15.8868C225.73 15.8868 227.237 16.2587 228.533 16.992C231.515 18.6789 232.739 21.8588 233.238 24.2279C233.872 27.2333 233.701 30.764 232.779 33.6689C230.966 39.3938 225.932 43.7757 219.491 45.3207C218.933 45.4547 218.349 45.4243 217.797 45.2652L215.372 44.566C212.862 43.4872 210.227 42.8104 207.539 42.553C206.742 42.4772 205.938 42.4384 205.145 42.4384C202.995 42.4384 200.798 42.7169 198.435 43.2916C193.397 44.5149 190.626 46.3428 187.948 48.1108C185.963 49.4205 184.09 50.6579 181.254 51.7297C178 52.9618 174.592 53.5593 170.839 53.5593C168.551 53.5593 166.441 53.339 164.644 53.131C160.115 52.6092 155.844 51.3401 153.059 50.3653C149.528 49.1314 147.02 47.8975 146.102 47.2242C146.017 47.1607 145.795 46.9985 145.455 46.8804C145.192 46.7888 144.914 46.7412 144.628 46.7412C143.022 46.7412 141.259 48.2007 138.91 51.4723C137.322 53.6863 135.427 56.7992 133.278 60.7265C133.193 60.8799 133.139 61.0473 133.117 61.2218C132.386 66.8431 132.76 72.0872 134.226 76.8059C135.021 79.3636 136.017 81.4084 137.27 83.0583C137.607 83.5007 137.919 83.8673 138.25 84.2093C140.288 86.3122 142.215 87.5867 142.948 88.0379C144.695 89.1104 146.967 91.1273 149.711 94.0402C150.123 94.4773 150.415 95.0142 150.556 95.5976C151.222 98.3371 151.759 101.128 152.156 103.909C152.57 106.801 152.839 109.739 152.961 112.669C152.977 113.056 152.68 113.381 152.297 113.442C151.048 113.639 149.455 114.19 148.118 115.612C145.467 118.434 146.269 121.991 146.368 122.388C146.526 123.014 147.089 123.452 147.736 123.452H159.369C159.979 123.452 160.522 123.059 160.711 122.479C161.242 120.847 161.777 119.183 162.301 117.535C163.699 113.134 164.4 110.925 164.783 109.555C165.557 106.791 165.826 105.228 166.237 102.859C166.538 101.121 166.912 98.9561 167.626 95.5382C167.96 93.9412 168.309 92.3384 168.672 90.757C168.742 90.4491 169.006 90.2239 169.321 90.1991C171.24 90.0478 173.165 89.8465 175.065 89.5979C177.558 89.2732 180.062 88.861 182.543 88.3676C183.879 88.1017 185.236 88.774 185.782 90.022C186.009 90.5385 186.232 91.0558 186.452 91.5721C187.516 94.0734 188.283 96.0388 188.359 96.2486C189.267 98.831 189.79 100.844 190.183 102.471C191.013 105.913 191.659 109.692 192.109 113.73C192.153 114.123 191.867 114.473 191.48 114.56C189.796 114.939 188.314 115.97 187.425 117.435C185.699 120.278 187.026 123.213 187.183 123.539C187.419 124.027 187.913 124.336 188.452 124.336C188.459 124.336 188.467 124.336 188.472 124.336L200.811 124.159C201.542 124.149 202.143 123.581 202.196 122.853C202.552 118.027 203.213 113.179 204.163 108.443C204.421 107.162 204.564 106.451 204.992 104.346C205.901 99.8966 206.801 95.2637 207.673 90.5503C207.814 89.7893 208.246 89.0732 208.983 88.8346C209.43 88.6883 209.905 88.6161 210.391 88.6161C210.96 88.6161 211.493 88.7166 211.952 88.8514C212.605 89.0432 213.093 89.5657 213.355 90.1935C214.166 92.1318 214.846 94.2369 215.381 96.4725L215.383 96.483C215.39 96.5148 215.422 96.6417 215.457 96.7986C216.233 100.199 217.407 105.339 216.665 111.656C216.541 112.712 216.367 113.768 216.148 114.811C216.123 114.932 216.014 115.016 215.891 115.016C213.978 115.016 212.143 115.816 210.858 117.212C208.378 119.906 209.199 123.273 209.3 123.648C209.464 124.254 210.01 124.679 210.64 124.69L214.399 124.748L221.921 124.866C221.928 124.866 221.935 124.866 221.944 124.866C222.547 124.866 223.084 124.482 223.278 123.909L225.452 117.505L229.8 104.695C229.811 104.664 229.821 104.632 229.828 104.599C231.022 100.04 232.039 95.3761 232.85 90.7349C233.507 86.9785 234.045 83.1517 234.449 79.3601C234.454 79.3072 234.457 79.2526 234.456 79.1997C234.387 70.6752 233.564 64.4176 233.158 63.1062C232.636 61.4157 231.938 59.9932 231.843 59.8011C231.747 59.5934 231.829 59.3444 232.032 59.2379C234.929 57.7157 236.791 55.8043 237.669 54.9043C237.762 54.8073 237.847 54.7227 237.919 54.6487C238.753 53.8149 246.13 46.2177 248.219 36.491C248.755 33.9986 250.177 27.3761 247.27 19.7312C246.853 18.6313 245.873 16.0542 243.93 13.2568C241.489 9.74019 238.386 7.08732 234.711 5.37044C233.847 4.96326 229.226 2.93262 223.818 2.93262Z" fill="#4344C6"/>
<path d="M223.818 4.34278C229.026 4.34278 233.468 6.34346 234.122 6.64841C242.238 10.4382 245.15 18.099 245.961 20.2318C248.665 27.3408 247.417 33.5473 246.849 36.1949C244.863 45.4456 237.768 52.8155 236.93 53.651C236.107 54.4741 234.024 56.8206 230.478 58.4323C230.075 58.6155 229.908 59.1065 230.118 59.496C230.292 59.8188 230.443 60.1193 230.577 60.4049C230.58 60.4113 230.582 60.4167 230.585 60.4231C230.645 60.5429 231.32 61.9095 231.819 63.5204C232.176 64.6785 232.984 70.781 233.052 79.2085C232.672 82.7762 232.155 86.5467 231.466 90.4898C230.604 95.4184 229.576 100.01 228.469 104.239C226.352 110.477 224.234 116.717 222.116 122.955C222.016 123.251 221.735 123.449 221.422 123.444C218.018 123.392 214.613 123.337 211.21 123.285C210.888 123.28 210.608 123.062 210.565 122.743C210.436 121.8 210.393 119.801 211.9 118.164C212.935 117.041 214.392 116.423 215.894 116.423C216.091 116.423 216.289 116.433 216.486 116.455C216.879 116.498 217.267 116.27 217.357 115.886C217.602 114.839 217.877 113.452 218.069 111.819C218.824 105.392 217.69 100.225 216.836 96.483C216.795 96.3032 216.76 96.1587 216.756 96.1428C216.027 93.1019 215.151 90.748 214.395 89.031C214.155 88.4857 213.743 88.0264 213.194 87.7955C212.519 87.5118 211.53 87.2041 210.395 87.2041C209.811 87.2041 209.189 87.2852 208.551 87.4932C208.159 87.62 207.809 87.7792 207.5 87.9508C206.895 88.2873 206.543 88.9264 206.418 89.6073C205.294 95.7137 204.321 100.611 203.615 104.063C203.192 106.136 203.046 106.858 202.785 108.164C201.752 113.318 201.169 118.008 200.845 122.089C200.816 122.462 200.508 122.751 200.134 122.757C196.395 122.81 192.654 122.864 188.915 122.917C188.635 122.921 188.377 122.763 188.285 122.499C188.005 121.691 187.587 119.886 188.632 118.164C189.526 116.692 191.167 115.809 192.926 115.809C193.343 115.809 193.708 115.472 193.667 115.057C193.352 111.856 192.746 107.078 191.555 102.14C191.163 100.516 190.628 98.4467 189.69 95.778C189.625 95.5911 188.86 93.6239 187.751 91.0186C187.345 90.0641 186.96 89.1844 186.606 88.3912C186.049 87.1447 184.684 86.4833 183.348 86.7628C180.705 87.3157 177.879 87.8075 174.883 88.1983C173.131 88.4263 171.431 88.6058 169.785 88.7443C168.521 88.8507 167.455 89.7462 167.175 90.9835C166.903 92.1811 166.585 93.6234 166.246 95.2491C164.571 103.28 164.746 104.458 163.425 109.175C163.048 110.519 162.352 112.716 160.958 117.107C160.391 118.889 159.902 120.406 159.533 121.544C159.437 121.841 159.16 122.042 158.847 122.042C155.331 122.042 151.814 122.042 148.297 122.042C147.968 122.042 147.681 121.82 147.641 121.493C147.517 120.492 147.496 118.337 149.148 116.578C150.618 115.013 152.483 114.752 153.563 114.752C154.017 114.752 154.429 114.393 154.417 113.94C154.335 110.846 154.082 107.412 153.554 103.71C153.097 100.504 152.497 97.5532 151.836 94.8881C151.694 94.3142 151.406 93.7855 151.003 93.3522C147.403 89.4759 145.177 87.5168 143.729 86.6266C143.209 86.3076 141.284 85.311 139.264 83.2275C138.977 82.9313 138.7 82.607 138.395 82.2051C137.799 81.4225 136.602 79.695 135.575 76.3882C133.809 70.7079 134.039 65.179 134.5 61.5383C134.511 61.4494 134.539 61.3649 134.582 61.2864C138.187 54.7053 142.312 48.1514 144.628 48.1514C144.755 48.1514 144.877 48.1708 144.991 48.2113C145.136 48.2607 145.222 48.3276 145.268 48.3611C147.478 49.9828 156.188 53.5752 164.481 54.5306C166.341 54.7439 168.481 54.9678 170.838 54.9678C174.116 54.9678 177.814 54.5359 181.751 53.0464C188.717 50.4094 190.374 46.6971 198.766 44.6594C201.013 44.113 203.093 43.8468 205.145 43.8468C205.9 43.8468 206.651 43.8838 207.403 43.9544C210.641 44.2628 213.213 45.1636 214.895 45.8933C215.869 46.1735 216.842 46.4537 217.815 46.7348C218.311 46.8783 218.834 46.9186 219.342 46.8232C226.399 45.4985 232.102 40.4673 234.122 34.092C236.024 28.0865 235.168 19.1213 229.226 15.7616C227.606 14.845 225.834 14.4748 224.054 14.4748C219.985 14.4748 215.87 16.4138 213.405 18.2223C209.677 20.9598 208.605 24.2261 207.87 24.2261C207.837 24.2261 207.805 24.2191 207.773 24.2067C206.554 23.692 206.778 13.3344 213.753 7.69193C216.906 5.14482 220.516 4.34278 223.818 4.34278ZM223.818 2.93262C219.561 2.93262 215.877 4.16475 212.869 6.59729C209.462 9.3524 207.736 12.9765 206.887 15.5307C205.808 18.7811 205.662 21.6349 205.887 23.2214C205.951 23.6744 206.146 25.0511 207.227 25.5076C207.433 25.594 207.65 25.6381 207.872 25.6381C208.9 25.6381 209.46 24.8184 210.172 23.7802C210.959 22.6326 212.149 20.8981 214.243 19.3611C216.425 17.7588 220.306 15.8868 224.056 15.8868C225.73 15.8868 227.237 16.2587 228.533 16.992C231.515 18.6789 232.739 21.8588 233.238 24.2279C233.872 27.2333 233.701 30.764 232.779 33.6689C230.966 39.3938 225.932 43.7757 219.491 45.3207C218.933 45.4547 218.349 45.4243 217.797 45.2652L215.372 44.566C212.862 43.4872 210.227 42.8104 207.539 42.553C206.742 42.4772 205.938 42.4384 205.145 42.4384C202.995 42.4384 200.798 42.7169 198.435 43.2916C193.397 44.5149 190.626 46.3428 187.948 48.1108C185.963 49.4205 184.09 50.6579 181.254 51.7297C178 52.9618 174.592 53.5593 170.839 53.5593C168.551 53.5593 166.441 53.339 164.644 53.131C160.115 52.6092 155.844 51.3401 153.059 50.3653C149.528 49.1314 147.02 47.8975 146.102 47.2242C146.017 47.1607 145.795 46.9985 145.455 46.8804C145.192 46.7888 144.914 46.7412 144.628 46.7412C143.022 46.7412 141.259 48.2007 138.91 51.4723C137.322 53.6863 135.427 56.7992 133.278 60.7265C133.193 60.8799 133.139 61.0473 133.117 61.2218C132.386 66.8431 132.76 72.0872 134.226 76.8059C135.021 79.3636 136.017 81.4084 137.27 83.0583C137.607 83.5007 137.919 83.8673 138.25 84.2093C140.288 86.3122 142.215 87.5867 142.948 88.0379C144.695 89.1104 146.967 91.1273 149.711 94.0402C150.123 94.4773 150.415 95.0142 150.556 95.5976C151.222 98.3371 151.759 101.128 152.156 103.909C152.57 106.801 152.839 109.739 152.961 112.669C152.977 113.056 152.68 113.381 152.297 113.442C151.048 113.639 149.455 114.19 148.118 115.612C145.467 118.434 146.269 121.991 146.368 122.388C146.526 123.014 147.089 123.452 147.736 123.452H159.369C159.979 123.452 160.522 123.059 160.711 122.479C161.242 120.847 161.777 119.183 162.301 117.535C163.699 113.134 164.4 110.925 164.783 109.555C165.557 106.791 165.826 105.228 166.237 102.859C166.538 101.121 166.912 98.9561 167.626 95.5382C167.96 93.9412 168.309 92.3384 168.672 90.757C168.742 90.4491 169.006 90.2239 169.321 90.1991C171.24 90.0478 173.165 89.8465 175.065 89.5979C177.558 89.2732 180.062 88.861 182.543 88.3676C183.879 88.1017 185.236 88.774 185.782 90.022C186.009 90.5385 186.232 91.0558 186.452 91.5721C187.516 94.0734 188.283 96.0388 188.359 96.2486C189.267 98.831 189.79 100.844 190.183 102.471C191.013 105.913 191.659 109.692 192.109 113.73C192.153 114.123 191.867 114.473 191.48 114.56C189.796 114.939 188.314 115.97 187.425 117.435C185.699 120.278 187.026 123.213 187.183 123.539C187.419 124.027 187.913 124.336 188.452 124.336C188.459 124.336 188.467 124.336 188.472 124.336L200.811 124.159C201.542 124.149 202.143 123.581 202.196 122.853C202.552 118.027 203.213 113.179 204.163 108.443C204.421 107.162 204.564 106.451 204.992 104.346C205.901 99.8966 206.801 95.2637 207.673 90.5503C207.814 89.7893 208.246 89.0732 208.983 88.8346C209.43 88.6883 209.905 88.6161 210.391 88.6161C210.96 88.6161 211.493 88.7166 211.952 88.8514C212.605 89.0432 213.093 89.5657 213.355 90.1935C214.166 92.1318 214.846 94.2369 215.381 96.4725L215.383 96.483C215.39 96.5148 215.422 96.6417 215.457 96.7986C216.233 100.199 217.407 105.339 216.665 111.656C216.541 112.712 216.367 113.768 216.148 114.811C216.123 114.932 216.014 115.016 215.891 115.016C213.978 115.016 212.143 115.816 210.858 117.212C208.378 119.906 209.199 123.273 209.3 123.648C209.464 124.254 210.01 124.679 210.64 124.69L214.399 124.748L221.921 124.866C221.928 124.866 221.935 124.866 221.944 124.866C222.547 124.866 223.084 124.482 223.278 123.909L225.452 117.505L229.8 104.695C229.811 104.664 229.821 104.632 229.828 104.599C231.022 100.04 232.039 95.3761 232.85 90.7349C233.507 86.9785 234.045 83.1517 234.449 79.3601C234.454 79.3072 234.457 79.2526 234.456 79.1997C234.387 70.6752 233.564 64.4176 233.158 63.1062C232.636 61.4157 231.938 59.9932 231.843 59.8011C231.747 59.5934 231.829 59.3444 232.032 59.2379C234.929 57.7157 236.791 55.8043 237.669 54.9043C237.762 54.8073 237.847 54.7227 237.919 54.6487C238.753 53.8149 246.13 46.2177 248.219 36.491C248.755 33.9986 250.177 27.3761 247.27 19.7312C246.853 18.6313 245.873 16.0542 243.93 13.2568C241.489 9.74019 238.386 7.08732 234.711 5.37044C233.847 4.96326 229.226 2.93262 223.818 2.93262Z" stroke="#4344C6" stroke-width="1.40257" mask="url(#path-6-outside-1_531_2471)"/>
<path d="M215.465 61.9357C216.662 63.2877 217.857 64.6379 219.054 65.9899" stroke="#191D5D" stroke-width="1.443" stroke-miterlimit="10" stroke-linecap="round" stroke-linejoin="round"/>
<path d="M215.332 65.7237C216.705 64.5709 218.078 63.4198 219.453 62.267" stroke="#191D5D" stroke-width="1.443" stroke-miterlimit="10" stroke-linecap="round" stroke-linejoin="round"/>
<path d="M202.614 83.2645C199.519 83.2645 197 80.7455 197 77.6502V59.6177C197 56.5224 199.519 54.0035 202.614 54.0035H245.677C248.772 54.0035 251.291 56.5224 251.291 59.6177V77.6502C251.291 80.7455 248.772 83.2645 245.677 83.2645H202.614Z" fill="#D0D4FF"/>
<path d="M245.679 54.7086C248.387 54.7086 250.588 56.9102 250.588 59.6177V77.6502C250.588 80.3578 248.387 82.5594 245.679 82.5594H202.616C199.909 82.5594 197.707 80.3578 197.707 77.6502V59.6177C197.707 56.9102 199.909 54.7086 202.616 54.7086H245.679ZM245.679 53.2984H202.616C199.126 53.2984 196.297 56.1276 196.297 59.6177V77.6502C196.297 81.1404 199.126 83.9696 202.616 83.9696H245.679C249.169 83.9696 251.998 81.1404 251.998 77.6502V59.6177C251.998 56.1276 249.169 53.2984 245.679 53.2984Z" fill="#191D5D"/>
<path d="M214.193 69.6968H213.539C213.109 69.6968 212.741 69.963 212.589 70.3385C212.483 70.3015 212.371 70.2768 212.253 70.2768H209.873C209.774 70.2768 209.681 70.2944 209.591 70.3208C209.494 69.8537 209.081 69.5029 208.586 69.5029H207.932C207.365 69.5029 206.906 69.963 206.906 70.5288V74.6642C206.906 75.2317 207.366 75.6901 207.932 75.6901H208.586C209.154 75.6901 209.612 75.23 209.612 74.6642V73.5254C209.697 73.5466 209.783 73.5625 209.873 73.5625H212.251C212.342 73.5625 212.429 73.5466 212.512 73.5254V74.8563C212.512 75.4239 212.972 75.8822 213.538 75.8822H214.192C214.759 75.8822 215.217 75.4221 215.217 74.8563V70.721C215.219 70.1551 214.759 69.6968 214.193 69.6968Z" fill="#828CFC" stroke="#191D5D" stroke-width="1.443" stroke-miterlimit="10" stroke-linecap="round" stroke-linejoin="round"/>
<path d="M234.263 59.2546C230.411 59.2546 227.178 62.2177 226.288 66.2155H206.609C205.49 66.2155 204.582 67.1233 204.582 68.2426V68.6357C204.582 69.755 205.49 70.6628 206.609 70.6628H226.288C227.178 74.6607 230.409 77.6238 234.263 77.6238C238.801 77.6238 242.48 73.5114 242.48 68.4401C242.48 63.3688 238.801 59.2546 234.263 59.2546Z" fill="#828CFC" stroke="#191D5D" stroke-width="1.443" stroke-miterlimit="10" stroke-linecap="round" stroke-linejoin="round"/>
<path d="M234.259 72.6653C232.249 72.6653 230.613 70.8004 230.613 68.5089C230.613 66.2173 232.249 64.3524 234.259 64.3524C236.268 64.3524 237.904 66.2173 237.904 68.5089C237.904 70.8004 236.268 72.6653 234.259 72.6653Z" fill="#D0D4FF"/>
<path d="M234.261 65.0556C235.882 65.0556 237.201 66.6051 237.201 68.507C237.201 70.409 235.882 71.9584 234.261 71.9584C232.639 71.9584 231.32 70.409 231.32 68.507C231.32 66.6051 232.639 65.0556 234.261 65.0556ZM234.261 63.6455C231.858 63.6455 229.91 65.8224 229.91 68.507C229.91 71.1916 231.858 73.3686 234.261 73.3686C236.663 73.3686 238.611 71.1916 238.611 68.507C238.611 65.8224 236.663 63.6455 234.261 63.6455Z" fill="#191D5D"/>
<path d="M201.938 53.6509C204.585 50.8288 207.129 48.9022 208.988 47.6577C211.749 45.8104 216.293 42.842 222.737 42.0171C224.802 41.7526 226.526 41.7773 227.673 41.8408" stroke="#191D5D" stroke-width="1.443" stroke-miterlimit="10" stroke-linecap="round" stroke-linejoin="round"/>
<path d="M155.765 58.8474C151.582 57.0636 147.417 60.5661 147.006 60.9221C142.74 59.3586 138.332 60.5572 135.942 63.8852C135.616 64.34 135.344 64.8124 135.118 65.2936C135.094 68.2991 135.418 71.7857 136.522 75.3323C137.549 78.6391 138.746 80.3666 139.342 81.1492C139.647 81.5511 139.925 81.8754 140.211 82.1716C142.231 84.2551 144.115 85.4608 144.635 85.7798C144.775 85.8662 144.923 85.9596 145.078 86.0636C147.048 87.1248 148.386 88.0238 150.063 88.0238C152.715 88.0696 155.528 85.2928 157.765 81.9368C159.208 79.7723 161.252 76.0673 161.2 70.5659C161.185 69.2738 160.953 61.0579 155.765 58.8474Z" fill="#D5FAFC"/>
<path d="M166.09 53.4376C165.729 54.8806 162.843 59.681 157.792 61.7348C152.419 63.92 148.413 64.2601 146.609 64.2601C140.854 64.0327 136.722 61.9956 135 60.8022" fill="#D0D4FF"/>
<path d="M166.09 53.4376C165.729 54.8806 162.843 59.681 157.792 61.7348C152.419 63.92 148.413 64.2601 146.609 64.2601C140.854 64.0327 136.722 61.9956 135 60.8022" stroke="#191D5D" stroke-width="1.443" stroke-miterlimit="10" stroke-linecap="round" stroke-linejoin="round"/>
<path d="M147.832 70.7492C149.39 70.7492 150.652 69.5654 150.652 68.1051C150.652 66.6448 149.39 65.461 147.832 65.461C146.274 65.461 145.012 66.6448 145.012 68.1051C145.012 69.5654 146.274 70.7492 147.832 70.7492Z" fill="#828CFC"/>
<path d="M147.826 66.1662C148.995 66.1662 149.941 67.0334 149.941 68.1051C149.941 69.1769 148.995 70.0441 147.826 70.0441C146.658 70.0441 145.711 69.1769 145.711 68.1051C145.711 67.0334 146.658 66.1662 147.826 66.1662ZM147.826 64.756C145.882 64.756 144.301 66.2578 144.301 68.1051C144.301 69.9525 145.882 71.4543 147.826 71.4543C149.77 71.4543 151.352 69.9525 151.352 68.1051C151.352 66.2578 149.77 64.756 147.826 64.756Z" fill="#191D5D"/>
<path fill-rule="evenodd" clip-rule="evenodd" d="M178.699 8.67974C180.427 14.6202 175.415 25.1311 172.385 30.3371C173.461 32.7047 174.052 35.2508 174.052 37.9026C174.052 50.5102 160.696 60.7308 145.362 60.7308C130.029 60.7308 116.673 50.5102 116.673 37.9026C116.673 35.2115 117.281 32.6292 118.387 30.2319C115.351 24.9908 110.418 14.5805 112.135 8.67974C113.116 5.30565 121.068 10.8059 130.111 18.6778C134.586 16.397 139.846 15.0743 145.362 15.0743C150.907 15.0743 156.193 16.4106 160.682 18.7129C169.742 10.8223 177.716 5.30063 178.699 8.67974Z" fill="#BEDCFC"/>
<path d="M172.385 30.3371L171.274 29.6903L170.94 30.2642L171.215 30.8689L172.385 30.3371ZM178.699 8.67974L179.934 8.3207V8.3207L178.699 8.67974ZM118.387 30.2319L119.555 30.7706L119.834 30.1648L119.5 29.5874L118.387 30.2319ZM112.135 8.67974L113.369 9.03879L112.135 8.67974ZM130.111 18.6778L129.267 19.6475L129.922 20.2174L130.695 19.8232L130.111 18.6778ZM160.682 18.7129L160.095 19.857L160.87 20.2542L161.526 19.6825L160.682 18.7129ZM173.496 30.9839C175.038 28.3345 177.089 24.3302 178.539 20.2108C179.963 16.1673 180.92 11.7121 179.934 8.3207L177.464 9.03879C178.206 11.5879 177.521 15.3584 176.114 19.3569C174.733 23.2796 172.762 27.1337 171.274 29.6903L173.496 30.9839ZM175.337 37.9026C175.337 35.0563 174.703 32.3295 173.556 29.8052L171.215 30.8689C172.219 33.0799 172.766 35.4454 172.766 37.9026H175.337ZM145.362 62.0165C153.306 62.0165 160.76 59.3715 166.252 55.0554C171.743 50.7393 175.337 44.6871 175.337 37.9026H172.766C172.766 43.7257 169.683 49.0876 164.663 53.0337C159.642 56.9797 152.752 59.4451 145.362 59.4451V62.0165ZM115.387 37.9026C115.387 44.6871 118.982 50.7393 124.473 55.0554C129.964 59.3715 137.419 62.0165 145.362 62.0165V59.4451C137.972 59.4451 131.082 56.9797 126.062 53.0337C121.041 49.0876 117.958 43.7257 117.958 37.9026H115.387ZM117.22 29.6932C116.041 32.2487 115.387 35.014 115.387 37.9026H117.958C117.958 35.409 118.521 33.0098 119.555 30.7706L117.22 29.6932ZM110.9 8.3207C109.92 11.6903 110.859 16.1088 112.265 20.1279C113.698 24.2218 115.73 28.2098 117.275 30.8763L119.5 29.5874C118.009 27.0128 116.056 23.1752 114.692 19.2785C113.303 15.307 112.633 11.57 113.369 9.03879L110.9 8.3207ZM130.955 17.708C126.422 13.762 122.103 10.3564 118.759 8.35795C117.113 7.37418 115.569 6.647 114.289 6.442C113.641 6.33813 112.919 6.3445 112.264 6.65759C111.555 6.99613 111.109 7.60316 110.9 8.3207L113.369 9.03879C113.406 8.9128 113.423 8.95364 113.372 8.9779C113.37 8.97873 113.401 8.96334 113.487 8.9564C113.574 8.94933 113.703 8.95232 113.882 8.98101C114.652 9.10434 115.845 9.61157 117.44 10.5651C120.579 12.4412 124.757 15.7217 129.267 19.6475L130.955 17.708ZM145.362 13.7886C139.643 13.7886 134.183 15.1594 129.527 17.5323L130.695 19.8232C134.989 17.6347 140.049 16.36 145.362 16.36V13.7886ZM161.269 17.5689C156.598 15.1735 151.111 13.7886 145.362 13.7886V16.36C150.703 16.36 155.788 17.6478 160.095 19.857L161.269 17.5689ZM179.934 8.3207C179.724 7.60195 179.277 6.99433 178.567 6.65618C177.91 6.3436 177.188 6.3382 176.539 6.44297C175.257 6.64979 173.709 7.3797 172.059 8.36697C168.708 10.3725 164.379 13.788 159.838 17.7434L161.526 19.6825C166.045 15.7473 170.233 12.4566 173.38 10.5734C174.979 9.61631 176.175 9.10622 176.948 8.98152C177.128 8.9525 177.258 8.94931 177.346 8.95631C177.432 8.96318 177.463 8.97864 177.462 8.9779C177.411 8.95375 177.428 8.91276 177.464 9.03879L179.934 8.3207Z" fill="#4344C6"/>
<path d="M170.075 26.2198L164.713 20.8579C164.404 20.5482 164.365 20.0587 164.66 19.7348C166.754 17.4354 171.671 14.114 174.182 13.153C174.617 12.9866 175.064 13.2663 175.097 13.7306C175.34 17.1611 172.77 23.1839 171.49 25.9744C171.235 26.5294 170.507 26.6516 170.075 26.2198Z" fill="#D5FAFC"/>
<path d="M120.866 26.2198L126.228 20.8579C126.538 20.5482 126.576 20.0587 126.281 19.7348C124.188 17.4354 119.271 14.114 116.76 13.153C116.325 12.9866 115.877 13.2663 115.844 13.7306C115.601 17.1611 118.172 23.1839 119.452 25.9744C119.706 26.5294 120.434 26.6516 120.866 26.2198Z" fill="#D5FAFC"/>
<path d="M148.321 40.3846C148.321 41.6837 145.998 44.0137 144.703 44.0137C143.408 44.0137 141.152 41.6837 141.152 40.3846C141.152 39.0855 143.408 38.6373 144.703 38.6373C145.998 38.6373 148.321 39.0855 148.321 40.3846Z" fill="#4748CE"/>
<path fill-rule="evenodd" clip-rule="evenodd" d="M144.598 46.4981C144.537 46.4888 144.481 46.5305 144.47 46.5907C144.096 48.695 142.35 50.2238 140.274 50.4668C138.195 50.71 135.755 49.6628 134.05 46.5213C134.021 46.4676 133.954 46.4462 133.9 46.4748L133.769 46.544C133.715 46.5726 133.695 46.6404 133.724 46.6941C135.488 49.9461 138.062 51.0969 140.317 50.833C142.223 50.6099 143.88 49.3738 144.57 47.5952C144.609 47.4962 144.76 47.4931 144.803 47.5901C145.603 49.3848 147.633 50.6102 149.756 50.8298C151.022 50.9607 152.339 50.7382 153.476 50.0571C154.592 49.389 155.523 48.2865 156.062 46.6707C156.081 46.6128 156.049 46.5503 155.991 46.5317L155.85 46.4869C155.792 46.4684 155.73 46.5008 155.71 46.5587C155.197 48.0947 154.32 49.122 153.287 49.7407C152.228 50.3749 150.993 50.587 149.794 50.463C147.422 50.2176 145.26 48.6727 144.875 46.5905C144.864 46.5305 144.807 46.4888 144.747 46.4981L144.689 46.507C144.678 46.5087 144.667 46.5087 144.656 46.507L144.598 46.4981Z" fill="#191D5D"/>
<path d="M140.274 50.4668L140.202 49.854L140.274 50.4668ZM140.317 50.833L140.388 51.4458L140.317 50.833ZM149.756 50.8298L149.82 50.216L149.756 50.8298ZM153.476 50.0571L153.793 50.5864L153.793 50.5864L153.476 50.0571ZM153.287 49.7407L153.604 50.27L153.287 49.7407ZM149.794 50.463L149.731 51.0767V51.0767L149.794 50.463ZM155.85 46.4869L156.037 45.8991L155.85 46.4869ZM155.71 46.5587L155.125 46.3631L155.71 46.5587ZM144.57 47.5952L145.146 47.8186L144.57 47.5952ZM144.803 47.5901L145.366 47.3388L144.803 47.5901ZM156.062 46.6707L156.647 46.866L156.062 46.6707ZM144.689 46.507L144.595 45.8972L144.689 46.507ZM144.656 46.507L144.749 45.8972L144.656 46.507ZM134.05 46.5213L133.508 46.8156L134.05 46.5213ZM133.9 46.4748L133.61 45.9298L133.9 46.4748ZM144.875 46.5905L144.268 46.7029L144.875 46.5905ZM144.747 46.4981L144.653 45.8883L144.747 46.4981ZM144.598 46.4981L144.504 47.1079L144.598 46.4981ZM140.346 51.0796C142.674 50.8071 144.653 49.0886 145.078 46.6988L143.863 46.4826C143.539 48.3014 142.026 49.6405 140.202 49.854L140.346 51.0796ZM133.508 46.8156C135.311 50.1389 137.974 51.357 140.346 51.0796L140.202 49.854C138.416 50.0629 136.199 49.1867 134.592 46.227L133.508 46.8156ZM134.058 47.089L134.189 47.0199L133.61 45.9298L133.48 45.9989L134.058 47.089ZM140.245 50.2202C138.284 50.4498 135.932 49.4706 134.267 46.4L133.182 46.9883C135.044 50.4217 137.84 51.744 140.388 51.4458L140.245 50.2202ZM143.995 47.3718C143.391 48.9282 141.935 50.0225 140.245 50.2202L140.388 51.4458C142.512 51.1973 144.368 49.8195 145.146 47.8186L143.995 47.3718ZM144.239 47.8415C145.151 49.8856 147.408 51.2072 149.693 51.4435L149.82 50.216C147.859 50.0132 146.056 48.8839 145.366 47.3388L144.239 47.8415ZM149.693 51.4435C151.071 51.586 152.525 51.346 153.793 50.5864L153.159 49.5278C152.153 50.1304 150.974 50.3354 149.82 50.216L149.693 51.4435ZM153.793 50.5864C155.044 49.8372 156.065 48.6114 156.647 46.866L155.476 46.4754C154.98 47.9616 154.139 48.9408 153.159 49.5278L153.793 50.5864ZM156.178 45.9439L156.037 45.8991L155.663 47.0748L155.803 47.1196L156.178 45.9439ZM155.125 46.3631C154.655 47.7695 153.868 48.6736 152.97 49.2114L153.604 50.27C154.772 49.5703 155.739 48.4199 156.295 46.7544L155.125 46.3631ZM152.97 49.2114C152.042 49.7671 150.945 49.9617 149.858 49.8493L149.731 51.0767C151.042 51.2122 152.414 50.9827 153.604 50.27L152.97 49.2114ZM149.858 49.8493C147.658 49.6217 145.801 48.2038 145.481 46.4782L144.268 46.7029C144.72 49.1415 147.187 50.8135 149.731 51.0767L149.858 49.8493ZM144.653 45.8883L144.595 45.8972L144.783 47.1168L144.841 47.1079L144.653 45.8883ZM144.504 47.1079L144.562 47.1168L144.749 45.8972L144.692 45.8883L144.504 47.1079ZM156.037 45.8991C155.651 45.7759 155.249 45.9922 155.125 46.3631L156.295 46.7544C156.21 47.0094 155.933 47.1609 155.663 47.0748L156.037 45.8991ZM145.146 47.8186C145.057 48.0462 144.849 48.1328 144.698 48.136C144.548 48.1392 144.338 48.0623 144.239 47.8415L145.366 47.3388C145.225 47.0209 144.918 46.8971 144.672 46.9023C144.425 46.9076 144.122 47.0452 143.995 47.3718L145.146 47.8186ZM156.647 46.866C156.776 46.4783 156.56 46.0658 156.178 45.9439L155.803 47.1196C155.537 47.0348 155.386 46.7473 155.476 46.4754L156.647 46.866ZM133.48 45.9989C133.12 46.1898 132.991 46.6359 133.182 46.9883L134.267 46.4C134.4 46.645 134.31 46.9554 134.058 47.089L133.48 45.9989ZM144.595 45.8972C144.646 45.8894 144.698 45.8894 144.749 45.8972L144.562 47.1168C144.635 47.1281 144.71 47.1281 144.783 47.1168L144.595 45.8972ZM134.592 46.227C134.407 45.8854 133.973 45.7375 133.61 45.9298L134.189 47.0199C133.934 47.1549 133.635 47.0498 133.508 46.8156L134.592 46.227ZM145.481 46.4782C145.412 46.1034 145.056 45.8263 144.653 45.8883L144.841 47.1079C144.559 47.1513 144.315 46.9576 144.268 46.7029L145.481 46.4782ZM145.078 46.6988C145.032 46.9576 144.786 47.1513 144.504 47.1079L144.692 45.8883C144.289 45.8264 143.93 46.1035 143.863 46.4826L145.078 46.6988Z" fill="#191D5D"/>
<path d="M157.912 23.6251C157.159 19.009 158.399 8.04725 169.387 1.12878" stroke="#4344C6" stroke-width="1.35656" stroke-linecap="round"/>
<path d="M153.391 23.2297C152.449 20.2716 151.13 13.0554 153.391 7.85529" stroke="#4344C6" stroke-width="1.35656" stroke-linecap="round"/>
<path d="M133.381 23.6251C134.134 19.009 132.894 8.04725 121.906 1.12878" stroke="#4344C6" stroke-width="1.35656" stroke-linecap="round"/>
<path d="M137.902 23.2297C138.844 20.2716 140.163 13.0554 137.902 7.85529" stroke="#4344C6" stroke-width="1.35656" stroke-linecap="round"/>
<path d="M162.715 46.4621C165.573 46.4621 167.891 45.1379 167.891 43.5045C167.891 41.871 165.573 40.5469 162.715 40.5469C159.856 40.5469 157.539 41.871 157.539 43.5045C157.539 45.1379 159.856 46.4621 162.715 46.4621Z" fill="#D5FAFC"/>
<path d="M164.114 42.8386C170.017 39.39 177.65 35.6754 190.645 41.7795" stroke="#4344C6" stroke-width="1.35656" stroke-linecap="round"/>
<path d="M165.962 45.2419C169.684 44.2533 176.278 44.2086 181.387 48.3914" stroke="#4344C6" stroke-width="1.35656" stroke-linecap="round"/>
<path d="M127.055 46.4621C129.913 46.4621 132.231 45.1379 132.231 43.5045C132.231 41.871 129.913 40.5469 127.055 40.5469C124.196 40.5469 121.879 41.871 121.879 43.5045C121.879 45.1379 124.196 46.4621 127.055 46.4621Z" fill="#D5FAFC"/>
<path d="M126.225 42.8386C120.323 39.39 112.69 35.6754 99.6953 41.7795" stroke="#4344C6" stroke-width="1.35656" stroke-linecap="round"/>
<path d="M124.382 45.2419C120.66 44.2533 114.066 44.2086 108.957 48.3914" stroke="#4344C6" stroke-width="1.35656" stroke-linecap="round"/>
<path d="M133.542 38.4132C137.533 38.4132 140.768 36.0273 140.768 33.0842C140.768 30.141 137.533 27.7552 133.542 27.7552C129.551 27.7552 126.316 30.141 126.316 33.0842C126.316 36.0273 129.551 38.4132 133.542 38.4132Z" fill="#D5FAFC" stroke="#191D5D" stroke-width="1.44515" stroke-miterlimit="10"/>
<path d="M135.803 37.3293C138.048 37.3293 139.867 35.5096 139.867 33.2648C139.867 31.0201 138.048 29.2003 135.803 29.2003C133.558 29.2003 131.738 31.0201 131.738 33.2648C131.738 35.5096 133.558 37.3293 135.803 37.3293Z" fill="#191D5D" stroke="#191D5D" stroke-width="1.44515" stroke-miterlimit="10"/>
<path d="M130.918 33.5358C131.766 33.5358 132.454 32.8484 132.454 32.0004C132.454 31.1523 131.766 30.4649 130.918 30.4649C130.07 30.4649 129.383 31.1523 129.383 32.0004C129.383 32.8484 130.07 33.5358 130.918 33.5358Z" fill="white"/>
<path d="M156.452 38.4132C160.443 38.4132 163.678 36.0273 163.678 33.0842C163.678 30.141 160.443 27.7552 156.452 27.7552C152.462 27.7552 149.227 30.141 149.227 33.0842C149.227 36.0273 152.462 38.4132 156.452 38.4132Z" fill="#D5FAFC" stroke="#191D5D" stroke-width="1.44515" stroke-miterlimit="10"/>
<path d="M158.713 37.3293C160.958 37.3293 162.777 35.5096 162.777 33.2648C162.777 31.0201 160.958 29.2003 158.713 29.2003C156.468 29.2003 154.648 31.0201 154.648 33.2648C154.648 35.5096 156.468 37.3293 158.713 37.3293Z" fill="#191D5D" stroke="#191D5D" stroke-width="1.44515" stroke-miterlimit="10"/>
<path d="M153.828 33.5358C154.676 33.5358 155.364 32.8484 155.364 32.0004C155.364 31.1523 154.676 30.4649 153.828 30.4649C152.98 30.4649 152.293 31.1523 152.293 32.0004C152.293 32.8484 152.98 33.5358 153.828 33.5358Z" fill="white"/>
<path d="M146.154 89.5126C139.824 92.3946 131.036 91.2601 125.861 86.9661C118.327 80.7156 119.813 70.8832 120.044 69.5153C120.176 68.7309 121.849 60.0002 129.386 56.295C132.681 54.6751 138.972 53.0957 141.197 56.1188C142.79 58.2834 141.997 62.3993 139.786 64.2272C138.235 65.5105 135.99 65.6638 133.793 65.8136C132.781 65.8824 131.932 65.8542 131.325 65.8136C130.86 66.5364 129.635 68.6498 129.915 71.4543C130.003 72.3392 130.241 74.7118 132.207 76.3899C133.326 77.3453 134.304 77.8417 134.97 77.9686" fill="#BEDCFC"/>
<path d="M146.154 89.5126C139.824 92.3946 131.036 91.2601 125.861 86.9661C118.327 80.7156 119.813 70.8832 120.044 69.5153C120.176 68.7309 121.849 60.0002 129.386 56.295C132.681 54.6751 138.972 53.0957 141.197 56.1188C142.79 58.2834 141.997 62.3993 139.786 64.2272C138.235 65.5105 135.99 65.6638 133.793 65.8136C132.781 65.8824 131.932 65.8542 131.325 65.8136C130.86 66.5364 129.635 68.6498 129.915 71.4543C130.003 72.3392 130.241 74.7118 132.207 76.3899C133.326 77.3453 134.304 77.8417 134.97 77.9686" stroke="#4344C6" stroke-width="2.33762" stroke-miterlimit="10" stroke-linecap="round" stroke-linejoin="round"/>
<path d="M135.07 77.247C136.29 81.0439 142.552 86.6922 146.254 89.5125" stroke="#4344C6" stroke-width="1.41017" stroke-miterlimit="10" stroke-linecap="round" stroke-linejoin="round"/>
</svg>
