<svg width="345" height="100" viewBox="0 0 345 100" fill="none" xmlns="http://www.w3.org/2000/svg">
<path fill-rule="evenodd" clip-rule="evenodd" d="M-150 77L-111.208 81C-72.4167 93.3932 5.16667 94.0338 82.75 87.8371C160.333 81.6405 237.917 44.4608 315.5 22.7726C393.083 1.08441 470.667 -5.11222 548.25 4.18272C625.833 13.4777 703.417 38.2642 742.208 50.6574L781 63.0506V156H742.208C703.417 156 625.833 156 548.25 156C470.667 156 393.083 156 315.5 156C237.917 156 160.333 156 82.75 156C5.16667 156 -72.4167 156 -111.208 156H-150V77Z" fill="#828CFC"/>
<path d="M227.271 53.4223C226.804 52.4814 226.045 51.2158 224.84 49.9502C223.851 48.9121 222.858 48.1864 222.062 47.6934" stroke="#191D5D" stroke-width="1.42118" stroke-miterlimit="10" stroke-linecap="round" stroke-linejoin="round"/>
<path d="M192.278 121.996C191.969 121.991 191.7 121.783 191.619 121.484C191.582 121.352 190.764 118.217 192.994 115.797C194.129 114.564 195.749 113.858 197.44 113.858C197.691 113.858 197.943 113.873 198.195 113.905C198.502 112.599 198.736 111.267 198.893 109.936C199.637 103.598 198.466 98.4641 197.69 95.0684C197.657 94.9226 197.627 94.801 197.617 94.7576C197.617 94.7576 197.613 94.7403 197.611 94.7385C197.231 93.1502 196.777 91.6261 196.255 90.1798C195.559 88.2508 194.074 86.4697 192.023 86.4697C191.471 86.4697 190.933 86.553 190.422 86.7197C189.394 87.0546 188.825 88.0812 188.628 89.1445C187.782 93.7129 186.908 98.2031 186.027 102.518C185.61 104.558 185.468 105.269 185.209 106.554C184.268 111.247 183.614 116.05 183.261 120.831C183.235 121.191 182.938 121.47 182.579 121.475C182.579 121.475 170.42 121.649 170.416 121.649C170.151 121.649 169.908 121.496 169.791 121.257C169.654 120.97 168.487 118.394 169.996 115.908C170.989 114.271 172.836 113.254 174.819 113.254C174.831 113.254 174.843 113.254 174.855 113.254C174.407 108.709 173.715 104.471 172.795 100.648C172.404 99.0283 171.883 97.0249 170.977 94.4503C170.918 94.2819 170.166 92.348 169.083 89.8047C168.045 87.3673 165.398 86.081 162.792 86.5583C160.912 86.9026 159.022 87.1988 157.139 87.4436C156.337 87.5482 155.529 87.6444 154.72 87.732C152.21 88.0036 150.091 89.7843 149.559 92.2526C149.445 92.7819 149.333 93.3117 149.222 93.841C148.518 97.2193 148.148 99.3564 147.851 101.075C147.45 103.386 147.186 104.914 146.434 107.601C146.061 108.938 145.37 111.109 143.997 115.436C143.481 117.059 142.955 118.696 142.433 120.302C142.339 120.588 142.073 120.781 141.773 120.781H130.315C129.997 120.781 129.72 120.566 129.642 120.257C129.607 120.116 128.798 116.783 131.197 114.229C132.846 112.474 134.947 112.212 136.053 112.212C136.103 112.212 136.153 112.212 136.202 112.214C136.115 108.846 135.832 105.459 135.357 102.131C135.047 99.9639 134.652 97.7921 134.178 95.6438C133.768 93.7865 132.845 92.0793 131.509 90.7257C129.317 88.5058 127.459 86.9229 125.965 86.0044C125.265 85.5739 123.425 84.3552 121.473 82.3414C121.166 82.0237 120.876 81.6852 120.562 81.272C119.394 79.7356 118.423 77.7356 117.673 75.3295C116.258 70.7793 115.899 65.7135 116.606 60.2779C116.616 60.1928 116.644 60.1095 116.685 60.0349C123.187 48.1464 125.749 46.6204 127.253 46.6204C127.456 46.6204 127.654 46.6534 127.84 46.7176C128.077 46.8009 128.228 46.912 128.293 46.9589C130.383 48.4918 138.839 51.9796 146.886 52.9066C148.676 53.1132 150.778 53.332 153.066 53.332C156.847 53.332 160.283 52.7278 163.567 51.4848C166.432 50.4015 168.397 49.1047 170.296 47.8495C172.885 46.1412 175.562 44.3757 180.407 43.1986C182.681 42.6466 184.791 42.3775 186.853 42.3775C187.61 42.3775 188.381 42.4139 189.143 42.4869C191.733 42.7351 193.86 43.5919 196.69 44.433L197.176 44.556C199.182 45.0634 201.262 45.5331 203.282 45.0847C208.801 43.8593 213.071 38.4884 214.729 33.2545C216.368 28.0811 216.055 19.3106 210.226 16.0155C208.844 15.2343 207.245 14.8385 205.474 14.8385C201.617 14.8385 197.74 16.6752 195.398 18.3957C193.24 19.9789 192.03 21.7462 191.228 22.9163C190.575 23.8694 190.181 24.4441 189.535 24.4441C189.41 24.4441 189.287 24.4198 189.171 24.3694C188.692 24.1663 188.403 23.6246 188.268 22.6611C187.855 19.7428 188.952 11.731 194.893 6.92557C197.728 4.63398 201.209 3.47083 205.238 3.47083C210.417 3.47083 214.847 5.41694 215.682 5.80755C221.154 8.36302 225.197 12.9931 227.697 19.5675C230.487 26.9041 229.117 33.2806 228.602 35.6815C226.586 45.0666 219.453 52.4119 218.645 53.2191C218.573 53.292 218.487 53.3788 218.392 53.4761C217.456 54.4361 215.35 56.5975 212.024 58.0957C212.206 58.4308 212.371 58.7571 212.524 59.0835C212.588 59.2102 213.272 60.5904 213.783 62.2431C214.172 63.5018 214.962 69.5693 215.029 77.8936C215.029 77.9197 215.028 77.9457 215.026 77.9735C214.628 81.6938 214.1 85.4472 213.456 89.1311C212.66 93.6813 211.663 98.2558 210.493 102.728C210.489 102.743 210.484 102.759 210.479 102.775L204.056 121.698C203.96 121.979 203.695 122.168 203.398 122.168C203.396 122.17 192.278 121.996 192.278 121.996Z" fill="#BEDCFC"/>
<path d="M211.122 90.7784C208.882 89.7506 206.435 89.1847 203.871 89.1847C201.822 89.1847 199.849 89.5475 197.995 90.2159C198.371 91.4693 198.747 92.9189 199.085 94.5786C199.088 94.5942 199.117 94.7366 199.151 94.9137C199.866 98.5993 200.815 103.688 200.184 110.017C199.984 112.012 199.678 113.634 199.446 114.705C197.834 114.246 196.135 114.844 195.021 116.267C193.361 118.389 193.948 121.128 193.988 121.302C197.135 121.359 200.282 121.418 203.429 121.475C205.247 115.168 207.068 108.859 208.886 102.552C209.699 98.8979 210.46 94.9675 211.122 90.7784Z" fill="#D5FAFC"/>
<path d="M189.443 23.7306C190.174 24.0379 191.155 20.6526 194.99 17.8367C196.62 16.6389 198.986 15.3837 201.58 14.6893C200.377 11.547 197.71 9.12696 194.412 8.27283C188.445 13.9549 188.297 23.2463 189.443 23.7306Z" fill="#D5FAFC"/>
<mask id="path-6-outside-1_512_10322" maskUnits="userSpaceOnUse" x="114.551" y="1.77649" width="117" height="122" fill="black">
<rect fill="white" x="114.551" y="1.77649" width="117" height="122"/>
<path d="M205.237 4.16533C210.367 4.16533 214.742 6.13575 215.386 6.43609C223.379 10.1686 226.247 17.7135 227.046 19.8141C229.709 26.8156 228.48 32.9282 227.921 35.5358C225.964 44.6466 218.976 51.905 218.152 52.7279C217.341 53.5385 215.289 55.8495 211.798 57.4369C211.401 57.6173 211.236 58.1008 211.443 58.4845C211.614 58.8024 211.762 59.0983 211.894 59.3797C211.897 59.386 211.9 59.3913 211.903 59.3975C211.962 59.5156 212.627 60.8615 213.117 62.448C213.47 63.5886 214.265 69.5988 214.333 77.8989C213.958 81.4127 213.449 85.1261 212.77 89.0096C211.921 93.8636 210.909 98.386 209.819 102.551C207.734 108.695 205.647 114.84 203.562 120.984C203.463 121.276 203.186 121.471 202.878 121.466C199.526 121.414 196.172 121.36 192.82 121.308C192.503 121.304 192.228 121.09 192.185 120.775C192.058 119.847 192.016 117.878 193.5 116.266C194.519 115.16 195.955 114.55 197.434 114.55C197.628 114.55 197.822 114.561 198.017 114.582C198.404 114.624 198.786 114.4 198.875 114.021C199.116 112.991 199.387 111.625 199.576 110.016C200.319 103.686 199.203 98.5978 198.361 94.9122C198.321 94.7351 198.286 94.5928 198.283 94.5771C197.565 91.5822 196.702 89.2639 195.957 87.5728C195.72 87.0358 195.315 86.5835 194.775 86.3561C194.11 86.0766 193.136 85.7736 192.017 85.7736C191.443 85.7736 190.83 85.8535 190.201 86.0583C189.815 86.1832 189.471 86.3399 189.167 86.509C188.571 86.8404 188.224 87.4698 188.101 88.1405C186.994 94.1545 186.035 98.9775 185.34 102.377C184.924 104.419 184.78 105.131 184.523 106.417C183.505 111.492 182.931 116.112 182.612 120.131C182.583 120.498 182.28 120.783 181.912 120.789C178.229 120.841 174.545 120.894 170.863 120.947C170.587 120.95 170.333 120.795 170.242 120.534C169.966 119.739 169.555 117.961 170.584 116.266C171.464 114.816 173.081 113.946 174.813 113.946C175.224 113.946 175.583 113.614 175.542 113.205C175.232 110.053 174.636 105.347 173.462 100.483C173.077 98.8843 172.549 96.8462 171.626 94.2178C171.561 94.0338 170.808 92.0963 169.716 89.5304C169.316 88.5903 168.937 87.7239 168.588 86.9427C168.04 85.7151 166.696 85.0637 165.38 85.3389C162.777 85.8835 159.993 86.3679 157.043 86.7528C155.318 86.9773 153.643 87.154 152.022 87.2905C150.777 87.3953 149.727 88.2773 149.451 89.4958C149.183 90.6753 148.87 92.0958 148.536 93.697C146.887 101.606 147.059 102.766 145.759 107.412C145.387 108.736 144.701 110.899 143.328 115.224C142.77 116.98 142.289 118.474 141.925 119.594C141.83 119.887 141.557 120.085 141.25 120.085C137.786 120.085 134.322 120.085 130.859 120.085C130.535 120.085 130.252 119.866 130.212 119.544C130.091 118.558 130.069 116.435 131.697 114.703C133.144 113.162 134.981 112.905 136.045 112.905C136.492 112.905 136.898 112.552 136.886 112.105C136.806 109.058 136.557 105.675 136.037 102.03C135.586 98.8721 134.995 95.9662 134.345 93.3414C134.205 92.7761 133.921 92.2555 133.524 91.8288C129.979 88.0111 127.786 86.0815 126.36 85.2049C125.848 84.8906 123.952 83.9091 121.962 81.8571C121.679 81.5654 121.407 81.246 121.107 80.8502C120.52 80.0794 119.341 78.3781 118.329 75.1212C116.59 69.5268 116.816 64.0815 117.27 60.4959C117.282 60.4084 117.309 60.3251 117.351 60.2478C120.902 53.7663 124.964 47.3114 127.245 47.3114C127.37 47.3114 127.49 47.3305 127.603 47.3704C127.745 47.4191 127.83 47.485 127.875 47.518C130.052 49.1152 138.63 52.6532 146.798 53.5942C148.63 53.8042 150.738 54.0247 153.059 54.0247C156.288 54.0247 159.93 53.5994 163.807 52.1324C170.667 49.5353 172.299 45.8792 180.565 43.8723C182.778 43.3341 184.827 43.072 186.847 43.072C187.59 43.072 188.33 43.1084 189.071 43.1779C192.26 43.4817 194.793 44.3688 196.449 45.0875C197.408 45.3635 198.367 45.6395 199.326 45.9163C199.814 46.0576 200.329 46.0973 200.829 46.0034C207.779 44.6987 213.396 39.7435 215.386 33.4647C217.26 27.5499 216.416 18.7204 210.564 15.4115C208.968 14.5087 207.223 14.1442 205.47 14.1442C201.463 14.1442 197.41 16.0538 194.983 17.835C191.311 20.5311 190.255 23.748 189.531 23.748C189.498 23.748 189.467 23.741 189.436 23.7289C188.234 23.222 188.455 13.0209 195.325 7.46383C198.43 4.95523 201.986 4.16533 205.237 4.16533ZM205.237 2.77649C201.045 2.77649 197.416 3.98999 194.455 6.38574C191.099 9.09919 189.399 12.6685 188.563 15.184C187.5 18.3853 187.356 21.196 187.578 22.7584C187.641 23.2046 187.833 24.5605 188.898 25.0101C189.101 25.0952 189.314 25.1386 189.533 25.1386C190.545 25.1386 191.097 24.3313 191.799 23.3088C192.573 22.1786 193.745 20.4703 195.807 18.9565C197.956 17.3784 201.779 15.5347 205.472 15.5347C207.121 15.5347 208.605 15.901 209.881 16.6232C212.819 18.2846 214.024 21.4165 214.515 23.7497C215.14 26.7097 214.971 30.187 214.063 33.048C212.277 38.6862 207.32 43.002 200.977 44.5236C200.426 44.6555 199.852 44.6256 199.308 44.4688L196.92 43.7803C194.448 42.7178 191.852 42.0512 189.205 41.7977C188.42 41.7231 187.629 41.6849 186.847 41.6849C184.729 41.6849 182.566 41.9592 180.238 42.5251C175.277 43.7299 172.548 45.5302 169.91 47.2715C167.956 48.5614 166.11 49.7801 163.317 50.8356C160.112 52.0491 156.756 52.6376 153.06 52.6376C150.807 52.6376 148.729 52.4206 146.958 52.2158C142.498 51.7019 138.292 50.4519 135.549 49.4919C132.072 48.2767 129.601 47.0614 128.697 46.3983C128.613 46.3358 128.395 46.176 128.059 46.0597C127.801 45.9694 127.527 45.9226 127.245 45.9226C125.664 45.9226 123.928 47.36 121.614 50.5821C120.049 52.7626 118.183 55.8285 116.067 59.6964C115.984 59.8474 115.93 60.0124 115.909 60.1842C115.188 65.7205 115.556 70.8853 117.001 75.5327C117.784 78.0517 118.765 80.0655 119.999 81.6904C120.331 82.1262 120.638 82.4873 120.964 82.8241C122.971 84.8952 124.869 86.1504 125.591 86.5948C127.311 87.6511 129.549 89.6374 132.252 92.5063C132.657 92.9368 132.944 93.4655 133.084 94.0401C133.74 96.7382 134.268 99.4864 134.66 102.226C135.067 105.074 135.332 107.968 135.452 110.853C135.468 111.235 135.176 111.555 134.798 111.614C133.569 111.808 131.999 112.351 130.683 113.752C128.072 116.531 128.862 120.035 128.959 120.425C129.115 121.042 129.669 121.474 130.306 121.474H141.764C142.365 121.474 142.899 121.087 143.085 120.515C143.608 118.908 144.135 117.269 144.651 115.646C146.028 111.311 146.719 109.136 147.095 107.787C147.857 105.065 148.123 103.525 148.528 101.191C148.824 99.4798 149.192 97.3479 149.896 93.9817C150.224 92.4088 150.568 90.8302 150.926 89.2728C150.995 88.9695 151.254 88.7477 151.565 88.7232C153.455 88.5743 155.351 88.376 157.222 88.1312C159.678 87.8114 162.144 87.4054 164.587 86.9194C165.903 86.6576 167.239 87.3197 167.777 88.5489C168 89.0576 168.22 89.567 168.437 90.0756C169.485 92.539 170.24 94.4747 170.315 94.6813C171.209 97.2246 171.725 99.2072 172.112 100.81C172.929 104.2 173.566 107.921 174.008 111.898C174.051 112.286 173.77 112.63 173.389 112.716C171.73 113.089 170.271 114.105 169.395 115.547C167.695 118.347 169.003 121.238 169.157 121.559C169.39 122.04 169.876 122.344 170.407 122.344C170.414 122.344 170.421 122.344 170.426 122.344L182.578 122.17C183.299 122.16 183.891 121.601 183.943 120.884C184.294 116.13 184.945 111.356 185.88 106.691C186.134 105.429 186.275 104.73 186.696 102.657C187.591 98.2741 188.478 93.7113 189.337 89.0691C189.476 88.3197 189.902 87.6144 190.627 87.3795C191.068 87.2354 191.535 87.1642 192.014 87.1642C192.575 87.1642 193.1 87.2633 193.551 87.396C194.194 87.5849 194.675 88.0995 194.933 88.7177C195.731 90.6267 196.401 92.7001 196.929 94.9018L196.93 94.9122C196.937 94.9434 196.969 95.0684 197.003 95.223C197.767 98.5718 198.923 103.634 198.192 109.856C198.07 110.896 197.9 111.936 197.684 112.963C197.659 113.082 197.552 113.165 197.43 113.165C195.547 113.165 193.74 113.953 192.474 115.328C190.031 117.981 190.84 121.297 190.939 121.666C191.101 122.264 191.639 122.682 192.259 122.692L195.962 122.75L203.369 122.866C203.376 122.866 203.383 122.866 203.392 122.866C203.986 122.866 204.515 122.488 204.706 121.923L206.847 115.616L211.13 103C211.14 102.969 211.15 102.938 211.157 102.905C212.333 98.4156 213.334 93.822 214.133 89.2509C214.78 85.5514 215.31 81.7824 215.708 78.0482C215.713 77.9961 215.716 77.9423 215.714 77.8902C215.647 69.4947 214.836 63.3317 214.437 62.0401C213.923 60.3752 213.235 58.9742 213.142 58.785C213.047 58.5805 213.128 58.3352 213.328 58.2303C216.181 56.7312 218.015 54.8486 218.879 53.9622C218.971 53.8667 219.055 53.7834 219.126 53.7105C219.947 52.8893 227.212 45.407 229.27 35.8274C229.797 33.3727 231.198 26.8503 228.336 19.3211C227.924 18.2378 226.959 15.6997 225.046 12.9445C222.641 9.48112 219.586 6.86836 215.966 5.17745C215.116 4.77642 210.564 2.77649 205.237 2.77649Z"/>
</mask>
<path d="M205.237 4.16533C210.367 4.16533 214.742 6.13575 215.386 6.43609C223.379 10.1686 226.247 17.7135 227.046 19.8141C229.709 26.8156 228.48 32.9282 227.921 35.5358C225.964 44.6466 218.976 51.905 218.152 52.7279C217.341 53.5385 215.289 55.8495 211.798 57.4369C211.401 57.6173 211.236 58.1008 211.443 58.4845C211.614 58.8024 211.762 59.0983 211.894 59.3797C211.897 59.386 211.9 59.3913 211.903 59.3975C211.962 59.5156 212.627 60.8615 213.117 62.448C213.47 63.5886 214.265 69.5988 214.333 77.8989C213.958 81.4127 213.449 85.1261 212.77 89.0096C211.921 93.8636 210.909 98.386 209.819 102.551C207.734 108.695 205.647 114.84 203.562 120.984C203.463 121.276 203.186 121.471 202.878 121.466C199.526 121.414 196.172 121.36 192.82 121.308C192.503 121.304 192.228 121.09 192.185 120.775C192.058 119.847 192.016 117.878 193.5 116.266C194.519 115.16 195.955 114.55 197.434 114.55C197.628 114.55 197.822 114.561 198.017 114.582C198.404 114.624 198.786 114.4 198.875 114.021C199.116 112.991 199.387 111.625 199.576 110.016C200.319 103.686 199.203 98.5978 198.361 94.9122C198.321 94.7351 198.286 94.5928 198.283 94.5771C197.565 91.5822 196.702 89.2639 195.957 87.5728C195.72 87.0358 195.315 86.5835 194.775 86.3561C194.11 86.0766 193.136 85.7736 192.017 85.7736C191.443 85.7736 190.83 85.8535 190.201 86.0583C189.815 86.1832 189.471 86.3399 189.167 86.509C188.571 86.8404 188.224 87.4698 188.101 88.1405C186.994 94.1545 186.035 98.9775 185.34 102.377C184.924 104.419 184.78 105.131 184.523 106.417C183.505 111.492 182.931 116.112 182.612 120.131C182.583 120.498 182.28 120.783 181.912 120.789C178.229 120.841 174.545 120.894 170.863 120.947C170.587 120.95 170.333 120.795 170.242 120.534C169.966 119.739 169.555 117.961 170.584 116.266C171.464 114.816 173.081 113.946 174.813 113.946C175.224 113.946 175.583 113.614 175.542 113.205C175.232 110.053 174.636 105.347 173.462 100.483C173.077 98.8843 172.549 96.8462 171.626 94.2178C171.561 94.0338 170.808 92.0963 169.716 89.5304C169.316 88.5903 168.937 87.7239 168.588 86.9427C168.04 85.7151 166.696 85.0637 165.38 85.3389C162.777 85.8835 159.993 86.3679 157.043 86.7528C155.318 86.9773 153.643 87.154 152.022 87.2905C150.777 87.3953 149.727 88.2773 149.451 89.4958C149.183 90.6753 148.87 92.0958 148.536 93.697C146.887 101.606 147.059 102.766 145.759 107.412C145.387 108.736 144.701 110.899 143.328 115.224C142.77 116.98 142.289 118.474 141.925 119.594C141.83 119.887 141.557 120.085 141.25 120.085C137.786 120.085 134.322 120.085 130.859 120.085C130.535 120.085 130.252 119.866 130.212 119.544C130.091 118.558 130.069 116.435 131.697 114.703C133.144 113.162 134.981 112.905 136.045 112.905C136.492 112.905 136.898 112.552 136.886 112.105C136.806 109.058 136.557 105.675 136.037 102.03C135.586 98.8721 134.995 95.9662 134.345 93.3414C134.205 92.7761 133.921 92.2555 133.524 91.8288C129.979 88.0111 127.786 86.0815 126.36 85.2049C125.848 84.8906 123.952 83.9091 121.962 81.8571C121.679 81.5654 121.407 81.246 121.107 80.8502C120.52 80.0794 119.341 78.3781 118.329 75.1212C116.59 69.5268 116.816 64.0815 117.27 60.4959C117.282 60.4084 117.309 60.3251 117.351 60.2478C120.902 53.7663 124.964 47.3114 127.245 47.3114C127.37 47.3114 127.49 47.3305 127.603 47.3704C127.745 47.4191 127.83 47.485 127.875 47.518C130.052 49.1152 138.63 52.6532 146.798 53.5942C148.63 53.8042 150.738 54.0247 153.059 54.0247C156.288 54.0247 159.93 53.5994 163.807 52.1324C170.667 49.5353 172.299 45.8792 180.565 43.8723C182.778 43.3341 184.827 43.072 186.847 43.072C187.59 43.072 188.33 43.1084 189.071 43.1779C192.26 43.4817 194.793 44.3688 196.449 45.0875C197.408 45.3635 198.367 45.6395 199.326 45.9163C199.814 46.0576 200.329 46.0973 200.829 46.0034C207.779 44.6987 213.396 39.7435 215.386 33.4647C217.26 27.5499 216.416 18.7204 210.564 15.4115C208.968 14.5087 207.223 14.1442 205.47 14.1442C201.463 14.1442 197.41 16.0538 194.983 17.835C191.311 20.5311 190.255 23.748 189.531 23.748C189.498 23.748 189.467 23.741 189.436 23.7289C188.234 23.222 188.455 13.0209 195.325 7.46383C198.43 4.95523 201.986 4.16533 205.237 4.16533ZM205.237 2.77649C201.045 2.77649 197.416 3.98999 194.455 6.38574C191.099 9.09919 189.399 12.6685 188.563 15.184C187.5 18.3853 187.356 21.196 187.578 22.7584C187.641 23.2046 187.833 24.5605 188.898 25.0101C189.101 25.0952 189.314 25.1386 189.533 25.1386C190.545 25.1386 191.097 24.3313 191.799 23.3088C192.573 22.1786 193.745 20.4703 195.807 18.9565C197.956 17.3784 201.779 15.5347 205.472 15.5347C207.121 15.5347 208.605 15.901 209.881 16.6232C212.819 18.2846 214.024 21.4165 214.515 23.7497C215.14 26.7097 214.971 30.187 214.063 33.048C212.277 38.6862 207.32 43.002 200.977 44.5236C200.426 44.6555 199.852 44.6256 199.308 44.4688L196.92 43.7803C194.448 42.7178 191.852 42.0512 189.205 41.7977C188.42 41.7231 187.629 41.6849 186.847 41.6849C184.729 41.6849 182.566 41.9592 180.238 42.5251C175.277 43.7299 172.548 45.5302 169.91 47.2715C167.956 48.5614 166.11 49.7801 163.317 50.8356C160.112 52.0491 156.756 52.6376 153.06 52.6376C150.807 52.6376 148.729 52.4206 146.958 52.2158C142.498 51.7019 138.292 50.4519 135.549 49.4919C132.072 48.2767 129.601 47.0614 128.697 46.3983C128.613 46.3358 128.395 46.176 128.059 46.0597C127.801 45.9694 127.527 45.9226 127.245 45.9226C125.664 45.9226 123.928 47.36 121.614 50.5821C120.049 52.7626 118.183 55.8285 116.067 59.6964C115.984 59.8474 115.93 60.0124 115.909 60.1842C115.188 65.7205 115.556 70.8853 117.001 75.5327C117.784 78.0517 118.765 80.0655 119.999 81.6904C120.331 82.1262 120.638 82.4873 120.964 82.8241C122.971 84.8952 124.869 86.1504 125.591 86.5948C127.311 87.6511 129.549 89.6374 132.252 92.5063C132.657 92.9368 132.944 93.4655 133.084 94.0401C133.74 96.7382 134.268 99.4864 134.66 102.226C135.067 105.074 135.332 107.968 135.452 110.853C135.468 111.235 135.176 111.555 134.798 111.614C133.569 111.808 131.999 112.351 130.683 113.752C128.072 116.531 128.862 120.035 128.959 120.425C129.115 121.042 129.669 121.474 130.306 121.474H141.764C142.365 121.474 142.899 121.087 143.085 120.515C143.608 118.908 144.135 117.269 144.651 115.646C146.028 111.311 146.719 109.136 147.095 107.787C147.857 105.065 148.123 103.525 148.528 101.191C148.824 99.4798 149.192 97.3479 149.896 93.9817C150.224 92.4088 150.568 90.8302 150.926 89.2728C150.995 88.9695 151.254 88.7477 151.565 88.7232C153.455 88.5743 155.351 88.376 157.222 88.1312C159.678 87.8114 162.144 87.4054 164.587 86.9194C165.903 86.6576 167.239 87.3197 167.777 88.5489C168 89.0576 168.22 89.567 168.437 90.0756C169.485 92.539 170.24 94.4747 170.315 94.6813C171.209 97.2246 171.725 99.2072 172.112 100.81C172.929 104.2 173.566 107.921 174.008 111.898C174.051 112.286 173.77 112.63 173.389 112.716C171.73 113.089 170.271 114.105 169.395 115.547C167.695 118.347 169.003 121.238 169.157 121.559C169.39 122.04 169.876 122.344 170.407 122.344C170.414 122.344 170.421 122.344 170.426 122.344L182.578 122.17C183.299 122.16 183.891 121.601 183.943 120.884C184.294 116.13 184.945 111.356 185.88 106.691C186.134 105.429 186.275 104.73 186.696 102.657C187.591 98.2741 188.478 93.7113 189.337 89.0691C189.476 88.3197 189.902 87.6144 190.627 87.3795C191.068 87.2354 191.535 87.1642 192.014 87.1642C192.575 87.1642 193.1 87.2633 193.551 87.396C194.194 87.5849 194.675 88.0995 194.933 88.7177C195.731 90.6267 196.401 92.7001 196.929 94.9018L196.93 94.9122C196.937 94.9434 196.969 95.0684 197.003 95.223C197.767 98.5718 198.923 103.634 198.192 109.856C198.07 110.896 197.9 111.936 197.684 112.963C197.659 113.082 197.552 113.165 197.43 113.165C195.547 113.165 193.74 113.953 192.474 115.328C190.031 117.981 190.84 121.297 190.939 121.666C191.101 122.264 191.639 122.682 192.259 122.692L195.962 122.75L203.369 122.866C203.376 122.866 203.383 122.866 203.392 122.866C203.986 122.866 204.515 122.488 204.706 121.923L206.847 115.616L211.13 103C211.14 102.969 211.15 102.938 211.157 102.905C212.333 98.4156 213.334 93.822 214.133 89.2509C214.78 85.5514 215.31 81.7824 215.708 78.0482C215.713 77.9961 215.716 77.9423 215.714 77.8902C215.647 69.4947 214.836 63.3317 214.437 62.0401C213.923 60.3752 213.235 58.9742 213.142 58.785C213.047 58.5805 213.128 58.3352 213.328 58.2303C216.181 56.7312 218.015 54.8486 218.879 53.9622C218.971 53.8667 219.055 53.7834 219.126 53.7105C219.947 52.8893 227.212 45.407 229.27 35.8274C229.797 33.3727 231.198 26.8503 228.336 19.3211C227.924 18.2378 226.959 15.6997 225.046 12.9445C222.641 9.48112 219.586 6.86836 215.966 5.17745C215.116 4.77642 210.564 2.77649 205.237 2.77649Z" fill="#4344C6"/>
<path d="M205.237 4.16533C210.367 4.16533 214.742 6.13575 215.386 6.43609C223.379 10.1686 226.247 17.7135 227.046 19.8141C229.709 26.8156 228.48 32.9282 227.921 35.5358C225.964 44.6466 218.976 51.905 218.152 52.7279C217.341 53.5385 215.289 55.8495 211.798 57.4369C211.401 57.6173 211.236 58.1008 211.443 58.4845C211.614 58.8024 211.762 59.0983 211.894 59.3797C211.897 59.386 211.9 59.3913 211.903 59.3975C211.962 59.5156 212.627 60.8615 213.117 62.448C213.47 63.5886 214.265 69.5988 214.333 77.8989C213.958 81.4127 213.449 85.1261 212.77 89.0096C211.921 93.8636 210.909 98.386 209.819 102.551C207.734 108.695 205.647 114.84 203.562 120.984C203.463 121.276 203.186 121.471 202.878 121.466C199.526 121.414 196.172 121.36 192.82 121.308C192.503 121.304 192.228 121.09 192.185 120.775C192.058 119.847 192.016 117.878 193.5 116.266C194.519 115.16 195.955 114.55 197.434 114.55C197.628 114.55 197.822 114.561 198.017 114.582C198.404 114.624 198.786 114.4 198.875 114.021C199.116 112.991 199.387 111.625 199.576 110.016C200.319 103.686 199.203 98.5978 198.361 94.9122C198.321 94.7351 198.286 94.5928 198.283 94.5771C197.565 91.5822 196.702 89.2639 195.957 87.5728C195.72 87.0358 195.315 86.5835 194.775 86.3561C194.11 86.0766 193.136 85.7736 192.017 85.7736C191.443 85.7736 190.83 85.8535 190.201 86.0583C189.815 86.1832 189.471 86.3399 189.167 86.509C188.571 86.8404 188.224 87.4698 188.101 88.1405C186.994 94.1545 186.035 98.9775 185.34 102.377C184.924 104.419 184.78 105.131 184.523 106.417C183.505 111.492 182.931 116.112 182.612 120.131C182.583 120.498 182.28 120.783 181.912 120.789C178.229 120.841 174.545 120.894 170.863 120.947C170.587 120.95 170.333 120.795 170.242 120.534C169.966 119.739 169.555 117.961 170.584 116.266C171.464 114.816 173.081 113.946 174.813 113.946C175.224 113.946 175.583 113.614 175.542 113.205C175.232 110.053 174.636 105.347 173.462 100.483C173.077 98.8843 172.549 96.8462 171.626 94.2178C171.561 94.0338 170.808 92.0963 169.716 89.5304C169.316 88.5903 168.937 87.7239 168.588 86.9427C168.04 85.7151 166.696 85.0637 165.38 85.3389C162.777 85.8835 159.993 86.3679 157.043 86.7528C155.318 86.9773 153.643 87.154 152.022 87.2905C150.777 87.3953 149.727 88.2773 149.451 89.4958C149.183 90.6753 148.87 92.0958 148.536 93.697C146.887 101.606 147.059 102.766 145.759 107.412C145.387 108.736 144.701 110.899 143.328 115.224C142.77 116.98 142.289 118.474 141.925 119.594C141.83 119.887 141.557 120.085 141.25 120.085C137.786 120.085 134.322 120.085 130.859 120.085C130.535 120.085 130.252 119.866 130.212 119.544C130.091 118.558 130.069 116.435 131.697 114.703C133.144 113.162 134.981 112.905 136.045 112.905C136.492 112.905 136.898 112.552 136.886 112.105C136.806 109.058 136.557 105.675 136.037 102.03C135.586 98.8721 134.995 95.9662 134.345 93.3414C134.205 92.7761 133.921 92.2555 133.524 91.8288C129.979 88.0111 127.786 86.0815 126.36 85.2049C125.848 84.8906 123.952 83.9091 121.962 81.8571C121.679 81.5654 121.407 81.246 121.107 80.8502C120.52 80.0794 119.341 78.3781 118.329 75.1212C116.59 69.5268 116.816 64.0815 117.27 60.4959C117.282 60.4084 117.309 60.3251 117.351 60.2478C120.902 53.7663 124.964 47.3114 127.245 47.3114C127.37 47.3114 127.49 47.3305 127.603 47.3704C127.745 47.4191 127.83 47.485 127.875 47.518C130.052 49.1152 138.63 52.6532 146.798 53.5942C148.63 53.8042 150.738 54.0247 153.059 54.0247C156.288 54.0247 159.93 53.5994 163.807 52.1324C170.667 49.5353 172.299 45.8792 180.565 43.8723C182.778 43.3341 184.827 43.072 186.847 43.072C187.59 43.072 188.33 43.1084 189.071 43.1779C192.26 43.4817 194.793 44.3688 196.449 45.0875C197.408 45.3635 198.367 45.6395 199.326 45.9163C199.814 46.0576 200.329 46.0973 200.829 46.0034C207.779 44.6987 213.396 39.7435 215.386 33.4647C217.26 27.5499 216.416 18.7204 210.564 15.4115C208.968 14.5087 207.223 14.1442 205.47 14.1442C201.463 14.1442 197.41 16.0538 194.983 17.835C191.311 20.5311 190.255 23.748 189.531 23.748C189.498 23.748 189.467 23.741 189.436 23.7289C188.234 23.222 188.455 13.0209 195.325 7.46383C198.43 4.95523 201.986 4.16533 205.237 4.16533ZM205.237 2.77649C201.045 2.77649 197.416 3.98999 194.455 6.38574C191.099 9.09919 189.399 12.6685 188.563 15.184C187.5 18.3853 187.356 21.196 187.578 22.7584C187.641 23.2046 187.833 24.5605 188.898 25.0101C189.101 25.0952 189.314 25.1386 189.533 25.1386C190.545 25.1386 191.097 24.3313 191.799 23.3088C192.573 22.1786 193.745 20.4703 195.807 18.9565C197.956 17.3784 201.779 15.5347 205.472 15.5347C207.121 15.5347 208.605 15.901 209.881 16.6232C212.819 18.2846 214.024 21.4165 214.515 23.7497C215.14 26.7097 214.971 30.187 214.063 33.048C212.277 38.6862 207.32 43.002 200.977 44.5236C200.426 44.6555 199.852 44.6256 199.308 44.4688L196.92 43.7803C194.448 42.7178 191.852 42.0512 189.205 41.7977C188.42 41.7231 187.629 41.6849 186.847 41.6849C184.729 41.6849 182.566 41.9592 180.238 42.5251C175.277 43.7299 172.548 45.5302 169.91 47.2715C167.956 48.5614 166.11 49.7801 163.317 50.8356C160.112 52.0491 156.756 52.6376 153.06 52.6376C150.807 52.6376 148.729 52.4206 146.958 52.2158C142.498 51.7019 138.292 50.4519 135.549 49.4919C132.072 48.2767 129.601 47.0614 128.697 46.3983C128.613 46.3358 128.395 46.176 128.059 46.0597C127.801 45.9694 127.527 45.9226 127.245 45.9226C125.664 45.9226 123.928 47.36 121.614 50.5821C120.049 52.7626 118.183 55.8285 116.067 59.6964C115.984 59.8474 115.93 60.0124 115.909 60.1842C115.188 65.7205 115.556 70.8853 117.001 75.5327C117.784 78.0517 118.765 80.0655 119.999 81.6904C120.331 82.1262 120.638 82.4873 120.964 82.8241C122.971 84.8952 124.869 86.1504 125.591 86.5948C127.311 87.6511 129.549 89.6374 132.252 92.5063C132.657 92.9368 132.944 93.4655 133.084 94.0401C133.74 96.7382 134.268 99.4864 134.66 102.226C135.067 105.074 135.332 107.968 135.452 110.853C135.468 111.235 135.176 111.555 134.798 111.614C133.569 111.808 131.999 112.351 130.683 113.752C128.072 116.531 128.862 120.035 128.959 120.425C129.115 121.042 129.669 121.474 130.306 121.474H141.764C142.365 121.474 142.899 121.087 143.085 120.515C143.608 118.908 144.135 117.269 144.651 115.646C146.028 111.311 146.719 109.136 147.095 107.787C147.857 105.065 148.123 103.525 148.528 101.191C148.824 99.4798 149.192 97.3479 149.896 93.9817C150.224 92.4088 150.568 90.8302 150.926 89.2728C150.995 88.9695 151.254 88.7477 151.565 88.7232C153.455 88.5743 155.351 88.376 157.222 88.1312C159.678 87.8114 162.144 87.4054 164.587 86.9194C165.903 86.6576 167.239 87.3197 167.777 88.5489C168 89.0576 168.22 89.567 168.437 90.0756C169.485 92.539 170.24 94.4747 170.315 94.6813C171.209 97.2246 171.725 99.2072 172.112 100.81C172.929 104.2 173.566 107.921 174.008 111.898C174.051 112.286 173.77 112.63 173.389 112.716C171.73 113.089 170.271 114.105 169.395 115.547C167.695 118.347 169.003 121.238 169.157 121.559C169.39 122.04 169.876 122.344 170.407 122.344C170.414 122.344 170.421 122.344 170.426 122.344L182.578 122.17C183.299 122.16 183.891 121.601 183.943 120.884C184.294 116.13 184.945 111.356 185.88 106.691C186.134 105.429 186.275 104.73 186.696 102.657C187.591 98.2741 188.478 93.7113 189.337 89.0691C189.476 88.3197 189.902 87.6144 190.627 87.3795C191.068 87.2354 191.535 87.1642 192.014 87.1642C192.575 87.1642 193.1 87.2633 193.551 87.396C194.194 87.5849 194.675 88.0995 194.933 88.7177C195.731 90.6267 196.401 92.7001 196.929 94.9018L196.93 94.9122C196.937 94.9434 196.969 95.0684 197.003 95.223C197.767 98.5718 198.923 103.634 198.192 109.856C198.07 110.896 197.9 111.936 197.684 112.963C197.659 113.082 197.552 113.165 197.43 113.165C195.547 113.165 193.74 113.953 192.474 115.328C190.031 117.981 190.84 121.297 190.939 121.666C191.101 122.264 191.639 122.682 192.259 122.692L195.962 122.75L203.369 122.866C203.376 122.866 203.383 122.866 203.392 122.866C203.986 122.866 204.515 122.488 204.706 121.923L206.847 115.616L211.13 103C211.14 102.969 211.15 102.938 211.157 102.905C212.333 98.4156 213.334 93.822 214.133 89.2509C214.78 85.5514 215.31 81.7824 215.708 78.0482C215.713 77.9961 215.716 77.9423 215.714 77.8902C215.647 69.4947 214.836 63.3317 214.437 62.0401C213.923 60.3752 213.235 58.9742 213.142 58.785C213.047 58.5805 213.128 58.3352 213.328 58.2303C216.181 56.7312 218.015 54.8486 218.879 53.9622C218.971 53.8667 219.055 53.7834 219.126 53.7105C219.947 52.8893 227.212 45.407 229.27 35.8274C229.797 33.3727 231.198 26.8503 228.336 19.3211C227.924 18.2378 226.959 15.6997 225.046 12.9445C222.641 9.48112 219.586 6.86836 215.966 5.17745C215.116 4.77642 210.564 2.77649 205.237 2.77649Z" stroke="#4344C6" stroke-width="1.38136" mask="url(#path-6-outside-1_512_10322)"/>
<path d="M197.02 60.8872C198.198 62.2188 199.375 63.5486 200.554 64.8801" stroke="#191D5D" stroke-width="1.42118" stroke-miterlimit="10" stroke-linecap="round" stroke-linejoin="round"/>
<path d="M196.891 64.6178C198.243 63.4824 199.595 62.3488 200.95 61.2134" stroke="#191D5D" stroke-width="1.42118" stroke-miterlimit="10" stroke-linecap="round" stroke-linejoin="round"/>
<path d="M184.365 81.8934C181.317 81.8934 178.836 79.4126 178.836 76.3641V58.6043C178.836 55.5558 181.317 53.075 184.365 53.075H226.777C229.825 53.075 232.306 55.5558 232.306 58.6043V76.3641C232.306 79.4126 229.825 81.8934 226.777 81.8934H184.365Z" fill="#D0D4FF"/>
<path d="M226.78 53.7692C229.447 53.7692 231.615 55.9375 231.615 58.6041V76.3639C231.615 79.0305 229.447 81.1988 226.78 81.1988H184.368C181.702 81.1988 179.533 79.0305 179.533 76.3639V58.6041C179.533 55.9375 181.702 53.7692 184.368 53.7692H226.78ZM226.78 52.3804H184.368C180.931 52.3804 178.145 55.1667 178.145 58.6041V76.3639C178.145 79.8013 180.931 82.5877 184.368 82.5877H226.78C230.217 82.5877 233.004 79.8013 233.004 76.3639V58.6041C233.004 55.1667 230.217 52.3804 226.78 52.3804Z" fill="#191D5D"/>
<path d="M195.767 68.5311H195.123C194.699 68.5311 194.336 68.7932 194.187 69.163C194.083 69.1265 193.972 69.1022 193.855 69.1022H191.512C191.414 69.1022 191.322 69.1196 191.234 69.1456C191.138 68.6856 190.732 68.3401 190.244 68.3401H189.6C189.041 68.3401 188.59 68.7932 188.59 69.3505V73.4232C188.59 73.9823 189.043 74.4336 189.6 74.4336H190.244C190.803 74.4336 191.255 73.9805 191.255 73.4232V72.3018C191.338 72.3226 191.423 72.3382 191.512 72.3382H193.854C193.944 72.3382 194.029 72.3226 194.11 72.3018V73.6125C194.11 74.1715 194.564 74.6229 195.121 74.6229H195.765C196.324 74.6229 196.775 74.1697 196.775 73.6125V69.5397C196.777 68.9824 196.324 68.5311 195.767 68.5311Z" fill="#828CFC" stroke="#191D5D" stroke-width="1.42118" stroke-miterlimit="10" stroke-linecap="round" stroke-linejoin="round"/>
<path d="M215.532 58.2466C211.739 58.2466 208.555 61.1649 207.679 65.1022H188.297C187.195 65.1022 186.301 65.9963 186.301 67.0987V67.4858C186.301 68.5882 187.195 69.4823 188.297 69.4823H207.679C208.555 73.4197 211.737 76.338 215.532 76.338C220.003 76.338 223.626 72.2878 223.626 67.2931C223.626 62.2985 220.003 58.2466 215.532 58.2466Z" fill="#828CFC" stroke="#191D5D" stroke-width="1.42118" stroke-miterlimit="10" stroke-linecap="round" stroke-linejoin="round"/>
<path d="M215.528 71.4543C213.549 71.4543 211.938 69.6176 211.938 67.3607C211.938 65.1038 213.549 63.2671 215.528 63.2671C217.507 63.2671 219.118 65.1038 219.118 67.3607C219.118 69.6176 217.507 71.4543 215.528 71.4543Z" fill="#D0D4FF"/>
<path d="M215.531 63.9599C217.128 63.9599 218.426 65.4859 218.426 67.3591C218.426 69.2323 217.128 70.7583 215.531 70.7583C213.934 70.7583 212.635 69.2323 212.635 67.3591C212.635 65.4859 213.934 63.9599 215.531 63.9599ZM215.531 62.571C213.164 62.571 211.246 64.7151 211.246 67.3591C211.246 70.0031 213.164 72.1471 215.531 72.1471C217.897 72.1471 219.815 70.0031 219.815 67.3591C219.815 64.7151 217.897 62.571 215.531 62.571Z" fill="#191D5D"/>
<path d="M183.699 52.7279C186.307 49.9485 188.812 48.051 190.643 46.8253C193.362 45.006 197.838 42.0825 204.185 41.27C206.218 41.0096 207.915 41.0339 209.046 41.0964" stroke="#191D5D" stroke-width="1.42118" stroke-miterlimit="10" stroke-linecap="round" stroke-linejoin="round"/>
<path d="M138.222 57.8457C134.103 56.0888 130 59.5383 129.596 59.889C125.395 58.3491 121.053 59.5296 118.699 62.8073C118.378 63.2552 118.11 63.7205 117.888 64.1944C117.864 67.1544 118.183 70.5883 119.27 74.0812C120.282 77.338 121.461 79.0394 122.048 79.8102C122.348 80.206 122.622 80.5254 122.903 80.8171C124.893 82.8691 126.749 84.0566 127.261 84.3708C127.398 84.4559 127.544 84.5479 127.697 84.6503C129.638 85.6954 130.955 86.5808 132.606 86.5808C135.218 86.6259 137.989 83.8911 140.192 80.5859C141.613 78.4542 143.627 74.8051 143.575 69.3869C143.561 68.1144 143.332 60.0227 138.222 57.8457Z" fill="#D5FAFC"/>
<path d="M148.389 52.5178C148.034 53.939 145.191 58.6669 140.217 60.6896C134.925 62.8417 130.98 63.1767 129.203 63.1767C123.535 62.9527 119.466 60.9464 117.77 59.7711" fill="#D0D4FF"/>
<path d="M148.389 52.5178C148.034 53.939 145.191 58.6669 140.217 60.6896C134.925 62.8417 130.98 63.1767 129.203 63.1767C123.535 62.9527 119.466 60.9464 117.77 59.7711" stroke="#191D5D" stroke-width="1.42118" stroke-miterlimit="10" stroke-linecap="round" stroke-linejoin="round"/>
<path d="M130.399 69.5675C131.933 69.5675 133.176 68.4016 133.176 66.9635C133.176 65.5253 131.933 64.3594 130.399 64.3594C128.865 64.3594 127.621 65.5253 127.621 66.9635C127.621 68.4016 128.865 69.5675 130.399 69.5675Z" fill="#828CFC"/>
<path d="M130.398 65.0536C131.549 65.0536 132.481 65.9078 132.481 66.9633C132.481 68.0188 131.549 68.8729 130.398 68.8729C129.247 68.8729 128.315 68.0188 128.315 66.9633C128.315 65.9078 129.247 65.0536 130.398 65.0536ZM130.398 63.6648C128.483 63.6648 126.926 65.1439 126.926 66.9633C126.926 68.7827 128.483 70.2618 130.398 70.2618C132.313 70.2618 133.87 68.7827 133.87 66.9633C133.87 65.1439 132.313 63.6648 130.398 63.6648Z" fill="#191D5D"/>
<path fill-rule="evenodd" clip-rule="evenodd" d="M101.408 29.6614C98.4176 24.499 93.5603 14.2475 95.2503 8.43659C96.2168 5.11358 104.048 10.5304 112.955 18.283C117.361 16.0371 122.542 14.7346 127.974 14.7346C133.435 14.7346 138.641 16.0508 143.062 18.3183C151.986 10.5469 159.839 5.10853 160.807 8.43659C162.509 14.2875 157.573 24.6401 154.588 29.767C155.648 32.0987 156.23 34.6062 156.23 37.2176C156.23 49.6346 143.076 59.7006 127.974 59.7006C112.872 59.7006 99.7182 49.6346 99.7182 37.2176C99.7182 34.5667 100.318 32.0229 101.408 29.6614Z" fill="#BEDCFC"/>
<path d="M95.2503 8.43659L96.4662 8.79021L95.2503 8.43659ZM101.408 29.6614L102.557 30.192L102.833 29.5954L102.503 29.0267L101.408 29.6614ZM112.955 18.283L112.123 19.2381L112.768 19.7993L113.53 19.4112L112.955 18.283ZM143.062 18.3183L142.484 19.4451L143.247 19.8363L143.894 19.2732L143.062 18.3183ZM160.807 8.43659L159.591 8.79021V8.79021L160.807 8.43659ZM154.588 29.767L153.494 29.13L153.165 29.6953L153.436 30.2908L154.588 29.767ZM94.0345 8.08298C93.0694 11.4013 93.9937 15.7525 95.3788 19.7105C96.7896 23.7421 98.7908 27.6696 100.312 30.296L102.503 29.0267C101.035 26.4908 99.112 22.7114 97.7691 18.874C96.4005 14.9629 95.7413 11.2829 96.4662 8.79021L94.0345 8.08298ZM113.786 17.3279C109.321 13.4416 105.067 10.0877 101.775 8.11956C100.154 7.15071 98.6324 6.43456 97.3721 6.23268C96.7335 6.13039 96.0231 6.13667 95.3775 6.44503C94.6794 6.77846 94.24 7.37631 94.0345 8.08298L96.4662 8.79021C96.5023 8.66613 96.519 8.70634 96.469 8.73024C96.4673 8.73106 96.4979 8.7159 96.5822 8.70907C96.668 8.7021 96.7952 8.70504 96.9716 8.7333C97.7298 8.85475 98.9042 9.35427 100.475 10.2933C103.566 12.141 107.681 15.3718 112.123 19.2381L113.786 17.3279ZM127.974 13.4684C122.342 13.4684 116.964 14.8182 112.38 17.1548L113.53 19.4112C117.758 17.256 122.741 16.0009 127.974 16.0009V13.4684ZM143.64 17.1916C139.04 14.8323 133.636 13.4684 127.974 13.4684V16.0009C133.234 16.0009 138.242 17.2692 142.484 19.4451L143.64 17.1916ZM162.023 8.08298C161.817 7.37509 161.377 6.77665 160.677 6.44362C160.03 6.13577 159.319 6.13046 158.679 6.23365C157.417 6.43736 155.893 7.15625 154.268 8.12862C150.967 10.1038 146.704 13.4678 142.231 17.3635L143.894 19.2732C148.344 15.3974 152.469 12.1565 155.568 10.3017C157.143 9.35903 158.322 8.85663 159.083 8.73381C159.26 8.70522 159.388 8.70208 159.474 8.70897C159.559 8.71574 159.59 8.73097 159.589 8.73024C159.539 8.70645 159.555 8.66608 159.591 8.79021L162.023 8.08298ZM155.683 30.4041C157.202 27.7949 159.221 23.851 160.649 19.7938C162.052 15.8112 162.994 11.4232 162.023 8.08297L159.591 8.79021C160.321 11.3009 159.647 15.0146 158.261 18.9528C156.9 22.8163 154.96 26.6122 153.494 29.13L155.683 30.4041ZM157.496 37.2176C157.496 34.4146 156.871 31.7292 155.741 29.2433L153.436 30.2908C154.425 32.4682 154.963 34.7978 154.963 37.2176H157.496ZM127.974 60.9669C135.797 60.9669 143.139 58.3619 148.547 54.111C153.955 49.8602 157.496 43.8995 157.496 37.2176H154.963C154.963 42.9527 151.927 48.2335 146.982 52.12C142.038 56.0063 135.252 58.4344 127.974 58.4344V60.9669ZM98.452 37.2176C98.452 43.8995 101.992 49.8602 107.4 54.111C112.808 58.3619 120.151 60.9669 127.974 60.9669V58.4344C120.695 58.4344 113.91 56.0063 108.965 52.12C104.021 48.2335 100.984 42.9527 100.984 37.2176H98.452ZM100.258 29.1307C99.0962 31.648 98.452 34.3721 98.452 37.2176H100.984C100.984 34.7613 101.539 32.3978 102.557 30.192L100.258 29.1307Z" fill="#4344C6"/>
<path d="M152.313 25.7117L147.032 20.4308C146.727 20.1258 146.689 19.6437 146.979 19.3247C149.041 17.06 153.884 13.7889 156.357 12.8424C156.785 12.6785 157.226 12.954 157.259 13.4113C157.498 16.7899 154.966 22.7217 153.706 25.4699C153.455 26.0166 152.738 26.1369 152.313 25.7117Z" fill="#D5FAFC"/>
<path d="M103.852 25.7117L109.132 20.4308C109.437 20.1258 109.475 19.6437 109.185 19.3247C107.123 17.06 102.28 13.7889 99.8071 12.8424C99.3789 12.6785 98.9379 12.954 98.9055 13.4113C98.666 16.7899 101.198 22.7217 102.458 25.4699C102.709 26.0166 103.426 26.1369 103.852 25.7117Z" fill="#D5FAFC"/>
<path d="M130.892 39.662C130.892 40.9414 128.605 43.2362 127.329 43.2362C126.054 43.2362 123.832 40.9414 123.832 39.662C123.832 38.3825 126.054 37.9411 127.329 37.9411C128.605 37.9411 130.892 38.3825 130.892 39.662Z" fill="#4748CE"/>
<path fill-rule="evenodd" clip-rule="evenodd" d="M127.222 45.6835C127.163 45.6744 127.107 45.7155 127.097 45.7747C126.728 47.8472 125.008 49.3529 122.964 49.5922C120.917 49.8317 118.513 48.8003 116.834 45.7064C116.805 45.6535 116.739 45.6324 116.686 45.6606L116.557 45.7287C116.504 45.7569 116.484 45.8237 116.513 45.8765C118.25 49.0794 120.785 50.2127 123.006 49.9529C124.883 49.7332 126.514 48.5167 127.194 46.7662C127.232 46.6688 127.381 46.6657 127.423 46.7612C128.212 48.5275 130.211 49.7335 132.301 49.9497C133.548 50.0786 134.845 49.8595 135.964 49.1887C137.063 48.5307 137.98 47.4449 138.511 45.8535C138.53 45.7965 138.498 45.7349 138.441 45.7166L138.302 45.6725C138.245 45.6542 138.184 45.6862 138.165 45.7432C137.659 47.256 136.795 48.2677 135.778 48.8771C134.735 49.5017 133.519 49.7105 132.338 49.5884C130.002 49.3468 127.873 47.8252 127.493 45.7745C127.482 45.7154 127.427 45.6744 127.367 45.6835L127.311 45.6921C127.3 45.6938 127.289 45.6938 127.278 45.6921L127.222 45.6835Z" fill="#191D5D"/>
<path d="M122.964 49.5922L123.034 50.1957L122.964 49.5922ZM123.006 49.9529L122.935 49.3493L123.006 49.9529ZM132.301 49.9497L132.238 50.5541L132.301 49.9497ZM135.964 49.1887L136.277 49.71L135.964 49.1887ZM135.778 48.8771L135.466 48.3558L135.778 48.8771ZM132.338 49.5884L132.401 48.984L132.338 49.5884ZM138.302 45.6725L138.118 46.2515L138.302 45.6725ZM138.165 45.7432L137.588 45.5505L138.165 45.7432ZM127.194 46.7662L126.628 46.5459L127.194 46.7662ZM127.423 46.7612L126.868 47.009L127.423 46.7612ZM138.511 45.8535L137.934 45.6612L138.511 45.8535ZM138.441 45.7166L138.625 45.1377L138.441 45.7166ZM127.311 45.6921L127.219 45.0915L127.311 45.6921ZM127.278 45.6921L127.371 45.0915L127.278 45.6921ZM116.834 45.7064L116.3 45.9962L116.834 45.7064ZM116.686 45.6606L116.401 45.1238L116.686 45.6606ZM127.493 45.7745L126.896 45.8852L127.493 45.7745ZM123.034 50.1957C125.328 49.9273 127.276 48.2348 127.695 45.8811L126.498 45.6683C126.18 47.4595 124.689 48.7784 122.893 48.9886L123.034 50.1957ZM116.3 45.9962C118.076 49.2692 120.699 50.469 123.034 50.1957L122.893 48.9886C121.134 49.1944 118.95 48.3314 117.368 45.4165L116.3 45.9962ZM116.842 46.2654L116.971 46.1974L116.401 45.1238L116.273 45.1919L116.842 46.2654ZM122.935 49.3493C121.003 49.5754 118.688 48.611 117.047 45.5868L115.979 46.1663C117.813 49.5478 120.567 50.8501 123.076 50.5564L122.935 49.3493ZM126.628 46.5459C126.032 48.0777 124.599 49.1547 122.935 49.3493L123.076 50.5564C125.167 50.3118 126.995 48.9558 127.761 46.9865L126.628 46.5459ZM126.868 47.009C127.767 49.0208 129.989 50.3214 132.238 50.5541L132.363 49.3452C130.433 49.1455 128.657 48.0342 127.978 46.5133L126.868 47.009ZM132.238 50.5541C133.595 50.6944 135.028 50.4581 136.277 49.71L135.652 48.6674C134.661 49.2609 133.5 49.4628 132.363 49.3452L132.238 50.5541ZM136.277 49.71C137.508 48.9722 138.514 47.7648 139.087 46.0459L137.934 45.6612C137.446 47.1249 136.617 48.0893 135.652 48.6674L136.277 49.71ZM138.625 45.1377L138.487 45.0936L138.118 46.2515L138.256 46.2956L138.625 45.1377ZM137.588 45.5505C137.125 46.9357 136.35 47.8261 135.466 48.3558L136.09 49.3984C137.241 48.7092 138.193 47.5763 138.741 45.9359L137.588 45.5505ZM135.466 48.3558C134.552 48.9031 133.471 49.0947 132.401 48.984L132.276 50.1928C133.567 50.3264 134.918 50.1003 136.09 49.3984L135.466 48.3558ZM132.401 48.984C130.234 48.7599 128.405 47.3635 128.091 45.6639L126.896 45.8852C127.34 48.287 129.77 49.9337 132.276 50.1928L132.401 48.984ZM127.275 45.0829L127.219 45.0915L127.404 46.2927L127.46 46.2841L127.275 45.0829ZM127.13 46.2841L127.186 46.2927L127.371 45.0915L127.315 45.0829L127.13 46.2841ZM138.487 45.0936C138.106 44.9722 137.711 45.1852 137.588 45.5505L138.741 45.9359C138.657 46.1871 138.384 46.3363 138.118 46.2515L138.487 45.0936ZM127.761 46.9865C127.674 47.2104 127.468 47.2957 127.32 47.2989C127.172 47.302 126.965 47.2263 126.868 47.009L127.978 46.5133C127.838 46.2006 127.536 46.0786 127.294 46.0838C127.051 46.0891 126.753 46.2246 126.628 46.5459L127.761 46.9865ZM139.087 46.0459C139.215 45.664 139.002 45.2578 138.625 45.1377L138.256 46.2956C137.994 46.2121 137.845 45.9289 137.934 45.6612L139.087 46.0459ZM116.273 45.1919C115.918 45.3798 115.791 45.8192 115.979 46.1663L117.047 45.5868C117.178 45.8281 117.09 46.1339 116.842 46.2654L116.273 45.1919ZM127.219 45.0915C127.269 45.0838 127.32 45.0838 127.371 45.0915L127.186 46.2927C127.258 46.3038 127.331 46.3038 127.404 46.2927L127.219 45.0915ZM117.368 45.4165C117.185 45.0801 116.758 44.9344 116.401 45.1238L116.971 46.1974C116.72 46.3304 116.425 46.2269 116.3 45.9962L117.368 45.4165ZM128.091 45.6639C128.022 45.2947 127.672 45.0219 127.275 45.0829L127.46 46.2841C127.182 46.3269 126.942 46.136 126.896 45.8852L128.091 45.6639ZM127.695 45.8811C127.65 46.136 127.407 46.3268 127.13 46.2841L127.315 45.0829C126.918 45.022 126.565 45.2949 126.498 45.6683L127.695 45.8811Z" fill="#191D5D"/>
<path d="M140.34 23.1561C139.598 18.6099 140.819 7.81385 151.641 1" stroke="#4344C6" stroke-width="1.33605" stroke-linecap="round"/>
<path d="M135.887 22.7664C134.959 19.8531 133.66 12.746 135.887 7.62451" stroke="#4344C6" stroke-width="1.33605" stroke-linecap="round"/>
<path d="M116.18 23.1561C116.922 18.6099 115.701 7.81385 104.879 1" stroke="#4344C6" stroke-width="1.33605" stroke-linecap="round"/>
<path d="M120.633 22.7664C121.561 19.8531 122.86 12.746 120.633 7.62451" stroke="#4344C6" stroke-width="1.33605" stroke-linecap="round"/>
<path d="M145.066 45.648C147.882 45.648 150.164 44.3439 150.164 42.7351C150.164 41.1264 147.882 39.8223 145.066 39.8223C142.251 39.8223 139.969 41.1264 139.969 42.7351C139.969 44.3439 142.251 45.648 145.066 45.648Z" fill="#D5FAFC"/>
<path d="M146.449 42.079C152.263 38.6826 159.78 35.0241 172.578 41.036" stroke="#4344C6" stroke-width="1.33605" stroke-linecap="round"/>
<path d="M148.274 44.4461C151.939 43.4724 158.433 43.4285 163.465 47.548" stroke="#4344C6" stroke-width="1.33605" stroke-linecap="round"/>
<path d="M109.945 45.648C112.76 45.648 115.043 44.3439 115.043 42.7351C115.043 41.1264 112.76 39.8223 109.945 39.8223C107.13 39.8223 104.848 41.1264 104.848 42.7351C104.848 44.3439 107.13 45.648 109.945 45.648Z" fill="#D5FAFC"/>
<path d="M109.129 42.079C103.315 38.6826 95.7979 35.0242 83 41.036" stroke="#4344C6" stroke-width="1.33605" stroke-linecap="round"/>
<path d="M107.312 44.4461C103.647 43.4725 97.1527 43.4285 92.1211 47.548" stroke="#4344C6" stroke-width="1.33605" stroke-linecap="round"/>
<path d="M116.335 37.7207C120.266 37.7207 123.452 35.3709 123.452 32.4723C123.452 29.5737 120.266 27.2239 116.335 27.2239C112.405 27.2239 109.219 29.5737 109.219 32.4723C109.219 35.3709 112.405 37.7207 116.335 37.7207Z" fill="#D5FAFC" stroke="#191D5D" stroke-width="1.4233" stroke-miterlimit="10"/>
<path d="M118.558 36.6533C120.769 36.6533 122.561 34.8611 122.561 32.6502C122.561 30.4394 120.769 28.6472 118.558 28.6472C116.347 28.6472 114.555 30.4394 114.555 32.6502C114.555 34.8611 116.347 36.6533 118.558 36.6533Z" fill="#191D5D" stroke="#191D5D" stroke-width="1.4233" stroke-miterlimit="10"/>
<path d="M113.754 32.9171C114.59 32.9171 115.267 32.24 115.267 31.4048C115.267 30.5696 114.59 29.8926 113.754 29.8926C112.919 29.8926 112.242 30.5696 112.242 31.4048C112.242 32.24 112.919 32.9171 113.754 32.9171Z" fill="white"/>
<path d="M138.898 37.7207C142.828 37.7207 146.014 35.3709 146.014 32.4723C146.014 29.5737 142.828 27.2239 138.898 27.2239C134.967 27.2239 131.781 29.5737 131.781 32.4723C131.781 35.3709 134.967 37.7207 138.898 37.7207Z" fill="#D5FAFC" stroke="#191D5D" stroke-width="1.4233" stroke-miterlimit="10"/>
<path d="M141.12 36.6533C143.331 36.6533 145.123 34.8611 145.123 32.6502C145.123 30.4394 143.331 28.6472 141.12 28.6472C138.909 28.6472 137.117 30.4394 137.117 32.6502C137.117 34.8611 138.909 36.6533 141.12 36.6533Z" fill="#191D5D" stroke="#191D5D" stroke-width="1.4233" stroke-miterlimit="10"/>
<path d="M136.317 32.9171C137.152 32.9171 137.829 32.24 137.829 31.4048C137.829 30.5696 137.152 29.8926 136.317 29.8926C135.482 29.8926 134.805 30.5696 134.805 31.4048C134.805 32.24 135.482 32.9171 136.317 32.9171Z" fill="white"/>
<path d="M128.755 88.0472C122.521 90.8856 113.866 89.7683 108.769 85.5392C101.349 79.3832 102.813 69.6995 103.04 68.3523C103.17 67.5798 104.818 58.9811 112.241 55.3319C115.486 53.7365 121.682 52.181 123.873 55.1583C125.442 57.2902 124.661 61.3439 122.484 63.1442C120.956 64.408 118.744 64.5591 116.581 64.7066C115.585 64.7743 114.748 64.7466 114.151 64.7066C113.692 65.4184 112.486 67.4999 112.762 70.262C112.849 71.1335 113.083 73.4702 115.019 75.1229C116.121 76.0639 117.084 76.5528 117.741 76.6778" fill="#BEDCFC"/>
<path d="M128.755 88.0472C122.521 90.8856 113.866 89.7683 108.769 85.5392C101.349 79.3832 102.813 69.6995 103.04 68.3523C103.17 67.5798 104.818 58.9811 112.241 55.3319C115.486 53.7365 121.682 52.181 123.873 55.1583C125.442 57.2902 124.661 61.3439 122.484 63.1442C120.956 64.408 118.744 64.5591 116.581 64.7066C115.585 64.7743 114.748 64.7466 114.151 64.7066C113.692 65.4184 112.486 67.4999 112.762 70.262C112.849 71.1335 113.083 73.4702 115.019 75.1229C116.121 76.0639 117.084 76.5528 117.741 76.6778" stroke="#4344C6" stroke-width="2.30227" stroke-miterlimit="10" stroke-linecap="round" stroke-linejoin="round"/>
<path d="M117.84 75.967C119.041 79.7065 125.208 85.2694 128.854 88.0471" stroke="#4344C6" stroke-width="1.38884" stroke-miterlimit="10" stroke-linecap="round" stroke-linejoin="round"/>
</svg>
