<svg width="188" height="72" viewBox="0 0 188 72" fill="none" xmlns="http://www.w3.org/2000/svg">
<path fill-rule="evenodd" clip-rule="evenodd" d="M-311 77L-272.208 81C-233.417 93.3932 -155.833 94.0338 -78.25 87.8371C-0.666687 81.6405 76.9167 44.4608 154.5 22.7726C232.083 1.08441 309.667 -5.11222 387.25 4.18272C464.833 13.4777 542.417 38.2642 581.208 50.6574L620 63.0506V156H581.208C542.417 156 464.833 156 387.25 156C309.667 156 232.083 156 154.5 156C76.9167 156 -0.666687 156 -78.25 156C-155.833 156 -233.417 156 -272.208 156H-311V77Z" fill="#828CFC"/>
<path d="M133.8 39.4421C133.457 38.7521 132.901 37.824 132.017 36.896C131.292 36.1347 130.564 35.6025 129.98 35.241" stroke="#191D5D" stroke-width="1.04218" stroke-miterlimit="10" stroke-linecap="round" stroke-linejoin="round"/>
<path d="M108.133 89.7285C107.906 89.7247 107.709 89.5719 107.649 89.353C107.622 89.2562 107.023 86.957 108.657 85.1824C109.49 84.2785 110.678 83.7604 111.918 83.7604C112.102 83.7604 112.287 83.7718 112.471 83.7947C112.697 82.8374 112.869 81.8609 112.983 80.8845C113.529 76.2365 112.67 72.472 112.101 69.9818C112.077 69.8749 112.055 69.7858 112.048 69.754C112.048 69.754 112.045 69.7412 112.044 69.74C111.765 68.5752 111.432 67.4576 111.049 66.397C110.538 64.9824 109.45 63.6763 107.946 63.6763C107.541 63.6763 107.146 63.7374 106.772 63.8596C106.018 64.1052 105.6 64.858 105.456 65.6378C104.835 68.9878 104.195 72.2806 103.548 75.4446C103.243 76.9405 103.139 77.4624 102.949 78.4045C102.259 81.8456 101.779 85.3682 101.52 88.8743C101.501 89.1378 101.284 89.3428 101.02 89.3466C101.02 89.3466 92.1035 89.4739 92.101 89.4739C91.9062 89.4739 91.728 89.3619 91.6427 89.1862C91.5421 88.9762 90.6866 87.0869 91.7929 85.2639C92.5211 84.0633 93.8756 83.3173 95.3295 83.3173C95.3384 83.3173 95.3473 83.3173 95.3562 83.3173C95.0278 79.9844 94.5198 76.8768 93.8451 74.0735C93.5587 72.8857 93.1767 71.4166 92.5122 69.5286C92.4689 69.4051 91.9177 67.9869 91.1233 66.1219C90.3623 64.3345 88.4208 63.3913 86.51 63.7412C85.1312 63.9938 83.7457 64.2109 82.3645 64.3905C81.7762 64.4672 81.1843 64.5377 80.5907 64.602C78.7499 64.8011 77.1964 66.1069 76.8064 67.917C76.7227 68.3051 76.6403 68.6937 76.5593 69.0818C76.0424 71.5592 75.7712 73.1263 75.5535 74.3867C75.2594 76.0812 75.0659 77.2015 74.5147 79.1722C74.241 80.1525 73.7343 81.7451 72.7273 84.9176C72.3492 86.1079 71.9634 87.3084 71.5803 88.486C71.5115 88.6961 71.3167 88.8374 71.0965 88.8374H62.6942C62.4612 88.8374 62.2575 88.6795 62.2002 88.4529C62.1748 88.3498 61.5815 85.9055 63.3409 84.0328C64.5503 82.7457 66.0907 82.5535 66.9017 82.5535C66.9386 82.5535 66.9755 82.5535 67.0112 82.5547C66.9475 80.085 66.74 77.6012 66.3912 75.1607C66.1639 73.5718 65.8747 71.9792 65.5268 70.4039C65.2261 69.0419 64.5492 67.7899 63.5693 66.7973C61.9622 65.1694 60.5994 64.0086 59.5038 63.3351C58.9908 63.0194 57.6413 62.1257 56.2104 60.6489C55.9851 60.4159 55.7725 60.1677 55.542 59.8647C54.6853 58.738 53.9736 57.2715 53.4236 55.507C52.3861 52.1702 52.1225 48.4554 52.6407 44.4694C52.6483 44.407 52.6687 44.3459 52.6992 44.2912C57.4669 35.5731 59.346 34.4541 60.4485 34.4541C60.5974 34.4541 60.7425 34.4783 60.8788 34.5254C61.0532 34.5865 61.1639 34.668 61.211 34.7023C62.7438 35.8265 68.945 38.3841 74.8457 39.0639C76.1582 39.2154 77.6999 39.3758 79.3778 39.3758C82.1506 39.3758 84.67 38.9328 87.0787 38.0213C89.1793 37.2269 90.6204 36.2759 92.0131 35.3554C93.9113 34.1027 95.8744 32.808 99.4275 31.9449C101.095 31.54 102.642 31.3427 104.154 31.3427C104.71 31.3427 105.275 31.3694 105.834 31.4229C107.733 31.6049 109.293 32.2333 111.368 32.85L111.725 32.9403C113.196 33.3123 114.721 33.6568 116.202 33.3279C120.249 32.4294 123.38 28.4908 124.596 24.6527C125.798 20.8589 125.569 14.4273 121.294 12.011C120.281 11.4381 119.108 11.1479 117.809 11.1479C114.981 11.1479 112.138 12.4948 110.421 13.7564C108.838 14.9175 107.951 16.2134 107.363 17.0715C106.884 17.7704 106.595 18.1918 106.121 18.1918C106.03 18.1918 105.939 18.174 105.854 18.1371C105.503 17.9881 105.291 17.5909 105.192 16.8844C104.889 14.7443 105.694 8.86907 110.05 5.34519C112.129 3.66473 114.682 2.81177 117.636 2.81177C121.434 2.81177 124.683 4.23889 125.295 4.52533C129.308 6.3993 132.273 9.7946 134.106 14.6157C136.152 19.9958 135.148 24.6718 134.769 26.4324C133.291 33.3147 128.06 38.7011 127.468 39.2931C127.415 39.3465 127.352 39.4102 127.282 39.4815C126.596 40.1855 125.052 41.7705 122.613 42.8691C122.746 43.1148 122.867 43.3542 122.979 43.5935C123.027 43.6864 123.528 44.6985 123.902 45.9105C124.188 46.8335 124.767 51.2829 124.817 57.3873C124.817 57.4064 124.815 57.4255 124.814 57.4459C124.522 60.1741 124.135 62.9265 123.663 65.6279C123.079 68.9647 122.348 72.3192 121.49 75.5987C121.487 75.6101 121.484 75.6216 121.48 75.633L116.769 89.5096C116.699 89.7158 116.505 89.8546 116.287 89.8546C116.286 89.8558 108.133 89.7285 108.133 89.7285Z" fill="#BEDCFC"/>
<path d="M121.955 66.8362C120.312 66.0825 118.518 65.6675 116.638 65.6675C115.135 65.6675 113.688 65.9336 112.328 66.4237C112.604 67.3428 112.88 68.4059 113.128 69.6229C113.13 69.6344 113.151 69.7388 113.176 69.8686C113.701 72.5714 114.396 76.3028 113.933 80.9444C113.787 82.4072 113.562 83.5962 113.393 84.3817C112.21 84.0456 110.964 84.4836 110.148 85.5275C108.931 87.0832 109.361 89.0921 109.39 89.2194C111.698 89.2614 114.006 89.3047 116.313 89.3467C117.647 84.7216 118.982 80.0953 120.315 75.4702C120.911 72.7903 121.47 69.9081 121.955 66.8362Z" fill="#D5FAFC"/>
<path d="M106.059 17.669C106.595 17.8943 107.315 15.4118 110.127 13.3469C111.322 12.4685 113.057 11.548 114.959 11.0388C114.077 8.73452 112.122 6.95985 109.703 6.3335C105.327 10.5003 105.219 17.3138 106.059 17.669Z" fill="#D5FAFC"/>
<mask id="path-6-outside-1_469_2473" maskUnits="userSpaceOnUse" x="50.8672" y="1.30298" width="86" height="90" fill="black">
<rect fill="white" x="50.8672" y="1.30298" width="86" height="90"/>
<path d="M117.636 3.32144C121.398 3.32144 124.606 4.76638 125.078 4.98662C130.94 7.72374 133.043 13.2565 133.628 14.797C135.581 19.9313 134.68 24.4138 134.27 26.3259C132.835 33.007 127.711 38.3298 127.106 38.9332C126.512 39.5277 125.007 41.2224 122.447 42.3864C122.156 42.5187 122.035 42.8733 122.186 43.1547C122.312 43.3878 122.421 43.6048 122.517 43.8111C122.52 43.8157 122.522 43.8196 122.524 43.8242C122.567 43.9108 123.055 44.8977 123.414 46.0612C123.673 46.8976 124.256 51.305 124.306 57.3916C124.031 59.9683 123.658 62.6914 123.16 65.5392C122.537 69.0988 121.795 72.4151 120.996 75.4692C119.467 79.9745 117.936 84.481 116.407 88.9864C116.334 89.2006 116.132 89.3434 115.906 89.3399C113.448 89.3018 110.988 89.2627 108.53 89.2246C108.298 89.221 108.096 89.0641 108.064 88.8337C107.972 88.1526 107.94 86.7087 109.029 85.5266C109.776 84.7156 110.829 84.2687 111.913 84.2687C112.056 84.2687 112.198 84.2765 112.341 84.2921C112.625 84.323 112.905 84.1586 112.97 83.8807C113.147 83.1252 113.346 82.1234 113.484 80.9435C114.029 76.3018 113.211 72.5704 112.593 69.8677C112.564 69.7379 112.539 69.6335 112.536 69.622C112.009 67.4257 111.376 65.7257 110.83 64.4856C110.657 64.0918 110.36 63.7601 109.963 63.5933C109.476 63.3884 108.762 63.1662 107.941 63.1662C107.52 63.1662 107.071 63.2248 106.61 63.375C106.327 63.4666 106.074 63.5815 105.851 63.7055C105.414 63.9485 105.16 64.4101 105.07 64.9019C104.258 69.3121 103.555 72.8489 103.045 75.3419C102.74 76.8391 102.634 77.361 102.446 78.3044C101.699 82.0262 101.278 85.4136 101.045 88.361C101.023 88.6303 100.801 88.8395 100.531 88.8433C97.8305 88.8816 95.129 88.9209 92.4284 88.9592C92.2261 88.962 92.0397 88.848 91.9733 88.6568C91.7707 88.0737 91.4693 86.77 92.2241 85.5266C92.8695 84.4635 94.0547 83.8257 95.3253 83.8257C95.6266 83.8257 95.8896 83.5819 95.8601 83.2821C95.6327 80.9705 95.1952 77.5197 94.3348 73.953C94.0522 72.7805 93.6652 71.2859 92.9879 69.3585C92.9408 69.2235 92.3883 67.8028 91.5875 65.9212C91.2941 65.2318 91.016 64.5964 90.7603 64.0236C90.3586 63.1233 89.3728 62.6456 88.4079 62.8475C86.4989 63.2468 84.4576 63.602 82.2941 63.8842C81.0288 64.0489 79.8005 64.1785 78.6122 64.2786C77.6991 64.3554 76.9296 65.0022 76.7268 65.8958C76.5306 66.7607 76.301 67.8024 76.056 68.9765C74.8466 74.7767 74.9726 75.6271 74.0191 79.0339C73.7466 80.0052 73.2438 81.5915 72.2368 84.7627C71.8274 86.0503 71.4745 87.1456 71.2078 87.9676C71.1382 88.1823 70.9382 88.3273 70.7125 88.3273C68.1727 88.3273 65.6328 88.3273 63.0929 88.3273C62.855 88.3273 62.648 88.1665 62.6189 87.9304C62.5297 87.2076 62.514 85.651 63.7071 84.3808C64.7689 83.2503 66.1158 83.0619 66.8962 83.0619C67.2238 83.0619 67.5215 82.803 67.5128 82.4755C67.4539 80.2408 67.2711 77.7606 66.8898 75.0873C66.5597 72.7716 66.1263 70.6406 65.6491 68.7158C65.5464 68.3013 65.3381 67.9195 65.0475 67.6066C62.4474 64.807 60.8394 63.392 59.7937 62.7491C59.4181 62.5187 58.0279 61.7989 56.569 60.2942C56.3615 60.0803 56.1616 59.8461 55.9414 59.5558C55.5111 58.9905 54.6467 57.7429 53.9044 55.3546C52.6292 51.2522 52.7951 47.259 53.1283 44.6296C53.1364 44.5654 53.1565 44.5044 53.1876 44.4477C55.7914 39.6947 58.77 34.9612 60.443 34.9612C60.5346 34.9612 60.6225 34.9752 60.7052 35.0045C60.8096 35.0402 60.872 35.0885 60.9051 35.1127C62.5015 36.2839 68.7918 38.8785 74.7816 39.5685C76.1247 39.7225 77.6702 39.8842 79.3723 39.8842C81.7403 39.8842 84.4112 39.5723 87.254 38.4966C92.2852 36.592 93.4819 33.9109 99.543 32.4393C101.166 32.0446 102.668 31.8524 104.15 31.8524C104.695 31.8524 105.237 31.8791 105.781 31.93C108.12 32.1528 109.977 32.8034 111.192 33.3304C111.895 33.5328 112.598 33.7352 113.301 33.9382C113.659 34.0418 114.037 34.0709 114.403 34.002C119.5 33.0452 123.619 29.4116 125.078 24.8072C126.452 20.4698 125.833 13.9949 121.542 11.5684C120.372 10.9064 119.092 10.6391 117.807 10.6391C114.868 10.6391 111.896 12.0395 110.116 13.3456C107.423 15.3227 106.649 17.6817 106.118 17.6817C106.094 17.6817 106.071 17.6767 106.048 17.6677C105.167 17.296 105.329 9.8154 110.367 5.74029C112.644 3.90069 115.251 3.32144 117.636 3.32144ZM117.636 2.30298C114.561 2.30298 111.901 3.19286 109.729 4.94971C107.268 6.93952 106.022 9.55697 105.408 11.4017C104.629 13.7492 104.523 15.8103 104.686 16.9561C104.732 17.2833 104.873 18.2775 105.654 18.6073C105.803 18.6697 105.959 18.7015 106.12 18.7015C106.862 18.7015 107.267 18.1095 107.781 17.3597C108.349 16.5309 109.208 15.2782 110.721 14.1681C112.297 13.0108 115.1 11.6588 117.808 11.6588C119.017 11.6588 120.106 11.9274 121.041 12.457C123.195 13.6754 124.079 15.972 124.439 17.683C124.898 19.8536 124.774 22.4036 124.108 24.5016C122.798 28.6362 119.163 31.801 114.511 32.9169C114.108 33.0136 113.686 32.9916 113.288 32.8767L111.537 32.3718C109.724 31.5927 107.821 31.1038 105.879 30.9179C105.304 30.8632 104.723 30.8352 104.15 30.8352C102.597 30.8352 101.011 31.0363 99.3036 31.4513C95.6652 32.3349 93.6639 33.655 91.7301 34.9319C90.2966 35.8778 88.9433 36.7715 86.895 37.5456C84.5449 38.4354 82.084 38.867 79.3736 38.867C77.7212 38.867 76.1973 38.7079 74.8988 38.5577C71.6282 38.1808 68.5436 37.2642 66.5321 36.5602C63.9821 35.669 62.1705 34.7779 61.5073 34.2916C61.4462 34.2458 61.2857 34.1286 61.04 34.0433C60.8504 33.9771 60.6492 33.9428 60.443 33.9428C59.2832 33.9428 58.0101 34.9969 56.3131 37.3597C55.1661 38.9587 53.7975 41.2069 52.2456 44.0434C52.1845 44.1541 52.1451 44.2751 52.1298 44.4011C51.6015 48.4609 51.8713 52.2483 52.9305 55.6564C53.5047 57.5036 54.224 58.9804 55.1291 60.172C55.3723 60.4915 55.5976 60.7563 55.837 61.0033C57.3087 62.5221 58.7001 63.4425 59.2297 63.7684C60.4911 64.543 62.1326 65.9996 64.1143 68.1034C64.4116 68.4191 64.6222 68.8068 64.7246 69.2282C65.2054 71.2067 65.5931 73.2221 65.8803 75.2312C66.1788 77.3195 66.3734 79.4418 66.4611 81.5574C66.4727 81.8372 66.2585 82.072 65.9819 82.1156C65.08 82.2579 63.9292 82.6558 62.9637 83.6831C61.049 85.7213 61.6282 88.2904 61.6995 88.5768C61.8141 89.0288 62.2202 89.3458 62.6874 89.3458H71.0897C71.5302 89.3458 71.9223 89.0619 72.0585 88.643C72.4417 87.4642 72.8287 86.2624 73.2068 85.0721C74.2164 81.8932 74.7231 80.298 74.9993 79.3088C75.5582 77.3127 75.753 76.1834 76.0496 74.4724C76.2673 73.2172 76.5372 71.6538 77.0528 69.1853C77.2938 68.0319 77.5462 66.8743 77.8081 65.7322C77.8591 65.5099 78.0493 65.3472 78.2767 65.3292C79.6627 65.22 81.053 65.0746 82.4252 64.8951C84.2263 64.6606 86.0348 64.3629 87.8263 64.0065C88.7914 63.8145 89.771 64.3 90.1658 65.2014C90.3292 65.5744 90.4906 65.948 90.6493 66.3209C91.4182 68.1274 91.972 69.5469 92.0267 69.6984C92.6824 71.5634 93.0605 73.0173 93.3444 74.1924C93.9433 76.6783 94.4104 79.4073 94.735 82.3237C94.7667 82.6081 94.5602 82.8608 94.2809 82.9236C93.0646 83.1972 91.9944 83.942 91.352 84.9995C90.1057 87.053 91.0643 89.1726 91.1776 89.4082C91.3482 89.7608 91.7046 89.9836 92.0942 89.9836C92.0993 89.9836 92.1044 89.9836 92.1082 89.9836L101.02 89.8563C101.548 89.8486 101.982 89.4387 102.02 88.9129C102.278 85.4273 102.755 81.9263 103.441 78.5055C103.627 77.58 103.73 77.0669 104.039 75.5469C104.696 72.3331 105.346 68.9871 105.976 65.5829C106.078 65.0333 106.39 64.5161 106.922 64.3438C107.245 64.2382 107.588 64.186 107.939 64.186C108.35 64.186 108.735 64.2586 109.066 64.3559C109.538 64.4945 109.89 64.8718 110.08 65.3252C110.665 66.7251 111.156 68.2455 111.543 69.8601L111.544 69.8677C111.549 69.8906 111.572 69.9823 111.598 70.0956C112.158 72.5514 113.006 76.2636 112.47 80.8264C112.38 81.5889 112.255 82.3515 112.097 83.1047C112.079 83.1922 112 83.2528 111.911 83.2528C110.53 83.2528 109.204 83.8308 108.276 84.8391C106.485 86.7843 107.078 89.2159 107.151 89.4871C107.269 89.925 107.664 90.2318 108.118 90.2395L110.834 90.2815L116.266 90.3668C116.271 90.3668 116.276 90.3668 116.283 90.3668C116.718 90.3668 117.106 90.0893 117.246 89.6755L118.816 85.0504L121.957 75.799C121.964 75.7761 121.972 75.7531 121.977 75.729C122.839 72.4368 123.574 69.0682 124.159 65.7162C124.634 63.0033 125.022 60.2394 125.314 57.501C125.318 57.4628 125.32 57.4234 125.319 57.3852C125.269 51.2286 124.675 46.7092 124.382 45.762C124.005 44.5411 123.501 43.5137 123.432 43.375C123.363 43.225 123.422 43.0451 123.569 42.9682C125.661 41.8689 127.006 40.4884 127.64 39.8384C127.707 39.7684 127.768 39.7072 127.821 39.6538C128.423 39.0516 133.751 33.5647 135.259 26.5398C135.646 24.7397 136.674 19.9567 134.574 14.4354C134.273 13.641 133.565 11.7798 132.162 9.75939C130.399 7.2196 128.158 5.30362 125.504 4.06364C124.88 3.76956 121.542 2.30298 117.636 2.30298Z"/>
</mask>
<path d="M117.636 3.32144C121.398 3.32144 124.606 4.76638 125.078 4.98662C130.94 7.72374 133.043 13.2565 133.628 14.797C135.581 19.9313 134.68 24.4138 134.27 26.3259C132.835 33.007 127.711 38.3298 127.106 38.9332C126.512 39.5277 125.007 41.2224 122.447 42.3864C122.156 42.5187 122.035 42.8733 122.186 43.1547C122.312 43.3878 122.421 43.6048 122.517 43.8111C122.52 43.8157 122.522 43.8196 122.524 43.8242C122.567 43.9108 123.055 44.8977 123.414 46.0612C123.673 46.8976 124.256 51.305 124.306 57.3916C124.031 59.9683 123.658 62.6914 123.16 65.5392C122.537 69.0988 121.795 72.4151 120.996 75.4692C119.467 79.9745 117.936 84.481 116.407 88.9864C116.334 89.2006 116.132 89.3434 115.906 89.3399C113.448 89.3018 110.988 89.2627 108.53 89.2246C108.298 89.221 108.096 89.0641 108.064 88.8337C107.972 88.1526 107.94 86.7087 109.029 85.5266C109.776 84.7156 110.829 84.2687 111.913 84.2687C112.056 84.2687 112.198 84.2765 112.341 84.2921C112.625 84.323 112.905 84.1586 112.97 83.8807C113.147 83.1252 113.346 82.1234 113.484 80.9435C114.029 76.3018 113.211 72.5704 112.593 69.8677C112.564 69.7379 112.539 69.6335 112.536 69.622C112.009 67.4257 111.376 65.7257 110.83 64.4856C110.657 64.0918 110.36 63.7601 109.963 63.5933C109.476 63.3884 108.762 63.1662 107.941 63.1662C107.52 63.1662 107.071 63.2248 106.61 63.375C106.327 63.4666 106.074 63.5815 105.851 63.7055C105.414 63.9485 105.16 64.4101 105.07 64.9019C104.258 69.3121 103.555 72.8489 103.045 75.3419C102.74 76.8391 102.634 77.361 102.446 78.3044C101.699 82.0262 101.278 85.4136 101.045 88.361C101.023 88.6303 100.801 88.8395 100.531 88.8433C97.8305 88.8816 95.129 88.9209 92.4284 88.9592C92.2261 88.962 92.0397 88.848 91.9733 88.6568C91.7707 88.0737 91.4693 86.77 92.2241 85.5266C92.8695 84.4635 94.0547 83.8257 95.3253 83.8257C95.6266 83.8257 95.8896 83.5819 95.8601 83.2821C95.6327 80.9705 95.1952 77.5197 94.3348 73.953C94.0522 72.7805 93.6652 71.2859 92.9879 69.3585C92.9408 69.2235 92.3883 67.8028 91.5875 65.9212C91.2941 65.2318 91.016 64.5964 90.7603 64.0236C90.3586 63.1233 89.3728 62.6456 88.4079 62.8475C86.4989 63.2468 84.4576 63.602 82.2941 63.8842C81.0288 64.0489 79.8005 64.1785 78.6122 64.2786C77.6991 64.3554 76.9296 65.0022 76.7268 65.8958C76.5306 66.7607 76.301 67.8024 76.056 68.9765C74.8466 74.7767 74.9726 75.6271 74.0191 79.0339C73.7466 80.0052 73.2438 81.5915 72.2368 84.7627C71.8274 86.0503 71.4745 87.1456 71.2078 87.9676C71.1382 88.1823 70.9382 88.3273 70.7125 88.3273C68.1727 88.3273 65.6328 88.3273 63.0929 88.3273C62.855 88.3273 62.648 88.1665 62.6189 87.9304C62.5297 87.2076 62.514 85.651 63.7071 84.3808C64.7689 83.2503 66.1158 83.0619 66.8962 83.0619C67.2238 83.0619 67.5215 82.803 67.5128 82.4755C67.4539 80.2408 67.2711 77.7606 66.8898 75.0873C66.5597 72.7716 66.1263 70.6406 65.6491 68.7158C65.5464 68.3013 65.3381 67.9195 65.0475 67.6066C62.4474 64.807 60.8394 63.392 59.7937 62.7491C59.4181 62.5187 58.0279 61.7989 56.569 60.2942C56.3615 60.0803 56.1616 59.8461 55.9414 59.5558C55.5111 58.9905 54.6467 57.7429 53.9044 55.3546C52.6292 51.2522 52.7951 47.259 53.1283 44.6296C53.1364 44.5654 53.1565 44.5044 53.1876 44.4477C55.7914 39.6947 58.77 34.9612 60.443 34.9612C60.5346 34.9612 60.6225 34.9752 60.7052 35.0045C60.8096 35.0402 60.872 35.0885 60.9051 35.1127C62.5015 36.2839 68.7918 38.8785 74.7816 39.5685C76.1247 39.7225 77.6702 39.8842 79.3723 39.8842C81.7403 39.8842 84.4112 39.5723 87.254 38.4966C92.2852 36.592 93.4819 33.9109 99.543 32.4393C101.166 32.0446 102.668 31.8524 104.15 31.8524C104.695 31.8524 105.237 31.8791 105.781 31.93C108.12 32.1528 109.977 32.8034 111.192 33.3304C111.895 33.5328 112.598 33.7352 113.301 33.9382C113.659 34.0418 114.037 34.0709 114.403 34.002C119.5 33.0452 123.619 29.4116 125.078 24.8072C126.452 20.4698 125.833 13.9949 121.542 11.5684C120.372 10.9064 119.092 10.6391 117.807 10.6391C114.868 10.6391 111.896 12.0395 110.116 13.3456C107.423 15.3227 106.649 17.6817 106.118 17.6817C106.094 17.6817 106.071 17.6767 106.048 17.6677C105.167 17.296 105.329 9.8154 110.367 5.74029C112.644 3.90069 115.251 3.32144 117.636 3.32144ZM117.636 2.30298C114.561 2.30298 111.901 3.19286 109.729 4.94971C107.268 6.93952 106.022 9.55697 105.408 11.4017C104.629 13.7492 104.523 15.8103 104.686 16.9561C104.732 17.2833 104.873 18.2775 105.654 18.6073C105.803 18.6697 105.959 18.7015 106.12 18.7015C106.862 18.7015 107.267 18.1095 107.781 17.3597C108.349 16.5309 109.208 15.2782 110.721 14.1681C112.297 13.0108 115.1 11.6588 117.808 11.6588C119.017 11.6588 120.106 11.9274 121.041 12.457C123.195 13.6754 124.079 15.972 124.439 17.683C124.898 19.8536 124.774 22.4036 124.108 24.5016C122.798 28.6362 119.163 31.801 114.511 32.9169C114.108 33.0136 113.686 32.9916 113.288 32.8767L111.537 32.3718C109.724 31.5927 107.821 31.1038 105.879 30.9179C105.304 30.8632 104.723 30.8352 104.15 30.8352C102.597 30.8352 101.011 31.0363 99.3036 31.4513C95.6652 32.3349 93.6639 33.655 91.7301 34.9319C90.2966 35.8778 88.9433 36.7715 86.895 37.5456C84.5449 38.4354 82.084 38.867 79.3736 38.867C77.7212 38.867 76.1973 38.7079 74.8988 38.5577C71.6282 38.1808 68.5436 37.2642 66.5321 36.5602C63.9821 35.669 62.1705 34.7779 61.5073 34.2916C61.4462 34.2458 61.2857 34.1286 61.04 34.0433C60.8504 33.9771 60.6492 33.9428 60.443 33.9428C59.2832 33.9428 58.0101 34.9969 56.3131 37.3597C55.1661 38.9587 53.7975 41.2069 52.2456 44.0434C52.1845 44.1541 52.1451 44.2751 52.1298 44.4011C51.6015 48.4609 51.8713 52.2483 52.9305 55.6564C53.5047 57.5036 54.224 58.9804 55.1291 60.172C55.3723 60.4915 55.5976 60.7563 55.837 61.0033C57.3087 62.5221 58.7001 63.4425 59.2297 63.7684C60.4911 64.543 62.1326 65.9996 64.1143 68.1034C64.4116 68.4191 64.6222 68.8068 64.7246 69.2282C65.2054 71.2067 65.5931 73.2221 65.8803 75.2312C66.1788 77.3195 66.3734 79.4418 66.4611 81.5574C66.4727 81.8372 66.2585 82.072 65.9819 82.1156C65.08 82.2579 63.9292 82.6558 62.9637 83.6831C61.049 85.7213 61.6282 88.2904 61.6995 88.5768C61.8141 89.0288 62.2202 89.3458 62.6874 89.3458H71.0897C71.5302 89.3458 71.9223 89.0619 72.0585 88.643C72.4417 87.4642 72.8287 86.2624 73.2068 85.0721C74.2164 81.8932 74.7231 80.298 74.9993 79.3088C75.5582 77.3127 75.753 76.1834 76.0496 74.4724C76.2673 73.2172 76.5372 71.6538 77.0528 69.1853C77.2938 68.0319 77.5462 66.8743 77.8081 65.7322C77.8591 65.5099 78.0493 65.3472 78.2767 65.3292C79.6627 65.22 81.053 65.0746 82.4252 64.8951C84.2263 64.6606 86.0348 64.3629 87.8263 64.0065C88.7914 63.8145 89.771 64.3 90.1658 65.2014C90.3292 65.5744 90.4906 65.948 90.6493 66.3209C91.4182 68.1274 91.972 69.5469 92.0267 69.6984C92.6824 71.5634 93.0605 73.0173 93.3444 74.1924C93.9433 76.6783 94.4104 79.4073 94.735 82.3237C94.7667 82.6081 94.5602 82.8608 94.2809 82.9236C93.0646 83.1972 91.9944 83.942 91.352 84.9995C90.1057 87.053 91.0643 89.1726 91.1776 89.4082C91.3482 89.7608 91.7046 89.9836 92.0942 89.9836C92.0993 89.9836 92.1044 89.9836 92.1082 89.9836L101.02 89.8563C101.548 89.8486 101.982 89.4387 102.02 88.9129C102.278 85.4273 102.755 81.9263 103.441 78.5055C103.627 77.58 103.73 77.0669 104.039 75.5469C104.696 72.3331 105.346 68.9871 105.976 65.5829C106.078 65.0333 106.39 64.5161 106.922 64.3438C107.245 64.2382 107.588 64.186 107.939 64.186C108.35 64.186 108.735 64.2586 109.066 64.3559C109.538 64.4945 109.89 64.8718 110.08 65.3252C110.665 66.7251 111.156 68.2455 111.543 69.8601L111.544 69.8677C111.549 69.8906 111.572 69.9823 111.598 70.0956C112.158 72.5514 113.006 76.2636 112.47 80.8264C112.38 81.5889 112.255 82.3515 112.097 83.1047C112.079 83.1922 112 83.2528 111.911 83.2528C110.53 83.2528 109.204 83.8308 108.276 84.8391C106.485 86.7843 107.078 89.2159 107.151 89.4871C107.269 89.925 107.664 90.2318 108.118 90.2395L110.834 90.2815L116.266 90.3668C116.271 90.3668 116.276 90.3668 116.283 90.3668C116.718 90.3668 117.106 90.0893 117.246 89.6755L118.816 85.0504L121.957 75.799C121.964 75.7761 121.972 75.7531 121.977 75.729C122.839 72.4368 123.574 69.0682 124.159 65.7162C124.634 63.0033 125.022 60.2394 125.314 57.501C125.318 57.4628 125.32 57.4234 125.319 57.3852C125.269 51.2286 124.675 46.7092 124.382 45.762C124.005 44.5411 123.501 43.5137 123.432 43.375C123.363 43.225 123.422 43.0451 123.569 42.9682C125.661 41.8689 127.006 40.4884 127.64 39.8384C127.707 39.7684 127.768 39.7072 127.821 39.6538C128.423 39.0516 133.751 33.5647 135.259 26.5398C135.646 24.7397 136.674 19.9567 134.574 14.4354C134.273 13.641 133.565 11.7798 132.162 9.75939C130.399 7.2196 128.158 5.30362 125.504 4.06364C124.88 3.76956 121.542 2.30298 117.636 2.30298Z" fill="#4344C6"/>
<path d="M117.636 3.32144C121.398 3.32144 124.606 4.76638 125.078 4.98662C130.94 7.72374 133.043 13.2565 133.628 14.797C135.581 19.9313 134.68 24.4138 134.27 26.3259C132.835 33.007 127.711 38.3298 127.106 38.9332C126.512 39.5277 125.007 41.2224 122.447 42.3864C122.156 42.5187 122.035 42.8733 122.186 43.1547C122.312 43.3878 122.421 43.6048 122.517 43.8111C122.52 43.8157 122.522 43.8196 122.524 43.8242C122.567 43.9108 123.055 44.8977 123.414 46.0612C123.673 46.8976 124.256 51.305 124.306 57.3916C124.031 59.9683 123.658 62.6914 123.16 65.5392C122.537 69.0988 121.795 72.4151 120.996 75.4692C119.467 79.9745 117.936 84.481 116.407 88.9864C116.334 89.2006 116.132 89.3434 115.906 89.3399C113.448 89.3018 110.988 89.2627 108.53 89.2246C108.298 89.221 108.096 89.0641 108.064 88.8337C107.972 88.1526 107.94 86.7087 109.029 85.5266C109.776 84.7156 110.829 84.2687 111.913 84.2687C112.056 84.2687 112.198 84.2765 112.341 84.2921C112.625 84.323 112.905 84.1586 112.97 83.8807C113.147 83.1252 113.346 82.1234 113.484 80.9435C114.029 76.3018 113.211 72.5704 112.593 69.8677C112.564 69.7379 112.539 69.6335 112.536 69.622C112.009 67.4257 111.376 65.7257 110.83 64.4856C110.657 64.0918 110.36 63.7601 109.963 63.5933C109.476 63.3884 108.762 63.1662 107.941 63.1662C107.52 63.1662 107.071 63.2248 106.61 63.375C106.327 63.4666 106.074 63.5815 105.851 63.7055C105.414 63.9485 105.16 64.4101 105.07 64.9019C104.258 69.3121 103.555 72.8489 103.045 75.3419C102.74 76.8391 102.634 77.361 102.446 78.3044C101.699 82.0262 101.278 85.4136 101.045 88.361C101.023 88.6303 100.801 88.8395 100.531 88.8433C97.8305 88.8816 95.129 88.9209 92.4284 88.9592C92.2261 88.962 92.0397 88.848 91.9733 88.6568C91.7707 88.0737 91.4693 86.77 92.2241 85.5266C92.8695 84.4635 94.0547 83.8257 95.3253 83.8257C95.6266 83.8257 95.8896 83.5819 95.8601 83.2821C95.6327 80.9705 95.1952 77.5197 94.3348 73.953C94.0522 72.7805 93.6652 71.2859 92.9879 69.3585C92.9408 69.2235 92.3883 67.8028 91.5875 65.9212C91.2941 65.2318 91.016 64.5964 90.7603 64.0236C90.3586 63.1233 89.3728 62.6456 88.4079 62.8475C86.4989 63.2468 84.4576 63.602 82.2941 63.8842C81.0288 64.0489 79.8005 64.1785 78.6122 64.2786C77.6991 64.3554 76.9296 65.0022 76.7268 65.8958C76.5306 66.7607 76.301 67.8024 76.056 68.9765C74.8466 74.7767 74.9726 75.6271 74.0191 79.0339C73.7466 80.0052 73.2438 81.5915 72.2368 84.7627C71.8274 86.0503 71.4745 87.1456 71.2078 87.9676C71.1382 88.1823 70.9382 88.3273 70.7125 88.3273C68.1727 88.3273 65.6328 88.3273 63.0929 88.3273C62.855 88.3273 62.648 88.1665 62.6189 87.9304C62.5297 87.2076 62.514 85.651 63.7071 84.3808C64.7689 83.2503 66.1158 83.0619 66.8962 83.0619C67.2238 83.0619 67.5215 82.803 67.5128 82.4755C67.4539 80.2408 67.2711 77.7606 66.8898 75.0873C66.5597 72.7716 66.1263 70.6406 65.6491 68.7158C65.5464 68.3013 65.3381 67.9195 65.0475 67.6066C62.4474 64.807 60.8394 63.392 59.7937 62.7491C59.4181 62.5187 58.0279 61.7989 56.569 60.2942C56.3615 60.0803 56.1616 59.8461 55.9414 59.5558C55.5111 58.9905 54.6467 57.7429 53.9044 55.3546C52.6292 51.2522 52.7951 47.259 53.1283 44.6296C53.1364 44.5654 53.1565 44.5044 53.1876 44.4477C55.7914 39.6947 58.77 34.9612 60.443 34.9612C60.5346 34.9612 60.6225 34.9752 60.7052 35.0045C60.8096 35.0402 60.872 35.0885 60.9051 35.1127C62.5015 36.2839 68.7918 38.8785 74.7816 39.5685C76.1247 39.7225 77.6702 39.8842 79.3723 39.8842C81.7403 39.8842 84.4112 39.5723 87.254 38.4966C92.2852 36.592 93.4819 33.9109 99.543 32.4393C101.166 32.0446 102.668 31.8524 104.15 31.8524C104.695 31.8524 105.237 31.8791 105.781 31.93C108.12 32.1528 109.977 32.8034 111.192 33.3304C111.895 33.5328 112.598 33.7352 113.301 33.9382C113.659 34.0418 114.037 34.0709 114.403 34.002C119.5 33.0452 123.619 29.4116 125.078 24.8072C126.452 20.4698 125.833 13.9949 121.542 11.5684C120.372 10.9064 119.092 10.6391 117.807 10.6391C114.868 10.6391 111.896 12.0395 110.116 13.3456C107.423 15.3227 106.649 17.6817 106.118 17.6817C106.094 17.6817 106.071 17.6767 106.048 17.6677C105.167 17.296 105.329 9.8154 110.367 5.74029C112.644 3.90069 115.251 3.32144 117.636 3.32144ZM117.636 2.30298C114.561 2.30298 111.901 3.19286 109.729 4.94971C107.268 6.93952 106.022 9.55697 105.408 11.4017C104.629 13.7492 104.523 15.8103 104.686 16.9561C104.732 17.2833 104.873 18.2775 105.654 18.6073C105.803 18.6697 105.959 18.7015 106.12 18.7015C106.862 18.7015 107.267 18.1095 107.781 17.3597C108.349 16.5309 109.208 15.2782 110.721 14.1681C112.297 13.0108 115.1 11.6588 117.808 11.6588C119.017 11.6588 120.106 11.9274 121.041 12.457C123.195 13.6754 124.079 15.972 124.439 17.683C124.898 19.8536 124.774 22.4036 124.108 24.5016C122.798 28.6362 119.163 31.801 114.511 32.9169C114.108 33.0136 113.686 32.9916 113.288 32.8767L111.537 32.3718C109.724 31.5927 107.821 31.1038 105.879 30.9179C105.304 30.8632 104.723 30.8352 104.15 30.8352C102.597 30.8352 101.011 31.0363 99.3036 31.4513C95.6652 32.3349 93.6639 33.655 91.7301 34.9319C90.2966 35.8778 88.9433 36.7715 86.895 37.5456C84.5449 38.4354 82.084 38.867 79.3736 38.867C77.7212 38.867 76.1973 38.7079 74.8988 38.5577C71.6282 38.1808 68.5436 37.2642 66.5321 36.5602C63.9821 35.669 62.1705 34.7779 61.5073 34.2916C61.4462 34.2458 61.2857 34.1286 61.04 34.0433C60.8504 33.9771 60.6492 33.9428 60.443 33.9428C59.2832 33.9428 58.0101 34.9969 56.3131 37.3597C55.1661 38.9587 53.7975 41.2069 52.2456 44.0434C52.1845 44.1541 52.1451 44.2751 52.1298 44.4011C51.6015 48.4609 51.8713 52.2483 52.9305 55.6564C53.5047 57.5036 54.224 58.9804 55.1291 60.172C55.3723 60.4915 55.5976 60.7563 55.837 61.0033C57.3087 62.5221 58.7001 63.4425 59.2297 63.7684C60.4911 64.543 62.1326 65.9996 64.1143 68.1034C64.4116 68.4191 64.6222 68.8068 64.7246 69.2282C65.2054 71.2067 65.5931 73.2221 65.8803 75.2312C66.1788 77.3195 66.3734 79.4418 66.4611 81.5574C66.4727 81.8372 66.2585 82.072 65.9819 82.1156C65.08 82.2579 63.9292 82.6558 62.9637 83.6831C61.049 85.7213 61.6282 88.2904 61.6995 88.5768C61.8141 89.0288 62.2202 89.3458 62.6874 89.3458H71.0897C71.5302 89.3458 71.9223 89.0619 72.0585 88.643C72.4417 87.4642 72.8287 86.2624 73.2068 85.0721C74.2164 81.8932 74.7231 80.298 74.9993 79.3088C75.5582 77.3127 75.753 76.1834 76.0496 74.4724C76.2673 73.2172 76.5372 71.6538 77.0528 69.1853C77.2938 68.0319 77.5462 66.8743 77.8081 65.7322C77.8591 65.5099 78.0493 65.3472 78.2767 65.3292C79.6627 65.22 81.053 65.0746 82.4252 64.8951C84.2263 64.6606 86.0348 64.3629 87.8263 64.0065C88.7914 63.8145 89.771 64.3 90.1658 65.2014C90.3292 65.5744 90.4906 65.948 90.6493 66.3209C91.4182 68.1274 91.972 69.5469 92.0267 69.6984C92.6824 71.5634 93.0605 73.0173 93.3444 74.1924C93.9433 76.6783 94.4104 79.4073 94.735 82.3237C94.7667 82.6081 94.5602 82.8608 94.2809 82.9236C93.0646 83.1972 91.9944 83.942 91.352 84.9995C90.1057 87.053 91.0643 89.1726 91.1776 89.4082C91.3482 89.7608 91.7046 89.9836 92.0942 89.9836C92.0993 89.9836 92.1044 89.9836 92.1082 89.9836L101.02 89.8563C101.548 89.8486 101.982 89.4387 102.02 88.9129C102.278 85.4273 102.755 81.9263 103.441 78.5055C103.627 77.58 103.73 77.0669 104.039 75.5469C104.696 72.3331 105.346 68.9871 105.976 65.5829C106.078 65.0333 106.39 64.5161 106.922 64.3438C107.245 64.2382 107.588 64.186 107.939 64.186C108.35 64.186 108.735 64.2586 109.066 64.3559C109.538 64.4945 109.89 64.8718 110.08 65.3252C110.665 66.7251 111.156 68.2455 111.543 69.8601L111.544 69.8677C111.549 69.8906 111.572 69.9823 111.598 70.0956C112.158 72.5514 113.006 76.2636 112.47 80.8264C112.38 81.5889 112.255 82.3515 112.097 83.1047C112.079 83.1922 112 83.2528 111.911 83.2528C110.53 83.2528 109.204 83.8308 108.276 84.8391C106.485 86.7843 107.078 89.2159 107.151 89.4871C107.269 89.925 107.664 90.2318 108.118 90.2395L110.834 90.2815L116.266 90.3668C116.271 90.3668 116.276 90.3668 116.283 90.3668C116.718 90.3668 117.106 90.0893 117.246 89.6755L118.816 85.0504L121.957 75.799C121.964 75.7761 121.972 75.7531 121.977 75.729C122.839 72.4368 123.574 69.0682 124.159 65.7162C124.634 63.0033 125.022 60.2394 125.314 57.501C125.318 57.4628 125.32 57.4234 125.319 57.3852C125.269 51.2286 124.675 46.7092 124.382 45.762C124.005 44.5411 123.501 43.5137 123.432 43.375C123.363 43.225 123.422 43.0451 123.569 42.9682C125.661 41.8689 127.006 40.4884 127.64 39.8384C127.707 39.7684 127.768 39.7072 127.821 39.6538C128.423 39.0516 133.751 33.5647 135.259 26.5398C135.646 24.7397 136.674 19.9567 134.574 14.4354C134.273 13.641 133.565 11.7798 132.162 9.75939C130.399 7.2196 128.158 5.30362 125.504 4.06364C124.88 3.76956 121.542 2.30298 117.636 2.30298Z" stroke="#4344C6" stroke-width="1.01298" mask="url(#path-6-outside-1_469_2473)"/>
<path d="M111.617 44.9166C112.482 45.893 113.345 46.8682 114.209 47.8446" stroke="#191D5D" stroke-width="1.04218" stroke-miterlimit="10" stroke-linecap="round" stroke-linejoin="round"/>
<path d="M111.523 47.6524C112.515 46.8198 113.507 45.9885 114.5 45.1559" stroke="#191D5D" stroke-width="1.04218" stroke-miterlimit="10" stroke-linecap="round" stroke-linejoin="round"/>
<path d="M102.332 60.3211C100.097 60.3211 98.2773 58.5018 98.2773 56.2663V43.2427C98.2773 41.0072 100.097 39.188 102.332 39.188H133.433C135.669 39.188 137.488 41.0072 137.488 43.2427V56.2663C137.488 58.5018 135.669 60.3211 133.433 60.3211H102.332Z" fill="#D0D4FF"/>
<path d="M133.435 39.6972C135.39 39.6972 136.98 41.2872 136.98 43.2427V56.2663C136.98 58.2217 135.39 59.8118 133.435 59.8118H102.334C100.378 59.8118 98.788 58.2217 98.788 56.2663V43.2427C98.788 41.2872 100.378 39.6972 102.334 39.6972H133.435ZM133.435 38.6787H102.334C99.8128 38.6787 97.7695 40.722 97.7695 43.2427V56.2663C97.7695 58.787 99.8128 60.8302 102.334 60.8302H133.435C135.955 60.8302 137.999 58.787 137.999 56.2663V43.2427C137.999 40.722 135.955 38.6787 133.435 38.6787Z" fill="#191D5D"/>
<path d="M110.696 50.5219H110.224C109.914 50.5219 109.647 50.7141 109.538 50.9853C109.462 50.9585 109.38 50.9407 109.295 50.9407H107.576C107.505 50.9407 107.437 50.9534 107.372 50.9725C107.302 50.6352 107.005 50.3818 106.647 50.3818H106.175C105.765 50.3818 105.434 50.7141 105.434 51.1228V54.1094C105.434 54.5193 105.766 54.8503 106.175 54.8503H106.647C107.057 54.8503 107.388 54.5181 107.388 54.1094V53.287C107.449 53.3023 107.511 53.3137 107.576 53.3137H109.294C109.36 53.3137 109.422 53.3023 109.482 53.287V54.2482C109.482 54.6581 109.814 54.9891 110.223 54.9891H110.695C111.105 54.9891 111.436 54.6568 111.436 54.2482V51.2615C111.437 50.8529 111.105 50.5219 110.696 50.5219Z" fill="#828CFC" stroke="#191D5D" stroke-width="1.04218" stroke-miterlimit="10" stroke-linecap="round" stroke-linejoin="round"/>
<path d="M125.194 42.9802C122.412 42.9802 120.077 45.1203 119.434 48.0076H105.222C104.413 48.0076 103.758 48.6632 103.758 49.4716V49.7555C103.758 50.5639 104.413 51.2196 105.222 51.2196H119.434C120.077 54.1069 122.411 56.247 125.194 56.247C128.472 56.247 131.129 53.2769 131.129 49.6142C131.129 45.9516 128.472 42.9802 125.194 42.9802Z" fill="#828CFC" stroke="#191D5D" stroke-width="1.04218" stroke-miterlimit="10" stroke-linecap="round" stroke-linejoin="round"/>
<path d="M125.187 52.6657C123.736 52.6657 122.555 51.3188 122.555 49.6638C122.555 48.0088 123.736 46.6619 125.187 46.6619C126.639 46.6619 127.82 48.0088 127.82 49.6638C127.82 51.3188 126.639 52.6657 125.187 52.6657Z" fill="#D0D4FF"/>
<path d="M125.189 47.1696C126.36 47.1696 127.312 48.2886 127.312 49.6623C127.312 51.0359 126.36 52.155 125.189 52.155C124.018 52.155 123.065 51.0359 123.065 49.6623C123.065 48.2886 124.018 47.1696 125.189 47.1696ZM125.189 46.1511C123.454 46.1511 122.047 47.7234 122.047 49.6623C122.047 51.6012 123.454 53.1734 125.189 53.1734C126.924 53.1734 128.331 51.6012 128.331 49.6623C128.331 47.7234 126.924 46.1511 125.189 46.1511Z" fill="#191D5D"/>
<path d="M101.844 38.9329C103.756 36.8947 105.593 35.5032 106.936 34.6044C108.93 33.2702 112.212 31.1264 116.866 30.5306C118.357 30.3396 119.602 30.3574 120.431 30.4033" stroke="#191D5D" stroke-width="1.04218" stroke-miterlimit="10" stroke-linecap="round" stroke-linejoin="round"/>
<path d="M68.4984 42.6859C65.4774 41.3975 62.4691 43.9271 62.1725 44.1843C59.0917 43.055 55.9077 43.9207 54.1814 46.3243C53.9459 46.6528 53.7498 46.9939 53.5869 47.3415C53.569 49.5121 53.8033 52.0302 54.6002 54.5917C55.3424 56.98 56.2069 58.2276 56.6372 58.7928C56.8574 59.0831 57.0586 59.3173 57.2648 59.5312C58.7237 61.036 60.0847 61.9068 60.4602 62.1372C60.5608 62.1996 60.6677 62.267 60.7798 62.3422C62.2031 63.1085 63.1688 63.7578 64.38 63.7578C66.2953 63.7909 68.3271 61.7854 69.9429 59.3617C70.9851 57.7984 72.4615 55.1225 72.4233 51.1493C72.4131 50.2161 72.2451 44.2823 68.4984 42.6859Z" fill="#D5FAFC"/>
<path d="M75.9538 38.7788C75.6933 39.821 73.6089 43.288 69.9613 44.7713C66.0804 46.3495 63.1872 46.5951 61.8845 46.5951C57.7279 46.4309 54.7438 44.9596 53.5 44.0978" fill="#D0D4FF"/>
<path d="M75.9538 38.7788C75.6933 39.821 73.6089 43.288 69.9613 44.7713C66.0804 46.3495 63.1872 46.5951 61.8845 46.5951C57.7279 46.4309 54.7438 44.9596 53.5 44.0978" stroke="#191D5D" stroke-width="1.04218" stroke-miterlimit="10" stroke-linecap="round" stroke-linejoin="round"/>
<path d="M62.7596 51.2819C63.8845 51.2819 64.7965 50.4269 64.7965 49.3723C64.7965 48.3176 63.8845 47.4626 62.7596 47.4626C61.6346 47.4626 60.7227 48.3176 60.7227 49.3723C60.7227 50.4269 61.6346 51.2819 62.7596 51.2819Z" fill="#828CFC"/>
<path d="M62.7571 47.9718C63.6011 47.9718 64.2848 48.5982 64.2848 49.3722C64.2848 50.1462 63.6011 50.7726 62.7571 50.7726C61.913 50.7726 61.2294 50.1462 61.2294 49.3722C61.2294 48.5982 61.913 47.9718 62.7571 47.9718ZM62.7571 46.9534C61.3529 46.9534 60.2109 48.038 60.2109 49.3722C60.2109 50.7064 61.3529 51.7911 62.7571 51.7911C64.1613 51.7911 65.3032 50.7064 65.3032 49.3722C65.3032 48.038 64.1613 46.9534 62.7571 46.9534Z" fill="#191D5D"/>
<path fill-rule="evenodd" clip-rule="evenodd" d="M41.4939 22.0191C39.3011 18.2338 35.7384 10.7151 36.9778 6.45344C37.6866 4.01655 43.4296 7.98907 49.9612 13.6744C53.1928 12.0273 56.9918 11.072 60.9757 11.072C64.98 11.072 68.7976 12.0371 72.0399 13.6998C78.5835 8.00089 84.3426 4.01293 85.0523 6.45344C86.3001 10.7438 82.6809 18.3351 80.4923 22.0949C81.2693 23.805 81.6961 25.6439 81.6961 27.5592C81.6961 36.6648 72.0501 44.0464 60.9757 44.0464C49.9013 44.0464 40.2553 36.6648 40.2553 27.5592C40.2553 25.6156 40.6948 23.7505 41.4939 22.0191Z" fill="#BEDCFC"/>
<path d="M36.9778 6.45344L37.8695 6.71275L36.9778 6.45344ZM41.4939 22.0191L42.337 22.4081L42.5389 21.9706L42.2973 21.5536L41.4939 22.0191ZM49.9612 13.6744L49.3515 14.3748L49.8243 14.7864L50.3828 14.5017L49.9612 13.6744ZM72.0399 13.6998L71.6162 14.526L72.1756 14.8129L72.6497 14.4L72.0399 13.6998ZM85.0523 6.45344L85.944 6.19412V6.19412L85.0523 6.45344ZM80.4923 22.0949L79.6898 21.6278L79.4485 22.0423L79.6469 22.4791L80.4923 22.0949ZM36.0862 6.19412C35.3784 8.62773 36.0565 11.8189 37.0723 14.7216C38.1071 17.6784 39.5748 20.5587 40.6904 22.4845L42.2973 21.5536C41.2202 19.6942 39.8102 16.9225 38.8252 14.1082C37.8214 11.2398 37.3378 8.54084 37.8695 6.71275L36.0862 6.19412ZM50.5708 12.974C47.2966 10.124 44.1771 7.66443 41.7624 6.22106C40.5737 5.51054 39.4581 4.98534 38.5339 4.83728C38.0656 4.76226 37.5446 4.76685 37.0711 4.99297C36.5592 5.23748 36.2369 5.6759 36.0862 6.19412L37.8695 6.71275C37.8959 6.62176 37.9082 6.65125 37.8715 6.66877C37.8702 6.66937 37.8927 6.65826 37.9545 6.65325C38.0175 6.64814 38.1107 6.6503 38.2401 6.67102C38.7961 6.7601 39.6574 7.12645 40.8095 7.81512C43.0764 9.17012 46.0941 11.5394 49.3515 14.3748L50.5708 12.974ZM60.9757 10.1434C56.8452 10.1434 52.9017 11.1334 49.5395 12.8471L50.3828 14.5017C53.4839 12.9211 57.1384 12.0006 60.9757 12.0006V10.1434ZM72.4636 12.8735C69.0901 11.1436 65.1273 10.1434 60.9757 10.1434V12.0006C64.8327 12.0006 68.505 12.9306 71.6162 14.526L72.4636 12.8735ZM85.944 6.19412C85.793 5.67502 85.47 5.23618 84.9569 4.99196C84.4827 4.76621 83.9609 4.76231 83.492 4.83798C82.5662 4.98735 81.4484 5.51452 80.257 6.22757C77.8367 7.676 74.7102 10.1428 71.43 12.9995L72.6497 14.4C75.9131 11.5579 78.938 9.18125 81.2106 7.82111C82.3657 7.12986 83.2296 6.76145 83.7878 6.67139C83.9177 6.65043 84.0115 6.64813 84.0748 6.65318C84.1371 6.65814 84.1598 6.66931 84.1587 6.66877C84.1221 6.65133 84.1343 6.62173 84.1607 6.71275L85.944 6.19412ZM81.2948 22.5621C82.4086 20.6486 83.8894 17.7566 84.9368 14.7815C85.965 11.8611 86.6563 8.64346 85.944 6.19412L84.1607 6.71275C84.6962 8.55377 84.2018 11.2769 83.1851 14.1648C82.1877 16.9978 80.7646 19.7813 79.6898 21.6278L81.2948 22.5621ZM82.6246 27.5592C82.6246 25.5034 82.1661 23.534 81.3377 21.7108L79.6469 22.4791C80.3725 24.076 80.7675 25.7845 80.7675 27.5592H82.6246ZM60.9757 44.9749C66.7127 44.9749 72.0968 43.0647 76.0626 39.9474C80.0284 36.8302 82.6246 32.4592 82.6246 27.5592H80.7675C80.7675 31.7648 78.5408 35.6374 74.915 38.4874C71.2892 41.3373 66.3131 43.1178 60.9757 43.1178V44.9749ZM39.3268 27.5592C39.3268 32.4592 41.923 36.8302 45.8888 39.9474C49.8546 43.0647 55.2387 44.9749 60.9757 44.9749V43.1178C55.6383 43.1178 50.6622 41.3373 47.0364 38.4874C43.4106 35.6374 41.1839 31.7648 41.1839 27.5592H39.3268ZM40.6507 21.63C39.799 23.4757 39.3268 25.4729 39.3268 27.5592H41.1839C41.1839 25.7582 41.5906 24.0254 42.337 22.4081L40.6507 21.63Z" fill="#4344C6"/>
<path d="M78.8279 19.1216L74.9555 15.249C74.7318 15.0253 74.704 14.6718 74.917 14.4379C76.4292 12.7772 79.9803 10.3784 81.7938 9.68431C82.1078 9.56412 82.4312 9.76614 82.455 10.1015C82.6306 12.5791 80.7741 16.929 79.8495 18.9443C79.6657 19.3451 79.1398 19.4334 78.8279 19.1216Z" fill="#D5FAFC"/>
<path d="M43.2931 19.1216L47.1656 15.249C47.3893 15.0253 47.4171 14.6718 47.2041 14.4379C45.6919 12.7772 42.1408 10.3784 40.3273 9.68431C40.0132 9.56412 39.6899 9.76614 39.6661 10.1015C39.4905 12.5791 41.347 16.929 42.2716 18.9443C42.4554 19.3451 42.9813 19.4334 43.2931 19.1216Z" fill="#D5FAFC"/>
<path d="M63.1227 29.3516C63.1227 30.2898 61.4451 31.9726 60.5098 31.9726C59.5745 31.9726 57.9453 30.2898 57.9453 29.3516C57.9453 28.4133 59.5745 28.0896 60.5098 28.0896C61.4451 28.0896 63.1227 28.4133 63.1227 29.3516Z" fill="#4748CE"/>
<path fill-rule="evenodd" clip-rule="evenodd" d="M60.4332 33.7671C60.3895 33.7603 60.3488 33.7905 60.3411 33.8339C60.0707 35.3537 58.8097 36.4579 57.3102 36.6333C55.8092 36.809 54.0466 36.0527 52.8152 33.7838C52.7942 33.745 52.7455 33.7295 52.7065 33.7502L52.6124 33.8001C52.5735 33.8208 52.5589 33.8698 52.58 33.9086C53.8539 36.2573 55.7128 37.0884 57.3412 36.8978C58.7159 36.737 59.9104 35.8469 60.4109 34.5658C60.4387 34.4945 60.547 34.4923 60.5783 34.5621C61.1584 35.8548 62.6223 36.7371 64.153 36.8955C65.0672 36.99 66.0183 36.8293 66.8396 36.3374C67.6451 35.855 68.3175 35.0587 68.7068 33.8917C68.7208 33.8499 68.6976 33.8047 68.6556 33.7913L68.5541 33.759C68.512 33.7456 68.4671 33.769 68.4531 33.8108C68.0822 34.9202 67.4489 35.6621 66.7027 36.109C65.9381 36.567 65.0463 36.7201 64.1804 36.6306C62.4673 36.4534 60.9058 35.3376 60.6274 33.8338C60.6194 33.7904 60.5787 33.7603 60.5351 33.7671L60.4963 33.773C60.4882 33.7743 60.48 33.7743 60.472 33.773L60.4332 33.7671Z" fill="#191D5D"/>
<path d="M57.3102 36.6333L57.362 37.0759L57.3102 36.6333ZM57.3412 36.8978L57.2894 36.4553L57.3412 36.8978ZM64.153 36.8955L64.1072 37.3387L64.153 36.8955ZM66.8396 36.3374L67.0686 36.7197V36.7197L66.8396 36.3374ZM66.7027 36.109L66.9317 36.4912L66.7027 36.109ZM64.1804 36.6306L64.2263 36.1873L64.1804 36.6306ZM68.5541 33.759L68.4187 34.1835L68.5541 33.759ZM68.4531 33.8108L68.8757 33.9521L68.4531 33.8108ZM60.4109 34.5658L59.9958 34.4037L60.4109 34.5658ZM60.5783 34.5621L60.1717 34.7445L60.5783 34.5621ZM68.7068 33.8917L68.2842 33.7507L68.7068 33.8917ZM68.6556 33.7913L68.7909 33.3668L68.6556 33.7913ZM60.4963 33.773L60.4285 33.3326L60.4963 33.773ZM60.472 33.773L60.5397 33.3326L60.472 33.773ZM60.6274 33.8338L60.1892 33.9149L60.6274 33.8338ZM60.5351 33.7671L60.4673 33.3266L60.5351 33.7671ZM60.3411 33.8339L60.7798 33.912L60.3411 33.8339ZM60.4332 33.7671L60.3654 34.2075L60.4332 33.7671ZM57.362 37.0759C59.0437 36.8791 60.4727 35.6379 60.7798 33.912L59.9024 33.7559C59.6687 35.0694 58.5757 36.0366 57.2584 36.1907L57.362 37.0759ZM52.4236 33.9964C53.7263 36.3965 55.6495 37.2763 57.362 37.0759L57.2584 36.1907C55.9688 36.3417 54.367 35.7088 53.2069 33.5713L52.4236 33.9964ZM52.8213 34.1938L52.9154 34.1439L52.4977 33.3566L52.4036 33.4065L52.8213 34.1938ZM57.2894 36.4553C55.8728 36.621 54.1745 35.9138 52.9716 33.6961L52.1883 34.1211C53.5333 36.6008 55.5528 37.5558 57.393 37.3404L57.2894 36.4553ZM59.9958 34.4037C59.5579 35.5247 58.5077 36.3127 57.2894 36.4553L57.393 37.3404C58.9242 37.1612 60.263 36.1691 60.8259 34.7279L59.9958 34.4037ZM60.1717 34.7445C60.8324 36.2167 62.4598 37.1683 64.1072 37.3387L64.1989 36.4522C62.7848 36.306 61.4844 35.4928 60.9848 34.3796L60.1717 34.7445ZM64.1072 37.3387C65.1022 37.4416 66.1527 37.2683 67.0686 36.7197L66.6106 35.9552C65.884 36.3904 65.0322 36.5384 64.1989 36.4522L64.1072 37.3387ZM67.0686 36.7197C67.9718 36.1787 68.7089 35.2933 69.1295 34.0328L68.2842 33.7507C67.926 34.8241 67.3184 35.5313 66.6106 35.9552L67.0686 36.7197ZM68.7909 33.3668L68.6894 33.3344L68.4187 34.1835L68.5202 34.2159L68.7909 33.3668ZM68.0305 33.6695C67.6908 34.6853 67.1223 35.3383 66.4738 35.7267L66.9317 36.4912C67.7754 35.9859 68.4735 35.155 68.8757 33.9521L68.0305 33.6695ZM66.4738 35.7267C65.8037 36.128 65.0113 36.2685 64.2263 36.1873L64.1346 37.0738C65.0813 37.1717 66.0724 37.0059 66.9317 36.4912L66.4738 35.7267ZM64.2263 36.1873C62.6375 36.023 61.2963 34.999 61.0656 33.7527L60.1892 33.9149C60.5153 35.6762 62.2971 36.8838 64.1346 37.0738L64.2263 36.1873ZM60.4673 33.3266L60.4285 33.3326L60.564 34.2134L60.6028 34.2075L60.4673 33.3266ZM60.3654 34.2075L60.4042 34.2134L60.5397 33.3326L60.5009 33.3266L60.3654 34.2075ZM68.6894 33.3344C68.4102 33.2454 68.1201 33.4016 68.0305 33.6695L68.8757 33.9521C68.8141 34.1363 68.6138 34.2457 68.4187 34.1835L68.6894 33.3344ZM60.8259 34.7279C60.762 34.8915 60.612 34.9542 60.5029 34.9565C60.3941 34.9589 60.243 34.9032 60.1717 34.7445L60.9848 34.3796C60.8823 34.1511 60.6613 34.0617 60.4836 34.0655C60.3056 34.0694 60.0875 34.1688 59.9958 34.4037L60.8259 34.7279ZM69.1295 34.0328C69.223 33.7527 69.0671 33.4548 68.7909 33.3668L68.5202 34.2159C68.3281 34.1546 68.2186 33.947 68.2842 33.7507L69.1295 34.0328ZM52.4036 33.4065C52.1438 33.5443 52.0502 33.8665 52.1883 34.1211L52.9716 33.6961C53.0676 33.8731 53.0031 34.0973 52.8213 34.1938L52.4036 33.4065ZM60.4285 33.3326C60.4654 33.3269 60.5029 33.3269 60.5397 33.3326L60.4042 34.2134C60.4572 34.2216 60.5111 34.2216 60.564 34.2134L60.4285 33.3326ZM53.2069 33.5713C53.073 33.3245 52.7595 33.2177 52.4977 33.3566L52.9154 34.1439C52.7315 34.2414 52.5154 34.1655 52.4236 33.9964L53.2069 33.5713ZM61.0656 33.7527C61.0154 33.4819 60.7583 33.2819 60.4673 33.3266L60.6028 34.2075C60.399 34.2388 60.2233 34.0989 60.1892 33.9149L61.0656 33.7527ZM60.7798 33.912C60.7465 34.0989 60.5689 34.2388 60.3654 34.2075L60.5009 33.3266C60.2102 33.2819 59.9511 33.4821 59.9024 33.7559L60.7798 33.912Z" fill="#191D5D"/>
<path d="M70.0411 17.2475C69.4968 13.9136 70.3922 5.99671 78.3281 1" stroke="#4344C6" stroke-width="0.979747" stroke-linecap="round"/>
<path d="M66.7773 16.962C66.097 14.8256 65.1444 9.61385 66.7773 5.85815" stroke="#4344C6" stroke-width="0.979747" stroke-linecap="round"/>
<path d="M52.3417 17.2475C52.886 13.9136 51.9906 5.99671 44.0547 1" stroke="#4344C6" stroke-width="0.979747" stroke-linecap="round"/>
<path d="M55.6055 16.962C56.2858 14.8256 57.2384 9.61385 55.6055 5.85815" stroke="#4344C6" stroke-width="0.979747" stroke-linecap="round"/>
<path d="M73.5155 33.7411C75.58 33.7411 77.2536 32.7848 77.2536 31.6051C77.2536 30.4253 75.58 29.469 73.5155 29.469C71.451 29.469 69.7773 30.4253 69.7773 31.6051C69.7773 32.7848 71.451 33.7411 73.5155 33.7411Z" fill="#D5FAFC"/>
<path d="M74.5267 31.1238C78.7898 28.6332 84.3026 25.9504 93.6875 30.359" stroke="#4344C6" stroke-width="0.979747" stroke-linecap="round"/>
<path d="M75.8678 32.8599C78.556 32.1459 83.3181 32.1136 87.0078 35.1345" stroke="#4344C6" stroke-width="0.979747" stroke-linecap="round"/>
<path d="M47.7576 33.7411C49.8222 33.7411 51.4958 32.7848 51.4958 31.6051C51.4958 30.4253 49.8222 29.469 47.7576 29.469C45.6931 29.469 44.0195 30.4253 44.0195 31.6051C44.0195 32.7848 45.6931 33.7411 47.7576 33.7411Z" fill="#D5FAFC"/>
<path d="M47.1608 31.1241C42.8977 28.6335 37.3849 25.9506 28 30.3592" stroke="#4344C6" stroke-width="0.979747" stroke-linecap="round"/>
<path d="M45.8236 32.8601C43.1355 32.1461 38.3733 32.1139 34.6836 35.1348" stroke="#4344C6" stroke-width="0.979747" stroke-linecap="round"/>
<path d="M52.4413 27.928C55.3235 27.928 57.66 26.2048 57.66 24.0792C57.66 21.9536 55.3235 20.2305 52.4413 20.2305C49.5591 20.2305 47.2227 21.9536 47.2227 24.0792C47.2227 26.2048 49.5591 27.928 52.4413 27.928Z" fill="#D5FAFC" stroke="#191D5D" stroke-width="1.04373" stroke-miterlimit="10"/>
<path d="M54.0761 27.1452C55.6973 27.1452 57.0116 25.8309 57.0116 24.2097C57.0116 22.5884 55.6973 21.2742 54.0761 21.2742C52.4549 21.2742 51.1406 22.5884 51.1406 24.2097C51.1406 25.8309 52.4549 27.1452 54.0761 27.1452Z" fill="#191D5D" stroke="#191D5D" stroke-width="1.04373" stroke-miterlimit="10"/>
<path d="M50.5426 24.4054C51.155 24.4054 51.6515 23.9089 51.6515 23.2965C51.6515 22.684 51.155 22.1875 50.5426 22.1875C49.9301 22.1875 49.4336 22.684 49.4336 23.2965C49.4336 23.9089 49.9301 24.4054 50.5426 24.4054Z" fill="white"/>
<path d="M68.9999 27.928C71.8821 27.928 74.2186 26.2048 74.2186 24.0792C74.2186 21.9536 71.8821 20.2305 68.9999 20.2305C66.1177 20.2305 63.7812 21.9536 63.7812 24.0792C63.7812 26.2048 66.1177 27.928 68.9999 27.928Z" fill="#D5FAFC" stroke="#191D5D" stroke-width="1.04373" stroke-miterlimit="10"/>
<path d="M70.6347 27.1452C72.2559 27.1452 73.5702 25.8309 73.5702 24.2097C73.5702 22.5884 72.2559 21.2742 70.6347 21.2742C69.0135 21.2742 67.6992 22.5884 67.6992 24.2097C67.6992 25.8309 69.0135 27.1452 70.6347 27.1452Z" fill="#191D5D" stroke="#191D5D" stroke-width="1.04373" stroke-miterlimit="10"/>
<path d="M67.1012 24.4054C67.7136 24.4054 68.2101 23.9089 68.2101 23.2965C68.2101 22.684 67.7136 22.1875 67.1012 22.1875C66.4887 22.1875 65.9922 22.684 65.9922 23.2965C65.9922 23.9089 66.4887 24.4054 67.1012 24.4054Z" fill="white"/>
<path d="M61.5564 64.8333C56.9848 66.9148 50.6383 66.0954 46.9005 62.9942C41.4594 58.4798 42.5326 51.3786 42.6994 50.3907C42.7949 49.8242 44.003 43.5186 49.4467 40.8426C51.8261 39.6727 56.3697 38.532 57.9763 40.7153C59.1272 42.2787 58.5543 45.2513 56.9578 46.5715C55.8375 47.4983 54.2156 47.609 52.6294 47.7172C51.8986 47.7669 51.285 47.7465 50.8471 47.7172C50.511 48.2392 49.6262 49.7656 49.8286 51.7911C49.8923 52.4302 50.0641 54.1437 51.4836 55.3557C52.292 56.0457 52.9983 56.4042 53.4796 56.4959" fill="#BEDCFC"/>
<path d="M61.5564 64.8333C56.9848 66.9148 50.6383 66.0954 46.9005 62.9942C41.4594 58.4798 42.5326 51.3786 42.6994 50.3907C42.7949 49.8242 44.003 43.5186 49.4467 40.8426C51.8261 39.6727 56.3697 38.532 57.9763 40.7153C59.1272 42.2787 58.5543 45.2513 56.9578 46.5715C55.8375 47.4983 54.2156 47.609 52.6294 47.7173C51.8986 47.7669 51.285 47.7465 50.8471 47.7173C50.511 48.2392 49.6262 49.7656 49.8286 51.7911C49.8923 52.4302 50.0641 54.1437 51.4836 55.3557C52.292 56.0457 52.9983 56.4042 53.4796 56.4959" stroke="#4344C6" stroke-width="1.68829" stroke-miterlimit="10" stroke-linecap="round" stroke-linejoin="round"/>
<path d="M53.5508 55.9749C54.4318 58.7171 58.9542 62.7964 61.6276 64.8333" stroke="#4344C6" stroke-width="1.01846" stroke-miterlimit="10" stroke-linecap="round" stroke-linejoin="round"/>
</svg>
