<svg width="204" height="111" viewBox="0 0 204 111" fill="none" xmlns="http://www.w3.org/2000/svg">
<path fill-rule="evenodd" clip-rule="evenodd" d="M-136 77L-97.2083 81C-58.4167 93.3932 19.1667 94.0338 96.75 87.8371C174.333 81.6405 251.917 44.4608 329.5 22.7726C407.083 1.08441 484.667 -5.11222 562.25 4.18272C639.833 13.4777 717.417 38.2642 756.208 50.6574L795 63.0506V156H756.208C717.417 156 639.833 156 562.25 156C484.667 156 407.083 156 329.5 156C251.917 156 174.333 156 96.75 156C19.1667 156 -58.4167 156 -97.2083 156H-136V77Z" fill="#828CFC"/>
<path d="M155.024 64.5398C154.619 63.7224 153.96 62.623 152.913 61.5235C152.053 60.6217 151.191 59.9913 150.5 59.563" stroke="#191D5D" stroke-width="1.23459" stroke-miterlimit="10" stroke-linecap="round" stroke-linejoin="round"/>
<path d="M124.625 124.111C124.357 124.106 124.123 123.925 124.052 123.666C124.02 123.551 123.31 120.827 125.246 118.725C126.233 117.654 127.64 117.04 129.109 117.04C129.327 117.04 129.546 117.054 129.765 117.081C130.032 115.947 130.235 114.79 130.371 113.634C131.018 108.127 130 103.668 129.326 100.718C129.297 100.591 129.272 100.486 129.263 100.448C129.263 100.448 129.26 100.433 129.258 100.431C128.927 99.0517 128.533 97.7277 128.08 96.4713C127.475 94.7955 126.185 93.2483 124.403 93.2483C123.924 93.2483 123.456 93.3207 123.013 93.4655C122.12 93.7564 121.625 94.6482 121.454 95.572C120.719 99.5405 119.96 103.441 119.194 107.189C118.832 108.961 118.709 109.58 118.484 110.696C117.667 114.772 117.098 118.945 116.792 123.099C116.769 123.411 116.511 123.654 116.199 123.658C116.199 123.658 105.636 123.809 105.633 123.809C105.403 123.809 105.191 123.676 105.09 123.468C104.971 123.219 103.958 120.981 105.268 118.822C106.131 117.399 107.736 116.516 109.458 116.516C109.468 116.516 109.479 116.516 109.49 116.516C109.1 112.567 108.499 108.886 107.699 105.565C107.36 104.158 106.908 102.418 106.12 100.181C106.069 100.035 105.416 98.3548 104.475 96.1454C103.574 94.028 101.274 92.9106 99.0101 93.3252C97.3766 93.6244 95.7353 93.8816 94.0992 94.0944C93.4022 94.1852 92.701 94.2688 91.9979 94.3449C89.8172 94.5808 87.9769 96.1277 87.5149 98.272C87.4158 98.7318 87.3181 99.192 87.2221 99.6518C86.6098 102.587 86.2886 104.443 86.0307 105.936C85.6823 107.943 85.4531 109.271 84.8001 111.605C84.4758 112.766 83.8756 114.653 82.6827 118.411C82.2348 119.821 81.7778 121.244 81.3239 122.639C81.2424 122.887 81.0117 123.055 80.7508 123.055H70.7972C70.5212 123.055 70.2799 122.868 70.212 122.599C70.1818 122.477 69.4791 119.582 71.5633 117.363C72.996 115.838 74.8208 115.611 75.7815 115.611C75.8252 115.611 75.869 115.611 75.9112 115.612C75.8358 112.687 75.59 109.744 75.1767 106.853C74.9075 104.971 74.5649 103.084 74.1528 101.218C73.7965 99.6045 72.9947 98.1214 71.8339 96.9456C69.9301 95.017 68.3156 93.642 67.0178 92.8441C66.41 92.4701 64.8114 91.4114 63.1163 89.662C62.8494 89.386 62.5975 89.0919 62.3245 88.733C61.3096 87.3983 60.4665 85.6609 59.815 83.5707C58.5859 79.6179 58.2737 75.2172 58.8875 70.4953C58.8966 70.4214 58.9207 70.349 58.9569 70.2841C64.6048 59.9565 66.8308 58.6309 68.1368 58.6309C68.3133 58.6309 68.4852 58.6595 68.6466 58.7153C68.8532 58.7877 68.9844 58.8842 69.0402 58.9249C70.856 60.2566 78.202 63.2864 85.1922 64.0918C86.7471 64.2712 88.5734 64.4613 90.5611 64.4613C93.8458 64.4613 96.8304 63.9364 99.6837 62.8566C102.172 61.9156 103.879 60.789 105.529 59.6986C107.778 58.2146 110.103 56.6809 114.313 55.6584C116.288 55.1788 118.121 54.945 119.912 54.945C120.57 54.945 121.239 54.9767 121.901 55.04C124.152 55.2557 125.999 56 128.457 56.7306L128.88 56.8376C130.622 57.2783 132.429 57.6864 134.184 57.2968C138.979 56.2323 142.688 51.5666 144.128 47.0198C145.552 42.5256 145.28 34.9066 140.216 32.0442C139.016 31.3655 137.627 31.0217 136.088 31.0217C132.737 31.0217 129.37 32.6173 127.335 34.1118C125.461 35.4872 124.409 37.0225 123.713 38.039C123.146 38.8669 122.803 39.3661 122.242 39.3661C122.134 39.3661 122.027 39.345 121.926 39.3013C121.509 39.1248 121.259 38.6543 121.141 37.8173C120.782 35.2821 121.735 28.3221 126.896 24.1476C129.359 22.1569 132.383 21.1465 135.883 21.1465C140.382 21.1465 144.231 22.8371 144.956 23.1764C149.71 25.3964 153.222 29.4185 155.394 35.1298C157.817 41.5031 156.627 47.0425 156.18 49.1282C154.429 57.2811 148.232 63.662 147.53 64.3632C147.467 64.4266 147.393 64.502 147.31 64.5864C146.497 65.4204 144.668 67.2981 141.778 68.5996C141.937 68.8906 142.08 69.1742 142.213 69.4577C142.269 69.5678 142.863 70.7667 143.306 72.2025C143.644 73.2959 144.33 78.5667 144.389 85.7982C144.389 85.8208 144.387 85.8434 144.386 85.8676C144.041 89.0995 143.582 92.36 143.023 95.5603C142.33 99.5131 141.465 103.487 140.448 107.372C140.445 107.385 140.441 107.399 140.436 107.413L134.856 123.851C134.773 124.095 134.542 124.26 134.285 124.26C134.283 124.261 124.625 124.111 124.625 124.111Z" fill="#BEDCFC"/>
<path d="M141 96.9914C139.054 96.0986 136.928 95.6069 134.701 95.6069C132.921 95.6069 131.206 95.9221 129.596 96.5028C129.922 97.5916 130.249 98.8509 130.543 100.293C130.545 100.306 130.571 100.43 130.6 100.584C131.222 103.785 132.046 108.206 131.497 113.704C131.324 115.437 131.058 116.846 130.857 117.776C129.456 117.378 127.98 117.897 127.012 119.134C125.571 120.977 126.081 123.356 126.115 123.507C128.849 123.557 131.583 123.608 134.316 123.658C135.896 118.179 137.477 112.698 139.057 107.219C139.763 104.045 140.425 100.63 141 96.9914Z" fill="#D5FAFC"/>
<path d="M122.162 38.7462C122.797 39.0131 123.649 36.0723 126.981 33.6261C128.397 32.5855 130.453 31.4951 132.706 30.8919C131.661 28.1622 129.344 26.0599 126.479 25.3179C121.295 30.254 121.167 38.3254 122.162 38.7462Z" fill="#D5FAFC"/>
<mask id="path-6-outside-1_263_6410" maskUnits="userSpaceOnUse" x="56.9746" y="19.5432" width="102" height="106" fill="black">
<rect fill="white" x="56.9746" y="19.5432" width="102" height="106"/>
<path d="M135.886 21.7497C140.343 21.7497 144.143 23.4614 144.703 23.7223C151.646 26.9648 154.137 33.5191 154.831 35.3439C157.145 41.4262 156.077 46.7363 155.591 49.0015C153.892 56.9161 147.821 63.2216 147.105 63.9364C146.401 64.6406 144.618 66.6482 141.585 68.0272C141.24 68.1839 141.097 68.6039 141.277 68.9373C141.426 69.2134 141.554 69.4705 141.669 69.7149C141.672 69.7204 141.674 69.725 141.676 69.7304C141.728 69.833 142.305 71.0022 142.731 72.3804C143.038 73.3712 143.728 78.5923 143.787 85.8027C143.461 88.8551 143.02 92.081 142.43 95.4547C141.692 99.6714 140.813 103.6 139.866 107.218C138.055 112.555 136.242 117.894 134.431 123.231C134.344 123.485 134.104 123.654 133.836 123.65C130.924 123.604 128.011 123.558 125.099 123.513C124.824 123.509 124.585 123.323 124.547 123.05C124.437 122.243 124.4 120.533 125.69 119.132C126.575 118.172 127.822 117.642 129.107 117.642C129.276 117.642 129.445 117.651 129.614 117.67C129.95 117.706 130.282 117.512 130.359 117.182C130.568 116.287 130.804 115.101 130.968 113.703C131.614 108.204 130.644 103.784 129.912 100.582C129.878 100.428 129.848 100.305 129.845 100.291C129.221 97.6895 128.471 95.6756 127.824 94.2065C127.619 93.74 127.267 93.347 126.797 93.1495C126.22 92.9067 125.374 92.6435 124.402 92.6435C123.903 92.6435 123.37 92.7129 122.824 92.8908C122.489 92.9993 122.19 93.1355 121.925 93.2824C121.408 93.5703 121.107 94.117 121 94.6996C120.038 99.924 119.205 104.114 118.602 107.067C118.24 108.841 118.114 109.459 117.891 110.577C117.007 114.986 116.508 118.998 116.232 122.49C116.206 122.809 115.943 123.057 115.623 123.061C112.424 123.107 109.224 123.153 106.025 123.199C105.785 123.202 105.564 123.067 105.485 122.84C105.245 122.15 104.888 120.605 105.782 119.132C106.547 117.873 107.951 117.117 109.456 117.117C109.813 117.117 110.125 116.829 110.09 116.473C109.82 113.735 109.302 109.647 108.283 105.422C107.948 104.033 107.49 102.262 106.687 99.979C106.632 99.8192 105.977 98.1361 105.028 95.9071C104.681 95.0904 104.351 94.3378 104.049 93.6591C103.573 92.5926 102.405 92.0268 101.262 92.2659C99.0003 92.739 96.5822 93.1597 94.0191 93.4941C92.5203 93.6892 91.0652 93.8427 89.6575 93.9612C88.5758 94.0523 87.6642 94.8185 87.424 95.877C87.1916 96.9016 86.9195 98.1357 86.6293 99.5266C85.1966 106.398 85.3459 107.405 84.2163 111.441C83.8936 112.591 83.2979 114.471 82.105 118.227C81.6201 119.753 81.202 121.05 80.8861 122.024C80.8036 122.278 80.5667 122.45 80.2993 122.45C77.2905 122.45 74.2817 122.45 71.2729 122.45C70.9911 122.45 70.7458 122.26 70.7114 121.98C70.6058 121.124 70.5871 119.28 72.0005 117.775C73.2583 116.436 74.8539 116.212 75.7784 116.212C76.1665 116.212 76.5191 115.906 76.5089 115.518C76.439 112.87 76.2225 109.932 75.7709 106.766C75.3797 104.022 74.8663 101.498 74.3011 99.2177C74.1793 98.7267 73.9326 98.2744 73.5884 97.9037C70.5083 94.5872 68.6034 92.911 67.3645 92.1494C66.9197 91.8765 65.2728 91.0238 63.5445 89.2412C63.2987 88.9878 63.0619 88.7103 62.801 88.3665C62.2913 87.6969 61.2672 86.2189 60.388 83.3897C58.8773 78.5298 59.0739 73.7994 59.4685 70.6845C59.4782 70.6085 59.5019 70.5362 59.5388 70.469C62.6233 64.8385 66.1519 59.2311 68.1337 59.2311C68.2423 59.2311 68.3464 59.2477 68.4444 59.2824C68.5681 59.3246 68.642 59.3819 68.6812 59.4105C70.5724 60.798 78.024 63.8716 85.1197 64.689C86.7108 64.8714 88.5416 65.063 90.558 65.063C93.3631 65.063 96.5271 64.6935 99.8948 63.4191C105.855 61.163 107.273 57.9869 114.453 56.2435C116.376 55.776 118.155 55.5482 119.911 55.5482C120.556 55.5482 121.199 55.5799 121.842 55.6402C124.613 55.9042 126.813 56.6748 128.252 57.2992C129.085 57.5389 129.918 57.7786 130.75 58.0191C131.175 58.1418 131.622 58.1763 132.057 58.0948C138.094 56.9613 142.974 52.6568 144.703 47.2023C146.33 42.0641 145.597 34.3938 140.513 31.5193C139.127 30.7351 137.611 30.4184 136.088 30.4184C132.607 30.4184 129.086 32.0773 126.978 33.6247C123.788 35.9668 122.871 38.7613 122.242 38.7613C122.213 38.7613 122.186 38.7553 122.159 38.7447C121.116 38.3044 121.307 29.4426 127.275 24.6151C129.973 22.4359 133.061 21.7497 135.886 21.7497ZM135.886 20.5432C132.244 20.5432 129.092 21.5974 126.519 23.6786C123.604 26.0358 122.128 29.1365 121.401 31.3218C120.478 34.1027 120.352 36.5444 120.545 37.9017C120.6 38.2893 120.767 39.4671 121.692 39.8577C121.868 39.9316 122.054 39.9693 122.244 39.9693C123.123 39.9693 123.602 39.2681 124.212 38.3798C124.884 37.398 125.902 35.914 127.694 34.5989C129.561 33.228 132.882 31.6264 136.09 31.6264C137.522 31.6264 138.812 31.9446 139.92 32.572C142.472 34.0153 143.519 36.7359 143.946 38.7628C144.488 41.3342 144.342 44.355 143.553 46.8403C142.002 51.7383 137.695 55.4874 132.185 56.8093C131.707 56.9239 131.207 56.8979 130.735 56.7617L128.661 56.1636C126.513 55.2406 124.258 54.6615 121.959 54.4413C121.277 54.3764 120.589 54.3433 119.911 54.3433C118.071 54.3433 116.192 54.5815 114.169 55.0732C109.859 56.1198 107.488 57.6837 105.197 59.1964C103.499 60.3169 101.896 61.3756 99.4695 62.2926C96.6855 63.3467 93.7703 63.858 90.5595 63.858C88.602 63.858 86.7967 63.6695 85.2585 63.4915C81.3841 63.0451 77.7299 61.9593 75.3471 61.1253C72.3263 60.0696 70.1802 59.0139 69.3945 58.4378C69.3221 58.3835 69.1321 58.2448 68.841 58.1437C68.6163 58.0653 68.378 58.0246 68.1337 58.0246C66.7598 58.0246 65.2517 59.2733 63.2414 62.0724C61.8826 63.9666 60.2613 66.6299 58.4229 69.99C58.3505 70.1212 58.3038 70.2645 58.2857 70.4138C57.6598 75.2232 57.9795 79.7099 59.2343 83.7471C59.9145 85.9354 60.7665 87.6848 61.8388 89.0964C62.1269 89.475 62.3938 89.7886 62.6773 90.0812C64.4207 91.8804 66.0691 92.9708 66.6965 93.3569C68.1907 94.2745 70.1353 96 72.4828 98.4923C72.8351 98.8662 73.0846 99.3255 73.2059 99.8247C73.7754 102.169 74.2347 104.556 74.5749 106.936C74.9285 109.41 75.1591 111.924 75.263 114.43C75.2767 114.762 75.023 115.04 74.6953 115.092C73.6268 115.26 72.2636 115.731 71.1198 116.948C68.8516 119.363 69.5378 122.406 69.6222 122.746C69.758 123.281 70.2391 123.657 70.7925 123.657H80.7461C81.268 123.657 81.7325 123.32 81.8938 122.824C82.3478 121.428 82.8062 120.004 83.2542 118.594C84.4501 114.828 85.0503 112.938 85.3776 111.767C86.0397 109.402 86.2704 108.064 86.6218 106.037C86.8797 104.55 87.1994 102.698 87.8102 99.7739C88.0957 98.4075 88.3947 97.0362 88.705 95.6833C88.7654 95.4198 88.9907 95.2271 89.2601 95.2059C90.902 95.0765 92.549 94.9042 94.1745 94.6916C96.3081 94.4138 98.4505 94.0611 100.573 93.6389C101.716 93.4115 102.877 93.9866 103.344 95.0544C103.538 95.4963 103.729 95.9389 103.917 96.3806C104.828 98.5207 105.484 100.202 105.549 100.382C106.325 102.591 106.773 104.313 107.11 105.705C107.819 108.65 108.373 111.883 108.757 115.338C108.795 115.675 108.55 115.974 108.219 116.049C106.778 116.373 105.51 117.255 104.749 118.508C103.273 120.94 104.409 123.451 104.543 123.73C104.745 124.148 105.167 124.412 105.629 124.412C105.635 124.412 105.641 124.412 105.645 124.412L116.202 124.261C116.828 124.252 117.342 123.767 117.387 123.144C117.692 119.015 118.258 114.867 119.071 110.815C119.291 109.718 119.413 109.111 119.779 107.31C120.557 103.503 121.327 99.5391 122.074 95.5064C122.194 94.8553 122.564 94.2426 123.194 94.0385C123.577 93.9134 123.983 93.8515 124.399 93.8515C124.886 93.8515 125.342 93.9376 125.734 94.0528C126.293 94.217 126.71 94.664 126.935 95.2011C127.628 96.8595 128.21 98.6606 128.668 100.573L128.67 100.582C128.676 100.609 128.703 100.718 128.733 100.852C129.397 103.761 130.401 108.159 129.766 113.564C129.66 114.468 129.512 115.371 129.325 116.263C129.303 116.367 129.21 116.439 129.104 116.439C127.468 116.439 125.898 117.123 124.798 118.318C122.676 120.622 123.379 123.503 123.465 123.824C123.605 124.343 124.073 124.706 124.611 124.715L127.828 124.765L134.263 124.866C134.269 124.866 134.275 124.866 134.283 124.866C134.799 124.866 135.259 124.537 135.425 124.047L137.284 118.568L141.005 107.609C141.014 107.581 141.023 107.554 141.029 107.526C142.05 103.626 142.92 99.6352 143.614 95.6643C144.176 92.4505 144.636 89.1763 144.982 85.9324C144.986 85.8871 144.989 85.8404 144.988 85.7951C144.929 78.5019 144.225 73.148 143.878 72.026C143.431 70.5797 142.834 69.3626 142.753 69.1983C142.67 69.0206 142.741 68.8075 142.914 68.7164C145.393 67.4141 146.986 65.7787 147.737 65.0087C147.817 64.9257 147.889 64.8534 147.951 64.79C148.664 64.0767 154.976 57.5767 156.763 49.2548C157.222 47.1224 158.439 41.4563 155.952 34.9156C155.594 33.9746 154.756 31.7697 153.094 29.3763C151.005 26.3676 148.351 24.0979 145.206 22.6289C144.467 22.2806 140.513 20.5432 135.886 20.5432Z"/>
</mask>
<path d="M135.886 21.7497C140.343 21.7497 144.143 23.4614 144.703 23.7223C151.646 26.9648 154.137 33.5191 154.831 35.3439C157.145 41.4262 156.077 46.7363 155.591 49.0015C153.892 56.9161 147.821 63.2216 147.105 63.9364C146.401 64.6406 144.618 66.6482 141.585 68.0272C141.24 68.1839 141.097 68.6039 141.277 68.9373C141.426 69.2134 141.554 69.4705 141.669 69.7149C141.672 69.7204 141.674 69.725 141.676 69.7304C141.728 69.833 142.305 71.0022 142.731 72.3804C143.038 73.3712 143.728 78.5923 143.787 85.8027C143.461 88.8551 143.02 92.081 142.43 95.4547C141.692 99.6714 140.813 103.6 139.866 107.218C138.055 112.555 136.242 117.894 134.431 123.231C134.344 123.485 134.104 123.654 133.836 123.65C130.924 123.604 128.011 123.558 125.099 123.513C124.824 123.509 124.585 123.323 124.547 123.05C124.437 122.243 124.4 120.533 125.69 119.132C126.575 118.172 127.822 117.642 129.107 117.642C129.276 117.642 129.445 117.651 129.614 117.67C129.95 117.706 130.282 117.512 130.359 117.182C130.568 116.287 130.804 115.101 130.968 113.703C131.614 108.204 130.644 103.784 129.912 100.582C129.878 100.428 129.848 100.305 129.845 100.291C129.221 97.6895 128.471 95.6756 127.824 94.2065C127.619 93.74 127.267 93.347 126.797 93.1495C126.22 92.9067 125.374 92.6435 124.402 92.6435C123.903 92.6435 123.37 92.7129 122.824 92.8908C122.489 92.9993 122.19 93.1355 121.925 93.2824C121.408 93.5703 121.107 94.117 121 94.6996C120.038 99.924 119.205 104.114 118.602 107.067C118.24 108.841 118.114 109.459 117.891 110.577C117.007 114.986 116.508 118.998 116.232 122.49C116.206 122.809 115.943 123.057 115.623 123.061C112.424 123.107 109.224 123.153 106.025 123.199C105.785 123.202 105.564 123.067 105.485 122.84C105.245 122.15 104.888 120.605 105.782 119.132C106.547 117.873 107.951 117.117 109.456 117.117C109.813 117.117 110.125 116.829 110.09 116.473C109.82 113.735 109.302 109.647 108.283 105.422C107.948 104.033 107.49 102.262 106.687 99.979C106.632 99.8192 105.977 98.1361 105.028 95.9071C104.681 95.0904 104.351 94.3378 104.049 93.6591C103.573 92.5926 102.405 92.0268 101.262 92.2659C99.0003 92.739 96.5822 93.1597 94.0191 93.4941C92.5203 93.6892 91.0652 93.8427 89.6575 93.9612C88.5758 94.0523 87.6642 94.8185 87.424 95.877C87.1916 96.9016 86.9195 98.1357 86.6293 99.5266C85.1966 106.398 85.3459 107.405 84.2163 111.441C83.8936 112.591 83.2979 114.471 82.105 118.227C81.6201 119.753 81.202 121.05 80.8861 122.024C80.8036 122.278 80.5667 122.45 80.2993 122.45C77.2905 122.45 74.2817 122.45 71.2729 122.45C70.9911 122.45 70.7458 122.26 70.7114 121.98C70.6058 121.124 70.5871 119.28 72.0005 117.775C73.2583 116.436 74.8539 116.212 75.7784 116.212C76.1665 116.212 76.5191 115.906 76.5089 115.518C76.439 112.87 76.2225 109.932 75.7709 106.766C75.3797 104.022 74.8663 101.498 74.3011 99.2177C74.1793 98.7267 73.9326 98.2744 73.5884 97.9037C70.5083 94.5872 68.6034 92.911 67.3645 92.1494C66.9197 91.8765 65.2728 91.0238 63.5445 89.2412C63.2987 88.9878 63.0619 88.7103 62.801 88.3665C62.2913 87.6969 61.2672 86.2189 60.388 83.3897C58.8773 78.5298 59.0739 73.7994 59.4685 70.6845C59.4782 70.6085 59.5019 70.5362 59.5388 70.469C62.6233 64.8385 66.1519 59.2311 68.1337 59.2311C68.2423 59.2311 68.3464 59.2477 68.4444 59.2824C68.5681 59.3246 68.642 59.3819 68.6812 59.4105C70.5724 60.798 78.024 63.8716 85.1197 64.689C86.7108 64.8714 88.5416 65.063 90.558 65.063C93.3631 65.063 96.5271 64.6935 99.8948 63.4191C105.855 61.163 107.273 57.9869 114.453 56.2435C116.376 55.776 118.155 55.5482 119.911 55.5482C120.556 55.5482 121.199 55.5799 121.842 55.6402C124.613 55.9042 126.813 56.6748 128.252 57.2992C129.085 57.5389 129.918 57.7786 130.75 58.0191C131.175 58.1418 131.622 58.1763 132.057 58.0948C138.094 56.9613 142.974 52.6568 144.703 47.2023C146.33 42.0641 145.597 34.3938 140.513 31.5193C139.127 30.7351 137.611 30.4184 136.088 30.4184C132.607 30.4184 129.086 32.0773 126.978 33.6247C123.788 35.9668 122.871 38.7613 122.242 38.7613C122.213 38.7613 122.186 38.7553 122.159 38.7447C121.116 38.3044 121.307 29.4426 127.275 24.6151C129.973 22.4359 133.061 21.7497 135.886 21.7497ZM135.886 20.5432C132.244 20.5432 129.092 21.5974 126.519 23.6786C123.604 26.0358 122.128 29.1365 121.401 31.3218C120.478 34.1027 120.352 36.5444 120.545 37.9017C120.6 38.2893 120.767 39.4671 121.692 39.8577C121.868 39.9316 122.054 39.9693 122.244 39.9693C123.123 39.9693 123.602 39.2681 124.212 38.3798C124.884 37.398 125.902 35.914 127.694 34.5989C129.561 33.228 132.882 31.6264 136.09 31.6264C137.522 31.6264 138.812 31.9446 139.92 32.572C142.472 34.0153 143.519 36.7359 143.946 38.7628C144.488 41.3342 144.342 44.355 143.553 46.8403C142.002 51.7383 137.695 55.4874 132.185 56.8093C131.707 56.9239 131.207 56.8979 130.735 56.7617L128.661 56.1636C126.513 55.2406 124.258 54.6615 121.959 54.4413C121.277 54.3764 120.589 54.3433 119.911 54.3433C118.071 54.3433 116.192 54.5815 114.169 55.0732C109.859 56.1198 107.488 57.6837 105.197 59.1964C103.499 60.3169 101.896 61.3756 99.4695 62.2926C96.6855 63.3467 93.7703 63.858 90.5595 63.858C88.602 63.858 86.7967 63.6695 85.2585 63.4915C81.3841 63.0451 77.7299 61.9593 75.3471 61.1253C72.3263 60.0696 70.1802 59.0139 69.3945 58.4378C69.3221 58.3835 69.1321 58.2448 68.841 58.1437C68.6163 58.0653 68.378 58.0246 68.1337 58.0246C66.7598 58.0246 65.2517 59.2733 63.2414 62.0724C61.8826 63.9666 60.2613 66.6299 58.4229 69.99C58.3505 70.1212 58.3038 70.2645 58.2857 70.4138C57.6598 75.2232 57.9795 79.7099 59.2343 83.7471C59.9145 85.9354 60.7665 87.6848 61.8388 89.0964C62.1269 89.475 62.3938 89.7886 62.6773 90.0812C64.4207 91.8804 66.0691 92.9708 66.6965 93.3569C68.1907 94.2745 70.1353 96 72.4828 98.4923C72.8351 98.8662 73.0846 99.3255 73.2059 99.8247C73.7754 102.169 74.2347 104.556 74.5749 106.936C74.9285 109.41 75.1591 111.924 75.263 114.43C75.2767 114.762 75.023 115.04 74.6953 115.092C73.6268 115.26 72.2636 115.731 71.1198 116.948C68.8516 119.363 69.5378 122.406 69.6222 122.746C69.758 123.281 70.2391 123.657 70.7925 123.657H80.7461C81.268 123.657 81.7325 123.32 81.8938 122.824C82.3478 121.428 82.8062 120.004 83.2542 118.594C84.4501 114.828 85.0503 112.938 85.3776 111.767C86.0397 109.402 86.2704 108.064 86.6218 106.037C86.8797 104.55 87.1994 102.698 87.8102 99.7739C88.0957 98.4075 88.3947 97.0362 88.705 95.6833C88.7654 95.4198 88.9907 95.2271 89.2601 95.2059C90.902 95.0765 92.549 94.9042 94.1745 94.6916C96.3081 94.4138 98.4505 94.0611 100.573 93.6389C101.716 93.4115 102.877 93.9866 103.344 95.0544C103.538 95.4963 103.729 95.9389 103.917 96.3806C104.828 98.5207 105.484 100.202 105.549 100.382C106.325 102.591 106.773 104.313 107.11 105.705C107.819 108.65 108.373 111.883 108.757 115.338C108.795 115.675 108.55 115.974 108.219 116.049C106.778 116.373 105.51 117.255 104.749 118.508C103.273 120.94 104.409 123.451 104.543 123.73C104.745 124.148 105.167 124.412 105.629 124.412C105.635 124.412 105.641 124.412 105.645 124.412L116.202 124.261C116.828 124.252 117.342 123.767 117.387 123.144C117.692 119.015 118.258 114.867 119.071 110.815C119.291 109.718 119.413 109.111 119.779 107.31C120.557 103.503 121.327 99.5391 122.074 95.5064C122.194 94.8553 122.564 94.2426 123.194 94.0385C123.577 93.9134 123.983 93.8515 124.399 93.8515C124.886 93.8515 125.342 93.9376 125.734 94.0528C126.293 94.217 126.71 94.664 126.935 95.2011C127.628 96.8595 128.21 98.6606 128.668 100.573L128.67 100.582C128.676 100.609 128.703 100.718 128.733 100.852C129.397 103.761 130.401 108.159 129.766 113.564C129.66 114.468 129.512 115.371 129.325 116.263C129.303 116.367 129.21 116.439 129.104 116.439C127.468 116.439 125.898 117.123 124.798 118.318C122.676 120.622 123.379 123.503 123.465 123.824C123.605 124.343 124.073 124.706 124.611 124.715L127.828 124.765L134.263 124.866C134.269 124.866 134.275 124.866 134.283 124.866C134.799 124.866 135.259 124.537 135.425 124.047L137.284 118.568L141.005 107.609C141.014 107.581 141.023 107.554 141.029 107.526C142.05 103.626 142.92 99.6352 143.614 95.6643C144.176 92.4505 144.636 89.1763 144.982 85.9324C144.986 85.8871 144.989 85.8404 144.988 85.7951C144.929 78.5019 144.225 73.148 143.878 72.026C143.431 70.5797 142.834 69.3626 142.753 69.1983C142.67 69.0206 142.741 68.8075 142.914 68.7164C145.393 67.4141 146.986 65.7787 147.737 65.0087C147.817 64.9257 147.889 64.8534 147.951 64.79C148.664 64.0767 154.976 57.5767 156.763 49.2548C157.222 47.1224 158.439 41.4563 155.952 34.9156C155.594 33.9746 154.756 31.7697 153.094 29.3763C151.005 26.3676 148.351 24.0979 145.206 22.6289C144.467 22.2806 140.513 20.5432 135.886 20.5432Z" fill="#4344C6"/>
<path d="M135.886 21.7497C140.343 21.7497 144.143 23.4614 144.703 23.7223C151.646 26.9648 154.137 33.5191 154.831 35.3439C157.145 41.4262 156.077 46.7363 155.591 49.0015C153.892 56.9161 147.821 63.2216 147.105 63.9364C146.401 64.6406 144.618 66.6482 141.585 68.0272C141.24 68.1839 141.097 68.6039 141.277 68.9373C141.426 69.2134 141.554 69.4705 141.669 69.7149C141.672 69.7204 141.674 69.725 141.676 69.7304C141.728 69.833 142.305 71.0022 142.731 72.3804C143.038 73.3712 143.728 78.5923 143.787 85.8027C143.461 88.8551 143.02 92.081 142.43 95.4547C141.692 99.6714 140.813 103.6 139.866 107.218C138.055 112.555 136.242 117.894 134.431 123.231C134.344 123.485 134.104 123.654 133.836 123.65C130.924 123.604 128.011 123.558 125.099 123.513C124.824 123.509 124.585 123.323 124.547 123.05C124.437 122.243 124.4 120.533 125.69 119.132C126.575 118.172 127.822 117.642 129.107 117.642C129.276 117.642 129.445 117.651 129.614 117.67C129.95 117.706 130.282 117.512 130.359 117.182C130.568 116.287 130.804 115.101 130.968 113.703C131.614 108.204 130.644 103.784 129.912 100.582C129.878 100.428 129.848 100.305 129.845 100.291C129.221 97.6895 128.471 95.6756 127.824 94.2065C127.619 93.74 127.267 93.347 126.797 93.1495C126.22 92.9067 125.374 92.6435 124.402 92.6435C123.903 92.6435 123.37 92.7129 122.824 92.8908C122.489 92.9993 122.19 93.1355 121.925 93.2824C121.408 93.5703 121.107 94.117 121 94.6996C120.038 99.924 119.205 104.114 118.602 107.067C118.24 108.841 118.114 109.459 117.891 110.577C117.007 114.986 116.508 118.998 116.232 122.49C116.206 122.809 115.943 123.057 115.623 123.061C112.424 123.107 109.224 123.153 106.025 123.199C105.785 123.202 105.564 123.067 105.485 122.84C105.245 122.15 104.888 120.605 105.782 119.132C106.547 117.873 107.951 117.117 109.456 117.117C109.813 117.117 110.125 116.829 110.09 116.473C109.82 113.735 109.302 109.647 108.283 105.422C107.948 104.033 107.49 102.262 106.687 99.979C106.632 99.8192 105.977 98.1361 105.028 95.9071C104.681 95.0904 104.351 94.3378 104.049 93.6591C103.573 92.5926 102.405 92.0268 101.262 92.2659C99.0003 92.739 96.5822 93.1597 94.0191 93.4941C92.5203 93.6892 91.0652 93.8427 89.6575 93.9612C88.5758 94.0523 87.6642 94.8185 87.424 95.877C87.1916 96.9016 86.9195 98.1357 86.6293 99.5266C85.1966 106.398 85.3459 107.405 84.2163 111.441C83.8936 112.591 83.2979 114.471 82.105 118.227C81.6201 119.753 81.202 121.05 80.8861 122.024C80.8036 122.278 80.5667 122.45 80.2993 122.45C77.2905 122.45 74.2817 122.45 71.2729 122.45C70.9911 122.45 70.7458 122.26 70.7114 121.98C70.6058 121.124 70.5871 119.28 72.0005 117.775C73.2583 116.436 74.8539 116.212 75.7784 116.212C76.1665 116.212 76.5191 115.906 76.5089 115.518C76.439 112.87 76.2225 109.932 75.7709 106.766C75.3797 104.022 74.8663 101.498 74.3011 99.2177C74.1793 98.7267 73.9326 98.2744 73.5884 97.9037C70.5083 94.5872 68.6034 92.911 67.3645 92.1494C66.9197 91.8765 65.2728 91.0238 63.5445 89.2412C63.2987 88.9878 63.0619 88.7103 62.801 88.3665C62.2913 87.6969 61.2672 86.2189 60.388 83.3897C58.8773 78.5298 59.0739 73.7994 59.4685 70.6845C59.4782 70.6085 59.5019 70.5362 59.5388 70.469C62.6233 64.8385 66.1519 59.2311 68.1337 59.2311C68.2423 59.2311 68.3464 59.2477 68.4444 59.2824C68.5681 59.3246 68.642 59.3819 68.6812 59.4105C70.5724 60.798 78.024 63.8716 85.1197 64.689C86.7108 64.8714 88.5416 65.063 90.558 65.063C93.3631 65.063 96.5271 64.6935 99.8948 63.4191C105.855 61.163 107.273 57.9869 114.453 56.2435C116.376 55.776 118.155 55.5482 119.911 55.5482C120.556 55.5482 121.199 55.5799 121.842 55.6402C124.613 55.9042 126.813 56.6748 128.252 57.2992C129.085 57.5389 129.918 57.7786 130.75 58.0191C131.175 58.1418 131.622 58.1763 132.057 58.0948C138.094 56.9613 142.974 52.6568 144.703 47.2023C146.33 42.0641 145.597 34.3938 140.513 31.5193C139.127 30.7351 137.611 30.4184 136.088 30.4184C132.607 30.4184 129.086 32.0773 126.978 33.6247C123.788 35.9668 122.871 38.7613 122.242 38.7613C122.213 38.7613 122.186 38.7553 122.159 38.7447C121.116 38.3044 121.307 29.4426 127.275 24.6151C129.973 22.4359 133.061 21.7497 135.886 21.7497ZM135.886 20.5432C132.244 20.5432 129.092 21.5974 126.519 23.6786C123.604 26.0358 122.128 29.1365 121.401 31.3218C120.478 34.1027 120.352 36.5444 120.545 37.9017C120.6 38.2893 120.767 39.4671 121.692 39.8577C121.868 39.9316 122.054 39.9693 122.244 39.9693C123.123 39.9693 123.602 39.2681 124.212 38.3798C124.884 37.398 125.902 35.914 127.694 34.5989C129.561 33.228 132.882 31.6264 136.09 31.6264C137.522 31.6264 138.812 31.9446 139.92 32.572C142.472 34.0153 143.519 36.7359 143.946 38.7628C144.488 41.3342 144.342 44.355 143.553 46.8403C142.002 51.7383 137.695 55.4874 132.185 56.8093C131.707 56.9239 131.207 56.8979 130.735 56.7617L128.661 56.1636C126.513 55.2406 124.258 54.6615 121.959 54.4413C121.277 54.3764 120.589 54.3433 119.911 54.3433C118.071 54.3433 116.192 54.5815 114.169 55.0732C109.859 56.1198 107.488 57.6837 105.197 59.1964C103.499 60.3169 101.896 61.3756 99.4695 62.2926C96.6855 63.3467 93.7703 63.858 90.5595 63.858C88.602 63.858 86.7967 63.6695 85.2585 63.4915C81.3841 63.0451 77.7299 61.9593 75.3471 61.1253C72.3263 60.0696 70.1802 59.0139 69.3945 58.4378C69.3221 58.3835 69.1321 58.2448 68.841 58.1437C68.6163 58.0653 68.378 58.0246 68.1337 58.0246C66.7598 58.0246 65.2517 59.2733 63.2414 62.0724C61.8826 63.9666 60.2613 66.6299 58.4229 69.99C58.3505 70.1212 58.3038 70.2645 58.2857 70.4138C57.6598 75.2232 57.9795 79.7099 59.2343 83.7471C59.9145 85.9354 60.7665 87.6848 61.8388 89.0964C62.1269 89.475 62.3938 89.7886 62.6773 90.0812C64.4207 91.8804 66.0691 92.9708 66.6965 93.3569C68.1907 94.2745 70.1353 96 72.4828 98.4923C72.8351 98.8662 73.0846 99.3255 73.2059 99.8247C73.7754 102.169 74.2347 104.556 74.5749 106.936C74.9285 109.41 75.1591 111.924 75.263 114.43C75.2767 114.762 75.023 115.04 74.6953 115.092C73.6268 115.26 72.2636 115.731 71.1198 116.948C68.8516 119.363 69.5378 122.406 69.6222 122.746C69.758 123.281 70.2391 123.657 70.7925 123.657H80.7461C81.268 123.657 81.7325 123.32 81.8938 122.824C82.3478 121.428 82.8062 120.004 83.2542 118.594C84.4501 114.828 85.0503 112.938 85.3776 111.767C86.0397 109.402 86.2704 108.064 86.6218 106.037C86.8797 104.55 87.1994 102.698 87.8102 99.7739C88.0957 98.4075 88.3947 97.0362 88.705 95.6833C88.7654 95.4198 88.9907 95.2271 89.2601 95.2059C90.902 95.0765 92.549 94.9042 94.1745 94.6916C96.3081 94.4138 98.4505 94.0611 100.573 93.6389C101.716 93.4115 102.877 93.9866 103.344 95.0544C103.538 95.4963 103.729 95.9389 103.917 96.3806C104.828 98.5207 105.484 100.202 105.549 100.382C106.325 102.591 106.773 104.313 107.11 105.705C107.819 108.65 108.373 111.883 108.757 115.338C108.795 115.675 108.55 115.974 108.219 116.049C106.778 116.373 105.51 117.255 104.749 118.508C103.273 120.94 104.409 123.451 104.543 123.73C104.745 124.148 105.167 124.412 105.629 124.412C105.635 124.412 105.641 124.412 105.645 124.412L116.202 124.261C116.828 124.252 117.342 123.767 117.387 123.144C117.692 119.015 118.258 114.867 119.071 110.815C119.291 109.718 119.413 109.111 119.779 107.31C120.557 103.503 121.327 99.5391 122.074 95.5064C122.194 94.8553 122.564 94.2426 123.194 94.0385C123.577 93.9134 123.983 93.8515 124.399 93.8515C124.886 93.8515 125.342 93.9376 125.734 94.0528C126.293 94.217 126.71 94.664 126.935 95.2011C127.628 96.8595 128.21 98.6606 128.668 100.573L128.67 100.582C128.676 100.609 128.703 100.718 128.733 100.852C129.397 103.761 130.401 108.159 129.766 113.564C129.66 114.468 129.512 115.371 129.325 116.263C129.303 116.367 129.21 116.439 129.104 116.439C127.468 116.439 125.898 117.123 124.798 118.318C122.676 120.622 123.379 123.503 123.465 123.824C123.605 124.343 124.073 124.706 124.611 124.715L127.828 124.765L134.263 124.866C134.269 124.866 134.275 124.866 134.283 124.866C134.799 124.866 135.259 124.537 135.425 124.047L137.284 118.568L141.005 107.609C141.014 107.581 141.023 107.554 141.029 107.526C142.05 103.626 142.92 99.6352 143.614 95.6643C144.176 92.4505 144.636 89.1763 144.982 85.9324C144.986 85.8871 144.989 85.8404 144.988 85.7951C144.929 78.5019 144.225 73.148 143.878 72.026C143.431 70.5797 142.834 69.3626 142.753 69.1983C142.67 69.0206 142.741 68.8075 142.914 68.7164C145.393 67.4141 146.986 65.7787 147.737 65.0087C147.817 64.9257 147.889 64.8534 147.951 64.79C148.664 64.0767 154.976 57.5767 156.763 49.2548C157.222 47.1224 158.439 41.4563 155.952 34.9156C155.594 33.9746 154.756 31.7697 153.094 29.3763C151.005 26.3676 148.351 24.0979 145.206 22.6289C144.467 22.2806 140.513 20.5432 135.886 20.5432Z" stroke="#4344C6" stroke-width="1.2" mask="url(#path-6-outside-1_263_6410)"/>
<path d="M128.746 71.0247C129.77 72.1814 130.793 73.3366 131.817 74.4933" stroke="#191D5D" stroke-width="1.23459" stroke-miterlimit="10" stroke-linecap="round" stroke-linejoin="round"/>
<path d="M128.633 74.2655C129.808 73.2792 130.982 72.2944 132.159 71.3081" stroke="#191D5D" stroke-width="1.23459" stroke-miterlimit="10" stroke-linecap="round" stroke-linejoin="round"/>
<path d="M117.751 89.2729C115.102 89.2729 112.947 87.1178 112.947 84.4695V69.0414C112.947 66.3931 115.102 64.238 117.751 64.238H154.594C157.242 64.238 159.397 66.3931 159.397 69.0414V84.4695C159.397 87.1178 157.242 89.2729 154.594 89.2729H117.751Z" fill="#D0D4FF"/>
<path d="M154.594 64.8413C156.91 64.8413 158.794 66.7249 158.794 69.0414V84.4695C158.794 86.786 156.91 88.6696 154.594 88.6696H117.75C115.434 88.6696 113.55 86.786 113.55 84.4695V69.0414C113.55 66.7249 115.434 64.8413 117.75 64.8413H154.594ZM154.594 63.6348H117.75C114.764 63.6348 112.344 66.0553 112.344 69.0414V84.4695C112.344 87.4556 114.764 89.8761 117.75 89.8761H154.594C157.58 89.8761 160 87.4556 160 84.4695V69.0414C160 66.0553 157.58 63.6348 154.594 63.6348Z" fill="#191D5D"/>
<path d="M127.653 77.6649H127.093C126.725 77.6649 126.41 77.8926 126.28 78.2139C126.19 78.1822 126.093 78.1611 125.992 78.1611H123.956C123.872 78.1611 123.792 78.1762 123.715 78.1988C123.632 77.7991 123.279 77.499 122.855 77.499H122.296C121.81 77.499 121.418 77.8926 121.418 78.3768V81.9148C121.418 82.4004 121.812 82.7925 122.296 82.7925H122.855C123.341 82.7925 123.733 82.3989 123.733 81.9148V80.9406C123.805 80.9587 123.879 80.9722 123.956 80.9722H125.991C126.069 80.9722 126.143 80.9587 126.214 80.9406V82.0792C126.214 82.5648 126.607 82.9569 127.092 82.9569H127.651C128.137 82.9569 128.529 82.5633 128.529 82.0792V78.5411C128.53 78.057 128.137 77.6649 127.653 77.6649Z" fill="#828CFC" stroke="#191D5D" stroke-width="1.23459" stroke-miterlimit="10" stroke-linecap="round" stroke-linejoin="round"/>
<path d="M144.825 68.7307C141.53 68.7307 138.764 71.2659 138.003 74.6863H121.166C120.208 74.6863 119.432 75.463 119.432 76.4206V76.7569C119.432 77.7146 120.208 78.4913 121.166 78.4913H138.003C138.764 81.9117 141.529 84.4469 144.825 84.4469C148.709 84.4469 151.856 80.9284 151.856 76.5895C151.856 72.2507 148.709 68.7307 144.825 68.7307Z" fill="#828CFC" stroke="#191D5D" stroke-width="1.23459" stroke-miterlimit="10" stroke-linecap="round" stroke-linejoin="round"/>
<path d="M144.826 80.2043C143.107 80.2043 141.707 78.6088 141.707 76.6482C141.707 74.6876 143.107 73.092 144.826 73.092C146.545 73.092 147.945 74.6876 147.945 76.6482C147.945 78.6088 146.545 80.2043 144.826 80.2043Z" fill="#D0D4FF"/>
<path d="M144.826 73.6938C146.213 73.6938 147.341 75.0194 147.341 76.6467C147.341 78.274 146.213 79.5996 144.826 79.5996C143.438 79.5996 142.31 78.274 142.31 76.6467C142.31 75.0194 143.438 73.6938 144.826 73.6938ZM144.826 72.4873C142.77 72.4873 141.104 74.3498 141.104 76.6467C141.104 78.9436 142.77 80.8061 144.826 80.8061C146.881 80.8061 148.548 78.9436 148.548 76.6467C148.548 74.3498 146.881 72.4873 144.826 72.4873Z" fill="#191D5D"/>
<path d="M117.17 63.9364C119.435 61.5218 121.611 59.8735 123.202 58.8087C125.564 57.2282 129.452 54.6885 134.966 53.9827C136.732 53.7565 138.207 53.7776 139.189 53.8319" stroke="#191D5D" stroke-width="1.23459" stroke-miterlimit="10" stroke-linecap="round" stroke-linejoin="round"/>
<path d="M77.6657 68.3824C74.087 66.8562 70.5233 69.8528 70.1719 70.1574C66.5222 68.8197 62.7504 69.8453 60.7054 72.6926C60.4264 73.0817 60.1941 73.4859 60.0011 73.8976C59.98 76.4689 60.2575 79.452 61.2016 82.4863C62.0808 85.3156 63.1048 86.7935 63.6146 87.4631C63.8755 87.807 64.1138 88.0845 64.3581 88.3378C66.0864 90.1204 67.6986 91.152 68.1435 91.425C68.2626 91.4989 68.3893 91.5788 68.522 91.6678C70.2081 92.5757 71.3521 93.3448 72.787 93.3448C75.0559 93.384 77.4628 91.0083 79.377 88.137C80.6116 86.2851 82.3605 83.1152 82.3153 78.4084C82.3032 77.3029 82.1041 70.2736 77.6657 68.3824Z" fill="#D5FAFC"/>
<path d="M86.4998 63.7539C86.1912 64.9885 83.722 69.0956 79.4009 70.8528C74.8034 72.7224 71.3761 73.0133 69.8329 73.0133C64.9089 72.8188 61.3738 71.0759 59.9004 70.0549" fill="#D0D4FF"/>
<path d="M86.4998 63.7539C86.1912 64.9885 83.722 69.0956 79.4009 70.8528C74.8034 72.7224 71.3761 73.0133 69.8329 73.0133C64.9089 72.8188 61.3738 71.0759 59.9004 70.0549" stroke="#191D5D" stroke-width="1.23459" stroke-miterlimit="10" stroke-linecap="round" stroke-linejoin="round"/>
<path d="M70.87 78.5654C72.2027 78.5654 73.283 77.5526 73.283 76.3032C73.283 75.0538 72.2027 74.041 70.87 74.041C69.5374 74.041 68.457 75.0538 68.457 76.3032C68.457 77.5526 69.5374 78.5654 70.87 78.5654Z" fill="#828CFC"/>
<path d="M70.8698 74.6442C71.8696 74.6442 72.6795 75.3862 72.6795 76.3032C72.6795 77.2201 71.8696 77.9621 70.8698 77.9621C69.8699 77.9621 69.06 77.2201 69.06 76.3032C69.06 75.3862 69.8699 74.6442 70.8698 74.6442ZM70.8698 73.4377C69.2063 73.4377 67.8535 74.7227 67.8535 76.3032C67.8535 77.8837 69.2063 79.1686 70.8698 79.1686C72.5332 79.1686 73.886 77.8837 73.886 76.3032C73.886 74.7227 72.5332 73.4377 70.8698 73.4377Z" fill="#191D5D"/>
<path fill-rule="evenodd" clip-rule="evenodd" d="M97.2816 25.4603C98.76 30.5438 94.4706 39.5392 91.8781 43.9923C92.7977 46.0173 93.3028 48.1948 93.3028 50.4626C93.3028 61.2493 81.8759 69.9937 68.7569 69.9937C55.6378 69.9937 44.2109 61.2493 44.2109 50.4626C44.2109 48.1597 44.7318 45.9499 45.6787 43.8984C43.0811 39.4139 38.8615 30.5083 40.3296 25.4603C41.1692 22.5736 47.9722 27.2792 55.7094 34.0139C59.5375 32.0629 64.0377 30.9314 68.7569 30.9314C73.5013 30.9314 78.0244 32.075 81.8657 34.0453C89.6179 27.2938 96.4407 22.5691 97.2816 25.4603Z" fill="#BEDCFC"/>
<path d="M91.8781 43.9923L90.9274 43.4388L90.6416 43.9298L90.8765 44.4472L91.8781 43.9923ZM97.2816 25.4603L98.3378 25.1531V25.1531L97.2816 25.4603ZM45.6787 43.8984L46.6774 44.3594L46.9167 43.8411L46.6305 43.3471L45.6787 43.8984ZM40.3296 25.4603L39.2734 25.1531L40.3296 25.4603ZM55.7094 34.0139L54.9872 34.8436L55.5473 35.3312L56.2089 34.994L55.7094 34.0139ZM81.8657 34.0453L81.3637 35.0241L82.0265 35.364L82.5882 34.8748L81.8657 34.0453ZM92.8287 44.5457C94.1481 42.2795 95.9028 38.8531 97.144 35.328C98.3624 31.8679 99.1818 28.0552 98.3378 25.1531L96.2253 25.7675C96.8598 27.9489 96.2737 31.1756 95.0689 34.5973C93.8869 37.9541 92.2006 41.252 90.9274 43.4388L92.8287 44.5457ZM94.4028 50.4626C94.4028 48.0284 93.8601 45.6964 92.8796 43.5374L90.8765 44.4472C91.7353 46.3381 92.2028 48.3612 92.2028 50.4626H94.4028ZM68.7569 71.0937C75.5531 71.0937 81.9312 68.8308 86.6293 65.138C91.3272 61.4453 94.4028 56.2672 94.4028 50.4626H92.2028C92.2028 55.4447 89.565 60.0322 85.2697 63.4084C80.9746 66.7845 75.0797 68.8937 68.7569 68.8937V71.0937ZM43.1109 50.4626C43.1109 56.2672 46.1865 61.4453 50.8845 65.138C55.5826 68.8308 61.9607 71.0937 68.7569 71.0937V68.8937C62.434 68.8937 56.5392 66.7845 52.244 63.4084C47.9488 60.0322 45.3109 55.4447 45.3109 50.4626H43.1109ZM44.6799 43.4375C43.6706 45.6242 43.1109 47.9907 43.1109 50.4626H45.3109C45.3109 48.3287 45.793 46.2756 46.6774 44.3594L44.6799 43.4375ZM39.2734 25.1531C38.435 28.0358 39.238 31.8157 40.4412 35.254C41.6668 38.7563 43.4052 42.1682 44.7268 44.4498L46.6305 43.3471C45.3545 41.1441 43.6843 37.8609 42.5178 34.5273C41.3288 31.1297 40.7561 27.9329 41.3859 25.7675L39.2734 25.1531ZM56.4316 33.1842C52.5531 29.8082 48.8577 26.8946 45.9973 25.1849C44.5892 24.3432 43.2677 23.7211 42.1729 23.5457C41.6181 23.4569 41.0009 23.4623 40.4401 23.7302C39.8337 24.0199 39.4519 24.5392 39.2734 25.1531L41.3859 25.7675C41.4172 25.6597 41.4318 25.6946 41.3883 25.7154C41.3868 25.7161 41.4134 25.7029 41.4866 25.697C41.5612 25.691 41.6717 25.6935 41.8249 25.7181C42.4835 25.8236 43.5038 26.2575 44.8685 27.0733C47.5538 28.6783 51.1285 31.4849 54.9872 34.8436L56.4316 33.1842ZM68.7569 29.8314C63.8641 29.8314 59.1927 31.004 55.2099 33.0339L56.2089 34.994C59.8824 33.1218 64.2114 32.0314 68.7569 32.0314V29.8314ZM82.3677 33.0666C78.371 31.0166 73.6758 29.8314 68.7569 29.8314V32.0314C73.3267 32.0314 77.6777 33.1335 81.3637 35.0241L82.3677 33.0666ZM98.3378 25.1531C98.159 24.5381 97.7763 24.0183 97.1685 23.729C96.6067 23.4615 95.9886 23.4569 95.433 23.5466C94.3363 23.7236 93.012 24.3482 91.6005 25.1929C88.7333 26.909 85.0293 29.8314 81.1433 33.2158L82.5882 34.8748C86.4543 31.5077 90.0378 28.6921 92.7303 27.0807C94.0986 26.2617 95.1222 25.8252 95.7835 25.7185C95.9374 25.6937 96.0485 25.6909 96.1236 25.6969C96.1973 25.7028 96.2243 25.716 96.2229 25.7154C96.1795 25.6947 96.194 25.6597 96.2253 25.7675L98.3378 25.1531Z" fill="#4344C6"/>
<path d="M89.9056 40.4673L85.3182 35.8797C85.0533 35.6148 85.0203 35.196 85.2726 34.9189C87.064 32.9515 91.2708 30.1099 93.4191 29.2876C93.7911 29.1452 94.1741 29.3846 94.2023 29.7819C94.4104 32.7169 92.2111 37.8698 91.1158 40.2573C90.898 40.7321 90.275 40.8367 89.9056 40.4673Z" fill="#D5FAFC"/>
<path d="M47.8073 40.4673L52.3947 35.8797C52.6596 35.6148 52.6926 35.196 52.4403 34.9189C50.6489 32.9515 46.4421 30.1099 44.2938 29.2876C43.9218 29.1452 43.5387 29.3846 43.5106 29.7819C43.3025 32.7169 45.5018 37.8698 46.597 40.2573C46.8149 40.7321 47.4378 40.8367 47.8073 40.4673Z" fill="#D5FAFC"/>
<path d="M71.2973 52.586C71.2973 53.6975 69.31 55.691 68.202 55.691C67.094 55.691 65.1641 53.6975 65.1641 52.586C65.1641 51.4746 67.094 51.0911 68.202 51.0911C69.31 51.0911 71.2973 51.4746 71.2973 52.586Z" fill="#4748CE"/>
<path fill-rule="evenodd" clip-rule="evenodd" d="M68.1075 57.8167C68.0559 57.8088 68.0076 57.8444 67.9984 57.8959C67.6781 59.6963 66.1843 61.0043 64.408 61.2122C62.6298 61.4203 60.5418 60.5243 59.0831 57.8366C59.0582 57.7906 59.0005 57.7723 58.9544 57.7968L58.8429 57.8559C58.7967 57.8804 58.7795 57.9384 58.8044 57.9844C60.3135 60.7667 62.5156 61.7513 64.4447 61.5255C66.0753 61.3347 67.4919 60.2779 68.0833 58.7571C68.1163 58.6725 68.2451 58.6698 68.2821 58.7528C68.9675 60.2873 70.7038 61.3351 72.5195 61.5229C73.6024 61.6349 74.7292 61.4445 75.7021 60.8618C76.6563 60.2902 77.4528 59.3469 77.914 57.9645C77.9306 57.9149 77.9031 57.8615 77.8533 57.8456L77.733 57.8073C77.6832 57.7914 77.63 57.8191 77.6134 57.8687C77.174 59.1828 76.4238 60.0617 75.5399 60.5911C74.6341 61.1337 73.5777 61.3151 72.5519 61.209C70.5225 60.9991 68.6727 59.6773 68.3429 57.8959C68.3334 57.8445 68.2852 57.8089 68.2335 57.8168L68.1853 57.8243C68.1757 57.8257 68.166 57.8257 68.1565 57.8243L68.1075 57.8167Z" fill="#191D5D"/>
<path d="M64.408 61.2122L64.3466 60.6879L64.408 61.2122ZM64.4447 61.5255L64.506 62.0498L64.4447 61.5255ZM72.5195 61.5229L72.4652 62.0479L72.5195 61.5229ZM75.7021 60.8618L75.9733 61.3146V61.3146L75.7021 60.8618ZM75.5399 60.5911L75.8112 61.044V61.044L75.5399 60.5911ZM72.5519 61.209L72.6062 60.684L72.5519 61.209ZM77.733 57.8073L77.5727 58.3102L77.733 57.8073ZM77.6134 57.8687L77.1128 57.7013L77.6134 57.8687ZM68.0833 58.7571L68.5753 58.9485L68.0833 58.7571ZM68.2821 58.7528L67.8001 58.968L68.2821 58.7528ZM77.914 57.9645L77.4133 57.7974L77.914 57.9645ZM77.8533 57.8456L78.0136 57.3427L77.8533 57.8456ZM68.1853 57.8243L68.2655 58.346L68.1853 57.8243ZM68.1565 57.8243L68.0762 58.346L68.1565 57.8243ZM68.3429 57.8959L67.8239 57.992L68.3429 57.8959ZM68.2335 57.8168L68.1533 57.2951L68.2335 57.8168ZM67.9984 57.8959L68.5182 57.9884L67.9984 57.8959ZM64.4693 61.7365C66.4615 61.5033 68.1544 60.033 68.5182 57.9884L67.4787 57.8035C67.2019 59.3596 65.9071 60.5053 64.3466 60.6879L64.4693 61.7365ZM58.6192 58.0884C60.1623 60.9317 62.4407 61.9739 64.4693 61.7365L64.3466 60.6879C62.8189 60.8667 60.9214 60.117 59.5471 57.5848L58.6192 58.0884ZM59.0903 58.3222L59.2017 58.2631L58.707 57.3305L58.5955 57.3896L59.0903 58.3222ZM64.3833 61.0012C62.7051 61.1976 60.6933 60.3598 59.2684 57.7327L58.3404 58.2361C59.9337 61.1736 62.3261 62.3049 64.506 62.0498L64.3833 61.0012ZM67.5914 58.5658C67.0738 59.8965 65.8284 60.8321 64.3833 61.0012L64.506 62.0498C66.3222 61.8373 67.9099 60.6593 68.5753 58.9485L67.5914 58.5658ZM67.8001 58.968C68.5808 60.7159 70.5112 61.8458 72.4652 62.0479L72.5738 60.9978C70.8964 60.8243 69.3542 59.8588 68.7641 58.5375L67.8001 58.968ZM72.4652 62.0479C73.6439 62.1698 74.8883 61.9645 75.9733 61.3146L75.4308 60.4089C74.5701 60.9245 73.561 61.0999 72.5738 60.9978L72.4652 62.0479ZM75.9733 61.3146C77.0433 60.6737 77.9165 59.6249 78.4148 58.1316L77.4133 57.7974C76.989 59.069 76.2692 59.9067 75.4308 60.4089L75.9733 61.3146ZM78.0136 57.3427L77.8934 57.3043L77.5727 58.3102L77.693 58.3485L78.0136 57.3427ZM77.1128 57.7013C76.7105 58.9046 76.0369 59.6781 75.2687 60.1383L75.8112 61.044C76.8107 60.4453 77.6376 59.4611 78.1141 58.0361L77.1128 57.7013ZM75.2687 60.1383C74.4749 60.6137 73.5362 60.7802 72.6062 60.684L72.4976 61.7341C73.6191 61.8501 74.7932 61.6537 75.8112 61.044L75.2687 60.1383ZM72.6062 60.684C70.7241 60.4893 69.1353 59.2762 68.862 57.7998L67.8239 57.992C68.2102 60.0785 70.3209 61.509 72.4976 61.7341L72.6062 60.684ZM68.1533 57.2951L68.105 57.3025L68.2655 58.346L68.3138 58.3386L68.1533 57.2951ZM68.0272 58.3385L68.0762 58.346L68.2368 57.3025L68.1878 57.295L68.0272 58.3385ZM77.8934 57.3043C77.5626 57.1989 77.2189 57.3839 77.1128 57.7013L78.1141 58.0361C78.0411 58.2543 77.8039 58.3839 77.5727 58.3102L77.8934 57.3043ZM68.5753 58.9485C68.4997 59.143 68.3214 59.2171 68.1925 59.2199C68.0639 59.2226 67.8844 59.1568 67.8001 58.968L68.7641 58.5375C68.6427 58.2658 68.3803 58.1598 68.1698 58.1644C67.9591 58.1689 67.6999 58.2866 67.5914 58.5658L68.5753 58.9485ZM78.4148 58.1316C78.5255 57.7999 78.3408 57.447 78.0136 57.3427L77.693 58.3485C77.4654 58.276 77.3357 58.03 77.4133 57.7974L78.4148 58.1316ZM58.5955 57.3896C58.2877 57.5529 58.1768 57.9346 58.3404 58.2361L59.2684 57.7327C59.3821 57.9423 59.3057 58.208 59.0903 58.3222L58.5955 57.3896ZM68.105 57.3025C68.1487 57.2958 68.1931 57.2958 68.2368 57.3025L68.0762 58.346C68.139 58.3556 68.2028 58.3556 68.2655 58.346L68.105 57.3025ZM59.5471 57.5848C59.3884 57.2925 59.0171 57.1659 58.707 57.3305L59.2017 58.2631C58.984 58.3786 58.7279 58.2887 58.6192 58.0884L59.5471 57.5848ZM68.862 57.7998C68.8026 57.4791 68.498 57.2421 68.1533 57.2951L68.3138 58.3386C68.0724 58.3757 67.8642 58.2099 67.8239 57.992L68.862 57.7998ZM68.5182 57.9884C68.4788 58.2098 68.2683 58.3755 68.0272 58.3385L68.1878 57.295C67.8434 57.242 67.5364 57.4791 67.4787 57.8035L68.5182 57.9884Z" fill="#191D5D"/>
<path d="M79.5033 38.2472C78.8585 34.2978 79.9192 24.9192 89.3203 19" stroke="#4344C6" stroke-width="1.16064" stroke-linecap="round"/>
<path d="M75.6328 37.9088C74.8268 35.3779 73.6984 29.204 75.6328 24.7549" stroke="#4344C6" stroke-width="1.16064" stroke-linecap="round"/>
<path d="M58.5143 38.2472C59.1591 34.2978 58.0984 24.9192 48.6973 19" stroke="#4344C6" stroke-width="1.16064" stroke-linecap="round"/>
<path d="M62.3848 37.9088C63.1908 35.3779 64.3192 29.204 62.3848 24.7549" stroke="#4344C6" stroke-width="1.16064" stroke-linecap="round"/>
<path d="M83.6099 57.7857C86.0556 57.7857 88.0382 56.6528 88.0382 55.2553C88.0382 53.8578 86.0556 52.7249 83.6099 52.7249C81.1642 52.7249 79.1816 53.8578 79.1816 55.2553C79.1816 56.6528 81.1642 57.7857 83.6099 57.7857Z" fill="#D5FAFC"/>
<path d="M84.8055 54.6858C89.8557 51.7353 96.3863 48.5572 107.504 53.7797" stroke="#4344C6" stroke-width="1.16064" stroke-linecap="round"/>
<path d="M86.3892 56.7421C89.5736 55.8963 95.215 55.8581 99.5859 59.4367" stroke="#4344C6" stroke-width="1.16064" stroke-linecap="round"/>
<path d="M53.1002 57.786C55.5458 57.786 57.5284 56.6531 57.5284 55.2555C57.5284 53.858 55.5458 52.7251 53.1002 52.7251C50.6545 52.7251 48.6719 53.858 48.6719 55.2555C48.6719 56.6531 50.6545 57.786 53.1002 57.786Z" fill="#D5FAFC"/>
<path d="M52.3918 54.6858C47.3416 51.7353 40.811 48.5572 29.6934 53.7797" stroke="#4344C6" stroke-width="1.16064" stroke-linecap="round"/>
<path d="M50.81 56.7421C47.6256 55.8963 41.9842 55.8581 37.6133 59.4367" stroke="#4344C6" stroke-width="1.16064" stroke-linecap="round"/>
<path d="M58.6509 50.8995C62.0652 50.8995 64.8331 48.8582 64.8331 46.3401C64.8331 43.822 62.0652 41.7808 58.6509 41.7808C55.2366 41.7808 52.4688 43.822 52.4688 46.3401C52.4688 48.8582 55.2366 50.8995 58.6509 50.8995Z" fill="#D5FAFC" stroke="#191D5D" stroke-width="1.23643" stroke-miterlimit="10"/>
<path d="M60.5829 49.972C62.5035 49.972 64.0604 48.4151 64.0604 46.4946C64.0604 44.574 62.5035 43.0171 60.5829 43.0171C58.6624 43.0171 57.1055 44.574 57.1055 46.4946C57.1055 48.4151 58.6624 49.972 60.5829 49.972Z" fill="#191D5D" stroke="#191D5D" stroke-width="1.23643" stroke-miterlimit="10"/>
<path d="M56.4094 46.7265C57.135 46.7265 57.7231 46.1384 57.7231 45.4128C57.7231 44.6873 57.135 44.0991 56.4094 44.0991C55.6839 44.0991 55.0957 44.6873 55.0957 45.4128C55.0957 46.1384 55.6839 46.7265 56.4094 46.7265Z" fill="white"/>
<path d="M78.2603 50.8995C81.6746 50.8995 84.4424 48.8582 84.4424 46.3401C84.4424 43.822 81.6746 41.7808 78.2603 41.7808C74.846 41.7808 72.0781 43.822 72.0781 46.3401C72.0781 48.8582 74.846 50.8995 78.2603 50.8995Z" fill="#D5FAFC" stroke="#191D5D" stroke-width="1.23643" stroke-miterlimit="10"/>
<path d="M80.1923 49.972C82.1129 49.972 83.6698 48.4151 83.6698 46.4946C83.6698 44.574 82.1129 43.0171 80.1923 43.0171C78.2718 43.0171 76.7148 44.574 76.7148 46.4946C76.7148 48.4151 78.2718 49.972 80.1923 49.972Z" fill="#191D5D" stroke="#191D5D" stroke-width="1.23643" stroke-miterlimit="10"/>
<path d="M76.0188 46.7265C76.7443 46.7265 77.3325 46.1384 77.3325 45.4128C77.3325 44.6873 76.7443 44.0991 76.0188 44.0991C75.2932 44.0991 74.7051 44.6873 74.7051 45.4128C74.7051 46.1384 75.2932 46.7265 76.0188 46.7265Z" fill="white"/>
<path d="M69.4412 94.6187C64.0256 97.0844 56.5073 96.1138 52.0795 92.44C45.6338 87.0922 46.9051 78.6799 47.1027 77.5096C47.2158 76.8384 48.647 69.3687 55.0957 66.1986C57.9144 64.8127 63.2969 63.4614 65.2001 66.0478C66.5635 67.8998 65.8848 71.4213 63.9936 72.9852C62.6665 74.0831 60.7451 74.2143 58.866 74.3425C58.0004 74.4013 57.2734 74.3772 56.7546 74.3425C56.3565 74.9608 55.3084 76.7691 55.5482 79.1685C55.6236 79.9256 55.8272 81.9555 57.5087 83.3912C58.4664 84.2086 59.3031 84.6334 59.8732 84.7419" fill="#BEDCFC"/>
<path d="M69.4412 94.6187C64.0256 97.0844 56.5073 96.1138 52.0795 92.44C45.6338 87.0922 46.9051 78.6799 47.1027 77.5096C47.2158 76.8384 48.647 69.3687 55.0957 66.1986C57.9144 64.8127 63.2969 63.4614 65.2001 66.0478C66.5635 67.8998 65.8848 71.4213 63.9936 72.9852C62.6665 74.0831 60.7451 74.2143 58.866 74.3425C58.0004 74.4013 57.2734 74.3772 56.7546 74.3425C56.3565 74.9608 55.3084 76.7691 55.5482 79.1685C55.6236 79.9256 55.8272 81.9555 57.5087 83.3912C58.4664 84.2086 59.3031 84.6334 59.8732 84.7419" stroke="#4344C6" stroke-width="2" stroke-miterlimit="10" stroke-linecap="round" stroke-linejoin="round"/>
<path d="M59.957 84.1245C61.0007 87.373 66.358 92.2055 69.5251 94.6185" stroke="#4344C6" stroke-width="1.2065" stroke-miterlimit="10" stroke-linecap="round" stroke-linejoin="round"/>
</svg>
