<svg width="332" height="156" viewBox="0 0 332 156" fill="none" xmlns="http://www.w3.org/2000/svg">
<path fill-rule="evenodd" clip-rule="evenodd" d="M-136 77L-97.2083 81C-58.4167 93.3932 19.1667 94.0338 96.75 87.8371C174.333 81.6405 251.917 44.4608 329.5 22.7726C407.083 1.08441 484.667 -5.11222 562.25 4.18272C639.833 13.4777 717.417 38.2642 756.208 50.6574L795 63.0506V156H756.208C717.417 156 639.833 156 562.25 156C484.667 156 407.083 156 329.5 156C251.917 156 174.333 156 96.75 156C19.1667 156 -58.4167 156 -97.2083 156H-136V77Z" fill="#828CFC"/>
<path d="M215.474 107.943C214.923 106.832 214.026 105.336 212.602 103.841C211.433 102.614 210.26 101.757 209.32 101.174" stroke="#191D5D" stroke-width="1.6793" stroke-miterlimit="10" stroke-linecap="round" stroke-linejoin="round"/>
<path d="M174.121 188.972C173.756 188.966 173.438 188.72 173.342 188.367C173.299 188.211 172.333 184.506 174.967 181.647C176.308 180.19 178.222 179.355 180.22 179.355C180.518 179.355 180.815 179.374 181.112 179.411C181.475 177.868 181.752 176.295 181.937 174.721C182.817 167.232 181.432 161.166 180.515 157.153C180.476 156.981 180.442 156.838 180.429 156.786C180.429 156.786 180.425 156.766 180.423 156.764C179.974 154.887 179.438 153.086 178.821 151.377C177.998 149.098 176.243 146.993 173.82 146.993C173.167 146.993 172.532 147.092 171.928 147.288C170.713 147.684 170.041 148.897 169.808 150.154C168.808 155.552 167.776 160.858 166.734 165.956C166.242 168.366 166.074 169.207 165.768 170.725C164.656 176.27 163.883 181.946 163.467 187.596C163.436 188.02 163.085 188.351 162.66 188.357C162.66 188.357 148.293 188.562 148.289 188.562C147.975 188.562 147.688 188.381 147.55 188.098C147.388 187.76 146.01 184.716 147.792 181.778C148.966 179.844 151.148 178.641 153.491 178.641C153.505 178.641 153.52 178.641 153.534 178.641C153.005 173.271 152.186 168.264 151.099 163.747C150.637 161.833 150.022 159.465 148.951 156.423C148.881 156.224 147.993 153.939 146.713 150.934C145.487 148.054 142.359 146.534 139.28 147.098C137.058 147.505 134.825 147.855 132.6 148.144C131.652 148.267 130.698 148.381 129.742 148.485C126.775 148.806 124.272 150.91 123.644 153.826C123.509 154.452 123.376 155.078 123.246 155.703C122.413 159.695 121.976 162.22 121.625 164.251C121.151 166.982 120.839 168.787 119.951 171.962C119.51 173.542 118.694 176.108 117.071 181.22C116.462 183.138 115.84 185.073 115.223 186.97C115.112 187.308 114.798 187.536 114.443 187.536H100.904C100.529 187.536 100.201 187.282 100.108 186.917C100.067 186.751 99.1113 182.812 101.946 179.794C103.895 177.72 106.377 177.411 107.684 177.411C107.743 177.411 107.803 177.411 107.86 177.413C107.758 173.433 107.423 169.431 106.861 165.498C106.495 162.938 106.029 160.372 105.469 157.833C104.984 155.639 103.893 153.622 102.314 152.022C99.7248 149.399 97.5287 147.529 95.7635 146.443C94.9368 145.935 92.7623 144.495 90.4566 142.115C90.0935 141.74 89.7509 141.34 89.3796 140.851C87.9991 139.036 86.8524 136.673 85.9662 133.83C84.2943 128.453 83.8697 122.467 84.7046 116.044C84.7169 115.944 84.7497 115.845 84.7989 115.757C92.4813 101.709 95.5091 99.9062 97.2856 99.9062C97.5256 99.9062 97.7594 99.9451 97.9789 100.021C98.26 100.12 98.4384 100.251 98.5143 100.306C100.984 102.118 110.976 106.239 120.484 107.334C122.599 107.578 125.084 107.837 127.787 107.837C132.255 107.837 136.315 107.123 140.196 105.654C143.581 104.374 145.903 102.842 148.147 101.359C151.206 99.34 154.369 97.2537 160.094 95.8629C162.781 95.2106 165.274 94.8926 167.711 94.8926C168.605 94.8926 169.516 94.9357 170.417 95.0219C173.477 95.3152 175.99 96.3277 179.334 97.3214L179.909 97.4669C182.279 98.0664 184.737 98.6214 187.124 98.0915C193.645 96.6436 198.69 90.2972 200.65 84.1127C202.586 77.9997 202.217 67.6362 195.328 63.7427C193.695 62.8196 191.806 62.3519 189.714 62.3519C185.156 62.3519 180.575 64.5222 177.808 66.5551C175.258 68.426 173.828 70.5143 172.88 71.8969C172.109 73.0231 171.643 73.7021 170.88 73.7021C170.733 73.7021 170.587 73.6734 170.449 73.6139C169.883 73.3739 169.543 72.7338 169.383 71.5953C168.894 68.147 170.191 58.68 177.211 53.0018C180.561 50.294 184.674 48.9196 189.435 48.9196C195.554 48.9196 200.789 51.2192 201.776 51.6807C208.242 54.7003 213.019 60.1713 215.973 67.9398C219.27 76.6089 217.651 84.1435 217.042 86.9805C214.66 98.0702 206.231 106.75 205.277 107.703C205.191 107.79 205.091 107.892 204.978 108.007C203.872 109.141 201.384 111.695 197.454 113.466C197.669 113.862 197.864 114.247 198.044 114.633C198.12 114.783 198.928 116.413 199.532 118.366C199.991 119.854 200.924 127.023 201.004 136.859C201.004 136.89 201.002 136.921 201 136.954C200.531 141.35 199.907 145.785 199.146 150.138C198.204 155.514 197.027 160.92 195.644 166.204C195.64 166.223 195.634 166.241 195.628 166.259L188.038 188.619C187.925 188.952 187.611 189.175 187.26 189.175C187.258 189.177 174.121 188.972 174.121 188.972Z" fill="#BEDCFC"/>
<path d="M196.395 152.085C193.748 150.87 190.856 150.201 187.827 150.201C185.406 150.201 183.074 150.63 180.883 151.42C181.327 152.901 181.772 154.614 182.171 156.575C182.175 156.594 182.209 156.762 182.25 156.971C183.095 161.326 184.216 167.339 183.47 174.818C183.234 177.175 182.872 179.091 182.598 180.356C180.693 179.815 178.685 180.521 177.369 182.203C175.408 184.709 176.102 187.947 176.149 188.152C179.867 188.219 183.586 188.289 187.304 188.357C189.453 180.904 191.604 173.45 193.753 165.997C194.713 161.679 195.613 157.035 196.395 152.085Z" fill="#D5FAFC"/>
<path d="M170.771 72.8591C171.635 73.2222 172.794 69.222 177.325 65.8947C179.252 64.4793 182.048 62.9962 185.112 62.1756C183.691 58.4626 180.54 55.6031 176.642 54.5938C169.592 61.3079 169.417 72.2868 170.771 72.8591Z" fill="#D5FAFC"/>
<mask id="path-6-outside-1_339_410" maskUnits="userSpaceOnUse" x="82.4609" y="47.0992" width="138" height="144" fill="black">
<rect fill="white" x="82.4609" y="47.0992" width="138" height="144"/>
<path d="M189.437 49.7403C195.499 49.7403 200.668 52.0686 201.429 52.4235C210.874 56.8339 214.262 65.7491 215.206 68.2312C218.353 76.5044 216.9 83.7272 216.24 86.8084C213.928 97.5739 205.671 106.151 204.697 107.123C203.739 108.081 201.314 110.812 197.188 112.687C196.719 112.9 196.524 113.472 196.769 113.925C196.972 114.301 197.147 114.65 197.303 114.983C197.306 114.99 197.309 114.997 197.313 115.004C197.382 115.144 198.168 116.734 198.748 118.609C199.164 119.956 200.104 127.058 200.184 136.866C199.741 141.018 199.14 145.405 198.338 149.994C197.335 155.73 196.139 161.074 194.85 165.995C192.387 173.255 189.921 180.516 187.457 187.776C187.34 188.121 187.013 188.351 186.649 188.345C182.688 188.284 178.725 188.221 174.764 188.159C174.39 188.154 174.064 187.901 174.014 187.53C173.864 186.432 173.814 184.106 175.568 182.201C176.772 180.894 178.468 180.174 180.216 180.174C180.445 180.174 180.675 180.186 180.905 180.212C181.362 180.261 181.814 179.996 181.918 179.549C182.203 178.331 182.524 176.717 182.747 174.816C183.625 167.337 182.306 161.324 181.311 156.969C181.264 156.76 181.223 156.592 181.219 156.573C180.371 153.034 179.351 150.295 178.471 148.297C178.191 147.662 177.713 147.128 177.074 146.859C176.288 146.529 175.138 146.171 173.816 146.171C173.137 146.171 172.413 146.265 171.67 146.507C171.214 146.655 170.807 146.84 170.447 147.04C169.743 147.431 169.334 148.175 169.188 148.967C167.88 156.074 166.747 161.773 165.926 165.79C165.434 168.202 165.264 169.043 164.96 170.563C163.757 176.56 163.079 182.019 162.703 186.768C162.668 187.202 162.31 187.539 161.875 187.545C157.523 187.607 153.17 187.67 148.819 187.732C148.493 187.736 148.193 187.553 148.086 187.245C147.759 186.305 147.273 184.204 148.49 182.201C149.53 180.488 151.439 179.46 153.487 179.46C153.972 179.46 154.396 179.067 154.349 178.584C153.982 174.859 153.277 169.299 151.891 163.552C151.435 161.663 150.812 159.254 149.72 156.148C149.645 155.931 148.754 153.642 147.464 150.61C146.991 149.499 146.543 148.475 146.131 147.552C145.484 146.101 143.895 145.332 142.34 145.657C139.264 146.3 135.975 146.873 132.489 147.328C130.45 147.593 128.471 147.802 126.556 147.963C125.085 148.087 123.845 149.129 123.518 150.569C123.202 151.963 122.832 153.641 122.437 155.533C120.489 164.879 120.692 166.249 119.155 171.739C118.716 173.304 117.906 175.86 116.283 180.97C115.624 183.045 115.055 184.81 114.625 186.134C114.513 186.48 114.191 186.714 113.827 186.714C109.735 186.714 105.642 186.714 101.549 186.714C101.166 186.714 100.832 186.455 100.786 186.074C100.642 184.909 100.617 182.401 102.539 180.355C104.25 178.533 106.42 178.229 107.678 178.229C108.206 178.229 108.685 177.812 108.671 177.284C108.576 173.684 108.282 169.687 107.668 165.38C107.136 161.648 106.437 158.214 105.668 155.113C105.503 154.445 105.167 153.83 104.699 153.326C100.509 148.814 97.9183 146.534 96.2332 145.499C95.6281 145.127 93.388 143.967 91.0372 141.543C90.7028 141.198 90.3807 140.821 90.0258 140.353C89.3325 139.442 87.9396 137.432 86.7437 133.583C84.6888 126.973 84.9562 120.539 85.493 116.302C85.5061 116.198 85.5384 116.1 85.5885 116.009C89.7842 108.35 94.5838 100.723 97.2794 100.723C97.4271 100.723 97.5687 100.745 97.702 100.792C97.8702 100.85 97.9708 100.928 98.0241 100.967C100.596 102.854 110.732 107.035 120.384 108.147C122.548 108.395 125.038 108.655 127.781 108.655C131.597 108.655 135.9 108.153 140.481 106.419C148.588 103.351 150.516 99.0304 160.283 96.659C162.898 96.0231 165.319 95.7133 167.707 95.7133C168.585 95.7133 169.459 95.7564 170.335 95.8385C174.103 96.1974 177.096 97.2457 179.053 98.0949C180.186 98.421 181.319 98.7471 182.451 99.0743C183.029 99.2412 183.637 99.2881 184.228 99.1771C192.441 97.6354 199.077 91.7803 201.429 84.3611C203.643 77.3721 202.646 66.9389 195.73 63.029C193.845 61.9623 191.784 61.5315 189.712 61.5315C184.977 61.5315 180.187 63.788 177.319 65.8927C172.981 69.0784 171.734 72.8796 170.878 72.8796C170.839 72.8796 170.802 72.8714 170.765 72.8571C169.346 72.2581 169.606 60.2043 177.724 53.6379C181.393 50.6736 185.595 49.7403 189.437 49.7403ZM189.437 48.0992C184.483 48.0992 180.195 49.5331 176.696 52.364C172.731 55.5702 170.722 59.7878 169.734 62.7603C168.478 66.543 168.308 69.8641 168.57 71.7103C168.644 72.2375 168.872 73.8397 170.129 74.371C170.369 74.4715 170.622 74.5228 170.88 74.5228C172.076 74.5228 172.728 73.5689 173.557 72.3606C174.472 71.0252 175.857 69.0067 178.294 67.2179C180.833 65.3532 185.351 63.1746 189.714 63.1746C191.663 63.1746 193.416 63.6075 194.924 64.4608C198.395 66.424 199.819 70.1246 200.399 72.8817C201.138 76.3792 200.939 80.4881 199.866 83.8688C197.755 90.531 191.898 95.6306 184.402 97.4286C183.752 97.5845 183.073 97.5491 182.431 97.3639L179.609 96.5503C176.688 95.2948 173.621 94.5071 170.493 94.2076C169.565 94.1194 168.63 94.0743 167.707 94.0743C165.204 94.0743 162.648 94.3984 159.897 95.0671C154.034 96.4908 150.81 98.618 147.694 100.676C145.384 102.2 143.203 103.64 139.903 104.887C136.116 106.321 132.151 107.016 127.783 107.016C125.121 107.016 122.665 106.76 120.573 106.518C115.303 105.911 110.332 104.434 107.091 103.299C102.982 101.863 100.063 100.427 98.9944 99.6437C98.8959 99.5699 98.6374 99.3812 98.2415 99.2437C97.9359 99.137 97.6118 99.0816 97.2794 99.0816C95.4107 99.0816 93.3593 100.78 90.6248 104.588C88.7766 107.164 86.5713 110.787 84.0707 115.357C83.9723 115.536 83.9087 115.731 83.8841 115.934C83.0327 122.475 83.4676 128.578 85.1744 134.07C86.0995 137.046 87.2585 139.426 88.7171 141.346C89.1089 141.861 89.472 142.287 89.8576 142.685C92.229 145.133 94.4711 146.616 95.3245 147.141C97.357 148.389 100.002 150.736 103.195 154.126C103.674 154.635 104.014 155.26 104.179 155.939C104.953 159.127 105.578 162.374 106.041 165.611C106.522 168.976 106.835 172.396 106.977 175.805C106.995 176.256 106.65 176.634 106.205 176.705C104.751 176.934 102.897 177.575 101.341 179.23C98.2559 182.515 99.1893 186.654 99.3041 187.116C99.4888 187.844 100.143 188.355 100.896 188.355H114.435C115.145 188.355 115.777 187.897 115.996 187.222C116.614 185.323 117.237 183.386 117.846 181.468C119.473 176.346 120.29 173.776 120.735 172.182C121.635 168.965 121.949 167.146 122.427 164.389C122.778 162.366 123.213 159.847 124.044 155.869C124.432 154.011 124.839 152.146 125.261 150.305C125.343 149.947 125.649 149.685 126.016 149.656C128.249 149.48 130.489 149.246 132.7 148.956C135.602 148.579 138.517 148.099 141.403 147.525C142.958 147.215 144.537 147.998 145.173 149.45C145.436 150.051 145.696 150.653 145.952 151.254C147.191 154.165 148.083 156.452 148.172 156.696C149.228 159.701 149.837 162.044 150.295 163.937C151.26 167.943 152.013 172.341 152.536 177.04C152.587 177.498 152.254 177.905 151.804 178.007C149.844 178.447 148.119 179.647 147.084 181.351C145.076 184.66 146.621 188.076 146.803 188.455C147.078 189.024 147.653 189.383 148.28 189.383C148.289 189.383 148.297 189.383 148.303 189.383L162.662 189.177C163.514 189.165 164.213 188.505 164.275 187.657C164.689 182.041 165.458 176.399 166.564 170.887C166.864 169.396 167.03 168.569 167.528 166.12C168.586 160.942 169.633 155.55 170.649 150.065C170.813 149.179 171.316 148.346 172.173 148.068C172.694 147.898 173.245 147.814 173.812 147.814C174.474 147.814 175.094 147.931 175.628 148.088C176.388 148.311 176.956 148.919 177.261 149.649C178.204 151.905 178.996 154.355 179.619 156.957L179.621 156.969C179.629 157.006 179.666 157.154 179.707 157.336C180.61 161.293 181.976 167.275 181.112 174.627C180.968 175.856 180.766 177.085 180.512 178.298C180.482 178.439 180.356 178.537 180.212 178.537C177.986 178.537 175.851 179.468 174.355 181.093C171.469 184.227 172.425 188.146 172.542 188.583C172.733 189.288 173.369 189.783 174.101 189.795L178.476 189.863L187.23 190C187.238 190 187.246 190 187.256 190C187.958 190 188.583 189.553 188.809 188.886L191.338 181.434L196.399 166.526C196.411 166.489 196.424 166.452 196.432 166.413C197.821 161.109 199.004 155.681 199.948 150.28C200.713 145.908 201.339 141.455 201.809 137.042C201.815 136.981 201.819 136.917 201.817 136.855C201.737 126.935 200.779 119.653 200.307 118.126C199.7 116.159 198.887 114.504 198.777 114.28C198.664 114.039 198.76 113.749 198.996 113.625C202.368 111.853 204.535 109.629 205.556 108.582C205.665 108.469 205.764 108.37 205.848 108.284C206.818 107.314 215.403 98.4724 217.834 87.153C218.457 84.2524 220.113 76.5454 216.73 67.6487C216.244 66.3686 215.103 63.3695 212.843 60.114C210.002 56.0215 206.391 52.9342 202.114 50.9362C201.109 50.4624 195.73 48.0992 189.437 48.0992Z"/>
</mask>
<path d="M189.437 49.7403C195.499 49.7403 200.668 52.0686 201.429 52.4235C210.874 56.8339 214.262 65.7491 215.206 68.2312C218.353 76.5044 216.9 83.7272 216.24 86.8084C213.928 97.5739 205.671 106.151 204.697 107.123C203.739 108.081 201.314 110.812 197.188 112.687C196.719 112.9 196.524 113.472 196.769 113.925C196.972 114.301 197.147 114.65 197.303 114.983C197.306 114.99 197.309 114.997 197.313 115.004C197.382 115.144 198.168 116.734 198.748 118.609C199.164 119.956 200.104 127.058 200.184 136.866C199.741 141.018 199.14 145.405 198.338 149.994C197.335 155.73 196.139 161.074 194.85 165.995C192.387 173.255 189.921 180.516 187.457 187.776C187.34 188.121 187.013 188.351 186.649 188.345C182.688 188.284 178.725 188.221 174.764 188.159C174.39 188.154 174.064 187.901 174.014 187.53C173.864 186.432 173.814 184.106 175.568 182.201C176.772 180.894 178.468 180.174 180.216 180.174C180.445 180.174 180.675 180.186 180.905 180.212C181.362 180.261 181.814 179.996 181.918 179.549C182.203 178.331 182.524 176.717 182.747 174.816C183.625 167.337 182.306 161.324 181.311 156.969C181.264 156.76 181.223 156.592 181.219 156.573C180.371 153.034 179.351 150.295 178.471 148.297C178.191 147.662 177.713 147.128 177.074 146.859C176.288 146.529 175.138 146.171 173.816 146.171C173.137 146.171 172.413 146.265 171.67 146.507C171.214 146.655 170.807 146.84 170.447 147.04C169.743 147.431 169.334 148.175 169.188 148.967C167.88 156.074 166.747 161.773 165.926 165.79C165.434 168.202 165.264 169.043 164.96 170.563C163.757 176.56 163.079 182.019 162.703 186.768C162.668 187.202 162.31 187.539 161.875 187.545C157.523 187.607 153.17 187.67 148.819 187.732C148.493 187.736 148.193 187.553 148.086 187.245C147.759 186.305 147.273 184.204 148.49 182.201C149.53 180.488 151.439 179.46 153.487 179.46C153.972 179.46 154.396 179.067 154.349 178.584C153.982 174.859 153.277 169.299 151.891 163.552C151.435 161.663 150.812 159.254 149.72 156.148C149.645 155.931 148.754 153.642 147.464 150.61C146.991 149.499 146.543 148.475 146.131 147.552C145.484 146.101 143.895 145.332 142.34 145.657C139.264 146.3 135.975 146.873 132.489 147.328C130.45 147.593 128.471 147.802 126.556 147.963C125.085 148.087 123.845 149.129 123.518 150.569C123.202 151.963 122.832 153.641 122.437 155.533C120.489 164.879 120.692 166.249 119.155 171.739C118.716 173.304 117.906 175.86 116.283 180.97C115.624 183.045 115.055 184.81 114.625 186.134C114.513 186.48 114.191 186.714 113.827 186.714C109.735 186.714 105.642 186.714 101.549 186.714C101.166 186.714 100.832 186.455 100.786 186.074C100.642 184.909 100.617 182.401 102.539 180.355C104.25 178.533 106.42 178.229 107.678 178.229C108.206 178.229 108.685 177.812 108.671 177.284C108.576 173.684 108.282 169.687 107.668 165.38C107.136 161.648 106.437 158.214 105.668 155.113C105.503 154.445 105.167 153.83 104.699 153.326C100.509 148.814 97.9183 146.534 96.2332 145.499C95.6281 145.127 93.388 143.967 91.0372 141.543C90.7028 141.198 90.3807 140.821 90.0258 140.353C89.3325 139.442 87.9396 137.432 86.7437 133.583C84.6888 126.973 84.9562 120.539 85.493 116.302C85.5061 116.198 85.5384 116.1 85.5885 116.009C89.7842 108.35 94.5838 100.723 97.2794 100.723C97.4271 100.723 97.5687 100.745 97.702 100.792C97.8702 100.85 97.9708 100.928 98.0241 100.967C100.596 102.854 110.732 107.035 120.384 108.147C122.548 108.395 125.038 108.655 127.781 108.655C131.597 108.655 135.9 108.153 140.481 106.419C148.588 103.351 150.516 99.0304 160.283 96.659C162.898 96.0231 165.319 95.7133 167.707 95.7133C168.585 95.7133 169.459 95.7564 170.335 95.8385C174.103 96.1974 177.096 97.2457 179.053 98.0949C180.186 98.421 181.319 98.7471 182.451 99.0743C183.029 99.2412 183.637 99.2881 184.228 99.1771C192.441 97.6354 199.077 91.7803 201.429 84.3611C203.643 77.3721 202.646 66.9389 195.73 63.029C193.845 61.9623 191.784 61.5315 189.712 61.5315C184.977 61.5315 180.187 63.788 177.319 65.8927C172.981 69.0784 171.734 72.8796 170.878 72.8796C170.839 72.8796 170.802 72.8714 170.765 72.8571C169.346 72.2581 169.606 60.2043 177.724 53.6379C181.393 50.6736 185.595 49.7403 189.437 49.7403ZM189.437 48.0992C184.483 48.0992 180.195 49.5331 176.696 52.364C172.731 55.5702 170.722 59.7878 169.734 62.7603C168.478 66.543 168.308 69.8641 168.57 71.7103C168.644 72.2375 168.872 73.8397 170.129 74.371C170.369 74.4715 170.622 74.5228 170.88 74.5228C172.076 74.5228 172.728 73.5689 173.557 72.3606C174.472 71.0252 175.857 69.0067 178.294 67.2179C180.833 65.3532 185.351 63.1746 189.714 63.1746C191.663 63.1746 193.416 63.6075 194.924 64.4608C198.395 66.424 199.819 70.1246 200.399 72.8817C201.138 76.3792 200.939 80.4881 199.866 83.8688C197.755 90.531 191.898 95.6306 184.402 97.4286C183.752 97.5845 183.073 97.5491 182.431 97.3639L179.609 96.5503C176.688 95.2948 173.621 94.5071 170.493 94.2076C169.565 94.1194 168.63 94.0743 167.707 94.0743C165.204 94.0743 162.648 94.3984 159.897 95.0671C154.034 96.4908 150.81 98.618 147.694 100.676C145.384 102.2 143.203 103.64 139.903 104.887C136.116 106.321 132.151 107.016 127.783 107.016C125.121 107.016 122.665 106.76 120.573 106.518C115.303 105.911 110.332 104.434 107.091 103.299C102.982 101.863 100.063 100.427 98.9944 99.6437C98.8959 99.5699 98.6374 99.3812 98.2415 99.2437C97.9359 99.137 97.6118 99.0816 97.2794 99.0816C95.4107 99.0816 93.3593 100.78 90.6248 104.588C88.7766 107.164 86.5713 110.787 84.0707 115.357C83.9723 115.536 83.9087 115.731 83.8841 115.934C83.0327 122.475 83.4676 128.578 85.1744 134.07C86.0995 137.046 87.2585 139.426 88.7171 141.346C89.1089 141.861 89.472 142.287 89.8576 142.685C92.229 145.133 94.4711 146.616 95.3245 147.141C97.357 148.389 100.002 150.736 103.195 154.126C103.674 154.635 104.014 155.26 104.179 155.939C104.953 159.127 105.578 162.374 106.041 165.611C106.522 168.976 106.835 172.396 106.977 175.805C106.995 176.256 106.65 176.634 106.205 176.705C104.751 176.934 102.897 177.575 101.341 179.23C98.2559 182.515 99.1893 186.654 99.3041 187.116C99.4888 187.844 100.143 188.355 100.896 188.355H114.435C115.145 188.355 115.777 187.897 115.996 187.222C116.614 185.323 117.237 183.386 117.846 181.468C119.473 176.346 120.29 173.776 120.735 172.182C121.635 168.965 121.949 167.146 122.427 164.389C122.778 162.366 123.213 159.847 124.044 155.869C124.432 154.011 124.839 152.146 125.261 150.305C125.343 149.947 125.649 149.685 126.016 149.656C128.249 149.48 130.489 149.246 132.7 148.956C135.602 148.579 138.517 148.099 141.403 147.525C142.958 147.215 144.537 147.998 145.173 149.45C145.436 150.051 145.696 150.653 145.952 151.254C147.191 154.165 148.083 156.452 148.172 156.696C149.228 159.701 149.837 162.044 150.295 163.937C151.26 167.943 152.013 172.341 152.536 177.04C152.587 177.498 152.254 177.905 151.804 178.007C149.844 178.447 148.119 179.647 147.084 181.351C145.076 184.66 146.621 188.076 146.803 188.455C147.078 189.024 147.653 189.383 148.28 189.383C148.289 189.383 148.297 189.383 148.303 189.383L162.662 189.177C163.514 189.165 164.213 188.505 164.275 187.657C164.689 182.041 165.458 176.399 166.564 170.887C166.864 169.396 167.03 168.569 167.528 166.12C168.586 160.942 169.633 155.55 170.649 150.065C170.813 149.179 171.316 148.346 172.173 148.068C172.694 147.898 173.245 147.814 173.812 147.814C174.474 147.814 175.094 147.931 175.628 148.088C176.388 148.311 176.956 148.919 177.261 149.649C178.204 151.905 178.996 154.355 179.619 156.957L179.621 156.969C179.629 157.006 179.666 157.154 179.707 157.336C180.61 161.293 181.976 167.275 181.112 174.627C180.968 175.856 180.766 177.085 180.512 178.298C180.482 178.439 180.356 178.537 180.212 178.537C177.986 178.537 175.851 179.468 174.355 181.093C171.469 184.227 172.425 188.146 172.542 188.583C172.733 189.288 173.369 189.783 174.101 189.795L178.476 189.863L187.23 190C187.238 190 187.246 190 187.256 190C187.958 190 188.583 189.553 188.809 188.886L191.338 181.434L196.399 166.526C196.411 166.489 196.424 166.452 196.432 166.413C197.821 161.109 199.004 155.681 199.948 150.28C200.713 145.908 201.339 141.455 201.809 137.042C201.815 136.981 201.819 136.917 201.817 136.855C201.737 126.935 200.779 119.653 200.307 118.126C199.7 116.159 198.887 114.504 198.777 114.28C198.664 114.039 198.76 113.749 198.996 113.625C202.368 111.853 204.535 109.629 205.556 108.582C205.665 108.469 205.764 108.37 205.848 108.284C206.818 107.314 215.403 98.4724 217.834 87.153C218.457 84.2524 220.113 76.5454 216.73 67.6487C216.244 66.3686 215.103 63.3695 212.843 60.114C210.002 56.0215 206.391 52.9342 202.114 50.9362C201.109 50.4624 195.73 48.0992 189.437 48.0992Z" fill="#4344C6"/>
<path d="M189.437 49.7403C195.499 49.7403 200.668 52.0686 201.429 52.4235C210.874 56.8339 214.262 65.7491 215.206 68.2312C218.353 76.5044 216.9 83.7272 216.24 86.8084C213.928 97.5739 205.671 106.151 204.697 107.123C203.739 108.081 201.314 110.812 197.188 112.687C196.719 112.9 196.524 113.472 196.769 113.925C196.972 114.301 197.147 114.65 197.303 114.983C197.306 114.99 197.309 114.997 197.313 115.004C197.382 115.144 198.168 116.734 198.748 118.609C199.164 119.956 200.104 127.058 200.184 136.866C199.741 141.018 199.14 145.405 198.338 149.994C197.335 155.73 196.139 161.074 194.85 165.995C192.387 173.255 189.921 180.516 187.457 187.776C187.34 188.121 187.013 188.351 186.649 188.345C182.688 188.284 178.725 188.221 174.764 188.159C174.39 188.154 174.064 187.901 174.014 187.53C173.864 186.432 173.814 184.106 175.568 182.201C176.772 180.894 178.468 180.174 180.216 180.174C180.445 180.174 180.675 180.186 180.905 180.212C181.362 180.261 181.814 179.996 181.918 179.549C182.203 178.331 182.524 176.717 182.747 174.816C183.625 167.337 182.306 161.324 181.311 156.969C181.264 156.76 181.223 156.592 181.219 156.573C180.371 153.034 179.351 150.295 178.471 148.297C178.191 147.662 177.713 147.128 177.074 146.859C176.288 146.529 175.138 146.171 173.816 146.171C173.137 146.171 172.413 146.265 171.67 146.507C171.214 146.655 170.807 146.84 170.447 147.04C169.743 147.431 169.334 148.175 169.188 148.967C167.88 156.074 166.747 161.773 165.926 165.79C165.434 168.202 165.264 169.043 164.96 170.563C163.757 176.56 163.079 182.019 162.703 186.768C162.668 187.202 162.31 187.539 161.875 187.545C157.523 187.607 153.17 187.67 148.819 187.732C148.493 187.736 148.193 187.553 148.086 187.245C147.759 186.305 147.273 184.204 148.49 182.201C149.53 180.488 151.439 179.46 153.487 179.46C153.972 179.46 154.396 179.067 154.349 178.584C153.982 174.859 153.277 169.299 151.891 163.552C151.435 161.663 150.812 159.254 149.72 156.148C149.645 155.931 148.754 153.642 147.464 150.61C146.991 149.499 146.543 148.475 146.131 147.552C145.484 146.101 143.895 145.332 142.34 145.657C139.264 146.3 135.975 146.873 132.489 147.328C130.45 147.593 128.471 147.802 126.556 147.963C125.085 148.087 123.845 149.129 123.518 150.569C123.202 151.963 122.832 153.641 122.437 155.533C120.489 164.879 120.692 166.249 119.155 171.739C118.716 173.304 117.906 175.86 116.283 180.97C115.624 183.045 115.055 184.81 114.625 186.134C114.513 186.48 114.191 186.714 113.827 186.714C109.735 186.714 105.642 186.714 101.549 186.714C101.166 186.714 100.832 186.455 100.786 186.074C100.642 184.909 100.617 182.401 102.539 180.355C104.25 178.533 106.42 178.229 107.678 178.229C108.206 178.229 108.685 177.812 108.671 177.284C108.576 173.684 108.282 169.687 107.668 165.38C107.136 161.648 106.437 158.214 105.668 155.113C105.503 154.445 105.167 153.83 104.699 153.326C100.509 148.814 97.9183 146.534 96.2332 145.499C95.6281 145.127 93.388 143.967 91.0372 141.543C90.7028 141.198 90.3807 140.821 90.0258 140.353C89.3325 139.442 87.9396 137.432 86.7437 133.583C84.6888 126.973 84.9562 120.539 85.493 116.302C85.5061 116.198 85.5384 116.1 85.5885 116.009C89.7842 108.35 94.5838 100.723 97.2794 100.723C97.4271 100.723 97.5687 100.745 97.702 100.792C97.8702 100.85 97.9708 100.928 98.0241 100.967C100.596 102.854 110.732 107.035 120.384 108.147C122.548 108.395 125.038 108.655 127.781 108.655C131.597 108.655 135.9 108.153 140.481 106.419C148.588 103.351 150.516 99.0304 160.283 96.659C162.898 96.0231 165.319 95.7133 167.707 95.7133C168.585 95.7133 169.459 95.7564 170.335 95.8385C174.103 96.1974 177.096 97.2457 179.053 98.0949C180.186 98.421 181.319 98.7471 182.451 99.0743C183.029 99.2412 183.637 99.2881 184.228 99.1771C192.441 97.6354 199.077 91.7803 201.429 84.3611C203.643 77.3721 202.646 66.9389 195.73 63.029C193.845 61.9623 191.784 61.5315 189.712 61.5315C184.977 61.5315 180.187 63.788 177.319 65.8927C172.981 69.0784 171.734 72.8796 170.878 72.8796C170.839 72.8796 170.802 72.8714 170.765 72.8571C169.346 72.2581 169.606 60.2043 177.724 53.6379C181.393 50.6736 185.595 49.7403 189.437 49.7403ZM189.437 48.0992C184.483 48.0992 180.195 49.5331 176.696 52.364C172.731 55.5702 170.722 59.7878 169.734 62.7603C168.478 66.543 168.308 69.8641 168.57 71.7103C168.644 72.2375 168.872 73.8397 170.129 74.371C170.369 74.4715 170.622 74.5228 170.88 74.5228C172.076 74.5228 172.728 73.5689 173.557 72.3606C174.472 71.0252 175.857 69.0067 178.294 67.2179C180.833 65.3532 185.351 63.1746 189.714 63.1746C191.663 63.1746 193.416 63.6075 194.924 64.4608C198.395 66.424 199.819 70.1246 200.399 72.8817C201.138 76.3792 200.939 80.4881 199.866 83.8688C197.755 90.531 191.898 95.6306 184.402 97.4286C183.752 97.5845 183.073 97.5491 182.431 97.3639L179.609 96.5503C176.688 95.2948 173.621 94.5071 170.493 94.2076C169.565 94.1194 168.63 94.0743 167.707 94.0743C165.204 94.0743 162.648 94.3984 159.897 95.0671C154.034 96.4908 150.81 98.618 147.694 100.676C145.384 102.2 143.203 103.64 139.903 104.887C136.116 106.321 132.151 107.016 127.783 107.016C125.121 107.016 122.665 106.76 120.573 106.518C115.303 105.911 110.332 104.434 107.091 103.299C102.982 101.863 100.063 100.427 98.9944 99.6437C98.8959 99.5699 98.6374 99.3812 98.2415 99.2437C97.9359 99.137 97.6118 99.0816 97.2794 99.0816C95.4107 99.0816 93.3593 100.78 90.6248 104.588C88.7766 107.164 86.5713 110.787 84.0707 115.357C83.9723 115.536 83.9087 115.731 83.8841 115.934C83.0327 122.475 83.4676 128.578 85.1744 134.07C86.0995 137.046 87.2585 139.426 88.7171 141.346C89.1089 141.861 89.472 142.287 89.8576 142.685C92.229 145.133 94.4711 146.616 95.3245 147.141C97.357 148.389 100.002 150.736 103.195 154.126C103.674 154.635 104.014 155.26 104.179 155.939C104.953 159.127 105.578 162.374 106.041 165.611C106.522 168.976 106.835 172.396 106.977 175.805C106.995 176.256 106.65 176.634 106.205 176.705C104.751 176.934 102.897 177.575 101.341 179.23C98.2559 182.515 99.1893 186.654 99.3041 187.116C99.4888 187.844 100.143 188.355 100.896 188.355H114.435C115.145 188.355 115.777 187.897 115.996 187.222C116.614 185.323 117.237 183.386 117.846 181.468C119.473 176.346 120.29 173.776 120.735 172.182C121.635 168.965 121.949 167.146 122.427 164.389C122.778 162.366 123.213 159.847 124.044 155.869C124.432 154.011 124.839 152.146 125.261 150.305C125.343 149.947 125.649 149.685 126.016 149.656C128.249 149.48 130.489 149.246 132.7 148.956C135.602 148.579 138.517 148.099 141.403 147.525C142.958 147.215 144.537 147.998 145.173 149.45C145.436 150.051 145.696 150.653 145.952 151.254C147.191 154.165 148.083 156.452 148.172 156.696C149.228 159.701 149.837 162.044 150.295 163.937C151.26 167.943 152.013 172.341 152.536 177.04C152.587 177.498 152.254 177.905 151.804 178.007C149.844 178.447 148.119 179.647 147.084 181.351C145.076 184.66 146.621 188.076 146.803 188.455C147.078 189.024 147.653 189.383 148.28 189.383C148.289 189.383 148.297 189.383 148.303 189.383L162.662 189.177C163.514 189.165 164.213 188.505 164.275 187.657C164.689 182.041 165.458 176.399 166.564 170.887C166.864 169.396 167.03 168.569 167.528 166.12C168.586 160.942 169.633 155.55 170.649 150.065C170.813 149.179 171.316 148.346 172.173 148.068C172.694 147.898 173.245 147.814 173.812 147.814C174.474 147.814 175.094 147.931 175.628 148.088C176.388 148.311 176.956 148.919 177.261 149.649C178.204 151.905 178.996 154.355 179.619 156.957L179.621 156.969C179.629 157.006 179.666 157.154 179.707 157.336C180.61 161.293 181.976 167.275 181.112 174.627C180.968 175.856 180.766 177.085 180.512 178.298C180.482 178.439 180.356 178.537 180.212 178.537C177.986 178.537 175.851 179.468 174.355 181.093C171.469 184.227 172.425 188.146 172.542 188.583C172.733 189.288 173.369 189.783 174.101 189.795L178.476 189.863L187.23 190C187.238 190 187.246 190 187.256 190C187.958 190 188.583 189.553 188.809 188.886L191.338 181.434L196.399 166.526C196.411 166.489 196.424 166.452 196.432 166.413C197.821 161.109 199.004 155.681 199.948 150.28C200.713 145.908 201.339 141.455 201.809 137.042C201.815 136.981 201.819 136.917 201.817 136.855C201.737 126.935 200.779 119.653 200.307 118.126C199.7 116.159 198.887 114.504 198.777 114.28C198.664 114.039 198.76 113.749 198.996 113.625C202.368 111.853 204.535 109.629 205.556 108.582C205.665 108.469 205.764 108.37 205.848 108.284C206.818 107.314 215.403 98.4724 217.834 87.153C218.457 84.2524 220.113 76.5454 216.73 67.6487C216.244 66.3686 215.103 63.3695 212.843 60.114C210.002 56.0215 206.391 52.9342 202.114 50.9362C201.109 50.4624 195.73 48.0992 189.437 48.0992Z" stroke="#4344C6" stroke-width="1.63225" mask="url(#path-6-outside-1_339_410)"/>
<path d="M179.734 116.764C181.127 118.338 182.518 119.909 183.911 121.482" stroke="#191D5D" stroke-width="1.6793" stroke-miterlimit="10" stroke-linecap="round" stroke-linejoin="round"/>
<path d="M179.578 121.173C181.176 119.831 182.774 118.492 184.374 117.15" stroke="#191D5D" stroke-width="1.6793" stroke-miterlimit="10" stroke-linecap="round" stroke-linejoin="round"/>
<path d="M164.784 141.586C161.181 141.586 158.25 138.654 158.25 135.052V114.067C158.25 110.465 161.181 107.533 164.784 107.533H214.898C218.501 107.533 221.432 110.465 221.432 114.067V135.052C221.432 138.654 218.501 141.586 214.898 141.586H164.784Z" fill="#D0D4FF"/>
<path d="M214.899 108.354C218.049 108.354 220.612 110.916 220.612 114.067V135.052C220.612 138.203 218.049 140.765 214.899 140.765H164.784C161.633 140.765 159.071 138.203 159.071 135.052V114.067C159.071 110.916 161.633 108.354 164.784 108.354H214.899ZM214.899 106.713H164.784C160.722 106.713 157.43 110.005 157.43 114.067V135.052C157.43 139.114 160.722 142.406 164.784 142.406H214.899C218.96 142.406 222.253 139.114 222.253 135.052V114.067C222.253 110.005 218.96 106.713 214.899 106.713Z" fill="#191D5D"/>
<path d="M178.246 125.796H177.485C176.984 125.796 176.556 126.106 176.379 126.543C176.256 126.5 176.125 126.471 175.987 126.471H173.218C173.103 126.471 172.994 126.492 172.89 126.523C172.777 125.979 172.297 125.571 171.721 125.571H170.96C170.299 125.571 169.766 126.106 169.766 126.765V131.577C169.766 132.238 170.301 132.771 170.96 132.771H171.721C172.381 132.771 172.914 132.236 172.914 131.577V130.252C173.013 130.277 173.113 130.295 173.218 130.295H175.985C176.092 130.295 176.193 130.277 176.289 130.252V131.801C176.289 132.461 176.824 132.995 177.483 132.995H178.244C178.904 132.995 179.438 132.459 179.438 131.801V126.988C179.44 126.33 178.904 125.796 178.246 125.796Z" fill="#828CFC" stroke="#191D5D" stroke-width="1.6793" stroke-miterlimit="10" stroke-linecap="round" stroke-linejoin="round"/>
<path d="M201.603 113.644C197.121 113.644 193.359 117.092 192.323 121.745H169.422C168.119 121.745 167.062 122.801 167.062 124.104V124.561C167.062 125.864 168.119 126.921 169.422 126.921H192.323C193.359 131.573 197.119 135.021 201.603 135.021C206.886 135.021 211.167 130.236 211.167 124.334C211.167 118.432 206.886 113.644 201.603 113.644Z" fill="#828CFC" stroke="#191D5D" stroke-width="1.6793" stroke-miterlimit="10" stroke-linecap="round" stroke-linejoin="round"/>
<path d="M201.594 129.251C199.255 129.251 197.352 127.081 197.352 124.414C197.352 121.747 199.255 119.577 201.594 119.577C203.932 119.577 205.836 121.747 205.836 124.414C205.836 127.081 203.932 129.251 201.594 129.251Z" fill="#D0D4FF"/>
<path d="M201.594 120.395C203.481 120.395 205.016 122.198 205.016 124.412C205.016 126.625 203.481 128.428 201.594 128.428C199.707 128.428 198.172 126.625 198.172 124.412C198.172 122.198 199.707 120.395 201.594 120.395ZM201.594 118.754C198.798 118.754 196.531 121.288 196.531 124.412C196.531 127.536 198.798 130.069 201.594 130.069C204.39 130.069 206.657 127.536 206.657 124.412C206.657 121.288 204.39 118.754 201.594 118.754Z" fill="#191D5D"/>
<path d="M163.984 107.123C167.066 103.839 170.026 101.597 172.19 100.148C175.402 97.9985 180.691 94.544 188.19 93.5839C190.593 93.2762 192.599 93.3049 193.934 93.3788" stroke="#191D5D" stroke-width="1.6793" stroke-miterlimit="10" stroke-linecap="round" stroke-linejoin="round"/>
<path d="M110.248 113.17C105.38 111.094 100.533 115.17 100.055 115.585C95.0903 113.765 89.9599 115.16 87.1782 119.033C86.7987 119.562 86.4828 120.112 86.2203 120.672C86.1915 124.17 86.569 128.227 87.8531 132.355C89.0491 136.203 90.442 138.213 91.1353 139.124C91.4902 139.592 91.8143 139.969 92.1466 140.314C94.4975 142.739 96.6904 144.142 97.2956 144.513C97.4576 144.614 97.6299 144.722 97.8104 144.843C100.104 146.078 101.66 147.124 103.612 147.124C106.698 147.178 109.972 143.946 112.575 140.041C114.255 137.522 116.634 133.21 116.572 126.808C116.556 125.304 116.285 115.743 110.248 113.17Z" fill="#D5FAFC"/>
<path d="M122.267 106.875C121.847 108.554 118.488 114.14 112.611 116.531C106.357 119.074 101.695 119.469 99.5962 119.469C92.8985 119.205 88.0901 116.834 86.0859 115.445" fill="#D0D4FF"/>
<path d="M122.267 106.875C121.847 108.554 118.488 114.14 112.611 116.531C106.357 119.074 101.695 119.469 99.5962 119.469C92.8985 119.205 88.0901 116.834 86.0859 115.445" stroke="#191D5D" stroke-width="1.6793" stroke-miterlimit="10" stroke-linecap="round" stroke-linejoin="round"/>
<path d="M101.017 127.021C102.829 127.021 104.299 125.643 104.299 123.944C104.299 122.245 102.829 120.867 101.017 120.867C99.2039 120.867 97.7344 122.245 97.7344 123.944C97.7344 125.643 99.2039 127.021 101.017 127.021Z" fill="#828CFC"/>
<path d="M101.009 121.688C102.369 121.688 103.471 122.697 103.471 123.944C103.471 125.191 102.369 126.201 101.009 126.201C99.6489 126.201 98.5473 125.191 98.5473 123.944C98.5473 122.697 99.6489 121.688 101.009 121.688ZM101.009 120.046C98.7463 120.046 96.9062 121.794 96.9062 123.944C96.9062 126.094 98.7463 127.842 101.009 127.842C103.272 127.842 105.112 126.094 105.112 123.944C105.112 121.794 103.272 120.046 101.009 120.046Z" fill="#191D5D"/>
<path fill-rule="evenodd" clip-rule="evenodd" d="M66.7478 79.8642C63.2143 73.7633 57.477 61.6527 59.4737 54.7874C60.6156 50.861 69.8685 57.261 80.3923 66.4211C85.5989 63.7679 91.7194 62.2292 98.1376 62.2292C104.59 62.2292 110.741 63.7843 115.966 66.4634C126.509 57.2807 135.789 50.855 136.933 54.7874C138.943 61.7004 133.112 73.9318 129.585 79.9905C130.837 82.7461 131.525 85.7094 131.525 88.7957C131.525 103.468 115.982 115.362 98.1376 115.362C80.293 115.362 64.75 103.468 64.75 88.7957C64.75 85.6622 65.4589 82.6555 66.7478 79.8642Z" fill="#BEDCFC"/>
<path d="M59.4737 54.7874L60.9104 55.2053L59.4737 54.7874ZM66.7478 79.8642L68.1062 80.4914L68.4317 79.7864L68.0425 79.1143L66.7478 79.8642ZM80.3923 66.4211L79.4099 67.5497L80.1717 68.2128L81.0716 67.7543L80.3923 66.4211ZM115.966 66.4634L115.283 67.7948L116.184 68.257L116.948 67.5917L115.966 66.4634ZM136.933 54.7874L138.369 54.3696V54.3696L136.933 54.7874ZM129.585 79.9905L128.292 79.2378L127.903 79.9058L128.223 80.6095L129.585 79.9905ZM58.037 54.3696C56.8968 58.29 57.9885 63.4304 59.6247 68.1066C61.2912 72.8697 63.6553 77.5102 65.453 80.6141L68.0425 79.1143C66.3067 76.1173 64.0355 71.652 62.4492 67.1183C60.8325 62.4976 60.0539 58.1501 60.9104 55.2053L58.037 54.3696ZM81.3746 65.2925C76.0992 60.7007 71.073 56.738 67.1824 54.4125C65.2673 53.2678 63.4698 52.4217 61.9807 52.1832C61.2261 52.0624 60.3867 52.0698 59.6238 52.4342C58.799 52.8282 58.2798 53.5346 58.037 54.3696L60.9104 55.2053C60.953 55.0587 60.9728 55.1062 60.9137 55.1344C60.9116 55.1354 60.9478 55.1175 61.0474 55.1094C61.1488 55.1012 61.299 55.1046 61.5075 55.138C62.4033 55.2815 63.7909 55.8716 65.6471 56.9812C69.2995 59.1642 74.1615 62.9814 79.4099 67.5497L81.3746 65.2925ZM98.1376 60.733C91.4832 60.733 85.1299 62.3276 79.7129 65.088L81.0716 67.7543C86.0678 65.2082 91.9555 63.7254 98.1376 63.7254V60.733ZM116.648 65.132C111.213 62.3445 104.827 60.733 98.1376 60.733V63.7254C104.352 63.7254 110.27 65.224 115.283 67.7948L116.648 65.132ZM138.369 54.3696C138.126 53.5332 137.606 52.826 136.779 52.4325C136.015 52.0687 135.174 52.0625 134.418 52.1844C132.927 52.4251 131.126 53.2745 129.206 54.4234C125.306 56.7572 120.268 60.732 114.983 65.3351L116.948 67.5917C122.207 63.0121 127.081 59.1827 130.743 56.9911C132.604 55.8773 133.996 55.2837 134.895 55.1386C135.104 55.1049 135.255 55.1012 135.358 55.1093C135.458 55.1173 135.494 55.1353 135.493 55.1344C135.434 55.1063 135.453 55.0586 135.496 55.2053L138.369 54.3696ZM130.878 80.7432C132.673 77.6599 135.059 72.9999 136.747 68.2062C138.403 63.5006 139.517 58.3162 138.369 54.3696L135.496 55.2053C136.359 58.1717 135.562 62.5594 133.924 67.2125C132.317 71.7773 130.024 76.2624 128.292 79.2378L130.878 80.7432ZM133.021 88.7957C133.021 85.483 132.283 82.3094 130.947 79.3715L128.223 80.6095C129.392 83.1827 130.029 85.9358 130.029 88.7957H133.021ZM98.1376 116.858C107.382 116.858 116.057 113.78 122.448 108.757C128.838 103.735 133.021 96.6912 133.021 88.7957H130.029C130.029 95.5724 126.441 101.812 120.598 106.405C114.756 110.997 106.738 113.866 98.1376 113.866V116.858ZM63.2538 88.7957C63.2538 96.6912 67.4372 103.735 73.8274 108.757C80.2178 113.78 88.8934 116.858 98.1376 116.858V113.866C89.5372 113.866 81.519 110.997 75.6767 106.405C69.8342 101.812 66.2462 95.5724 66.2462 88.7957H63.2538ZM65.3893 79.237C64.0155 82.2123 63.2538 85.4322 63.2538 88.7957H66.2462C66.2462 85.8922 66.9023 83.0986 68.1062 80.4914L65.3893 79.237Z" fill="#4344C6"/>
<path d="M126.9 75.1998L120.66 68.9598C120.3 68.5994 120.255 68.0298 120.598 67.6529C123.035 64.9769 128.757 61.1116 131.679 59.9932C132.185 59.7995 132.706 60.1251 132.744 60.6655C133.028 64.6577 130.036 71.6668 128.546 74.9142C128.25 75.5601 127.403 75.7023 126.9 75.1998Z" fill="#D5FAFC"/>
<path d="M69.6389 75.1998L75.8788 68.9598C76.2392 68.5994 76.284 68.0298 75.9408 67.6529C73.5042 64.9769 67.782 61.1116 64.8599 59.9932C64.3539 59.7995 63.8329 60.1251 63.7946 60.6655C63.5116 64.6577 66.5031 71.6668 67.9928 74.9142C68.2891 75.5601 69.1365 75.7023 69.6389 75.1998Z" fill="#D5FAFC"/>
<path d="M101.592 91.6842C101.592 93.196 98.8893 95.9075 97.3822 95.9075C95.8751 95.9075 93.25 93.196 93.25 91.6842C93.25 90.1724 95.8751 89.6507 97.3822 89.6507C98.8893 89.6507 101.592 90.1724 101.592 91.6842Z" fill="#4748CE"/>
<path fill-rule="evenodd" clip-rule="evenodd" d="M97.2557 98.7988C97.1854 98.788 97.1198 98.8366 97.1073 98.9066C96.6716 101.355 94.6397 103.135 92.2235 103.417C89.8048 103.7 86.9648 102.482 84.9806 98.8258C84.9467 98.7633 84.8683 98.7384 84.8055 98.7717L84.6538 98.8522C84.591 98.8855 84.5676 98.9644 84.6015 99.0269C86.6542 102.811 89.6495 104.151 92.2734 103.844C94.491 103.584 96.4174 102.147 97.2223 100.079C97.2671 99.9643 97.4421 99.9606 97.4925 100.073C98.4253 102.16 100.786 103.584 103.256 103.84C104.729 103.992 106.261 103.733 107.585 102.941C108.882 102.163 109.966 100.88 110.593 98.9997C110.616 98.9322 110.578 98.8595 110.511 98.8379L110.347 98.7858C110.279 98.7642 110.207 98.8019 110.184 98.8693C109.587 100.657 108.566 101.852 107.364 102.572C106.132 103.31 104.695 103.557 103.3 103.413C100.539 103.127 98.0232 101.329 97.5745 98.9063C97.5616 98.8364 97.496 98.788 97.4258 98.7988L97.3601 98.8089C97.3471 98.8109 97.3339 98.8109 97.3209 98.8089L97.2557 98.7988Z" fill="#191D5D"/>
<path d="M92.2235 103.417L92.1401 102.704L92.2235 103.417ZM92.2734 103.844L92.19 103.13L92.2734 103.844ZM103.256 103.84L103.329 103.126V103.126L103.256 103.84ZM107.585 102.941L107.953 103.556V103.556L107.585 102.941ZM107.364 102.572L107.733 103.188L107.364 102.572ZM103.3 103.413L103.226 104.127L103.3 103.413ZM110.347 98.7858L110.565 98.1017L110.347 98.7858ZM110.184 98.8693L109.503 98.6416L110.184 98.8693ZM97.2223 100.079L97.8914 100.34L97.2223 100.079ZM97.4925 100.073L98.148 99.7803L97.4925 100.073ZM110.593 98.9997L111.274 99.2269L110.593 98.9997ZM110.511 98.8379L110.293 99.522L110.511 98.8379ZM84.6538 98.8522L84.9903 99.4864L84.6538 98.8522ZM97.3601 98.8089L97.2509 98.0992L97.3601 98.8089ZM97.3209 98.8089L97.2118 99.5185L97.3209 98.8089ZM84.8055 98.7717L85.1419 99.406L84.8055 98.7717ZM97.5745 98.9063L98.2806 98.7756L97.5745 98.9063ZM97.4258 98.7988L97.5349 99.5084L97.4258 98.7988ZM97.1073 98.9066L96.4004 98.7808L97.1073 98.9066ZM92.307 104.131C95.0167 103.813 97.3194 101.813 97.8142 99.0323L96.4004 98.7808C96.0238 100.897 94.2626 102.456 92.1401 102.704L92.307 104.131ZM84.3495 99.1683C86.4486 103.036 89.5476 104.453 92.307 104.131L92.1401 102.704C90.062 102.947 87.481 101.928 85.6117 98.4833L84.3495 99.1683ZM84.9903 99.4864L85.1419 99.406L84.469 98.1374L84.3173 98.2179L84.9903 99.4864ZM92.19 103.13C89.9073 103.398 87.1708 102.258 85.2326 98.6846L83.9703 99.3692C86.1376 103.365 89.3917 104.904 92.3569 104.557L92.19 103.13ZM96.5531 99.8189C95.8489 101.628 94.1552 102.9 92.19 103.13L92.3569 104.557C94.8267 104.268 96.986 102.666 97.8914 100.34L96.5531 99.8189ZM96.837 100.366C97.8994 102.743 100.524 104.279 103.182 104.554L103.329 103.126C101.048 102.89 98.9512 101.577 98.148 99.7803L96.837 100.366ZM103.182 104.554C104.785 104.72 106.478 104.44 107.953 103.556L107.216 102.325C106.045 103.026 104.672 103.264 103.329 103.126L103.182 104.554ZM107.953 103.556C109.409 102.685 110.597 101.258 111.274 99.2269L109.912 98.7724C109.335 100.502 108.356 101.641 107.216 102.325L107.953 103.556ZM110.729 98.1538L110.565 98.1017L110.129 99.4699L110.293 99.522L110.729 98.1538ZM109.503 98.6416C108.956 100.278 108.04 101.331 106.995 101.956L107.733 103.188C109.092 102.374 110.217 101.035 110.865 99.097L109.503 98.6416ZM106.995 101.956C105.915 102.603 104.638 102.83 103.374 102.699L103.226 104.127C104.751 104.285 106.348 104.018 107.733 103.188L106.995 101.956ZM103.374 102.699C100.813 102.434 98.6524 100.784 98.2806 98.7756L96.8685 99.037C97.394 101.875 100.265 103.821 103.226 104.127L103.374 102.699ZM97.3166 98.0891L97.2509 98.0992L97.4693 99.5185L97.5349 99.5084L97.3166 98.0891ZM97.1465 99.5085L97.2118 99.5185L97.4301 98.0992L97.3648 98.0892L97.1465 99.5085ZM110.565 98.1017C110.115 97.9583 109.648 98.21 109.503 98.6416L110.865 99.097C110.766 99.3938 110.443 99.5701 110.129 99.4699L110.565 98.1017ZM97.8914 100.34C97.7885 100.604 97.5461 100.705 97.3707 100.709C97.1958 100.713 96.9517 100.623 96.837 100.366L98.148 99.7803C97.9829 99.411 97.6261 99.2669 97.3398 99.2731C97.0531 99.2793 96.7008 99.4394 96.5531 99.8189L97.8914 100.34ZM111.274 99.2269C111.425 98.7757 111.174 98.2957 110.729 98.1538L110.293 99.522C109.983 99.4233 109.807 99.0887 109.912 98.7724L111.274 99.2269ZM84.3173 98.2179C83.8987 98.44 83.7479 98.9591 83.9703 99.3692L85.2326 98.6846C85.3873 98.9697 85.2833 99.331 84.9903 99.4864L84.3173 98.2179ZM97.2509 98.0992C97.3103 98.0901 97.3707 98.0901 97.4301 98.0992L97.2118 99.5185C97.2971 99.5317 97.3839 99.5317 97.4693 99.5185L97.2509 98.0992ZM85.6117 98.4833C85.3959 98.0858 84.8908 97.9136 84.469 98.1374L85.1419 99.406C84.8457 99.5632 84.4975 99.4409 84.3495 99.1683L85.6117 98.4833ZM98.2806 98.7756C98.1998 98.3394 97.7855 98.017 97.3166 98.0891L97.5349 99.5084C97.2065 99.559 96.9234 99.3334 96.8685 99.037L98.2806 98.7756ZM97.8142 99.0323C97.7606 99.3335 97.4744 99.5589 97.1465 99.5085L97.3648 98.0892C96.8964 98.0171 96.4789 98.3396 96.4004 98.7808L97.8142 99.0323Z" fill="#191D5D"/>
<path d="M112.748 72.1802C111.871 66.8082 113.314 54.0514 126.102 46" stroke="#4344C6" stroke-width="1.57871" stroke-linecap="round"/>
<path d="M107.484 71.72C106.388 68.2776 104.853 59.8797 107.484 53.828" stroke="#4344C6" stroke-width="1.57871" stroke-linecap="round"/>
<path d="M84.2048 72.1802C85.0819 66.8082 83.6391 54.0514 70.8516 46" stroke="#4344C6" stroke-width="1.57871" stroke-linecap="round"/>
<path d="M89.4688 71.72C90.5651 68.2776 92.0999 59.8797 89.4688 53.828" stroke="#4344C6" stroke-width="1.57871" stroke-linecap="round"/>
<path d="M118.336 98.7568C121.662 98.7568 124.359 97.2158 124.359 95.3149C124.359 93.414 121.662 91.873 118.336 91.873C115.009 91.873 112.312 93.414 112.312 95.3149C112.312 97.2158 115.009 98.7568 118.336 98.7568Z" fill="#D5FAFC"/>
<path d="M119.969 94.54C126.838 90.5268 135.721 86.2038 150.844 93.3075" stroke="#4344C6" stroke-width="1.57871" stroke-linecap="round"/>
<path d="M122.12 97.3369C126.451 96.1864 134.125 96.1344 140.07 101.002" stroke="#4344C6" stroke-width="1.57871" stroke-linecap="round"/>
<path d="M76.8359 98.7568C80.1625 98.7568 82.8593 97.2158 82.8593 95.3149C82.8593 93.414 80.1625 91.873 76.8359 91.873C73.5093 91.873 70.8125 93.414 70.8125 95.3149C70.8125 97.2158 73.5093 98.7568 76.8359 98.7568Z" fill="#D5FAFC"/>
<path d="M75.8746 94.54C69.0053 90.5268 60.1223 86.2038 45 93.3075" stroke="#4344C6" stroke-width="1.57871" stroke-linecap="round"/>
<path d="M73.7238 97.3368C69.3923 96.1863 61.7188 96.1344 55.7734 101.002" stroke="#4344C6" stroke-width="1.57871" stroke-linecap="round"/>
<path d="M84.3778 89.3899C89.022 89.3899 92.7868 86.6133 92.7868 83.1883C92.7868 79.7632 89.022 76.9866 84.3778 76.9866C79.7336 76.9866 75.9688 79.7632 75.9688 83.1883C75.9688 86.6133 79.7336 89.3899 84.3778 89.3899Z" fill="#D5FAFC" stroke="#191D5D" stroke-width="1.68181" stroke-miterlimit="10"/>
<path d="M87.0113 88.1286C89.6237 88.1286 91.7414 86.0109 91.7414 83.3985C91.7414 80.7862 89.6237 78.6684 87.0113 78.6684C84.399 78.6684 82.2812 80.7862 82.2812 83.3985C82.2812 86.0109 84.399 88.1286 87.0113 88.1286Z" fill="#191D5D" stroke="#191D5D" stroke-width="1.68181" stroke-miterlimit="10"/>
<path d="M81.3182 83.7139C82.3051 83.7139 83.1051 82.9139 83.1051 81.927C83.1051 80.9401 82.3051 80.14 81.3182 80.14C80.3313 80.14 79.5312 80.9401 79.5312 81.927C79.5312 82.9139 80.3313 83.7139 81.3182 83.7139Z" fill="white"/>
<path d="M111.065 89.3899C115.709 89.3899 119.474 86.6133 119.474 83.1882C119.474 79.7631 115.709 76.9866 111.065 76.9866C106.421 76.9866 102.656 79.7631 102.656 83.1882C102.656 86.6133 106.421 89.3899 111.065 89.3899Z" fill="#D5FAFC" stroke="#191D5D" stroke-width="1.68181" stroke-miterlimit="10"/>
<path d="M113.699 88.1286C116.311 88.1286 118.429 86.0108 118.429 83.3985C118.429 80.7861 116.311 78.6684 113.699 78.6684C111.086 78.6684 108.969 80.7861 108.969 83.3985C108.969 86.0108 111.086 88.1286 113.699 88.1286Z" fill="#191D5D" stroke="#191D5D" stroke-width="1.68181" stroke-miterlimit="10"/>
<path d="M108.006 83.7139C108.993 83.7139 109.793 82.9138 109.793 81.9269C109.793 80.94 108.993 80.14 108.006 80.14C107.019 80.14 106.219 80.94 106.219 81.9269C106.219 82.9138 107.019 83.7139 108.006 83.7139Z" fill="white"/>
<path d="M99.0673 148.857C91.7009 152.211 81.4745 150.891 75.4517 145.894C66.6841 138.62 68.4134 127.177 68.6822 125.585C68.836 124.672 70.7828 114.512 79.5544 110.2C83.3884 108.315 90.7097 106.477 93.2985 109.995C95.1529 112.514 94.2298 117.304 91.6574 119.431C89.8522 120.925 87.2388 121.103 84.6828 121.277C83.5053 121.357 82.5166 121.325 81.8109 121.277C81.2693 122.118 79.8436 124.578 80.1698 127.842C80.2724 128.872 80.5493 131.633 82.8366 133.586C84.1392 134.697 85.2773 135.275 86.0527 135.423" fill="#BEDCFC"/>
<path d="M99.0673 148.857C91.7009 152.211 81.4745 150.891 75.4517 145.894C66.6841 138.62 68.4134 127.177 68.6822 125.585C68.836 124.672 70.7828 114.512 79.5544 110.2C83.3884 108.315 90.7097 106.477 93.2985 109.995C95.1529 112.514 94.2298 117.304 91.6574 119.431C89.8522 120.925 87.2388 121.103 84.6828 121.277C83.5053 121.357 82.5166 121.325 81.8109 121.277C81.2693 122.118 79.8436 124.578 80.1698 127.842C80.2724 128.872 80.5493 131.633 82.8366 133.586C84.1392 134.697 85.2773 135.275 86.0527 135.423" stroke="#4344C6" stroke-width="2.72042" stroke-miterlimit="10" stroke-linecap="round" stroke-linejoin="round"/>
<path d="M86.1719 134.583C87.5914 139.002 94.8786 145.575 99.1864 148.857" stroke="#4344C6" stroke-width="1.64109" stroke-miterlimit="10" stroke-linecap="round" stroke-linejoin="round"/>
</svg>
