<?xml version="1.0" encoding="UTF-8"?> <svg xmlns="http://www.w3.org/2000/svg" width="1179" height="246" viewBox="0 0 1179 246" fill="none"> <g filter="url(#filter0_d)"> <path fill-rule="evenodd" clip-rule="evenodd" d="M110.31 64.7151C99.4548 56.8692 84.9451 52.9462 66.7811 52.9462H15.3524C14.1701 52.9462 13.1491 53.3761 12.2893 54.2359C11.4294 55.0958 10.9995 56.1168 10.9995 57.2991V161.446C10.9995 162.629 11.4294 163.65 12.2893 164.509C13.1491 165.369 14.1701 165.799 15.3524 165.799H66.7811C85.16 165.799 99.7234 161.984 110.471 154.353C121.327 146.614 126.754 134.362 126.754 117.595V101.151C126.754 99.2525 126.681 97.4118 126.535 95.6283H83.8357C83.9663 96.4574 84.0315 97.3309 84.0315 98.2486V120.497C84.0315 124.903 82.5268 128.343 79.5174 130.815C76.6155 133.179 72.6387 134.362 67.5872 134.362H52.9163V95.6283H11.2197V83.835H124.241C121.631 75.867 116.987 69.4937 110.31 64.7151ZM150.229 95.6283V161.446C150.229 162.629 150.659 163.65 151.519 164.509C152.379 165.369 153.4 165.799 154.582 165.799H256.472C257.655 165.799 258.676 165.369 259.536 164.509C260.395 163.65 260.825 162.629 260.825 161.446V138.714C260.825 137.532 260.395 136.511 259.536 135.651C258.676 134.791 257.655 134.362 256.472 134.362H192.146V124.205H245.993C247.175 124.205 248.196 123.775 249.056 122.915C249.916 122.055 250.346 121.034 250.346 119.852V98.8935C250.346 97.7112 249.916 96.6901 249.056 95.8303C248.986 95.7601 248.915 95.6928 248.842 95.6283H150.229ZM256.968 83.835H150.229V57.2991C150.229 56.1168 150.659 55.0958 151.519 54.2359C152.379 53.3761 153.4 52.9462 154.582 52.9462H254.86C256.042 52.9462 257.064 53.3761 257.923 54.2359C258.783 55.0958 259.213 56.1168 259.213 57.2991V80.0309C259.213 81.2132 258.783 82.2342 257.923 83.094C257.624 83.393 257.306 83.64 256.968 83.835ZM279.302 95.6283V161.446C279.302 162.629 279.732 163.65 280.592 164.509C281.452 165.369 282.473 165.799 283.655 165.799H312.836C314.018 165.799 315.039 165.369 315.899 164.509C316.759 163.65 317.189 162.629 317.189 161.446V111.469L328.958 134.684C329.28 135.436 330.033 136.296 331.215 137.263C332.397 138.231 333.902 138.714 335.729 138.714H346.692C348.519 138.714 350.024 138.231 351.206 137.263C352.388 136.296 353.141 135.436 353.463 134.684L365.232 111.469V161.446C365.232 162.629 365.662 163.65 366.522 164.509C367.381 165.369 368.403 165.799 369.585 165.799H398.765C399.948 165.799 400.969 165.369 401.829 164.509C402.688 163.65 403.118 162.629 403.118 161.446V95.6283H341.409L341.21 95.9915L341.012 95.6283H279.302ZM334.575 83.835H279.302V57.2991C279.302 56.1168 279.732 55.0958 280.592 54.2359C281.452 53.3761 282.473 52.9462 283.655 52.9462H313.158C316.168 52.9462 318.479 54.3971 320.091 57.2991L334.575 83.835ZM347.846 83.835H403.118V57.2991C403.118 56.1168 402.688 55.0958 401.829 54.2359C400.969 53.3761 399.948 52.9462 398.765 52.9462H369.262C366.253 52.9462 363.942 54.3971 362.33 57.2991L347.846 83.835ZM420.144 95.6283V161.446C420.144 162.736 420.574 163.811 421.434 164.671C422.294 165.423 423.315 165.799 424.497 165.799H457.708C458.891 165.799 459.912 165.369 460.772 164.509C461.631 163.65 462.061 162.629 462.061 161.446V127.107H494.305V161.446C494.305 162.629 494.735 163.65 495.595 164.509C496.455 165.369 497.476 165.799 498.658 165.799H531.869C533.051 165.799 534.072 165.369 534.932 164.509C535.792 163.65 536.222 162.629 536.222 161.446V95.6283H420.144ZM573.229 95.6283L550.83 161.285L550.668 162.252C550.668 163.22 550.991 164.079 551.636 164.832C552.388 165.477 553.248 165.799 554.215 165.799H584.686C588.125 165.799 590.543 163.972 591.94 160.318L595.971 149.032H635.308L639.339 160.318C640.736 163.972 643.154 165.799 646.594 165.799H677.064C678.031 165.799 678.837 165.477 679.482 164.832C680.234 164.079 680.611 163.22 680.611 162.252L680.449 161.285L658.05 95.6283H619.588L627.086 117.595H604.193L611.691 95.6283H573.229ZM654.027 83.835H577.252L585.975 58.2664C586.405 56.8692 587.211 55.6331 588.394 54.5584C589.576 53.4836 591.188 52.9462 593.23 52.9462H638.049C640.091 52.9462 641.703 53.4836 642.885 54.5584C644.068 55.6331 644.874 56.8692 645.304 58.2664L654.027 83.835ZM693.907 95.6283C693.814 97.0068 693.768 98.4176 693.768 99.8608V118.885C693.768 129.74 696.401 138.822 701.667 146.13C706.934 153.332 714.027 158.706 722.948 162.252C731.976 165.692 742.241 167.411 753.741 167.411C766.638 167.411 777.547 165.369 786.468 161.285C795.496 157.093 802.214 151.881 806.621 145.647C811.027 139.306 813.231 132.857 813.231 126.301C813.231 125.333 812.854 124.527 812.102 123.882C811.457 123.13 810.651 122.754 809.684 122.754H774.86C772.496 122.754 770.615 124.151 769.218 126.945C767.713 129.955 765.886 132.212 763.736 133.717C761.587 135.221 758.255 135.974 753.741 135.974C748.689 135.974 744.659 134.791 741.649 132.427C738.748 130.062 737.297 126.677 737.297 122.27V96.4752C737.297 96.1886 737.303 95.9063 737.315 95.6283H693.907ZM746.361 83.835H696.083C697.391 79.7645 699.252 76.0782 701.667 72.7761C706.934 65.4675 714.027 60.0935 722.948 56.6542C731.976 53.1074 742.241 51.334 753.741 51.334C766.638 51.334 777.547 53.4298 786.468 57.6215C795.496 61.7057 802.214 66.9184 806.621 73.2597C809.077 76.7347 810.849 80.2598 811.936 83.835H761.365C759.381 83.1261 756.839 82.7716 753.741 82.7716C750.975 82.7716 748.515 83.1261 746.361 83.835ZM835.416 95.6283V161.446C835.416 162.629 835.846 163.65 836.705 164.509C837.565 165.369 838.586 165.799 839.769 165.799H872.98C874.162 165.799 875.183 165.369 876.043 164.509C876.903 163.65 877.333 162.629 877.333 161.446V128.558L905.385 163.22C906.782 164.939 908.716 165.799 911.188 165.799H952.783C953.75 165.799 954.556 165.477 955.201 164.832C955.953 164.079 956.33 163.22 956.33 162.252C956.33 161.5 956.115 160.801 955.685 160.157L912.156 105.342L920.122 95.6283H835.416ZM929.793 83.835L950.365 58.75C950.902 58.1052 951.171 57.3528 951.171 56.493C951.171 55.5257 950.794 54.7196 950.042 54.0747C949.397 53.3223 948.591 52.9462 947.624 52.9462H908.77C906.406 52.9462 904.417 53.8597 902.805 55.6869L880.343 83.835H929.793ZM877.333 83.835H835.416V57.2991C835.416 56.1168 835.846 55.0958 836.705 54.2359C837.565 53.3761 838.586 52.9462 839.769 52.9462H872.98C874.162 52.9462 875.183 53.3761 876.043 54.2359C876.903 55.0958 877.333 56.1168 877.333 57.2991V83.835ZM536.222 83.835H494.305V57.2991C494.305 56.1168 494.735 55.0958 495.595 54.2359C496.455 53.3761 497.476 52.9462 498.658 52.9462H531.869C533.051 52.9462 534.072 53.3761 534.932 54.2359C535.792 55.0958 536.222 56.1168 536.222 57.2991V83.835ZM462.061 83.835H420.144V57.2991C420.144 56.1168 420.574 55.0958 421.434 54.2359C422.294 53.3761 423.315 52.9462 424.497 52.9462H457.708C458.891 52.9462 459.912 53.3761 460.772 54.2359C461.631 55.0958 462.061 56.1168 462.061 57.2991V83.835Z" fill="white"></path> <path fill-rule="evenodd" clip-rule="evenodd" d="M11 77.7894H118.196C116.738 73.337 114.644 69.3826 111.916 65.9261C117.737 70.5524 121.846 76.5221 124.242 83.8351H11.2202V89.5826H11V77.7894ZM11 159.754V161.446C11 162.629 11.4299 163.65 12.2897 164.51C13.1496 165.369 14.1706 165.799 15.3529 165.799H66.7816C85.1605 165.799 99.7239 161.984 110.472 154.353C121.327 146.614 126.755 134.362 126.755 117.595V101.151C126.755 99.2526 126.682 97.4119 126.536 95.6284H120.71V111.549C120.71 128.316 115.282 140.568 104.427 148.307C93.6789 155.938 79.1155 159.754 60.7366 159.754H11ZM52.9168 128.316V95.6284H46.8718V128.316H52.9168ZM150.23 159.754V161.446C150.23 162.629 150.66 163.65 151.52 164.51C152.379 165.369 153.4 165.799 154.583 165.799H256.473C257.655 165.799 258.676 165.369 259.536 164.51C260.396 163.65 260.826 162.629 260.826 161.446V138.715C260.826 137.532 260.396 136.511 259.536 135.651C258.676 134.792 257.655 134.362 256.473 134.362H254.781V155.401C254.781 156.583 254.351 157.604 253.491 158.464C252.631 159.324 251.61 159.754 250.428 159.754H150.23ZM192.147 128.316H186.102V118.159H239.949C241.131 118.159 242.152 117.729 243.012 116.869C243.872 116.01 244.301 114.988 244.301 113.806V95.6284H248.843C248.915 95.6929 248.987 95.7602 249.057 95.8304C249.917 96.6903 250.347 97.7113 250.347 98.8936V119.852C250.347 121.034 249.917 122.055 249.057 122.915C248.197 123.775 247.176 124.205 245.994 124.205H192.147V128.316ZM150.23 77.7894H250.923C251.261 77.5943 251.58 77.3474 251.879 77.0484C252.739 76.1886 253.169 75.1675 253.169 73.9852V52.9463H254.861C256.043 52.9463 257.064 53.3762 257.924 54.236C258.784 55.0959 259.214 56.1169 259.214 57.2992V80.031C259.214 81.2133 258.784 82.2343 257.924 83.0942C257.625 83.3931 257.306 83.6401 256.968 83.8351H150.23V77.7894ZM279.303 159.754V161.446C279.303 162.629 279.733 163.65 280.593 164.51C281.452 165.369 282.474 165.799 283.656 165.799H312.836C314.019 165.799 315.04 165.369 315.9 164.51C316.759 163.65 317.189 162.629 317.189 161.446V117.347L311.144 105.423V155.401C311.144 156.583 310.714 157.604 309.854 158.464C308.995 159.324 307.974 159.754 306.791 159.754H279.303ZM327.842 132.482L328.958 134.684C329.281 135.436 330.033 136.296 331.215 137.264C332.398 138.231 333.902 138.715 335.729 138.715H346.692C348.519 138.715 350.024 138.231 351.206 137.264C352.389 136.296 353.141 135.436 353.463 134.684L359.187 123.393V105.423L347.418 128.638C347.096 129.391 346.344 130.251 345.161 131.218C343.979 132.185 342.474 132.669 340.647 132.669H329.684C329.029 132.669 328.414 132.607 327.842 132.482ZM365.232 159.754H392.721C393.903 159.754 394.924 159.324 395.784 158.464C396.644 157.604 397.074 156.583 397.074 155.401V95.6284H403.119V161.446C403.119 162.629 402.689 163.65 401.829 164.51C400.969 165.369 399.948 165.799 398.766 165.799H369.585C368.403 165.799 367.382 165.369 366.522 164.51C365.662 163.65 365.232 162.629 365.232 161.446V159.754ZM279.303 77.7894H328.53L315.091 53.1684C317.177 53.6759 318.843 55.0528 320.091 57.2992L334.575 83.8351H279.303V77.7894ZM351.146 77.7894H397.074V52.9463H398.766C399.948 52.9463 400.969 53.3762 401.829 54.236C402.689 55.0959 403.119 56.1169 403.119 57.2992V83.8351H347.846L351.146 77.7894ZM420.145 159.754V161.446C420.145 162.736 420.575 163.811 421.435 164.671C422.295 165.423 423.316 165.799 424.498 165.799H457.709C458.891 165.799 459.912 165.369 460.772 164.51C461.632 163.65 462.062 162.629 462.062 161.446V127.107H488.26V121.061H456.017V155.401C456.017 156.583 455.587 157.604 454.727 158.464C453.867 159.324 452.846 159.754 451.664 159.754H420.145ZM494.305 159.754H525.824C527.007 159.754 528.028 159.324 528.888 158.464C529.747 157.604 530.177 156.583 530.177 155.401V95.6284H536.222V161.446C536.222 162.629 535.792 163.65 534.933 164.51C534.073 165.369 533.052 165.799 531.869 165.799H498.658C497.476 165.799 496.455 165.369 495.595 164.51C494.735 163.65 494.305 162.629 494.305 161.446V159.754ZM551.353 159.754L550.83 161.285L550.669 162.252C550.669 163.22 550.991 164.08 551.636 164.832C552.389 165.477 553.248 165.799 554.216 165.799H584.686C588.125 165.799 590.544 163.972 591.941 160.318L595.971 149.033H631.423L629.264 142.987H589.926L585.896 154.272C584.499 157.926 582.08 159.754 578.641 159.754H551.353ZM639.095 159.634L639.339 160.318C640.736 163.972 643.155 165.799 646.594 165.799H677.064C678.032 165.799 678.838 165.477 679.483 164.832C680.235 164.08 680.611 163.22 680.611 162.252L680.45 161.285L658.051 95.6284H654.068L674.405 155.239L674.566 156.207C674.566 157.174 674.19 158.034 673.438 158.786C672.793 159.431 671.987 159.754 671.019 159.754H640.549C640.042 159.754 639.558 159.714 639.095 159.634ZM606.257 111.549H598.148L603.583 95.6284H611.692L606.257 111.549ZM579.315 77.7894H647.982L639.543 53.0535C640.894 53.2592 642.009 53.7608 642.886 54.5585C644.068 55.6333 644.874 56.8693 645.304 58.2665L654.027 83.8351H577.253L579.315 77.7894ZM703.353 148.297C708.414 154.419 714.946 159.071 722.949 162.252C731.977 165.692 742.241 167.411 753.741 167.411C766.639 167.411 777.548 165.369 786.469 161.285C795.497 157.093 802.214 151.881 806.621 145.647C811.028 139.306 813.231 132.857 813.231 126.301C813.231 125.333 812.855 124.527 812.102 123.882C811.458 123.13 810.651 122.754 809.684 122.754H807.079C806.589 128.452 804.422 134.067 800.576 139.601C796.169 145.835 789.452 151.048 780.424 155.239C771.503 159.324 760.594 161.366 747.696 161.366C736.196 161.366 725.932 159.646 716.904 156.207C711.785 154.172 707.268 151.535 703.353 148.297ZM738.375 128.09C737.371 127.613 736.448 127.044 735.605 126.381C732.703 124.017 731.252 120.631 731.252 116.225V95.6284H737.315C737.303 95.9064 737.297 96.1887 737.297 96.4753V122.27C737.297 124.463 737.656 126.403 738.375 128.09ZM698.577 77.7894H740.317C742.47 77.0804 744.93 76.726 747.696 76.726C750.795 76.726 753.336 77.0804 755.321 77.7894H805.891C804.804 74.2142 803.032 70.6891 800.576 67.2141C800.115 66.5509 799.629 65.9 799.118 65.2616C802.103 67.6912 804.604 70.3573 806.621 73.2598C809.077 76.7348 810.849 80.2599 811.936 83.8351H761.366C759.381 83.1262 756.84 82.7717 753.741 82.7717C750.975 82.7717 748.516 83.1262 746.362 83.8351H696.084C696.765 81.7157 697.596 79.7005 698.577 77.7894ZM835.416 159.754V161.446C835.416 162.629 835.846 163.65 836.706 164.51C837.566 165.369 838.587 165.799 839.769 165.799H872.98C874.162 165.799 875.183 165.369 876.043 164.51C876.903 163.65 877.333 162.629 877.333 161.446V129.981L871.288 122.512V155.401C871.288 156.583 870.858 157.604 869.998 158.464C869.138 159.324 868.117 159.754 866.935 159.754H835.416ZM902.168 159.245C903.054 159.584 904.046 159.754 905.144 159.754H946.738C947.706 159.754 948.512 159.431 949.156 158.786C949.909 158.034 950.285 157.174 950.285 156.207C950.285 155.454 950.07 154.756 949.64 154.111L906.111 99.2966L909.119 95.6284H920.122L912.156 105.342L955.685 160.157C956.115 160.801 956.33 161.5 956.33 162.252C956.33 163.22 955.954 164.08 955.202 164.832C954.557 165.477 953.751 165.799 952.783 165.799H911.189C908.717 165.799 906.782 164.939 905.385 163.22L902.168 159.245ZM944.122 52.9463L923.749 77.7894H885.168L880.344 83.8351H929.794L950.365 58.7502C950.902 58.1053 951.171 57.3529 951.171 56.4931C951.171 55.5258 950.795 54.7197 950.043 54.0748C949.398 53.3225 948.592 52.9463 947.624 52.9463H944.122ZM877.333 73.9871L874.299 77.7894H877.333V83.8351H835.416V77.7894H871.288V52.9463H872.98C874.162 52.9463 875.183 53.3762 876.043 54.236C876.903 55.0959 877.333 56.1169 877.333 57.2992V73.9871ZM494.305 77.7894H530.177V52.9463H531.869C533.052 52.9463 534.073 53.3762 534.933 54.236C535.792 55.0959 536.222 56.1169 536.222 57.2992V83.8351H494.305V77.7894ZM420.145 77.7894H456.017V52.9463H457.709C458.891 52.9463 459.912 53.3762 460.772 54.236C461.632 55.0959 462.062 56.1169 462.062 57.2992V83.8351H420.145V77.7894Z" fill="#18E0FC"></path> </g> <g filter="url(#filter1_d)"> <path fill-rule="evenodd" clip-rule="evenodd" d="M1051.8 9.48942C1035.2 12.0452 1025.73 14.9219 1012.35 21.4664C1000.01 27.5001 997.476 31.0963 998.443 41.1716C999.269 49.7782 1004.14 57.1046 1011.04 60.1011C1014.82 61.7427 1015.99 61.5792 1019.58 58.8941C1021.87 57.184 1025.93 52.0646 1028.59 47.5152C1034.65 37.1907 1042.24 33.0462 1062.88 28.7974C1081.48 24.9676 1088.89 24.9676 1097.32 28.7943C1103.44 31.5744 1103.93 32.2426 1103.87 37.7155C1103.83 40.9691 1102.61 45.8066 1101.14 48.4637C1097.27 55.4957 1075.61 74.1916 1047.13 95.0727C1033.43 105.114 1019.27 116.046 1015.65 119.365C1012.03 122.684 1008.41 125.4 1007.6 125.4C1006.8 125.4 1002.4 128.613 997.842 132.541C993.277 136.469 984.356 142.551 978.017 146.055C971.677 149.558 963.623 155.532 960.12 159.328C956.551 163.194 949.64 168.176 944.41 170.652C939.274 173.083 931.921 176.782 928.069 178.873C924.217 180.963 917.564 184.364 913.284 186.433C909.004 188.499 901.789 192.561 897.251 195.458C889.818 200.202 887.653 200.785 875.462 201.324C858.576 202.071 853.366 203.881 853.366 208.997C853.366 214.073 860.441 222.75 868.428 227.467C876.854 232.444 878.489 232.331 888.957 226.05C904.1 216.964 910.951 215.67 967.755 211.156C1040.53 205.373 1065.76 204.389 1117.55 205.305C1145.16 205.794 1167.74 205.686 1167.74 205.068C1167.74 203.806 1165.99 203.582 1148.29 202.573C1141.44 202.183 1126.73 201.162 1115.61 200.303C1082.8 197.773 990.929 196.65 950.636 198.287C930.092 199.121 912.959 199.5 912.56 199.128C909.798 196.545 921.176 188.129 958.484 165.162C987.444 147.334 1091.88 77.5371 1104.45 67.6066C1122.33 53.485 1127.17 38.7217 1118.05 26.1155C1105.34 8.56116 1087.27 4.02735 1051.8 9.48942Z" fill="#18E0FC"></path> </g> <defs> <filter id="filter0_d" x="-0.000488281" y="44.334" width="967.331" height="138.077" filterUnits="userSpaceOnUse" color-interpolation-filters="sRGB"> <feFlood flood-opacity="0" result="BackgroundImageFix"></feFlood> <feColorMatrix in="SourceAlpha" type="matrix" values="0 0 0 0 0 0 0 0 0 0 0 0 0 0 0 0 0 0 127 0"></feColorMatrix> <feOffset dy="4"></feOffset> <feGaussianBlur stdDeviation="5.5"></feGaussianBlur> <feColorMatrix type="matrix" values="0 0 0 0 0 0 0 0 0 0 0 0 0 0 0 0 0 0 0.1 0"></feColorMatrix> <feBlend mode="normal" in2="BackgroundImageFix" result="effect1_dropShadow"></feBlend> <feBlend mode="normal" in="SourceGraphic" in2="effect1_dropShadow" result="shape"></feBlend> </filter> <filter id="filter1_d" x="842.366" y="0.309082" width="336.376" height="245.691" filterUnits="userSpaceOnUse" color-interpolation-filters="sRGB"> <feFlood flood-opacity="0" result="BackgroundImageFix"></feFlood> <feColorMatrix in="SourceAlpha" type="matrix" values="0 0 0 0 0 0 0 0 0 0 0 0 0 0 0 0 0 0 127 0"></feColorMatrix> <feOffset dy="4"></feOffset> <feGaussianBlur stdDeviation="5.5"></feGaussianBlur> <feColorMatrix type="matrix" values="0 0 0 0 0 0 0 0 0 0 0 0 0 0 0 0 0 0 0.1 0"></feColorMatrix> <feBlend mode="normal" in2="BackgroundImageFix" result="effect1_dropShadow"></feBlend> <feBlend mode="normal" in="SourceGraphic" in2="effect1_dropShadow" result="shape"></feBlend> </filter> </defs> </svg> 