<?xml version="1.0" encoding="UTF-8"?> <svg xmlns="http://www.w3.org/2000/svg" width="414" height="204" viewBox="0 0 414 204" fill="none"> <path d="M48 156V92L92 48L112 68V48H113.5H127.5H129V85L136 92V156H104.838H99V119.956C102.608 117.646 105 113.603 105 109C105 101.82 99.1797 96 92 96C84.8203 96 79 101.82 79 109C79 113.603 81.3916 117.646 85 119.956V156H79.1621H48Z" fill="#F4440D"></path> <path d="M166.897 105.466C166.697 105.466 166.522 105.391 166.372 105.242C166.272 105.092 166.222 104.892 166.222 104.642V57.2056C166.222 56.9558 166.272 56.756 166.372 56.6061C166.522 56.4562 166.697 56.3813 166.897 56.3813H175.964C180.611 56.3813 184.008 57.6802 186.156 60.2781C188.354 62.826 189.453 66.7728 189.453 72.1185C189.453 77.2143 188.329 81.1112 186.081 83.809C183.833 86.5068 180.586 87.8557 176.339 87.8557H174.016V104.642C174.016 104.892 173.941 105.092 173.791 105.242C173.691 105.391 173.541 105.466 173.342 105.466H166.897ZM175.964 80.6615C177.913 80.6615 179.337 79.9871 180.236 78.6382C181.185 77.2893 181.66 75.166 181.66 72.2684C181.66 69.1209 181.235 66.8727 180.386 65.5238C179.537 64.1749 178.138 63.5005 176.189 63.5005H174.016V80.6615H175.964Z" fill="white"></path> <path d="M197.247 105.466C197.047 105.466 196.872 105.391 196.723 105.242C196.623 105.092 196.573 104.892 196.573 104.642V57.2056C196.573 56.9558 196.623 56.756 196.723 56.6061C196.872 56.4562 197.047 56.3813 197.247 56.3813H207.214C211.91 56.3813 215.332 57.5303 217.481 59.8285C219.679 62.0766 220.778 65.5988 220.778 70.3949C220.778 77.4392 218.855 81.9105 215.008 83.809V83.8839L222.577 104.417C222.626 104.517 222.651 104.667 222.651 104.867C222.651 105.267 222.452 105.466 222.052 105.466H215.083C214.683 105.466 214.408 105.267 214.258 104.867L207.589 85.3827H204.366V104.642C204.366 104.892 204.291 105.092 204.142 105.242C204.042 105.391 203.892 105.466 203.692 105.466H197.247ZM207.214 78.6382C209.262 78.6382 210.736 78.0137 211.635 76.7647C212.535 75.5157 212.984 73.5673 212.984 70.9195C212.984 68.2716 212.51 66.3981 211.56 65.299C210.661 64.15 209.212 63.5754 207.214 63.5754H204.366V78.6382H207.214Z" fill="white"></path> <path d="M229.866 105.466C229.666 105.466 229.491 105.391 229.342 105.242C229.242 105.092 229.192 104.892 229.192 104.642V57.2056C229.192 56.9558 229.242 56.756 229.342 56.6061C229.491 56.4562 229.666 56.3813 229.866 56.3813H236.311C236.511 56.3813 236.661 56.4562 236.76 56.6061C236.91 56.756 236.985 56.9558 236.985 57.2056V104.642C236.985 104.892 236.91 105.092 236.76 105.242C236.661 105.391 236.511 105.466 236.311 105.466H229.866Z" fill="white"></path> <path d="M253.204 105.466C252.855 105.466 252.63 105.242 252.53 104.792L243.088 57.3555V57.0557C243.088 56.6061 243.262 56.3813 243.612 56.3813H250.656C251.056 56.3813 251.306 56.5811 251.406 56.9808L256.202 86.6567C256.751 89.8541 257.226 93.4262 257.626 97.373H257.776C258.125 94.0756 258.625 90.5035 259.274 86.6567L263.996 57.0557C264.096 56.6061 264.345 56.3813 264.745 56.3813H271.714C272.264 56.3813 272.464 56.681 272.314 57.2805L262.946 104.792C262.896 105.242 262.672 105.466 262.272 105.466H253.204Z" fill="white"></path> <path d="M302.734 104.867C302.734 105.267 302.534 105.466 302.134 105.466H295.09C294.69 105.466 294.441 105.267 294.341 104.867L292.692 94.7501H282.875L281.151 104.792C281.101 105.242 280.852 105.466 280.402 105.466H273.508C273.058 105.466 272.883 105.167 272.983 104.567L282.725 57.0557C282.875 56.6061 283.175 56.3813 283.624 56.3813H292.018C292.517 56.3813 292.792 56.6061 292.842 57.0557L302.659 104.492L302.734 104.867ZM291.568 88.0056L289.395 74.8912C288.745 71.1443 288.221 67.6971 287.821 64.5496H287.671C287.122 68.9461 286.622 72.3933 286.172 74.8912L283.999 88.0056H291.568Z" fill="white"></path> <path d="M320.323 105.916C311.331 105.916 306.834 100.545 306.834 89.8041V72.0435C306.834 66.6979 307.983 62.6762 310.282 59.9783C312.58 57.2805 315.927 55.9316 320.323 55.9316C324.47 55.9316 327.692 57.1806 329.991 59.6786C332.289 62.1266 333.438 65.4989 333.438 69.7954C333.438 70.8445 333.363 71.8937 333.213 72.9428C333.113 73.4924 332.888 73.7671 332.539 73.7671H326.094C325.544 73.7671 325.319 73.4674 325.419 72.8679C325.469 72.3683 325.494 71.6439 325.494 70.6946C325.494 65.6487 323.771 63.1258 320.323 63.1258C318.375 63.1258 316.926 63.8502 315.977 65.299C315.078 66.7478 314.628 69.0959 314.628 72.3433V89.4294C314.628 92.7267 315.078 95.0998 315.977 96.5486C316.926 97.9975 318.375 98.7219 320.323 98.7219C323.821 98.7219 325.569 96.1739 325.569 91.0781C325.569 90.1788 325.544 89.4794 325.494 88.9798C325.494 88.3803 325.719 88.0805 326.169 88.0805H332.464C332.963 88.0805 333.238 88.3803 333.288 88.9798C333.338 89.4794 333.363 90.2288 333.363 91.228C333.363 95.8742 332.239 99.4962 329.991 102.094C327.792 104.642 324.57 105.916 320.323 105.916Z" fill="white"></path> <path d="M348.512 105.466C348.312 105.466 348.138 105.391 347.988 105.242C347.888 105.092 347.838 104.892 347.838 104.642V88.6051L337.721 57.4304C337.671 57.3305 337.646 57.1806 337.646 56.9808C337.646 56.5811 337.821 56.3813 338.171 56.3813H345.44C345.889 56.3813 346.139 56.5811 346.189 56.9808L349.711 71.444C350.011 72.6431 350.211 73.5423 350.311 74.1418C350.561 75.191 351.035 77.2393 351.735 80.2868H351.81C352.159 78.5383 352.859 75.5657 353.908 71.3691L357.43 56.9808C357.48 56.5811 357.705 56.3813 358.104 56.3813H365.224C365.473 56.3813 365.648 56.4812 365.748 56.681C365.848 56.8809 365.848 57.1307 365.748 57.4304L355.631 88.5301V104.642C355.631 104.892 355.582 105.092 355.482 105.242C355.382 105.391 355.232 105.466 355.032 105.466H348.512Z" fill="white"></path> <path d="M180.424 156.114C180.424 156.349 180.307 156.466 180.072 156.466H175.936C175.701 156.466 175.555 156.349 175.496 156.114L174.528 150.174H168.764L167.752 156.07C167.723 156.334 167.576 156.466 167.312 156.466H163.264C163 156.466 162.897 156.29 162.956 155.938L168.676 128.042C168.764 127.778 168.94 127.646 169.204 127.646H174.132C174.425 127.646 174.587 127.778 174.616 128.042L180.38 155.894L180.424 156.114ZM173.868 146.214L172.592 138.514C172.211 136.314 171.903 134.29 171.668 132.442H171.58C171.257 135.024 170.964 137.048 170.7 138.514L169.424 146.214H173.868Z" fill="white"></path> <path d="M190.752 156.73C185.472 156.73 182.832 153.577 182.832 147.27V136.842C182.832 133.704 183.506 131.342 184.856 129.758C186.205 128.174 188.17 127.382 190.752 127.382C193.186 127.382 195.078 128.116 196.428 129.582C197.777 131.02 198.452 133 198.452 135.522C198.452 136.138 198.408 136.754 198.32 137.37C198.261 137.693 198.129 137.854 197.924 137.854H194.14C193.817 137.854 193.685 137.678 193.744 137.326C193.773 137.033 193.788 136.608 193.788 136.05C193.788 133.088 192.776 131.606 190.752 131.606C189.608 131.606 188.757 132.032 188.2 132.882C187.672 133.733 187.408 135.112 187.408 137.018V147.05C187.408 148.986 187.672 150.38 188.2 151.23C188.757 152.081 189.608 152.506 190.752 152.506C192.805 152.506 193.832 151.01 193.832 148.018C193.832 147.49 193.817 147.08 193.788 146.786C193.788 146.434 193.92 146.258 194.184 146.258H197.88C198.173 146.258 198.334 146.434 198.364 146.786C198.393 147.08 198.408 147.52 198.408 148.106C198.408 150.834 197.748 152.961 196.428 154.486C195.137 155.982 193.245 156.73 190.752 156.73Z" fill="white"></path> <path d="M210.462 156.73C205.182 156.73 202.542 153.577 202.542 147.27V136.842C202.542 133.704 203.217 131.342 204.566 129.758C205.916 128.174 207.881 127.382 210.462 127.382C212.897 127.382 214.789 128.116 216.138 129.582C217.488 131.02 218.162 133 218.162 135.522C218.162 136.138 218.118 136.754 218.03 137.37C217.972 137.693 217.84 137.854 217.634 137.854H213.85C213.528 137.854 213.396 137.678 213.454 137.326C213.484 137.033 213.498 136.608 213.498 136.05C213.498 133.088 212.486 131.606 210.462 131.606C209.318 131.606 208.468 132.032 207.91 132.882C207.382 133.733 207.118 135.112 207.118 137.018V147.05C207.118 148.986 207.382 150.38 207.91 151.23C208.468 152.081 209.318 152.506 210.462 152.506C212.516 152.506 213.542 151.01 213.542 148.018C213.542 147.49 213.528 147.08 213.498 146.786C213.498 146.434 213.63 146.258 213.894 146.258H217.59C217.884 146.258 218.045 146.434 218.074 146.786C218.104 147.08 218.118 147.52 218.118 148.106C218.118 150.834 217.458 152.961 216.138 154.486C214.848 155.982 212.956 156.73 210.462 156.73Z" fill="white"></path> <path d="M223.261 156.466C223.143 156.466 223.041 156.422 222.953 156.334C222.865 156.246 222.821 156.129 222.821 155.982V128.13C222.821 127.984 222.85 127.866 222.909 127.778C222.997 127.69 223.099 127.646 223.217 127.646H234.745C235.009 127.646 235.141 127.808 235.141 128.13V131.342C235.141 131.694 235.009 131.87 234.745 131.87H227.397V139.834H234.085C234.349 139.834 234.481 139.996 234.481 140.318V143.354C234.481 143.677 234.349 143.838 234.085 143.838H227.397V152.242H234.745C235.009 152.242 235.141 152.418 235.141 152.77V155.982C235.141 156.305 235.009 156.466 234.745 156.466H223.261Z" fill="white"></path> <path d="M240.35 156.466C240.233 156.466 240.13 156.422 240.042 156.334C239.954 156.246 239.91 156.129 239.91 155.982V128.13C239.91 127.808 240.057 127.646 240.35 127.646H244.046C244.164 127.646 244.266 127.69 244.354 127.778C244.442 127.866 244.486 127.984 244.486 128.13V152.242H251.35C251.644 152.242 251.79 152.418 251.79 152.77V155.982C251.79 156.305 251.644 156.466 251.35 156.466H240.35Z" fill="white"></path> <path d="M256.022 156.466C255.904 156.466 255.802 156.422 255.714 156.334C255.626 156.246 255.582 156.129 255.582 155.982V128.13C255.582 127.984 255.611 127.866 255.67 127.778C255.758 127.69 255.86 127.646 255.978 127.646H267.506C267.77 127.646 267.902 127.808 267.902 128.13V131.342C267.902 131.694 267.77 131.87 267.506 131.87H260.158V139.834H266.846C267.11 139.834 267.242 139.996 267.242 140.318V143.354C267.242 143.677 267.11 143.838 266.846 143.838H260.158V152.242H267.506C267.77 152.242 267.902 152.418 267.902 152.77V155.982C267.902 156.305 267.77 156.466 267.506 156.466H256.022Z" fill="white"></path> <path d="M273.067 156.466C272.95 156.466 272.847 156.422 272.759 156.334C272.701 156.246 272.671 156.129 272.671 155.982V128.13C272.671 127.984 272.701 127.866 272.759 127.778C272.847 127.69 272.95 127.646 273.067 127.646H278.919C281.677 127.646 283.686 128.321 284.947 129.67C286.238 130.99 286.883 133.058 286.883 135.874C286.883 140.01 285.754 142.636 283.495 143.75V143.794L287.939 155.85C287.969 155.909 287.983 155.997 287.983 156.114C287.983 156.349 287.866 156.466 287.631 156.466H283.539C283.305 156.466 283.143 156.349 283.055 156.114L279.139 144.674H277.247V155.982C277.247 156.129 277.203 156.246 277.115 156.334C277.057 156.422 276.969 156.466 276.851 156.466H273.067ZM278.919 140.714C280.122 140.714 280.987 140.348 281.515 139.614C282.043 138.881 282.307 137.737 282.307 136.182C282.307 134.628 282.029 133.528 281.471 132.882C280.943 132.208 280.093 131.87 278.919 131.87H277.247V140.714H278.919Z" fill="white"></path> <path d="M307.398 156.114C307.398 156.349 307.281 156.466 307.046 156.466H302.91C302.676 156.466 302.529 156.349 302.47 156.114L301.502 150.174H295.738L294.726 156.07C294.697 156.334 294.55 156.466 294.286 156.466H290.238C289.974 156.466 289.872 156.29 289.93 155.938L295.65 128.042C295.738 127.778 295.914 127.646 296.178 127.646H301.106C301.4 127.646 301.561 127.778 301.59 128.042L307.354 155.894L307.398 156.114ZM300.842 146.214L299.566 138.514C299.185 136.314 298.877 134.29 298.642 132.442H298.554C298.232 135.024 297.938 137.048 297.674 138.514L296.398 146.214H300.842Z" fill="white"></path> <path d="M312.875 156.466C312.611 156.466 312.479 156.305 312.479 155.982V131.87H307.991C307.727 131.87 307.595 131.694 307.595 131.342V128.13C307.595 127.808 307.727 127.646 307.991 127.646H321.499C321.792 127.646 321.939 127.808 321.939 128.13V131.342C321.939 131.694 321.792 131.87 321.499 131.87H317.055V155.982C317.055 156.305 316.923 156.466 316.659 156.466H312.875Z" fill="white"></path> <path d="M332.796 156.73C330.215 156.73 328.249 155.982 326.9 154.486C325.551 152.961 324.876 150.717 324.876 147.754V136.446C324.876 133.425 325.551 131.166 326.9 129.67C328.249 128.145 330.215 127.382 332.796 127.382C335.377 127.382 337.343 128.145 338.692 129.67C340.041 131.166 340.716 133.425 340.716 136.446V147.754C340.716 150.717 340.041 152.961 338.692 154.486C337.343 155.982 335.377 156.73 332.796 156.73ZM332.796 152.506C333.94 152.506 334.776 152.11 335.304 151.318C335.861 150.526 336.14 149.265 336.14 147.534V136.666C336.14 134.877 335.861 133.586 335.304 132.794C334.776 132.002 333.94 131.606 332.796 131.606C331.652 131.606 330.801 132.002 330.244 132.794C329.716 133.586 329.452 134.877 329.452 136.666V147.534C329.452 149.265 329.716 150.526 330.244 151.318C330.801 152.11 331.652 152.506 332.796 152.506Z" fill="white"></path> <path d="M345.808 156.466C345.691 156.466 345.588 156.422 345.5 156.334C345.442 156.246 345.412 156.129 345.412 155.982V128.13C345.412 127.984 345.442 127.866 345.5 127.778C345.588 127.69 345.691 127.646 345.808 127.646H351.66C354.418 127.646 356.427 128.321 357.688 129.67C358.979 130.99 359.624 133.058 359.624 135.874C359.624 140.01 358.495 142.636 356.236 143.75V143.794L360.68 155.85C360.71 155.909 360.724 155.997 360.724 156.114C360.724 156.349 360.607 156.466 360.372 156.466H356.28C356.046 156.466 355.884 156.349 355.796 156.114L351.88 144.674H349.988V155.982C349.988 156.129 349.944 156.246 349.856 156.334C349.798 156.422 349.71 156.466 349.592 156.466H345.808ZM351.66 140.714C352.863 140.714 353.728 140.348 354.256 139.614C354.784 138.881 355.048 137.737 355.048 136.182C355.048 134.628 354.77 133.528 354.212 132.882C353.684 132.208 352.834 131.87 351.66 131.87H349.988V140.714H351.66Z" fill="white"></path> </svg> 