<?xml version="1.0" encoding="UTF-8"?>
<svg xmlns="http://www.w3.org/2000/svg" xmlns:xlink="http://www.w3.org/1999/xlink" width="78px" height="26px" viewBox="0 0 78 26" version="1.1">
<g id="surface1">
<path style=" stroke:none;fill-rule:nonzero;fill:#ff7050;fill-opacity:1;" d="M 26 13 C 26 9.410156 23.089844 6.5 19.5 6.5 C 15.910156 6.5 13 9.410156 13 13 C 13 16.589844 15.910156 19.5 19.5 19.5 C 23.089844 19.5 26 16.589844 26 13 Z M 26 13 "/>
<path style=" stroke:none;fill-rule:nonzero;fill:#ffed5d;fill-opacity:1;" d="M 45.5 13 C 45.5 9.410156 42.589844 6.5 39 6.5 C 35.410156 6.5 32.5 9.410156 32.5 13 C 32.5 16.589844 35.410156 19.5 39 19.5 C 42.589844 19.5 45.5 16.589844 45.5 13 Z M 45.5 13 "/>
<path style=" stroke:none;fill-rule:nonzero;fill:#93de7f;fill-opacity:1;" d="M 65 13 C 65 9.410156 62.089844 6.5 58.5 6.5 C 54.910156 6.5 52 9.410156 52 13 C 52 16.589844 54.910156 19.5 58.5 19.5 C 62.089844 19.5 65 16.589844 65 13 Z M 65 13 "/>
</g>
</svg>
